<?xml version="1.0" encoding="UTF-8" standalone="no"?>
<!DOCTYPE svg PUBLIC "-//W3C//DTD SVG 1.1//EN" "http://www.w3.org/Graphics/SVG/1.1/DTD/svg11.dtd">
<!-- 由 Microsoft Visio, SVG Export 生成 DancingLinks9.svg 页-1 -->
<svg xmlns="http://www.w3.org/2000/svg" xmlns:xlink="http://www.w3.org/1999/xlink" xmlns:ev="http://www.w3.org/2001/xml-events"
		xmlns:v="http://schemas.microsoft.com/visio/2003/SVGExtensions/" width="10.3957in" height="9.68072in"
		viewBox="0 0 748.492 697.012" xml:space="preserve" color-interpolation-filters="sRGB" class="st12">
	<v:documentProperties v:langID="2052" v:metric="true" v:viewMarkup="false"/>

	<style type="text/css">
	<![CDATA[
		.st1 {fill:#ffffff;stroke:#000000;stroke-linecap:round;stroke-linejoin:round;stroke-width:0.75}
		.st2 {fill:#000000;font-family:Cambria Math;font-size:1.5em}
		.st3 {fill:none;stroke:none;stroke-linecap:round;stroke-linejoin:round;stroke-width:0.75}
		.st4 {marker-end:url(#mrkr1-108);marker-start:url(#mrkr1-106);stroke:#000000;stroke-linecap:round;stroke-linejoin:round;stroke-width:2}
		.st5 {fill:#000000;fill-opacity:1;stroke:#000000;stroke-opacity:1;stroke-width:0.38167938931298}
		.st6 {marker-end:url(#mrkr1-156);stroke:#c05046;stroke-linecap:round;stroke-linejoin:round;stroke-width:2}
		.st7 {fill:#c05046;fill-opacity:1;stroke:#c05046;stroke-opacity:1;stroke-width:0.38167938931298}
		.st8 {marker-start:url(#mrkr1-192);stroke:#c05046;stroke-linecap:round;stroke-linejoin:round;stroke-width:2}
		.st9 {marker-start:url(#mrkr3-419);stroke:#c05046;stroke-linecap:round;stroke-linejoin:round;stroke-width:2}
		.st10 {marker-end:url(#mrkr3-438);marker-start:url(#mrkr3-436);stroke:#4bacc6;stroke-linecap:round;stroke-linejoin:round;stroke-width:2}
		.st11 {fill:#4bacc6;fill-opacity:1;stroke:#4bacc6;stroke-opacity:1;stroke-width:0.38167938931298}
		.st12 {fill:none;fill-rule:evenodd;font-size:12px;overflow:visible;stroke-linecap:square;stroke-miterlimit:3}
	]]>
	</style>

	<defs id="Markers">
		<g id="lend1">
			<path d="M 1 -1 L 0 0 L 1 1 " style="stroke-linecap:round;stroke-linejoin:round;fill:none"/>
		</g>
		<marker id="mrkr1-106" class="st5" v:arrowType="1" v:arrowSize="3" orient="auto" markerUnits="strokeWidth"
				overflow="visible">
			<use xlink:href="#lend1" transform="scale(2.62) "/>
		</marker>
		<marker id="mrkr1-108" class="st5" v:arrowType="1" v:arrowSize="3" orient="auto" markerUnits="strokeWidth"
				overflow="visible">
			<use xlink:href="#lend1" transform="scale(-2.62,-2.62) "/>
		</marker>
		<marker id="mrkr1-156" class="st7" v:arrowType="1" v:arrowSize="3" orient="auto" markerUnits="strokeWidth"
				overflow="visible">
			<use xlink:href="#lend1" transform="scale(-2.62,-2.62) "/>
		</marker>
		<marker id="mrkr1-192" class="st7" v:arrowType="1" v:arrowSize="3" orient="auto" markerUnits="strokeWidth"
				overflow="visible">
			<use xlink:href="#lend1" transform="scale(2.62) "/>
		</marker>
		<g id="lend3">
			<path d="M 2 1 L 0 0 L 2 -1 " style="stroke-linecap:round;stroke-linejoin:round;fill:none"/>
		</g>
		<marker id="mrkr3-419" class="st7" v:arrowType="3" v:arrowSize="3" orient="auto" markerUnits="strokeWidth"
				overflow="visible">
			<use xlink:href="#lend3" transform="scale(2.62) "/>
		</marker>
		<marker id="mrkr3-436" class="st11" v:arrowType="3" v:arrowSize="3" orient="auto" markerUnits="strokeWidth"
				overflow="visible">
			<use xlink:href="#lend3" transform="scale(2.62) "/>
		</marker>
		<marker id="mrkr3-438" class="st11" v:arrowType="3" v:arrowSize="3" orient="auto" markerUnits="strokeWidth"
				overflow="visible">
			<use xlink:href="#lend3" transform="scale(-2.62,-2.62) "/>
		</marker>
	</defs>
	<g v:mID="0" v:index="1" v:groupContext="foregroundPage">
		<title>页-1</title>
		<v:pageProperties v:drawingScale="0.0393701" v:pageScale="0.0393701" v:drawingUnits="24" v:shadowOffsetX="8.50394"
				v:shadowOffsetY="-8.50394"/>
		<v:layer v:name="连接线" v:index="0"/>
		<g id="shape3083-1" v:mID="3083" v:groupContext="shape" transform="translate(172.303,-479.178)">
			<title>框.3083</title>
			<desc>[1, 1]</desc>
			<v:userDefs>
				<v:ud v:nameU="visVersion" v:val="VT0(15):26"/>
			</v:userDefs>
			<v:textBlock v:margins="rect(4,4,4,4)" v:tabSpace="42.5197"/>
			<v:textRect cx="27.6661" cy="667.429" width="55.34" height="59.1654"/>
			<rect x="0" y="637.847" width="55.3323" height="59.1654" class="st1"/>
			<text x="7.57" y="672.83" class="st2" v:langID="2052"><v:paragraph v:horizAlign="1"/><v:tabList/>[1, 1]</text>		</g>
		<g id="shape3084-4" v:mID="3084" v:groupContext="shape" transform="translate(339.494,-479.507)">
			<title>框.3084</title>
			<desc>[1, 3]</desc>
			<v:userDefs>
				<v:ud v:nameU="visVersion" v:val="VT0(15):26"/>
			</v:userDefs>
			<v:textBlock v:margins="rect(4,4,4,4)" v:tabSpace="42.5197"/>
			<v:textRect cx="27.6661" cy="667.429" width="55.34" height="59.1654"/>
			<rect x="0" y="637.847" width="55.3323" height="59.1654" class="st1"/>
			<text x="7.57" y="672.83" class="st2" v:langID="2052"><v:paragraph v:horizAlign="1"/><v:tabList/>[1, 3]</text>		</g>
		<g id="shape3085-7" v:mID="3085" v:groupContext="shape" transform="translate(255.988,-310.325)">
			<title>框.3085</title>
			<desc>[3, 2]</desc>
			<v:userDefs>
				<v:ud v:nameU="visVersion" v:val="VT0(15):26"/>
			</v:userDefs>
			<v:textBlock v:margins="rect(4,4,4,4)" v:tabSpace="42.5197"/>
			<v:textRect cx="27.6661" cy="667.429" width="55.34" height="59.1654"/>
			<rect x="0" y="637.847" width="55.3323" height="59.1654" class="st1"/>
			<text x="7.57" y="672.83" class="st2" v:langID="2052"><v:paragraph v:horizAlign="1"/><v:tabList/>[3, 2]</text>		</g>
		<g id="shape3086-10" v:mID="3086" v:groupContext="shape" transform="translate(172.264,-395.953)">
			<title>框.3086</title>
			<desc>[2, 1]</desc>
			<v:userDefs>
				<v:ud v:nameU="visVersion" v:val="VT0(15):26"/>
			</v:userDefs>
			<v:textBlock v:margins="rect(4,4,4,4)" v:tabSpace="42.5197"/>
			<v:textRect cx="27.6661" cy="667.429" width="55.34" height="59.1654"/>
			<rect x="0" y="637.847" width="55.3323" height="59.1654" class="st1"/>
			<text x="7.57" y="672.83" class="st2" v:langID="2052"><v:paragraph v:horizAlign="1"/><v:tabList/>[2, 1]</text>		</g>
		<g id="shape3087-13" v:mID="3087" v:groupContext="shape" transform="translate(423.79,-396.146)">
			<title>框.3087</title>
			<desc>[2, 4]</desc>
			<v:userDefs>
				<v:ud v:nameU="visVersion" v:val="VT0(15):26"/>
			</v:userDefs>
			<v:textBlock v:margins="rect(4,4,4,4)" v:tabSpace="42.5197"/>
			<v:textRect cx="27.6661" cy="667.429" width="55.34" height="59.1654"/>
			<rect x="0" y="637.847" width="55.3323" height="59.1654" class="st1"/>
			<text x="7.57" y="672.83" class="st2" v:langID="2052"><v:paragraph v:horizAlign="1"/><v:tabList/>[2, 4]</text>		</g>
		<g id="shape3088-16" v:mID="3088" v:groupContext="shape" transform="translate(423.79,-128.675)">
			<title>框.3088</title>
			<desc>[5, 4]</desc>
			<v:userDefs>
				<v:ud v:nameU="visVersion" v:val="VT0(15):26"/>
			</v:userDefs>
			<v:textBlock v:margins="rect(4,4,4,4)" v:tabSpace="42.5197"/>
			<v:textRect cx="27.6661" cy="667.429" width="55.34" height="59.1654"/>
			<rect x="0" y="637.847" width="55.3323" height="59.1654" class="st1"/>
			<text x="7.57" y="672.83" class="st2" v:langID="2052"><v:paragraph v:horizAlign="1"/><v:tabList/>[5, 4]</text>		</g>
		<g id="shape3089-19" v:mID="3089" v:groupContext="shape" transform="translate(255.988,-218.934)">
			<title>框.3089</title>
			<desc>[4, 2]</desc>
			<v:userDefs>
				<v:ud v:nameU="visVersion" v:val="VT0(15):26"/>
			</v:userDefs>
			<v:textBlock v:margins="rect(4,4,4,4)" v:tabSpace="42.5197"/>
			<v:textRect cx="27.6661" cy="667.429" width="55.34" height="59.1654"/>
			<rect x="0" y="637.847" width="55.3323" height="59.1654" class="st1"/>
			<text x="7.57" y="672.83" class="st2" v:langID="2052"><v:paragraph v:horizAlign="1"/><v:tabList/>[4, 2]</text>		</g>
		<g id="shape3090-22" v:mID="3090" v:groupContext="shape" transform="translate(339.355,-219.206)">
			<title>框.3090</title>
			<desc>[4, 3]</desc>
			<v:userDefs>
				<v:ud v:nameU="visVersion" v:val="VT0(15):26"/>
			</v:userDefs>
			<v:textBlock v:margins="rect(4,4,4,4)" v:tabSpace="42.5197"/>
			<v:textRect cx="27.6661" cy="667.429" width="55.34" height="59.1654"/>
			<rect x="0" y="637.847" width="55.3323" height="59.1654" class="st1"/>
			<text x="7.57" y="672.83" class="st2" v:langID="2052"><v:paragraph v:horizAlign="1"/><v:tabList/>[4, 3]</text>		</g>
		<g id="shape3091-25" v:mID="3091" v:groupContext="shape" transform="translate(52.1787,-492.271)">
			<title>工作表.3091</title>
			<desc>sub 1</desc>
			<v:textBlock v:margins="rect(4,4,4,4)" v:tabSpace="42.5197"/>
			<v:textRect cx="34.1758" cy="681.068" width="68.36" height="31.8872"/>
			<rect x="0" y="665.125" width="68.3516" height="31.8872" class="st3"/>
			<text x="13.45" y="686.47" class="st2" v:langID="2052"><v:paragraph v:horizAlign="1"/><v:tabList/>sub 1</text>		</g>
		<g id="shape3092-28" v:mID="3092" v:groupContext="shape" transform="translate(0.375,-325.821)">
			<title>工作表.3092</title>
			<desc>m</desc>
			<v:textBlock v:margins="rect(4,4,4,4)" v:tabSpace="42.5197"/>
			<v:textRect cx="24.157" cy="681.068" width="48.32" height="31.8872"/>
			<rect x="0" y="665.125" width="48.314" height="31.8872" class="st3"/>
			<text x="16.67" y="686.47" class="st2" v:langID="2052"><v:paragraph v:horizAlign="1"/><v:tabList/>m</text>		</g>
		<g id="shape3093-31" v:mID="3093" v:groupContext="shape" transform="translate(423.467,-664.75)">
			<title>工作表.3093</title>
			<desc>n</desc>
			<v:textBlock v:margins="rect(4,4,4,4)" v:tabSpace="42.5197"/>
			<v:textRect cx="24.157" cy="681.068" width="48.32" height="31.8872"/>
			<rect x="0" y="665.125" width="48.314" height="31.8872" class="st3"/>
			<text x="19.13" y="686.47" class="st2" v:langID="2052"><v:paragraph v:horizAlign="1"/><v:tabList/>n</text>		</g>
		<g id="shape3094-34" v:mID="3094" v:groupContext="shape" transform="translate(51.9753,-409.046)">
			<title>工作表.3094</title>
			<desc>sub 2</desc>
			<v:textBlock v:margins="rect(4,4,4,4)" v:tabSpace="42.5197"/>
			<v:textRect cx="34.1758" cy="681.068" width="68.36" height="31.8872"/>
			<rect x="0" y="665.125" width="68.3516" height="31.8872" class="st3"/>
			<text x="13.45" y="686.47" class="st2" v:langID="2052"><v:paragraph v:horizAlign="1"/><v:tabList/>sub 2</text>		</g>
		<g id="shape3095-37" v:mID="3095" v:groupContext="shape" transform="translate(51.9371,-322.884)">
			<title>工作表.3095</title>
			<desc>sub 3</desc>
			<v:textBlock v:margins="rect(4,4,4,4)" v:tabSpace="42.5197"/>
			<v:textRect cx="34.1758" cy="681.068" width="68.36" height="31.8872"/>
			<rect x="0" y="665.125" width="68.3516" height="31.8872" class="st3"/>
			<text x="13.45" y="686.47" class="st2" v:langID="2052"><v:paragraph v:horizAlign="1"/><v:tabList/>sub 3</text>		</g>
		<g id="shape3096-40" v:mID="3096" v:groupContext="shape" transform="translate(52.2677,-231.917)">
			<title>工作表.3096</title>
			<desc>sub 4</desc>
			<v:textBlock v:margins="rect(4,4,4,4)" v:tabSpace="42.5197"/>
			<v:textRect cx="34.1758" cy="681.068" width="68.36" height="31.8872"/>
			<rect x="0" y="665.125" width="68.3516" height="31.8872" class="st3"/>
			<text x="13.45" y="686.47" class="st2" v:langID="2052"><v:paragraph v:horizAlign="1"/><v:tabList/>sub 4</text>		</g>
		<g id="shape3097-43" v:mID="3097" v:groupContext="shape" transform="translate(52.2423,-141.329)">
			<title>工作表.3097</title>
			<desc>sub 5</desc>
			<v:textBlock v:margins="rect(4,4,4,4)" v:tabSpace="42.5197"/>
			<v:textRect cx="34.1758" cy="681.068" width="68.36" height="31.8872"/>
			<rect x="0" y="665.125" width="68.3516" height="31.8872" class="st3"/>
			<text x="13.45" y="686.47" class="st2" v:langID="2052"><v:paragraph v:horizAlign="1"/><v:tabList/>sub 5</text>		</g>
		<g id="shape3098-46" v:mID="3098" v:groupContext="shape" transform="translate(501.192,-479.178)">
			<title>框.3098</title>
			<desc>[1, 5]</desc>
			<v:userDefs>
				<v:ud v:nameU="visVersion" v:val="VT0(15):26"/>
			</v:userDefs>
			<v:textBlock v:margins="rect(4,4,4,4)" v:tabSpace="42.5197"/>
			<v:textRect cx="27.6661" cy="667.429" width="55.34" height="59.1654"/>
			<rect x="0" y="637.847" width="55.3323" height="59.1654" class="st1"/>
			<text x="7.57" y="672.83" class="st2" v:langID="2052"><v:paragraph v:horizAlign="1"/><v:tabList/>[1, 5]</text>		</g>
		<g id="shape3099-49" v:mID="3099" v:groupContext="shape" transform="translate(577.153,-479.178)">
			<title>框.3099</title>
			<desc>[1, 6]</desc>
			<v:userDefs>
				<v:ud v:nameU="visVersion" v:val="VT0(15):26"/>
			</v:userDefs>
			<v:textBlock v:margins="rect(4,4,4,4)" v:tabSpace="42.5197"/>
			<v:textRect cx="27.6661" cy="667.429" width="55.34" height="59.1654"/>
			<rect x="0" y="637.847" width="55.3323" height="59.1654" class="st1"/>
			<text x="7.57" y="672.83" class="st2" v:langID="2052"><v:paragraph v:horizAlign="1"/><v:tabList/>[1, 6]</text>		</g>
		<g id="shape3100-52" v:mID="3100" v:groupContext="shape" transform="translate(659.084,-395.74)">
			<title>框.3100</title>
			<desc>[2, 7]</desc>
			<v:userDefs>
				<v:ud v:nameU="visVersion" v:val="VT0(15):26"/>
			</v:userDefs>
			<v:textBlock v:margins="rect(4,4,4,4)" v:tabSpace="42.5197"/>
			<v:textRect cx="27.6661" cy="667.429" width="55.34" height="59.1654"/>
			<rect x="0" y="637.847" width="55.3323" height="59.1654" class="st1"/>
			<text x="7.57" y="672.83" class="st2" v:langID="2052"><v:paragraph v:horizAlign="1"/><v:tabList/>[2, 7]</text>		</g>
		<g id="shape3101-55" v:mID="3101" v:groupContext="shape" transform="translate(577.077,-310.176)">
			<title>框.3101</title>
			<desc>[3, 6]</desc>
			<v:userDefs>
				<v:ud v:nameU="visVersion" v:val="VT0(15):26"/>
			</v:userDefs>
			<v:textBlock v:margins="rect(4,4,4,4)" v:tabSpace="42.5197"/>
			<v:textRect cx="27.6661" cy="667.429" width="55.34" height="59.1654"/>
			<rect x="0" y="637.847" width="55.3323" height="59.1654" class="st1"/>
			<text x="7.57" y="672.83" class="st2" v:langID="2052"><v:paragraph v:horizAlign="1"/><v:tabList/>[3, 6]</text>		</g>
		<g id="shape3102-58" v:mID="3102" v:groupContext="shape" transform="translate(659.046,-309.963)">
			<title>框.3102</title>
			<desc>[3, 7]</desc>
			<v:userDefs>
				<v:ud v:nameU="visVersion" v:val="VT0(15):26"/>
			</v:userDefs>
			<v:textBlock v:margins="rect(4,4,4,4)" v:tabSpace="42.5197"/>
			<v:textRect cx="27.6661" cy="667.429" width="55.34" height="59.1654"/>
			<rect x="0" y="637.847" width="55.3323" height="59.1654" class="st1"/>
			<text x="7.57" y="672.83" class="st2" v:langID="2052"><v:paragraph v:horizAlign="1"/><v:tabList/>[3, 7]</text>		</g>
		<g id="shape3103-61" v:mID="3103" v:groupContext="shape" transform="translate(577.077,-217.384)">
			<title>框.3103</title>
			<desc>[4, 6]</desc>
			<v:userDefs>
				<v:ud v:nameU="visVersion" v:val="VT0(15):26"/>
			</v:userDefs>
			<v:textBlock v:margins="rect(4,4,4,4)" v:tabSpace="42.5197"/>
			<v:textRect cx="27.6661" cy="667.429" width="55.34" height="59.1654"/>
			<rect x="0" y="637.847" width="55.3323" height="59.1654" class="st1"/>
			<text x="7.57" y="672.83" class="st2" v:langID="2052"><v:paragraph v:horizAlign="1"/><v:tabList/>[4, 6]</text>		</g>
		<g id="shape3104-64" v:mID="3104" v:groupContext="shape" transform="translate(501.192,-128.675)">
			<title>框.3104</title>
			<desc>[5, 5]</desc>
			<v:userDefs>
				<v:ud v:nameU="visVersion" v:val="VT0(15):26"/>
			</v:userDefs>
			<v:textBlock v:margins="rect(4,4,4,4)" v:tabSpace="42.5197"/>
			<v:textRect cx="27.6661" cy="667.429" width="55.34" height="59.1654"/>
			<rect x="0" y="637.847" width="55.3323" height="59.1654" class="st1"/>
			<text x="7.57" y="672.83" class="st2" v:langID="2052"><v:paragraph v:horizAlign="1"/><v:tabList/>[5, 5]</text>		</g>
		<g id="shape3105-67" v:mID="3105" v:groupContext="shape" transform="translate(658.113,-128.675)">
			<title>框.3105</title>
			<desc>[5, 7]</desc>
			<v:userDefs>
				<v:ud v:nameU="visVersion" v:val="VT0(15):26"/>
			</v:userDefs>
			<v:textBlock v:margins="rect(4,4,4,4)" v:tabSpace="42.5197"/>
			<v:textRect cx="27.6661" cy="667.429" width="55.34" height="59.1654"/>
			<rect x="0" y="637.847" width="55.3323" height="59.1654" class="st1"/>
			<text x="7.57" y="672.83" class="st2" v:langID="2052"><v:paragraph v:horizAlign="1"/><v:tabList/>[5, 7]</text>		</g>
		<g id="shape3106-70" v:mID="3106" v:groupContext="shape" transform="translate(52.1914,-55.5521)">
			<title>工作表.3106</title>
			<desc>sub 6</desc>
			<v:textBlock v:margins="rect(4,4,4,4)" v:tabSpace="42.5197"/>
			<v:textRect cx="34.1758" cy="681.068" width="68.36" height="31.8872"/>
			<rect x="0" y="665.125" width="68.3516" height="31.8872" class="st3"/>
			<text x="13.45" y="686.47" class="st2" v:langID="2052"><v:paragraph v:horizAlign="1"/><v:tabList/>sub 6</text>		</g>
		<g id="shape3107-73" v:mID="3107" v:groupContext="shape" transform="translate(501.141,-42.8981)">
			<title>框.3107</title>
			<desc>[6, 5]</desc>
			<v:userDefs>
				<v:ud v:nameU="visVersion" v:val="VT0(15):26"/>
			</v:userDefs>
			<v:textBlock v:margins="rect(4,4,4,4)" v:tabSpace="42.5197"/>
			<v:textRect cx="27.6661" cy="667.429" width="55.34" height="59.1654"/>
			<rect x="0" y="637.847" width="55.3323" height="59.1654" class="st1"/>
			<text x="7.57" y="672.83" class="st2" v:langID="2052"><v:paragraph v:horizAlign="1"/><v:tabList/>[6, 5]</text>		</g>
		<g id="shape3108-76" v:mID="3108" v:groupContext="shape" transform="translate(172.303,-562.403)">
			<title>框.3108</title>
			<desc>1</desc>
			<v:userDefs>
				<v:ud v:nameU="visVersion" v:val="VT0(15):26"/>
			</v:userDefs>
			<v:textBlock v:margins="rect(4,4,4,4)" v:tabSpace="42.5197"/>
			<v:textRect cx="27.6661" cy="667.429" width="55.34" height="59.1654"/>
			<rect x="0" y="637.847" width="55.3323" height="59.1654" class="st1"/>
			<text x="22.68" y="672.83" class="st2" v:langID="2052"><v:paragraph v:horizAlign="1"/><v:tabList/>1</text>		</g>
		<g id="shape3109-79" v:mID="3109" v:groupContext="shape" transform="translate(255.899,-562.403)">
			<title>框.3109</title>
			<desc>2</desc>
			<v:userDefs>
				<v:ud v:nameU="visVersion" v:val="VT0(15):26"/>
			</v:userDefs>
			<v:textBlock v:margins="rect(4,4,4,4)" v:tabSpace="42.5197"/>
			<v:textRect cx="27.6661" cy="667.429" width="55.34" height="59.1654"/>
			<rect x="0" y="637.847" width="55.3323" height="59.1654" class="st1"/>
			<text x="22.68" y="672.83" class="st2" v:langID="2052"><v:paragraph v:horizAlign="1"/><v:tabList/>2</text>		</g>
		<g id="shape3110-82" v:mID="3110" v:groupContext="shape" transform="translate(339.494,-562.403)">
			<title>框.3110</title>
			<desc>3</desc>
			<v:userDefs>
				<v:ud v:nameU="visVersion" v:val="VT0(15):26"/>
			</v:userDefs>
			<v:textBlock v:margins="rect(4,4,4,4)" v:tabSpace="42.5197"/>
			<v:textRect cx="27.6661" cy="667.429" width="55.34" height="59.1654"/>
			<rect x="0" y="637.847" width="55.3323" height="59.1654" class="st1"/>
			<text x="22.68" y="672.83" class="st2" v:langID="2052"><v:paragraph v:horizAlign="1"/><v:tabList/>3</text>		</g>
		<g id="shape3111-85" v:mID="3111" v:groupContext="shape" transform="translate(423.467,-562.403)">
			<title>框.3111</title>
			<desc>4</desc>
			<v:userDefs>
				<v:ud v:nameU="visVersion" v:val="VT0(15):26"/>
			</v:userDefs>
			<v:textBlock v:margins="rect(4,4,4,4)" v:tabSpace="42.5197"/>
			<v:textRect cx="27.6661" cy="667.429" width="55.34" height="59.1654"/>
			<rect x="0" y="637.847" width="55.3323" height="59.1654" class="st1"/>
			<text x="22.68" y="672.83" class="st2" v:langID="2052"><v:paragraph v:horizAlign="1"/><v:tabList/>4</text>		</g>
		<g id="shape3112-88" v:mID="3112" v:groupContext="shape" transform="translate(501.192,-562.403)">
			<title>框.3112</title>
			<desc>5</desc>
			<v:userDefs>
				<v:ud v:nameU="visVersion" v:val="VT0(15):26"/>
			</v:userDefs>
			<v:textBlock v:margins="rect(4,4,4,4)" v:tabSpace="42.5197"/>
			<v:textRect cx="27.6661" cy="667.429" width="55.34" height="59.1654"/>
			<rect x="0" y="637.847" width="55.3323" height="59.1654" class="st1"/>
			<text x="22.68" y="672.83" class="st2" v:langID="2052"><v:paragraph v:horizAlign="1"/><v:tabList/>5</text>		</g>
		<g id="shape3113-91" v:mID="3113" v:groupContext="shape" transform="translate(577.153,-562.403)">
			<title>框.3113</title>
			<desc>6</desc>
			<v:userDefs>
				<v:ud v:nameU="visVersion" v:val="VT0(15):26"/>
			</v:userDefs>
			<v:textBlock v:margins="rect(4,4,4,4)" v:tabSpace="42.5197"/>
			<v:textRect cx="27.6661" cy="667.429" width="55.34" height="59.1654"/>
			<rect x="0" y="637.847" width="55.3323" height="59.1654" class="st1"/>
			<text x="22.68" y="672.83" class="st2" v:langID="2052"><v:paragraph v:horizAlign="1"/><v:tabList/>6</text>		</g>
		<g id="shape3114-94" v:mID="3114" v:groupContext="shape" transform="translate(658.113,-562.403)">
			<title>框.3114</title>
			<desc>7</desc>
			<v:userDefs>
				<v:ud v:nameU="visVersion" v:val="VT0(15):26"/>
			</v:userDefs>
			<v:textBlock v:margins="rect(4,4,4,4)" v:tabSpace="42.5197"/>
			<v:textRect cx="27.6661" cy="667.429" width="55.34" height="59.1654"/>
			<rect x="0" y="637.847" width="55.3323" height="59.1654" class="st1"/>
			<text x="22.68" y="672.83" class="st2" v:langID="2052"><v:paragraph v:horizAlign="1"/><v:tabList/>7</text>		</g>
		<g id="shape3115-97" v:mID="3115" v:groupContext="shape" transform="translate(68.7962,-562.403)">
			<title>框.3115</title>
			<desc>head</desc>
			<v:userDefs>
				<v:ud v:nameU="visVersion" v:val="VT0(15):26"/>
			</v:userDefs>
			<v:textBlock v:margins="rect(4,4,4,4)" v:tabSpace="42.5197"/>
			<v:textRect cx="27.6661" cy="667.429" width="55.34" height="59.1654"/>
			<rect x="0" y="637.847" width="55.3323" height="59.1654" class="st1"/>
			<text x="8.92" y="672.83" class="st2" v:langID="2052"><v:paragraph v:horizAlign="1"/><v:tabList/>head</text>		</g>
		<g id="shape3116-100" v:mID="3116" v:groupContext="shape" v:layerMember="0" transform="translate(227.635,-584.899)">
			<title>动态连接线.3116</title>
			<path d="M0 689.93 L8.23 689.93 A2.3622 2.3622 0 1 1 12.95 689.93 L17.12 689.93 A4.70452 4.70452 0 0 1 26.53 689.93 L28.26
						 689.93" class="st4"/>
		</g>
		<g id="shape3117-109" v:mID="3117" v:groupContext="shape" v:layerMember="0" transform="translate(124.128,-584.899)">
			<title>动态连接线.3117</title>
			<path d="M0 689.93 L28.1 689.93 A2.3622 2.3622 0 1 1 32.82 689.93 L35.18 689.93 A2.3622 2.3622 0 0 1 39.91 689.93 L40.27
						 689.93 A2.3622 2.3622 0 0 1 44.99 689.93 L48.17 689.93" class="st4"/>
		</g>
		<g id="shape3118-116" v:mID="3118" v:groupContext="shape" v:layerMember="0" transform="translate(311.231,-584.899)">
			<title>动态连接线.3118</title>
			<path d="M0 689.93 L10.06 689.93 A2.3622 2.3622 0 1 1 14.78 689.93 L15.27 689.93 A4.00672 4.00672 0 0 1 23.29 689.93
						 L28.26 689.93" class="st4"/>
		</g>
		<g id="shape3119-123" v:mID="3119" v:groupContext="shape" v:layerMember="0" transform="translate(394.827,-584.899)">
			<title>动态连接线.3119</title>
			<path d="M0 689.93 L10.89 689.93 A2.3622 2.3622 0 0 1 15.61 689.93 L20 689.93 A2.3622 2.3622 0 1 1 24.73 689.93 L28.64
						 689.93" class="st4"/>
		</g>
		<g id="shape3120-130" v:mID="3120" v:groupContext="shape" v:layerMember="0" transform="translate(478.799,-584.899)">
			<title>动态连接线.3120</title>
			<path d="M0 689.93 L3.34 689.93 A2.3622 2.3622 0 0 1 8.06 689.93 L9.4 689.93 A2.3622 2.3622 0 1 1 14.13 689.93 L14.27
						 689.93 A2.3622 2.3622 0 0 1 18.99 689.93 L22.39 689.93" class="st4"/>
		</g>
		<g id="shape3121-137" v:mID="3121" v:groupContext="shape" v:layerMember="0" transform="translate(556.524,-584.899)">
			<title>动态连接线.3121</title>
			<path d="M0 689.93 L2.87 689.93 A2.3622 2.3622 0 1 1 7.6 689.93 L9.2 689.93 A4.30332 4.30332 0 0 1 17.8 689.93 L20.63
						 689.93" class="st4"/>
		</g>
		<g id="shape3122-144" v:mID="3122" v:groupContext="shape" v:layerMember="0" transform="translate(632.486,-584.899)">
			<title>动态连接线.3122</title>
			<path d="M0 689.93 L6.28 689.93 A2.3622 2.3622 0 0 1 11.01 689.93 L13.37 689.93 A4.48819 4.48819 0 0 1 22.35 689.93 L25.63
						 689.93" class="st4"/>
		</g>
		<g id="shape3123-151" v:mID="3123" v:groupContext="shape" v:layerMember="0" transform="translate(192.882,-538.343)">
			<title>动态连接线.3123</title>
			<path d="M7.09 697.01 L7.09 672.95" class="st6"/>
		</g>
		<g id="shape3124-157" v:mID="3124" v:groupContext="shape" v:layerMember="0" transform="translate(192.863,-455.118)">
			<title>动态连接线.3124</title>
			<path d="M7.07 697.01 L7.11 672.95" class="st6"/>
		</g>
		<g id="shape3125-162" v:mID="3125" v:groupContext="shape" v:layerMember="0" transform="translate(290.696,-369.49)">
			<title>动态连接线.3125</title>
			<path d="M-7.04 697.01 L-7.13 504.1" class="st6"/>
		</g>
		<g id="shape3126-167" v:mID="3126" v:groupContext="shape" v:layerMember="0" transform="translate(276.567,-278.1)">
			<title>动态连接线.3126</title>
			<path d="M7.09 697.01 L7.09 664.79" class="st6"/>
		</g>
		<g id="shape3127-172" v:mID="3127" v:groupContext="shape" v:layerMember="0" transform="translate(360.074,-538.672)">
			<title>动态连接线.3127</title>
			<path d="M7.09 697.01 L7.09 673.28" class="st6"/>
		</g>
		<g id="shape3128-177" v:mID="3128" v:groupContext="shape" v:layerMember="0" transform="translate(360.004,-278.371)">
			<title>动态连接线.3128</title>
			<path d="M7.02 697.01 L7.16 495.88" class="st6"/>
		</g>
		<g id="shape3129-182" v:mID="3129" v:groupContext="shape" v:layerMember="0" transform="translate(458.381,-455.312)">
			<title>动态连接线.3129</title>
			<path d="M-6.93 697.01 L-7.25 589.92" class="st6"/>
		</g>
		<g id="shape3130-187" v:mID="3130" v:groupContext="shape" v:layerMember="0" transform="translate(444.369,-187.84)">
			<title>动态连接线.3130</title>
			<path d="M7.09 697.01 L7.09 488.71" class="st8"/>
		</g>
		<g id="shape3131-193" v:mID="3131" v:groupContext="shape" v:layerMember="0" transform="translate(521.772,-538.343)">
			<title>动态连接线.3131</title>
			<path d="M7.09 697.01 L7.09 672.95" class="st6"/>
		</g>
		<g id="shape3132-198" v:mID="3132" v:groupContext="shape" v:layerMember="0" transform="translate(521.772,-187.84)">
			<title>动态连接线.3132</title>
			<path d="M7.09 697.01 L7.09 405.67" class="st6"/>
		</g>
		<g id="shape3133-203" v:mID="3133" v:groupContext="shape" v:layerMember="0" transform="translate(521.746,-102.063)">
			<title>动态连接线.3133</title>
			<path d="M7.06 697.01 L7.11 670.4" class="st8"/>
		</g>
		<g id="shape3134-208" v:mID="3134" v:groupContext="shape" v:layerMember="0" transform="translate(597.733,-538.343)">
			<title>动态连接线.3134</title>
			<path d="M7.09 697.01 L7.09 672.95" class="st6"/>
		</g>
		<g id="shape3135-213" v:mID="3135" v:groupContext="shape" v:layerMember="0" transform="translate(597.695,-369.341)">
			<title>动态连接线.3135</title>
			<path d="M7.05 697.01 L7.12 587.18" class="st6"/>
		</g>
		<g id="shape3136-218" v:mID="3136" v:groupContext="shape" v:layerMember="0" transform="translate(597.657,-276.55)">
			<title>动态连接线.3136</title>
			<path d="M7.09 697.01 L7.09 663.39" class="st6"/>
		</g>
		<g id="shape3137-223" v:mID="3137" v:groupContext="shape" v:layerMember="0" transform="translate(696.406,-454.905)">
			<title>动态连接线.3137</title>
			<path d="M7.09 697.01 L7.09 589.51" class="st6"/>
		</g>
		<g id="shape3138-228" v:mID="3138" v:groupContext="shape" v:layerMember="0" transform="translate(694.988,-369.129)">
			<title>动态连接线.3138</title>
			<path d="M7.09 697.01 L7.09 670.4" class="st8"/>
		</g>
		<g id="shape3139-233" v:mID="3139" v:groupContext="shape" v:layerMember="0" transform="translate(693.571,-187.84)">
			<title>动态连接线.3139</title>
			<path d="M7.09 697.01 L7.09 574.89" class="st8"/>
		</g>
		<g id="shape3140-238" v:mID="3140" v:groupContext="shape" v:layerMember="0" transform="translate(227.635,-501.839)">
			<title>动态连接线.3140</title>
			<path d="M0 690.09 L8.23 690.07 A2.3622 2.3622 0 1 1 12.95 690.05 L17.12 690.04 A4.70453 4.70453 0 1 1 26.53 690.01 L53.59
						 689.93 A2.3622 2.3622 0 1 1 58.32 689.92 L66.72 689.89 A2.3622 2.3622 0 1 1 71.45 689.88 L93.65 689.81 A2.3622
						 2.3622 0 1 1 98.38 689.8 L98.87 689.8 A4.00673 4.00673 0 0 1 106.88 689.78 L111.86 689.76" class="st4"/>
		</g>
		<g id="shape3141-245" v:mID="3141" v:groupContext="shape" v:layerMember="0" transform="translate(394.827,-516.012)">
			<title>动态连接线.3141</title>
			<path d="M0 703.93 L10.89 703.97 A2.3622 2.3622 0 0 1 15.61 703.98 L20 704 A2.3622 2.3622 0 0 1 24.73 704.01 L38.23 704.05
						 A2.3622 2.3622 0 0 1 42.95 704.07 L54.11 704.1 A2.3622 2.3622 0 0 1 58.83 704.12 L68.19 704.15 A2.3622 2.3622
						 0 0 1 72.92 704.16 L87.31 704.2 A2.3622 2.3622 0 0 1 92.04 704.22 L93.37 704.22 A2.3622 2.3622 0 0 1 98.1
						 704.24 L98.24 704.24 A2.3622 2.3622 0 0 1 102.96 704.25 L106.37 704.26" class="st4"/>
		</g>
		<g id="shape3142-252" v:mID="3142" v:groupContext="shape" v:layerMember="0" transform="translate(556.524,-501.674)">
			<title>动态连接线.3142</title>
			<path d="M0 689.93 L2.87 689.93 A2.3622 2.3622 0 1 1 7.6 689.93 L9.2 689.93 A4.30332 4.30332 0 0 1 17.8 689.93 L20.63
						 689.93" class="st4"/>
		</g>
		<g id="shape3143-259" v:mID="3143" v:groupContext="shape" v:layerMember="0" transform="translate(632.486,-501.674)">
			<title>动态连接线.3143</title>
			<path d="M0 689.93 L6.28 689.93 A2.3622 2.3622 0 0 1 11.01 689.93 L13.37 689.93 A4.48819 4.48819 0 0 1 22.35 689.93 L36.02
						 689.93 A2.3622 2.3622 0 0 1 40.75 689.93 L50.93 689.93 A2.3622 2.3622 0 0 1 55.66 689.93 L60.14 689.93 A2.3622
						 2.3622 0 0 1 64.86 689.93 L68.64 689.93 A2.3622 2.3622 0 0 1 73.37 689.93 L94.86 689.93 L94.86 649.71 L73.37
						 649.71 A2.3622 2.3622 -180 0 0 68.64 649.71 L64.86 649.71 A2.3622 2.3622 -180 0 0 60.14 649.71 L55.66 649.71
						 A2.3622 2.3622 -180 0 0 50.93 649.71 L40.99 649.71 A2.3622 2.3622 -180 0 0 36.26 649.71 L22.35 649.71 A4.48819
						 4.48819 -180 0 0 13.37 649.71 L11.01 649.71 A2.3622 2.3622 -180 0 0 6.28 649.71 L-13.09 649.71 A2.3622 2.3622
						 -180 0 0 -17.81 649.71 L-25.3 649.71 A2.3622 2.3622 -180 0 0 -30.03 649.71 L-58.16 649.71 A4.30332 4.30332
						 -180 0 0 -66.77 649.71 L-68.36 649.71 A2.3622 2.3622 -180 1 0 -73.09 649.71 L-88.21 649.71 A2.3622 2.3622
						 -180 1 0 -92.93 649.71 L-101.26 649.71 A2.3622 2.3622 -180 0 0 -105.99 649.71 L-134.69 649.71 A2.3622 2.3622
						 -180 0 0 -139.42 649.71 L-139.56 649.71 A2.3622 2.3622 -180 1 0 -144.29 649.71 L-145.62 649.71 A2.3622 2.3622
						 -180 0 0 -150.35 649.71 L-164.74 649.71 A2.3622 2.3622 -180 0 0 -169.47 649.71 L-178.95 649.71 A2.3622 2.3622
						 -180 0 0 -183.67 649.71 L-194.56 649.71 A2.3622 2.3622 -180 0 0 -199.28 649.71 L-212.93 649.71 A2.3622 2.3622
						 -180 1 0 -217.65 649.71 L-222.05 649.71 A2.3622 2.3622 -180 0 0 -226.77 649.71 L-249.78 649.71 A2.3622 2.3622
						 -180 1 0 -254.51 649.71 L-262.96 649.71 A2.3622 2.3622 -180 1 0 -267.69 649.71 L-297.97 649.71 A4.00672
						 4.00672 -180 0 0 -305.98 649.71 L-306.47 649.71 A2.3622 2.3622 -180 0 0 -311.2 649.71 L-333.4 649.71 A2.3622
						 2.3622 -180 0 0 -338.13 649.71 L-346.55 649.71 A2.3622 2.3622 -180 0 0 -351.28 649.71 L-378.32 649.71 A4.70452
						 4.70452 -180 0 0 -387.73 649.71 L-391.9 649.71 A2.3622 2.3622 -180 0 0 -396.62 649.71 L-417.02 649.71 A2.3622
						 2.3622 -180 0 0 -421.75 649.71 L-430.15 649.71 A2.3622 2.3622 -180 1 0 -434.88 649.71 L-463.36 649.71 A2.3622
						 2.3622 -180 0 0 -468.09 649.71 L-468.45 649.71 A2.3622 2.3622 -180 0 0 -473.18 649.71 L-475.54 649.71 A2.3622
						 2.3622 -180 0 0 -480.26 649.71 L-489.21 649.71 L-489.21 689.93 L-480.26 689.93 A2.3622 2.3622 0 0 1 -475.54
						 689.93 L-473.18 689.93 A2.3622 2.3622 0 0 1 -468.45 689.93 L-468.09 689.93 A2.3622 2.3622 0 0 1 -463.36
						 689.93 L-460.18 689.93" class="st4"/>
		</g>
		<g id="shape3144-266" v:mID="3144" v:groupContext="shape" v:layerMember="0" transform="translate(714.416,-418.342)">
			<title>动态连接线.3144</title>
			<path d="M0 690.03 L14.05 690.03 L14.05 652.93 L-8.56 652.93 A2.3622 2.3622 -180 0 0 -13.29 652.93 L-17.07 652.93 A2.3622
						 2.3622 -180 0 0 -21.79 652.93 L-26.27 652.93 A2.3622 2.3622 -180 0 0 -31 652.93 L-41.46 652.93 A2.3622 2.3622
						 -180 0 0 -46.18 652.93 L-59.59 652.93 A4.48819 4.48819 -180 0 0 -68.56 652.93 L-70.92 652.93 A2.3622 2.3622
						 -180 1 0 -75.65 652.93 L-95.02 652.93 A2.3622 2.3622 -180 0 0 -99.74 652.93 L-107.25 652.93 A2.3622 2.3622
						 -180 0 0 -111.97 652.93 L-117.7 652.93 A2.3622 2.3622 -180 0 0 -122.42 652.93 L-140.09 652.93 A4.30332 4.30332
						 -180 0 0 -148.7 652.93 L-150.29 652.93 A2.3622 2.3622 -180 1 0 -155.02 652.93 L-170.14 652.93 A2.3622 2.3622
						 -180 1 0 -174.86 652.93 L-183.2 652.93 A2.3622 2.3622 -180 1 0 -187.92 652.93 L-191.4 652.93 A2.3622 2.3622
						 -180 0 0 -196.12 652.93 L-198.48 652.93 A2.3622 2.3622 -180 1 0 -203.21 652.93 L-216.62 652.93 A2.3622 2.3622
						 -180 1 0 -221.35 652.93 L-221.49 652.93 A2.3622 2.3622 -180 0 0 -226.22 652.93 L-227.55 652.93 A2.3622 2.3622
						 -180 0 0 -232.28 652.93 L-246.67 652.93 A2.3622 2.3622 -180 0 0 -251.4 652.93 L-260.62 652.93 A2.3622 2.3622
						 -180 1 0 -265.34 652.93 L-276.81 652.93 A2.3622 2.3622 -180 0 0 -281.54 652.93 L-294.86 652.93 A2.3622 2.3622
						 -180 0 0 -299.59 652.93 L-303.98 652.93 A2.3622 2.3622 -180 1 0 -308.7 652.93 L-331.71 652.93 A2.3622 2.3622
						 -180 0 0 -336.44 652.93 L-344.91 652.93 A2.3622 2.3622 -180 0 0 -349.63 652.93 L-358.64 652.93 A2.3622 2.3622
						 -180 0 0 -363.36 652.93 L-379.9 652.93 A4.00672 4.00672 -180 0 0 -387.91 652.93 L-388.4 652.93 A2.3622 2.3622
						 -180 0 0 -393.13 652.93 L-415.33 652.93 A2.3622 2.3622 -180 0 0 -420.06 652.93 L-428.44 652.93 A2.3622 2.3622
						 -180 0 0 -433.17 652.93 L-460.25 652.93 A4.70452 4.70452 -180 0 0 -469.66 652.93 L-473.83 652.93 A2.3622
						 2.3622 -180 0 0 -478.55 652.93 L-498.96 652.93 A2.3622 2.3622 -180 0 0 -503.68 652.93 L-512.11 652.93 A2.3622
						 2.3622 -180 0 0 -516.84 652.93 L-525.88 652.93 A2.3622 2.3622 -180 0 0 -530.61 652.93 L-545.29 652.93 A2.3622
						 2.3622 -180 0 0 -550.02 652.93 L-550.38 652.93 A2.3622 2.3622 -180 0 0 -555.11 652.93 L-557.47 652.93 A2.3622
						 2.3622 -180 1 0 -562.19 652.93 L-569.29 652.93 L-569.29 689.82 L-562.19 689.82 A2.3622 2.3622 0 1 1 -557.47
						 689.82 L-555.11 689.82 A2.3622 2.3622 0 0 1 -550.38 689.82 L-550.02 689.82 A2.3622 2.3622 0 0 1 -545.29
						 689.82 L-542.15 689.82" class="st4"/>
		</g>
		<g id="shape3145-273" v:mID="3145" v:groupContext="shape" v:layerMember="0" transform="translate(68.7962,-599.073)">
			<title>动态连接线.3145</title>
			<path d="M0 704.1 L-10.63 704.1 L-10.63 663.89 L83.43 663.89 A2.3622 2.3622 0 0 1 88.15 663.89 L90.51 663.89 A2.3622
						 2.3622 0 0 1 95.24 663.89 L95.6 663.89 A2.3622 2.3622 0 0 1 100.33 663.89 L116.43 663.89 A2.3622 2.3622
						 0 1 1 121.15 663.89 L128.81 663.89 A2.3622 2.3622 0 0 1 133.53 663.89 L140.52 663.89 A2.3622 2.3622 0 1
						 1 145.25 663.89 L167.07 663.89 A2.3622 2.3622 0 0 1 171.79 663.89 L175.96 663.89 A4.70452 4.70452 0 0 1
						 185.36 663.89 L198.63 663.89 A2.3622 2.3622 0 0 1 203.36 663.89 L212.41 663.89 A2.3622 2.3622 0 0 1 217.13
						 663.89 L224.14 663.89 A2.3622 2.3622 0 0 1 228.87 663.89 L252.49 663.89 A2.3622 2.3622 0 0 1 257.22 663.89
						 L257.71 663.89 A4.00672 4.00672 0 1 1 265.72 663.89 L283.67 663.89 A2.3622 2.3622 0 0 1 288.4 663.89 L296
						 663.89 A2.3622 2.3622 0 0 1 300.73 663.89 L307.77 663.89 A2.3622 2.3622 0 0 1 312.49 663.89 L336.92 663.89
						 A2.3622 2.3622 0 0 1 341.64 663.89 L346.03 663.89 A2.3622 2.3622 0 0 1 350.76 663.89 L379.97 663.89 A2.3622
						 2.3622 0 0 1 384.7 663.89 L391.39 663.89 A2.3622 2.3622 0 0 1 396.11 663.89 L413.34 663.89 A2.3622 2.3622
						 0 0 1 418.07 663.89 L419.4 663.89 A2.3622 2.3622 0 0 1 424.13 663.89 L424.27 663.89 A2.3622 2.3622 0 0 1
						 429 663.89 L445.25 663.89 A2.3622 2.3622 0 0 1 449.97 663.89 L457.7 663.89 A2.3622 2.3622 0 0 1 462.42 663.89
						 L467.92 663.89 A2.3622 2.3622 0 0 1 472.65 663.89 L490.6 663.89 A2.3622 2.3622 0 0 1 495.33 663.89 L496.92
						 663.89 A4.30332 4.30332 0 0 1 505.53 663.89 L523.2 663.89 A2.3622 2.3622 0 0 1 527.92 663.89 L533.66 663.89
						 A2.3622 2.3622 0 0 1 538.39 663.89 L544.46 663.89 A2.3622 2.3622 0 0 1 549.18 663.89 L551.55 663.89 A2.3622
						 2.3622 0 0 1 556.27 663.89 L569.97 663.89 A2.3622 2.3622 0 0 1 574.7 663.89 L577.06 663.89 A4.48819 4.48819
						 0 0 1 586.03 663.89 L614.62 663.89 A2.3622 2.3622 0 0 1 619.34 663.89 L623.83 663.89 A2.3622 2.3622 0 0
						 1 628.55 663.89 L658.55 663.89 L658.55 704.1 L644.65 704.1" class="st4"/>
		</g>
		<g id="shape3146-280" v:mID="3146" v:groupContext="shape" v:layerMember="0" transform="translate(714.378,-332.64)">
			<title>动态连接线.3146</title>
			<path d="M0 690.11 L14.09 690.11 L14.09 652.27 L-9.94 652.27 A2.3622 2.3622 -180 0 0 -14.67 652.27 L-17.03 652.27 A2.3622
						 2.3622 -180 0 0 -21.75 652.27 L-26.24 652.27 A2.3622 2.3622 -180 0 0 -30.96 652.27 L-41.93 652.27 A2.3622
						 2.3622 -180 0 0 -46.65 652.27 L-59.55 652.27 A4.48819 4.48819 -180 0 0 -68.52 652.27 L-70.89 652.27 A2.3622
						 2.3622 -180 0 0 -75.61 652.27 L-94.98 652.27 A2.3622 2.3622 -180 1 0 -99.7 652.27 L-107.27 652.27 A2.3622
						 2.3622 -180 0 0 -111.99 652.27 L-117.66 652.27 A2.3622 2.3622 -180 1 0 -122.38 652.27 L-140.05 652.27 A4.30332
						 4.30332 -180 0 0 -148.66 652.27 L-150.26 652.27 A2.3622 2.3622 -180 0 0 -154.98 652.27 L-170.1 652.27 A2.3622
						 2.3622 -180 0 0 -174.82 652.27 L-183.16 652.27 A2.3622 2.3622 -180 1 0 -187.88 652.27 L-191.36 652.27 A2.3622
						 2.3622 -180 1 0 -196.08 652.27 L-198.44 652.27 A2.3622 2.3622 -180 0 0 -203.17 652.27 L-216.59 652.27 A2.3622
						 2.3622 -180 1 0 -221.31 652.27 L-221.45 652.27 A2.3622 2.3622 -180 0 0 -226.18 652.27 L-227.51 652.27 A2.3622
						 2.3622 -180 0 0 -232.24 652.27 L-246.63 652.27 A2.3622 2.3622 -180 1 0 -251.36 652.27 L-260.56 652.27 A2.3622
						 2.3622 -180 1 0 -265.28 652.27 L-277.1 652.27 A2.3622 2.3622 -180 0 0 -281.82 652.27 L-294.82 652.27 A2.3622
						 2.3622 -180 0 0 -299.55 652.27 L-303.94 652.27 A2.3622 2.3622 -180 0 0 -308.66 652.27 L-331.67 652.27 A2.3622
						 2.3622 -180 0 0 -336.4 652.27 L-344.93 652.27 A2.3622 2.3622 -180 0 0 -349.65 652.27 L-358.6 652.27 A2.3622
						 2.3622 -180 0 0 -363.33 652.27 L-379.86 652.27 A4.00672 4.00672 -180 0 0 -387.88 652.27 L-388.37 652.27
						 A2.3622 2.3622 -180 0 0 -393.09 652.27 L-415.3 652.27 A2.3622 2.3622 -180 0 0 -420.02 652.27 L-428.37 652.27
						 A2.3622 2.3622 -180 0 0 -433.09 652.27 L-460.22 652.27 A4.70452 4.70452 -180 0 0 -469.63 652.27 L-473.79
						 652.27 A2.3622 2.3622 -180 0 0 -478.51 652.27 L-498.92 652.27 A2.3622 2.3622 -180 0 0 -503.64 652.27 L-512.09
						 652.27 A2.3622 2.3622 -180 0 0 -516.81 652.27 L-525.85 652.27 A2.3622 2.3622 -180 0 0 -530.57 652.27 L-545.26
						 652.27 A2.3622 2.3622 -180 1 0 -549.98 652.27 L-550.34 652.27 A2.3622 2.3622 -180 0 0 -555.07 652.27 L-557.43
						 652.27 A2.3622 2.3622 -180 0 0 -562.15 652.27 L-572.62 652.27 L-572.62 689.74 L-562.15 689.74 A2.3622 2.3622
						 0 0 1 -557.43 689.74 L-555.07 689.74 A2.3622 2.3622 0 0 1 -550.34 689.74 L-549.98 689.74 A2.3622 2.3622
						 0 1 1 -545.26 689.74 L-530.57 689.74 A2.3622 2.3622 0 0 1 -525.85 689.74 L-516.81 689.74 A2.3622 2.3622
						 0 0 1 -512.09 689.74 L-503.64 689.74 A2.3622 2.3622 0 0 1 -498.92 689.74 L-478.51 689.74 A2.3622 2.3622
						 0 0 1 -473.79 689.74 L-469.63 689.74 A4.70452 4.70452 0 1 1 -460.22 689.74 L-458.39 689.74" class="st4"/>
		</g>
		<g id="shape3147-287" v:mID="3147" v:groupContext="shape" v:layerMember="0" transform="translate(255.988,-254.829)">
			<title>动态连接线.3147</title>
			<path d="M0 703.32 L-1.83 703.32 A4.70452 4.70452 -180 0 0 -11.24 703.32 L-15.4 703.32 A2.3622 2.3622 -180 0 0 -20.12
						 703.32 L-40.53 703.32 A2.3622 2.3622 -180 0 0 -45.25 703.32 L-53.69 703.32 A2.3622 2.3622 -180 0 0 -58.42
						 703.32 L-67.46 703.32 A2.3622 2.3622 -180 0 0 -72.18 703.32 L-86.87 703.32 A2.3622 2.3622 -180 1 0 -91.59
						 703.32 L-91.95 703.32 A2.3622 2.3622 -180 0 0 -96.68 703.32 L-99.04 703.32 A2.3622 2.3622 -180 0 0 -103.76
						 703.32 L-111.19 703.32 L-111.19 668.2 L-103.76 668.2 A2.3622 2.3622 0 1 1 -99.04 668.2 L-96.68 668.2 A2.3622
						 2.3622 0 0 1 -91.95 668.2 L-91.59 668.2 A2.3622 2.3622 0 1 1 -86.87 668.2 L-72.18 668.2 A2.3622 2.3622 0
						 1 1 -67.46 668.2 L-58.42 668.2 A2.3622 2.3622 0 1 1 -53.69 668.2 L-45.25 668.2 A2.3622 2.3622 0 1 1 -40.53
						 668.2 L-20.12 668.2 A2.3622 2.3622 0 1 1 -15.4 668.2 L-11.24 668.2 A4.70452 4.70452 0 1 1 -1.83 668.2 L10.02
						 668.2 A2.3622 2.3622 0 1 1 14.75 668.2 L25.3 668.2 A2.3622 2.3622 0 1 1 30.03 668.2 L38.37 668.2 A2.3622
						 2.3622 0 1 1 43.1 668.2 L65.3 668.2 A2.3622 2.3622 0 1 1 70.02 668.2 L70.51 668.2 A4.00672 4.00672 0 1 1
						 78.53 668.2 L95.06 668.2 A2.3622 2.3622 0 1 1 99.79 668.2 L108.67 668.2 A2.3622 2.3622 0 0 1 113.4 668.2
						 L121.99 668.2 A2.3622 2.3622 0 1 1 126.72 668.2 L149.73 668.2 A2.3622 2.3622 0 0 1 154.45 668.2 L158.84
						 668.2 A2.3622 2.3622 0 1 1 163.57 668.2 L176.21 668.2 A2.3622 2.3622 0 1 1 180.94 668.2 L193.11 668.2 A2.3622
						 2.3622 0 0 1 197.83 668.2 L207.03 668.2 A2.3622 2.3622 0 0 1 211.76 668.2 L226.15 668.2 A2.3622 2.3622 0
						 0 1 230.88 668.2 L232.21 668.2 A2.3622 2.3622 0 1 1 236.94 668.2 L237.08 668.2 A2.3622 2.3622 0 0 1 241.8
						 668.2 L255.22 668.2 A2.3622 2.3622 0 1 1 259.95 668.2 L262.31 668.2 A2.3622 2.3622 0 0 1 267.03 668.2 L270.51
						 668.2 A2.3622 2.3622 0 0 1 275.23 668.2 L283.57 668.2 A2.3622 2.3622 0 1 1 288.29 668.2 L303.41 668.2 A2.3622
						 2.3622 0 1 1 308.13 668.2 L309.73 668.2 A4.30332 4.30332 0 1 1 318.34 668.2 L336.01 668.2 A2.3622 2.3622
						 0 1 1 340.73 668.2 L346.39 668.2 A2.3622 2.3622 0 1 1 351.12 668.2 L358.69 668.2 A2.3622 2.3622 0 1 1 363.41
						 668.2 L364.36 668.2 A2.3622 2.3622 0 1 1 369.08 668.2 L382.78 668.2 A2.3622 2.3622 0 1 1 387.5 668.2 L389.87
						 668.2 A4.48819 4.48819 0 1 1 398.84 668.2 L427.43 668.2 A2.3622 2.3622 0 1 1 432.15 668.2 L436.64 668.2
						 A2.3622 2.3622 0 1 1 441.36 668.2 L442.31 668.2 A2.3622 2.3622 0 0 1 447.03 668.2 L473.97 668.2 L473.97
						 704.87 L447.03 704.87 A2.3622 2.3622 -180 0 0 442.31 704.87 L441.36 704.87 A2.3622 2.3622 -180 0 0 436.64
						 704.87 L432.15 704.87 A2.3622 2.3622 -180 0 0 427.43 704.87 L398.84 704.87 A4.48819 4.48819 -180 0 0 389.87
						 704.87 L387.5 704.87 A2.3622 2.3622 -180 0 0 382.78 704.87 L376.42 704.87" class="st4"/>
		</g>
		<g id="shape3148-294" v:mID="3148" v:groupContext="shape" v:layerMember="0" transform="translate(479.122,-151.171)">
			<title>动态连接线.3148</title>
			<path d="M0 689.93 L3.02 689.93 A2.3622 2.3622 0 1 1 7.74 689.93 L9.08 689.93 A2.3622 2.3622 0 1 1 13.8 689.93 L13.95
						 689.93 A2.3622 2.3622 0 1 1 18.67 689.93 L22.07 689.93" class="st4"/>
		</g>
		<g id="shape3149-301" v:mID="3149" v:groupContext="shape" v:layerMember="0" transform="translate(556.524,-151.171)">
			<title>动态连接线.3149</title>
			<path d="M0 689.93 L2.87 689.93 A2.3622 2.3622 0 1 1 7.6 689.93 L9.2 689.93 A4.30332 4.30332 0 1 1 17.8 689.93 L35.47
						 689.93 A2.3622 2.3622 0 1 1 40.2 689.93 L45.86 689.93 A2.3622 2.3622 0 1 1 50.58 689.93 L58.15 689.93 A2.3622
						 2.3622 0 1 1 62.87 689.93 L63.82 689.93 A2.3622 2.3622 0 1 1 68.54 689.93 L82.24 689.93 A2.3622 2.3622 0
						 1 1 86.97 689.93 L89.33 689.93 A4.48819 4.48819 0 1 1 98.31 689.93 L101.59 689.93" class="st4"/>
		</g>
		<g id="shape3150-308" v:mID="3150" v:groupContext="shape" v:layerMember="0" transform="translate(713.445,-165.344)">
			<title>动态连接线.3150</title>
			<path d="M0 704.1 L17.63 704.1 L17.63 663.89 L-10.43 663.89 A2.3622 2.3622 -180 0 0 -15.15 663.89 L-16.09 663.89 A2.3622
						 2.3622 -180 0 0 -20.82 663.89 L-25.3 663.89 A2.3622 2.3622 -180 0 0 -30.03 663.89 L-58.61 663.89 A4.48819
						 4.48819 -180 0 0 -67.59 663.89 L-69.95 663.89 A2.3622 2.3622 -180 0 0 -74.68 663.89 L-88.38 663.89 A2.3622
						 2.3622 -180 0 0 -93.1 663.89 L-94.05 663.89 A2.3622 2.3622 -180 0 0 -98.77 663.89 L-106.34 663.89 A2.3622
						 2.3622 -180 0 0 -111.06 663.89 L-116.72 663.89 A2.3622 2.3622 -180 1 0 -121.45 663.89 L-139.12 663.89 A4.30332
						 4.30332 -180 0 0 -147.72 663.89 L-149.32 663.89 A2.3622 2.3622 -180 0 0 -154.05 663.89 L-169.17 663.89 A2.3622
						 2.3622 -180 0 0 -173.89 663.89 L-182.22 663.89 A2.3622 2.3622 -180 0 0 -186.95 663.89 L-190.43 663.89 A2.3622
						 2.3622 -180 1 0 -195.15 663.89 L-197.51 663.89 A2.3622 2.3622 -180 0 0 -202.24 663.89 L-215.65 663.89 A2.3622
						 2.3622 -180 0 0 -220.38 663.89 L-220.52 663.89 A2.3622 2.3622 -180 0 0 -225.24 663.89 L-226.58 663.89 A2.3622
						 2.3622 -180 1 0 -231.31 663.89 L-245.7 663.89 A2.3622 2.3622 -180 1 0 -250.43 663.89 L-259.63 663.89 A2.3622
						 2.3622 -180 1 0 -264.35 663.89 L-276.84 663.89 A2.3622 2.3622 -180 0 0 -281.57 663.89 L-293.89 663.89 A2.3622
						 2.3622 -180 0 0 -298.61 663.89 L-303.01 663.89 A2.3622 2.3622 -180 0 0 -307.73 663.89 L-330.74 663.89 A2.3622
						 2.3622 -180 0 0 -335.46 663.89 L-344.06 663.89 A2.3622 2.3622 -180 0 0 -348.79 663.89 L-357.67 663.89 A2.3622
						 2.3622 -180 0 0 -362.39 663.89 L-378.93 663.89 A4.00672 4.00672 -180 1 0 -386.94 663.89 L-387.43 663.89
						 A2.3622 2.3622 -180 0 0 -392.16 663.89 L-414.36 663.89 A2.3622 2.3622 -180 0 0 -419.09 663.89 L-427.43 663.89
						 A2.3622 2.3622 -180 1 0 -432.15 663.89 L-442.71 663.89 A2.3622 2.3622 -180 0 0 -447.43 663.89 L-459.28 663.89
						 A4.70452 4.70452 -180 0 0 -468.69 663.89 L-472.86 663.89 A2.3622 2.3622 -180 0 0 -477.58 663.89 L-497.98
						 663.89 A2.3622 2.3622 -180 0 0 -502.71 663.89 L-511.15 663.89 A2.3622 2.3622 -180 0 0 -515.88 663.89 L-524.91
						 663.89 A2.3622 2.3622 -180 0 0 -529.64 663.89 L-544.32 663.89 A2.3622 2.3622 -180 0 0 -549.05 663.89 L-549.41
						 663.89 A2.3622 2.3622 -180 0 0 -554.13 663.89 L-556.5 663.89 A2.3622 2.3622 -180 0 0 -561.22 663.89 L-570.42
						 663.89 L-570.42 704.1 L-561.22 704.1 A2.3622 2.3622 0 0 1 -556.5 704.1 L-554.13 704.1 A2.3622 2.3622 0 1
						 1 -549.41 704.1 L-549.05 704.1 A2.3622 2.3622 0 1 1 -544.32 704.1 L-529.64 704.1 A2.3622 2.3622 0 1 1 -524.91
						 704.1 L-515.88 704.1 A2.3622 2.3622 0 1 1 -511.15 704.1 L-502.71 704.1 A2.3622 2.3622 0 1 1 -497.98 704.1
						 L-477.58 704.1 A2.3622 2.3622 0 1 1 -472.86 704.1 L-468.69 704.1 A4.70452 4.70452 0 1 1 -459.28 704.1 L-447.43
						 704.1 A2.3622 2.3622 0 1 1 -442.71 704.1 L-432.15 704.1 A2.3622 2.3622 0 1 1 -427.43 704.1 L-419.09 704.1
						 A2.3622 2.3622 0 1 1 -414.36 704.1 L-392.16 704.1 A2.3622 2.3622 0 1 1 -387.43 704.1 L-386.94 704.1 A4.00672
						 4.00672 0 1 1 -378.93 704.1 L-362.39 704.1 A2.3622 2.3622 0 1 1 -357.67 704.1 L-348.79 704.1 A2.3622 2.3622
						 0 1 1 -344.06 704.1 L-335.46 704.1 A2.3622 2.3622 0 1 1 -330.74 704.1 L-307.73 704.1 A2.3622 2.3622 0 0
						 1 -303.01 704.1 L-298.61 704.1 A2.3622 2.3622 0 1 1 -293.89 704.1 L-289.66 704.1" class="st4"/>
		</g>
		<g id="shape3151-315" v:mID="3151" v:groupContext="shape" v:layerMember="0" transform="translate(207.036,-621.569)">
			<title>动态连接线.3151</title>
			<path d="M-7.07 697.01 L-7.07 679.3 L-17.09 679.3 A2.3622 2.3622 -180 1 0 -21.81 679.3 L-37.91 679.3 A2.3622 2.3622 -180
						 0 0 -42.64 679.3 L-43 679.3 A2.3622 2.3622 -180 0 0 -47.73 679.3 L-52.45 679.3 L-52.45 1295.53 L-47.73 1295.53
						 A2.3622 2.3622 0 0 1 -43 1295.53 L-23.23 1295.53 A2.3622 2.3622 0 0 1 -18.5 1295.53 L-7.11 1295.53 L-7.11
						 922.63" class="st8"/>
		</g>
		<g id="shape3152-320" v:mID="3152" v:groupContext="shape" v:layerMember="0" transform="translate(276.523,-621.569)">
			<title>动态连接线.3152</title>
			<path d="M7.04 697.01 L7.04 679.3 L-4.37 679.3 A2.3622 2.3622 -180 0 0 -9.09 679.3 L-22.36 679.3 A4.70452 4.70452 -180
						 0 0 -31.77 679.3 L-38.3 679.3 L-38.3 1301.66 L7.13 1301.66 L7.13 1099.65" class="st8"/>
		</g>
		<g id="shape3153-325" v:mID="3153" v:groupContext="shape" v:layerMember="0" transform="translate(374.177,-621.569)">
			<title>动态连接线.3153</title>
			<path d="M-7.02 697.01 L-7.02 679.3 L-16.98 679.3 A2.3622 2.3622 -180 1 0 -21.71 679.3 L-39.66 679.3 A2.3622 2.3622 -180
						 0 0 -44.39 679.3 L-45.31 679.3 L-45.31 1302.61 L-44.39 1302.61 A2.3622 2.3622 0 0 1 -39.66 1302.61 L-7.16
						 1302.61 L-7.16 1099.37" class="st8"/>
		</g>
		<g id="shape3154-330" v:mID="3154" v:groupContext="shape" v:layerMember="0" transform="translate(444.208,-621.569)">
			<title>动态连接线.3154</title>
			<path d="M6.93 697.01 L6.93 679.3 L-24.65 679.3 A2.3622 2.3622 -180 1 0 -29.38 679.3 L-36.13 679.3 L-36.13 1298.61 L-29.38
						 1298.61 A2.3622 2.3622 0 0 1 -24.65 1298.61 L7.25 1298.61 L7.25 1189.91" class="st8"/>
		</g>
		<g id="shape3155-335" v:mID="3155" v:groupContext="shape" v:layerMember="0" transform="translate(535.92,-621.569)">
			<title>动态连接线.3155</title>
			<path d="M-7.06 697.01 L-7.06 679.3 L-17.15 679.3 A2.3622 2.3622 -180 0 0 -21.88 679.3 L-38.13 679.3 A2.3622 2.3622 -180
						 0 0 -42.85 679.3 L-45.36 679.3 L-45.36 1286.31 L-42.85 1286.31 A2.3622 2.3622 0 0 1 -38.13 1286.31 L-17.62
						 1286.31 A2.3622 2.3622 0 0 1 -12.9 1286.31 L-7.11 1286.31 L-7.11 1275.68" class="st8"/>
		</g>
		<g id="shape3156-340" v:mID="3156" v:groupContext="shape" v:layerMember="0" transform="translate(611.868,-621.569)">
			<title>动态连接线.3156</title>
			<path d="M-7.05 697.01 L-7.05 675.21 L-37.54 675.21 A2.3622 2.3622 -180 0 0 -42.27 675.21 L-43.79 675.21 L-43.79 1289.86
						 L-42.27 1289.86 A2.3622 2.3622 0 0 1 -37.54 1289.86 L-19.87 1289.86 A2.3622 2.3622 0 0 1 -15.15 1289.86
						 L-7.12 1289.86 L-7.12 1101.2" class="st8"/>
		</g>
		<g id="shape3157-345" v:mID="3157" v:groupContext="shape" v:layerMember="0" transform="translate(678.692,-621.569)">
			<title>动态连接线.3157</title>
			<path d="M7.09 697.01 L7.09 674.74 L-23.86 674.74 A2.3622 2.3622 -180 0 0 -28.59 674.74 L-30.48 674.74 L-30.48 1295.53
						 L-28.59 1295.53 A2.3622 2.3622 0 0 1 -23.86 1295.53 L7.09 1295.53 L7.09 1189.91" class="st8"/>
		</g>
		<g id="shape3158-350" v:mID="3158" v:groupContext="shape" v:layerMember="0" transform="translate(227.597,-418.546)">
			<title>动态连接线.3158</title>
			<path d="M0 690.02 L8.27 690.01 A2.3622 2.3622 0 1 1 12.99 690.01 L17.16 690.01 A4.70452 4.70452 0 1 1 26.56 690 L53.67
						 689.97 A2.3622 2.3622 0 1 1 58.39 689.96 L66.76 689.96 A2.3622 2.3622 0 1 1 71.49 689.95 L93.69 689.93 A2.3622
						 2.3622 0 1 1 98.42 689.93 L98.91 689.92 A4.00672 4.00672 0 0 1 106.92 689.92 L123.45 689.9 A2.3622 2.3622
						 0 1 1 128.18 689.9 L137.16 689.89 A2.3622 2.3622 0 1 1 141.89 689.88 L150.38 689.87 A2.3622 2.3622 0 1 1
						 155.11 689.87 L178.12 689.85 A2.3622 2.3622 0 1 1 182.84 689.84 L187.23 689.84 A2.3622 2.3622 0 1 1 191.96
						 689.83 L196.19 689.83" class="st4"/>
		</g>
		<g id="shape3159-357" v:mID="3159" v:groupContext="shape" v:layerMember="0" transform="translate(479.122,-432.612)">
			<title>动态连接线.3159</title>
			<path d="M0 703.9 L3.02 703.9 A2.3622 2.3622 0 0 1 7.74 703.91 L9.08 703.92 A2.3622 2.3622 0 0 1 13.8 703.93 L13.95 703.93
						 A2.3622 2.3622 0 0 1 18.67 703.94 L32.09 703.97 A2.3622 2.3622 0 0 1 36.81 703.98 L39.17 703.98 A2.3622
						 2.3622 0 0 1 43.9 703.99 L47.37 704 A2.3622 2.3622 0 0 1 52.1 704.01 L60.43 704.03 A2.3622 2.3622 0 0 1
						 65.16 704.04 L80.28 704.08 A2.3622 2.3622 0 0 1 85 704.09 L86.6 704.09 A4.30333 4.30333 0 0 1 95.2 704.11
						 L112.87 704.15 A2.3622 2.3622 0 1 1 117.6 704.16 L123.3 704.17 A2.3622 2.3622 0 0 1 128.02 704.18 L135.55
						 704.2 A2.3622 2.3622 0 1 1 140.28 704.21 L159.65 704.26 A2.3622 2.3622 0 1 1 164.37 704.27 L166.73 704.27
						 A4.48819 4.48819 0 0 1 175.71 704.29 L179.96 704.3" class="st4"/>
		</g>
		<g id="shape3160-364" v:mID="3160" v:groupContext="shape" v:layerMember="0" transform="translate(311.32,-346.92)">
			<title>动态连接线.3160</title>
			<path d="M0 704.02 L9.97 704.03 A2.3622 2.3622 0 0 1 14.69 704.03 L15.18 704.03 A4.00672 4.00672 0 0 1 23.2 704.04 L39.73
						 704.05 A2.3622 2.3622 0 0 1 44.46 704.05 L53.38 704.05 A2.3622 2.3622 0 0 1 58.11 704.06 L66.66 704.06 A2.3622
						 2.3622 0 0 1 71.38 704.06 L94.4 704.08 A2.3622 2.3622 0 0 1 99.12 704.08 L103.51 704.08 A2.3622 2.3622 0
						 0 1 108.24 704.08 L121.09 704.09 A2.3622 2.3622 0 1 1 125.82 704.09 L137.77 704.1 A2.3622 2.3622 0 0 1 142.5
						 704.1 L151.7 704.11 A2.3622 2.3622 0 0 1 156.42 704.11 L170.82 704.12 A2.3622 2.3622 0 1 1 175.54 704.12
						 L176.88 704.12 A2.3622 2.3622 0 1 1 181.6 704.13 L181.75 704.13 A2.3622 2.3622 0 0 1 186.47 704.13 L199.89
						 704.14 A2.3622 2.3622 0 0 1 204.61 704.14 L206.98 704.14 A2.3622 2.3622 0 0 1 211.7 704.14 L215.18 704.14
						 A2.3622 2.3622 0 0 1 219.9 704.15 L228.24 704.15 A2.3622 2.3622 0 0 1 232.96 704.15 L248.08 704.16 A2.3622
						 2.3622 0 1 1 252.8 704.17 L254.4 704.17 A4.30332 4.30332 0 0 1 263.01 704.17 L265.76 704.17" class="st4"/>
		</g>
		<g id="shape3161-371" v:mID="3161" v:groupContext="shape" v:layerMember="0" transform="translate(632.409,-346.739)">
			<title>动态连接线.3161</title>
			<path d="M0 703.99 L6.36 704.04 A2.3622 2.3622 0 0 1 11.08 704.08 L13.45 704.1 A4.48826 4.48826 0 0 1 22.42 704.17 L26.64
						 704.2" class="st4"/>
		</g>
		<g id="shape3162-378" v:mID="3162" v:groupContext="shape" v:layerMember="0" transform="translate(311.32,-241.566)">
			<title>动态连接线.3162</title>
			<path d="M0 690.06 L9.97 689.96 A2.3622 2.3622 0 1 1 14.69 689.92 L15.18 689.91 A4.0068 4.0068 0 1 1 23.2 689.84 L28.03
						 689.79" class="st4"/>
		</g>
		<g id="shape3163-385" v:mID="3163" v:groupContext="shape" v:layerMember="0" transform="translate(394.687,-254.964)">
			<title>动态连接线.3163</title>
			<path d="M0 703.19 L11.03 703.3 A2.3622 2.3622 0 0 1 15.75 703.35 L20.14 703.39 A2.3622 2.3622 0 0 1 24.87 703.44 L37.38
						 703.56 A2.3622 2.3622 0 0 1 42.11 703.61 L54.41 703.73 A2.3622 2.3622 0 0 1 59.13 703.78 L68.33 703.87 A2.3622
						 2.3622 0 1 1 73.06 703.92 L87.45 704.06 A2.3622 2.3622 0 0 1 92.18 704.11 L93.51 704.12 A2.3622 2.3622 0
						 0 1 98.24 704.17 L98.38 704.17 A2.3622 2.3622 0 1 1 103.1 704.22 L116.52 704.35 A2.3622 2.3622 0 0 1 121.25
						 704.4 L123.61 704.42 A2.3622 2.3622 0 0 1 128.33 704.47 L131.81 704.5 A2.3622 2.3622 0 1 1 136.53 704.55
						 L144.87 704.63 A2.3622 2.3622 0 0 1 149.59 704.68 L164.71 704.83 A2.3622 2.3622 0 1 1 169.44 704.88 L171.03
						 704.9 A4.30342 4.30342 0 0 1 179.64 704.98 L182.39 705.01" class="st4"/>
		</g>
		<g id="shape3164-392" v:mID="3164" v:groupContext="shape" v:layerMember="0" transform="translate(501.141,-65.3942)">
			<title>动态连接线.3164</title>
			<path d="M0 689.93 L-3.35 689.93 A2.3622 2.3622 -180 0 0 -8.07 689.93 L-8.22 689.93 A2.3622 2.3622 -180 0 0 -12.94 689.93
						 L-14.28 689.93 A2.3622 2.3622 -180 0 0 -19 689.93 L-33.4 689.93 A2.3622 2.3622 -180 0 0 -38.12 689.93 L-47.32
						 689.93 A2.3622 2.3622 -180 0 0 -52.05 689.93 L-81.59 689.93 A2.3622 2.3622 -180 1 0 -86.31 689.93 L-90.7
						 689.93 A2.3622 2.3622 -180 0 0 -95.43 689.93 L-118.44 689.93 A2.3622 2.3622 -180 1 0 -123.16 689.93 L-131.76
						 689.93 A2.3622 2.3622 -180 1 0 -136.48 689.93 L-145.37 689.93 A2.3622 2.3622 -180 1 0 -150.09 689.93 L-166.63
						 689.93 A4.00672 4.00672 -180 0 0 -174.64 689.93 L-175.13 689.93 A2.3622 2.3622 -180 1 0 -179.85 689.93 L-202.06
						 689.93 A2.3622 2.3622 -180 0 0 -206.78 689.93 L-215.13 689.93 A2.3622 2.3622 -180 0 0 -219.85 689.93 L-230.41
						 689.93 A2.3622 2.3622 -180 0 0 -235.13 689.93 L-246.98 689.93 A4.70452 4.70452 -180 0 0 -256.39 689.93 L-260.55
						 689.93 A2.3622 2.3622 -180 0 0 -265.28 689.93 L-285.68 689.93 A2.3622 2.3622 -180 1 0 -290.41 689.93 L-298.85
						 689.93 A2.3622 2.3622 -180 1 0 -303.57 689.93 L-312.61 689.93 A2.3622 2.3622 -180 0 0 -317.33 689.93 L-332.02
						 689.93 A2.3622 2.3622 -180 0 0 -336.74 689.93 L-337.11 689.93 A2.3622 2.3622 -180 0 0 -341.83 689.93 L-344.19
						 689.93 A2.3622 2.3622 -180 0 0 -348.92 689.93 L-359.38 689.93 L-359.38 648.64 L-348.92 648.64 A2.3622 2.3622
						 0 1 1 -344.19 648.64 L-341.83 648.64 A2.3622 2.3622 0 1 1 -337.11 648.64 L-336.74 648.64 A2.3622 2.3622
						 0 0 1 -332.02 648.64 L-317.33 648.64 A2.3622 2.3622 0 1 1 -312.61 648.64 L-303.57 648.64 A2.3622 2.3622
						 0 1 1 -298.85 648.64 L-290.41 648.64 A2.3622 2.3622 0 1 1 -285.68 648.64 L-265.28 648.64 A2.3622 2.3622
						 0 1 1 -260.55 648.64 L-256.39 648.64 A4.70452 4.70452 0 1 1 -246.98 648.64 L-235.13 648.64 A2.3622 2.3622
						 0 0 1 -230.41 648.64 L-219.85 648.64 A2.3622 2.3622 0 0 1 -215.13 648.64 L-206.78 648.64 A2.3622 2.3622
						 0 0 1 -202.06 648.64 L-179.85 648.64 A2.3622 2.3622 0 1 1 -175.13 648.64 L-174.64 648.64 A4.00672 4.00672
						 0 1 1 -166.63 648.64 L-150.09 648.64 A2.3622 2.3622 0 1 1 -145.37 648.64 L-136.48 648.64 A2.3622 2.3622
						 0 1 1 -131.76 648.64 L-123.16 648.64 A2.3622 2.3622 0 1 1 -118.44 648.64 L-95.43 648.64 A2.3622 2.3622 0
						 0 1 -90.7 648.64 L-86.31 648.64 A2.3622 2.3622 0 1 1 -81.59 648.64 L-52.05 648.64 A2.3622 2.3622 0 1 1 -47.32
						 648.64 L-38.12 648.64 A2.3622 2.3622 0 1 1 -33.4 648.64 L-19 648.64 A2.3622 2.3622 0 1 1 -14.28 648.64 L-12.94
						 648.64 A2.3622 2.3622 0 1 1 -8.22 648.64 L-8.07 648.64 A2.3622 2.3622 0 1 1 -3.35 648.64 L10.07 648.64 A2.3622
						 2.3622 0 1 1 14.79 648.64 L17.15 648.64 A2.3622 2.3622 0 1 1 21.88 648.64 L25.33 648.64 A2.3622 2.3622 0
						 1 1 30.05 648.64 L38.41 648.64 A2.3622 2.3622 0 1 1 43.14 648.64 L58.26 648.64 A2.3622 2.3622 0 1 1 62.98
						 648.64 L64.58 648.64 A4.30332 4.30332 0 1 1 73.19 648.64 L90.85 648.64 A2.3622 2.3622 0 0 1 95.58 648.64
						 L101.24 648.64 A2.3622 2.3622 0 0 1 105.96 648.64 L113.53 648.64 A2.3622 2.3622 0 0 1 118.26 648.64 L119.2
						 648.64 A2.3622 2.3622 0 0 1 123.93 648.64 L137.63 648.64 A2.3622 2.3622 0 0 1 142.35 648.64 L144.71 648.64
						 A4.48819 4.48819 0 1 1 153.69 648.64 L182.28 648.64 A2.3622 2.3622 0 1 1 187 648.64 L191.48 648.64 A2.3622
						 2.3622 0 0 1 196.21 648.64 L227.86 648.64 L227.86 689.93 L196.21 689.93 A2.3622 2.3622 -180 0 0 191.48 689.93
						 L187 689.93 A2.3622 2.3622 -180 0 0 182.28 689.93 L153.69 689.93 A4.48819 4.48819 -180 0 0 144.71 689.93
						 L142.35 689.93 A2.3622 2.3622 -180 0 0 137.63 689.93 L123.93 689.93 A2.3622 2.3622 -180 0 0 119.2 689.93
						 L118.26 689.93 A2.3622 2.3622 -180 0 0 113.53 689.93 L105.96 689.93 A2.3622 2.3622 -180 0 0 101.24 689.93
						 L95.58 689.93 A2.3622 2.3622 -180 0 0 90.85 689.93 L73.19 689.93 A4.30332 4.30332 -180 0 0 64.58 689.93
						 L62.98 689.93 A2.3622 2.3622 -180 0 0 58.26 689.93 L55.33 689.93" class="st4"/>
		</g>
		<g id="shape3165-399" v:mID="3165" v:groupContext="shape" v:layerMember="0" transform="translate(193.965,-621.569)">
			<title>动态连接线.3165</title>
			<path d="M-6.38 697.01 L-6.38 674.62 L-24.84 674.62 A2.3622 2.3622 -180 0 0 -29.57 674.62 L-32.29 674.62 L-32.29 1301.76
						 L-7.8 1301.76 L-7.8 839.4" class="st8"/>
		</g>
		<g id="shape3166-404" v:mID="3166" v:groupContext="shape" v:layerMember="0" transform="translate(441.996,-562.403)">
			<title>动态连接线.3166</title>
			<path d="M-6.38 697.01 L-7.8 1071.58" class="st8"/>
		</g>
		<g id="shape3167-409" v:mID="3167" v:groupContext="shape" v:layerMember="0" transform="translate(677.704,-562.403)">
			<title>动态连接线.3167</title>
			<path d="M-6.51 697.01 L-7.66 889.54" class="st8"/>
		</g>
		<g id="shape3168-414" v:mID="3168" v:groupContext="shape" v:layerMember="0" transform="translate(276.169,-621.569)">
			<title>动态连接线.3168</title>
			<path d="M-6.38 697.01 L-6.38 670.49 L-22.01 670.49 A2.3622 2.3622 -180 0 0 -26.73 670.49 L-29.06 670.49 L-29.06 1296.94
						 L-7.8 1296.94 L-7.8 1008.26" class="st9"/>
		</g>
		<g id="shape3169-420" v:mID="3169" v:groupContext="shape" v:layerMember="0" transform="translate(361.209,-621.569)">
			<title>动态连接线.3169</title>
			<path d="M-6.38 697.01 L-6.38 671.9 L-26.69 671.9 A2.3622 2.3622 -180 0 0 -31.42 671.9 L-37.56 671.9 L-37.56 1298.1 L-34.71
						 1298.1 A4.00672 4.00672 0 0 1 -26.69 1298.1 L-7.8 1298.1 L-7.8 839.07" class="st8"/>
		</g>
		<g id="shape3170-425" v:mID="3170" v:groupContext="shape" v:layerMember="0" transform="translate(629.791,-310.176)">
			<title>动态连接线.3170</title>
			<path d="M-7.09 697.01 L-7.09 982.7 L11.34 982.7 L11.34 367.9 L-7.09 367.9 L-7.09 385.62" class="st6"/>
		</g>
		<g id="shape3171-430" v:mID="3171" v:groupContext="shape" v:layerMember="0" transform="translate(288.925,-621.569)">
			<title>动态连接线.3171</title>
			<path d="M6.38 697.01 L6.38 661.98 L-37.13 661.98 L-37.13 1293.39 L-22.91 1293.39 A2.3622 2.3622 0 0 1 -18.19 1293.39
						 L-7.63 1293.39 A2.3622 2.3622 0 0 1 -2.91 1293.39 L7.8 1293.39 L7.8 756.94" class="st10"/>
		</g>
		<g id="shape3172-439" v:mID="3172" v:groupContext="shape" v:layerMember="0" transform="translate(609.24,-621.569)">
			<title>动态连接线.3172</title>
			<path d="M6.38 697.01 L6.38 665.57 L-37.28 665.57 L-37.28 1300.06 L7.8 1300.06 L7.8 756.18" class="st10"/>
		</g>
		<g id="shape3173-446" v:mID="3173" v:groupContext="shape" v:layerMember="0" transform="translate(687.902,-621.569)">
			<title>动态连接线.3173</title>
			<path d="M7.09 697.01 L7.09 669.07 L-35.43 669.07 L-35.43 1299.78 L7.09 1299.78 L7.09 756.18" class="st10"/>
		</g>
		<g id="shape3174-453" v:mID="3174" v:groupContext="shape" v:layerMember="0" transform="translate(456.878,-621.569)">
			<title>动态连接线.3174</title>
			<path d="M5.67 697.01 L5.67 666.23 L-39.69 666.23 L-39.69 1304.03 L8.5 1304.03 L8.5 756.18" class="st10"/>
		</g>
		<g id="shape3175-460" v:mID="3175" v:groupContext="shape" v:layerMember="0" transform="translate(506.484,-102.064)">
			<title>动态连接线.3175</title>
			<path d="M7.09 697.01 L7.09 319.9" class="st6"/>
		</g>
		<g id="shape3176-465" v:mID="3176" v:groupContext="shape" v:layerMember="0" transform="translate(533.413,-621.569)">
			<title>动态连接线.3176</title>
			<path d="M5.67 697.01 L5.67 672.21 L-14.65 672.21 A2.3622 2.3622 -180 0 0 -19.37 672.21 L-37.98 672.21 L-37.98 1299.36
						 L8.5 1299.36 L8.5 756.18" class="st10"/>
		</g>
		<g id="shape3177-472" v:mID="3177" v:groupContext="shape" v:layerMember="0" transform="translate(678.692,-187.84)">
			<title>动态连接线.3177</title>
			<path d="M7.09 697.01 L7.09 322.45" class="st6"/>
		</g>
		<g id="shape3178-477" v:mID="3178" v:groupContext="shape" v:layerMember="0" transform="translate(205.303,-621.569)">
			<title>动态连接线.3178</title>
			<path d="M6.38 697.01 L6.38 670.49 L-38.54 670.49 L-38.54 1289.86 L-21.5 1289.86 A2.3622 2.3622 0 0 1 -16.77 1289.86
						 L-7.73 1289.86 A2.3622 2.3622 0 0 1 -3.01 1289.86 L7.8 1289.86 L7.8 756.18" class="st10"/>
		</g>
		<g id="shape3179-484" v:mID="3179" v:groupContext="shape" v:layerMember="0" transform="translate(372.547,-621.569)">
			<title>动态连接线.3179</title>
			<path d="M6.38 697.01 L6.38 666.23 L-40.39 666.23 L-40.39 1306.86 L7.8 1306.86 L7.8 756.18" class="st10"/>
		</g>
		<g id="shape3180-491" v:mID="3180" v:groupContext="shape" v:layerMember="0" transform="translate(525.618,-479.178)">
			<title>动态连接线.3180</title>
			<path d="M-4.96 697.01 L-4.96 1150.3 L-27.83 1150.3 A2.3622 2.3622 -180 0 0 -32.55 1150.3 L-41.12 1150.3 L-41.12 526.02
						 L-9.21 526.02 L-9.21 554.62" class="st6"/>
		</g>
		<g id="shape3181-496" v:mID="3181" v:groupContext="shape" v:layerMember="0" transform="translate(587.272,-479.178)">
			<title>动态连接线.3181</title>
			<path d="M7.09 697.01 L7.09 1151.72 L-12.94 1151.72 A2.3622 2.3622 -180 0 0 -17.67 1151.72 L-25.51 1151.72 L-25.51 536.9
						 L-21.55 536.9 A4.30332 4.30332 0 0 1 -12.94 536.9 L7.09 536.9 L7.09 554.62" class="st6"/>
		</g>
	</g>
</svg>
