<?xml version="1.0" encoding="UTF-8" standalone="no"?>
<!DOCTYPE svg PUBLIC "-//W3C//DTD SVG 1.1//EN" "http://www.w3.org/Graphics/SVG/1.1/DTD/svg11.dtd">
<!-- 由 Microsoft Visio, SVG Export 生成 DancingLinks5.svg 页-1 -->
<svg xmlns="http://www.w3.org/2000/svg" xmlns:xlink="http://www.w3.org/1999/xlink" xmlns:ev="http://www.w3.org/2001/xml-events"
		xmlns:v="http://schemas.microsoft.com/visio/2003/SVGExtensions/" width="6.26305in" height="5.21035in"
		viewBox="0 0 450.94 375.145" xml:space="preserve" color-interpolation-filters="sRGB" class="st8">
	<v:documentProperties v:langID="2052" v:metric="true" v:viewMarkup="false"/>

	<style type="text/css">
	<![CDATA[
		.st1 {fill:#ffffff;stroke:#000000;stroke-linecap:round;stroke-linejoin:round;stroke-width:0.75}
		.st2 {fill:#000000;font-family:Cambria Math;font-size:1.5em}
		.st3 {fill:none;stroke:none;stroke-linecap:round;stroke-linejoin:round;stroke-width:0.75}
		.st4 {marker-end:url(#mrkr4-132);stroke:#000000;stroke-linecap:round;stroke-linejoin:round;stroke-width:0.237638}
		.st5 {fill:#000000;fill-opacity:1;stroke:#000000;stroke-opacity:1;stroke-width:0.086174404659928}
		.st6 {marker-end:url(#mrkr4-182);stroke:#4bacc6;stroke-linecap:round;stroke-linejoin:round;stroke-width:2}
		.st7 {fill:#4bacc6;fill-opacity:1;stroke:#4bacc6;stroke-opacity:1;stroke-width:0.44247787610619}
		.st8 {fill:none;fill-rule:evenodd;font-size:12px;overflow:visible;stroke-linecap:square;stroke-miterlimit:3}
	]]>
	</style>

	<defs id="Markers">
		<g id="lend4">
			<path d="M 2 1 L 0 0 L 2 -1 L 2 1 " style="stroke:none"/>
		</g>
		<marker id="mrkr4-132" class="st5" v:arrowType="4" v:arrowSize="2" v:setback="23.2087" refX="-23.208747514911"
				orient="auto" markerUnits="strokeWidth" overflow="visible">
			<use xlink:href="#lend4" transform="scale(-11.604373757455,-11.604373757455) "/>
		</marker>
		<marker id="mrkr4-182" class="st7" v:arrowType="4" v:arrowSize="2" v:setback="4.52" refX="-4.52" orient="auto"
				markerUnits="strokeWidth" overflow="visible">
			<use xlink:href="#lend4" transform="scale(-2.26,-2.26) "/>
		</marker>
	</defs>
	<g v:mID="0" v:index="1" v:groupContext="foregroundPage">
		<title>页-1</title>
		<v:pageProperties v:drawingScale="0.0393701" v:pageScale="0.0393701" v:drawingUnits="24" v:shadowOffsetX="8.50394"
				v:shadowOffsetY="-8.50394"/>
		<v:layer v:name="连接线" v:index="0"/>
		<g id="shape2230-1" v:mID="2230" v:groupContext="shape" transform="translate(98.2156,-270.176)">
			<title>框.2230</title>
			<desc>1</desc>
			<v:userDefs>
				<v:ud v:nameU="visVersion" v:val="VT0(15):26"/>
			</v:userDefs>
			<v:textBlock v:margins="rect(4,4,4,4)" v:tabSpace="42.5197"/>
			<v:textRect cx="23.202" cy="350.336" width="46.41" height="49.6185"/>
			<rect x="0" y="325.527" width="46.4039" height="49.6185" class="st1"/>
			<text x="18.22" y="355.74" class="st2" v:langID="2052"><v:paragraph v:horizAlign="1"/><v:tabList/>1</text>		</g>
		<g id="shape2231-4" v:mID="2231" v:groupContext="shape" transform="translate(144.619,-270.176)">
			<title>框.2231</title>
			<desc>0</desc>
			<v:userDefs>
				<v:ud v:nameU="visVersion" v:val="VT0(15):26"/>
			</v:userDefs>
			<v:textBlock v:margins="rect(4,4,4,4)" v:tabSpace="42.5197"/>
			<v:textRect cx="23.202" cy="350.336" width="46.41" height="49.6185"/>
			<rect x="0" y="325.527" width="46.4039" height="49.6185" class="st1"/>
			<text x="18.22" y="355.74" class="st2" v:langID="2052"><v:paragraph v:horizAlign="1"/><v:tabList/>0</text>		</g>
		<g id="shape2232-7" v:mID="2232" v:groupContext="shape" transform="translate(191.178,-270.176)">
			<title>框.2232</title>
			<desc>1</desc>
			<v:userDefs>
				<v:ud v:nameU="visVersion" v:val="VT0(15):26"/>
			</v:userDefs>
			<v:textBlock v:margins="rect(4,4,4,4)" v:tabSpace="42.5197"/>
			<v:textRect cx="23.202" cy="350.336" width="46.41" height="49.6185"/>
			<rect x="0" y="325.527" width="46.4039" height="49.6185" class="st1"/>
			<text x="18.22" y="355.74" class="st2" v:langID="2052"><v:paragraph v:horizAlign="1"/><v:tabList/>1</text>		</g>
		<g id="shape2233-10" v:mID="2233" v:groupContext="shape" transform="translate(237.598,-270.176)">
			<title>框.2233</title>
			<desc>0</desc>
			<v:userDefs>
				<v:ud v:nameU="visVersion" v:val="VT0(15):26"/>
			</v:userDefs>
			<v:textBlock v:margins="rect(4,4,4,4)" v:tabSpace="42.5197"/>
			<v:textRect cx="23.202" cy="350.336" width="46.41" height="49.6185"/>
			<rect x="0" y="325.527" width="46.4039" height="49.6185" class="st1"/>
			<text x="18.22" y="355.74" class="st2" v:langID="2052"><v:paragraph v:horizAlign="1"/><v:tabList/>0</text>		</g>
		<g id="shape2234-13" v:mID="2234" v:groupContext="shape" transform="translate(98.2156,-170.842)">
			<title>框.2234</title>
			<desc>0</desc>
			<v:userDefs>
				<v:ud v:nameU="visVersion" v:val="VT0(15):26"/>
			</v:userDefs>
			<v:textBlock v:margins="rect(4,4,4,4)" v:tabSpace="42.5197"/>
			<v:textRect cx="23.202" cy="350.336" width="46.41" height="49.6185"/>
			<rect x="0" y="325.527" width="46.4039" height="49.6185" class="st1"/>
			<text x="18.22" y="355.74" class="st2" v:langID="2052"><v:paragraph v:horizAlign="1"/><v:tabList/>0</text>		</g>
		<g id="shape2235-16" v:mID="2235" v:groupContext="shape" transform="translate(144.758,-170.842)">
			<title>框.2235</title>
			<desc>1</desc>
			<v:userDefs>
				<v:ud v:nameU="visVersion" v:val="VT0(15):26"/>
			</v:userDefs>
			<v:textBlock v:margins="rect(4,4,4,4)" v:tabSpace="42.5197"/>
			<v:textRect cx="23.202" cy="350.336" width="46.41" height="49.6185"/>
			<rect x="0" y="325.527" width="46.4039" height="49.6185" class="st1"/>
			<text x="18.22" y="355.74" class="st2" v:langID="2052"><v:paragraph v:horizAlign="1"/><v:tabList/>1</text>		</g>
		<g id="shape2236-19" v:mID="2236" v:groupContext="shape" transform="translate(191.002,-170.842)">
			<title>框.2236</title>
			<desc>0</desc>
			<v:userDefs>
				<v:ud v:nameU="visVersion" v:val="VT0(15):26"/>
			</v:userDefs>
			<v:textBlock v:margins="rect(4,4,4,4)" v:tabSpace="42.5197"/>
			<v:textRect cx="23.202" cy="350.336" width="46.41" height="49.6185"/>
			<rect x="0" y="325.527" width="46.4039" height="49.6185" class="st1"/>
			<text x="18.22" y="355.74" class="st2" v:langID="2052"><v:paragraph v:horizAlign="1"/><v:tabList/>0</text>		</g>
		<g id="shape2237-22" v:mID="2237" v:groupContext="shape" transform="translate(237.406,-170.842)">
			<title>框.2237</title>
			<desc>0</desc>
			<v:userDefs>
				<v:ud v:nameU="visVersion" v:val="VT0(15):26"/>
			</v:userDefs>
			<v:textBlock v:margins="rect(4,4,4,4)" v:tabSpace="42.5197"/>
			<v:textRect cx="23.202" cy="350.336" width="46.41" height="49.6185"/>
			<rect x="0" y="325.527" width="46.4039" height="49.6185" class="st1"/>
			<text x="18.22" y="355.74" class="st2" v:langID="2052"><v:paragraph v:horizAlign="1"/><v:tabList/>0</text>		</g>
		<g id="shape2239-25" v:mID="2239" v:groupContext="shape" transform="translate(98.2156,-220.461)">
			<title>框.2239</title>
			<desc>1</desc>
			<v:userDefs>
				<v:ud v:nameU="visVersion" v:val="VT0(15):26"/>
			</v:userDefs>
			<v:textBlock v:margins="rect(4,4,4,4)" v:tabSpace="42.5197"/>
			<v:textRect cx="23.202" cy="350.336" width="46.41" height="49.6185"/>
			<rect x="0" y="325.527" width="46.4039" height="49.6185" class="st1"/>
			<text x="18.22" y="355.74" class="st2" v:langID="2052"><v:paragraph v:horizAlign="1"/><v:tabList/>1</text>		</g>
		<g id="shape2240-28" v:mID="2240" v:groupContext="shape" transform="translate(144.758,-220.461)">
			<title>框.2240</title>
			<desc>0</desc>
			<v:userDefs>
				<v:ud v:nameU="visVersion" v:val="VT0(15):26"/>
			</v:userDefs>
			<v:textBlock v:margins="rect(4,4,4,4)" v:tabSpace="42.5197"/>
			<v:textRect cx="23.202" cy="350.336" width="46.41" height="49.6185"/>
			<rect x="0" y="325.527" width="46.4039" height="49.6185" class="st1"/>
			<text x="18.22" y="355.74" class="st2" v:langID="2052"><v:paragraph v:horizAlign="1"/><v:tabList/>0</text>		</g>
		<g id="shape2241-31" v:mID="2241" v:groupContext="shape" transform="translate(191.194,-220.461)">
			<title>框.2241</title>
			<desc>0</desc>
			<v:userDefs>
				<v:ud v:nameU="visVersion" v:val="VT0(15):26"/>
			</v:userDefs>
			<v:textBlock v:margins="rect(4,4,4,4)" v:tabSpace="42.5197"/>
			<v:textRect cx="23.202" cy="350.336" width="46.41" height="49.6185"/>
			<rect x="0" y="325.527" width="46.4039" height="49.6185" class="st1"/>
			<text x="18.22" y="355.74" class="st2" v:langID="2052"><v:paragraph v:horizAlign="1"/><v:tabList/>0</text>		</g>
		<g id="shape2242-34" v:mID="2242" v:groupContext="shape" transform="translate(237.513,-220.461)">
			<title>框.2242</title>
			<desc>1</desc>
			<v:userDefs>
				<v:ud v:nameU="visVersion" v:val="VT0(15):26"/>
			</v:userDefs>
			<v:textBlock v:margins="rect(4,4,4,4)" v:tabSpace="42.5197"/>
			<v:textRect cx="23.202" cy="350.336" width="46.41" height="49.6185"/>
			<rect x="0" y="325.527" width="46.4039" height="49.6185" class="st1"/>
			<text x="18.22" y="355.74" class="st2" v:langID="2052"><v:paragraph v:horizAlign="1"/><v:tabList/>1</text>		</g>
		<g id="shape2243-37" v:mID="2243" v:groupContext="shape" transform="translate(98.4075,-71.5727)">
			<title>框.2243</title>
			<desc>0</desc>
			<v:userDefs>
				<v:ud v:nameU="visVersion" v:val="VT0(15):26"/>
			</v:userDefs>
			<v:textBlock v:margins="rect(4,4,4,4)" v:tabSpace="42.5197"/>
			<v:textRect cx="23.202" cy="350.336" width="46.41" height="49.6185"/>
			<rect x="0" y="325.527" width="46.4039" height="49.6185" class="st1"/>
			<text x="18.22" y="355.74" class="st2" v:langID="2052"><v:paragraph v:horizAlign="1"/><v:tabList/>0</text>		</g>
		<g id="shape2244-40" v:mID="2244" v:groupContext="shape" transform="translate(144.95,-71.5727)">
			<title>框.2244</title>
			<desc>0</desc>
			<v:userDefs>
				<v:ud v:nameU="visVersion" v:val="VT0(15):26"/>
			</v:userDefs>
			<v:textBlock v:margins="rect(4,4,4,4)" v:tabSpace="42.5197"/>
			<v:textRect cx="23.202" cy="350.336" width="46.41" height="49.6185"/>
			<rect x="0" y="325.527" width="46.4039" height="49.6185" class="st1"/>
			<text x="18.22" y="355.74" class="st2" v:langID="2052"><v:paragraph v:horizAlign="1"/><v:tabList/>0</text>		</g>
		<g id="shape2245-43" v:mID="2245" v:groupContext="shape" transform="translate(191.194,-71.5727)">
			<title>框.2245</title>
			<desc>0</desc>
			<v:userDefs>
				<v:ud v:nameU="visVersion" v:val="VT0(15):26"/>
			</v:userDefs>
			<v:textBlock v:margins="rect(4,4,4,4)" v:tabSpace="42.5197"/>
			<v:textRect cx="23.202" cy="350.336" width="46.41" height="49.6185"/>
			<rect x="0" y="325.527" width="46.4039" height="49.6185" class="st1"/>
			<text x="18.22" y="355.74" class="st2" v:langID="2052"><v:paragraph v:horizAlign="1"/><v:tabList/>0</text>		</g>
		<g id="shape2246-46" v:mID="2246" v:groupContext="shape" transform="translate(237.598,-71.5727)">
			<title>框.2246</title>
			<desc>1</desc>
			<v:userDefs>
				<v:ud v:nameU="visVersion" v:val="VT0(15):26"/>
			</v:userDefs>
			<v:textBlock v:margins="rect(4,4,4,4)" v:tabSpace="42.5197"/>
			<v:textRect cx="23.202" cy="350.336" width="46.41" height="49.6185"/>
			<rect x="0" y="325.527" width="46.4039" height="49.6185" class="st1"/>
			<text x="18.22" y="355.74" class="st2" v:langID="2052"><v:paragraph v:horizAlign="1"/><v:tabList/>1</text>		</g>
		<g id="shape2247-49" v:mID="2247" v:groupContext="shape" transform="translate(98.4075,-121.191)">
			<title>框.2247</title>
			<desc>0</desc>
			<v:userDefs>
				<v:ud v:nameU="visVersion" v:val="VT0(15):26"/>
			</v:userDefs>
			<v:textBlock v:margins="rect(4,4,4,4)" v:tabSpace="42.5197"/>
			<v:textRect cx="23.202" cy="350.336" width="46.41" height="49.6185"/>
			<rect x="0" y="325.527" width="46.4039" height="49.6185" class="st1"/>
			<text x="18.22" y="355.74" class="st2" v:langID="2052"><v:paragraph v:horizAlign="1"/><v:tabList/>0</text>		</g>
		<g id="shape2248-52" v:mID="2248" v:groupContext="shape" transform="translate(144.95,-121.191)">
			<title>框.2248</title>
			<desc>1</desc>
			<v:userDefs>
				<v:ud v:nameU="visVersion" v:val="VT0(15):26"/>
			</v:userDefs>
			<v:textBlock v:margins="rect(4,4,4,4)" v:tabSpace="42.5197"/>
			<v:textRect cx="23.202" cy="350.336" width="46.41" height="49.6185"/>
			<rect x="0" y="325.527" width="46.4039" height="49.6185" class="st1"/>
			<text x="18.22" y="355.74" class="st2" v:langID="2052"><v:paragraph v:horizAlign="1"/><v:tabList/>1</text>		</g>
		<g id="shape2249-55" v:mID="2249" v:groupContext="shape" transform="translate(191.386,-121.191)">
			<title>框.2249</title>
			<desc>1</desc>
			<v:userDefs>
				<v:ud v:nameU="visVersion" v:val="VT0(15):26"/>
			</v:userDefs>
			<v:textBlock v:margins="rect(4,4,4,4)" v:tabSpace="42.5197"/>
			<v:textRect cx="23.202" cy="350.336" width="46.41" height="49.6185"/>
			<rect x="0" y="325.527" width="46.4039" height="49.6185" class="st1"/>
			<text x="18.22" y="355.74" class="st2" v:langID="2052"><v:paragraph v:horizAlign="1"/><v:tabList/>1</text>		</g>
		<g id="shape2250-58" v:mID="2250" v:groupContext="shape" transform="translate(237.705,-121.191)">
			<title>框.2250</title>
			<desc>0</desc>
			<v:userDefs>
				<v:ud v:nameU="visVersion" v:val="VT0(15):26"/>
			</v:userDefs>
			<v:textBlock v:margins="rect(4,4,4,4)" v:tabSpace="42.5197"/>
			<v:textRect cx="23.202" cy="350.336" width="46.41" height="49.6185"/>
			<rect x="0" y="325.527" width="46.4039" height="49.6185" class="st1"/>
			<text x="18.22" y="355.74" class="st2" v:langID="2052"><v:paragraph v:horizAlign="1"/><v:tabList/>0</text>		</g>
		<g id="shape2251-61" v:mID="2251" v:groupContext="shape" transform="translate(40.8931,-281.614)">
			<title>工作表.2251</title>
			<desc>sub 1</desc>
			<v:textBlock v:margins="rect(4,4,4,4)" v:tabSpace="42.5197"/>
			<v:textRect cx="28.6612" cy="361.774" width="57.33" height="26.742"/>
			<rect x="0" y="348.403" width="57.3225" height="26.742" class="st3"/>
			<text x="7.93" y="367.17" class="st2" v:langID="2052"><v:paragraph v:horizAlign="1"/><v:tabList/>sub 1</text>		</g>
		<g id="shape2252-64" v:mID="2252" v:groupContext="shape" transform="translate(0.375,-182.184)">
			<title>工作表.2252</title>
			<desc>m</desc>
			<v:textBlock v:margins="rect(4,4,4,4)" v:tabSpace="42.5197"/>
			<v:textRect cx="20.2591" cy="361.774" width="40.52" height="26.742"/>
			<rect x="0" y="348.403" width="40.5181" height="26.742" class="st3"/>
			<text x="12.77" y="367.17" class="st2" v:langID="2052"><v:paragraph v:horizAlign="1"/><v:tabList/>m</text>		</g>
		<g id="shape2253-67" v:mID="2253" v:groupContext="shape" transform="translate(243.484,-348.028)">
			<title>工作表.2253</title>
			<desc>n</desc>
			<v:textBlock v:margins="rect(4,4,4,4)" v:tabSpace="42.5197"/>
			<v:textRect cx="20.2591" cy="361.774" width="40.52" height="26.742"/>
			<rect x="0" y="348.403" width="40.5181" height="26.742" class="st3"/>
			<text x="15.24" y="367.17" class="st2" v:langID="2052"><v:paragraph v:horizAlign="1"/><v:tabList/>n</text>		</g>
		<g id="shape2254-70" v:mID="2254" v:groupContext="shape" transform="translate(40.7545,-231.899)">
			<title>工作表.2254</title>
			<desc>sub 2</desc>
			<v:textBlock v:margins="rect(4,4,4,4)" v:tabSpace="42.5197"/>
			<v:textRect cx="28.6612" cy="361.774" width="57.33" height="26.742"/>
			<rect x="0" y="348.403" width="57.3225" height="26.742" class="st3"/>
			<text x="7.93" y="367.17" class="st2" v:langID="2052"><v:paragraph v:horizAlign="1"/><v:tabList/>sub 2</text>		</g>
		<g id="shape2255-73" v:mID="2255" v:groupContext="shape" transform="translate(40.7545,-181.925)">
			<title>工作表.2255</title>
			<desc>sub 3</desc>
			<v:textBlock v:margins="rect(4,4,4,4)" v:tabSpace="42.5197"/>
			<v:textRect cx="28.6612" cy="361.774" width="57.33" height="26.742"/>
			<rect x="0" y="348.403" width="57.3225" height="26.742" class="st3"/>
			<text x="7.93" y="367.17" class="st2" v:langID="2052"><v:paragraph v:horizAlign="1"/><v:tabList/>sub 3</text>		</g>
		<g id="shape2256-76" v:mID="2256" v:groupContext="shape" transform="translate(40.9464,-132.63)">
			<title>工作表.2256</title>
			<desc>sub 4</desc>
			<v:textBlock v:margins="rect(4,4,4,4)" v:tabSpace="42.5197"/>
			<v:textRect cx="28.6612" cy="361.774" width="57.33" height="26.742"/>
			<rect x="0" y="348.403" width="57.3225" height="26.742" class="st3"/>
			<text x="7.93" y="367.17" class="st2" v:langID="2052"><v:paragraph v:horizAlign="1"/><v:tabList/>sub 4</text>		</g>
		<g id="shape2257-79" v:mID="2257" v:groupContext="shape" transform="translate(40.9464,-83.011)">
			<title>工作表.2257</title>
			<desc>sub 5</desc>
			<v:textBlock v:margins="rect(4,4,4,4)" v:tabSpace="42.5197"/>
			<v:textRect cx="28.6612" cy="361.774" width="57.33" height="26.742"/>
			<rect x="0" y="348.403" width="57.3225" height="26.742" class="st3"/>
			<text x="7.93" y="367.17" class="st2" v:langID="2052"><v:paragraph v:horizAlign="1"/><v:tabList/>sub 5</text>		</g>
		<g id="shape2258-82" v:mID="2258" v:groupContext="shape" transform="translate(284.098,-270.176)">
			<title>框.2258</title>
			<desc>1</desc>
			<v:userDefs>
				<v:ud v:nameU="visVersion" v:val="VT0(15):26"/>
			</v:userDefs>
			<v:textBlock v:margins="rect(4,4,4,4)" v:tabSpace="42.5197"/>
			<v:textRect cx="23.202" cy="350.336" width="46.41" height="49.6185"/>
			<rect x="0" y="325.527" width="46.4039" height="49.6185" class="st1"/>
			<text x="18.22" y="355.74" class="st2" v:langID="2052"><v:paragraph v:horizAlign="1"/><v:tabList/>1</text>		</g>
		<g id="shape2259-85" v:mID="2259" v:groupContext="shape" transform="translate(330.598,-270.176)">
			<title>框.2259</title>
			<desc>1</desc>
			<v:userDefs>
				<v:ud v:nameU="visVersion" v:val="VT0(15):26"/>
			</v:userDefs>
			<v:textBlock v:margins="rect(4,4,4,4)" v:tabSpace="42.5197"/>
			<v:textRect cx="23.202" cy="350.336" width="46.41" height="49.6185"/>
			<rect x="0" y="325.527" width="46.4039" height="49.6185" class="st1"/>
			<text x="18.22" y="355.74" class="st2" v:langID="2052"><v:paragraph v:horizAlign="1"/><v:tabList/>1</text>		</g>
		<g id="shape2260-88" v:mID="2260" v:groupContext="shape" transform="translate(377.098,-270.176)">
			<title>框.2260</title>
			<desc>0</desc>
			<v:userDefs>
				<v:ud v:nameU="visVersion" v:val="VT0(15):26"/>
			</v:userDefs>
			<v:textBlock v:margins="rect(4,4,4,4)" v:tabSpace="42.5197"/>
			<v:textRect cx="23.202" cy="350.336" width="46.41" height="49.6185"/>
			<rect x="0" y="325.527" width="46.4039" height="49.6185" class="st1"/>
			<text x="18.22" y="355.74" class="st2" v:langID="2052"><v:paragraph v:horizAlign="1"/><v:tabList/>0</text>		</g>
		<g id="shape2261-91" v:mID="2261" v:groupContext="shape" transform="translate(284.098,-220.461)">
			<title>框.2261</title>
			<desc>0</desc>
			<v:userDefs>
				<v:ud v:nameU="visVersion" v:val="VT0(15):26"/>
			</v:userDefs>
			<v:textBlock v:margins="rect(4,4,4,4)" v:tabSpace="42.5197"/>
			<v:textRect cx="23.202" cy="350.336" width="46.41" height="49.6185"/>
			<rect x="0" y="325.527" width="46.4039" height="49.6185" class="st1"/>
			<text x="18.22" y="355.74" class="st2" v:langID="2052"><v:paragraph v:horizAlign="1"/><v:tabList/>0</text>		</g>
		<g id="shape2262-94" v:mID="2262" v:groupContext="shape" transform="translate(330.598,-220.461)">
			<title>框.2262</title>
			<desc>0</desc>
			<v:userDefs>
				<v:ud v:nameU="visVersion" v:val="VT0(15):26"/>
			</v:userDefs>
			<v:textBlock v:margins="rect(4,4,4,4)" v:tabSpace="42.5197"/>
			<v:textRect cx="23.202" cy="350.336" width="46.41" height="49.6185"/>
			<rect x="0" y="325.527" width="46.4039" height="49.6185" class="st1"/>
			<text x="18.22" y="355.74" class="st2" v:langID="2052"><v:paragraph v:horizAlign="1"/><v:tabList/>0</text>		</g>
		<g id="shape2263-97" v:mID="2263" v:groupContext="shape" transform="translate(377.098,-220.461)">
			<title>框.2263</title>
			<desc>1</desc>
			<v:userDefs>
				<v:ud v:nameU="visVersion" v:val="VT0(15):26"/>
			</v:userDefs>
			<v:textBlock v:margins="rect(4,4,4,4)" v:tabSpace="42.5197"/>
			<v:textRect cx="23.202" cy="350.336" width="46.41" height="49.6185"/>
			<rect x="0" y="325.527" width="46.4039" height="49.6185" class="st1"/>
			<text x="18.22" y="355.74" class="st2" v:langID="2052"><v:paragraph v:horizAlign="1"/><v:tabList/>1</text>		</g>
		<g id="shape2264-100" v:mID="2264" v:groupContext="shape" transform="translate(284.098,-170.81)">
			<title>框.2264</title>
			<desc>0</desc>
			<v:userDefs>
				<v:ud v:nameU="visVersion" v:val="VT0(15):26"/>
			</v:userDefs>
			<v:textBlock v:margins="rect(4,4,4,4)" v:tabSpace="42.5197"/>
			<v:textRect cx="23.202" cy="350.336" width="46.41" height="49.6185"/>
			<rect x="0" y="325.527" width="46.4039" height="49.6185" class="st1"/>
			<text x="18.22" y="355.74" class="st2" v:langID="2052"><v:paragraph v:horizAlign="1"/><v:tabList/>0</text>		</g>
		<g id="shape2265-103" v:mID="2265" v:groupContext="shape" transform="translate(330.598,-170.81)">
			<title>框.2265</title>
			<desc>1</desc>
			<v:userDefs>
				<v:ud v:nameU="visVersion" v:val="VT0(15):26"/>
			</v:userDefs>
			<v:textBlock v:margins="rect(4,4,4,4)" v:tabSpace="42.5197"/>
			<v:textRect cx="23.202" cy="350.336" width="46.41" height="49.6185"/>
			<rect x="0" y="325.527" width="46.4039" height="49.6185" class="st1"/>
			<text x="18.22" y="355.74" class="st2" v:langID="2052"><v:paragraph v:horizAlign="1"/><v:tabList/>1</text>		</g>
		<g id="shape2266-106" v:mID="2266" v:groupContext="shape" transform="translate(377.098,-170.81)">
			<title>框.2266</title>
			<desc>1</desc>
			<v:userDefs>
				<v:ud v:nameU="visVersion" v:val="VT0(15):26"/>
			</v:userDefs>
			<v:textBlock v:margins="rect(4,4,4,4)" v:tabSpace="42.5197"/>
			<v:textRect cx="23.202" cy="350.336" width="46.41" height="49.6185"/>
			<rect x="0" y="325.527" width="46.4039" height="49.6185" class="st1"/>
			<text x="18.22" y="355.74" class="st2" v:langID="2052"><v:paragraph v:horizAlign="1"/><v:tabList/>1</text>		</g>
		<g id="shape2267-109" v:mID="2267" v:groupContext="shape" transform="translate(284.098,-121.191)">
			<title>框.2267</title>
			<desc>0</desc>
			<v:userDefs>
				<v:ud v:nameU="visVersion" v:val="VT0(15):26"/>
			</v:userDefs>
			<v:textBlock v:margins="rect(4,4,4,4)" v:tabSpace="42.5197"/>
			<v:textRect cx="23.202" cy="350.336" width="46.41" height="49.6185"/>
			<rect x="0" y="325.527" width="46.4039" height="49.6185" class="st1"/>
			<text x="18.22" y="355.74" class="st2" v:langID="2052"><v:paragraph v:horizAlign="1"/><v:tabList/>0</text>		</g>
		<g id="shape2268-112" v:mID="2268" v:groupContext="shape" transform="translate(330.598,-121.191)">
			<title>框.2268</title>
			<desc>1</desc>
			<v:userDefs>
				<v:ud v:nameU="visVersion" v:val="VT0(15):26"/>
			</v:userDefs>
			<v:textBlock v:margins="rect(4,4,4,4)" v:tabSpace="42.5197"/>
			<v:textRect cx="23.202" cy="350.336" width="46.41" height="49.6185"/>
			<rect x="0" y="325.527" width="46.4039" height="49.6185" class="st1"/>
			<text x="18.22" y="355.74" class="st2" v:langID="2052"><v:paragraph v:horizAlign="1"/><v:tabList/>1</text>		</g>
		<g id="shape2269-115" v:mID="2269" v:groupContext="shape" transform="translate(377.098,-121.191)">
			<title>框.2269</title>
			<desc>0</desc>
			<v:userDefs>
				<v:ud v:nameU="visVersion" v:val="VT0(15):26"/>
			</v:userDefs>
			<v:textBlock v:margins="rect(4,4,4,4)" v:tabSpace="42.5197"/>
			<v:textRect cx="23.202" cy="350.336" width="46.41" height="49.6185"/>
			<rect x="0" y="325.527" width="46.4039" height="49.6185" class="st1"/>
			<text x="18.22" y="355.74" class="st2" v:langID="2052"><v:paragraph v:horizAlign="1"/><v:tabList/>0</text>		</g>
		<g id="shape2270-118" v:mID="2270" v:groupContext="shape" transform="translate(284.098,-71.5727)">
			<title>框.2270</title>
			<desc>1</desc>
			<v:userDefs>
				<v:ud v:nameU="visVersion" v:val="VT0(15):26"/>
			</v:userDefs>
			<v:textBlock v:margins="rect(4,4,4,4)" v:tabSpace="42.5197"/>
			<v:textRect cx="23.202" cy="350.336" width="46.41" height="49.6185"/>
			<rect x="0" y="325.527" width="46.4039" height="49.6185" class="st1"/>
			<text x="18.22" y="355.74" class="st2" v:langID="2052"><v:paragraph v:horizAlign="1"/><v:tabList/>1</text>		</g>
		<g id="shape2271-121" v:mID="2271" v:groupContext="shape" transform="translate(330.79,-71.5727)">
			<title>框.2271</title>
			<desc>0</desc>
			<v:userDefs>
				<v:ud v:nameU="visVersion" v:val="VT0(15):26"/>
			</v:userDefs>
			<v:textBlock v:margins="rect(4,4,4,4)" v:tabSpace="42.5197"/>
			<v:textRect cx="23.202" cy="350.336" width="46.41" height="49.6185"/>
			<rect x="0" y="325.527" width="46.4039" height="49.6185" class="st1"/>
			<text x="18.22" y="355.74" class="st2" v:langID="2052"><v:paragraph v:horizAlign="1"/><v:tabList/>0</text>		</g>
		<g id="shape2272-124" v:mID="2272" v:groupContext="shape" transform="translate(377.098,-71.5727)">
			<title>框.2272</title>
			<desc>1</desc>
			<v:userDefs>
				<v:ud v:nameU="visVersion" v:val="VT0(15):26"/>
			</v:userDefs>
			<v:textBlock v:margins="rect(4,4,4,4)" v:tabSpace="42.5197"/>
			<v:textRect cx="23.202" cy="350.336" width="46.41" height="49.6185"/>
			<rect x="0" y="325.527" width="46.4039" height="49.6185" class="st1"/>
			<text x="18.22" y="355.74" class="st2" v:langID="2052"><v:paragraph v:horizAlign="1"/><v:tabList/>1</text>		</g>
		<g id="shape2273-127" v:mID="2273" v:groupContext="shape" v:layerMember="0" transform="translate(46.8962,-236.64)">
			<title>动态连接线.2273</title>
			<path d="M0 368.35 L72.56 368.25 A2.3622 2.3622 0 1 1 77.28 368.24 L118.98 368.18 A2.3622 2.3622 0 1 1 123.71 368.17
						 L164.67 368.11 A2.3622 2.3622 0 0 1 169.39 368.1 L214.6 368.03 A2.3622 2.3622 0 0 1 219.32 368.02 L303.74
						 367.9 A2.3622 2.3622 0 1 1 308.46 367.89 L352.86 367.82 A2.3622 2.3622 0 1 1 357.58 367.82 L388.24 367.77"
					class="st4"/>
		</g>
		<g id="shape2274-133" v:mID="2274" v:groupContext="shape" v:layerMember="0" transform="translate(47.4293,-139.876)">
			<title>动态连接线.2274</title>
			<path d="M0 369.16 L72.24 368.76 A2.3622 2.3622 0 1 1 76.96 368.73 L118.78 368.5 A2.3622 2.3622 0 0 1 123.5 368.47 L164.46
						 368.24 A2.3622 2.3622 0 0 1 169.19 368.21 L214.18 367.96 A2.3622 2.3622 0 0 1 218.91 367.93 L303.32 367.46
						 A2.3622 2.3622 0 1 1 308.05 367.43 L352.49 367.18 A2.3622 2.3622 0 1 1 357.21 367.16 L388.24 366.98"
					class="st4"/>
		</g>
		<g id="shape2275-138" v:mID="2275" v:groupContext="shape" v:layerMember="0" transform="translate(47.9625,-88.6952)">
			<title>动态连接线.2275</title>
			<path d="M0 369.16 L71.82 368.76 A2.3622 2.3622 0 1 1 76.54 368.73 L118.42 368.5 A2.3622 2.3622 0 0 1 123.14 368.47 L164.1
						 368.24 A2.3622 2.3622 0 0 1 168.83 368.22 L213.71 367.96 A2.3622 2.3622 0 0 1 218.44 367.94 L302.85 367.46
						 A2.3622 2.3622 0 1 1 307.57 367.44 L352.04 367.19 A2.3622 2.3622 0 1 1 356.76 367.16 L388.24 366.98"
					class="st4"/>
		</g>
		<g id="shape2281-143" v:mID="2281" v:groupContext="shape" v:layerMember="0" transform="translate(44.9449,-289.483)">
			<title>动态连接线.2281</title>
			<path d="M0 368.35 L74.4 368.24 A2.3622 2.3622 0 1 1 79.12 368.24 L120.76 368.17 A2.3622 2.3622 0 1 1 125.48 368.17 L166.44
						 368.1 A2.3622 2.3622 0 0 1 171.17 368.1 L216.48 368.03 A2.3622 2.3622 0 0 1 221.21 368.02 L305.62 367.9
						 A2.3622 2.3622 0 1 1 310.35 367.89 L354.72 367.82 A2.3622 2.3622 0 1 1 359.45 367.81 L388.24 367.77"
					class="st4"/>
		</g>
		<g id="shape2282-148" v:mID="2282" v:groupContext="shape" v:layerMember="0" transform="translate(51.0226,-188.188)">
			<title>动态连接线.2282</title>
			<path d="M0 368.35 L68.54 368.25 A2.3622 2.3622 0 0 1 73.26 368.24 L115.02 368.18 A2.3622 2.3622 0 1 1 119.75 368.17
						 L160.71 368.11 A2.3622 2.3622 0 0 1 165.43 368.11 L210.53 368.04 A2.3622 2.3622 0 0 1 215.25 368.03 L299.67
						 367.9 A2.3622 2.3622 0 1 1 304.39 367.9 L348.81 367.83 A2.3622 2.3622 0 0 1 353.54 367.82 L388.24 367.77"
					class="st4"/>
		</g>
		<g id="shape2539-153" v:mID="2539" v:groupContext="shape" transform="translate(98.4092,-21.7641)">
			<title>框.2539</title>
			<desc>0</desc>
			<v:userDefs>
				<v:ud v:nameU="visVersion" v:val="VT0(15):26"/>
			</v:userDefs>
			<v:textBlock v:margins="rect(4,4,4,4)" v:tabSpace="42.5197"/>
			<v:textRect cx="23.202" cy="350.336" width="46.41" height="49.6185"/>
			<rect x="0" y="325.527" width="46.4039" height="49.6185" class="st1"/>
			<text x="18.22" y="355.74" class="st2" v:langID="2052"><v:paragraph v:horizAlign="1"/><v:tabList/>0</text>		</g>
		<g id="shape2540-156" v:mID="2540" v:groupContext="shape" transform="translate(144.952,-21.7641)">
			<title>框.2540</title>
			<desc>0</desc>
			<v:userDefs>
				<v:ud v:nameU="visVersion" v:val="VT0(15):26"/>
			</v:userDefs>
			<v:textBlock v:margins="rect(4,4,4,4)" v:tabSpace="42.5197"/>
			<v:textRect cx="23.202" cy="350.336" width="46.41" height="49.6185"/>
			<rect x="0" y="325.527" width="46.4039" height="49.6185" class="st1"/>
			<text x="18.22" y="355.74" class="st2" v:langID="2052"><v:paragraph v:horizAlign="1"/><v:tabList/>0</text>		</g>
		<g id="shape2541-159" v:mID="2541" v:groupContext="shape" transform="translate(191.196,-21.7641)">
			<title>框.2541</title>
			<desc>0</desc>
			<v:userDefs>
				<v:ud v:nameU="visVersion" v:val="VT0(15):26"/>
			</v:userDefs>
			<v:textBlock v:margins="rect(4,4,4,4)" v:tabSpace="42.5197"/>
			<v:textRect cx="23.202" cy="350.336" width="46.41" height="49.6185"/>
			<rect x="0" y="325.527" width="46.4039" height="49.6185" class="st1"/>
			<text x="18.22" y="355.74" class="st2" v:langID="2052"><v:paragraph v:horizAlign="1"/><v:tabList/>0</text>		</g>
		<g id="shape2542-162" v:mID="2542" v:groupContext="shape" transform="translate(237.6,-21.7641)">
			<title>框.2542</title>
			<desc>0</desc>
			<v:userDefs>
				<v:ud v:nameU="visVersion" v:val="VT0(15):26"/>
			</v:userDefs>
			<v:textBlock v:margins="rect(4,4,4,4)" v:tabSpace="42.5197"/>
			<v:textRect cx="23.202" cy="350.336" width="46.41" height="49.6185"/>
			<rect x="0" y="325.527" width="46.4039" height="49.6185" class="st1"/>
			<text x="18.22" y="355.74" class="st2" v:langID="2052"><v:paragraph v:horizAlign="1"/><v:tabList/>0</text>		</g>
		<g id="shape2543-165" v:mID="2543" v:groupContext="shape" transform="translate(40.9482,-33.2024)">
			<title>工作表.2543</title>
			<desc>sub 6</desc>
			<v:textBlock v:margins="rect(4,4,4,4)" v:tabSpace="42.5197"/>
			<v:textRect cx="28.6612" cy="361.774" width="57.33" height="26.742"/>
			<rect x="0" y="348.403" width="57.3225" height="26.742" class="st3"/>
			<text x="7.93" y="367.17" class="st2" v:langID="2052"><v:paragraph v:horizAlign="1"/><v:tabList/>sub 6</text>		</g>
		<g id="shape2544-168" v:mID="2544" v:groupContext="shape" transform="translate(284.099,-21.7641)">
			<title>框.2544</title>
			<desc>1</desc>
			<v:userDefs>
				<v:ud v:nameU="visVersion" v:val="VT0(15):26"/>
			</v:userDefs>
			<v:textBlock v:margins="rect(4,4,4,4)" v:tabSpace="42.5197"/>
			<v:textRect cx="23.202" cy="350.336" width="46.41" height="49.6185"/>
			<rect x="0" y="325.527" width="46.4039" height="49.6185" class="st1"/>
			<text x="18.22" y="355.74" class="st2" v:langID="2052"><v:paragraph v:horizAlign="1"/><v:tabList/>1</text>		</g>
		<g id="shape2545-171" v:mID="2545" v:groupContext="shape" transform="translate(330.791,-21.7641)">
			<title>框.2545</title>
			<desc>0</desc>
			<v:userDefs>
				<v:ud v:nameU="visVersion" v:val="VT0(15):26"/>
			</v:userDefs>
			<v:textBlock v:margins="rect(4,4,4,4)" v:tabSpace="42.5197"/>
			<v:textRect cx="23.202" cy="350.336" width="46.41" height="49.6185"/>
			<rect x="0" y="325.527" width="46.4039" height="49.6185" class="st1"/>
			<text x="18.22" y="355.74" class="st2" v:langID="2052"><v:paragraph v:horizAlign="1"/><v:tabList/>0</text>		</g>
		<g id="shape2546-174" v:mID="2546" v:groupContext="shape" transform="translate(377.099,-21.7641)">
			<title>框.2546</title>
			<desc>0</desc>
			<v:userDefs>
				<v:ud v:nameU="visVersion" v:val="VT0(15):26"/>
			</v:userDefs>
			<v:textBlock v:margins="rect(4,4,4,4)" v:tabSpace="42.5197"/>
			<v:textRect cx="23.202" cy="350.336" width="46.41" height="49.6185"/>
			<rect x="0" y="325.527" width="46.4039" height="49.6185" class="st1"/>
			<text x="18.22" y="355.74" class="st2" v:langID="2052"><v:paragraph v:horizAlign="1"/><v:tabList/>0</text>		</g>
		<g id="shape2276-177" v:mID="2276" v:groupContext="shape" v:layerMember="0" transform="translate(114.88,-339.491)">
			<title>动态连接线.2276</title>
			<path d="M6.73 375.15 L7.42 693.46" class="st6"/>
		</g>
		<g id="shape2279-183" v:mID="2279" v:groupContext="shape" v:layerMember="0" transform="translate(207.069,-338.275)">
			<title>动态连接线.2279</title>
			<path d="M6.54 375.15 L7.61 690.22" class="st6"/>
		</g>
		<g id="shape2278-188" v:mID="2278" v:groupContext="shape" v:layerMember="0" transform="translate(395.148,-336.452)">
			<title>动态连接线.2278</title>
			<path d="M6.81 375.15 L7.34 692.45" class="st6"/>
		</g>
		<g id="shape2277-193" v:mID="2277" v:groupContext="shape" v:layerMember="0" transform="translate(256.853,-334.596)">
			<title>动态连接线.2277</title>
			<path d="M6.89 375.15 L7.27 687.35" class="st6"/>
		</g>
		<g id="shape2280-198" v:mID="2280" v:groupContext="shape" v:layerMember="0" transform="translate(345.993,-336.792)">
			<title>动态连接线.2280</title>
			<path d="M6.89 375.15 L7.27 690.36" class="st6"/>
		</g>
		<g id="shape2618-203" v:mID="2618" v:groupContext="shape" v:layerMember="0" transform="translate(161.369,-342.494)">
			<title>动态连接线.2618</title>
			<path d="M6.54 375.15 L7.61 690.22" class="st6"/>
		</g>
		<g id="shape3360-208" v:mID="3360" v:groupContext="shape" transform="translate(101.132,-319.792)">
			<title>工作表.3360</title>
			<desc>1</desc>
			<v:textBlock v:margins="rect(4,4,4,4)" v:tabSpace="42.5197"/>
			<v:textRect cx="20.2591" cy="361.774" width="40.52" height="26.742"/>
			<rect x="0" y="348.403" width="40.5181" height="26.742" class="st3"/>
			<text x="15.28" y="367.17" class="st2" v:langID="2052"><v:paragraph v:horizAlign="1"/><v:tabList/>1</text>		</g>
		<g id="shape3361-211" v:mID="3361" v:groupContext="shape" transform="translate(147.536,-319.321)">
			<title>工作表.3361</title>
			<desc>2</desc>
			<v:textBlock v:margins="rect(4,4,4,4)" v:tabSpace="42.5197"/>
			<v:textRect cx="20.2591" cy="361.774" width="40.52" height="26.742"/>
			<rect x="0" y="348.403" width="40.5181" height="26.742" class="st3"/>
			<text x="15.28" y="367.17" class="st2" v:langID="2052"><v:paragraph v:horizAlign="1"/><v:tabList/>2</text>		</g>
		<g id="shape3362-214" v:mID="3362" v:groupContext="shape" transform="translate(194.094,-319.321)">
			<title>工作表.3362</title>
			<desc>3</desc>
			<v:textBlock v:margins="rect(4,4,4,4)" v:tabSpace="42.5197"/>
			<v:textRect cx="20.2591" cy="361.774" width="40.52" height="26.742"/>
			<rect x="0" y="348.403" width="40.5181" height="26.742" class="st3"/>
			<text x="15.28" y="367.17" class="st2" v:langID="2052"><v:paragraph v:horizAlign="1"/><v:tabList/>3</text>		</g>
		<g id="shape3363-217" v:mID="3363" v:groupContext="shape" transform="translate(240.514,-319.321)">
			<title>工作表.3363</title>
			<desc>4</desc>
			<v:textBlock v:margins="rect(4,4,4,4)" v:tabSpace="42.5197"/>
			<v:textRect cx="20.2591" cy="361.774" width="40.52" height="26.742"/>
			<rect x="0" y="348.403" width="40.5181" height="26.742" class="st3"/>
			<text x="15.28" y="367.17" class="st2" v:langID="2052"><v:paragraph v:horizAlign="1"/><v:tabList/>4</text>		</g>
		<g id="shape3364-220" v:mID="3364" v:groupContext="shape" transform="translate(287.014,-319.321)">
			<title>工作表.3364</title>
			<desc>5</desc>
			<v:textBlock v:margins="rect(4,4,4,4)" v:tabSpace="42.5197"/>
			<v:textRect cx="20.2591" cy="361.774" width="40.52" height="26.742"/>
			<rect x="0" y="348.403" width="40.5181" height="26.742" class="st3"/>
			<text x="15.28" y="367.17" class="st2" v:langID="2052"><v:paragraph v:horizAlign="1"/><v:tabList/>5</text>		</g>
		<g id="shape3365-223" v:mID="3365" v:groupContext="shape" transform="translate(333.514,-319.321)">
			<title>工作表.3365</title>
			<desc>6</desc>
			<v:textBlock v:margins="rect(4,4,4,4)" v:tabSpace="42.5197"/>
			<v:textRect cx="20.2591" cy="361.774" width="40.52" height="26.742"/>
			<rect x="0" y="348.403" width="40.5181" height="26.742" class="st3"/>
			<text x="15.28" y="367.17" class="st2" v:langID="2052"><v:paragraph v:horizAlign="1"/><v:tabList/>6</text>		</g>
		<g id="shape3366-226" v:mID="3366" v:groupContext="shape" transform="translate(380.014,-319.321)">
			<title>工作表.3366</title>
			<desc>7</desc>
			<v:textBlock v:margins="rect(4,4,4,4)" v:tabSpace="42.5197"/>
			<v:textRect cx="20.2591" cy="361.774" width="40.52" height="26.742"/>
			<rect x="0" y="348.403" width="40.5181" height="26.742" class="st3"/>
			<text x="15.28" y="367.17" class="st2" v:langID="2052"><v:paragraph v:horizAlign="1"/><v:tabList/>7</text>		</g>
	</g>
</svg>
