<?xml version="1.0" encoding="UTF-8" standalone="no"?>
<!DOCTYPE svg PUBLIC "-//W3C//DTD SVG 1.1//EN" "http://www.w3.org/Graphics/SVG/1.1/DTD/svg11.dtd">
<!-- 由 Microsoft Visio, SVG Export 生成 DancingLinks3.svg 页-1 -->
<svg xmlns="http://www.w3.org/2000/svg" xmlns:xlink="http://www.w3.org/1999/xlink" xmlns:ev="http://www.w3.org/2001/xml-events"
		xmlns:v="http://schemas.microsoft.com/visio/2003/SVGExtensions/" width="6.17582in" height="5.25492in"
		viewBox="0 0 444.659 378.354" xml:space="preserve" color-interpolation-filters="sRGB" class="st8">
	<v:documentProperties v:langID="2052" v:metric="true" v:viewMarkup="false"/>

	<style type="text/css">
	<![CDATA[
		.st1 {fill:#ffffff;stroke:#000000;stroke-linecap:round;stroke-linejoin:round;stroke-width:0.75}
		.st2 {fill:#000000;font-family:Cambria Math;font-size:1.5em}
		.st3 {fill:none;stroke:none;stroke-linecap:round;stroke-linejoin:round;stroke-width:0.75}
		.st4 {marker-end:url(#mrkr4-156);stroke:#4bacc6;stroke-linecap:round;stroke-linejoin:round;stroke-width:2}
		.st5 {fill:#4bacc6;fill-opacity:1;stroke:#4bacc6;stroke-opacity:1;stroke-width:0.44247787610619}
		.st6 {marker-end:url(#mrkr4-177);stroke:#000000;stroke-linecap:round;stroke-linejoin:round;stroke-width:0.237638}
		.st7 {fill:#000000;fill-opacity:1;stroke:#000000;stroke-opacity:1;stroke-width:0.086174404659928}
		.st8 {fill:none;fill-rule:evenodd;font-size:12px;overflow:visible;stroke-linecap:square;stroke-miterlimit:3}
	]]>
	</style>

	<defs id="Markers">
		<g id="lend4">
			<path d="M 2 1 L 0 0 L 2 -1 L 2 1 " style="stroke:none"/>
		</g>
		<marker id="mrkr4-156" class="st5" v:arrowType="4" v:arrowSize="2" v:setback="4.52" refX="-4.52" orient="auto"
				markerUnits="strokeWidth" overflow="visible">
			<use xlink:href="#lend4" transform="scale(-2.26,-2.26) "/>
		</marker>
		<marker id="mrkr4-177" class="st7" v:arrowType="4" v:arrowSize="2" v:setback="23.2087" refX="-23.208747514911"
				orient="auto" markerUnits="strokeWidth" overflow="visible">
			<use xlink:href="#lend4" transform="scale(-11.604373757455,-11.604373757455) "/>
		</marker>
	</defs>
	<g v:mID="0" v:index="1" v:groupContext="foregroundPage">
		<title>页-1</title>
		<v:pageProperties v:drawingScale="0.0393701" v:pageScale="0.0393701" v:drawingUnits="24" v:shadowOffsetX="8.50394"
				v:shadowOffsetY="-8.50394"/>
		<v:layer v:name="连接线" v:index="0"/>
		<g id="shape2556-1" v:mID="2556" v:groupContext="shape" transform="translate(98.2156,-273.385)">
			<title>框.2556</title>
			<desc>1</desc>
			<v:userDefs>
				<v:ud v:nameU="visVersion" v:val="VT0(15):26"/>
			</v:userDefs>
			<v:textBlock v:margins="rect(4,4,4,4)" v:tabSpace="42.5197"/>
			<v:textRect cx="23.202" cy="353.545" width="46.41" height="49.6185"/>
			<rect x="0" y="328.736" width="46.4039" height="49.6185" class="st1"/>
			<text x="18.22" y="358.95" class="st2" v:langID="2052"><v:paragraph v:horizAlign="1"/><v:tabList/>1</text>		</g>
		<g id="shape2557-4" v:mID="2557" v:groupContext="shape" transform="translate(144.619,-273.385)">
			<title>框.2557</title>
			<desc>0</desc>
			<v:userDefs>
				<v:ud v:nameU="visVersion" v:val="VT0(15):26"/>
			</v:userDefs>
			<v:textBlock v:margins="rect(4,4,4,4)" v:tabSpace="42.5197"/>
			<v:textRect cx="23.202" cy="353.545" width="46.41" height="49.6185"/>
			<rect x="0" y="328.736" width="46.4039" height="49.6185" class="st1"/>
			<text x="18.22" y="358.95" class="st2" v:langID="2052"><v:paragraph v:horizAlign="1"/><v:tabList/>0</text>		</g>
		<g id="shape2558-7" v:mID="2558" v:groupContext="shape" transform="translate(191.178,-273.385)">
			<title>框.2558</title>
			<desc>1</desc>
			<v:userDefs>
				<v:ud v:nameU="visVersion" v:val="VT0(15):26"/>
			</v:userDefs>
			<v:textBlock v:margins="rect(4,4,4,4)" v:tabSpace="42.5197"/>
			<v:textRect cx="23.202" cy="353.545" width="46.41" height="49.6185"/>
			<rect x="0" y="328.736" width="46.4039" height="49.6185" class="st1"/>
			<text x="18.22" y="358.95" class="st2" v:langID="2052"><v:paragraph v:horizAlign="1"/><v:tabList/>1</text>		</g>
		<g id="shape2559-10" v:mID="2559" v:groupContext="shape" transform="translate(237.598,-273.385)">
			<title>框.2559</title>
			<desc>0</desc>
			<v:userDefs>
				<v:ud v:nameU="visVersion" v:val="VT0(15):26"/>
			</v:userDefs>
			<v:textBlock v:margins="rect(4,4,4,4)" v:tabSpace="42.5197"/>
			<v:textRect cx="23.202" cy="353.545" width="46.41" height="49.6185"/>
			<rect x="0" y="328.736" width="46.4039" height="49.6185" class="st1"/>
			<text x="18.22" y="358.95" class="st2" v:langID="2052"><v:paragraph v:horizAlign="1"/><v:tabList/>0</text>		</g>
		<g id="shape2560-13" v:mID="2560" v:groupContext="shape" transform="translate(98.2156,-174.051)">
			<title>框.2560</title>
			<desc>0</desc>
			<v:userDefs>
				<v:ud v:nameU="visVersion" v:val="VT0(15):26"/>
			</v:userDefs>
			<v:textBlock v:margins="rect(4,4,4,4)" v:tabSpace="42.5197"/>
			<v:textRect cx="23.202" cy="353.545" width="46.41" height="49.6185"/>
			<rect x="0" y="328.736" width="46.4039" height="49.6185" class="st1"/>
			<text x="18.22" y="358.95" class="st2" v:langID="2052"><v:paragraph v:horizAlign="1"/><v:tabList/>0</text>		</g>
		<g id="shape2561-16" v:mID="2561" v:groupContext="shape" transform="translate(144.758,-174.051)">
			<title>框.2561</title>
			<desc>1</desc>
			<v:userDefs>
				<v:ud v:nameU="visVersion" v:val="VT0(15):26"/>
			</v:userDefs>
			<v:textBlock v:margins="rect(4,4,4,4)" v:tabSpace="42.5197"/>
			<v:textRect cx="23.202" cy="353.545" width="46.41" height="49.6185"/>
			<rect x="0" y="328.736" width="46.4039" height="49.6185" class="st1"/>
			<text x="18.22" y="358.95" class="st2" v:langID="2052"><v:paragraph v:horizAlign="1"/><v:tabList/>1</text>		</g>
		<g id="shape2562-19" v:mID="2562" v:groupContext="shape" transform="translate(191.002,-174.051)">
			<title>框.2562</title>
			<desc>0</desc>
			<v:userDefs>
				<v:ud v:nameU="visVersion" v:val="VT0(15):26"/>
			</v:userDefs>
			<v:textBlock v:margins="rect(4,4,4,4)" v:tabSpace="42.5197"/>
			<v:textRect cx="23.202" cy="353.545" width="46.41" height="49.6185"/>
			<rect x="0" y="328.736" width="46.4039" height="49.6185" class="st1"/>
			<text x="18.22" y="358.95" class="st2" v:langID="2052"><v:paragraph v:horizAlign="1"/><v:tabList/>0</text>		</g>
		<g id="shape2563-22" v:mID="2563" v:groupContext="shape" transform="translate(237.406,-174.051)">
			<title>框.2563</title>
			<desc>0</desc>
			<v:userDefs>
				<v:ud v:nameU="visVersion" v:val="VT0(15):26"/>
			</v:userDefs>
			<v:textBlock v:margins="rect(4,4,4,4)" v:tabSpace="42.5197"/>
			<v:textRect cx="23.202" cy="353.545" width="46.41" height="49.6185"/>
			<rect x="0" y="328.736" width="46.4039" height="49.6185" class="st1"/>
			<text x="18.22" y="358.95" class="st2" v:langID="2052"><v:paragraph v:horizAlign="1"/><v:tabList/>0</text>		</g>
		<g id="shape2565-25" v:mID="2565" v:groupContext="shape" transform="translate(98.2156,-223.67)">
			<title>框.2565</title>
			<desc>1</desc>
			<v:userDefs>
				<v:ud v:nameU="visVersion" v:val="VT0(15):26"/>
			</v:userDefs>
			<v:textBlock v:margins="rect(4,4,4,4)" v:tabSpace="42.5197"/>
			<v:textRect cx="23.202" cy="353.545" width="46.41" height="49.6185"/>
			<rect x="0" y="328.736" width="46.4039" height="49.6185" class="st1"/>
			<text x="18.22" y="358.95" class="st2" v:langID="2052"><v:paragraph v:horizAlign="1"/><v:tabList/>1</text>		</g>
		<g id="shape2566-28" v:mID="2566" v:groupContext="shape" transform="translate(144.758,-223.67)">
			<title>框.2566</title>
			<desc>0</desc>
			<v:userDefs>
				<v:ud v:nameU="visVersion" v:val="VT0(15):26"/>
			</v:userDefs>
			<v:textBlock v:margins="rect(4,4,4,4)" v:tabSpace="42.5197"/>
			<v:textRect cx="23.202" cy="353.545" width="46.41" height="49.6185"/>
			<rect x="0" y="328.736" width="46.4039" height="49.6185" class="st1"/>
			<text x="18.22" y="358.95" class="st2" v:langID="2052"><v:paragraph v:horizAlign="1"/><v:tabList/>0</text>		</g>
		<g id="shape2567-31" v:mID="2567" v:groupContext="shape" transform="translate(191.194,-223.67)">
			<title>框.2567</title>
			<desc>0</desc>
			<v:userDefs>
				<v:ud v:nameU="visVersion" v:val="VT0(15):26"/>
			</v:userDefs>
			<v:textBlock v:margins="rect(4,4,4,4)" v:tabSpace="42.5197"/>
			<v:textRect cx="23.202" cy="353.545" width="46.41" height="49.6185"/>
			<rect x="0" y="328.736" width="46.4039" height="49.6185" class="st1"/>
			<text x="18.22" y="358.95" class="st2" v:langID="2052"><v:paragraph v:horizAlign="1"/><v:tabList/>0</text>		</g>
		<g id="shape2568-34" v:mID="2568" v:groupContext="shape" transform="translate(237.513,-223.67)">
			<title>框.2568</title>
			<desc>1</desc>
			<v:userDefs>
				<v:ud v:nameU="visVersion" v:val="VT0(15):26"/>
			</v:userDefs>
			<v:textBlock v:margins="rect(4,4,4,4)" v:tabSpace="42.5197"/>
			<v:textRect cx="23.202" cy="353.545" width="46.41" height="49.6185"/>
			<rect x="0" y="328.736" width="46.4039" height="49.6185" class="st1"/>
			<text x="18.22" y="358.95" class="st2" v:langID="2052"><v:paragraph v:horizAlign="1"/><v:tabList/>1</text>		</g>
		<g id="shape2569-37" v:mID="2569" v:groupContext="shape" transform="translate(98.4075,-74.7819)">
			<title>框.2569</title>
			<desc>0</desc>
			<v:userDefs>
				<v:ud v:nameU="visVersion" v:val="VT0(15):26"/>
			</v:userDefs>
			<v:textBlock v:margins="rect(4,4,4,4)" v:tabSpace="42.5197"/>
			<v:textRect cx="23.202" cy="353.545" width="46.41" height="49.6185"/>
			<rect x="0" y="328.736" width="46.4039" height="49.6185" class="st1"/>
			<text x="18.22" y="358.95" class="st2" v:langID="2052"><v:paragraph v:horizAlign="1"/><v:tabList/>0</text>		</g>
		<g id="shape2570-40" v:mID="2570" v:groupContext="shape" transform="translate(144.95,-74.7819)">
			<title>框.2570</title>
			<desc>0</desc>
			<v:userDefs>
				<v:ud v:nameU="visVersion" v:val="VT0(15):26"/>
			</v:userDefs>
			<v:textBlock v:margins="rect(4,4,4,4)" v:tabSpace="42.5197"/>
			<v:textRect cx="23.202" cy="353.545" width="46.41" height="49.6185"/>
			<rect x="0" y="328.736" width="46.4039" height="49.6185" class="st1"/>
			<text x="18.22" y="358.95" class="st2" v:langID="2052"><v:paragraph v:horizAlign="1"/><v:tabList/>0</text>		</g>
		<g id="shape2571-43" v:mID="2571" v:groupContext="shape" transform="translate(191.194,-74.7819)">
			<title>框.2571</title>
			<desc>0</desc>
			<v:userDefs>
				<v:ud v:nameU="visVersion" v:val="VT0(15):26"/>
			</v:userDefs>
			<v:textBlock v:margins="rect(4,4,4,4)" v:tabSpace="42.5197"/>
			<v:textRect cx="23.202" cy="353.545" width="46.41" height="49.6185"/>
			<rect x="0" y="328.736" width="46.4039" height="49.6185" class="st1"/>
			<text x="18.22" y="358.95" class="st2" v:langID="2052"><v:paragraph v:horizAlign="1"/><v:tabList/>0</text>		</g>
		<g id="shape2572-46" v:mID="2572" v:groupContext="shape" transform="translate(237.598,-74.7819)">
			<title>框.2572</title>
			<desc>1</desc>
			<v:userDefs>
				<v:ud v:nameU="visVersion" v:val="VT0(15):26"/>
			</v:userDefs>
			<v:textBlock v:margins="rect(4,4,4,4)" v:tabSpace="42.5197"/>
			<v:textRect cx="23.202" cy="353.545" width="46.41" height="49.6185"/>
			<rect x="0" y="328.736" width="46.4039" height="49.6185" class="st1"/>
			<text x="18.22" y="358.95" class="st2" v:langID="2052"><v:paragraph v:horizAlign="1"/><v:tabList/>1</text>		</g>
		<g id="shape2573-49" v:mID="2573" v:groupContext="shape" transform="translate(98.4075,-124.4)">
			<title>框.2573</title>
			<desc>0</desc>
			<v:userDefs>
				<v:ud v:nameU="visVersion" v:val="VT0(15):26"/>
			</v:userDefs>
			<v:textBlock v:margins="rect(4,4,4,4)" v:tabSpace="42.5197"/>
			<v:textRect cx="23.202" cy="353.545" width="46.41" height="49.6185"/>
			<rect x="0" y="328.736" width="46.4039" height="49.6185" class="st1"/>
			<text x="18.22" y="358.95" class="st2" v:langID="2052"><v:paragraph v:horizAlign="1"/><v:tabList/>0</text>		</g>
		<g id="shape2574-52" v:mID="2574" v:groupContext="shape" transform="translate(144.95,-124.4)">
			<title>框.2574</title>
			<desc>1</desc>
			<v:userDefs>
				<v:ud v:nameU="visVersion" v:val="VT0(15):26"/>
			</v:userDefs>
			<v:textBlock v:margins="rect(4,4,4,4)" v:tabSpace="42.5197"/>
			<v:textRect cx="23.202" cy="353.545" width="46.41" height="49.6185"/>
			<rect x="0" y="328.736" width="46.4039" height="49.6185" class="st1"/>
			<text x="18.22" y="358.95" class="st2" v:langID="2052"><v:paragraph v:horizAlign="1"/><v:tabList/>1</text>		</g>
		<g id="shape2575-55" v:mID="2575" v:groupContext="shape" transform="translate(191.386,-124.4)">
			<title>框.2575</title>
			<desc>1</desc>
			<v:userDefs>
				<v:ud v:nameU="visVersion" v:val="VT0(15):26"/>
			</v:userDefs>
			<v:textBlock v:margins="rect(4,4,4,4)" v:tabSpace="42.5197"/>
			<v:textRect cx="23.202" cy="353.545" width="46.41" height="49.6185"/>
			<rect x="0" y="328.736" width="46.4039" height="49.6185" class="st1"/>
			<text x="18.22" y="358.95" class="st2" v:langID="2052"><v:paragraph v:horizAlign="1"/><v:tabList/>1</text>		</g>
		<g id="shape2576-58" v:mID="2576" v:groupContext="shape" transform="translate(237.705,-124.4)">
			<title>框.2576</title>
			<desc>0</desc>
			<v:userDefs>
				<v:ud v:nameU="visVersion" v:val="VT0(15):26"/>
			</v:userDefs>
			<v:textBlock v:margins="rect(4,4,4,4)" v:tabSpace="42.5197"/>
			<v:textRect cx="23.202" cy="353.545" width="46.41" height="49.6185"/>
			<rect x="0" y="328.736" width="46.4039" height="49.6185" class="st1"/>
			<text x="18.22" y="358.95" class="st2" v:langID="2052"><v:paragraph v:horizAlign="1"/><v:tabList/>0</text>		</g>
		<g id="shape2577-61" v:mID="2577" v:groupContext="shape" transform="translate(40.8931,-284.824)">
			<title>工作表.2577</title>
			<desc>sub 1</desc>
			<v:textBlock v:margins="rect(4,4,4,4)" v:tabSpace="42.5197"/>
			<v:textRect cx="28.6612" cy="364.983" width="57.33" height="26.742"/>
			<rect x="0" y="351.612" width="57.3225" height="26.742" class="st3"/>
			<text x="7.93" y="370.38" class="st2" v:langID="2052"><v:paragraph v:horizAlign="1"/><v:tabList/>sub 1</text>		</g>
		<g id="shape2578-64" v:mID="2578" v:groupContext="shape" transform="translate(0.375,-185.393)">
			<title>工作表.2578</title>
			<desc>m</desc>
			<v:textBlock v:margins="rect(4,4,4,4)" v:tabSpace="42.5197"/>
			<v:textRect cx="20.2591" cy="364.983" width="40.52" height="26.742"/>
			<rect x="0" y="351.612" width="40.5181" height="26.742" class="st3"/>
			<text x="12.77" y="370.38" class="st2" v:langID="2052"><v:paragraph v:horizAlign="1"/><v:tabList/>m</text>		</g>
		<g id="shape2579-67" v:mID="2579" v:groupContext="shape" transform="translate(243.484,-351.237)">
			<title>工作表.2579</title>
			<desc>n</desc>
			<v:textBlock v:margins="rect(4,4,4,4)" v:tabSpace="42.5197"/>
			<v:textRect cx="20.2591" cy="364.983" width="40.52" height="26.742"/>
			<rect x="0" y="351.612" width="40.5181" height="26.742" class="st3"/>
			<text x="15.24" y="370.38" class="st2" v:langID="2052"><v:paragraph v:horizAlign="1"/><v:tabList/>n</text>		</g>
		<g id="shape2580-70" v:mID="2580" v:groupContext="shape" transform="translate(40.7545,-235.108)">
			<title>工作表.2580</title>
			<desc>sub 2</desc>
			<v:textBlock v:margins="rect(4,4,4,4)" v:tabSpace="42.5197"/>
			<v:textRect cx="28.6612" cy="364.983" width="57.33" height="26.742"/>
			<rect x="0" y="351.612" width="57.3225" height="26.742" class="st3"/>
			<text x="7.93" y="370.38" class="st2" v:langID="2052"><v:paragraph v:horizAlign="1"/><v:tabList/>sub 2</text>		</g>
		<g id="shape2581-73" v:mID="2581" v:groupContext="shape" transform="translate(40.7545,-185.134)">
			<title>工作表.2581</title>
			<desc>sub 3</desc>
			<v:textBlock v:margins="rect(4,4,4,4)" v:tabSpace="42.5197"/>
			<v:textRect cx="28.6612" cy="364.983" width="57.33" height="26.742"/>
			<rect x="0" y="351.612" width="57.3225" height="26.742" class="st3"/>
			<text x="7.93" y="370.38" class="st2" v:langID="2052"><v:paragraph v:horizAlign="1"/><v:tabList/>sub 3</text>		</g>
		<g id="shape2582-76" v:mID="2582" v:groupContext="shape" transform="translate(40.9464,-135.839)">
			<title>工作表.2582</title>
			<desc>sub 4</desc>
			<v:textBlock v:margins="rect(4,4,4,4)" v:tabSpace="42.5197"/>
			<v:textRect cx="28.6612" cy="364.983" width="57.33" height="26.742"/>
			<rect x="0" y="351.612" width="57.3225" height="26.742" class="st3"/>
			<text x="7.93" y="370.38" class="st2" v:langID="2052"><v:paragraph v:horizAlign="1"/><v:tabList/>sub 4</text>		</g>
		<g id="shape2583-79" v:mID="2583" v:groupContext="shape" transform="translate(40.9464,-86.2202)">
			<title>工作表.2583</title>
			<desc>sub 5</desc>
			<v:textBlock v:margins="rect(4,4,4,4)" v:tabSpace="42.5197"/>
			<v:textRect cx="28.6612" cy="364.983" width="57.33" height="26.742"/>
			<rect x="0" y="351.612" width="57.3225" height="26.742" class="st3"/>
			<text x="7.93" y="370.38" class="st2" v:langID="2052"><v:paragraph v:horizAlign="1"/><v:tabList/>sub 5</text>		</g>
		<g id="shape2584-82" v:mID="2584" v:groupContext="shape" transform="translate(284.098,-273.385)">
			<title>框.2584</title>
			<desc>1</desc>
			<v:userDefs>
				<v:ud v:nameU="visVersion" v:val="VT0(15):26"/>
			</v:userDefs>
			<v:textBlock v:margins="rect(4,4,4,4)" v:tabSpace="42.5197"/>
			<v:textRect cx="23.202" cy="353.545" width="46.41" height="49.6185"/>
			<rect x="0" y="328.736" width="46.4039" height="49.6185" class="st1"/>
			<text x="18.22" y="358.95" class="st2" v:langID="2052"><v:paragraph v:horizAlign="1"/><v:tabList/>1</text>		</g>
		<g id="shape2585-85" v:mID="2585" v:groupContext="shape" transform="translate(330.598,-273.385)">
			<title>框.2585</title>
			<desc>1</desc>
			<v:userDefs>
				<v:ud v:nameU="visVersion" v:val="VT0(15):26"/>
			</v:userDefs>
			<v:textBlock v:margins="rect(4,4,4,4)" v:tabSpace="42.5197"/>
			<v:textRect cx="23.202" cy="353.545" width="46.41" height="49.6185"/>
			<rect x="0" y="328.736" width="46.4039" height="49.6185" class="st1"/>
			<text x="18.22" y="358.95" class="st2" v:langID="2052"><v:paragraph v:horizAlign="1"/><v:tabList/>1</text>		</g>
		<g id="shape2586-88" v:mID="2586" v:groupContext="shape" transform="translate(377.098,-273.385)">
			<title>框.2586</title>
			<desc>0</desc>
			<v:userDefs>
				<v:ud v:nameU="visVersion" v:val="VT0(15):26"/>
			</v:userDefs>
			<v:textBlock v:margins="rect(4,4,4,4)" v:tabSpace="42.5197"/>
			<v:textRect cx="23.202" cy="353.545" width="46.41" height="49.6185"/>
			<rect x="0" y="328.736" width="46.4039" height="49.6185" class="st1"/>
			<text x="18.22" y="358.95" class="st2" v:langID="2052"><v:paragraph v:horizAlign="1"/><v:tabList/>0</text>		</g>
		<g id="shape2587-91" v:mID="2587" v:groupContext="shape" transform="translate(284.098,-223.67)">
			<title>框.2587</title>
			<desc>0</desc>
			<v:userDefs>
				<v:ud v:nameU="visVersion" v:val="VT0(15):26"/>
			</v:userDefs>
			<v:textBlock v:margins="rect(4,4,4,4)" v:tabSpace="42.5197"/>
			<v:textRect cx="23.202" cy="353.545" width="46.41" height="49.6185"/>
			<rect x="0" y="328.736" width="46.4039" height="49.6185" class="st1"/>
			<text x="18.22" y="358.95" class="st2" v:langID="2052"><v:paragraph v:horizAlign="1"/><v:tabList/>0</text>		</g>
		<g id="shape2588-94" v:mID="2588" v:groupContext="shape" transform="translate(330.598,-223.67)">
			<title>框.2588</title>
			<desc>0</desc>
			<v:userDefs>
				<v:ud v:nameU="visVersion" v:val="VT0(15):26"/>
			</v:userDefs>
			<v:textBlock v:margins="rect(4,4,4,4)" v:tabSpace="42.5197"/>
			<v:textRect cx="23.202" cy="353.545" width="46.41" height="49.6185"/>
			<rect x="0" y="328.736" width="46.4039" height="49.6185" class="st1"/>
			<text x="18.22" y="358.95" class="st2" v:langID="2052"><v:paragraph v:horizAlign="1"/><v:tabList/>0</text>		</g>
		<g id="shape2589-97" v:mID="2589" v:groupContext="shape" transform="translate(377.098,-223.67)">
			<title>框.2589</title>
			<desc>1</desc>
			<v:userDefs>
				<v:ud v:nameU="visVersion" v:val="VT0(15):26"/>
			</v:userDefs>
			<v:textBlock v:margins="rect(4,4,4,4)" v:tabSpace="42.5197"/>
			<v:textRect cx="23.202" cy="353.545" width="46.41" height="49.6185"/>
			<rect x="0" y="328.736" width="46.4039" height="49.6185" class="st1"/>
			<text x="18.22" y="358.95" class="st2" v:langID="2052"><v:paragraph v:horizAlign="1"/><v:tabList/>1</text>		</g>
		<g id="shape2590-100" v:mID="2590" v:groupContext="shape" transform="translate(284.098,-174.019)">
			<title>框.2590</title>
			<desc>0</desc>
			<v:userDefs>
				<v:ud v:nameU="visVersion" v:val="VT0(15):26"/>
			</v:userDefs>
			<v:textBlock v:margins="rect(4,4,4,4)" v:tabSpace="42.5197"/>
			<v:textRect cx="23.202" cy="353.545" width="46.41" height="49.6185"/>
			<rect x="0" y="328.736" width="46.4039" height="49.6185" class="st1"/>
			<text x="18.22" y="358.95" class="st2" v:langID="2052"><v:paragraph v:horizAlign="1"/><v:tabList/>0</text>		</g>
		<g id="shape2591-103" v:mID="2591" v:groupContext="shape" transform="translate(330.598,-174.019)">
			<title>框.2591</title>
			<desc>1</desc>
			<v:userDefs>
				<v:ud v:nameU="visVersion" v:val="VT0(15):26"/>
			</v:userDefs>
			<v:textBlock v:margins="rect(4,4,4,4)" v:tabSpace="42.5197"/>
			<v:textRect cx="23.202" cy="353.545" width="46.41" height="49.6185"/>
			<rect x="0" y="328.736" width="46.4039" height="49.6185" class="st1"/>
			<text x="18.22" y="358.95" class="st2" v:langID="2052"><v:paragraph v:horizAlign="1"/><v:tabList/>1</text>		</g>
		<g id="shape2592-106" v:mID="2592" v:groupContext="shape" transform="translate(377.098,-174.019)">
			<title>框.2592</title>
			<desc>1</desc>
			<v:userDefs>
				<v:ud v:nameU="visVersion" v:val="VT0(15):26"/>
			</v:userDefs>
			<v:textBlock v:margins="rect(4,4,4,4)" v:tabSpace="42.5197"/>
			<v:textRect cx="23.202" cy="353.545" width="46.41" height="49.6185"/>
			<rect x="0" y="328.736" width="46.4039" height="49.6185" class="st1"/>
			<text x="18.22" y="358.95" class="st2" v:langID="2052"><v:paragraph v:horizAlign="1"/><v:tabList/>1</text>		</g>
		<g id="shape2593-109" v:mID="2593" v:groupContext="shape" transform="translate(284.098,-124.4)">
			<title>框.2593</title>
			<desc>0</desc>
			<v:userDefs>
				<v:ud v:nameU="visVersion" v:val="VT0(15):26"/>
			</v:userDefs>
			<v:textBlock v:margins="rect(4,4,4,4)" v:tabSpace="42.5197"/>
			<v:textRect cx="23.202" cy="353.545" width="46.41" height="49.6185"/>
			<rect x="0" y="328.736" width="46.4039" height="49.6185" class="st1"/>
			<text x="18.22" y="358.95" class="st2" v:langID="2052"><v:paragraph v:horizAlign="1"/><v:tabList/>0</text>		</g>
		<g id="shape2594-112" v:mID="2594" v:groupContext="shape" transform="translate(330.598,-124.4)">
			<title>框.2594</title>
			<desc>1</desc>
			<v:userDefs>
				<v:ud v:nameU="visVersion" v:val="VT0(15):26"/>
			</v:userDefs>
			<v:textBlock v:margins="rect(4,4,4,4)" v:tabSpace="42.5197"/>
			<v:textRect cx="23.202" cy="353.545" width="46.41" height="49.6185"/>
			<rect x="0" y="328.736" width="46.4039" height="49.6185" class="st1"/>
			<text x="18.22" y="358.95" class="st2" v:langID="2052"><v:paragraph v:horizAlign="1"/><v:tabList/>1</text>		</g>
		<g id="shape2595-115" v:mID="2595" v:groupContext="shape" transform="translate(377.098,-124.4)">
			<title>框.2595</title>
			<desc>0</desc>
			<v:userDefs>
				<v:ud v:nameU="visVersion" v:val="VT0(15):26"/>
			</v:userDefs>
			<v:textBlock v:margins="rect(4,4,4,4)" v:tabSpace="42.5197"/>
			<v:textRect cx="23.202" cy="353.545" width="46.41" height="49.6185"/>
			<rect x="0" y="328.736" width="46.4039" height="49.6185" class="st1"/>
			<text x="18.22" y="358.95" class="st2" v:langID="2052"><v:paragraph v:horizAlign="1"/><v:tabList/>0</text>		</g>
		<g id="shape2596-118" v:mID="2596" v:groupContext="shape" transform="translate(284.098,-74.7819)">
			<title>框.2596</title>
			<desc>1</desc>
			<v:userDefs>
				<v:ud v:nameU="visVersion" v:val="VT0(15):26"/>
			</v:userDefs>
			<v:textBlock v:margins="rect(4,4,4,4)" v:tabSpace="42.5197"/>
			<v:textRect cx="23.202" cy="353.545" width="46.41" height="49.6185"/>
			<rect x="0" y="328.736" width="46.4039" height="49.6185" class="st1"/>
			<text x="18.22" y="358.95" class="st2" v:langID="2052"><v:paragraph v:horizAlign="1"/><v:tabList/>1</text>		</g>
		<g id="shape2597-121" v:mID="2597" v:groupContext="shape" transform="translate(330.79,-74.7819)">
			<title>框.2597</title>
			<desc>0</desc>
			<v:userDefs>
				<v:ud v:nameU="visVersion" v:val="VT0(15):26"/>
			</v:userDefs>
			<v:textBlock v:margins="rect(4,4,4,4)" v:tabSpace="42.5197"/>
			<v:textRect cx="23.202" cy="353.545" width="46.41" height="49.6185"/>
			<rect x="0" y="328.736" width="46.4039" height="49.6185" class="st1"/>
			<text x="18.22" y="358.95" class="st2" v:langID="2052"><v:paragraph v:horizAlign="1"/><v:tabList/>0</text>		</g>
		<g id="shape2598-124" v:mID="2598" v:groupContext="shape" transform="translate(377.098,-74.7819)">
			<title>框.2598</title>
			<desc>1</desc>
			<v:userDefs>
				<v:ud v:nameU="visVersion" v:val="VT0(15):26"/>
			</v:userDefs>
			<v:textBlock v:margins="rect(4,4,4,4)" v:tabSpace="42.5197"/>
			<v:textRect cx="23.202" cy="353.545" width="46.41" height="49.6185"/>
			<rect x="0" y="328.736" width="46.4039" height="49.6185" class="st1"/>
			<text x="18.22" y="358.95" class="st2" v:langID="2052"><v:paragraph v:horizAlign="1"/><v:tabList/>1</text>		</g>
		<g id="shape2599-127" v:mID="2599" v:groupContext="shape" transform="translate(98.3542,-25.131)">
			<title>框.2599</title>
			<desc>0</desc>
			<v:userDefs>
				<v:ud v:nameU="visVersion" v:val="VT0(15):26"/>
			</v:userDefs>
			<v:textBlock v:margins="rect(4,4,4,4)" v:tabSpace="42.5197"/>
			<v:textRect cx="23.202" cy="353.545" width="46.41" height="49.6185"/>
			<rect x="0" y="328.736" width="46.4039" height="49.6185" class="st1"/>
			<text x="18.22" y="358.95" class="st2" v:langID="2052"><v:paragraph v:horizAlign="1"/><v:tabList/>0</text>		</g>
		<g id="shape2600-130" v:mID="2600" v:groupContext="shape" transform="translate(144.897,-25.131)">
			<title>框.2600</title>
			<desc>0</desc>
			<v:userDefs>
				<v:ud v:nameU="visVersion" v:val="VT0(15):26"/>
			</v:userDefs>
			<v:textBlock v:margins="rect(4,4,4,4)" v:tabSpace="42.5197"/>
			<v:textRect cx="23.202" cy="353.545" width="46.41" height="49.6185"/>
			<rect x="0" y="328.736" width="46.4039" height="49.6185" class="st1"/>
			<text x="18.22" y="358.95" class="st2" v:langID="2052"><v:paragraph v:horizAlign="1"/><v:tabList/>0</text>		</g>
		<g id="shape2601-133" v:mID="2601" v:groupContext="shape" transform="translate(191.141,-25.131)">
			<title>框.2601</title>
			<desc>0</desc>
			<v:userDefs>
				<v:ud v:nameU="visVersion" v:val="VT0(15):26"/>
			</v:userDefs>
			<v:textBlock v:margins="rect(4,4,4,4)" v:tabSpace="42.5197"/>
			<v:textRect cx="23.202" cy="353.545" width="46.41" height="49.6185"/>
			<rect x="0" y="328.736" width="46.4039" height="49.6185" class="st1"/>
			<text x="18.22" y="358.95" class="st2" v:langID="2052"><v:paragraph v:horizAlign="1"/><v:tabList/>0</text>		</g>
		<g id="shape2602-136" v:mID="2602" v:groupContext="shape" transform="translate(237.545,-25.131)">
			<title>框.2602</title>
			<desc>0</desc>
			<v:userDefs>
				<v:ud v:nameU="visVersion" v:val="VT0(15):26"/>
			</v:userDefs>
			<v:textBlock v:margins="rect(4,4,4,4)" v:tabSpace="42.5197"/>
			<v:textRect cx="23.202" cy="353.545" width="46.41" height="49.6185"/>
			<rect x="0" y="328.736" width="46.4039" height="49.6185" class="st1"/>
			<text x="18.22" y="358.95" class="st2" v:langID="2052"><v:paragraph v:horizAlign="1"/><v:tabList/>0</text>		</g>
		<g id="shape2603-139" v:mID="2603" v:groupContext="shape" transform="translate(40.8931,-36.5693)">
			<title>工作表.2603</title>
			<desc>sub 6</desc>
			<v:textBlock v:margins="rect(4,4,4,4)" v:tabSpace="42.5197"/>
			<v:textRect cx="28.6612" cy="364.983" width="57.33" height="26.742"/>
			<rect x="0" y="351.612" width="57.3225" height="26.742" class="st3"/>
			<text x="7.93" y="370.38" class="st2" v:langID="2052"><v:paragraph v:horizAlign="1"/><v:tabList/>sub 6</text>		</g>
		<g id="shape2604-142" v:mID="2604" v:groupContext="shape" transform="translate(284.044,-25.131)">
			<title>框.2604</title>
			<desc>1</desc>
			<v:userDefs>
				<v:ud v:nameU="visVersion" v:val="VT0(15):26"/>
			</v:userDefs>
			<v:textBlock v:margins="rect(4,4,4,4)" v:tabSpace="42.5197"/>
			<v:textRect cx="23.202" cy="353.545" width="46.41" height="49.6185"/>
			<rect x="0" y="328.736" width="46.4039" height="49.6185" class="st1"/>
			<text x="18.22" y="358.95" class="st2" v:langID="2052"><v:paragraph v:horizAlign="1"/><v:tabList/>1</text>		</g>
		<g id="shape2605-145" v:mID="2605" v:groupContext="shape" transform="translate(330.736,-25.131)">
			<title>框.2605</title>
			<desc>0</desc>
			<v:userDefs>
				<v:ud v:nameU="visVersion" v:val="VT0(15):26"/>
			</v:userDefs>
			<v:textBlock v:margins="rect(4,4,4,4)" v:tabSpace="42.5197"/>
			<v:textRect cx="23.202" cy="353.545" width="46.41" height="49.6185"/>
			<rect x="0" y="328.736" width="46.4039" height="49.6185" class="st1"/>
			<text x="18.22" y="358.95" class="st2" v:langID="2052"><v:paragraph v:horizAlign="1"/><v:tabList/>0</text>		</g>
		<g id="shape2606-148" v:mID="2606" v:groupContext="shape" transform="translate(377.044,-25.131)">
			<title>框.2606</title>
			<desc>0</desc>
			<v:userDefs>
				<v:ud v:nameU="visVersion" v:val="VT0(15):26"/>
			</v:userDefs>
			<v:textBlock v:margins="rect(4,4,4,4)" v:tabSpace="42.5197"/>
			<v:textRect cx="23.202" cy="353.545" width="46.41" height="49.6185"/>
			<rect x="0" y="328.736" width="46.4039" height="49.6185" class="st1"/>
			<text x="18.22" y="358.95" class="st2" v:langID="2052"><v:paragraph v:horizAlign="1"/><v:tabList/>0</text>		</g>
		<g id="shape2607-151" v:mID="2607" v:groupContext="shape" v:layerMember="0" transform="translate(112.774,-345.224)">
			<title>动态连接线.2607</title>
			<path d="M6.93 378.35 L7.24 698.35" class="st4"/>
		</g>
		<g id="shape2608-157" v:mID="2608" v:groupContext="shape" v:layerMember="0" transform="translate(210.018,-339.146)">
			<title>动态连接线.2608</title>
			<path d="M6.93 378.35 L7.24 698.35" class="st4"/>
		</g>
		<g id="shape2609-162" v:mID="2609" v:groupContext="shape" v:layerMember="0" transform="translate(316.37,-345.224)">
			<title>动态连接线.2609</title>
			<path d="M-6.23 378.35 L-7.89 704.43" class="st4"/>
		</g>
		<g id="shape2610-167" v:mID="2610" v:groupContext="shape" v:layerMember="0" transform="translate(347.779,-345.224)">
			<title>动态连接线.2610</title>
			<path d="M6.93 378.35 L7.24 698.35" class="st4"/>
		</g>
		<g id="shape2611-172" v:mID="2611" v:groupContext="shape" v:layerMember="0" transform="translate(40.8931,-291.838)">
			<title>动态连接线.2611</title>
			<path d="M0 371.56 L76.49 371.45 A2.3622 2.3622 0 1 1 81.22 371.44 L173.73 371.3 A2.3622 2.3622 0 1 1 178.45 371.3 L266.65
						 371.16 A2.3622 2.3622 0 1 1 271.37 371.16 L311.5 371.1 A2.3622 2.3622 0 1 1 316.22 371.09 L388.24 370.98"
					class="st6"/>
		</g>
		<g id="shape2612-178" v:mID="2612" v:groupContext="shape" v:layerMember="0" transform="translate(40.7545,-241.19)">
			<title>动态连接线.2612</title>
			<path d="M0 371.56 L76.68 371.45 A2.3622 2.3622 0 1 1 81.4 371.44 L173.92 371.3 A2.3622 2.3622 0 0 1 178.64 371.3 L266.53
						 371.16 A2.3622 2.3622 0 0 1 271.25 371.16 L311.68 371.1 A2.3622 2.3622 0 1 1 316.41 371.09 L388.24 370.98"
					class="st6"/>
		</g>
		<g id="shape2613-183" v:mID="2613" v:groupContext="shape" v:layerMember="0" transform="translate(44.7423,-190.542)">
			<title>动态连接线.2613</title>
			<path d="M0 371.56 L72.74 371.45 A2.3622 2.3622 0 1 1 77.46 371.45 L169.98 371.31 A2.3622 2.3622 0 1 1 174.7 371.3 L262.28
						 371.17 A2.3622 2.3622 0 0 1 267 371.16 L307.74 371.1 A2.3622 2.3622 0 1 1 312.47 371.09 L388.24 370.98"
					class="st6"/>
		</g>
		<g id="shape2614-188" v:mID="2614" v:groupContext="shape" v:layerMember="0" transform="translate(40.9464,-139.895)">
			<title>动态连接线.2614</title>
			<path d="M0 371.56 L76.59 371.45 A2.3622 2.3622 0 1 1 81.31 371.44 L173.82 371.3 A2.3622 2.3622 0 1 1 178.55 371.3 L265.82
						 371.16 A2.3622 2.3622 0 0 1 270.54 371.16 L311.59 371.1 A2.3622 2.3622 0 0 1 316.31 371.09 L388.24 370.98"
					class="st6"/>
		</g>
		<g id="shape2615-193" v:mID="2615" v:groupContext="shape" v:layerMember="0" transform="translate(40.9464,-91.2728)">
			<title>动态连接线.2615</title>
			<path d="M0 371.56 L76.63 371.45 A2.3622 2.3622 0 1 1 81.36 371.44 L173.87 371.3 A2.3622 2.3622 0 1 1 178.59 371.3 L265.57
						 371.16 A2.3622 2.3622 0 1 1 270.3 371.16 L311.64 371.1 A2.3622 2.3622 0 1 1 316.36 371.09 L388.24 370.98"
					class="st6"/>
		</g>
		<g id="shape2616-198" v:mID="2616" v:groupContext="shape" v:layerMember="0" transform="translate(40.8931,-42.6511)">
			<title>动态连接线.2616</title>
			<path d="M0 371.56 L76.73 371.45 A2.3622 2.3622 0 1 1 81.46 371.44 L173.97 371.3 A2.3622 2.3622 0 0 1 178.69 371.29 L265.38
						 371.16 A2.3622 2.3622 0 1 1 270.1 371.16 L311.74 371.1 A2.3622 2.3622 0 1 1 316.46 371.09 L388.24 370.98"
					class="st6"/>
		</g>
		<g id="shape3346-203" v:mID="3346" v:groupContext="shape" transform="translate(98.9616,-323.207)">
			<title>工作表.3346</title>
			<desc>1</desc>
			<v:textBlock v:margins="rect(4,4,4,4)" v:tabSpace="42.5197"/>
			<v:textRect cx="20.2591" cy="364.983" width="40.52" height="26.742"/>
			<rect x="0" y="351.612" width="40.5181" height="26.742" class="st3"/>
			<text x="15.28" y="370.38" class="st2" v:langID="2052"><v:paragraph v:horizAlign="1"/><v:tabList/>1</text>		</g>
		<g id="shape3347-206" v:mID="3347" v:groupContext="shape" transform="translate(145.366,-322.736)">
			<title>工作表.3347</title>
			<desc>2</desc>
			<v:textBlock v:margins="rect(4,4,4,4)" v:tabSpace="42.5197"/>
			<v:textRect cx="20.2591" cy="364.983" width="40.52" height="26.742"/>
			<rect x="0" y="351.612" width="40.5181" height="26.742" class="st3"/>
			<text x="15.28" y="370.38" class="st2" v:langID="2052"><v:paragraph v:horizAlign="1"/><v:tabList/>2</text>		</g>
		<g id="shape3348-209" v:mID="3348" v:groupContext="shape" transform="translate(191.924,-322.736)">
			<title>工作表.3348</title>
			<desc>3</desc>
			<v:textBlock v:margins="rect(4,4,4,4)" v:tabSpace="42.5197"/>
			<v:textRect cx="20.2591" cy="364.983" width="40.52" height="26.742"/>
			<rect x="0" y="351.612" width="40.5181" height="26.742" class="st3"/>
			<text x="15.28" y="370.38" class="st2" v:langID="2052"><v:paragraph v:horizAlign="1"/><v:tabList/>3</text>		</g>
		<g id="shape3349-212" v:mID="3349" v:groupContext="shape" transform="translate(238.344,-322.736)">
			<title>工作表.3349</title>
			<desc>4</desc>
			<v:textBlock v:margins="rect(4,4,4,4)" v:tabSpace="42.5197"/>
			<v:textRect cx="20.2591" cy="364.983" width="40.52" height="26.742"/>
			<rect x="0" y="351.612" width="40.5181" height="26.742" class="st3"/>
			<text x="15.28" y="370.38" class="st2" v:langID="2052"><v:paragraph v:horizAlign="1"/><v:tabList/>4</text>		</g>
		<g id="shape3350-215" v:mID="3350" v:groupContext="shape" transform="translate(284.844,-322.736)">
			<title>工作表.3350</title>
			<desc>5</desc>
			<v:textBlock v:margins="rect(4,4,4,4)" v:tabSpace="42.5197"/>
			<v:textRect cx="20.2591" cy="364.983" width="40.52" height="26.742"/>
			<rect x="0" y="351.612" width="40.5181" height="26.742" class="st3"/>
			<text x="15.28" y="370.38" class="st2" v:langID="2052"><v:paragraph v:horizAlign="1"/><v:tabList/>5</text>		</g>
		<g id="shape3351-218" v:mID="3351" v:groupContext="shape" transform="translate(331.344,-322.736)">
			<title>工作表.3351</title>
			<desc>6</desc>
			<v:textBlock v:margins="rect(4,4,4,4)" v:tabSpace="42.5197"/>
			<v:textRect cx="20.2591" cy="364.983" width="40.52" height="26.742"/>
			<rect x="0" y="351.612" width="40.5181" height="26.742" class="st3"/>
			<text x="15.28" y="370.38" class="st2" v:langID="2052"><v:paragraph v:horizAlign="1"/><v:tabList/>6</text>		</g>
		<g id="shape3352-221" v:mID="3352" v:groupContext="shape" transform="translate(377.844,-322.736)">
			<title>工作表.3352</title>
			<desc>7</desc>
			<v:textBlock v:margins="rect(4,4,4,4)" v:tabSpace="42.5197"/>
			<v:textRect cx="20.2591" cy="364.983" width="40.52" height="26.742"/>
			<rect x="0" y="351.612" width="40.5181" height="26.742" class="st3"/>
			<text x="15.28" y="370.38" class="st2" v:langID="2052"><v:paragraph v:horizAlign="1"/><v:tabList/>7</text>		</g>
	</g>
</svg>
