<?xml version="1.0" encoding="UTF-8" standalone="no"?>
<!DOCTYPE svg PUBLIC "-//W3C//DTD SVG 1.1//EN" "http://www.w3.org/Graphics/SVG/1.1/DTD/svg11.dtd">
<!-- 由 Microsoft Visio, SVG Export 生成 DancingLinks6.svg 页-1 -->
<svg xmlns="http://www.w3.org/2000/svg" xmlns:xlink="http://www.w3.org/1999/xlink" xmlns:ev="http://www.w3.org/2001/xml-events"
		xmlns:v="http://schemas.microsoft.com/visio/2003/SVGExtensions/" width="6.26305in" height="5.21386in"
		viewBox="0 0 450.94 375.398" xml:space="preserve" color-interpolation-filters="sRGB" class="st8">
	<v:documentProperties v:langID="2052" v:metric="true" v:viewMarkup="false"/>

	<style type="text/css">
	<![CDATA[
		.st1 {fill:#ffffff;stroke:#000000;stroke-linecap:round;stroke-linejoin:round;stroke-width:0.75}
		.st2 {fill:#000000;font-family:Cambria Math;font-size:1.5em}
		.st3 {fill:none;stroke:none;stroke-linecap:round;stroke-linejoin:round;stroke-width:0.75}
		.st4 {marker-end:url(#mrkr4-132);stroke:#000000;stroke-linecap:round;stroke-linejoin:round;stroke-width:0.237638}
		.st5 {fill:#000000;fill-opacity:1;stroke:#000000;stroke-opacity:1;stroke-width:0.086174404659928}
		.st6 {marker-end:url(#mrkr4-182);stroke:#4bacc6;stroke-linecap:round;stroke-linejoin:round;stroke-width:2}
		.st7 {fill:#4bacc6;fill-opacity:1;stroke:#4bacc6;stroke-opacity:1;stroke-width:0.44247787610619}
		.st8 {fill:none;fill-rule:evenodd;font-size:12px;overflow:visible;stroke-linecap:square;stroke-miterlimit:3}
	]]>
	</style>

	<defs id="Markers">
		<g id="lend4">
			<path d="M 2 1 L 0 0 L 2 -1 L 2 1 " style="stroke:none"/>
		</g>
		<marker id="mrkr4-132" class="st5" v:arrowType="4" v:arrowSize="2" v:setback="23.2087" refX="-23.208747514911"
				orient="auto" markerUnits="strokeWidth" overflow="visible">
			<use xlink:href="#lend4" transform="scale(-11.604373757455,-11.604373757455) "/>
		</marker>
		<marker id="mrkr4-182" class="st7" v:arrowType="4" v:arrowSize="2" v:setback="4.52" refX="-4.52" orient="auto"
				markerUnits="strokeWidth" overflow="visible">
			<use xlink:href="#lend4" transform="scale(-2.26,-2.26) "/>
		</marker>
	</defs>
	<g v:mID="0" v:index="1" v:groupContext="foregroundPage">
		<title>页-1</title>
		<v:pageProperties v:drawingScale="0.0393701" v:pageScale="0.0393701" v:drawingUnits="24" v:shadowOffsetX="8.50394"
				v:shadowOffsetY="-8.50394"/>
		<v:layer v:name="连接线" v:index="0"/>
		<g id="shape2283-1" v:mID="2283" v:groupContext="shape" transform="translate(98.2156,-270.429)">
			<title>框.2283</title>
			<desc>1</desc>
			<v:userDefs>
				<v:ud v:nameU="visVersion" v:val="VT0(15):26"/>
			</v:userDefs>
			<v:textBlock v:margins="rect(4,4,4,4)" v:tabSpace="42.5197"/>
			<v:textRect cx="23.202" cy="350.589" width="46.41" height="49.6185"/>
			<rect x="0" y="325.78" width="46.4039" height="49.6185" class="st1"/>
			<text x="18.22" y="355.99" class="st2" v:langID="2052"><v:paragraph v:horizAlign="1"/><v:tabList/>1</text>		</g>
		<g id="shape2284-4" v:mID="2284" v:groupContext="shape" transform="translate(144.619,-270.429)">
			<title>框.2284</title>
			<desc>0</desc>
			<v:userDefs>
				<v:ud v:nameU="visVersion" v:val="VT0(15):26"/>
			</v:userDefs>
			<v:textBlock v:margins="rect(4,4,4,4)" v:tabSpace="42.5197"/>
			<v:textRect cx="23.202" cy="350.589" width="46.41" height="49.6185"/>
			<rect x="0" y="325.78" width="46.4039" height="49.6185" class="st1"/>
			<text x="18.22" y="355.99" class="st2" v:langID="2052"><v:paragraph v:horizAlign="1"/><v:tabList/>0</text>		</g>
		<g id="shape2285-7" v:mID="2285" v:groupContext="shape" transform="translate(191.178,-270.429)">
			<title>框.2285</title>
			<desc>1</desc>
			<v:userDefs>
				<v:ud v:nameU="visVersion" v:val="VT0(15):26"/>
			</v:userDefs>
			<v:textBlock v:margins="rect(4,4,4,4)" v:tabSpace="42.5197"/>
			<v:textRect cx="23.202" cy="350.589" width="46.41" height="49.6185"/>
			<rect x="0" y="325.78" width="46.4039" height="49.6185" class="st1"/>
			<text x="18.22" y="355.99" class="st2" v:langID="2052"><v:paragraph v:horizAlign="1"/><v:tabList/>1</text>		</g>
		<g id="shape2286-10" v:mID="2286" v:groupContext="shape" transform="translate(237.598,-270.429)">
			<title>框.2286</title>
			<desc>0</desc>
			<v:userDefs>
				<v:ud v:nameU="visVersion" v:val="VT0(15):26"/>
			</v:userDefs>
			<v:textBlock v:margins="rect(4,4,4,4)" v:tabSpace="42.5197"/>
			<v:textRect cx="23.202" cy="350.589" width="46.41" height="49.6185"/>
			<rect x="0" y="325.78" width="46.4039" height="49.6185" class="st1"/>
			<text x="18.22" y="355.99" class="st2" v:langID="2052"><v:paragraph v:horizAlign="1"/><v:tabList/>0</text>		</g>
		<g id="shape2287-13" v:mID="2287" v:groupContext="shape" transform="translate(98.2156,-171.095)">
			<title>框.2287</title>
			<desc>0</desc>
			<v:userDefs>
				<v:ud v:nameU="visVersion" v:val="VT0(15):26"/>
			</v:userDefs>
			<v:textBlock v:margins="rect(4,4,4,4)" v:tabSpace="42.5197"/>
			<v:textRect cx="23.202" cy="350.589" width="46.41" height="49.6185"/>
			<rect x="0" y="325.78" width="46.4039" height="49.6185" class="st1"/>
			<text x="18.22" y="355.99" class="st2" v:langID="2052"><v:paragraph v:horizAlign="1"/><v:tabList/>0</text>		</g>
		<g id="shape2288-16" v:mID="2288" v:groupContext="shape" transform="translate(144.758,-171.095)">
			<title>框.2288</title>
			<desc>1</desc>
			<v:userDefs>
				<v:ud v:nameU="visVersion" v:val="VT0(15):26"/>
			</v:userDefs>
			<v:textBlock v:margins="rect(4,4,4,4)" v:tabSpace="42.5197"/>
			<v:textRect cx="23.202" cy="350.589" width="46.41" height="49.6185"/>
			<rect x="0" y="325.78" width="46.4039" height="49.6185" class="st1"/>
			<text x="18.22" y="355.99" class="st2" v:langID="2052"><v:paragraph v:horizAlign="1"/><v:tabList/>1</text>		</g>
		<g id="shape2289-19" v:mID="2289" v:groupContext="shape" transform="translate(191.002,-171.095)">
			<title>框.2289</title>
			<desc>0</desc>
			<v:userDefs>
				<v:ud v:nameU="visVersion" v:val="VT0(15):26"/>
			</v:userDefs>
			<v:textBlock v:margins="rect(4,4,4,4)" v:tabSpace="42.5197"/>
			<v:textRect cx="23.202" cy="350.589" width="46.41" height="49.6185"/>
			<rect x="0" y="325.78" width="46.4039" height="49.6185" class="st1"/>
			<text x="18.22" y="355.99" class="st2" v:langID="2052"><v:paragraph v:horizAlign="1"/><v:tabList/>0</text>		</g>
		<g id="shape2290-22" v:mID="2290" v:groupContext="shape" transform="translate(237.406,-171.095)">
			<title>框.2290</title>
			<desc>0</desc>
			<v:userDefs>
				<v:ud v:nameU="visVersion" v:val="VT0(15):26"/>
			</v:userDefs>
			<v:textBlock v:margins="rect(4,4,4,4)" v:tabSpace="42.5197"/>
			<v:textRect cx="23.202" cy="350.589" width="46.41" height="49.6185"/>
			<rect x="0" y="325.78" width="46.4039" height="49.6185" class="st1"/>
			<text x="18.22" y="355.99" class="st2" v:langID="2052"><v:paragraph v:horizAlign="1"/><v:tabList/>0</text>		</g>
		<g id="shape2292-25" v:mID="2292" v:groupContext="shape" transform="translate(98.2156,-220.714)">
			<title>框.2292</title>
			<desc>1</desc>
			<v:userDefs>
				<v:ud v:nameU="visVersion" v:val="VT0(15):26"/>
			</v:userDefs>
			<v:textBlock v:margins="rect(4,4,4,4)" v:tabSpace="42.5197"/>
			<v:textRect cx="23.202" cy="350.589" width="46.41" height="49.6185"/>
			<rect x="0" y="325.78" width="46.4039" height="49.6185" class="st1"/>
			<text x="18.22" y="355.99" class="st2" v:langID="2052"><v:paragraph v:horizAlign="1"/><v:tabList/>1</text>		</g>
		<g id="shape2293-28" v:mID="2293" v:groupContext="shape" transform="translate(144.758,-220.714)">
			<title>框.2293</title>
			<desc>0</desc>
			<v:userDefs>
				<v:ud v:nameU="visVersion" v:val="VT0(15):26"/>
			</v:userDefs>
			<v:textBlock v:margins="rect(4,4,4,4)" v:tabSpace="42.5197"/>
			<v:textRect cx="23.202" cy="350.589" width="46.41" height="49.6185"/>
			<rect x="0" y="325.78" width="46.4039" height="49.6185" class="st1"/>
			<text x="18.22" y="355.99" class="st2" v:langID="2052"><v:paragraph v:horizAlign="1"/><v:tabList/>0</text>		</g>
		<g id="shape2294-31" v:mID="2294" v:groupContext="shape" transform="translate(191.194,-220.714)">
			<title>框.2294</title>
			<desc>0</desc>
			<v:userDefs>
				<v:ud v:nameU="visVersion" v:val="VT0(15):26"/>
			</v:userDefs>
			<v:textBlock v:margins="rect(4,4,4,4)" v:tabSpace="42.5197"/>
			<v:textRect cx="23.202" cy="350.589" width="46.41" height="49.6185"/>
			<rect x="0" y="325.78" width="46.4039" height="49.6185" class="st1"/>
			<text x="18.22" y="355.99" class="st2" v:langID="2052"><v:paragraph v:horizAlign="1"/><v:tabList/>0</text>		</g>
		<g id="shape2295-34" v:mID="2295" v:groupContext="shape" transform="translate(237.513,-220.714)">
			<title>框.2295</title>
			<desc>1</desc>
			<v:userDefs>
				<v:ud v:nameU="visVersion" v:val="VT0(15):26"/>
			</v:userDefs>
			<v:textBlock v:margins="rect(4,4,4,4)" v:tabSpace="42.5197"/>
			<v:textRect cx="23.202" cy="350.589" width="46.41" height="49.6185"/>
			<rect x="0" y="325.78" width="46.4039" height="49.6185" class="st1"/>
			<text x="18.22" y="355.99" class="st2" v:langID="2052"><v:paragraph v:horizAlign="1"/><v:tabList/>1</text>		</g>
		<g id="shape2296-37" v:mID="2296" v:groupContext="shape" transform="translate(98.4075,-71.8259)">
			<title>框.2296</title>
			<desc>0</desc>
			<v:userDefs>
				<v:ud v:nameU="visVersion" v:val="VT0(15):26"/>
			</v:userDefs>
			<v:textBlock v:margins="rect(4,4,4,4)" v:tabSpace="42.5197"/>
			<v:textRect cx="23.202" cy="350.589" width="46.41" height="49.6185"/>
			<rect x="0" y="325.78" width="46.4039" height="49.6185" class="st1"/>
			<text x="18.22" y="355.99" class="st2" v:langID="2052"><v:paragraph v:horizAlign="1"/><v:tabList/>0</text>		</g>
		<g id="shape2297-40" v:mID="2297" v:groupContext="shape" transform="translate(144.95,-71.8259)">
			<title>框.2297</title>
			<desc>0</desc>
			<v:userDefs>
				<v:ud v:nameU="visVersion" v:val="VT0(15):26"/>
			</v:userDefs>
			<v:textBlock v:margins="rect(4,4,4,4)" v:tabSpace="42.5197"/>
			<v:textRect cx="23.202" cy="350.589" width="46.41" height="49.6185"/>
			<rect x="0" y="325.78" width="46.4039" height="49.6185" class="st1"/>
			<text x="18.22" y="355.99" class="st2" v:langID="2052"><v:paragraph v:horizAlign="1"/><v:tabList/>0</text>		</g>
		<g id="shape2298-43" v:mID="2298" v:groupContext="shape" transform="translate(191.194,-71.8259)">
			<title>框.2298</title>
			<desc>0</desc>
			<v:userDefs>
				<v:ud v:nameU="visVersion" v:val="VT0(15):26"/>
			</v:userDefs>
			<v:textBlock v:margins="rect(4,4,4,4)" v:tabSpace="42.5197"/>
			<v:textRect cx="23.202" cy="350.589" width="46.41" height="49.6185"/>
			<rect x="0" y="325.78" width="46.4039" height="49.6185" class="st1"/>
			<text x="18.22" y="355.99" class="st2" v:langID="2052"><v:paragraph v:horizAlign="1"/><v:tabList/>0</text>		</g>
		<g id="shape2299-46" v:mID="2299" v:groupContext="shape" transform="translate(237.598,-71.8259)">
			<title>框.2299</title>
			<desc>1</desc>
			<v:userDefs>
				<v:ud v:nameU="visVersion" v:val="VT0(15):26"/>
			</v:userDefs>
			<v:textBlock v:margins="rect(4,4,4,4)" v:tabSpace="42.5197"/>
			<v:textRect cx="23.202" cy="350.589" width="46.41" height="49.6185"/>
			<rect x="0" y="325.78" width="46.4039" height="49.6185" class="st1"/>
			<text x="18.22" y="355.99" class="st2" v:langID="2052"><v:paragraph v:horizAlign="1"/><v:tabList/>1</text>		</g>
		<g id="shape2300-49" v:mID="2300" v:groupContext="shape" transform="translate(98.4075,-121.444)">
			<title>框.2300</title>
			<desc>0</desc>
			<v:userDefs>
				<v:ud v:nameU="visVersion" v:val="VT0(15):26"/>
			</v:userDefs>
			<v:textBlock v:margins="rect(4,4,4,4)" v:tabSpace="42.5197"/>
			<v:textRect cx="23.202" cy="350.589" width="46.41" height="49.6185"/>
			<rect x="0" y="325.78" width="46.4039" height="49.6185" class="st1"/>
			<text x="18.22" y="355.99" class="st2" v:langID="2052"><v:paragraph v:horizAlign="1"/><v:tabList/>0</text>		</g>
		<g id="shape2301-52" v:mID="2301" v:groupContext="shape" transform="translate(144.95,-121.444)">
			<title>框.2301</title>
			<desc>1</desc>
			<v:userDefs>
				<v:ud v:nameU="visVersion" v:val="VT0(15):26"/>
			</v:userDefs>
			<v:textBlock v:margins="rect(4,4,4,4)" v:tabSpace="42.5197"/>
			<v:textRect cx="23.202" cy="350.589" width="46.41" height="49.6185"/>
			<rect x="0" y="325.78" width="46.4039" height="49.6185" class="st1"/>
			<text x="18.22" y="355.99" class="st2" v:langID="2052"><v:paragraph v:horizAlign="1"/><v:tabList/>1</text>		</g>
		<g id="shape2302-55" v:mID="2302" v:groupContext="shape" transform="translate(191.386,-121.444)">
			<title>框.2302</title>
			<desc>1</desc>
			<v:userDefs>
				<v:ud v:nameU="visVersion" v:val="VT0(15):26"/>
			</v:userDefs>
			<v:textBlock v:margins="rect(4,4,4,4)" v:tabSpace="42.5197"/>
			<v:textRect cx="23.202" cy="350.589" width="46.41" height="49.6185"/>
			<rect x="0" y="325.78" width="46.4039" height="49.6185" class="st1"/>
			<text x="18.22" y="355.99" class="st2" v:langID="2052"><v:paragraph v:horizAlign="1"/><v:tabList/>1</text>		</g>
		<g id="shape2303-58" v:mID="2303" v:groupContext="shape" transform="translate(237.705,-121.444)">
			<title>框.2303</title>
			<desc>0</desc>
			<v:userDefs>
				<v:ud v:nameU="visVersion" v:val="VT0(15):26"/>
			</v:userDefs>
			<v:textBlock v:margins="rect(4,4,4,4)" v:tabSpace="42.5197"/>
			<v:textRect cx="23.202" cy="350.589" width="46.41" height="49.6185"/>
			<rect x="0" y="325.78" width="46.4039" height="49.6185" class="st1"/>
			<text x="18.22" y="355.99" class="st2" v:langID="2052"><v:paragraph v:horizAlign="1"/><v:tabList/>0</text>		</g>
		<g id="shape2304-61" v:mID="2304" v:groupContext="shape" transform="translate(40.8931,-281.868)">
			<title>工作表.2304</title>
			<desc>sub 1</desc>
			<v:textBlock v:margins="rect(4,4,4,4)" v:tabSpace="42.5197"/>
			<v:textRect cx="28.6612" cy="362.027" width="57.33" height="26.742"/>
			<rect x="0" y="348.656" width="57.3225" height="26.742" class="st3"/>
			<text x="7.93" y="367.43" class="st2" v:langID="2052"><v:paragraph v:horizAlign="1"/><v:tabList/>sub 1</text>		</g>
		<g id="shape2305-64" v:mID="2305" v:groupContext="shape" transform="translate(0.375,-182.437)">
			<title>工作表.2305</title>
			<desc>m</desc>
			<v:textBlock v:margins="rect(4,4,4,4)" v:tabSpace="42.5197"/>
			<v:textRect cx="20.2591" cy="362.027" width="40.52" height="26.742"/>
			<rect x="0" y="348.656" width="40.5181" height="26.742" class="st3"/>
			<text x="12.77" y="367.43" class="st2" v:langID="2052"><v:paragraph v:horizAlign="1"/><v:tabList/>m</text>		</g>
		<g id="shape2306-67" v:mID="2306" v:groupContext="shape" transform="translate(243.484,-348.281)">
			<title>工作表.2306</title>
			<desc>n</desc>
			<v:textBlock v:margins="rect(4,4,4,4)" v:tabSpace="42.5197"/>
			<v:textRect cx="20.2591" cy="362.027" width="40.52" height="26.742"/>
			<rect x="0" y="348.656" width="40.5181" height="26.742" class="st3"/>
			<text x="15.24" y="367.43" class="st2" v:langID="2052"><v:paragraph v:horizAlign="1"/><v:tabList/>n</text>		</g>
		<g id="shape2307-70" v:mID="2307" v:groupContext="shape" transform="translate(40.7545,-232.152)">
			<title>工作表.2307</title>
			<desc>sub 2</desc>
			<v:textBlock v:margins="rect(4,4,4,4)" v:tabSpace="42.5197"/>
			<v:textRect cx="28.6612" cy="362.027" width="57.33" height="26.742"/>
			<rect x="0" y="348.656" width="57.3225" height="26.742" class="st3"/>
			<text x="7.93" y="367.43" class="st2" v:langID="2052"><v:paragraph v:horizAlign="1"/><v:tabList/>sub 2</text>		</g>
		<g id="shape2308-73" v:mID="2308" v:groupContext="shape" transform="translate(40.7545,-182.178)">
			<title>工作表.2308</title>
			<desc>sub 3</desc>
			<v:textBlock v:margins="rect(4,4,4,4)" v:tabSpace="42.5197"/>
			<v:textRect cx="28.6612" cy="362.027" width="57.33" height="26.742"/>
			<rect x="0" y="348.656" width="57.3225" height="26.742" class="st3"/>
			<text x="7.93" y="367.43" class="st2" v:langID="2052"><v:paragraph v:horizAlign="1"/><v:tabList/>sub 3</text>		</g>
		<g id="shape2309-76" v:mID="2309" v:groupContext="shape" transform="translate(40.9464,-132.883)">
			<title>工作表.2309</title>
			<desc>sub 4</desc>
			<v:textBlock v:margins="rect(4,4,4,4)" v:tabSpace="42.5197"/>
			<v:textRect cx="28.6612" cy="362.027" width="57.33" height="26.742"/>
			<rect x="0" y="348.656" width="57.3225" height="26.742" class="st3"/>
			<text x="7.93" y="367.43" class="st2" v:langID="2052"><v:paragraph v:horizAlign="1"/><v:tabList/>sub 4</text>		</g>
		<g id="shape2310-79" v:mID="2310" v:groupContext="shape" transform="translate(40.9464,-83.2642)">
			<title>工作表.2310</title>
			<desc>sub 5</desc>
			<v:textBlock v:margins="rect(4,4,4,4)" v:tabSpace="42.5197"/>
			<v:textRect cx="28.6612" cy="362.027" width="57.33" height="26.742"/>
			<rect x="0" y="348.656" width="57.3225" height="26.742" class="st3"/>
			<text x="7.93" y="367.43" class="st2" v:langID="2052"><v:paragraph v:horizAlign="1"/><v:tabList/>sub 5</text>		</g>
		<g id="shape2311-82" v:mID="2311" v:groupContext="shape" transform="translate(284.098,-270.429)">
			<title>框.2311</title>
			<desc>1</desc>
			<v:userDefs>
				<v:ud v:nameU="visVersion" v:val="VT0(15):26"/>
			</v:userDefs>
			<v:textBlock v:margins="rect(4,4,4,4)" v:tabSpace="42.5197"/>
			<v:textRect cx="23.202" cy="350.589" width="46.41" height="49.6185"/>
			<rect x="0" y="325.78" width="46.4039" height="49.6185" class="st1"/>
			<text x="18.22" y="355.99" class="st2" v:langID="2052"><v:paragraph v:horizAlign="1"/><v:tabList/>1</text>		</g>
		<g id="shape2312-85" v:mID="2312" v:groupContext="shape" transform="translate(330.598,-270.429)">
			<title>框.2312</title>
			<desc>1</desc>
			<v:userDefs>
				<v:ud v:nameU="visVersion" v:val="VT0(15):26"/>
			</v:userDefs>
			<v:textBlock v:margins="rect(4,4,4,4)" v:tabSpace="42.5197"/>
			<v:textRect cx="23.202" cy="350.589" width="46.41" height="49.6185"/>
			<rect x="0" y="325.78" width="46.4039" height="49.6185" class="st1"/>
			<text x="18.22" y="355.99" class="st2" v:langID="2052"><v:paragraph v:horizAlign="1"/><v:tabList/>1</text>		</g>
		<g id="shape2313-88" v:mID="2313" v:groupContext="shape" transform="translate(377.098,-270.429)">
			<title>框.2313</title>
			<desc>0</desc>
			<v:userDefs>
				<v:ud v:nameU="visVersion" v:val="VT0(15):26"/>
			</v:userDefs>
			<v:textBlock v:margins="rect(4,4,4,4)" v:tabSpace="42.5197"/>
			<v:textRect cx="23.202" cy="350.589" width="46.41" height="49.6185"/>
			<rect x="0" y="325.78" width="46.4039" height="49.6185" class="st1"/>
			<text x="18.22" y="355.99" class="st2" v:langID="2052"><v:paragraph v:horizAlign="1"/><v:tabList/>0</text>		</g>
		<g id="shape2314-91" v:mID="2314" v:groupContext="shape" transform="translate(284.098,-220.714)">
			<title>框.2314</title>
			<desc>0</desc>
			<v:userDefs>
				<v:ud v:nameU="visVersion" v:val="VT0(15):26"/>
			</v:userDefs>
			<v:textBlock v:margins="rect(4,4,4,4)" v:tabSpace="42.5197"/>
			<v:textRect cx="23.202" cy="350.589" width="46.41" height="49.6185"/>
			<rect x="0" y="325.78" width="46.4039" height="49.6185" class="st1"/>
			<text x="18.22" y="355.99" class="st2" v:langID="2052"><v:paragraph v:horizAlign="1"/><v:tabList/>0</text>		</g>
		<g id="shape2315-94" v:mID="2315" v:groupContext="shape" transform="translate(330.598,-220.714)">
			<title>框.2315</title>
			<desc>0</desc>
			<v:userDefs>
				<v:ud v:nameU="visVersion" v:val="VT0(15):26"/>
			</v:userDefs>
			<v:textBlock v:margins="rect(4,4,4,4)" v:tabSpace="42.5197"/>
			<v:textRect cx="23.202" cy="350.589" width="46.41" height="49.6185"/>
			<rect x="0" y="325.78" width="46.4039" height="49.6185" class="st1"/>
			<text x="18.22" y="355.99" class="st2" v:langID="2052"><v:paragraph v:horizAlign="1"/><v:tabList/>0</text>		</g>
		<g id="shape2316-97" v:mID="2316" v:groupContext="shape" transform="translate(377.098,-220.714)">
			<title>框.2316</title>
			<desc>1</desc>
			<v:userDefs>
				<v:ud v:nameU="visVersion" v:val="VT0(15):26"/>
			</v:userDefs>
			<v:textBlock v:margins="rect(4,4,4,4)" v:tabSpace="42.5197"/>
			<v:textRect cx="23.202" cy="350.589" width="46.41" height="49.6185"/>
			<rect x="0" y="325.78" width="46.4039" height="49.6185" class="st1"/>
			<text x="18.22" y="355.99" class="st2" v:langID="2052"><v:paragraph v:horizAlign="1"/><v:tabList/>1</text>		</g>
		<g id="shape2317-100" v:mID="2317" v:groupContext="shape" transform="translate(284.098,-171.063)">
			<title>框.2317</title>
			<desc>0</desc>
			<v:userDefs>
				<v:ud v:nameU="visVersion" v:val="VT0(15):26"/>
			</v:userDefs>
			<v:textBlock v:margins="rect(4,4,4,4)" v:tabSpace="42.5197"/>
			<v:textRect cx="23.202" cy="350.589" width="46.41" height="49.6185"/>
			<rect x="0" y="325.78" width="46.4039" height="49.6185" class="st1"/>
			<text x="18.22" y="355.99" class="st2" v:langID="2052"><v:paragraph v:horizAlign="1"/><v:tabList/>0</text>		</g>
		<g id="shape2318-103" v:mID="2318" v:groupContext="shape" transform="translate(330.598,-171.063)">
			<title>框.2318</title>
			<desc>1</desc>
			<v:userDefs>
				<v:ud v:nameU="visVersion" v:val="VT0(15):26"/>
			</v:userDefs>
			<v:textBlock v:margins="rect(4,4,4,4)" v:tabSpace="42.5197"/>
			<v:textRect cx="23.202" cy="350.589" width="46.41" height="49.6185"/>
			<rect x="0" y="325.78" width="46.4039" height="49.6185" class="st1"/>
			<text x="18.22" y="355.99" class="st2" v:langID="2052"><v:paragraph v:horizAlign="1"/><v:tabList/>1</text>		</g>
		<g id="shape2319-106" v:mID="2319" v:groupContext="shape" transform="translate(377.098,-171.063)">
			<title>框.2319</title>
			<desc>1</desc>
			<v:userDefs>
				<v:ud v:nameU="visVersion" v:val="VT0(15):26"/>
			</v:userDefs>
			<v:textBlock v:margins="rect(4,4,4,4)" v:tabSpace="42.5197"/>
			<v:textRect cx="23.202" cy="350.589" width="46.41" height="49.6185"/>
			<rect x="0" y="325.78" width="46.4039" height="49.6185" class="st1"/>
			<text x="18.22" y="355.99" class="st2" v:langID="2052"><v:paragraph v:horizAlign="1"/><v:tabList/>1</text>		</g>
		<g id="shape2320-109" v:mID="2320" v:groupContext="shape" transform="translate(284.098,-121.444)">
			<title>框.2320</title>
			<desc>0</desc>
			<v:userDefs>
				<v:ud v:nameU="visVersion" v:val="VT0(15):26"/>
			</v:userDefs>
			<v:textBlock v:margins="rect(4,4,4,4)" v:tabSpace="42.5197"/>
			<v:textRect cx="23.202" cy="350.589" width="46.41" height="49.6185"/>
			<rect x="0" y="325.78" width="46.4039" height="49.6185" class="st1"/>
			<text x="18.22" y="355.99" class="st2" v:langID="2052"><v:paragraph v:horizAlign="1"/><v:tabList/>0</text>		</g>
		<g id="shape2321-112" v:mID="2321" v:groupContext="shape" transform="translate(330.598,-121.444)">
			<title>框.2321</title>
			<desc>1</desc>
			<v:userDefs>
				<v:ud v:nameU="visVersion" v:val="VT0(15):26"/>
			</v:userDefs>
			<v:textBlock v:margins="rect(4,4,4,4)" v:tabSpace="42.5197"/>
			<v:textRect cx="23.202" cy="350.589" width="46.41" height="49.6185"/>
			<rect x="0" y="325.78" width="46.4039" height="49.6185" class="st1"/>
			<text x="18.22" y="355.99" class="st2" v:langID="2052"><v:paragraph v:horizAlign="1"/><v:tabList/>1</text>		</g>
		<g id="shape2322-115" v:mID="2322" v:groupContext="shape" transform="translate(377.098,-121.444)">
			<title>框.2322</title>
			<desc>0</desc>
			<v:userDefs>
				<v:ud v:nameU="visVersion" v:val="VT0(15):26"/>
			</v:userDefs>
			<v:textBlock v:margins="rect(4,4,4,4)" v:tabSpace="42.5197"/>
			<v:textRect cx="23.202" cy="350.589" width="46.41" height="49.6185"/>
			<rect x="0" y="325.78" width="46.4039" height="49.6185" class="st1"/>
			<text x="18.22" y="355.99" class="st2" v:langID="2052"><v:paragraph v:horizAlign="1"/><v:tabList/>0</text>		</g>
		<g id="shape2323-118" v:mID="2323" v:groupContext="shape" transform="translate(284.098,-71.8259)">
			<title>框.2323</title>
			<desc>1</desc>
			<v:userDefs>
				<v:ud v:nameU="visVersion" v:val="VT0(15):26"/>
			</v:userDefs>
			<v:textBlock v:margins="rect(4,4,4,4)" v:tabSpace="42.5197"/>
			<v:textRect cx="23.202" cy="350.589" width="46.41" height="49.6185"/>
			<rect x="0" y="325.78" width="46.4039" height="49.6185" class="st1"/>
			<text x="18.22" y="355.99" class="st2" v:langID="2052"><v:paragraph v:horizAlign="1"/><v:tabList/>1</text>		</g>
		<g id="shape2324-121" v:mID="2324" v:groupContext="shape" transform="translate(330.79,-71.8259)">
			<title>框.2324</title>
			<desc>0</desc>
			<v:userDefs>
				<v:ud v:nameU="visVersion" v:val="VT0(15):26"/>
			</v:userDefs>
			<v:textBlock v:margins="rect(4,4,4,4)" v:tabSpace="42.5197"/>
			<v:textRect cx="23.202" cy="350.589" width="46.41" height="49.6185"/>
			<rect x="0" y="325.78" width="46.4039" height="49.6185" class="st1"/>
			<text x="18.22" y="355.99" class="st2" v:langID="2052"><v:paragraph v:horizAlign="1"/><v:tabList/>0</text>		</g>
		<g id="shape2325-124" v:mID="2325" v:groupContext="shape" transform="translate(377.098,-71.8259)">
			<title>框.2325</title>
			<desc>1</desc>
			<v:userDefs>
				<v:ud v:nameU="visVersion" v:val="VT0(15):26"/>
			</v:userDefs>
			<v:textBlock v:margins="rect(4,4,4,4)" v:tabSpace="42.5197"/>
			<v:textRect cx="23.202" cy="350.589" width="46.41" height="49.6185"/>
			<rect x="0" y="325.78" width="46.4039" height="49.6185" class="st1"/>
			<text x="18.22" y="355.99" class="st2" v:langID="2052"><v:paragraph v:horizAlign="1"/><v:tabList/>1</text>		</g>
		<g id="shape2326-127" v:mID="2326" v:groupContext="shape" v:layerMember="0" transform="translate(46.8962,-236.893)">
			<title>动态连接线.2326</title>
			<path d="M0 368.61 L72.28 368.5 A2.3622 2.3622 0 1 1 77 368.49 L117.85 368.43 A2.3622 2.3622 0 1 1 122.57 368.42 L164.62
						 368.36 A2.3622 2.3622 0 1 1 169.35 368.35 L214.04 368.29 A2.3622 2.3622 0 1 1 218.77 368.28 L258.29 368.22
						 A2.3622 2.3622 0 1 1 263.02 368.21 L304.61 368.15 A2.3622 2.3622 0 1 1 309.34 368.14 L352.7 368.08 A2.3622
						 2.3622 0 1 1 357.43 368.07 L388.24 368.02" class="st4"/>
		</g>
		<g id="shape2327-133" v:mID="2327" v:groupContext="shape" v:layerMember="0" transform="translate(47.4293,-140.129)">
			<title>动态连接线.2327</title>
			<path d="M0 369.42 L71.67 369.02 A2.3622 2.3622 0 1 1 76.4 368.99 L117.67 368.76 A2.3622 2.3622 0 0 1 122.4 368.73 L164.37
						 368.49 A2.3622 2.3622 0 1 1 169.1 368.47 L213.04 368.22 A2.3622 2.3622 0 1 1 217.76 368.19 L258.01 367.97
						 A2.3622 2.3622 0 1 1 262.73 367.94 L305.11 367.7 A2.3622 2.3622 0 1 1 309.83 367.68 L352.17 367.44 A2.3622
						 2.3622 0 1 1 356.89 367.41 L388.24 367.24" class="st4"/>
		</g>
		<g id="shape2328-138" v:mID="2328" v:groupContext="shape" v:layerMember="0" transform="translate(47.9625,-88.9484)">
			<title>动态连接线.2328</title>
			<path d="M0 369.42 L71.1 369.02 A2.3622 2.3622 0 1 1 75.83 368.99 L117.33 368.76 A2.3622 2.3622 0 0 1 122.05 368.73 L163.99
						 368.5 A2.3622 2.3622 0 0 1 168.71 368.47 L212.26 368.23 A2.3622 2.3622 0 0 1 216.98 368.2 L257.61 367.97
						 A2.3622 2.3622 0 1 1 262.33 367.94 L305.12 367.7 A2.3622 2.3622 0 1 1 309.85 367.68 L351.63 367.44 A2.3622
						 2.3622 0 1 1 356.35 367.42 L388.24 367.24" class="st4"/>
		</g>
		<g id="shape2334-143" v:mID="2334" v:groupContext="shape" v:layerMember="0" transform="translate(44.9449,-289.737)">
			<title>动态连接线.2334</title>
			<path d="M0 368.61 L74.27 368.5 A2.3622 2.3622 0 1 1 78.99 368.49 L119.6 368.43 A2.3622 2.3622 0 1 1 124.33 368.42 L166.42
						 368.36 A2.3622 2.3622 0 1 1 171.15 368.35 L216.25 368.28 A2.3622 2.3622 0 1 1 220.98 368.28 L260.11 368.22
						 A2.3622 2.3622 0 0 1 264.83 368.21 L306 368.15 A2.3622 2.3622 0 1 1 310.73 368.14 L354.65 368.07 A2.3622
						 2.3622 0 1 1 359.38 368.07 L388.24 368.02" class="st4"/>
		</g>
		<g id="shape2335-148" v:mID="2335" v:groupContext="shape" v:layerMember="0" transform="translate(51.0226,-188.441)">
			<title>动态连接线.2335</title>
			<path d="M0 368.61 L68.12 368.51 A2.3622 2.3622 0 1 1 72.84 368.5 L113.9 368.44 A2.3622 2.3622 0 1 1 118.62 368.43 L160.64
						 368.37 A2.3622 2.3622 0 1 1 165.36 368.36 L209.68 368.29 A2.3622 2.3622 0 0 1 214.41 368.29 L254.29 368.23
						 A2.3622 2.3622 0 0 1 259.02 368.22 L301.01 368.16 A2.3622 2.3622 0 1 1 305.73 368.15 L348.57 368.08 A2.3622
						 2.3622 0 1 1 353.3 368.08 L388.24 368.02" class="st4"/>
		</g>
		<g id="shape2547-153" v:mID="2547" v:groupContext="shape" transform="translate(98.4352,-21.7641)">
			<title>框.2547</title>
			<desc>0</desc>
			<v:userDefs>
				<v:ud v:nameU="visVersion" v:val="VT0(15):26"/>
			</v:userDefs>
			<v:textBlock v:margins="rect(4,4,4,4)" v:tabSpace="42.5197"/>
			<v:textRect cx="23.202" cy="350.589" width="46.41" height="49.6185"/>
			<rect x="0" y="325.78" width="46.4039" height="49.6185" class="st1"/>
			<text x="18.22" y="355.99" class="st2" v:langID="2052"><v:paragraph v:horizAlign="1"/><v:tabList/>0</text>		</g>
		<g id="shape2548-156" v:mID="2548" v:groupContext="shape" transform="translate(144.978,-21.7641)">
			<title>框.2548</title>
			<desc>0</desc>
			<v:userDefs>
				<v:ud v:nameU="visVersion" v:val="VT0(15):26"/>
			</v:userDefs>
			<v:textBlock v:margins="rect(4,4,4,4)" v:tabSpace="42.5197"/>
			<v:textRect cx="23.202" cy="350.589" width="46.41" height="49.6185"/>
			<rect x="0" y="325.78" width="46.4039" height="49.6185" class="st1"/>
			<text x="18.22" y="355.99" class="st2" v:langID="2052"><v:paragraph v:horizAlign="1"/><v:tabList/>0</text>		</g>
		<g id="shape2549-159" v:mID="2549" v:groupContext="shape" transform="translate(191.222,-21.7641)">
			<title>框.2549</title>
			<desc>0</desc>
			<v:userDefs>
				<v:ud v:nameU="visVersion" v:val="VT0(15):26"/>
			</v:userDefs>
			<v:textBlock v:margins="rect(4,4,4,4)" v:tabSpace="42.5197"/>
			<v:textRect cx="23.202" cy="350.589" width="46.41" height="49.6185"/>
			<rect x="0" y="325.78" width="46.4039" height="49.6185" class="st1"/>
			<text x="18.22" y="355.99" class="st2" v:langID="2052"><v:paragraph v:horizAlign="1"/><v:tabList/>0</text>		</g>
		<g id="shape2550-162" v:mID="2550" v:groupContext="shape" transform="translate(237.626,-21.7641)">
			<title>框.2550</title>
			<desc>0</desc>
			<v:userDefs>
				<v:ud v:nameU="visVersion" v:val="VT0(15):26"/>
			</v:userDefs>
			<v:textBlock v:margins="rect(4,4,4,4)" v:tabSpace="42.5197"/>
			<v:textRect cx="23.202" cy="350.589" width="46.41" height="49.6185"/>
			<rect x="0" y="325.78" width="46.4039" height="49.6185" class="st1"/>
			<text x="18.22" y="355.99" class="st2" v:langID="2052"><v:paragraph v:horizAlign="1"/><v:tabList/>0</text>		</g>
		<g id="shape2551-165" v:mID="2551" v:groupContext="shape" transform="translate(40.9741,-33.2024)">
			<title>工作表.2551</title>
			<desc>sub 6</desc>
			<v:textBlock v:margins="rect(4,4,4,4)" v:tabSpace="42.5197"/>
			<v:textRect cx="28.6612" cy="362.027" width="57.33" height="26.742"/>
			<rect x="0" y="348.656" width="57.3225" height="26.742" class="st3"/>
			<text x="7.93" y="367.43" class="st2" v:langID="2052"><v:paragraph v:horizAlign="1"/><v:tabList/>sub 6</text>		</g>
		<g id="shape2552-168" v:mID="2552" v:groupContext="shape" transform="translate(284.125,-21.7641)">
			<title>框.2552</title>
			<desc>1</desc>
			<v:userDefs>
				<v:ud v:nameU="visVersion" v:val="VT0(15):26"/>
			</v:userDefs>
			<v:textBlock v:margins="rect(4,4,4,4)" v:tabSpace="42.5197"/>
			<v:textRect cx="23.202" cy="350.589" width="46.41" height="49.6185"/>
			<rect x="0" y="325.78" width="46.4039" height="49.6185" class="st1"/>
			<text x="18.22" y="355.99" class="st2" v:langID="2052"><v:paragraph v:horizAlign="1"/><v:tabList/>1</text>		</g>
		<g id="shape2553-171" v:mID="2553" v:groupContext="shape" transform="translate(330.817,-21.7641)">
			<title>框.2553</title>
			<desc>0</desc>
			<v:userDefs>
				<v:ud v:nameU="visVersion" v:val="VT0(15):26"/>
			</v:userDefs>
			<v:textBlock v:margins="rect(4,4,4,4)" v:tabSpace="42.5197"/>
			<v:textRect cx="23.202" cy="350.589" width="46.41" height="49.6185"/>
			<rect x="0" y="325.78" width="46.4039" height="49.6185" class="st1"/>
			<text x="18.22" y="355.99" class="st2" v:langID="2052"><v:paragraph v:horizAlign="1"/><v:tabList/>0</text>		</g>
		<g id="shape2554-174" v:mID="2554" v:groupContext="shape" transform="translate(377.125,-21.7641)">
			<title>框.2554</title>
			<desc>0</desc>
			<v:userDefs>
				<v:ud v:nameU="visVersion" v:val="VT0(15):26"/>
			</v:userDefs>
			<v:textBlock v:margins="rect(4,4,4,4)" v:tabSpace="42.5197"/>
			<v:textRect cx="23.202" cy="350.589" width="46.41" height="49.6185"/>
			<rect x="0" y="325.78" width="46.4039" height="49.6185" class="st1"/>
			<text x="18.22" y="355.99" class="st2" v:langID="2052"><v:paragraph v:horizAlign="1"/><v:tabList/>0</text>		</g>
		<g id="shape2329-177" v:mID="2329" v:groupContext="shape" v:layerMember="0" transform="translate(128.573,-339.744)">
			<title>动态连接线.2329</title>
			<path d="M-6.96 375.4 L-7.2 692.35" class="st6"/>
		</g>
		<g id="shape2332-183" v:mID="2332" v:groupContext="shape" v:layerMember="0" transform="translate(206.995,-338.528)">
			<title>动态连接线.2332</title>
			<path d="M6.61 375.4 L7.53 692.75" class="st6"/>
		</g>
		<g id="shape2330-188" v:mID="2330" v:groupContext="shape" v:layerMember="0" transform="translate(270.04,-334.849)">
			<title>动态连接线.2330</title>
			<path d="M-6.3 375.4 L-7.83 691.1" class="st6"/>
		</g>
		<g id="shape2333-193" v:mID="2333" v:groupContext="shape" v:layerMember="0" transform="translate(347.539,-337.046)">
			<title>动态连接线.2333</title>
			<path d="M5.34 375.4 L8.73 693.3" class="st6"/>
		</g>
		<g id="shape2331-198" v:mID="2331" v:groupContext="shape" v:layerMember="0" transform="translate(409.044,-336.705)">
			<title>动态连接线.2331</title>
			<path d="M-7.08 375.4 L-7.09 692.96" class="st6"/>
		</g>
		<g id="shape2555-203" v:mID="2555" v:groupContext="shape" v:layerMember="0" transform="translate(160.266,-341.14)">
			<title>动态连接线.2555</title>
			<path d="M6.48 375.4 L7.66 695.37" class="st6"/>
		</g>
		<g id="shape2619-208" v:mID="2619" v:groupContext="shape" v:layerMember="0" transform="translate(300.64,-342.228)">
			<title>动态连接线.2619</title>
			<path d="M6.66 375.4 L7.49 698.48" class="st6"/>
		</g>
		<g id="shape2620-213" v:mID="2620" v:groupContext="shape" v:layerMember="0" transform="translate(43.6547,-37.9486)">
			<title>动态连接线.2620</title>
			<path d="M0 368.61 L75.37 368.49 A2.3622 2.3622 0 1 1 80.1 368.49 L121.82 368.42 A2.3622 2.3622 0 1 1 126.55 368.42 L168.44
						 368.35 A2.3622 2.3622 0 0 1 173.17 368.35 L216.32 368.28 A2.3622 2.3622 0 1 1 221.04 368.28 L262.05 368.21
						 A2.3622 2.3622 0 0 1 266.77 368.21 L309.98 368.14 A2.3622 2.3622 0 1 1 314.7 368.13 L355.94 368.07 A2.3622
						 2.3622 0 0 1 360.66 368.07 L388.24 368.02" class="st4"/>
		</g>
		<g id="shape3367-218" v:mID="3367" v:groupContext="shape" transform="translate(101.819,-320.968)">
			<title>工作表.3367</title>
			<desc>1</desc>
			<v:textBlock v:margins="rect(4,4,4,4)" v:tabSpace="42.5197"/>
			<v:textRect cx="20.2591" cy="362.027" width="40.52" height="26.742"/>
			<rect x="0" y="348.656" width="40.5181" height="26.742" class="st3"/>
			<text x="15.28" y="367.43" class="st2" v:langID="2052"><v:paragraph v:horizAlign="1"/><v:tabList/>1</text>		</g>
		<g id="shape3368-221" v:mID="3368" v:groupContext="shape" transform="translate(148.223,-320.498)">
			<title>工作表.3368</title>
			<desc>2</desc>
			<v:textBlock v:margins="rect(4,4,4,4)" v:tabSpace="42.5197"/>
			<v:textRect cx="20.2591" cy="362.027" width="40.52" height="26.742"/>
			<rect x="0" y="348.656" width="40.5181" height="26.742" class="st3"/>
			<text x="15.28" y="367.43" class="st2" v:langID="2052"><v:paragraph v:horizAlign="1"/><v:tabList/>2</text>		</g>
		<g id="shape3369-224" v:mID="3369" v:groupContext="shape" transform="translate(194.782,-320.498)">
			<title>工作表.3369</title>
			<desc>3</desc>
			<v:textBlock v:margins="rect(4,4,4,4)" v:tabSpace="42.5197"/>
			<v:textRect cx="20.2591" cy="362.027" width="40.52" height="26.742"/>
			<rect x="0" y="348.656" width="40.5181" height="26.742" class="st3"/>
			<text x="15.28" y="367.43" class="st2" v:langID="2052"><v:paragraph v:horizAlign="1"/><v:tabList/>3</text>		</g>
		<g id="shape3370-227" v:mID="3370" v:groupContext="shape" transform="translate(241.202,-320.498)">
			<title>工作表.3370</title>
			<desc>4</desc>
			<v:textBlock v:margins="rect(4,4,4,4)" v:tabSpace="42.5197"/>
			<v:textRect cx="20.2591" cy="362.027" width="40.52" height="26.742"/>
			<rect x="0" y="348.656" width="40.5181" height="26.742" class="st3"/>
			<text x="15.28" y="367.43" class="st2" v:langID="2052"><v:paragraph v:horizAlign="1"/><v:tabList/>4</text>		</g>
		<g id="shape3371-230" v:mID="3371" v:groupContext="shape" transform="translate(287.702,-320.498)">
			<title>工作表.3371</title>
			<desc>5</desc>
			<v:textBlock v:margins="rect(4,4,4,4)" v:tabSpace="42.5197"/>
			<v:textRect cx="20.2591" cy="362.027" width="40.52" height="26.742"/>
			<rect x="0" y="348.656" width="40.5181" height="26.742" class="st3"/>
			<text x="15.28" y="367.43" class="st2" v:langID="2052"><v:paragraph v:horizAlign="1"/><v:tabList/>5</text>		</g>
		<g id="shape3372-233" v:mID="3372" v:groupContext="shape" transform="translate(334.201,-320.498)">
			<title>工作表.3372</title>
			<desc>6</desc>
			<v:textBlock v:margins="rect(4,4,4,4)" v:tabSpace="42.5197"/>
			<v:textRect cx="20.2591" cy="362.027" width="40.52" height="26.742"/>
			<rect x="0" y="348.656" width="40.5181" height="26.742" class="st3"/>
			<text x="15.28" y="367.43" class="st2" v:langID="2052"><v:paragraph v:horizAlign="1"/><v:tabList/>6</text>		</g>
		<g id="shape3373-236" v:mID="3373" v:groupContext="shape" transform="translate(380.701,-320.498)">
			<title>工作表.3373</title>
			<desc>7</desc>
			<v:textBlock v:margins="rect(4,4,4,4)" v:tabSpace="42.5197"/>
			<v:textRect cx="20.2591" cy="362.027" width="40.52" height="26.742"/>
			<rect x="0" y="348.656" width="40.5181" height="26.742" class="st3"/>
			<text x="15.28" y="367.43" class="st2" v:langID="2052"><v:paragraph v:horizAlign="1"/><v:tabList/>7</text>		</g>
	</g>
</svg>
