<?xml version="1.0" encoding="UTF-8" standalone="no"?>
<!DOCTYPE svg PUBLIC "-//W3C//DTD SVG 1.1//EN" "http://www.w3.org/Graphics/SVG/1.1/DTD/svg11.dtd">
<!-- 由 Microsoft Visio, SVG Export 生成 DancingLinks7.svg 页-1 -->
<svg xmlns="http://www.w3.org/2000/svg" xmlns:xlink="http://www.w3.org/1999/xlink" xmlns:ev="http://www.w3.org/2001/xml-events"
		xmlns:v="http://schemas.microsoft.com/visio/2003/SVGExtensions/" width="10.3668in" height="9.24689in"
		viewBox="0 0 746.407 665.776" xml:space="preserve" color-interpolation-filters="sRGB" class="st6">
	<v:documentProperties v:langID="2052" v:metric="true" v:viewMarkup="false"/>

	<style type="text/css">
	<![CDATA[
		.st1 {fill:#ffffff;stroke:#000000;stroke-linecap:round;stroke-linejoin:round;stroke-width:0.75}
		.st2 {fill:#000000;font-family:Cambria Math;font-size:1.5em}
		.st3 {fill:none;stroke:none;stroke-linecap:round;stroke-linejoin:round;stroke-width:0.75}
		.st4 {marker-end:url(#mrkr1-108);marker-start:url(#mrkr1-106);stroke:#000000;stroke-linecap:round;stroke-linejoin:round;stroke-width:2}
		.st5 {fill:#000000;fill-opacity:1;stroke:#000000;stroke-opacity:1;stroke-width:0.38167938931298}
		.st6 {fill:none;fill-rule:evenodd;font-size:12px;overflow:visible;stroke-linecap:square;stroke-miterlimit:3}
	]]>
	</style>

	<defs id="Markers">
		<g id="lend1">
			<path d="M 1 -1 L 0 0 L 1 1 " style="stroke-linecap:round;stroke-linejoin:round;fill:none"/>
		</g>
		<marker id="mrkr1-106" class="st5" v:arrowType="1" v:arrowSize="3" orient="auto" markerUnits="strokeWidth"
				overflow="visible">
			<use xlink:href="#lend1" transform="scale(2.62) "/>
		</marker>
		<marker id="mrkr1-108" class="st5" v:arrowType="1" v:arrowSize="3" orient="auto" markerUnits="strokeWidth"
				overflow="visible">
			<use xlink:href="#lend1" transform="scale(-2.62,-2.62) "/>
		</marker>
	</defs>
	<g v:mID="0" v:index="1" v:groupContext="foregroundPage">
		<title>页-1</title>
		<v:pageProperties v:drawingScale="0.0393701" v:pageScale="0.0393701" v:drawingUnits="24" v:shadowOffsetX="8.50394"
				v:shadowOffsetY="-8.50394"/>
		<v:layer v:name="连接线" v:index="0"/>
		<g id="shape2621-1" v:mID="2621" v:groupContext="shape" transform="translate(162.734,-455.029)">
			<title>框.2621</title>
			<desc>[1, 1]</desc>
			<v:userDefs>
				<v:ud v:nameU="visVersion" v:val="VT0(15):26"/>
			</v:userDefs>
			<v:textBlock v:margins="rect(4,4,4,4)" v:tabSpace="42.5197"/>
			<v:textRect cx="27.6661" cy="636.194" width="55.34" height="59.1654"/>
			<rect x="0" y="606.611" width="55.3323" height="59.1654" class="st1"/>
			<text x="7.57" y="641.59" class="st2" v:langID="2052"><v:paragraph v:horizAlign="1"/><v:tabList/>[1, 1]</text>		</g>
		<g id="shape2623-4" v:mID="2623" v:groupContext="shape" transform="translate(329.926,-455.358)">
			<title>框.2623</title>
			<desc>[1, 3]</desc>
			<v:userDefs>
				<v:ud v:nameU="visVersion" v:val="VT0(15):26"/>
			</v:userDefs>
			<v:textBlock v:margins="rect(4,4,4,4)" v:tabSpace="42.5197"/>
			<v:textRect cx="27.6661" cy="636.194" width="55.34" height="59.1654"/>
			<rect x="0" y="606.611" width="55.3323" height="59.1654" class="st1"/>
			<text x="7.57" y="641.59" class="st2" v:langID="2052"><v:paragraph v:horizAlign="1"/><v:tabList/>[1, 3]</text>		</g>
		<g id="shape2626-7" v:mID="2626" v:groupContext="shape" transform="translate(246.419,-286.176)">
			<title>框.2626</title>
			<desc>[3, 2]</desc>
			<v:userDefs>
				<v:ud v:nameU="visVersion" v:val="VT0(15):26"/>
			</v:userDefs>
			<v:textBlock v:margins="rect(4,4,4,4)" v:tabSpace="42.5197"/>
			<v:textRect cx="27.6661" cy="636.194" width="55.34" height="59.1654"/>
			<rect x="0" y="606.611" width="55.3323" height="59.1654" class="st1"/>
			<text x="7.57" y="641.59" class="st2" v:langID="2052"><v:paragraph v:horizAlign="1"/><v:tabList/>[3, 2]</text>		</g>
		<g id="shape2630-10" v:mID="2630" v:groupContext="shape" transform="translate(162.695,-371.804)">
			<title>框.2630</title>
			<desc>[2, 1]</desc>
			<v:userDefs>
				<v:ud v:nameU="visVersion" v:val="VT0(15):26"/>
			</v:userDefs>
			<v:textBlock v:margins="rect(4,4,4,4)" v:tabSpace="42.5197"/>
			<v:textRect cx="27.6661" cy="636.194" width="55.34" height="59.1654"/>
			<rect x="0" y="606.611" width="55.3323" height="59.1654" class="st1"/>
			<text x="7.57" y="641.59" class="st2" v:langID="2052"><v:paragraph v:horizAlign="1"/><v:tabList/>[2, 1]</text>		</g>
		<g id="shape2633-13" v:mID="2633" v:groupContext="shape" transform="translate(414.221,-371.997)">
			<title>框.2633</title>
			<desc>[2, 4]</desc>
			<v:userDefs>
				<v:ud v:nameU="visVersion" v:val="VT0(15):26"/>
			</v:userDefs>
			<v:textBlock v:margins="rect(4,4,4,4)" v:tabSpace="42.5197"/>
			<v:textRect cx="27.6661" cy="636.194" width="55.34" height="59.1654"/>
			<rect x="0" y="606.611" width="55.3323" height="59.1654" class="st1"/>
			<text x="7.57" y="641.59" class="st2" v:langID="2052"><v:paragraph v:horizAlign="1"/><v:tabList/>[2, 4]</text>		</g>
		<g id="shape2637-16" v:mID="2637" v:groupContext="shape" transform="translate(414.221,-104.526)">
			<title>框.2637</title>
			<desc>[5, 4]</desc>
			<v:userDefs>
				<v:ud v:nameU="visVersion" v:val="VT0(15):26"/>
			</v:userDefs>
			<v:textBlock v:margins="rect(4,4,4,4)" v:tabSpace="42.5197"/>
			<v:textRect cx="27.6661" cy="636.194" width="55.34" height="59.1654"/>
			<rect x="0" y="606.611" width="55.3323" height="59.1654" class="st1"/>
			<text x="7.57" y="641.59" class="st2" v:langID="2052"><v:paragraph v:horizAlign="1"/><v:tabList/>[5, 4]</text>		</g>
		<g id="shape2639-19" v:mID="2639" v:groupContext="shape" transform="translate(246.419,-194.785)">
			<title>框.2639</title>
			<desc>[4, 2]</desc>
			<v:userDefs>
				<v:ud v:nameU="visVersion" v:val="VT0(15):26"/>
			</v:userDefs>
			<v:textBlock v:margins="rect(4,4,4,4)" v:tabSpace="42.5197"/>
			<v:textRect cx="27.6661" cy="636.194" width="55.34" height="59.1654"/>
			<rect x="0" y="606.611" width="55.3323" height="59.1654" class="st1"/>
			<text x="7.57" y="641.59" class="st2" v:langID="2052"><v:paragraph v:horizAlign="1"/><v:tabList/>[4, 2]</text>		</g>
		<g id="shape2640-22" v:mID="2640" v:groupContext="shape" transform="translate(329.786,-195.057)">
			<title>框.2640</title>
			<desc>[4, 3]</desc>
			<v:userDefs>
				<v:ud v:nameU="visVersion" v:val="VT0(15):26"/>
			</v:userDefs>
			<v:textBlock v:margins="rect(4,4,4,4)" v:tabSpace="42.5197"/>
			<v:textRect cx="27.6661" cy="636.194" width="55.34" height="59.1654"/>
			<rect x="0" y="606.611" width="55.3323" height="59.1654" class="st1"/>
			<text x="7.57" y="641.59" class="st2" v:langID="2052"><v:paragraph v:horizAlign="1"/><v:tabList/>[4, 3]</text>		</g>
		<g id="shape2642-25" v:mID="2642" v:groupContext="shape" transform="translate(42.6097,-468.122)">
			<title>工作表.2642</title>
			<desc>sub 1</desc>
			<v:textBlock v:margins="rect(4,4,4,4)" v:tabSpace="42.5197"/>
			<v:textRect cx="34.1758" cy="649.833" width="68.36" height="31.8872"/>
			<rect x="0" y="633.889" width="68.3516" height="31.8872" class="st3"/>
			<text x="13.45" y="655.23" class="st2" v:langID="2052"><v:paragraph v:horizAlign="1"/><v:tabList/>sub 1</text>		</g>
		<g id="shape2643-28" v:mID="2643" v:groupContext="shape" transform="translate(0.375,-350.05)">
			<title>工作表.2643</title>
			<desc>m</desc>
			<v:textBlock v:margins="rect(4,4,4,4)" v:tabSpace="42.5197"/>
			<v:textRect cx="24.157" cy="649.833" width="48.32" height="31.8872"/>
			<rect x="0" y="633.889" width="48.314" height="31.8872" class="st3"/>
			<text x="16.67" y="655.23" class="st2" v:langID="2052"><v:paragraph v:horizAlign="1"/><v:tabList/>m</text>		</g>
		<g id="shape2644-31" v:mID="2644" v:groupContext="shape" transform="translate(413.898,-633.514)">
			<title>工作表.2644</title>
			<desc>n</desc>
			<v:textBlock v:margins="rect(4,4,4,4)" v:tabSpace="42.5197"/>
			<v:textRect cx="24.157" cy="649.833" width="48.32" height="31.8872"/>
			<rect x="0" y="633.889" width="48.314" height="31.8872" class="st3"/>
			<text x="19.13" y="655.23" class="st2" v:langID="2052"><v:paragraph v:horizAlign="1"/><v:tabList/>n</text>		</g>
		<g id="shape2645-34" v:mID="2645" v:groupContext="shape" transform="translate(42.4063,-384.897)">
			<title>工作表.2645</title>
			<desc>sub 2</desc>
			<v:textBlock v:margins="rect(4,4,4,4)" v:tabSpace="42.5197"/>
			<v:textRect cx="34.1758" cy="649.833" width="68.36" height="31.8872"/>
			<rect x="0" y="633.889" width="68.3516" height="31.8872" class="st3"/>
			<text x="13.45" y="655.23" class="st2" v:langID="2052"><v:paragraph v:horizAlign="1"/><v:tabList/>sub 2</text>		</g>
		<g id="shape2646-37" v:mID="2646" v:groupContext="shape" transform="translate(42.3682,-298.735)">
			<title>工作表.2646</title>
			<desc>sub 3</desc>
			<v:textBlock v:margins="rect(4,4,4,4)" v:tabSpace="42.5197"/>
			<v:textRect cx="34.1758" cy="649.833" width="68.36" height="31.8872"/>
			<rect x="0" y="633.889" width="68.3516" height="31.8872" class="st3"/>
			<text x="13.45" y="655.23" class="st2" v:langID="2052"><v:paragraph v:horizAlign="1"/><v:tabList/>sub 3</text>		</g>
		<g id="shape2647-40" v:mID="2647" v:groupContext="shape" transform="translate(42.6987,-207.768)">
			<title>工作表.2647</title>
			<desc>sub 4</desc>
			<v:textBlock v:margins="rect(4,4,4,4)" v:tabSpace="42.5197"/>
			<v:textRect cx="34.1758" cy="649.833" width="68.36" height="31.8872"/>
			<rect x="0" y="633.889" width="68.3516" height="31.8872" class="st3"/>
			<text x="13.45" y="655.23" class="st2" v:langID="2052"><v:paragraph v:horizAlign="1"/><v:tabList/>sub 4</text>		</g>
		<g id="shape2648-43" v:mID="2648" v:groupContext="shape" transform="translate(42.6733,-117.18)">
			<title>工作表.2648</title>
			<desc>sub 5</desc>
			<v:textBlock v:margins="rect(4,4,4,4)" v:tabSpace="42.5197"/>
			<v:textRect cx="34.1758" cy="649.833" width="68.36" height="31.8872"/>
			<rect x="0" y="633.889" width="68.3516" height="31.8872" class="st3"/>
			<text x="13.45" y="655.23" class="st2" v:langID="2052"><v:paragraph v:horizAlign="1"/><v:tabList/>sub 5</text>		</g>
		<g id="shape2649-46" v:mID="2649" v:groupContext="shape" transform="translate(491.623,-455.029)">
			<title>框.2649</title>
			<desc>[1, 5]</desc>
			<v:userDefs>
				<v:ud v:nameU="visVersion" v:val="VT0(15):26"/>
			</v:userDefs>
			<v:textBlock v:margins="rect(4,4,4,4)" v:tabSpace="42.5197"/>
			<v:textRect cx="27.6661" cy="636.194" width="55.34" height="59.1654"/>
			<rect x="0" y="606.611" width="55.3323" height="59.1654" class="st1"/>
			<text x="7.57" y="641.59" class="st2" v:langID="2052"><v:paragraph v:horizAlign="1"/><v:tabList/>[1, 5]</text>		</g>
		<g id="shape2650-49" v:mID="2650" v:groupContext="shape" transform="translate(567.584,-455.029)">
			<title>框.2650</title>
			<desc>[1, 6]</desc>
			<v:userDefs>
				<v:ud v:nameU="visVersion" v:val="VT0(15):26"/>
			</v:userDefs>
			<v:textBlock v:margins="rect(4,4,4,4)" v:tabSpace="42.5197"/>
			<v:textRect cx="27.6661" cy="636.194" width="55.34" height="59.1654"/>
			<rect x="0" y="606.611" width="55.3323" height="59.1654" class="st1"/>
			<text x="7.57" y="641.59" class="st2" v:langID="2052"><v:paragraph v:horizAlign="1"/><v:tabList/>[1, 6]</text>		</g>
		<g id="shape2654-52" v:mID="2654" v:groupContext="shape" transform="translate(649.515,-371.591)">
			<title>框.2654</title>
			<desc>[2, 7]</desc>
			<v:userDefs>
				<v:ud v:nameU="visVersion" v:val="VT0(15):26"/>
			</v:userDefs>
			<v:textBlock v:margins="rect(4,4,4,4)" v:tabSpace="42.5197"/>
			<v:textRect cx="27.6661" cy="636.194" width="55.34" height="59.1654"/>
			<rect x="0" y="606.611" width="55.3323" height="59.1654" class="st1"/>
			<text x="7.57" y="641.59" class="st2" v:langID="2052"><v:paragraph v:horizAlign="1"/><v:tabList/>[2, 7]</text>		</g>
		<g id="shape2656-55" v:mID="2656" v:groupContext="shape" transform="translate(567.508,-286.027)">
			<title>框.2656</title>
			<desc>[3, 6]</desc>
			<v:userDefs>
				<v:ud v:nameU="visVersion" v:val="VT0(15):26"/>
			</v:userDefs>
			<v:textBlock v:margins="rect(4,4,4,4)" v:tabSpace="42.5197"/>
			<v:textRect cx="27.6661" cy="636.194" width="55.34" height="59.1654"/>
			<rect x="0" y="606.611" width="55.3323" height="59.1654" class="st1"/>
			<text x="7.57" y="641.59" class="st2" v:langID="2052"><v:paragraph v:horizAlign="1"/><v:tabList/>[3, 6]</text>		</g>
		<g id="shape2657-58" v:mID="2657" v:groupContext="shape" transform="translate(649.477,-285.814)">
			<title>框.2657</title>
			<desc>[3, 7]</desc>
			<v:userDefs>
				<v:ud v:nameU="visVersion" v:val="VT0(15):26"/>
			</v:userDefs>
			<v:textBlock v:margins="rect(4,4,4,4)" v:tabSpace="42.5197"/>
			<v:textRect cx="27.6661" cy="636.194" width="55.34" height="59.1654"/>
			<rect x="0" y="606.611" width="55.3323" height="59.1654" class="st1"/>
			<text x="7.57" y="641.59" class="st2" v:langID="2052"><v:paragraph v:horizAlign="1"/><v:tabList/>[3, 7]</text>		</g>
		<g id="shape2659-61" v:mID="2659" v:groupContext="shape" transform="translate(567.508,-193.235)">
			<title>框.2659</title>
			<desc>[4, 6]</desc>
			<v:userDefs>
				<v:ud v:nameU="visVersion" v:val="VT0(15):26"/>
			</v:userDefs>
			<v:textBlock v:margins="rect(4,4,4,4)" v:tabSpace="42.5197"/>
			<v:textRect cx="27.6661" cy="636.194" width="55.34" height="59.1654"/>
			<rect x="0" y="606.611" width="55.3323" height="59.1654" class="st1"/>
			<text x="7.57" y="641.59" class="st2" v:langID="2052"><v:paragraph v:horizAlign="1"/><v:tabList/>[4, 6]</text>		</g>
		<g id="shape2661-64" v:mID="2661" v:groupContext="shape" transform="translate(491.623,-104.526)">
			<title>框.2661</title>
			<desc>[5, 5]</desc>
			<v:userDefs>
				<v:ud v:nameU="visVersion" v:val="VT0(15):26"/>
			</v:userDefs>
			<v:textBlock v:margins="rect(4,4,4,4)" v:tabSpace="42.5197"/>
			<v:textRect cx="27.6661" cy="636.194" width="55.34" height="59.1654"/>
			<rect x="0" y="606.611" width="55.3323" height="59.1654" class="st1"/>
			<text x="7.57" y="641.59" class="st2" v:langID="2052"><v:paragraph v:horizAlign="1"/><v:tabList/>[5, 5]</text>		</g>
		<g id="shape2663-67" v:mID="2663" v:groupContext="shape" transform="translate(648.544,-104.526)">
			<title>框.2663</title>
			<desc>[5, 7]</desc>
			<v:userDefs>
				<v:ud v:nameU="visVersion" v:val="VT0(15):26"/>
			</v:userDefs>
			<v:textBlock v:margins="rect(4,4,4,4)" v:tabSpace="42.5197"/>
			<v:textRect cx="27.6661" cy="636.194" width="55.34" height="59.1654"/>
			<rect x="0" y="606.611" width="55.3323" height="59.1654" class="st1"/>
			<text x="7.57" y="641.59" class="st2" v:langID="2052"><v:paragraph v:horizAlign="1"/><v:tabList/>[5, 7]</text>		</g>
		<g id="shape2668-70" v:mID="2668" v:groupContext="shape" transform="translate(42.6225,-31.403)">
			<title>工作表.2668</title>
			<desc>sub 6</desc>
			<v:textBlock v:margins="rect(4,4,4,4)" v:tabSpace="42.5197"/>
			<v:textRect cx="34.1758" cy="649.833" width="68.36" height="31.8872"/>
			<rect x="0" y="633.889" width="68.3516" height="31.8872" class="st3"/>
			<text x="13.45" y="655.23" class="st2" v:langID="2052"><v:paragraph v:horizAlign="1"/><v:tabList/>sub 6</text>		</g>
		<g id="shape2669-73" v:mID="2669" v:groupContext="shape" transform="translate(491.572,-18.7491)">
			<title>框.2669</title>
			<desc>[6, 5]</desc>
			<v:userDefs>
				<v:ud v:nameU="visVersion" v:val="VT0(15):26"/>
			</v:userDefs>
			<v:textBlock v:margins="rect(4,4,4,4)" v:tabSpace="42.5197"/>
			<v:textRect cx="27.6661" cy="636.194" width="55.34" height="59.1654"/>
			<rect x="0" y="606.611" width="55.3323" height="59.1654" class="st1"/>
			<text x="7.57" y="641.59" class="st2" v:langID="2052"><v:paragraph v:horizAlign="1"/><v:tabList/>[6, 5]</text>		</g>
		<g id="shape2674-76" v:mID="2674" v:groupContext="shape" transform="translate(162.734,-538.254)">
			<title>框.2674</title>
			<desc>1</desc>
			<v:userDefs>
				<v:ud v:nameU="visVersion" v:val="VT0(15):26"/>
			</v:userDefs>
			<v:textBlock v:margins="rect(4,4,4,4)" v:tabSpace="42.5197"/>
			<v:textRect cx="27.6661" cy="636.194" width="55.34" height="59.1654"/>
			<rect x="0" y="606.611" width="55.3323" height="59.1654" class="st1"/>
			<text x="22.68" y="641.59" class="st2" v:langID="2052"><v:paragraph v:horizAlign="1"/><v:tabList/>1</text>		</g>
		<g id="shape2675-79" v:mID="2675" v:groupContext="shape" transform="translate(246.33,-538.254)">
			<title>框.2675</title>
			<desc>2</desc>
			<v:userDefs>
				<v:ud v:nameU="visVersion" v:val="VT0(15):26"/>
			</v:userDefs>
			<v:textBlock v:margins="rect(4,4,4,4)" v:tabSpace="42.5197"/>
			<v:textRect cx="27.6661" cy="636.194" width="55.34" height="59.1654"/>
			<rect x="0" y="606.611" width="55.3323" height="59.1654" class="st1"/>
			<text x="22.68" y="641.59" class="st2" v:langID="2052"><v:paragraph v:horizAlign="1"/><v:tabList/>2</text>		</g>
		<g id="shape2676-82" v:mID="2676" v:groupContext="shape" transform="translate(329.926,-538.254)">
			<title>框.2676</title>
			<desc>3</desc>
			<v:userDefs>
				<v:ud v:nameU="visVersion" v:val="VT0(15):26"/>
			</v:userDefs>
			<v:textBlock v:margins="rect(4,4,4,4)" v:tabSpace="42.5197"/>
			<v:textRect cx="27.6661" cy="636.194" width="55.34" height="59.1654"/>
			<rect x="0" y="606.611" width="55.3323" height="59.1654" class="st1"/>
			<text x="22.68" y="641.59" class="st2" v:langID="2052"><v:paragraph v:horizAlign="1"/><v:tabList/>3</text>		</g>
		<g id="shape2677-85" v:mID="2677" v:groupContext="shape" transform="translate(413.898,-538.254)">
			<title>框.2677</title>
			<desc>4</desc>
			<v:userDefs>
				<v:ud v:nameU="visVersion" v:val="VT0(15):26"/>
			</v:userDefs>
			<v:textBlock v:margins="rect(4,4,4,4)" v:tabSpace="42.5197"/>
			<v:textRect cx="27.6661" cy="636.194" width="55.34" height="59.1654"/>
			<rect x="0" y="606.611" width="55.3323" height="59.1654" class="st1"/>
			<text x="22.68" y="641.59" class="st2" v:langID="2052"><v:paragraph v:horizAlign="1"/><v:tabList/>4</text>		</g>
		<g id="shape2678-88" v:mID="2678" v:groupContext="shape" transform="translate(491.623,-538.254)">
			<title>框.2678</title>
			<desc>5</desc>
			<v:userDefs>
				<v:ud v:nameU="visVersion" v:val="VT0(15):26"/>
			</v:userDefs>
			<v:textBlock v:margins="rect(4,4,4,4)" v:tabSpace="42.5197"/>
			<v:textRect cx="27.6661" cy="636.194" width="55.34" height="59.1654"/>
			<rect x="0" y="606.611" width="55.3323" height="59.1654" class="st1"/>
			<text x="22.68" y="641.59" class="st2" v:langID="2052"><v:paragraph v:horizAlign="1"/><v:tabList/>5</text>		</g>
		<g id="shape2679-91" v:mID="2679" v:groupContext="shape" transform="translate(567.584,-538.254)">
			<title>框.2679</title>
			<desc>6</desc>
			<v:userDefs>
				<v:ud v:nameU="visVersion" v:val="VT0(15):26"/>
			</v:userDefs>
			<v:textBlock v:margins="rect(4,4,4,4)" v:tabSpace="42.5197"/>
			<v:textRect cx="27.6661" cy="636.194" width="55.34" height="59.1654"/>
			<rect x="0" y="606.611" width="55.3323" height="59.1654" class="st1"/>
			<text x="22.68" y="641.59" class="st2" v:langID="2052"><v:paragraph v:horizAlign="1"/><v:tabList/>6</text>		</g>
		<g id="shape2680-94" v:mID="2680" v:groupContext="shape" transform="translate(648.544,-538.254)">
			<title>框.2680</title>
			<desc>7</desc>
			<v:userDefs>
				<v:ud v:nameU="visVersion" v:val="VT0(15):26"/>
			</v:userDefs>
			<v:textBlock v:margins="rect(4,4,4,4)" v:tabSpace="42.5197"/>
			<v:textRect cx="27.6661" cy="636.194" width="55.34" height="59.1654"/>
			<rect x="0" y="606.611" width="55.3323" height="59.1654" class="st1"/>
			<text x="22.68" y="641.59" class="st2" v:langID="2052"><v:paragraph v:horizAlign="1"/><v:tabList/>7</text>		</g>
		<g id="shape2681-97" v:mID="2681" v:groupContext="shape" transform="translate(59.2272,-538.254)">
			<title>框.2681</title>
			<desc>head</desc>
			<v:userDefs>
				<v:ud v:nameU="visVersion" v:val="VT0(15):26"/>
			</v:userDefs>
			<v:textBlock v:margins="rect(4,4,4,4)" v:tabSpace="42.5197"/>
			<v:textRect cx="27.6661" cy="636.194" width="55.34" height="59.1654"/>
			<rect x="0" y="606.611" width="55.3323" height="59.1654" class="st1"/>
			<text x="8.92" y="641.59" class="st2" v:langID="2052"><v:paragraph v:horizAlign="1"/><v:tabList/>head</text>		</g>
		<g id="shape2684-100" v:mID="2684" v:groupContext="shape" v:layerMember="0" transform="translate(218.066,-560.75)">
			<title>动态连接线.2684</title>
			<path d="M0 658.69 L14.3 658.69 A2.3622 2.3622 0 1 1 19.02 658.69 L28.26 658.69" class="st4"/>
		</g>
		<g id="shape2685-109" v:mID="2685" v:groupContext="shape" v:layerMember="0" transform="translate(114.559,-560.75)">
			<title>动态连接线.2685</title>
			<path d="M0 658.69 L28.1 658.69 A2.3622 2.3622 0 1 1 32.82 658.69 L48.17 658.69" class="st4"/>
		</g>
		<g id="shape2686-116" v:mID="2686" v:groupContext="shape" v:layerMember="0" transform="translate(301.662,-560.75)">
			<title>动态连接线.2686</title>
			<path d="M0 658.69 L15.27 658.69 A2.3622 2.3622 0 0 1 20 658.69 L28.26 658.69" class="st4"/>
		</g>
		<g id="shape2687-123" v:mID="2687" v:groupContext="shape" v:layerMember="0" transform="translate(385.258,-560.75)">
			<title>动态连接线.2687</title>
			<path d="M0 658.69 L16.75 658.69 A2.3622 2.3622 0 0 1 21.48 658.69 L28.64 658.69" class="st4"/>
		</g>
		<g id="shape2688-130" v:mID="2688" v:groupContext="shape" v:layerMember="0" transform="translate(469.23,-560.75)">
			<title>动态连接线.2688</title>
			<path d="M0 658.69 L12.94 658.69 A2.3622 2.3622 0 0 1 17.67 658.69 L22.39 658.69" class="st4"/>
		</g>
		<g id="shape2689-137" v:mID="2689" v:groupContext="shape" v:layerMember="0" transform="translate(546.956,-560.75)">
			<title>动态连接线.2689</title>
			<path d="M0 658.69 L7.64 658.69 A2.3622 2.3622 0 1 1 12.36 658.69 L20.63 658.69" class="st4"/>
		</g>
		<g id="shape2690-144" v:mID="2690" v:groupContext="shape" v:layerMember="0" transform="translate(622.917,-560.75)">
			<title>动态连接线.2690</title>
			<path d="M0 658.69 L8.19 658.69 A2.3622 2.3622 0 0 1 12.92 658.69 L25.63 658.69" class="st4"/>
		</g>
		<g id="shape2691-151" v:mID="2691" v:groupContext="shape" v:layerMember="0" transform="translate(183.313,-514.194)">
			<title>动态连接线.2691</title>
			<path d="M7.09 665.78 L7.09 641.72" class="st4"/>
		</g>
		<g id="shape2692-158" v:mID="2692" v:groupContext="shape" v:layerMember="0" transform="translate(183.294,-430.969)">
			<title>动态连接线.2692</title>
			<path d="M7.07 665.78 L7.11 641.72" class="st4"/>
		</g>
		<g id="shape2693-165" v:mID="2693" v:groupContext="shape" v:layerMember="0" transform="translate(281.127,-345.341)">
			<title>动态连接线.2693</title>
			<path d="M-7.04 665.78 L-7.13 472.86" class="st4"/>
		</g>
		<g id="shape2694-172" v:mID="2694" v:groupContext="shape" v:layerMember="0" transform="translate(266.998,-253.951)">
			<title>动态连接线.2694</title>
			<path d="M7.09 665.78 L7.09 633.55" class="st4"/>
		</g>
		<g id="shape2695-179" v:mID="2695" v:groupContext="shape" v:layerMember="0" transform="translate(350.505,-514.523)">
			<title>动态连接线.2695</title>
			<path d="M7.09 665.78 L7.09 642.05" class="st4"/>
		</g>
		<g id="shape2696-186" v:mID="2696" v:groupContext="shape" v:layerMember="0" transform="translate(350.435,-254.222)">
			<title>动态连接线.2696</title>
			<path d="M7.02 665.78 L7.16 464.64" class="st4"/>
		</g>
		<g id="shape2697-193" v:mID="2697" v:groupContext="shape" v:layerMember="0" transform="translate(448.812,-431.162)">
			<title>动态连接线.2697</title>
			<path d="M-6.93 665.78 L-7.25 558.68" class="st4"/>
		</g>
		<g id="shape2698-200" v:mID="2698" v:groupContext="shape" v:layerMember="0" transform="translate(434.8,-163.691)">
			<title>动态连接线.2698</title>
			<path d="M7.09 665.78 L7.09 457.47" class="st4"/>
		</g>
		<g id="shape2699-207" v:mID="2699" v:groupContext="shape" v:layerMember="0" transform="translate(512.203,-514.194)">
			<title>动态连接线.2699</title>
			<path d="M7.09 665.78 L7.09 641.72" class="st4"/>
		</g>
		<g id="shape2700-214" v:mID="2700" v:groupContext="shape" v:layerMember="0" transform="translate(512.203,-163.691)">
			<title>动态连接线.2700</title>
			<path d="M7.09 665.78 L7.09 374.44" class="st4"/>
		</g>
		<g id="shape2701-221" v:mID="2701" v:groupContext="shape" v:layerMember="0" transform="translate(512.177,-77.9145)">
			<title>动态连接线.2701</title>
			<path d="M7.06 665.78 L7.11 639.17" class="st4"/>
		</g>
		<g id="shape2702-228" v:mID="2702" v:groupContext="shape" v:layerMember="0" transform="translate(588.164,-514.194)">
			<title>动态连接线.2702</title>
			<path d="M7.09 665.78 L7.09 641.72" class="st4"/>
		</g>
		<g id="shape2703-235" v:mID="2703" v:groupContext="shape" v:layerMember="0" transform="translate(588.126,-345.192)">
			<title>动态连接线.2703</title>
			<path d="M7.05 665.78 L7.12 555.94" class="st4"/>
		</g>
		<g id="shape2704-242" v:mID="2704" v:groupContext="shape" v:layerMember="0" transform="translate(588.088,-252.401)">
			<title>动态连接线.2704</title>
			<path d="M7.09 665.78 L7.09 632.15" class="st4"/>
		</g>
		<g id="shape2705-249" v:mID="2705" v:groupContext="shape" v:layerMember="0" transform="translate(683.782,-430.756)">
			<title>动态连接线.2705</title>
			<path d="M-6.6 665.78 L-7.57 558.28" class="st4"/>
		</g>
		<g id="shape2706-256" v:mID="2706" v:groupContext="shape" v:layerMember="0" transform="translate(670.075,-344.98)">
			<title>动态连接线.2706</title>
			<path d="M7.07 665.78 L7.11 639.17" class="st4"/>
		</g>
		<g id="shape2707-263" v:mID="2707" v:groupContext="shape" v:layerMember="0" transform="translate(669.59,-163.691)">
			<title>动态连接线.2707</title>
			<path d="M6.62 665.78 L7.55 543.65" class="st4"/>
		</g>
		<g id="shape2708-270" v:mID="2708" v:groupContext="shape" v:layerMember="0" transform="translate(218.066,-477.69)">
			<title>动态连接线.2708</title>
			<path d="M0 658.85 L14.3 658.81 A2.3622 2.3622 0 1 1 19.02 658.8 L53.59 658.7 A2.3622 2.3622 0 1 1 58.32 658.68 L98.87
						 658.56 A2.3622 2.3622 0 0 1 103.59 658.55 L111.86 658.53" class="st4"/>
		</g>
		<g id="shape2709-277" v:mID="2709" v:groupContext="shape" v:layerMember="0" transform="translate(385.258,-491.863)">
			<title>动态连接线.2709</title>
			<path d="M0 672.7 L16.75 672.75 A2.3622 2.3622 0 0 1 21.48 672.76 L54.11 672.87 A2.3622 2.3622 0 0 1 58.83 672.88 L96.92
						 673 A2.3622 2.3622 0 0 1 101.64 673.01 L106.37 673.03" class="st4"/>
		</g>
		<g id="shape2710-284" v:mID="2710" v:groupContext="shape" v:layerMember="0" transform="translate(546.956,-477.525)">
			<title>动态连接线.2710</title>
			<path d="M0 658.69 L7.64 658.69 A2.3622 2.3622 0 1 1 12.36 658.69 L20.63 658.69" class="st4"/>
		</g>
		<g id="shape2711-291" v:mID="2711" v:groupContext="shape" v:layerMember="0" transform="translate(622.917,-477.525)">
			<title>动态连接线.2711</title>
			<path d="M0 658.69 L8.19 658.69 A2.3622 2.3622 0 1 1 12.92 658.69 L51.42 658.69 A2.3622 2.3622 0 0 1 56.14 658.69 L114.59
						 658.69 L114.59 618.48 L55.78 618.48 A2.3622 2.3622 -180 0 0 51.05 618.48 L12.92 618.48 A2.3622 2.3622 -180
						 0 0 8.19 618.48 L-25.3 618.48 A2.3622 2.3622 -180 0 0 -30.03 618.48 L-63.6 618.48 A2.3622 2.3622 -180 0
						 0 -68.32 618.48 L-101.26 618.48 A2.3622 2.3622 -180 1 0 -105.99 618.48 L-136.02 618.48 A2.3622 2.3622 -180
						 1 0 -140.74 618.48 L-178.95 618.48 A2.3622 2.3622 -180 0 0 -183.67 618.48 L-216.18 618.48 A2.3622 2.3622
						 -180 1 0 -220.9 618.48 L-262.96 618.48 A2.3622 2.3622 -180 1 0 -267.69 618.48 L-301.26 618.48 A2.3622 2.3622
						 -180 0 0 -305.98 618.48 L-346.55 618.48 A2.3622 2.3622 -180 0 0 -351.28 618.48 L-385.83 618.48 A2.3622 2.3622
						 -180 1 0 -390.55 618.48 L-430.15 618.48 A2.3622 2.3622 -180 0 0 -434.88 618.48 L-475.54 618.48 A2.3622 2.3622
						 -180 0 0 -480.26 618.48 L-485 618.48 L-485 658.69 L-480.26 658.69 A2.3622 2.3622 0 0 1 -475.54 658.69 L-460.18
						 658.69" class="st4"/>
		</g>
		<g id="shape2712-298" v:mID="2712" v:groupContext="shape" v:layerMember="0" transform="translate(704.847,-394.193)">
			<title>动态连接线.2712</title>
			<path d="M0 658.8 L31.54 658.8 L31.54 618.18 L-25.4 618.18 A2.3622 2.3622 -180 0 0 -30.13 618.18 L-69.01 618.18 A2.3622
						 2.3622 -180 1 0 -73.74 618.18 L-107.24 618.18 A2.3622 2.3622 -180 1 0 -111.97 618.18 L-145.53 618.18 A2.3622
						 2.3622 -180 1 0 -150.25 618.18 L-183.2 618.18 A2.3622 2.3622 -180 0 0 -187.92 618.18 L-217.95 618.18 A2.3622
						 2.3622 -180 1 0 -222.67 618.18 L-260.63 618.18 A2.3622 2.3622 -180 0 0 -265.35 618.18 L-298.11 618.18 A2.3622
						 2.3622 -180 0 0 -302.83 618.18 L-344.9 618.18 A2.3622 2.3622 -180 0 0 -349.63 618.18 L-383.19 618.18 A2.3622
						 2.3622 -180 0 0 -387.91 618.18 L-428.44 618.18 A2.3622 2.3622 -180 0 0 -433.17 618.18 L-467.76 618.18 A2.3622
						 2.3622 -180 0 0 -472.48 618.18 L-512.11 618.18 A2.3622 2.3622 -180 0 0 -516.83 618.18 L-557.47 618.18 A2.3622
						 2.3622 -180 0 0 -562.19 618.18 L-566.93 618.18 L-566.93 658.58 L-562.19 658.58 A2.3622 2.3622 0 0 1 -557.47
						 658.58 L-542.15 658.58" class="st4"/>
		</g>
		<g id="shape2713-305" v:mID="2713" v:groupContext="shape" v:layerMember="0" transform="translate(59.2272,-560.75)">
			<title>动态连接线.2713</title>
			<path d="M0 658.69 L-10.63 658.69 L-10.63 621.05 L83.43 621.05 A2.3622 2.3622 0 1 1 88.15 621.05 L128.81 621.05 A2.3622
						 2.3622 0 0 1 133.53 621.05 L173.14 621.05 A2.3622 2.3622 0 1 1 177.86 621.05 L212.41 621.05 A2.3622 2.3622
						 0 1 1 217.13 621.05 L257.71 621.05 A2.3622 2.3622 0 1 1 262.43 621.05 L296 621.05 A2.3622 2.3622 0 0 1 300.73
						 621.05 L342.79 621.05 A2.3622 2.3622 0 0 1 347.51 621.05 L379.97 621.05 A2.3622 2.3622 0 0 1 384.7 621.05
						 L422.95 621.05 A2.3622 2.3622 0 0 1 427.67 621.05 L457.7 621.05 A2.3622 2.3622 0 0 1 462.42 621.05 L495.36
						 621.05 A2.3622 2.3622 0 1 1 500.09 621.05 L533.66 621.05 A2.3622 2.3622 0 0 1 538.39 621.05 L571.88 621.05
						 A2.3622 2.3622 0 1 1 576.61 621.05 L614.62 621.05 A2.3622 2.3622 0 0 1 619.34 621.05 L676.8 621.05 L676.8
						 658.69 L644.65 658.69" class="st4"/>
		</g>
		<g id="shape2714-312" v:mID="2714" v:groupContext="shape" v:layerMember="0" transform="translate(704.809,-308.491)">
			<title>动态连接线.2714</title>
			<path d="M0 658.87 L33.82 658.87 L33.82 621.03 L-25.29 621.03 A2.3622 2.3622 -180 0 0 -30.02 621.03 L-68.98 621.03 A2.3622
						 2.3622 -180 1 0 -73.7 621.03 L-107.27 621.03 A2.3622 2.3622 -180 0 0 -111.99 621.03 L-145.49 621.03 A2.3622
						 2.3622 -180 1 0 -150.22 621.03 L-183.16 621.03 A2.3622 2.3622 -180 0 0 -187.88 621.03 L-217.91 621.03 A2.3622
						 2.3622 -180 1 0 -222.63 621.03 L-260.56 621.03 A2.3622 2.3622 -180 0 0 -265.28 621.03 L-298.07 621.03 A2.3622
						 2.3622 -180 0 0 -302.8 621.03 L-344.93 621.03 A2.3622 2.3622 -180 0 0 -349.65 621.03 L-383.15 621.03 A2.3622
						 2.3622 -180 0 0 -387.88 621.03 L-428.37 621.03 A2.3622 2.3622 -180 0 0 -433.09 621.03 L-467.72 621.03 A2.3622
						 2.3622 -180 0 0 -472.44 621.03 L-512.09 621.03 A2.3622 2.3622 -180 1 0 -516.81 621.03 L-557.43 621.03 A2.3622
						 2.3622 -180 0 0 -562.15 621.03 L-566.89 621.03 L-566.89 658.51 L-562.15 658.51 A2.3622 2.3622 0 0 1 -557.43
						 658.51 L-516.81 658.51 A2.3622 2.3622 0 1 1 -512.09 658.51 L-472.44 658.51 A2.3622 2.3622 0 0 1 -467.72
						 658.51 L-458.39 658.51" class="st4"/>
		</g>
		<g id="shape2715-319" v:mID="2715" v:groupContext="shape" v:layerMember="0" transform="translate(246.419,-230.68)">
			<title>动态连接线.2715</title>
			<path d="M0 672.09 L-9.33 672.09 A2.3622 2.3622 -180 0 0 -14.05 672.09 L-53.69 672.09 A2.3622 2.3622 -180 0 0 -58.42
						 672.09 L-99.04 672.09 A2.3622 2.3622 -180 0 0 -103.76 672.09 L-108.5 672.09 L-108.5 633.93 L-103.76 633.93
						 A2.3622 2.3622 0 0 1 -99.04 633.93 L-58.42 633.93 A2.3622 2.3622 0 1 1 -53.69 633.93 L-14.05 633.93 A2.3622
						 2.3622 0 1 1 -9.33 633.93 L25.3 633.93 A2.3622 2.3622 0 1 1 30.03 633.93 L70.51 633.93 A2.3622 2.3622 0
						 1 1 75.24 633.93 L108.68 633.93 A2.3622 2.3622 0 1 1 113.4 633.93 L155.59 633.93 A2.3622 2.3622 0 0 1 160.32
						 633.93 L193.11 633.93 A2.3622 2.3622 0 1 1 197.83 633.93 L235.76 633.93 A2.3622 2.3622 0 0 1 240.48 633.93
						 L270.51 633.93 A2.3622 2.3622 0 0 1 275.23 633.93 L308.17 633.93 A2.3622 2.3622 0 1 1 312.9 633.93 L346.39
						 633.93 A2.3622 2.3622 0 1 1 351.12 633.93 L384.69 633.93 A2.3622 2.3622 0 1 1 389.41 633.93 L428.18 633.93
						 A2.3622 2.3622 0 1 1 432.91 633.93 L490.34 633.93 L490.34 673.64 L432.61 673.64 A2.3622 2.3622 -180 0 0
						 427.88 673.64 L389.41 673.64 A2.3622 2.3622 -180 0 0 384.69 673.64 L376.42 673.64" class="st4"/>
		</g>
		<g id="shape2716-326" v:mID="2716" v:groupContext="shape" v:layerMember="0" transform="translate(469.553,-127.022)">
			<title>动态连接线.2716</title>
			<path d="M0 658.69 L12.62 658.69 A2.3622 2.3622 0 1 1 17.35 658.69 L22.07 658.69" class="st4"/>
		</g>
		<g id="shape2717-333" v:mID="2717" v:groupContext="shape" v:layerMember="0" transform="translate(546.956,-127.022)">
			<title>动态连接线.2717</title>
			<path d="M0 658.69 L7.64 658.69 A2.3622 2.3622 0 1 1 12.36 658.69 L45.86 658.69 A2.3622 2.3622 0 1 1 50.58 658.69 L84.15
						 658.69 A2.3622 2.3622 0 1 1 88.88 658.69 L101.59 658.69" class="st4"/>
		</g>
		<g id="shape2718-340" v:mID="2718" v:groupContext="shape" v:layerMember="0" transform="translate(703.876,-127.022)">
			<title>动态连接线.2718</title>
			<path d="M0 658.69 L33.57 658.69 L33.57 617.67 L-25.22 617.67 A2.3622 2.3622 -180 0 0 -29.94 617.67 L-68.04 617.67 A2.3622
						 2.3622 -180 0 0 -72.77 617.67 L-106.34 617.67 A2.3622 2.3622 -180 0 0 -111.06 617.67 L-144.56 617.67 A2.3622
						 2.3622 -180 1 0 -149.28 617.67 L-182.22 617.67 A2.3622 2.3622 -180 0 0 -186.95 617.67 L-216.98 617.67 A2.3622
						 2.3622 -180 0 0 -221.7 617.67 L-259.63 617.67 A2.3622 2.3622 -180 1 0 -264.35 617.67 L-297.14 617.67 A2.3622
						 2.3622 -180 0 0 -301.86 617.67 L-344.06 617.67 A2.3622 2.3622 -180 1 0 -348.79 617.67 L-382.22 617.67 A2.3622
						 2.3622 -180 0 0 -386.94 617.67 L-427.43 617.67 A2.3622 2.3622 -180 0 0 -432.15 617.67 L-466.79 617.67 A2.3622
						 2.3622 -180 0 0 -471.51 617.67 L-511.15 617.67 A2.3622 2.3622 -180 0 0 -515.88 617.67 L-556.5 617.67 A2.3622
						 2.3622 -180 0 0 -561.22 617.67 L-565.96 617.67 L-565.96 658.69 L-561.22 658.69 A2.3622 2.3622 0 0 1 -556.5
						 658.69 L-515.88 658.69 A2.3622 2.3622 0 1 1 -511.15 658.69 L-471.51 658.69 A2.3622 2.3622 0 1 1 -466.79
						 658.69 L-432.15 658.69 A2.3622 2.3622 0 1 1 -427.43 658.69 L-386.94 658.69 A2.3622 2.3622 0 1 1 -382.22
						 658.69 L-348.79 658.69 A2.3622 2.3622 0 1 1 -344.06 658.69 L-301.86 658.69 A2.3622 2.3622 0 1 1 -297.14
						 658.69 L-289.66 658.69" class="st4"/>
		</g>
		<g id="shape2719-347" v:mID="2719" v:groupContext="shape" v:layerMember="0" transform="translate(197.467,-597.42)">
			<title>动态连接线.2719</title>
			<path d="M-7.07 665.78 L-7.07 648.06 L-52.45 648.06 L-52.45 1253.95 L-7.11 1253.95 L-7.11 891.39" class="st4"/>
		</g>
		<g id="shape2720-354" v:mID="2720" v:groupContext="shape" v:layerMember="0" transform="translate(266.954,-597.42)">
			<title>动态连接线.2720</title>
			<path d="M7.04 665.78 L7.04 648.06 L-32.23 648.06 L-32.23 1253.2 L7.13 1253.2 L7.13 1068.41" class="st4"/>
		</g>
		<g id="shape2721-361" v:mID="2721" v:groupContext="shape" v:layerMember="0" transform="translate(364.608,-597.42)">
			<title>动态连接线.2721</title>
			<path d="M-7.02 665.78 L-7.02 648.06 L-45.31 648.06 L-45.31 1252.46 L-7.16 1252.46 L-7.16 1068.14" class="st4"/>
		</g>
		<g id="shape2722-368" v:mID="2722" v:groupContext="shape" v:layerMember="0" transform="translate(434.639,-597.42)">
			<title>动态连接线.2722</title>
			<path d="M6.93 665.78 L6.93 648.06 L-30.26 648.06 L-30.26 1253.95 L7.25 1253.95 L7.25 1158.67" class="st4"/>
		</g>
		<g id="shape2723-375" v:mID="2723" v:groupContext="shape" v:layerMember="0" transform="translate(526.351,-597.42)">
			<title>动态连接线.2723</title>
			<path d="M-7.06 665.78 L-7.06 647.47 L-41.81 647.47 L-41.81 1255.08 L-7.11 1255.08 L-7.11 1244.45" class="st4"/>
		</g>
		<g id="shape2724-382" v:mID="2724" v:groupContext="shape" v:layerMember="0" transform="translate(602.299,-597.42)">
			<title>动态连接线.2724</title>
			<path d="M-7.05 665.78 L-7.05 648.06 L-45.34 648.06 L-45.34 1255.79 L-7.12 1255.79 L-7.12 1069.96" class="st4"/>
		</g>
		<g id="shape2725-389" v:mID="2725" v:groupContext="shape" v:layerMember="0" transform="translate(669.123,-597.42)">
			<title>动态连接线.2725</title>
			<path d="M7.09 665.78 L7.09 646.34 L-35.65 646.34 L-35.65 1253.95 L7.09 1253.95 L7.09 1158.67" class="st4"/>
		</g>
		<g id="shape2726-396" v:mID="2726" v:groupContext="shape" v:layerMember="0" transform="translate(218.028,-394.396)">
			<title>动态连接线.2726</title>
			<path d="M0 658.79 L14.34 658.77 A2.3622 2.3622 0 1 1 19.06 658.77 L53.67 658.73 A2.3622 2.3622 0 1 1 58.39 658.73 L98.91
						 658.69 A2.3622 2.3622 0 1 1 103.63 658.68 L137.16 658.65 A2.3622 2.3622 0 1 1 141.89 658.65 L183.98 658.61
						 A2.3622 2.3622 0 0 1 188.71 658.6 L196.19 658.59" class="st4"/>
		</g>
		<g id="shape2727-403" v:mID="2727" v:groupContext="shape" v:layerMember="0" transform="translate(469.553,-408.463)">
			<title>动态连接线.2727</title>
			<path d="M0 672.66 L12.62 672.69 A2.3622 2.3622 0 0 1 17.35 672.7 L47.37 672.77 A2.3622 2.3622 0 0 1 52.1 672.78 L85.04
						 672.85 A2.3622 2.3622 0 1 1 89.76 672.86 L123.3 672.94 A2.3622 2.3622 0 0 1 128.02 672.95 L161.56 673.02
						 A2.3622 2.3622 0 1 1 166.28 673.04 L179.96 673.07" class="st4"/>
		</g>
		<g id="shape2728-410" v:mID="2728" v:groupContext="shape" v:layerMember="0" transform="translate(301.751,-322.771)">
			<title>动态连接线.2728</title>
			<path d="M0 672.79 L15.18 672.8 A2.3622 2.3622 0 0 1 19.91 672.8 L53.38 672.82 A2.3622 2.3622 0 0 1 58.11 672.82 L100.26
						 672.84 A2.3622 2.3622 0 0 1 104.99 672.85 L137.77 672.87 A2.3622 2.3622 0 1 1 142.5 672.87 L180.42 672.89
						 A2.3622 2.3622 0 0 1 185.15 672.89 L215.18 672.91 A2.3622 2.3622 0 0 1 219.9 672.91 L252.84 672.93 A2.3622
						 2.3622 0 0 1 257.57 672.93 L265.76 672.94" class="st4"/>
		</g>
		<g id="shape2729-417" v:mID="2729" v:groupContext="shape" v:layerMember="0" transform="translate(622.84,-322.59)">
			<title>动态连接线.2729</title>
			<path d="M0 672.76 L8.27 672.82 A2.3622 2.3622 0 0 1 12.99 672.86 L26.64 672.97" class="st4"/>
		</g>
		<g id="shape2730-424" v:mID="2730" v:groupContext="shape" v:layerMember="0" transform="translate(301.751,-217.417)">
			<title>动态连接线.2730</title>
			<path d="M0 658.83 L15.18 658.68 A2.3622 2.3622 0 1 1 19.91 658.63 L28.03 658.55" class="st4"/>
		</g>
		<g id="shape2731-431" v:mID="2731" v:groupContext="shape" v:layerMember="0" transform="translate(385.118,-230.815)">
			<title>动态连接线.2731</title>
			<path d="M0 671.95 L10.63 673.77 L16.89 673.77 A2.3622 2.3622 0 1 1 21.62 673.77 L54.41 673.77 A2.3622 2.3622 0 1 1 59.13
						 673.77 L97.06 673.77 A2.3622 2.3622 0 1 1 101.78 673.77 L131.81 673.77 A2.3622 2.3622 0 1 1 136.53 673.77
						 L169.47 673.77 A2.3622 2.3622 0 0 1 174.2 673.77 L182.39 673.77" class="st4"/>
		</g>
		<g id="shape2732-438" v:mID="2732" v:groupContext="shape" v:layerMember="0" transform="translate(491.572,-41.2451)">
			<title>动态连接线.2732</title>
			<path d="M0 658.69 L-4.67 658.69 A2.3622 2.3622 -180 0 0 -9.4 658.69 L-47.32 658.69 A2.3622 2.3622 -180 0 0 -52.05 658.69
						 L-84.84 658.69 A2.3622 2.3622 -180 1 0 -89.56 658.69 L-131.76 658.69 A2.3622 2.3622 -180 0 0 -136.48 658.69
						 L-169.91 658.69 A2.3622 2.3622 -180 0 0 -174.64 658.69 L-215.13 658.69 A2.3622 2.3622 -180 0 0 -219.85 658.69
						 L-254.48 658.69 A2.3622 2.3622 -180 0 0 -259.21 658.69 L-298.85 658.69 A2.3622 2.3622 -180 0 0 -303.57 658.69
						 L-344.19 658.69 A2.3622 2.3622 -180 0 0 -348.92 658.69 L-353.65 658.69 L-353.65 619.62 L-348.92 619.62 A2.3622
						 2.3622 0 1 1 -344.19 619.62 L-303.57 619.62 A2.3622 2.3622 0 0 1 -298.85 619.62 L-259.21 619.62 A2.3622
						 2.3622 0 0 1 -254.48 619.62 L-219.85 619.62 A2.3622 2.3622 0 0 1 -215.13 619.62 L-174.64 619.62 A2.3622
						 2.3622 0 0 1 -169.91 619.62 L-136.48 619.62 A2.3622 2.3622 0 0 1 -131.76 619.62 L-89.56 619.62 A2.3622 2.3622
						 0 1 1 -84.84 619.62 L-52.05 619.62 A2.3622 2.3622 0 1 1 -47.32 619.62 L-9.4 619.62 A2.3622 2.3622 0 1 1
						 -4.67 619.62 L25.32 619.62 A2.3622 2.3622 0 1 1 30.05 619.62 L63.02 619.62 A2.3622 2.3622 0 1 1 67.74 619.62
						 L101.24 619.62 A2.3622 2.3622 0 1 1 105.96 619.62 L139.54 619.62 A2.3622 2.3622 0 0 1 144.26 619.62 L182.28
						 619.62 A2.3622 2.3622 0 1 1 187 619.62 L247.42 619.62 L247.42 658.69 L187 658.69 A2.3622 2.3622 -180 1 0
						 182.28 658.69 L144.26 658.69 A2.3622 2.3622 -180 0 0 139.54 658.69 L105.96 658.69 A2.3622 2.3622 -180 1
						 0 101.24 658.69 L67.74 658.69 A2.3622 2.3622 -180 0 0 63.02 658.69 L55.33 658.69" class="st4"/>
		</g>
	</g>
</svg>
