<?xml version="1.0" encoding="UTF-8" standalone="no"?>
<!DOCTYPE svg PUBLIC "-//W3C//DTD SVG 1.1//EN" "http://www.w3.org/Graphics/SVG/1.1/DTD/svg11.dtd">
<!-- 由 Microsoft Visio, SVG Export 生成 DancingLinks8.svg 页-1 -->
<svg xmlns="http://www.w3.org/2000/svg" xmlns:xlink="http://www.w3.org/1999/xlink" xmlns:ev="http://www.w3.org/2001/xml-events"
		xmlns:v="http://schemas.microsoft.com/visio/2003/SVGExtensions/" width="10.4297in" height="9.21256in"
		viewBox="0 0 750.935 663.305" xml:space="preserve" color-interpolation-filters="sRGB" class="st11">
	<v:documentProperties v:langID="2052" v:metric="true" v:viewMarkup="false"/>

	<style type="text/css">
	<![CDATA[
		.st1 {fill:#ffffff;stroke:#000000;stroke-linecap:round;stroke-linejoin:round;stroke-width:0.75}
		.st2 {fill:#000000;font-family:Cambria Math;font-size:1.5em}
		.st3 {fill:none;stroke:none;stroke-linecap:round;stroke-linejoin:round;stroke-width:0.75}
		.st4 {marker-end:url(#mrkr1-108);marker-start:url(#mrkr1-106);stroke:#000000;stroke-linecap:round;stroke-linejoin:round;stroke-width:2}
		.st5 {fill:#000000;fill-opacity:1;stroke:#000000;stroke-opacity:1;stroke-width:0.38167938931298}
		.st6 {marker-end:url(#mrkr1-163);stroke:#c05046;stroke-linecap:round;stroke-linejoin:round;stroke-width:2}
		.st7 {fill:#c05046;fill-opacity:1;stroke:#c05046;stroke-opacity:1;stroke-width:0.38167938931298}
		.st8 {marker-start:url(#mrkr1-202);stroke:#c05046;stroke-linecap:round;stroke-linejoin:round;stroke-width:2}
		.st9 {marker-end:url(#mrkr3-443);marker-start:url(#mrkr3-441);stroke:#4bacc6;stroke-linecap:round;stroke-linejoin:round;stroke-width:2}
		.st10 {fill:#4bacc6;fill-opacity:1;stroke:#4bacc6;stroke-opacity:1;stroke-width:0.38167938931298}
		.st11 {fill:none;fill-rule:evenodd;font-size:12px;overflow:visible;stroke-linecap:square;stroke-miterlimit:3}
	]]>
	</style>

	<defs id="Markers">
		<g id="lend1">
			<path d="M 1 -1 L 0 0 L 1 1 " style="stroke-linecap:round;stroke-linejoin:round;fill:none"/>
		</g>
		<marker id="mrkr1-106" class="st5" v:arrowType="1" v:arrowSize="3" orient="auto" markerUnits="strokeWidth"
				overflow="visible">
			<use xlink:href="#lend1" transform="scale(2.62) "/>
		</marker>
		<marker id="mrkr1-108" class="st5" v:arrowType="1" v:arrowSize="3" orient="auto" markerUnits="strokeWidth"
				overflow="visible">
			<use xlink:href="#lend1" transform="scale(-2.62,-2.62) "/>
		</marker>
		<marker id="mrkr1-163" class="st7" v:arrowType="1" v:arrowSize="3" orient="auto" markerUnits="strokeWidth"
				overflow="visible">
			<use xlink:href="#lend1" transform="scale(-2.62,-2.62) "/>
		</marker>
		<marker id="mrkr1-202" class="st7" v:arrowType="1" v:arrowSize="3" orient="auto" markerUnits="strokeWidth"
				overflow="visible">
			<use xlink:href="#lend1" transform="scale(2.62) "/>
		</marker>
		<g id="lend3">
			<path d="M 2 1 L 0 0 L 2 -1 " style="stroke-linecap:round;stroke-linejoin:round;fill:none"/>
		</g>
		<marker id="mrkr3-441" class="st10" v:arrowType="3" v:arrowSize="3" orient="auto" markerUnits="strokeWidth"
				overflow="visible">
			<use xlink:href="#lend3" transform="scale(2.62) "/>
		</marker>
		<marker id="mrkr3-443" class="st10" v:arrowType="3" v:arrowSize="3" orient="auto" markerUnits="strokeWidth"
				overflow="visible">
			<use xlink:href="#lend3" transform="scale(-2.62,-2.62) "/>
		</marker>
	</defs>
	<g v:mID="0" v:index="1" v:groupContext="foregroundPage">
		<title>页-1</title>
		<v:pageProperties v:drawingScale="0.0393701" v:pageScale="0.0393701" v:drawingUnits="24" v:shadowOffsetX="8.50394"
				v:shadowOffsetY="-8.50394"/>
		<v:layer v:name="连接线" v:index="0"/>
		<g id="shape2815-1" v:mID="2815" v:groupContext="shape" transform="translate(185.141,-455.044)">
			<title>框.2815</title>
			<desc>[1, 1]</desc>
			<v:userDefs>
				<v:ud v:nameU="visVersion" v:val="VT0(15):26"/>
			</v:userDefs>
			<v:textBlock v:margins="rect(4,4,4,4)" v:tabSpace="42.5197"/>
			<v:textRect cx="27.6661" cy="633.722" width="55.34" height="59.1654"/>
			<rect x="0" y="604.139" width="55.3323" height="59.1654" class="st1"/>
			<text x="7.57" y="639.12" class="st2" v:langID="2052"><v:paragraph v:horizAlign="1"/><v:tabList/>[1, 1]</text>		</g>
		<g id="shape2816-4" v:mID="2816" v:groupContext="shape" transform="translate(352.333,-455.374)">
			<title>框.2816</title>
			<desc>[1, 3]</desc>
			<v:userDefs>
				<v:ud v:nameU="visVersion" v:val="VT0(15):26"/>
			</v:userDefs>
			<v:textBlock v:margins="rect(4,4,4,4)" v:tabSpace="42.5197"/>
			<v:textRect cx="27.6661" cy="633.722" width="55.34" height="59.1654"/>
			<rect x="0" y="604.139" width="55.3323" height="59.1654" class="st1"/>
			<text x="7.57" y="639.12" class="st2" v:langID="2052"><v:paragraph v:horizAlign="1"/><v:tabList/>[1, 3]</text>		</g>
		<g id="shape2817-7" v:mID="2817" v:groupContext="shape" transform="translate(268.826,-286.191)">
			<title>框.2817</title>
			<desc>[3, 2]</desc>
			<v:userDefs>
				<v:ud v:nameU="visVersion" v:val="VT0(15):26"/>
			</v:userDefs>
			<v:textBlock v:margins="rect(4,4,4,4)" v:tabSpace="42.5197"/>
			<v:textRect cx="27.6661" cy="633.722" width="55.34" height="59.1654"/>
			<rect x="0" y="604.139" width="55.3323" height="59.1654" class="st1"/>
			<text x="7.57" y="639.12" class="st2" v:langID="2052"><v:paragraph v:horizAlign="1"/><v:tabList/>[3, 2]</text>		</g>
		<g id="shape2818-10" v:mID="2818" v:groupContext="shape" transform="translate(185.103,-371.819)">
			<title>框.2818</title>
			<desc>[2, 1]</desc>
			<v:userDefs>
				<v:ud v:nameU="visVersion" v:val="VT0(15):26"/>
			</v:userDefs>
			<v:textBlock v:margins="rect(4,4,4,4)" v:tabSpace="42.5197"/>
			<v:textRect cx="27.6661" cy="633.722" width="55.34" height="59.1654"/>
			<rect x="0" y="604.139" width="55.3323" height="59.1654" class="st1"/>
			<text x="7.57" y="639.12" class="st2" v:langID="2052"><v:paragraph v:horizAlign="1"/><v:tabList/>[2, 1]</text>		</g>
		<g id="shape2819-13" v:mID="2819" v:groupContext="shape" transform="translate(436.628,-372.013)">
			<title>框.2819</title>
			<desc>[2, 4]</desc>
			<v:userDefs>
				<v:ud v:nameU="visVersion" v:val="VT0(15):26"/>
			</v:userDefs>
			<v:textBlock v:margins="rect(4,4,4,4)" v:tabSpace="42.5197"/>
			<v:textRect cx="27.6661" cy="633.722" width="55.34" height="59.1654"/>
			<rect x="0" y="604.139" width="55.3323" height="59.1654" class="st1"/>
			<text x="7.57" y="639.12" class="st2" v:langID="2052"><v:paragraph v:horizAlign="1"/><v:tabList/>[2, 4]</text>		</g>
		<g id="shape2820-16" v:mID="2820" v:groupContext="shape" transform="translate(436.628,-104.541)">
			<title>框.2820</title>
			<desc>[5, 4]</desc>
			<v:userDefs>
				<v:ud v:nameU="visVersion" v:val="VT0(15):26"/>
			</v:userDefs>
			<v:textBlock v:margins="rect(4,4,4,4)" v:tabSpace="42.5197"/>
			<v:textRect cx="27.6661" cy="633.722" width="55.34" height="59.1654"/>
			<rect x="0" y="604.139" width="55.3323" height="59.1654" class="st1"/>
			<text x="7.57" y="639.12" class="st2" v:langID="2052"><v:paragraph v:horizAlign="1"/><v:tabList/>[5, 4]</text>		</g>
		<g id="shape2821-19" v:mID="2821" v:groupContext="shape" transform="translate(268.826,-194.801)">
			<title>框.2821</title>
			<desc>[4, 2]</desc>
			<v:userDefs>
				<v:ud v:nameU="visVersion" v:val="VT0(15):26"/>
			</v:userDefs>
			<v:textBlock v:margins="rect(4,4,4,4)" v:tabSpace="42.5197"/>
			<v:textRect cx="27.6661" cy="633.722" width="55.34" height="59.1654"/>
			<rect x="0" y="604.139" width="55.3323" height="59.1654" class="st1"/>
			<text x="7.57" y="639.12" class="st2" v:langID="2052"><v:paragraph v:horizAlign="1"/><v:tabList/>[4, 2]</text>		</g>
		<g id="shape2822-22" v:mID="2822" v:groupContext="shape" transform="translate(352.193,-195.072)">
			<title>框.2822</title>
			<desc>[4, 3]</desc>
			<v:userDefs>
				<v:ud v:nameU="visVersion" v:val="VT0(15):26"/>
			</v:userDefs>
			<v:textBlock v:margins="rect(4,4,4,4)" v:tabSpace="42.5197"/>
			<v:textRect cx="27.6661" cy="633.722" width="55.34" height="59.1654"/>
			<rect x="0" y="604.139" width="55.3323" height="59.1654" class="st1"/>
			<text x="7.57" y="639.12" class="st2" v:langID="2052"><v:paragraph v:horizAlign="1"/><v:tabList/>[4, 3]</text>		</g>
		<g id="shape2823-25" v:mID="2823" v:groupContext="shape" transform="translate(65.017,-468.138)">
			<title>工作表.2823</title>
			<desc>sub 1</desc>
			<v:textBlock v:margins="rect(4,4,4,4)" v:tabSpace="42.5197"/>
			<v:textRect cx="34.1758" cy="647.361" width="68.36" height="31.8872"/>
			<rect x="0" y="631.417" width="68.3516" height="31.8872" class="st3"/>
			<text x="13.45" y="652.76" class="st2" v:langID="2052"><v:paragraph v:horizAlign="1"/><v:tabList/>sub 1</text>		</g>
		<g id="shape2824-28" v:mID="2824" v:groupContext="shape" transform="translate(0.375,-291.949)">
			<title>工作表.2824</title>
			<desc>m</desc>
			<v:textBlock v:margins="rect(4,4,4,4)" v:tabSpace="42.5197"/>
			<v:textRect cx="24.157" cy="647.361" width="48.32" height="31.8872"/>
			<rect x="0" y="631.417" width="48.314" height="31.8872" class="st3"/>
			<text x="16.67" y="652.76" class="st2" v:langID="2052"><v:paragraph v:horizAlign="1"/><v:tabList/>m</text>		</g>
		<g id="shape2825-31" v:mID="2825" v:groupContext="shape" transform="translate(436.305,-631.042)">
			<title>工作表.2825</title>
			<desc>n</desc>
			<v:textBlock v:margins="rect(4,4,4,4)" v:tabSpace="42.5197"/>
			<v:textRect cx="24.157" cy="647.361" width="48.32" height="31.8872"/>
			<rect x="0" y="631.417" width="48.314" height="31.8872" class="st3"/>
			<text x="19.13" y="652.76" class="st2" v:langID="2052"><v:paragraph v:horizAlign="1"/><v:tabList/>n</text>		</g>
		<g id="shape2826-34" v:mID="2826" v:groupContext="shape" transform="translate(64.8136,-384.913)">
			<title>工作表.2826</title>
			<desc>sub 2</desc>
			<v:textBlock v:margins="rect(4,4,4,4)" v:tabSpace="42.5197"/>
			<v:textRect cx="34.1758" cy="647.361" width="68.36" height="31.8872"/>
			<rect x="0" y="631.417" width="68.3516" height="31.8872" class="st3"/>
			<text x="13.45" y="652.76" class="st2" v:langID="2052"><v:paragraph v:horizAlign="1"/><v:tabList/>sub 2</text>		</g>
		<g id="shape2827-37" v:mID="2827" v:groupContext="shape" transform="translate(64.7754,-298.751)">
			<title>工作表.2827</title>
			<desc>sub 3</desc>
			<v:textBlock v:margins="rect(4,4,4,4)" v:tabSpace="42.5197"/>
			<v:textRect cx="34.1758" cy="647.361" width="68.36" height="31.8872"/>
			<rect x="0" y="631.417" width="68.3516" height="31.8872" class="st3"/>
			<text x="13.45" y="652.76" class="st2" v:langID="2052"><v:paragraph v:horizAlign="1"/><v:tabList/>sub 3</text>		</g>
		<g id="shape2828-40" v:mID="2828" v:groupContext="shape" transform="translate(65.106,-207.784)">
			<title>工作表.2828</title>
			<desc>sub 4</desc>
			<v:textBlock v:margins="rect(4,4,4,4)" v:tabSpace="42.5197"/>
			<v:textRect cx="34.1758" cy="647.361" width="68.36" height="31.8872"/>
			<rect x="0" y="631.417" width="68.3516" height="31.8872" class="st3"/>
			<text x="13.45" y="652.76" class="st2" v:langID="2052"><v:paragraph v:horizAlign="1"/><v:tabList/>sub 4</text>		</g>
		<g id="shape2829-43" v:mID="2829" v:groupContext="shape" transform="translate(65.0806,-117.195)">
			<title>工作表.2829</title>
			<desc>sub 5</desc>
			<v:textBlock v:margins="rect(4,4,4,4)" v:tabSpace="42.5197"/>
			<v:textRect cx="34.1758" cy="647.361" width="68.36" height="31.8872"/>
			<rect x="0" y="631.417" width="68.3516" height="31.8872" class="st3"/>
			<text x="13.45" y="652.76" class="st2" v:langID="2052"><v:paragraph v:horizAlign="1"/><v:tabList/>sub 5</text>		</g>
		<g id="shape2830-46" v:mID="2830" v:groupContext="shape" transform="translate(514.031,-455.044)">
			<title>框.2830</title>
			<desc>[1, 5]</desc>
			<v:userDefs>
				<v:ud v:nameU="visVersion" v:val="VT0(15):26"/>
			</v:userDefs>
			<v:textBlock v:margins="rect(4,4,4,4)" v:tabSpace="42.5197"/>
			<v:textRect cx="27.6661" cy="633.722" width="55.34" height="59.1654"/>
			<rect x="0" y="604.139" width="55.3323" height="59.1654" class="st1"/>
			<text x="7.57" y="639.12" class="st2" v:langID="2052"><v:paragraph v:horizAlign="1"/><v:tabList/>[1, 5]</text>		</g>
		<g id="shape2831-49" v:mID="2831" v:groupContext="shape" transform="translate(589.992,-455.044)">
			<title>框.2831</title>
			<desc>[1, 6]</desc>
			<v:userDefs>
				<v:ud v:nameU="visVersion" v:val="VT0(15):26"/>
			</v:userDefs>
			<v:textBlock v:margins="rect(4,4,4,4)" v:tabSpace="42.5197"/>
			<v:textRect cx="27.6661" cy="633.722" width="55.34" height="59.1654"/>
			<rect x="0" y="604.139" width="55.3323" height="59.1654" class="st1"/>
			<text x="7.57" y="639.12" class="st2" v:langID="2052"><v:paragraph v:horizAlign="1"/><v:tabList/>[1, 6]</text>		</g>
		<g id="shape2832-52" v:mID="2832" v:groupContext="shape" transform="translate(671.922,-371.607)">
			<title>框.2832</title>
			<desc>[2, 7]</desc>
			<v:userDefs>
				<v:ud v:nameU="visVersion" v:val="VT0(15):26"/>
			</v:userDefs>
			<v:textBlock v:margins="rect(4,4,4,4)" v:tabSpace="42.5197"/>
			<v:textRect cx="27.6661" cy="633.722" width="55.34" height="59.1654"/>
			<rect x="0" y="604.139" width="55.3323" height="59.1654" class="st1"/>
			<text x="7.57" y="639.12" class="st2" v:langID="2052"><v:paragraph v:horizAlign="1"/><v:tabList/>[2, 7]</text>		</g>
		<g id="shape2833-55" v:mID="2833" v:groupContext="shape" transform="translate(589.915,-286.043)">
			<title>框.2833</title>
			<desc>[3, 6]</desc>
			<v:userDefs>
				<v:ud v:nameU="visVersion" v:val="VT0(15):26"/>
			</v:userDefs>
			<v:textBlock v:margins="rect(4,4,4,4)" v:tabSpace="42.5197"/>
			<v:textRect cx="27.6661" cy="633.722" width="55.34" height="59.1654"/>
			<rect x="0" y="604.139" width="55.3323" height="59.1654" class="st1"/>
			<text x="7.57" y="639.12" class="st2" v:langID="2052"><v:paragraph v:horizAlign="1"/><v:tabList/>[3, 6]</text>		</g>
		<g id="shape2834-58" v:mID="2834" v:groupContext="shape" transform="translate(671.884,-285.83)">
			<title>框.2834</title>
			<desc>[3, 7]</desc>
			<v:userDefs>
				<v:ud v:nameU="visVersion" v:val="VT0(15):26"/>
			</v:userDefs>
			<v:textBlock v:margins="rect(4,4,4,4)" v:tabSpace="42.5197"/>
			<v:textRect cx="27.6661" cy="633.722" width="55.34" height="59.1654"/>
			<rect x="0" y="604.139" width="55.3323" height="59.1654" class="st1"/>
			<text x="7.57" y="639.12" class="st2" v:langID="2052"><v:paragraph v:horizAlign="1"/><v:tabList/>[3, 7]</text>		</g>
		<g id="shape2835-61" v:mID="2835" v:groupContext="shape" transform="translate(589.915,-193.251)">
			<title>框.2835</title>
			<desc>[4, 6]</desc>
			<v:userDefs>
				<v:ud v:nameU="visVersion" v:val="VT0(15):26"/>
			</v:userDefs>
			<v:textBlock v:margins="rect(4,4,4,4)" v:tabSpace="42.5197"/>
			<v:textRect cx="27.6661" cy="633.722" width="55.34" height="59.1654"/>
			<rect x="0" y="604.139" width="55.3323" height="59.1654" class="st1"/>
			<text x="7.57" y="639.12" class="st2" v:langID="2052"><v:paragraph v:horizAlign="1"/><v:tabList/>[4, 6]</text>		</g>
		<g id="shape2836-64" v:mID="2836" v:groupContext="shape" transform="translate(514.031,-104.541)">
			<title>框.2836</title>
			<desc>[5, 5]</desc>
			<v:userDefs>
				<v:ud v:nameU="visVersion" v:val="VT0(15):26"/>
			</v:userDefs>
			<v:textBlock v:margins="rect(4,4,4,4)" v:tabSpace="42.5197"/>
			<v:textRect cx="27.6661" cy="633.722" width="55.34" height="59.1654"/>
			<rect x="0" y="604.139" width="55.3323" height="59.1654" class="st1"/>
			<text x="7.57" y="639.12" class="st2" v:langID="2052"><v:paragraph v:horizAlign="1"/><v:tabList/>[5, 5]</text>		</g>
		<g id="shape2837-67" v:mID="2837" v:groupContext="shape" transform="translate(670.951,-104.541)">
			<title>框.2837</title>
			<desc>[5, 7]</desc>
			<v:userDefs>
				<v:ud v:nameU="visVersion" v:val="VT0(15):26"/>
			</v:userDefs>
			<v:textBlock v:margins="rect(4,4,4,4)" v:tabSpace="42.5197"/>
			<v:textRect cx="27.6661" cy="633.722" width="55.34" height="59.1654"/>
			<rect x="0" y="604.139" width="55.3323" height="59.1654" class="st1"/>
			<text x="7.57" y="639.12" class="st2" v:langID="2052"><v:paragraph v:horizAlign="1"/><v:tabList/>[5, 7]</text>		</g>
		<g id="shape2838-70" v:mID="2838" v:groupContext="shape" transform="translate(65.0297,-31.4186)">
			<title>工作表.2838</title>
			<desc>sub 6</desc>
			<v:textBlock v:margins="rect(4,4,4,4)" v:tabSpace="42.5197"/>
			<v:textRect cx="34.1758" cy="647.361" width="68.36" height="31.8872"/>
			<rect x="0" y="631.417" width="68.3516" height="31.8872" class="st3"/>
			<text x="13.45" y="652.76" class="st2" v:langID="2052"><v:paragraph v:horizAlign="1"/><v:tabList/>sub 6</text>		</g>
		<g id="shape2839-73" v:mID="2839" v:groupContext="shape" transform="translate(513.98,-18.7646)">
			<title>框.2839</title>
			<desc>[6, 5]</desc>
			<v:userDefs>
				<v:ud v:nameU="visVersion" v:val="VT0(15):26"/>
			</v:userDefs>
			<v:textBlock v:margins="rect(4,4,4,4)" v:tabSpace="42.5197"/>
			<v:textRect cx="27.6661" cy="633.722" width="55.34" height="59.1654"/>
			<rect x="0" y="604.139" width="55.3323" height="59.1654" class="st1"/>
			<text x="7.57" y="639.12" class="st2" v:langID="2052"><v:paragraph v:horizAlign="1"/><v:tabList/>[6, 5]</text>		</g>
		<g id="shape2840-76" v:mID="2840" v:groupContext="shape" transform="translate(185.141,-538.27)">
			<title>框.2840</title>
			<desc>1</desc>
			<v:userDefs>
				<v:ud v:nameU="visVersion" v:val="VT0(15):26"/>
			</v:userDefs>
			<v:textBlock v:margins="rect(4,4,4,4)" v:tabSpace="42.5197"/>
			<v:textRect cx="27.6661" cy="633.722" width="55.34" height="59.1654"/>
			<rect x="0" y="604.139" width="55.3323" height="59.1654" class="st1"/>
			<text x="22.68" y="639.12" class="st2" v:langID="2052"><v:paragraph v:horizAlign="1"/><v:tabList/>1</text>		</g>
		<g id="shape2841-79" v:mID="2841" v:groupContext="shape" transform="translate(268.737,-538.27)">
			<title>框.2841</title>
			<desc>2</desc>
			<v:userDefs>
				<v:ud v:nameU="visVersion" v:val="VT0(15):26"/>
			</v:userDefs>
			<v:textBlock v:margins="rect(4,4,4,4)" v:tabSpace="42.5197"/>
			<v:textRect cx="27.6661" cy="633.722" width="55.34" height="59.1654"/>
			<rect x="0" y="604.139" width="55.3323" height="59.1654" class="st1"/>
			<text x="22.68" y="639.12" class="st2" v:langID="2052"><v:paragraph v:horizAlign="1"/><v:tabList/>2</text>		</g>
		<g id="shape2842-82" v:mID="2842" v:groupContext="shape" transform="translate(352.333,-538.27)">
			<title>框.2842</title>
			<desc>3</desc>
			<v:userDefs>
				<v:ud v:nameU="visVersion" v:val="VT0(15):26"/>
			</v:userDefs>
			<v:textBlock v:margins="rect(4,4,4,4)" v:tabSpace="42.5197"/>
			<v:textRect cx="27.6661" cy="633.722" width="55.34" height="59.1654"/>
			<rect x="0" y="604.139" width="55.3323" height="59.1654" class="st1"/>
			<text x="22.68" y="639.12" class="st2" v:langID="2052"><v:paragraph v:horizAlign="1"/><v:tabList/>3</text>		</g>
		<g id="shape2843-85" v:mID="2843" v:groupContext="shape" transform="translate(436.305,-538.27)">
			<title>框.2843</title>
			<desc>4</desc>
			<v:userDefs>
				<v:ud v:nameU="visVersion" v:val="VT0(15):26"/>
			</v:userDefs>
			<v:textBlock v:margins="rect(4,4,4,4)" v:tabSpace="42.5197"/>
			<v:textRect cx="27.6661" cy="633.722" width="55.34" height="59.1654"/>
			<rect x="0" y="604.139" width="55.3323" height="59.1654" class="st1"/>
			<text x="22.68" y="639.12" class="st2" v:langID="2052"><v:paragraph v:horizAlign="1"/><v:tabList/>4</text>		</g>
		<g id="shape2844-88" v:mID="2844" v:groupContext="shape" transform="translate(514.031,-538.27)">
			<title>框.2844</title>
			<desc>5</desc>
			<v:userDefs>
				<v:ud v:nameU="visVersion" v:val="VT0(15):26"/>
			</v:userDefs>
			<v:textBlock v:margins="rect(4,4,4,4)" v:tabSpace="42.5197"/>
			<v:textRect cx="27.6661" cy="633.722" width="55.34" height="59.1654"/>
			<rect x="0" y="604.139" width="55.3323" height="59.1654" class="st1"/>
			<text x="22.68" y="639.12" class="st2" v:langID="2052"><v:paragraph v:horizAlign="1"/><v:tabList/>5</text>		</g>
		<g id="shape2845-91" v:mID="2845" v:groupContext="shape" transform="translate(589.992,-538.27)">
			<title>框.2845</title>
			<desc>6</desc>
			<v:userDefs>
				<v:ud v:nameU="visVersion" v:val="VT0(15):26"/>
			</v:userDefs>
			<v:textBlock v:margins="rect(4,4,4,4)" v:tabSpace="42.5197"/>
			<v:textRect cx="27.6661" cy="633.722" width="55.34" height="59.1654"/>
			<rect x="0" y="604.139" width="55.3323" height="59.1654" class="st1"/>
			<text x="22.68" y="639.12" class="st2" v:langID="2052"><v:paragraph v:horizAlign="1"/><v:tabList/>6</text>		</g>
		<g id="shape2846-94" v:mID="2846" v:groupContext="shape" transform="translate(670.951,-538.27)">
			<title>框.2846</title>
			<desc>7</desc>
			<v:userDefs>
				<v:ud v:nameU="visVersion" v:val="VT0(15):26"/>
			</v:userDefs>
			<v:textBlock v:margins="rect(4,4,4,4)" v:tabSpace="42.5197"/>
			<v:textRect cx="27.6661" cy="633.722" width="55.34" height="59.1654"/>
			<rect x="0" y="604.139" width="55.3323" height="59.1654" class="st1"/>
			<text x="22.68" y="639.12" class="st2" v:langID="2052"><v:paragraph v:horizAlign="1"/><v:tabList/>7</text>		</g>
		<g id="shape2847-97" v:mID="2847" v:groupContext="shape" transform="translate(81.6345,-538.27)">
			<title>框.2847</title>
			<desc>head</desc>
			<v:userDefs>
				<v:ud v:nameU="visVersion" v:val="VT0(15):26"/>
			</v:userDefs>
			<v:textBlock v:margins="rect(4,4,4,4)" v:tabSpace="42.5197"/>
			<v:textRect cx="27.6661" cy="633.722" width="55.34" height="59.1654"/>
			<rect x="0" y="604.139" width="55.3323" height="59.1654" class="st1"/>
			<text x="8.92" y="639.12" class="st2" v:langID="2052"><v:paragraph v:horizAlign="1"/><v:tabList/>head</text>		</g>
		<g id="shape2848-100" v:mID="2848" v:groupContext="shape" v:layerMember="0" transform="translate(240.473,-560.766)">
			<title>动态连接线.2848</title>
			<path d="M0 656.22 L8.23 656.22 A2.3622 2.3622 0 0 1 12.95 656.22 L28.26 656.22" class="st4"/>
		</g>
		<g id="shape2849-109" v:mID="2849" v:groupContext="shape" v:layerMember="0" transform="translate(136.967,-560.766)">
			<title>动态连接线.2849</title>
			<path d="M0 656.22 L28.1 656.22 A2.3622 2.3622 0 0 1 32.82 656.22 L32.83 656.22 A2.3622 2.3622 0 0 1 37.55 656.22 L48.17
						 656.22" class="st4"/>
		</g>
		<g id="shape2850-116" v:mID="2850" v:groupContext="shape" v:layerMember="0" transform="translate(324.069,-560.766)">
			<title>动态连接线.2850</title>
			<path d="M0 656.22 L15.27 656.22 A2.3622 2.3622 0 0 1 20 656.22 L28.26 656.22" class="st4"/>
		</g>
		<g id="shape2851-123" v:mID="2851" v:groupContext="shape" v:layerMember="0" transform="translate(407.665,-560.766)">
			<title>动态连接线.2851</title>
			<path d="M0 656.22 L18.38 656.22 A2.3622 2.3622 0 1 1 23.1 656.22 L28.64 656.22" class="st4"/>
		</g>
		<g id="shape2852-130" v:mID="2852" v:groupContext="shape" v:layerMember="0" transform="translate(491.638,-560.766)">
			<title>动态连接线.2852</title>
			<path d="M0 656.22 L12.94 656.22 A2.3622 2.3622 0 0 1 17.67 656.22 L22.39 656.22" class="st4"/>
		</g>
		<g id="shape2853-137" v:mID="2853" v:groupContext="shape" v:layerMember="0" transform="translate(569.363,-560.766)">
			<title>动态连接线.2853</title>
			<path d="M0 656.22 L7.64 656.22 A2.3622 2.3622 0 0 1 12.36 656.22 L20.63 656.22" class="st4"/>
		</g>
		<g id="shape2854-144" v:mID="2854" v:groupContext="shape" v:layerMember="0" transform="translate(645.324,-560.766)">
			<title>动态连接线.2854</title>
			<path d="M0 656.22 L12.63 656.22 A2.3622 2.3622 0 0 1 17.36 656.22 L25.63 656.22" class="st4"/>
		</g>
		<g id="shape2855-151" v:mID="2855" v:groupContext="shape" v:layerMember="0" transform="translate(205.72,-514.21)">
			<title>动态连接线.2855</title>
			<path d="M7.09 663.3 L7.09 639.24" class="st4"/>
		</g>
		<g id="shape2856-158" v:mID="2856" v:groupContext="shape" v:layerMember="0" transform="translate(205.701,-430.985)">
			<title>动态连接线.2856</title>
			<path d="M7.07 663.3 L7.11 639.24" class="st6"/>
		</g>
		<g id="shape2857-164" v:mID="2857" v:groupContext="shape" v:layerMember="0" transform="translate(303.534,-345.357)">
			<title>动态连接线.2857</title>
			<path d="M-7.04 663.3 L-7.13 470.39" class="st4"/>
		</g>
		<g id="shape2858-171" v:mID="2858" v:groupContext="shape" v:layerMember="0" transform="translate(289.405,-253.966)">
			<title>动态连接线.2858</title>
			<path d="M7.09 663.3 L7.09 631.08" class="st4"/>
		</g>
		<g id="shape2859-178" v:mID="2859" v:groupContext="shape" v:layerMember="0" transform="translate(372.912,-514.539)">
			<title>动态连接线.2859</title>
			<path d="M7.09 663.3 L7.09 639.57" class="st4"/>
		</g>
		<g id="shape2860-185" v:mID="2860" v:groupContext="shape" v:layerMember="0" transform="translate(372.842,-254.238)">
			<title>动态连接线.2860</title>
			<path d="M7.02 663.3 L7.16 462.17" class="st4"/>
		</g>
		<g id="shape2861-192" v:mID="2861" v:groupContext="shape" v:layerMember="0" transform="translate(471.219,-431.178)">
			<title>动态连接线.2861</title>
			<path d="M-6.93 663.3 L-7.25 556.21" class="st6"/>
		</g>
		<g id="shape2862-197" v:mID="2862" v:groupContext="shape" v:layerMember="0" transform="translate(457.207,-163.707)">
			<title>动态连接线.2862</title>
			<path d="M7.09 663.3 L7.09 455" class="st8"/>
		</g>
		<g id="shape2863-203" v:mID="2863" v:groupContext="shape" v:layerMember="0" transform="translate(534.61,-514.21)">
			<title>动态连接线.2863</title>
			<path d="M7.09 663.3 L7.09 639.24" class="st4"/>
		</g>
		<g id="shape2864-210" v:mID="2864" v:groupContext="shape" v:layerMember="0" transform="translate(534.61,-163.707)">
			<title>动态连接线.2864</title>
			<path d="M7.09 663.3 L7.09 371.97" class="st4"/>
		</g>
		<g id="shape2865-217" v:mID="2865" v:groupContext="shape" v:layerMember="0" transform="translate(534.585,-77.93)">
			<title>动态连接线.2865</title>
			<path d="M7.06 663.3 L7.11 636.69" class="st4"/>
		</g>
		<g id="shape2866-224" v:mID="2866" v:groupContext="shape" v:layerMember="0" transform="translate(610.571,-514.21)">
			<title>动态连接线.2866</title>
			<path d="M7.09 663.3 L7.09 639.24" class="st4"/>
		</g>
		<g id="shape2867-231" v:mID="2867" v:groupContext="shape" v:layerMember="0" transform="translate(610.533,-345.208)">
			<title>动态连接线.2867</title>
			<path d="M7.05 663.3 L7.12 553.47" class="st4"/>
		</g>
		<g id="shape2868-238" v:mID="2868" v:groupContext="shape" v:layerMember="0" transform="translate(610.495,-252.416)">
			<title>动态连接线.2868</title>
			<path d="M7.09 663.3 L7.09 629.68" class="st4"/>
		</g>
		<g id="shape2869-245" v:mID="2869" v:groupContext="shape" v:layerMember="0" transform="translate(706.189,-430.772)">
			<title>动态连接线.2869</title>
			<path d="M-6.6 663.3 L-7.57 555.81" class="st6"/>
		</g>
		<g id="shape2870-250" v:mID="2870" v:groupContext="shape" v:layerMember="0" transform="translate(692.482,-344.995)">
			<title>动态连接线.2870</title>
			<path d="M7.07 663.3 L7.11 636.69" class="st8"/>
		</g>
		<g id="shape2871-255" v:mID="2871" v:groupContext="shape" v:layerMember="0" transform="translate(691.997,-163.707)">
			<title>动态连接线.2871</title>
			<path d="M6.62 663.3 L7.55 541.18" class="st4"/>
		</g>
		<g id="shape2872-262" v:mID="2872" v:groupContext="shape" v:layerMember="0" transform="translate(240.473,-477.705)">
			<title>动态连接线.2872</title>
			<path d="M0 656.38 L8.23 656.36 A2.3622 2.3622 0 1 1 12.95 656.34 L53.59 656.22 A2.3622 2.3622 0 1 1 58.32 656.21 L98.87
						 656.09 A2.3622 2.3622 0 1 1 103.59 656.08 L111.86 656.05" class="st4"/>
		</g>
		<g id="shape2873-269" v:mID="2873" v:groupContext="shape" v:layerMember="0" transform="translate(407.665,-491.878)">
			<title>动态连接线.2873</title>
			<path d="M0 670.23 L18.38 670.28 A2.3622 2.3622 0 0 1 23.1 670.3 L38.6 670.35 A2.3622 2.3622 0 0 1 43.32 670.36 L54.11
						 670.39 A2.3622 2.3622 0 0 1 58.83 670.41 L96.92 670.53 A2.3622 2.3622 0 0 1 101.64 670.54 L106.37 670.56"
					class="st4"/>
		</g>
		<g id="shape2874-276" v:mID="2874" v:groupContext="shape" v:layerMember="0" transform="translate(569.363,-477.541)">
			<title>动态连接线.2874</title>
			<path d="M0 656.22 L7.64 656.22 A2.3622 2.3622 0 0 1 12.36 656.22 L20.63 656.22" class="st4"/>
		</g>
		<g id="shape2875-283" v:mID="2875" v:groupContext="shape" v:layerMember="0" transform="translate(645.324,-477.541)">
			<title>动态连接线.2875</title>
			<path d="M0 656.22 L12.63 656.22 A2.3622 2.3622 0 0 1 17.36 656.22 L36.2 656.22 A2.3622 2.3622 0 0 1 40.93 656.22 L51.42
						 656.22 A2.3622 2.3622 0 0 1 56.14 656.22 L94.8 656.22 L94.8 616.01 L55.78 616.01 A2.3622 2.3622 -180 0 0
						 51.05 616.01 L41.03 616.01 A2.3622 2.3622 -180 0 0 36.31 616.01 L17.36 616.01 A2.3622 2.3622 -180 0 0 12.63
						 616.01 L-25.3 616.01 A2.3622 2.3622 -180 0 0 -30.03 616.01 L-63.6 616.01 A2.3622 2.3622 -180 0 0 -68.32
						 616.01 L-101.26 616.01 A2.3622 2.3622 -180 1 0 -105.99 616.01 L-136.02 616.01 A2.3622 2.3622 -180 0 0 -140.74
						 616.01 L-178.95 616.01 A2.3622 2.3622 -180 1 0 -183.67 616.01 L-194.43 616.01 A2.3622 2.3622 -180 0 0 -199.16
						 616.01 L-214.56 616.01 A2.3622 2.3622 -180 0 0 -219.28 616.01 L-262.96 616.01 A2.3622 2.3622 -180 1 0 -267.69
						 616.01 L-301.26 616.01 A2.3622 2.3622 -180 1 0 -305.98 616.01 L-346.55 616.01 A2.3622 2.3622 -180 0 0 -351.28
						 616.01 L-391.9 616.01 A2.3622 2.3622 -180 0 0 -396.62 616.01 L-430.15 616.01 A2.3622 2.3622 -180 0 0 -434.88
						 616.01 L-470.81 616.01 A2.3622 2.3622 -180 0 0 -475.53 616.01 L-475.54 616.01 A2.3622 2.3622 -180 0 0 -480.26
						 616.01 L-485.36 616.01 L-485.36 656.22 L-480.26 656.22 A2.3622 2.3622 0 0 1 -475.54 656.22 L-475.53 656.22
						 A2.3622 2.3622 0 0 1 -470.81 656.22 L-460.18 656.22" class="st4"/>
		</g>
		<g id="shape2876-290" v:mID="2876" v:groupContext="shape" v:layerMember="0" transform="translate(727.254,-394.209)">
			<title>动态连接线.2876</title>
			<path d="M0 656.32 L12.87 656.32 L12.87 615.71 L-25.4 615.71 A2.3622 2.3622 -180 0 0 -30.13 615.71 L-41.11 615.71 A2.3622
						 2.3622 -180 0 0 -45.84 615.71 L-64.57 615.71 A2.3622 2.3622 -180 0 0 -69.3 615.71 L-107.24 615.71 A2.3622
						 2.3622 -180 0 0 -111.97 615.71 L-145.53 615.71 A2.3622 2.3622 -180 0 0 -150.25 615.71 L-183.2 615.71 A2.3622
						 2.3622 -180 0 0 -187.92 615.71 L-217.95 615.71 A2.3622 2.3622 -180 0 0 -222.67 615.71 L-260.63 615.71 A2.3622
						 2.3622 -180 0 0 -265.35 615.71 L-276.17 615.71 A2.3622 2.3622 -180 0 0 -280.89 615.71 L-296.49 615.71 A2.3622
						 2.3622 -180 0 0 -301.21 615.71 L-344.9 615.71 A2.3622 2.3622 -180 0 0 -349.63 615.71 L-383.19 615.71 A2.3622
						 2.3622 -180 0 0 -387.91 615.71 L-428.44 615.71 A2.3622 2.3622 -180 0 0 -433.17 615.71 L-473.83 615.71 A2.3622
						 2.3622 -180 0 0 -478.55 615.71 L-512.11 615.71 A2.3622 2.3622 -180 0 0 -516.83 615.71 L-526.09 615.71 A2.3622
						 2.3622 -180 1 0 -530.82 615.71 L-552.74 615.71 A2.3622 2.3622 -180 0 0 -557.46 615.71 L-557.47 615.71 A2.3622
						 2.3622 -180 0 0 -562.19 615.71 L-566.72 615.71 L-566.72 656.11 L-562.19 656.11 A2.3622 2.3622 0 0 1 -557.47
						 656.11 L-557.46 656.11 A2.3622 2.3622 0 0 1 -552.74 656.11 L-542.15 656.11" class="st4"/>
		</g>
		<g id="shape2877-297" v:mID="2877" v:groupContext="shape" v:layerMember="0" transform="translate(81.6345,-560.766)">
			<title>动态连接线.2877</title>
			<path d="M0 656.22 L-10.63 656.22 L-10.63 616.01 L83.43 616.01 A2.3622 2.3622 0 0 1 88.15 616.01 L88.16 616.01 A2.3622
						 2.3622 0 0 1 92.88 616.01 L114.8 616.01 A2.3622 2.3622 0 1 1 119.53 616.01 L128.81 616.01 A2.3622 2.3622
						 0 1 1 133.53 616.01 L167.07 616.01 A2.3622 2.3622 0 0 1 171.79 616.01 L212.41 616.01 A2.3622 2.3622 0 0
						 1 217.13 616.01 L257.71 616.01 A2.3622 2.3622 0 1 1 262.43 616.01 L296 616.01 A2.3622 2.3622 0 1 1 300.73
						 616.01 L344.41 616.01 A2.3622 2.3622 0 0 1 349.13 616.01 L379.97 616.01 A2.3622 2.3622 0 0 1 384.7 616.01
						 L422.95 616.01 A2.3622 2.3622 0 0 1 427.67 616.01 L457.7 616.01 A2.3622 2.3622 0 0 1 462.42 616.01 L495.36
						 616.01 A2.3622 2.3622 0 0 1 500.09 616.01 L533.66 616.01 A2.3622 2.3622 0 0 1 538.39 616.01 L576.32 616.01
						 A2.3622 2.3622 0 0 1 581.05 616.01 L614.62 616.01 A2.3622 2.3622 0 0 1 619.34 616.01 L659.06 616.01 L659.06
						 656.22 L644.65 656.22" class="st4"/>
		</g>
		<g id="shape2878-304" v:mID="2878" v:groupContext="shape" v:layerMember="0" transform="translate(727.216,-308.507)">
			<title>动态连接线.2878</title>
			<path d="M0 656.4 L13.85 656.4 L13.85 617.15 L-25.29 617.15 A2.3622 2.3622 -180 0 0 -30.01 617.15 L-41.3 617.15 A2.3622
						 2.3622 -180 0 0 -46.03 617.15 L-64.53 617.15 A2.3622 2.3622 -180 0 0 -69.26 617.15 L-107.27 617.15 A2.3622
						 2.3622 -180 1 0 -111.99 617.15 L-145.49 617.15 A2.3622 2.3622 -180 1 0 -150.22 617.15 L-183.16 617.15 A2.3622
						 2.3622 -180 1 0 -187.88 617.15 L-217.91 617.15 A2.3622 2.3622 -180 0 0 -222.63 617.15 L-260.56 617.15 A2.3622
						 2.3622 -180 0 0 -265.28 617.15 L-275.92 617.15 A2.3622 2.3622 -180 0 0 -280.65 617.15 L-296.45 617.15 A2.3622
						 2.3622 -180 0 0 -301.17 617.15 L-344.93 617.15 A2.3622 2.3622 -180 0 0 -349.65 617.15 L-383.15 617.15 A2.3622
						 2.3622 -180 1 0 -387.88 617.15 L-428.37 617.15 A2.3622 2.3622 -180 0 0 -433.09 617.15 L-473.79 617.15 A2.3622
						 2.3622 -180 0 0 -478.51 617.15 L-512.09 617.15 A2.3622 2.3622 -180 0 0 -516.81 617.15 L-526.05 617.15 A2.3622
						 2.3622 -180 0 0 -530.78 617.15 L-552.7 617.15 A2.3622 2.3622 -180 0 0 -557.42 617.15 L-557.43 617.15 A2.3622
						 2.3622 -180 0 0 -562.15 617.15 L-568.1 617.15 L-568.1 656.04 L-562.15 656.04 A2.3622 2.3622 0 0 1 -557.43
						 656.04 L-557.42 656.04 A2.3622 2.3622 0 0 1 -552.7 656.04 L-530.78 656.04 A2.3622 2.3622 0 0 1 -526.05 656.04
						 L-516.81 656.04 A2.3622 2.3622 0 0 1 -512.09 656.04 L-478.51 656.04 A2.3622 2.3622 0 0 1 -473.79 656.04
						 L-458.39 656.04" class="st4"/>
		</g>
		<g id="shape2879-311" v:mID="2879" v:groupContext="shape" v:layerMember="0" transform="translate(268.826,-230.695)">
			<title>动态连接线.2879</title>
			<path d="M0 669.62 L-15.4 669.62 A2.3622 2.3622 -180 0 0 -20.12 669.62 L-53.69 669.62 A2.3622 2.3622 -180 0 0 -58.42
						 669.62 L-67.66 669.62 A2.3622 2.3622 -180 0 0 -72.39 669.62 L-94.31 669.62 A2.3622 2.3622 -180 1 0 -99.03
						 669.62 L-99.04 669.62 A2.3622 2.3622 -180 1 0 -103.76 669.62 L-108.29 669.62 L-108.29 634.5 L-103.76 634.5
						 A2.3622 2.3622 0 1 1 -99.04 634.5 L-99.03 634.5 A2.3622 2.3622 0 1 1 -94.31 634.5 L-72.39 634.5 A2.3622
						 2.3622 0 1 1 -67.66 634.5 L-58.42 634.5 A2.3622 2.3622 0 1 1 -53.69 634.5 L-20.12 634.5 A2.3622 2.3622 0
						 1 1 -15.4 634.5 L25.3 634.5 A2.3622 2.3622 0 1 1 30.03 634.5 L70.51 634.5 A2.3622 2.3622 0 1 1 75.24 634.5
						 L108.67 634.5 A2.3622 2.3622 0 1 1 113.4 634.5 L157.22 634.5 A2.3622 2.3622 0 0 1 161.94 634.5 L177.97 634.5
						 A2.3622 2.3622 0 0 1 182.69 634.5 L193.11 634.5 A2.3622 2.3622 0 0 1 197.83 634.5 L235.76 634.5 A2.3622
						 2.3622 0 0 1 240.48 634.5 L270.51 634.5 A2.3622 2.3622 0 0 1 275.23 634.5 L308.17 634.5 A2.3622 2.3622 0
						 1 1 312.9 634.5 L346.39 634.5 A2.3622 2.3622 0 0 1 351.12 634.5 L389.13 634.5 A2.3622 2.3622 0 1 1 393.86
						 634.5 L428.16 634.5 A2.3622 2.3622 0 1 1 432.89 634.5 L473.65 634.5 L473.65 671.17 L432.61 671.17 A2.3622
						 2.3622 -180 0 0 427.88 671.17 L393.86 671.17 A2.3622 2.3622 -180 0 0 389.13 671.17 L376.42 671.17"
					class="st4"/>
		</g>
		<g id="shape2880-318" v:mID="2880" v:groupContext="shape" v:layerMember="0" transform="translate(491.96,-127.037)">
			<title>动态连接线.2880</title>
			<path d="M0 656.22 L12.62 656.22 A2.3622 2.3622 0 1 1 17.35 656.22 L22.07 656.22" class="st4"/>
		</g>
		<g id="shape2881-325" v:mID="2881" v:groupContext="shape" v:layerMember="0" transform="translate(569.363,-127.037)">
			<title>动态连接线.2881</title>
			<path d="M0 656.22 L7.64 656.22 A2.3622 2.3622 0 1 1 12.36 656.22 L45.86 656.22 A2.3622 2.3622 0 1 1 50.58 656.22 L88.6
						 656.22 A2.3622 2.3622 0 1 1 93.32 656.22 L101.59 656.22" class="st4"/>
		</g>
		<g id="shape2882-332" v:mID="2882" v:groupContext="shape" v:layerMember="0" transform="translate(726.283,-141.211)">
			<title>动态连接线.2882</title>
			<path d="M0 670.39 L14.97 670.39 L14.97 632.69 L-25.24 632.69 A2.3622 2.3622 -180 0 0 -29.97 632.69 L-63.6 632.69 A2.3622
						 2.3622 -180 0 0 -68.32 632.69 L-106.34 632.69 A2.3622 2.3622 -180 1 0 -111.06 632.69 L-144.56 632.69 A2.3622
						 2.3622 -180 0 0 -149.28 632.69 L-182.22 632.69 A2.3622 2.3622 -180 1 0 -186.95 632.69 L-216.98 632.69 A2.3622
						 2.3622 -180 0 0 -221.7 632.69 L-259.63 632.69 A2.3622 2.3622 -180 0 0 -264.35 632.69 L-274.56 632.69 A2.3622
						 2.3622 -180 0 0 -279.28 632.69 L-295.51 632.69 A2.3622 2.3622 -180 0 0 -300.24 632.69 L-344.06 632.69 A2.3622
						 2.3622 -180 0 0 -348.79 632.69 L-382.22 632.69 A2.3622 2.3622 -180 0 0 -386.94 632.69 L-427.43 632.69 A2.3622
						 2.3622 -180 0 0 -432.15 632.69 L-472.86 632.69 A2.3622 2.3622 -180 1 0 -477.58 632.69 L-511.15 632.69 A2.3622
						 2.3622 -180 0 0 -515.88 632.69 L-525.12 632.69 A2.3622 2.3622 -180 0 0 -529.85 632.69 L-551.77 632.69 A2.3622
						 2.3622 -180 0 0 -556.49 632.69 L-556.5 632.69 A2.3622 2.3622 -180 0 0 -561.22 632.69 L-567.17 632.69 L-567.17
						 670.39 L-561.22 670.39 A2.3622 2.3622 0 1 1 -556.5 670.39 L-556.49 670.39 A2.3622 2.3622 0 1 1 -551.77 670.39
						 L-529.85 670.39 A2.3622 2.3622 0 1 1 -525.12 670.39 L-515.88 670.39 A2.3622 2.3622 0 1 1 -511.15 670.39
						 L-477.58 670.39 A2.3622 2.3622 0 1 1 -472.86 670.39 L-432.15 670.39 A2.3622 2.3622 0 1 1 -427.43 670.39
						 L-386.94 670.39 A2.3622 2.3622 0 1 1 -382.22 670.39 L-348.79 670.39 A2.3622 2.3622 0 1 1 -344.06 670.39
						 L-300.24 670.39 A2.3622 2.3622 0 1 1 -295.51 670.39 L-289.66 670.39" class="st4"/>
		</g>
		<g id="shape2883-339" v:mID="2883" v:groupContext="shape" v:layerMember="0" transform="translate(219.875,-597.435)">
			<title>动态连接线.2883</title>
			<path d="M-7.07 663.3 L-7.07 645.59 L-18.71 645.59 A2.3622 2.3622 -180 1 0 -23.44 645.59 L-45.36 645.59 A2.3622 2.3622
						 -180 0 0 -50.08 645.59 L-52.45 645.59 L-52.45 1244.17 L-50.08 1244.17 A2.3622 2.3622 0 0 1 -45.36 1244.17
						 L-23.44 1244.17 A2.3622 2.3622 0 0 1 -18.71 1244.17 L-7.11 1244.17 L-7.11 888.92" class="st8"/>
		</g>
		<g id="shape2884-344" v:mID="2884" v:groupContext="shape" v:layerMember="0" transform="translate(289.361,-597.435)">
			<title>动态连接线.2884</title>
			<path d="M7.04 663.3 L7.04 645.59 L-38.3 645.59 L-38.3 1249.77 L7.13 1249.77 L7.13 1065.94" class="st4"/>
		</g>
		<g id="shape2885-351" v:mID="2885" v:groupContext="shape" v:layerMember="0" transform="translate(387.016,-597.435)">
			<title>动态连接线.2885</title>
			<path d="M-7.02 663.3 L-7.02 645.59 L-45.31 645.59 L-45.31 1250.14 L-7.16 1250.14 L-7.16 1065.67" class="st4"/>
		</g>
		<g id="shape2886-358" v:mID="2886" v:groupContext="shape" v:layerMember="0" transform="translate(457.046,-597.435)">
			<title>动态连接线.2886</title>
			<path d="M6.93 663.3 L6.93 645.59 L-28.64 645.59 L-28.64 1253.32 L7.25 1253.32 L7.25 1156.2" class="st4"/>
		</g>
		<g id="shape2887-365" v:mID="2887" v:groupContext="shape" v:layerMember="0" transform="translate(548.758,-597.435)">
			<title>动态连接线.2887</title>
			<path d="M-7.06 663.3 L-7.06 645.08 L-41.81 645.08 L-41.81 1253.13 L-7.11 1253.13 L-7.11 1241.98" class="st4"/>
		</g>
		<g id="shape2888-372" v:mID="2888" v:groupContext="shape" v:layerMember="0" transform="translate(624.706,-597.435)">
			<title>动态连接线.2888</title>
			<path d="M-7.05 663.3 L-7.05 645.59 L-45.34 645.59 L-45.34 1253.32 L-7.12 1253.32 L-7.12 1067.49" class="st4"/>
		</g>
		<g id="shape2889-379" v:mID="2889" v:groupContext="shape" v:layerMember="0" transform="translate(691.53,-597.435)">
			<title>动态连接线.2889</title>
			<path d="M7.09 663.3 L7.09 644.42 L-31.21 644.42 L-31.21 1253.32 L7.09 1253.32 L7.09 1156.2" class="st4"/>
		</g>
		<g id="shape2890-386" v:mID="2890" v:groupContext="shape" v:layerMember="0" transform="translate(240.435,-394.412)">
			<title>动态连接线.2890</title>
			<path d="M0 656.31 L8.27 656.31 A2.3622 2.3622 0 1 1 12.99 656.3 L53.67 656.26 A2.3622 2.3622 0 1 1 58.39 656.26 L98.91
						 656.22 A2.3622 2.3622 0 1 1 103.63 656.21 L137.16 656.18 A2.3622 2.3622 0 1 1 141.89 656.17 L185.61 656.13
						 A2.3622 2.3622 0 1 1 190.33 656.13 L196.19 656.12" class="st4"/>
		</g>
		<g id="shape2891-393" v:mID="2891" v:groupContext="shape" v:layerMember="0" transform="translate(491.96,-408.479)">
			<title>动态连接线.2891</title>
			<path d="M0 670.19 L12.62 670.22 A2.3622 2.3622 0 0 1 17.35 670.23 L47.37 670.3 A2.3622 2.3622 0 0 1 52.1 670.31 L85.04
						 670.38 A2.3622 2.3622 0 0 1 89.76 670.39 L123.3 670.47 A2.3622 2.3622 0 0 1 128.02 670.48 L166 670.56 A2.3622
						 2.3622 0 0 1 170.72 670.57 L179.96 670.59" class="st4"/>
		</g>
		<g id="shape2892-400" v:mID="2892" v:groupContext="shape" v:layerMember="0" transform="translate(324.158,-322.786)">
			<title>动态连接线.2892</title>
			<path d="M0 670.32 L15.18 670.33 A2.3622 2.3622 0 0 1 19.91 670.33 L53.38 670.35 A2.3622 2.3622 0 0 1 58.11 670.35 L101.89
						 670.37 A2.3622 2.3622 0 1 1 106.61 670.38 L122.5 670.39 A2.3622 2.3622 0 1 1 127.23 670.39 L137.77 670.39
						 A2.3622 2.3622 0 1 1 142.5 670.4 L180.42 670.42 A2.3622 2.3622 0 1 1 185.15 670.42 L215.18 670.44 A2.3622
						 2.3622 0 0 1 219.9 670.44 L252.84 670.46 A2.3622 2.3622 0 0 1 257.57 670.46 L265.76 670.47" class="st4"/>
		</g>
		<g id="shape2893-407" v:mID="2893" v:groupContext="shape" v:layerMember="0" transform="translate(645.248,-322.606)">
			<title>动态连接线.2893</title>
			<path d="M0 670.28 L12.71 670.39 A2.3622 2.3622 0 0 1 17.44 670.42 L26.64 670.5" class="st4"/>
		</g>
		<g id="shape2894-414" v:mID="2894" v:groupContext="shape" v:layerMember="0" transform="translate(324.158,-217.433)">
			<title>动态连接线.2894</title>
			<path d="M0 656.35 L15.18 656.21 A2.3622 2.3622 0 1 1 19.91 656.16 L28.03 656.08" class="st4"/>
		</g>
		<g id="shape2895-421" v:mID="2895" v:groupContext="shape" v:layerMember="0" transform="translate(407.525,-230.831)">
			<title>动态连接线.2895</title>
			<path d="M0 669.48 L10.63 671.3 L18.52 671.3 A2.3622 2.3622 0 1 1 23.24 671.3 L39.36 671.3 A2.3622 2.3622 0 1 1 44.08
						 671.3 L54.41 671.3 A2.3622 2.3622 0 1 1 59.13 671.3 L97.06 671.3 A2.3622 2.3622 0 1 1 101.78 671.3 L131.81
						 671.3 A2.3622 2.3622 0 0 1 136.53 671.3 L169.47 671.3 A2.3622 2.3622 0 1 1 174.2 671.3 L182.39 671.3"
					class="st4"/>
		</g>
		<g id="shape2896-428" v:mID="2896" v:groupContext="shape" v:layerMember="0" transform="translate(513.98,-41.2607)">
			<title>动态连接线.2896</title>
			<path d="M0 656.22 L-4.67 656.22 A2.3622 2.3622 -180 0 0 -9.4 656.22 L-47.32 656.22 A2.3622 2.3622 -180 0 0 -52.05 656.22
						 L-83.21 656.22 A2.3622 2.3622 -180 0 0 -87.94 656.22 L-131.76 656.22 A2.3622 2.3622 -180 1 0 -136.48 656.22
						 L-169.91 656.22 A2.3622 2.3622 -180 0 0 -174.64 656.22 L-215.13 656.22 A2.3622 2.3622 -180 1 0 -219.85 656.22
						 L-260.55 656.22 A2.3622 2.3622 -180 1 0 -265.28 656.22 L-298.85 656.22 A2.3622 2.3622 -180 0 0 -303.57 656.22
						 L-312.82 656.22 A2.3622 2.3622 -180 0 0 -317.54 656.22 L-339.46 656.22 A2.3622 2.3622 -180 0 0 -344.19 656.22
						 L-344.19 656.22 A2.3622 2.3622 -180 0 0 -348.92 656.22 L-356.81 656.22 L-356.81 616.34 L-348.92 616.34 A2.3622
						 2.3622 0 1 1 -344.19 616.34 L-344.19 616.34 A2.3622 2.3622 0 0 1 -339.46 616.34 L-317.54 616.34 A2.3622
						 2.3622 0 1 1 -312.82 616.34 L-303.57 616.34 A2.3622 2.3622 0 1 1 -298.85 616.34 L-265.28 616.34 A2.3622
						 2.3622 0 1 1 -260.55 616.34 L-219.85 616.34 A2.3622 2.3622 0 1 1 -215.13 616.34 L-174.64 616.34 A2.3622
						 2.3622 0 0 1 -169.91 616.34 L-136.48 616.34 A2.3622 2.3622 0 1 1 -131.76 616.34 L-87.94 616.34 A2.3622 2.3622
						 0 0 1 -83.21 616.34 L-52.05 616.34 A2.3622 2.3622 0 1 1 -47.32 616.34 L-9.4 616.34 A2.3622 2.3622 0 1 1
						 -4.67 616.34 L25.32 616.34 A2.3622 2.3622 0 1 1 30.05 616.34 L63.02 616.34 A2.3622 2.3622 0 1 1 67.74 616.34
						 L101.24 616.34 A2.3622 2.3622 0 0 1 105.96 616.34 L143.98 616.34 A2.3622 2.3622 0 0 1 148.7 616.34 L182.28
						 616.34 A2.3622 2.3622 0 0 1 187 616.34 L229.54 616.34 L229.54 656.22 L187 656.22 A2.3622 2.3622 -180 0 0
						 182.28 656.22 L148.7 656.22 A2.3622 2.3622 -180 0 0 143.98 656.22 L105.96 656.22 A2.3622 2.3622 -180 0 0
						 101.24 656.22 L67.74 656.22 A2.3622 2.3622 -180 0 0 63.02 656.22 L55.33 656.22" class="st4"/>
		</g>
		<g id="shape2897-435" v:mID="2897" v:groupContext="shape" v:layerMember="0" transform="translate(191.714,-597.435)">
			<title>动态连接线.2897</title>
			<path d="M7.09 663.3 L7.09 638.5 L-19.56 638.5 L-19.56 1249.02 L7.09 1249.02 L7.09 805.7" class="st9"/>
		</g>
		<g id="shape2898-444" v:mID="2898" v:groupContext="shape" v:layerMember="0" transform="translate(441.854,-538.27)">
			<title>动态连接线.2898</title>
			<path d="M6.64 663.3 L7.53 1037.87" class="st9"/>
		</g>
		<g id="shape2900-451" v:mID="2900" v:groupContext="shape" v:layerMember="0" transform="translate(690.864,-538.27)">
			<title>动态连接线.2900</title>
			<path d="M-6.83 663.3 L-7.34 856.58" class="st9"/>
		</g>
	</g>
</svg>
