<?xml version="1.0" encoding="UTF-8" standalone="no"?>
<!DOCTYPE svg PUBLIC "-//W3C//DTD SVG 1.1//EN" "http://www.w3.org/Graphics/SVG/1.1/DTD/svg11.dtd">
<!-- 由 Microsoft Visio, SVG Export 生成 BreadthFirstSearch1.svg 页-1 -->
<svg xmlns="http://www.w3.org/2000/svg" xmlns:xlink="http://www.w3.org/1999/xlink" xmlns:ev="http://www.w3.org/2001/xml-events"
		xmlns:v="http://schemas.microsoft.com/visio/2003/SVGExtensions/" width="2.88886in" height="3.05569in"
		viewBox="0 0 207.998 220.01" xml:space="preserve" color-interpolation-filters="sRGB" class="st8">
	<v:documentProperties v:langID="2052" v:metric="true" v:viewMarkup="false"/>

	<style type="text/css">
	<![CDATA[
		.st1 {fill:none;stroke:#000000;stroke-linecap:round;stroke-linejoin:round;stroke-width:0.75}
		.st2 {fill:#000000;font-family:Cambria Math;font-size:1.5em}
		.st3 {fill:#ffffff;stroke:#000000;stroke-linecap:round;stroke-linejoin:round;stroke-width:0.75}
		.st4 {fill:#ffffff}
		.st5 {stroke:none;stroke-linecap:round;stroke-linejoin:round;stroke-width:0.75}
		.st6 {stroke:#000000;stroke-linecap:round;stroke-linejoin:round;stroke-width:0.75}
		.st7 {fill:#ffffff;stroke:#ffffff;stroke-linecap:round;stroke-linejoin:round;stroke-width:0.75;visibility:hidden}
		.st8 {fill:none;fill-rule:evenodd;font-size:12px;overflow:visible;stroke-linecap:square;stroke-miterlimit:3}
	]]>
	</style>

	<g v:mID="0" v:index="1" v:groupContext="foregroundPage">
		<title>页-1</title>
		<v:pageProperties v:drawingScale="0.0393701" v:pageScale="0.0393701" v:drawingUnits="24" v:shadowOffsetX="8.50394"
				v:shadowOffsetY="-8.50394"/>
		<g id="shape1614-1" v:mID="1614" v:groupContext="shape" transform="translate(65.8907,-184.981)">
			<title>圆形.1614</title>
			<desc>0</desc>
			<v:userDefs>
				<v:ud v:nameU="visVersion" v:val="VT0(15):26"/>
			</v:userDefs>
			<v:textBlock v:margins="rect(4,4,4,4)" v:tabSpace="42.5197"/>
			<v:textRect cx="17.3268" cy="202.683" width="34.66" height="34.6535"/>
			<path d="M0 202.68 A17.3268 17.3268 0 0 1 34.65 202.68 A17.3268 17.3268 0 1 1 0 202.68 Z" class="st1"/>
			<text x="12.34" y="208.08" class="st2" v:langID="2052"><v:paragraph v:horizAlign="1"/><v:tabList/>0</text>		</g>
		<g id="shape1615-4" v:mID="1615" v:groupContext="shape" transform="translate(0.375,-112.662)">
			<title>圆形.1615</title>
			<desc>1</desc>
			<v:userDefs>
				<v:ud v:nameU="visVersion" v:val="VT0(15):26"/>
			</v:userDefs>
			<v:textBlock v:margins="rect(4,4,4,4)" v:tabSpace="42.5197"/>
			<v:textRect cx="17.3268" cy="202.683" width="34.66" height="34.6535"/>
			<path d="M0 202.68 A17.3268 17.3268 0 0 1 34.65 202.68 A17.3268 17.3268 0 1 1 0 202.68 Z" class="st1"/>
			<text x="12.34" y="208.08" class="st2" v:langID="2052"><v:paragraph v:horizAlign="1"/><v:tabList/>1</text>		</g>
		<g id="shape1616-7" v:mID="1616" v:groupContext="shape" transform="translate(172.969,-137.076)">
			<title>圆形.1616</title>
			<desc>5</desc>
			<v:userDefs>
				<v:ud v:nameU="visVersion" v:val="VT0(15):26"/>
			</v:userDefs>
			<v:textBlock v:margins="rect(4,4,4,4)" v:tabSpace="42.5197"/>
			<v:textRect cx="17.3268" cy="202.683" width="34.66" height="34.6535"/>
			<path d="M0 202.68 A17.3268 17.3268 0 0 1 34.65 202.68 A17.3268 17.3268 0 1 1 0 202.68 Z" class="st3"/>
			<text x="12.34" y="208.08" class="st2" v:langID="2052"><v:paragraph v:horizAlign="1"/><v:tabList/>5</text>		</g>
		<g id="shape1617-10" v:mID="1617" v:groupContext="shape" transform="translate(37.5443,-0.375)">
			<title>圆形.1617</title>
			<desc>2</desc>
			<v:userDefs>
				<v:ud v:nameU="visVersion" v:val="VT0(15):26"/>
			</v:userDefs>
			<v:textBlock v:margins="rect(4,4,4,4)" v:tabSpace="42.5197"/>
			<v:textRect cx="17.3268" cy="202.683" width="34.66" height="34.6535"/>
			<path d="M0 202.68 A17.3268 17.3268 0 0 1 34.65 202.68 A17.3268 17.3268 0 1 1 0 202.68 Z" class="st3"/>
			<text x="12.34" y="208.08" class="st2" v:langID="2052"><v:paragraph v:horizAlign="1"/><v:tabList/>2</text>		</g>
		<g id="shape1618-13" v:mID="1618" v:groupContext="shape" transform="translate(113.442,-12.3514)">
			<title>圆形.1618</title>
			<desc>3</desc>
			<v:userDefs>
				<v:ud v:nameU="visVersion" v:val="VT0(15):26"/>
			</v:userDefs>
			<v:textBlock v:margins="rect(4,4,4,4)" v:tabSpace="42.5197"/>
			<v:textRect cx="17.3268" cy="202.683" width="34.66" height="34.6535"/>
			<path d="M0 202.68 A17.3268 17.3268 0 0 1 34.65 202.68 A17.3268 17.3268 0 1 1 0 202.68 Z" class="st3"/>
			<text x="12.34" y="208.08" class="st2" v:langID="2052"><v:paragraph v:horizAlign="1"/><v:tabList/>3</text>		</g>
		<g id="shape1619-16" v:mID="1619" v:groupContext="shape" transform="translate(145.261,-61.6388)">
			<title>圆形.1619</title>
			<desc>4</desc>
			<v:userDefs>
				<v:ud v:nameU="visVersion" v:val="VT0(15):26"/>
			</v:userDefs>
			<v:textBlock v:margins="rect(4,4,4,4)" v:tabSpace="42.5197"/>
			<v:textRect cx="17.3268" cy="202.683" width="34.66" height="34.6535"/>
			<path d="M0 202.68 A17.3268 17.3268 0 0 1 34.65 202.68 A17.3268 17.3268 0 1 1 0 202.68 Z" class="st3"/>
			<text x="12.34" y="208.08" class="st2" v:langID="2052"><v:paragraph v:horizAlign="1"/><v:tabList/>4</text>		</g>
		<g id="group1620-19" transform="translate(-126.088,-78.5018) rotate(-45)" v:mID="1620" v:groupContext="group">
			<v:userDefs>
				<v:ud v:nameU="OpenEnd" v:val="VT0(3):26"/>
				<v:ud v:nameU="visVersion" v:val="VT0(15):26"/>
			</v:userDefs>
			<title>开放/闭合条.1620</title>
			<g id="shape1621-20" v:mID="1621" v:groupContext="shape">
				<title>工作表.1621</title>
				<path d="M0 220.01 L62.54 220.01 L62.54 216.86 L0 216.86 L0 220.01 Z" class="st4"/>
				<path d="M0 220.01 L62.54 220.01 L62.54 216.86 L0 216.86" class="st5"/>
			</g>
			<g id="shape1622-23" v:mID="1622" v:groupContext="shape">
				<title>工作表.1622</title>
				<path d="M0 220.01 L62.54 220.01 L0 220.01 ZM0 216.86 L62.54 216.86 L0 216.86 Z" class="st4"/>
				<path d="M0 220.01 L62.54 220.01" class="st6"/>
				<path d="" class="st6"/>
				<path d="M0 216.86 L62.54 216.86" class="st6"/>
				<path d="" class="st6"/>
				<path d="M0 220.01 L0 216.86" class="st6"/>
				<path d="M62.54 220.01 L62.54 216.86" class="st6"/>
			</g>
			<g id="shape1623-31" v:mID="1623" v:groupContext="shape" transform="translate(-1.125,-0.75)">
				<title>工作表.1623</title>
				<rect x="0" y="218.356" width="1.5" height="1.65354" class="st7"/>
			</g>
			<g id="shape1624-33" v:mID="1624" v:groupContext="shape" transform="translate(62.5372,-0.75)">
				<title>工作表.1624</title>
				<rect x="0" y="218.356" width="0.75" height="1.65354" class="st7"/>
			</g>
		</g>
		<g id="group1625-35" transform="translate(151.625,-179.614) rotate(15)" v:mID="1625" v:groupContext="group">
			<v:userDefs>
				<v:ud v:nameU="OpenEnd" v:val="VT0(3):26"/>
				<v:ud v:nameU="visVersion" v:val="VT0(15):26"/>
			</v:userDefs>
			<title>开放/闭合条.1625</title>
			<g id="shape1626-36" v:mID="1626" v:groupContext="shape">
				<title>工作表.1626</title>
				<path d="M0 220.01 L84.82 220.01 L84.82 216.86 L0 216.86 L0 220.01 Z" class="st4"/>
				<path d="M0 220.01 L84.82 220.01 L84.82 216.86 L0 216.86" class="st5"/>
			</g>
			<g id="shape1627-39" v:mID="1627" v:groupContext="shape">
				<title>工作表.1627</title>
				<path d="M0 220.01 L84.82 220.01 L0 220.01 ZM0 216.86 L84.82 216.86 L0 216.86 Z" class="st4"/>
				<path d="M0 220.01 L84.82 220.01" class="st6"/>
				<path d="" class="st6"/>
				<path d="M0 216.86 L84.82 216.86" class="st6"/>
				<path d="" class="st6"/>
				<path d="M0 220.01 L0 216.86" class="st6"/>
				<path d="M84.82 220.01 L84.82 216.86" class="st6"/>
			</g>
			<g id="shape1628-47" v:mID="1628" v:groupContext="shape" transform="translate(-1.125,-0.75)">
				<title>工作表.1628</title>
				<rect x="0" y="218.356" width="1.5" height="1.65354" class="st7"/>
			</g>
			<g id="shape1629-49" v:mID="1629" v:groupContext="shape" transform="translate(84.823,-0.75)">
				<title>工作表.1629</title>
				<rect x="0" y="218.356" width="0.75" height="1.65354" class="st7"/>
			</g>
		</g>
		<g id="group1630-51" transform="translate(-22.443,-112.444) rotate(-15)" v:mID="1630" v:groupContext="group">
			<v:userDefs>
				<v:ud v:nameU="OpenEnd" v:val="VT0(3):26"/>
				<v:ud v:nameU="visVersion" v:val="VT0(15):26"/>
			</v:userDefs>
			<title>开放/闭合条.1630</title>
			<g id="shape1631-52" v:mID="1631" v:groupContext="shape">
				<title>工作表.1631</title>
				<path d="M0 220.01 L143.3 220.01 L143.3 216.86 L0 216.86 L0 220.01 Z" class="st4"/>
				<path d="M0 220.01 L143.3 220.01 L143.3 216.86 L0 216.86" class="st5"/>
			</g>
			<g id="shape1632-55" v:mID="1632" v:groupContext="shape">
				<title>工作表.1632</title>
				<path d="M0 220.01 L143.3 220.01 L0 220.01 ZM0 216.86 L143.3 216.86 L0 216.86 Z" class="st4"/>
				<path d="M0 220.01 L143.3 220.01" class="st6"/>
				<path d="" class="st6"/>
				<path d="M0 216.86 L143.3 216.86" class="st6"/>
				<path d="" class="st6"/>
				<path d="M0 220.01 L0 216.86" class="st6"/>
				<path d="M143.3 220.01 L143.3 216.86" class="st6"/>
			</g>
			<g id="shape1633-63" v:mID="1633" v:groupContext="shape" transform="translate(-1.125,-0.75)">
				<title>工作表.1633</title>
				<rect x="0" y="218.356" width="1.5" height="1.65354" class="st7"/>
			</g>
			<g id="shape1634-65" v:mID="1634" v:groupContext="shape" transform="translate(143.302,-0.75)">
				<title>工作表.1634</title>
				<rect x="0" y="218.356" width="0.75" height="1.65354" class="st7"/>
			</g>
		</g>
		<g id="group1635-67" transform="translate(282.389,-77.1925) rotate(60)" v:mID="1635" v:groupContext="group">
			<v:userDefs>
				<v:ud v:nameU="OpenEnd" v:val="VT0(3):26"/>
				<v:ud v:nameU="visVersion" v:val="VT0(15):26"/>
			</v:userDefs>
			<title>开放/闭合条.1635</title>
			<g id="shape1636-68" v:mID="1636" v:groupContext="shape">
				<title>工作表.1636</title>
				<path d="M0 220.01 L112.05 220.01 L112.05 216.86 L0 216.86 L0 220.01 Z" class="st4"/>
				<path d="M0 220.01 L112.05 220.01 L112.05 216.86 L0 216.86" class="st5"/>
			</g>
			<g id="shape1637-71" v:mID="1637" v:groupContext="shape">
				<title>工作表.1637</title>
				<path d="M0 220.01 L112.05 220.01 L0 220.01 ZM0 216.86 L112.05 216.86 L0 216.86 Z" class="st4"/>
				<path d="M0 220.01 L112.05 220.01" class="st6"/>
				<path d="" class="st6"/>
				<path d="M0 216.86 L112.05 216.86" class="st6"/>
				<path d="" class="st6"/>
				<path d="M0 220.01 L0 216.86" class="st6"/>
				<path d="M112.05 220.01 L112.05 216.86" class="st6"/>
			</g>
			<g id="shape1638-79" v:mID="1638" v:groupContext="shape" transform="translate(-1.125,-0.75)">
				<title>工作表.1638</title>
				<rect x="0" y="218.356" width="1.5" height="1.65354" class="st7"/>
			</g>
			<g id="shape1639-81" v:mID="1639" v:groupContext="shape" transform="translate(112.047,-0.75)">
				<title>工作表.1639</title>
				<rect x="0" y="218.356" width="0.75" height="1.65354" class="st7"/>
			</g>
		</g>
		<g id="group1640-83" transform="translate(186.864,-54.5509) rotate(45)" v:mID="1640" v:groupContext="group">
			<v:userDefs>
				<v:ud v:nameU="OpenEnd" v:val="VT0(3):26"/>
				<v:ud v:nameU="visVersion" v:val="VT0(15):26"/>
			</v:userDefs>
			<title>开放/闭合条.1640</title>
			<g id="shape1641-84" v:mID="1641" v:groupContext="shape">
				<title>工作表.1641</title>
				<path d="M0 220.01 L116.26 220.01 L116.26 216.86 L0 216.86 L0 220.01 Z" class="st4"/>
				<path d="M0 220.01 L116.26 220.01 L116.26 216.86 L0 216.86" class="st5"/>
			</g>
			<g id="shape1642-87" v:mID="1642" v:groupContext="shape">
				<title>工作表.1642</title>
				<path d="M0 220.01 L116.26 220.01 L0 220.01 ZM0 216.86 L116.26 216.86 L0 216.86 Z" class="st4"/>
				<path d="M0 220.01 L116.26 220.01" class="st6"/>
				<path d="" class="st6"/>
				<path d="M0 216.86 L116.26 216.86" class="st6"/>
				<path d="" class="st6"/>
				<path d="M0 220.01 L0 216.86" class="st6"/>
				<path d="M116.26 220.01 L116.26 216.86" class="st6"/>
			</g>
			<g id="shape1643-95" v:mID="1643" v:groupContext="shape" transform="translate(-1.125,-0.75)">
				<title>工作表.1643</title>
				<rect x="0" y="218.356" width="1.5" height="1.65354" class="st7"/>
			</g>
			<g id="shape1644-97" v:mID="1644" v:groupContext="shape" transform="translate(116.255,-0.75)">
				<title>工作表.1644</title>
				<rect x="0" y="218.356" width="0.75" height="1.65354" class="st7"/>
			</g>
		</g>
		<g id="group1645-99" transform="translate(234.143,50.1981) rotate(75)" v:mID="1645" v:groupContext="group">
			<v:userDefs>
				<v:ud v:nameU="OpenEnd" v:val="VT0(3):26"/>
				<v:ud v:nameU="visVersion" v:val="VT0(15):26"/>
			</v:userDefs>
			<title>开放/闭合条.1645</title>
			<g id="shape1646-100" v:mID="1646" v:groupContext="shape">
				<title>工作表.1646</title>
				<path d="M0 220.01 L84.03 220.01 L84.03 216.86 L0 216.86 L0 220.01 Z" class="st4"/>
				<path d="M0 220.01 L84.03 220.01 L84.03 216.86 L0 216.86" class="st5"/>
			</g>
			<g id="shape1647-103" v:mID="1647" v:groupContext="shape">
				<title>工作表.1647</title>
				<path d="M0 220.01 L84.03 220.01 L0 220.01 ZM0 216.86 L84.03 216.86 L0 216.86 Z" class="st4"/>
				<path d="M0 220.01 L84.03 220.01" class="st6"/>
				<path d="" class="st6"/>
				<path d="M0 216.86 L84.03 216.86" class="st6"/>
				<path d="" class="st6"/>
				<path d="M0 220.01 L0 216.86" class="st6"/>
				<path d="M84.03 220.01 L84.03 216.86" class="st6"/>
			</g>
			<g id="shape1648-111" v:mID="1648" v:groupContext="shape" transform="translate(-1.125,-0.75)">
				<title>工作表.1648</title>
				<rect x="0" y="218.356" width="1.5" height="1.65354" class="st7"/>
			</g>
			<g id="shape1649-113" v:mID="1649" v:groupContext="shape" transform="translate(84.0299,-0.75)">
				<title>工作表.1649</title>
				<rect x="0" y="218.356" width="0.75" height="1.65354" class="st7"/>
			</g>
		</g>
		<g id="group1650-115" transform="translate(340.541,264.008) rotate(120)" v:mID="1650" v:groupContext="group">
			<v:userDefs>
				<v:ud v:nameU="OpenEnd" v:val="VT0(3):26"/>
				<v:ud v:nameU="visVersion" v:val="VT0(15):26"/>
			</v:userDefs>
			<title>开放/闭合条.1650</title>
			<g id="shape1651-116" v:mID="1651" v:groupContext="shape">
				<title>工作表.1651</title>
				<path d="M0 220.01 L23.63 220.01 L23.63 216.86 L0 216.86 L0 220.01 Z" class="st4"/>
				<path d="M0 220.01 L23.63 220.01 L23.63 216.86 L0 216.86" class="st5"/>
			</g>
			<g id="shape1652-119" v:mID="1652" v:groupContext="shape">
				<title>工作表.1652</title>
				<path d="M0 220.01 L23.63 220.01 L0 220.01 ZM0 216.86 L23.63 216.86 L0 216.86 Z" class="st4"/>
				<path d="M0 220.01 L23.63 220.01" class="st6"/>
				<path d="" class="st6"/>
				<path d="M0 216.86 L23.63 216.86" class="st6"/>
				<path d="" class="st6"/>
				<path d="M0 220.01 L0 216.86" class="st6"/>
				<path d="M23.63 220.01 L23.63 216.86" class="st6"/>
			</g>
			<g id="shape1653-127" v:mID="1653" v:groupContext="shape" transform="translate(-1.125,-0.75)">
				<title>工作表.1653</title>
				<rect x="0" y="218.356" width="1.5" height="1.65354" class="st7"/>
			</g>
			<g id="shape1654-129" v:mID="1654" v:groupContext="shape" transform="translate(23.6279,-0.75)">
				<title>工作表.1654</title>
				<rect x="0" y="218.356" width="0.75" height="1.65354" class="st7"/>
			</g>
		</g>
		<g id="group1655-131" transform="translate(331.757,231.885) rotate(135)" v:mID="1655" v:groupContext="group">
			<v:userDefs>
				<v:ud v:nameU="OpenEnd" v:val="VT0(3):26"/>
				<v:ud v:nameU="visVersion" v:val="VT0(15):26"/>
			</v:userDefs>
			<title>开放/闭合条.1655</title>
			<g id="shape1656-132" v:mID="1656" v:groupContext="shape">
				<title>工作表.1656</title>
				<path d="M0 220.01 L157.59 220.01 L157.59 216.86 L0 216.86 L0 220.01 Z" class="st4"/>
				<path d="M0 220.01 L157.59 220.01 L157.59 216.86 L0 216.86" class="st5"/>
			</g>
			<g id="shape1657-135" v:mID="1657" v:groupContext="shape">
				<title>工作表.1657</title>
				<path d="M0 220.01 L157.59 220.01 L0 220.01 ZM0 216.86 L157.59 216.86 L0 216.86 Z" class="st4"/>
				<path d="M0 220.01 L157.59 220.01" class="st6"/>
				<path d="" class="st6"/>
				<path d="M0 216.86 L157.59 216.86" class="st6"/>
				<path d="" class="st6"/>
				<path d="M0 220.01 L0 216.86" class="st6"/>
				<path d="M157.59 220.01 L157.59 216.86" class="st6"/>
			</g>
			<g id="shape1658-143" v:mID="1658" v:groupContext="shape" transform="translate(-1.125,-0.75)">
				<title>工作表.1658</title>
				<rect x="0" y="218.356" width="1.5" height="1.65354" class="st7"/>
			</g>
			<g id="shape1659-145" v:mID="1659" v:groupContext="shape" transform="translate(157.586,-0.75)">
				<title>工作表.1659</title>
				<rect x="0" y="218.356" width="0.75" height="1.65354" class="st7"/>
			</g>
		</g>
		<g id="group1660-147" transform="translate(169.56,402.432) rotate(165)" v:mID="1660" v:groupContext="group">
			<v:userDefs>
				<v:ud v:nameU="OpenEnd" v:val="VT0(3):26"/>
				<v:ud v:nameU="visVersion" v:val="VT0(15):26"/>
			</v:userDefs>
			<title>开放/闭合条.1660</title>
			<g id="shape1661-148" v:mID="1661" v:groupContext="shape">
				<title>工作表.1661</title>
				<path d="M0 220.01 L41.82 220.01 L41.82 216.86 L0 216.86 L0 220.01 Z" class="st4"/>
				<path d="M0 220.01 L41.82 220.01 L41.82 216.86 L0 216.86" class="st5"/>
			</g>
			<g id="shape1662-151" v:mID="1662" v:groupContext="shape">
				<title>工作表.1662</title>
				<path d="M0 220.01 L41.82 220.01 L0 220.01 ZM0 216.86 L41.82 216.86 L0 216.86 Z" class="st4"/>
				<path d="M0 220.01 L41.82 220.01" class="st6"/>
				<path d="" class="st6"/>
				<path d="M0 216.86 L41.82 216.86" class="st6"/>
				<path d="" class="st6"/>
				<path d="M0 220.01 L0 216.86" class="st6"/>
				<path d="M41.82 220.01 L41.82 216.86" class="st6"/>
			</g>
			<g id="shape1663-159" v:mID="1663" v:groupContext="shape" transform="translate(-1.125,-0.75)">
				<title>工作表.1663</title>
				<rect x="0" y="218.356" width="1.5" height="1.65354" class="st7"/>
			</g>
			<g id="shape1664-161" v:mID="1664" v:groupContext="shape" transform="translate(41.8151,-0.75)">
				<title>工作表.1664</title>
				<rect x="0" y="218.356" width="0.75" height="1.65354" class="st7"/>
			</g>
		</g>
	</g>
</svg>
