<?xml version="1.0" encoding="UTF-8" standalone="no"?>
<!DOCTYPE svg PUBLIC "-//W3C//DTD SVG 1.1//EN" "http://www.w3.org/Graphics/SVG/1.1/DTD/svg11.dtd">
<!-- 由 Microsoft Visio, SVG Export 生成 DepthFirstSearch1.svg 页-1 -->
<svg xmlns="http://www.w3.org/2000/svg" xmlns:xlink="http://www.w3.org/1999/xlink" xmlns:ev="http://www.w3.org/2001/xml-events"
		xmlns:v="http://schemas.microsoft.com/visio/2003/SVGExtensions/" width="2.88886in" height="3.05569in"
		viewBox="0 0 207.998 220.01" xml:space="preserve" color-interpolation-filters="sRGB" class="st8">
	<v:documentProperties v:langID="2052" v:metric="true" v:viewMarkup="false"/>

	<style type="text/css">
	<![CDATA[
		.st1 {fill:none;stroke:#000000;stroke-linecap:round;stroke-linejoin:round;stroke-width:0.75}
		.st2 {fill:#000000;font-family:Cambria Math;font-size:1.5em}
		.st3 {fill:#ffffff;stroke:#000000;stroke-linecap:round;stroke-linejoin:round;stroke-width:0.75}
		.st4 {fill:#ffffff}
		.st5 {stroke:none;stroke-linecap:round;stroke-linejoin:round;stroke-width:0.75}
		.st6 {stroke:#000000;stroke-linecap:round;stroke-linejoin:round;stroke-width:0.75}
		.st7 {fill:#ffffff;stroke:#ffffff;stroke-linecap:round;stroke-linejoin:round;stroke-width:0.75;visibility:hidden}
		.st8 {fill:none;fill-rule:evenodd;font-size:12px;overflow:visible;stroke-linecap:square;stroke-miterlimit:3}
	]]>
	</style>

	<g v:mID="0" v:index="1" v:groupContext="foregroundPage">
		<title>页-1</title>
		<v:pageProperties v:drawingScale="0.0393701" v:pageScale="0.0393701" v:drawingUnits="24" v:shadowOffsetX="8.50394"
				v:shadowOffsetY="-8.50394"/>
		<g id="shape1456-1" v:mID="1456" v:groupContext="shape" transform="translate(65.8907,-184.981)">
			<title>圆形.1484</title>
			<desc>0</desc>
			<v:userDefs>
				<v:ud v:nameU="visVersion" v:val="VT0(15):26"/>
			</v:userDefs>
			<v:textBlock v:margins="rect(4,4,4,4)" v:tabSpace="42.5197"/>
			<v:textRect cx="17.3268" cy="202.683" width="34.66" height="34.6535"/>
			<path d="M0 202.68 A17.3268 17.3268 0 0 1 34.65 202.68 A17.3268 17.3268 0 1 1 0 202.68 Z" class="st1"/>
			<text x="12.34" y="208.08" class="st2" v:langID="2052"><v:paragraph v:horizAlign="1"/><v:tabList/>0</text>		</g>
		<g id="shape1457-4" v:mID="1457" v:groupContext="shape" transform="translate(0.375,-112.662)">
			<title>圆形.1485</title>
			<desc>1</desc>
			<v:userDefs>
				<v:ud v:nameU="visVersion" v:val="VT0(15):26"/>
			</v:userDefs>
			<v:textBlock v:margins="rect(4,4,4,4)" v:tabSpace="42.5197"/>
			<v:textRect cx="17.3268" cy="202.683" width="34.66" height="34.6535"/>
			<path d="M0 202.68 A17.3268 17.3268 0 0 1 34.65 202.68 A17.3268 17.3268 0 1 1 0 202.68 Z" class="st1"/>
			<text x="12.34" y="208.08" class="st2" v:langID="2052"><v:paragraph v:horizAlign="1"/><v:tabList/>1</text>		</g>
		<g id="shape1458-7" v:mID="1458" v:groupContext="shape" transform="translate(172.969,-137.076)">
			<title>圆形.1486</title>
			<desc>5</desc>
			<v:userDefs>
				<v:ud v:nameU="visVersion" v:val="VT0(15):26"/>
			</v:userDefs>
			<v:textBlock v:margins="rect(4,4,4,4)" v:tabSpace="42.5197"/>
			<v:textRect cx="17.3268" cy="202.683" width="34.66" height="34.6535"/>
			<path d="M0 202.68 A17.3268 17.3268 0 0 1 34.65 202.68 A17.3268 17.3268 0 1 1 0 202.68 Z" class="st3"/>
			<text x="12.34" y="208.08" class="st2" v:langID="2052"><v:paragraph v:horizAlign="1"/><v:tabList/>5</text>		</g>
		<g id="shape1459-10" v:mID="1459" v:groupContext="shape" transform="translate(37.5443,-0.375)">
			<title>圆形.1487</title>
			<desc>2</desc>
			<v:userDefs>
				<v:ud v:nameU="visVersion" v:val="VT0(15):26"/>
			</v:userDefs>
			<v:textBlock v:margins="rect(4,4,4,4)" v:tabSpace="42.5197"/>
			<v:textRect cx="17.3268" cy="202.683" width="34.66" height="34.6535"/>
			<path d="M0 202.68 A17.3268 17.3268 0 0 1 34.65 202.68 A17.3268 17.3268 0 1 1 0 202.68 Z" class="st3"/>
			<text x="12.34" y="208.08" class="st2" v:langID="2052"><v:paragraph v:horizAlign="1"/><v:tabList/>2</text>		</g>
		<g id="shape1460-13" v:mID="1460" v:groupContext="shape" transform="translate(113.442,-12.3514)">
			<title>圆形.1488</title>
			<desc>3</desc>
			<v:userDefs>
				<v:ud v:nameU="visVersion" v:val="VT0(15):26"/>
			</v:userDefs>
			<v:textBlock v:margins="rect(4,4,4,4)" v:tabSpace="42.5197"/>
			<v:textRect cx="17.3268" cy="202.683" width="34.66" height="34.6535"/>
			<path d="M0 202.68 A17.3268 17.3268 0 0 1 34.65 202.68 A17.3268 17.3268 0 1 1 0 202.68 Z" class="st3"/>
			<text x="12.34" y="208.08" class="st2" v:langID="2052"><v:paragraph v:horizAlign="1"/><v:tabList/>3</text>		</g>
		<g id="shape1461-16" v:mID="1461" v:groupContext="shape" transform="translate(145.261,-61.6388)">
			<title>圆形.1489</title>
			<desc>4</desc>
			<v:userDefs>
				<v:ud v:nameU="visVersion" v:val="VT0(15):26"/>
			</v:userDefs>
			<v:textBlock v:margins="rect(4,4,4,4)" v:tabSpace="42.5197"/>
			<v:textRect cx="17.3268" cy="202.683" width="34.66" height="34.6535"/>
			<path d="M0 202.68 A17.3268 17.3268 0 0 1 34.65 202.68 A17.3268 17.3268 0 1 1 0 202.68 Z" class="st3"/>
			<text x="12.34" y="208.08" class="st2" v:langID="2052"><v:paragraph v:horizAlign="1"/><v:tabList/>4</text>		</g>
		<g id="group1462-19" transform="translate(-126.088,-78.5018) rotate(-45)" v:mID="1462" v:groupContext="group">
			<v:userDefs>
				<v:ud v:nameU="OpenEnd" v:val="VT0(3):26"/>
				<v:ud v:nameU="visVersion" v:val="VT0(15):26"/>
			</v:userDefs>
			<title>开放/闭合条</title>
			<g id="shape1463-20" v:mID="1463" v:groupContext="shape">
				<title>工作表.1463</title>
				<path d="M0 220.01 L62.54 220.01 L62.54 216.86 L0 216.86 L0 220.01 Z" class="st4"/>
				<path d="M0 220.01 L62.54 220.01 L62.54 216.86 L0 216.86" class="st5"/>
			</g>
			<g id="shape1464-23" v:mID="1464" v:groupContext="shape">
				<title>工作表.1464</title>
				<path d="M0 220.01 L62.54 220.01 L0 220.01 ZM0 216.86 L62.54 216.86 L0 216.86 Z" class="st4"/>
				<path d="M0 220.01 L62.54 220.01" class="st6"/>
				<path d="" class="st6"/>
				<path d="M0 216.86 L62.54 216.86" class="st6"/>
				<path d="" class="st6"/>
				<path d="M0 220.01 L0 216.86" class="st6"/>
				<path d="M62.54 220.01 L62.54 216.86" class="st6"/>
			</g>
			<g id="shape1465-31" v:mID="1465" v:groupContext="shape" transform="translate(-1.125,-0.75)">
				<title>工作表.1465</title>
				<rect x="0" y="218.356" width="1.5" height="1.65354" class="st7"/>
			</g>
			<g id="shape1466-33" v:mID="1466" v:groupContext="shape" transform="translate(62.5372,-0.75)">
				<title>工作表.1466</title>
				<rect x="0" y="218.356" width="0.75" height="1.65354" class="st7"/>
			</g>
		</g>
		<g id="group1467-35" transform="translate(151.625,-179.614) rotate(15)" v:mID="1467" v:groupContext="group">
			<v:userDefs>
				<v:ud v:nameU="OpenEnd" v:val="VT0(3):26"/>
				<v:ud v:nameU="visVersion" v:val="VT0(15):26"/>
			</v:userDefs>
			<title>开放/闭合条.1528</title>
			<g id="shape1468-36" v:mID="1468" v:groupContext="shape">
				<title>工作表.1468</title>
				<path d="M0 220.01 L84.82 220.01 L84.82 216.86 L0 216.86 L0 220.01 Z" class="st4"/>
				<path d="M0 220.01 L84.82 220.01 L84.82 216.86 L0 216.86" class="st5"/>
			</g>
			<g id="shape1469-39" v:mID="1469" v:groupContext="shape">
				<title>工作表.1469</title>
				<path d="M0 220.01 L84.82 220.01 L0 220.01 ZM0 216.86 L84.82 216.86 L0 216.86 Z" class="st4"/>
				<path d="M0 220.01 L84.82 220.01" class="st6"/>
				<path d="" class="st6"/>
				<path d="M0 216.86 L84.82 216.86" class="st6"/>
				<path d="" class="st6"/>
				<path d="M0 220.01 L0 216.86" class="st6"/>
				<path d="M84.82 220.01 L84.82 216.86" class="st6"/>
			</g>
			<g id="shape1470-47" v:mID="1470" v:groupContext="shape" transform="translate(-1.125,-0.75)">
				<title>工作表.1470</title>
				<rect x="0" y="218.356" width="1.5" height="1.65354" class="st7"/>
			</g>
			<g id="shape1471-49" v:mID="1471" v:groupContext="shape" transform="translate(84.823,-0.75)">
				<title>工作表.1471</title>
				<rect x="0" y="218.356" width="0.75" height="1.65354" class="st7"/>
			</g>
		</g>
		<g id="group1472-51" transform="translate(-22.443,-112.444) rotate(-15)" v:mID="1472" v:groupContext="group">
			<v:userDefs>
				<v:ud v:nameU="OpenEnd" v:val="VT0(3):26"/>
				<v:ud v:nameU="visVersion" v:val="VT0(15):26"/>
			</v:userDefs>
			<title>开放/闭合条.1533</title>
			<g id="shape1473-52" v:mID="1473" v:groupContext="shape">
				<title>工作表.1473</title>
				<path d="M0 220.01 L143.3 220.01 L143.3 216.86 L0 216.86 L0 220.01 Z" class="st4"/>
				<path d="M0 220.01 L143.3 220.01 L143.3 216.86 L0 216.86" class="st5"/>
			</g>
			<g id="shape1474-55" v:mID="1474" v:groupContext="shape">
				<title>工作表.1474</title>
				<path d="M0 220.01 L143.3 220.01 L0 220.01 ZM0 216.86 L143.3 216.86 L0 216.86 Z" class="st4"/>
				<path d="M0 220.01 L143.3 220.01" class="st6"/>
				<path d="" class="st6"/>
				<path d="M0 216.86 L143.3 216.86" class="st6"/>
				<path d="" class="st6"/>
				<path d="M0 220.01 L0 216.86" class="st6"/>
				<path d="M143.3 220.01 L143.3 216.86" class="st6"/>
			</g>
			<g id="shape1475-63" v:mID="1475" v:groupContext="shape" transform="translate(-1.125,-0.75)">
				<title>工作表.1475</title>
				<rect x="0" y="218.356" width="1.5" height="1.65354" class="st7"/>
			</g>
			<g id="shape1476-65" v:mID="1476" v:groupContext="shape" transform="translate(143.302,-0.75)">
				<title>工作表.1476</title>
				<rect x="0" y="218.356" width="0.75" height="1.65354" class="st7"/>
			</g>
		</g>
		<g id="group1477-67" transform="translate(282.389,-77.1925) rotate(60)" v:mID="1477" v:groupContext="group">
			<v:userDefs>
				<v:ud v:nameU="OpenEnd" v:val="VT0(3):26"/>
				<v:ud v:nameU="visVersion" v:val="VT0(15):26"/>
			</v:userDefs>
			<title>开放/闭合条.1538</title>
			<g id="shape1478-68" v:mID="1478" v:groupContext="shape">
				<title>工作表.1478</title>
				<path d="M0 220.01 L112.05 220.01 L112.05 216.86 L0 216.86 L0 220.01 Z" class="st4"/>
				<path d="M0 220.01 L112.05 220.01 L112.05 216.86 L0 216.86" class="st5"/>
			</g>
			<g id="shape1479-71" v:mID="1479" v:groupContext="shape">
				<title>工作表.1479</title>
				<path d="M0 220.01 L112.05 220.01 L0 220.01 ZM0 216.86 L112.05 216.86 L0 216.86 Z" class="st4"/>
				<path d="M0 220.01 L112.05 220.01" class="st6"/>
				<path d="" class="st6"/>
				<path d="M0 216.86 L112.05 216.86" class="st6"/>
				<path d="" class="st6"/>
				<path d="M0 220.01 L0 216.86" class="st6"/>
				<path d="M112.05 220.01 L112.05 216.86" class="st6"/>
			</g>
			<g id="shape1480-79" v:mID="1480" v:groupContext="shape" transform="translate(-1.125,-0.75)">
				<title>工作表.1480</title>
				<rect x="0" y="218.356" width="1.5" height="1.65354" class="st7"/>
			</g>
			<g id="shape1481-81" v:mID="1481" v:groupContext="shape" transform="translate(112.047,-0.75)">
				<title>工作表.1481</title>
				<rect x="0" y="218.356" width="0.75" height="1.65354" class="st7"/>
			</g>
		</g>
		<g id="group1482-83" transform="translate(186.864,-54.5509) rotate(45)" v:mID="1482" v:groupContext="group">
			<v:userDefs>
				<v:ud v:nameU="OpenEnd" v:val="VT0(3):26"/>
				<v:ud v:nameU="visVersion" v:val="VT0(15):26"/>
			</v:userDefs>
			<title>开放/闭合条.1543</title>
			<g id="shape1483-84" v:mID="1483" v:groupContext="shape">
				<title>工作表.1483</title>
				<path d="M0 220.01 L116.26 220.01 L116.26 216.86 L0 216.86 L0 220.01 Z" class="st4"/>
				<path d="M0 220.01 L116.26 220.01 L116.26 216.86 L0 216.86" class="st5"/>
			</g>
			<g id="shape1484-87" v:mID="1484" v:groupContext="shape">
				<title>工作表.1484</title>
				<path d="M0 220.01 L116.26 220.01 L0 220.01 ZM0 216.86 L116.26 216.86 L0 216.86 Z" class="st4"/>
				<path d="M0 220.01 L116.26 220.01" class="st6"/>
				<path d="" class="st6"/>
				<path d="M0 216.86 L116.26 216.86" class="st6"/>
				<path d="" class="st6"/>
				<path d="M0 220.01 L0 216.86" class="st6"/>
				<path d="M116.26 220.01 L116.26 216.86" class="st6"/>
			</g>
			<g id="shape1485-95" v:mID="1485" v:groupContext="shape" transform="translate(-1.125,-0.75)">
				<title>工作表.1485</title>
				<rect x="0" y="218.356" width="1.5" height="1.65354" class="st7"/>
			</g>
			<g id="shape1486-97" v:mID="1486" v:groupContext="shape" transform="translate(116.255,-0.75)">
				<title>工作表.1486</title>
				<rect x="0" y="218.356" width="0.75" height="1.65354" class="st7"/>
			</g>
		</g>
		<g id="group1487-99" transform="translate(234.143,50.1981) rotate(75)" v:mID="1487" v:groupContext="group">
			<v:userDefs>
				<v:ud v:nameU="OpenEnd" v:val="VT0(3):26"/>
				<v:ud v:nameU="visVersion" v:val="VT0(15):26"/>
			</v:userDefs>
			<title>开放/闭合条.1548</title>
			<g id="shape1488-100" v:mID="1488" v:groupContext="shape">
				<title>工作表.1488</title>
				<path d="M0 220.01 L84.03 220.01 L84.03 216.86 L0 216.86 L0 220.01 Z" class="st4"/>
				<path d="M0 220.01 L84.03 220.01 L84.03 216.86 L0 216.86" class="st5"/>
			</g>
			<g id="shape1489-103" v:mID="1489" v:groupContext="shape">
				<title>工作表.1489</title>
				<path d="M0 220.01 L84.03 220.01 L0 220.01 ZM0 216.86 L84.03 216.86 L0 216.86 Z" class="st4"/>
				<path d="M0 220.01 L84.03 220.01" class="st6"/>
				<path d="" class="st6"/>
				<path d="M0 216.86 L84.03 216.86" class="st6"/>
				<path d="" class="st6"/>
				<path d="M0 220.01 L0 216.86" class="st6"/>
				<path d="M84.03 220.01 L84.03 216.86" class="st6"/>
			</g>
			<g id="shape1490-111" v:mID="1490" v:groupContext="shape" transform="translate(-1.125,-0.75)">
				<title>工作表.1490</title>
				<rect x="0" y="218.356" width="1.5" height="1.65354" class="st7"/>
			</g>
			<g id="shape1491-113" v:mID="1491" v:groupContext="shape" transform="translate(84.0299,-0.75)">
				<title>工作表.1491</title>
				<rect x="0" y="218.356" width="0.75" height="1.65354" class="st7"/>
			</g>
		</g>
		<g id="group1492-115" transform="translate(340.541,264.008) rotate(120)" v:mID="1492" v:groupContext="group">
			<v:userDefs>
				<v:ud v:nameU="OpenEnd" v:val="VT0(3):26"/>
				<v:ud v:nameU="visVersion" v:val="VT0(15):26"/>
			</v:userDefs>
			<title>开放/闭合条.1553</title>
			<g id="shape1493-116" v:mID="1493" v:groupContext="shape">
				<title>工作表.1493</title>
				<path d="M0 220.01 L23.63 220.01 L23.63 216.86 L0 216.86 L0 220.01 Z" class="st4"/>
				<path d="M0 220.01 L23.63 220.01 L23.63 216.86 L0 216.86" class="st5"/>
			</g>
			<g id="shape1494-119" v:mID="1494" v:groupContext="shape">
				<title>工作表.1494</title>
				<path d="M0 220.01 L23.63 220.01 L0 220.01 ZM0 216.86 L23.63 216.86 L0 216.86 Z" class="st4"/>
				<path d="M0 220.01 L23.63 220.01" class="st6"/>
				<path d="" class="st6"/>
				<path d="M0 216.86 L23.63 216.86" class="st6"/>
				<path d="" class="st6"/>
				<path d="M0 220.01 L0 216.86" class="st6"/>
				<path d="M23.63 220.01 L23.63 216.86" class="st6"/>
			</g>
			<g id="shape1495-127" v:mID="1495" v:groupContext="shape" transform="translate(-1.125,-0.75)">
				<title>工作表.1495</title>
				<rect x="0" y="218.356" width="1.5" height="1.65354" class="st7"/>
			</g>
			<g id="shape1496-129" v:mID="1496" v:groupContext="shape" transform="translate(23.6279,-0.75)">
				<title>工作表.1496</title>
				<rect x="0" y="218.356" width="0.75" height="1.65354" class="st7"/>
			</g>
		</g>
		<g id="group1497-131" transform="translate(331.757,231.885) rotate(135)" v:mID="1497" v:groupContext="group">
			<v:userDefs>
				<v:ud v:nameU="OpenEnd" v:val="VT0(3):26"/>
				<v:ud v:nameU="visVersion" v:val="VT0(15):26"/>
			</v:userDefs>
			<title>开放/闭合条.1558</title>
			<g id="shape1498-132" v:mID="1498" v:groupContext="shape">
				<title>工作表.1498</title>
				<path d="M0 220.01 L157.59 220.01 L157.59 216.86 L0 216.86 L0 220.01 Z" class="st4"/>
				<path d="M0 220.01 L157.59 220.01 L157.59 216.86 L0 216.86" class="st5"/>
			</g>
			<g id="shape1499-135" v:mID="1499" v:groupContext="shape">
				<title>工作表.1499</title>
				<path d="M0 220.01 L157.59 220.01 L0 220.01 ZM0 216.86 L157.59 216.86 L0 216.86 Z" class="st4"/>
				<path d="M0 220.01 L157.59 220.01" class="st6"/>
				<path d="" class="st6"/>
				<path d="M0 216.86 L157.59 216.86" class="st6"/>
				<path d="" class="st6"/>
				<path d="M0 220.01 L0 216.86" class="st6"/>
				<path d="M157.59 220.01 L157.59 216.86" class="st6"/>
			</g>
			<g id="shape1500-143" v:mID="1500" v:groupContext="shape" transform="translate(-1.125,-0.75)">
				<title>工作表.1500</title>
				<rect x="0" y="218.356" width="1.5" height="1.65354" class="st7"/>
			</g>
			<g id="shape1501-145" v:mID="1501" v:groupContext="shape" transform="translate(157.586,-0.75)">
				<title>工作表.1501</title>
				<rect x="0" y="218.356" width="0.75" height="1.65354" class="st7"/>
			</g>
		</g>
		<g id="group1502-147" transform="translate(169.56,402.432) rotate(165)" v:mID="1502" v:groupContext="group">
			<v:userDefs>
				<v:ud v:nameU="OpenEnd" v:val="VT0(3):26"/>
				<v:ud v:nameU="visVersion" v:val="VT0(15):26"/>
			</v:userDefs>
			<title>开放/闭合条.1563</title>
			<g id="shape1503-148" v:mID="1503" v:groupContext="shape">
				<title>工作表.1503</title>
				<path d="M0 220.01 L41.82 220.01 L41.82 216.86 L0 216.86 L0 220.01 Z" class="st4"/>
				<path d="M0 220.01 L41.82 220.01 L41.82 216.86 L0 216.86" class="st5"/>
			</g>
			<g id="shape1504-151" v:mID="1504" v:groupContext="shape">
				<title>工作表.1504</title>
				<path d="M0 220.01 L41.82 220.01 L0 220.01 ZM0 216.86 L41.82 216.86 L0 216.86 Z" class="st4"/>
				<path d="M0 220.01 L41.82 220.01" class="st6"/>
				<path d="" class="st6"/>
				<path d="M0 216.86 L41.82 216.86" class="st6"/>
				<path d="" class="st6"/>
				<path d="M0 220.01 L0 216.86" class="st6"/>
				<path d="M41.82 220.01 L41.82 216.86" class="st6"/>
			</g>
			<g id="shape1505-159" v:mID="1505" v:groupContext="shape" transform="translate(-1.125,-0.75)">
				<title>工作表.1505</title>
				<rect x="0" y="218.356" width="1.5" height="1.65354" class="st7"/>
			</g>
			<g id="shape1506-161" v:mID="1506" v:groupContext="shape" transform="translate(41.8151,-0.75)">
				<title>工作表.1506</title>
				<rect x="0" y="218.356" width="0.75" height="1.65354" class="st7"/>
			</g>
		</g>
	</g>
</svg>
