<?xml version="1.0" encoding="UTF-8" standalone="no"?>
<!DOCTYPE svg PUBLIC "-//W3C//DTD SVG 1.1//EN" "http://www.w3.org/Graphics/SVG/1.1/DTD/svg11.dtd">
<!-- 由 Microsoft Visio, SVG Export 生成 EulerCycle4.svg 页-1 -->
<svg xmlns="http://www.w3.org/2000/svg" xmlns:xlink="http://www.w3.org/1999/xlink" xmlns:ev="http://www.w3.org/2001/xml-events"
		xmlns:v="http://schemas.microsoft.com/visio/2003/SVGExtensions/" width="2.90115in" height="3.04569in"
		viewBox="0 0 208.883 219.289" xml:space="preserve" color-interpolation-filters="sRGB" class="st11">
	<v:documentProperties v:langID="2052" v:metric="true" v:viewMarkup="false"/>

	<style type="text/css">
	<![CDATA[
		.st1 {fill:none;stroke:#000000;stroke-linecap:round;stroke-linejoin:round;stroke-width:0.75}
		.st2 {fill:#000000;font-family:Cambria Math;font-size:1.5em}
		.st3 {fill:#ffffff;stroke:#000000;stroke-linecap:round;stroke-linejoin:round;stroke-width:0.75}
		.st4 {fill:#ffffff}
		.st5 {stroke:none;stroke-linecap:round;stroke-linejoin:round;stroke-width:0.75}
		.st6 {stroke:#000000;stroke-linecap:round;stroke-linejoin:round;stroke-width:0.75}
		.st7 {fill:#ffffff;stroke:none;stroke-linecap:round;stroke-linejoin:round;stroke-width:0.75}
		.st8 {fill:#ffffff;stroke:none;stroke-linecap:butt}
		.st9 {fill:#000000;font-family:Cambria Math;font-size:1.00001em}
		.st10 {fill:#ffffff;stroke:none;stroke-linecap:butt;stroke-width:7.2}
		.st11 {fill:none;fill-rule:evenodd;font-size:12px;overflow:visible;stroke-linecap:square;stroke-miterlimit:3}
	]]>
	</style>

	<g v:mID="0" v:index="1" v:groupContext="foregroundPage">
		<title>页-1</title>
		<v:pageProperties v:drawingScale="0.0393701" v:pageScale="0.0393701" v:drawingUnits="24" v:shadowOffsetX="8.50394"
				v:shadowOffsetY="-8.50394"/>
		<g id="shape1929-1" v:mID="1929" v:groupContext="shape" transform="translate(75.4026,-184.261)">
			<title>圆形.1929</title>
			<desc>0</desc>
			<v:userDefs>
				<v:ud v:nameU="visVersion" v:val="VT0(15):26"/>
			</v:userDefs>
			<v:textBlock v:margins="rect(4,4,4,4)" v:tabSpace="42.5197"/>
			<v:textRect cx="17.3268" cy="201.963" width="34.66" height="34.6535"/>
			<path d="M0 201.96 A17.3268 17.3268 0 0 1 34.65 201.96 A17.3268 17.3268 0 1 1 0 201.96 Z" class="st1"/>
			<text x="12.34" y="207.36" class="st2" v:langID="2052"><v:paragraph v:horizAlign="1"/><v:tabList/>0</text>		</g>
		<g id="shape1930-4" v:mID="1930" v:groupContext="shape" transform="translate(9.88682,-111.942)">
			<title>圆形.1930</title>
			<desc>1</desc>
			<v:userDefs>
				<v:ud v:nameU="visVersion" v:val="VT0(15):26"/>
			</v:userDefs>
			<v:textBlock v:margins="rect(4,4,4,4)" v:tabSpace="42.5197"/>
			<v:textRect cx="17.3268" cy="201.963" width="34.66" height="34.6535"/>
			<path d="M0 201.96 A17.3268 17.3268 0 0 1 34.65 201.96 A17.3268 17.3268 0 1 1 0 201.96 Z" class="st1"/>
			<text x="12.34" y="207.36" class="st2" v:langID="2052"><v:paragraph v:horizAlign="1"/><v:tabList/>1</text>		</g>
		<g id="shape1931-7" v:mID="1931" v:groupContext="shape" transform="translate(160.441,-135.34)">
			<title>圆形.1931</title>
			<desc>5</desc>
			<v:userDefs>
				<v:ud v:nameU="visVersion" v:val="VT0(15):26"/>
			</v:userDefs>
			<v:textBlock v:margins="rect(4,4,4,4)" v:tabSpace="42.5197"/>
			<v:textRect cx="17.3268" cy="201.963" width="34.66" height="34.6535"/>
			<path d="M0 201.96 A17.3268 17.3268 0 0 1 34.65 201.96 A17.3268 17.3268 0 1 1 0 201.96 Z" class="st3"/>
			<text x="12.34" y="207.36" class="st2" v:langID="2052"><v:paragraph v:horizAlign="1"/><v:tabList/>5</text>		</g>
		<g id="shape1932-10" v:mID="1932" v:groupContext="shape" transform="translate(37.4532,-18.4813)">
			<title>圆形.1932</title>
			<desc>2</desc>
			<v:userDefs>
				<v:ud v:nameU="visVersion" v:val="VT0(15):26"/>
			</v:userDefs>
			<v:textBlock v:margins="rect(4,4,4,4)" v:tabSpace="42.5197"/>
			<v:textRect cx="17.3268" cy="201.963" width="34.66" height="34.6535"/>
			<path d="M0 201.96 A17.3268 17.3268 0 0 1 34.65 201.96 A17.3268 17.3268 0 1 1 0 201.96 Z" class="st3"/>
			<text x="12.34" y="207.36" class="st2" v:langID="2052"><v:paragraph v:horizAlign="1"/><v:tabList/>2</text>		</g>
		<g id="shape1933-13" v:mID="1933" v:groupContext="shape" transform="translate(90.651,-91.4984)">
			<title>圆形.1933</title>
			<desc>3</desc>
			<v:userDefs>
				<v:ud v:nameU="visVersion" v:val="VT0(15):26"/>
			</v:userDefs>
			<v:textBlock v:margins="rect(4,4,4,4)" v:tabSpace="42.5197"/>
			<v:textRect cx="17.3268" cy="201.963" width="34.66" height="34.6535"/>
			<path d="M0 201.96 A17.3268 17.3268 0 0 1 34.65 201.96 A17.3268 17.3268 0 1 1 0 201.96 Z" class="st3"/>
			<text x="12.34" y="207.36" class="st2" v:langID="2052"><v:paragraph v:horizAlign="1"/><v:tabList/>3</text>		</g>
		<g id="shape1934-16" v:mID="1934" v:groupContext="shape" transform="translate(160.441,-47.8671)">
			<title>圆形.1934</title>
			<desc>4</desc>
			<v:userDefs>
				<v:ud v:nameU="visVersion" v:val="VT0(15):26"/>
			</v:userDefs>
			<v:textBlock v:margins="rect(4,4,4,4)" v:tabSpace="42.5197"/>
			<v:textRect cx="17.3268" cy="201.963" width="34.66" height="34.6535"/>
			<path d="M0 201.96 A17.3268 17.3268 0 0 1 34.65 201.96 A17.3268 17.3268 0 1 1 0 201.96 Z" class="st3"/>
			<text x="12.34" y="207.36" class="st2" v:langID="2052"><v:paragraph v:horizAlign="1"/><v:tabList/>4</text>		</g>
		<g id="shape1935-19" v:mID="1935" v:groupContext="shape" transform="translate(111.154,-0.375)">
			<title>圆形.1935</title>
			<desc>6</desc>
			<v:userDefs>
				<v:ud v:nameU="visVersion" v:val="VT0(15):26"/>
			</v:userDefs>
			<v:textBlock v:margins="rect(4,4,4,4)" v:tabSpace="42.5197"/>
			<v:textRect cx="17.3268" cy="201.963" width="34.66" height="34.6535"/>
			<path d="M0 201.96 A17.3268 17.3268 0 0 1 34.65 201.96 A17.3268 17.3268 0 1 1 0 201.96 Z" class="st3"/>
			<text x="12.34" y="207.36" class="st2" v:langID="2052"><v:paragraph v:horizAlign="1"/><v:tabList/>6</text>		</g>
		<g id="group1936-22" transform="translate(228.005,178.703) rotate(135)" v:mID="1936" v:groupContext="group">
			<v:userDefs>
				<v:ud v:nameU="visVersion" v:val="VT0(15):26"/>
			</v:userDefs>
			<title>开放式一维单向箭头.1936</title>
			<desc>0</desc>
			<g id="shape1937-23" v:mID="1937" v:groupContext="shape">
				<title>工作表.1937</title>
				<path d="M-2.25 217.31 L62.07 217.31 L62.07 219.29 L64.05 215.32 L62.07 211.35 L62.07 213.34 L-2.25 213.34 L-2.25
							 217.31 Z" class="st4"/>
				<path d="M-2.25 217.31 L62.07 217.31 L62.07 219.29 L64.05 215.32 L62.07 211.35 L62.07 213.34 L-2.25 213.34"
						class="st5"/>
			</g>
			<g id="shape1938-26" v:mID="1938" v:groupContext="shape">
				<title>工作表.1938</title>
				<path d="M0 217.31 L62.07 217.31 L62.07 219.29 L64.05 215.32 L62.07 211.35 L62.07 213.34 L0 213.34" class="st6"/>
			</g>
			<g id="shape1939-29" v:mID="1939" v:groupContext="shape" transform="translate(-1.39054,-2.73425)">
				<title>工作表.1939</title>
				<rect x="0" y="216.821" width="1.5" height="2.4685" class="st7"/>
			</g>
			<g id="shape1936-31" v:mID="1936" v:groupContext="groupContent">
				<v:textBlock v:margins="rect(4,4,4,4)" v:tabSpace="42.5197"/>
				<v:textRect cx="32.027" cy="215.321" width="64.06" height="7.93701" transform="rotate(-180)"/>
				<rect v:rectContext="textBkgnd" x="-35.3491" y="-222.521" width="6.64453" height="14.4001" transform="rotate(180)"
						class="st8"/>
				<text x="-35.35" y="-211.72" transform="rotate(180)" class="st9" v:langID="2052"><v:paragraph v:horizAlign="1"/><v:tabList/>0</text>			</g>
		</g>
		<g id="group1940-34" transform="translate(232.179,55.2319) rotate(75.325)" v:mID="1940" v:groupContext="group">
			<v:userDefs>
				<v:ud v:nameU="visVersion" v:val="VT0(15):26"/>
			</v:userDefs>
			<title>开放式一维单向箭头.1940</title>
			<desc>1</desc>
			<g id="shape1941-35" v:mID="1941" v:groupContext="shape">
				<title>工作表.1941</title>
				<path d="M-2.25 217.31 L62.09 217.31 L62.09 219.29 L64.08 215.32 L62.09 211.35 L62.09 213.34 L-2.25 213.34 L-2.25
							 217.31 Z" class="st4"/>
				<path d="M-2.25 217.31 L62.09 217.31 L62.09 219.29 L64.08 215.32 L62.09 211.35 L62.09 213.34 L-2.25 213.34"
						class="st5"/>
			</g>
			<g id="shape1942-38" v:mID="1942" v:groupContext="shape">
				<title>工作表.1942</title>
				<path d="M0 217.31 L62.09 217.31 L62.09 219.29 L64.08 215.32 L62.09 211.35 L62.09 213.34 L0 213.34" class="st6"/>
			</g>
			<g id="shape1943-41" v:mID="1943" v:groupContext="shape" transform="translate(-1.39077,-2.73425)">
				<title>工作表.1943</title>
				<rect x="0" y="216.821" width="1.5" height="2.4685" class="st7"/>
			</g>
			<g id="shape1940-43" v:mID="1940" v:groupContext="groupContent">
				<v:textBlock v:margins="rect(4,4,4,4)" v:tabSpace="42.5197"/>
				<v:textRect cx="32.0387" cy="215.321" width="64.08" height="7.93701" transform="rotate(-90)"/>
				<rect v:rectContext="textBkgnd" x="-218.643" y="24.8388" width="6.64453" height="14.4001" transform="rotate(-90)"
						class="st10"/>
				<text x="-218.64" y="35.64" transform="rotate(-90)" class="st9" v:langID="2052"><v:paragraph v:horizAlign="1"/><v:tabList/>1</text>			</g>
		</g>
		<g id="group1944-46" transform="translate(124.414,-22.9306) rotate(13.6417)" v:mID="1944" v:groupContext="group">
			<v:userDefs>
				<v:ud v:nameU="visVersion" v:val="VT0(15):26"/>
			</v:userDefs>
			<title>开放式一维单向箭头.1944</title>
			<desc>2</desc>
			<g id="shape1945-47" v:mID="1945" v:groupContext="shape">
				<title>工作表.1945</title>
				<path d="M-2.25 217.31 L36.66 217.31 L36.66 219.29 L38.65 215.32 L36.66 211.35 L36.66 213.34 L-2.25 213.34 L-2.25
							 217.31 Z" class="st4"/>
				<path d="M-2.25 217.31 L36.66 217.31 L36.66 219.29 L38.65 215.32 L36.66 211.35 L36.66 213.34 L-2.25 213.34"
						class="st5"/>
			</g>
			<g id="shape1946-50" v:mID="1946" v:groupContext="shape">
				<title>工作表.1946</title>
				<path d="M0 217.31 L36.66 217.31 L36.66 219.29 L38.65 215.32 L36.66 211.35 L36.66 213.34 L0 213.34" class="st6"/>
			</g>
			<g id="shape1947-53" v:mID="1947" v:groupContext="shape" transform="translate(-1.13649,-2.73425)">
				<title>工作表.1947</title>
				<rect x="0" y="216.821" width="1.5" height="2.4685" class="st7"/>
			</g>
			<g id="shape1944-55" v:mID="1944" v:groupContext="groupContent">
				<v:textBlock v:margins="rect(4,4,4,4)" v:tabSpace="42.5197"/>
				<v:textRect cx="19.3246" cy="215.321" width="38.65" height="7.93701"/>
				<rect v:rectContext="textBkgnd" x="16.0024" y="208.121" width="6.64453" height="14.4001" class="st10"/>
				<text x="16" y="218.92" class="st9" v:langID="2052"><v:paragraph v:horizAlign="1"/><v:tabList/>2</text>			</g>
		</g>
		<g id="group1948-58" transform="translate(247.48,-64.4695) rotate(34.0034)" v:mID="1948" v:groupContext="group">
			<v:userDefs>
				<v:ud v:nameU="visVersion" v:val="VT0(15):26"/>
			</v:userDefs>
			<title>开放式一维单向箭头.1948</title>
			<desc>6</desc>
			<g id="shape1949-59" v:mID="1949" v:groupContext="shape">
				<title>工作表.1949</title>
				<path d="M-2.25 217.31 L44.6 217.31 L44.6 219.29 L46.58 215.32 L44.6 211.35 L44.6 213.34 L-2.25 213.34 L-2.25 217.31
							 Z" class="st4"/>
				<path d="M-2.25 217.31 L44.6 217.31 L44.6 219.29 L46.58 215.32 L44.6 211.35 L44.6 213.34 L-2.25 213.34" class="st5"/>
			</g>
			<g id="shape1950-62" v:mID="1950" v:groupContext="shape">
				<title>工作表.1950</title>
				<path d="M0 217.31 L44.6 217.31 L44.6 219.29 L46.58 215.32 L44.6 211.35 L44.6 213.34 L0 213.34" class="st6"/>
			</g>
			<g id="shape1951-65" v:mID="1951" v:groupContext="shape" transform="translate(-1.21583,-2.73425)">
				<title>工作表.1951</title>
				<rect x="0" y="216.821" width="1.5" height="2.4685" class="st7"/>
			</g>
			<g id="shape1948-67" v:mID="1948" v:groupContext="groupContent">
				<v:textBlock v:margins="rect(4,4,4,4)" v:tabSpace="42.5197"/>
				<v:textRect cx="23.2913" cy="215.321" width="46.59" height="7.93701"/>
				<rect v:rectContext="textBkgnd" x="19.969" y="208.121" width="6.64453" height="14.4001" class="st8"/>
				<text x="19.97" y="218.92" class="st9" v:langID="2052"><v:paragraph v:horizAlign="1"/><v:tabList/>6</text>			</g>
		</g>
		<g id="group1952-70" transform="translate(-44.8167,136.71) rotate(-90)" v:mID="1952" v:groupContext="group">
			<v:userDefs>
				<v:ud v:nameU="visVersion" v:val="VT0(15):26"/>
			</v:userDefs>
			<title>开放式一维单向箭头.1952</title>
			<desc>7</desc>
			<g id="shape1953-71" v:mID="1953" v:groupContext="shape">
				<title>工作表.1953</title>
				<path d="M-2.25 217.31 L51.31 217.31 L51.31 219.29 L53.29 215.32 L51.31 211.35 L51.31 213.34 L-2.25 213.34 L-2.25
							 217.31 Z" class="st4"/>
				<path d="M-2.25 217.31 L51.31 217.31 L51.31 219.29 L53.29 215.32 L51.31 211.35 L51.31 213.34 L-2.25 213.34"
						class="st5"/>
			</g>
			<g id="shape1954-74" v:mID="1954" v:groupContext="shape">
				<title>工作表.1954</title>
				<path d="M0 217.31 L51.31 217.31 L51.31 219.29 L53.29 215.32 L51.31 211.35 L51.31 213.34 L0 213.34" class="st6"/>
			</g>
			<g id="shape1955-77" v:mID="1955" v:groupContext="shape" transform="translate(-1.28291,-2.73425)">
				<title>工作表.1955</title>
				<rect x="0" y="216.821" width="1.5" height="2.4685" class="st7"/>
			</g>
			<g id="shape1952-79" v:mID="1952" v:groupContext="groupContent">
				<v:textBlock v:margins="rect(4,4,4,4)" v:tabSpace="42.5197"/>
				<v:textRect cx="26.6457" cy="215.321" width="53.3" height="7.93701" transform="rotate(90)"/>
				<rect v:rectContext="textBkgnd" x="211.999" y="-33.8455" width="6.64453" height="14.4001" transform="rotate(90)"
						class="st8"/>
				<text x="212" y="-23.05" transform="rotate(90)" class="st9" v:langID="2052"><v:paragraph v:horizAlign="1"/><v:tabList/>7</text>			</g>
		</g>
		<g id="group1956-82" transform="translate(62.1794,238.477) rotate(-150.945)" v:mID="1956" v:groupContext="group">
			<v:userDefs>
				<v:ud v:nameU="visVersion" v:val="VT0(15):26"/>
			</v:userDefs>
			<title>开放式一维单向箭头.1956</title>
			<desc>8</desc>
			<g id="shape1957-83" v:mID="1957" v:groupContext="shape">
				<title>工作表.1957</title>
				<path d="M-2.25 217.31 L62.22 217.31 L62.22 219.29 L64.21 215.32 L62.22 211.35 L62.22 213.34 L-2.25 213.34 L-2.25
							 217.31 Z" class="st4"/>
				<path d="M-2.25 217.31 L62.22 217.31 L62.22 219.29 L64.21 215.32 L62.22 211.35 L62.22 213.34 L-2.25 213.34"
						class="st5"/>
			</g>
			<g id="shape1958-86" v:mID="1958" v:groupContext="shape">
				<title>工作表.1958</title>
				<path d="M0 217.31 L62.22 217.31 L62.22 219.29 L64.21 215.32 L62.22 211.35 L62.22 213.34 L0 213.34" class="st6"/>
			</g>
			<g id="shape1959-89" v:mID="1959" v:groupContext="shape" transform="translate(-1.39206,-2.73425)">
				<title>工作表.1959</title>
				<rect x="0" y="216.821" width="1.5" height="2.4685" class="st7"/>
			</g>
			<g id="shape1956-91" v:mID="1956" v:groupContext="groupContent">
				<v:textBlock v:margins="rect(4,4,4,4)" v:tabSpace="42.5197"/>
				<v:textRect cx="32.1029" cy="215.321" width="64.21" height="7.93701" transform="rotate(180)"/>
				<rect v:rectContext="textBkgnd" x="-35.4252" y="-222.521" width="6.64453" height="14.4001" transform="rotate(180)"
						class="st10"/>
				<text x="-35.43" y="-211.72" transform="rotate(180)" class="st9" v:langID="2052"><v:paragraph v:horizAlign="1"/><v:tabList/>8</text>			</g>
		</g>
		<g id="group1960-94" transform="translate(211.427,-156.278) rotate(29.2894)" v:mID="1960" v:groupContext="group">
			<v:userDefs>
				<v:ud v:nameU="visVersion" v:val="VT0(15):26"/>
			</v:userDefs>
			<title>开放式一维单向箭头.1960</title>
			<desc>9</desc>
			<g id="shape1961-95" v:mID="1961" v:groupContext="shape">
				<title>工作表.1961</title>
				<path d="M-2.25 217.31 L60.09 217.31 L60.09 219.29 L62.07 215.32 L60.09 211.35 L60.09 213.34 L-2.25 213.34 L-2.25
							 217.31 Z" class="st4"/>
				<path d="M-2.25 217.31 L60.09 217.31 L60.09 219.29 L62.07 215.32 L60.09 211.35 L60.09 213.34 L-2.25 213.34"
						class="st5"/>
			</g>
			<g id="shape1962-98" v:mID="1962" v:groupContext="shape">
				<title>工作表.1962</title>
				<path d="M0 217.31 L60.09 217.31 L60.09 219.29 L62.07 215.32 L60.09 211.35 L60.09 213.34 L0 213.34" class="st6"/>
			</g>
			<g id="shape1963-101" v:mID="1963" v:groupContext="shape" transform="translate(-1.37073,-2.73425)">
				<title>工作表.1963</title>
				<rect x="0" y="216.821" width="1.5" height="2.4685" class="st7"/>
			</g>
			<g id="shape1960-103" v:mID="1960" v:groupContext="groupContent">
				<v:textBlock v:margins="rect(4,4,4,4)" v:tabSpace="42.5197"/>
				<v:textRect cx="31.0364" cy="215.321" width="62.08" height="7.93701"/>
				<rect v:rectContext="textBkgnd" x="27.7141" y="208.121" width="6.64453" height="14.4001" class="st10"/>
				<text x="27.71" y="218.92" class="st9" v:langID="2052"><v:paragraph v:horizAlign="1"/><v:tabList/>9</text>			</g>
		</g>
		<g id="group1964-106" transform="translate(397.894,83.6421) rotate(89.8334)" v:mID="1964" v:groupContext="group">
			<v:userDefs>
				<v:ud v:nameU="visVersion" v:val="VT0(15):26"/>
			</v:userDefs>
			<title>开放式一维单向箭头.1964</title>
			<desc>10</desc>
			<g id="shape1965-107" v:mID="1965" v:groupContext="shape">
				<title>工作表.1965</title>
				<path d="M-2.25 217.31 L50.46 217.31 L50.46 219.29 L52.44 215.32 L50.46 211.35 L50.46 213.34 L-2.25 213.34 L-2.25
							 217.31 Z" class="st4"/>
				<path d="M-2.25 217.31 L50.46 217.31 L50.46 219.29 L52.44 215.32 L50.46 211.35 L50.46 213.34 L-2.25 213.34"
						class="st5"/>
			</g>
			<g id="shape1966-110" v:mID="1966" v:groupContext="shape">
				<title>工作表.1966</title>
				<path d="M0 217.31 L50.46 217.31 L50.46 219.29 L52.44 215.32 L50.46 211.35 L50.46 213.34 L0 213.34" class="st6"/>
			</g>
			<g id="shape1967-113" v:mID="1967" v:groupContext="shape" transform="translate(-1.27442,-2.73425)">
				<title>工作表.1967</title>
				<rect x="0" y="216.821" width="1.5" height="2.4685" class="st7"/>
			</g>
			<g id="shape1964-115" v:mID="1964" v:groupContext="groupContent">
				<v:textBlock v:margins="rect(4,4,4,4)" v:tabSpace="42.5197"/>
				<v:textRect cx="26.221" cy="215.321" width="52.45" height="7.93701" transform="rotate(-90)"/>
				<rect v:rectContext="textBkgnd" x="-221.965" y="19.0212" width="13.2891" height="14.4001" transform="rotate(-90)"
						class="st10"/>
				<text x="-221.97" y="29.82" transform="rotate(-90)" class="st9" v:langID="2052"><v:paragraph v:horizAlign="1"/><v:tabList/>10</text>			</g>
		</g>
		<g id="group1968-118" transform="translate(39.2227,329.09) rotate(-146.262)" v:mID="1968" v:groupContext="group">
			<v:userDefs>
				<v:ud v:nameU="visVersion" v:val="VT0(15):26"/>
			</v:userDefs>
			<title>开放式一维单向箭头.1968</title>
			<desc>11</desc>
			<g id="shape1969-119" v:mID="1969" v:groupContext="shape">
				<title>工作表.1969</title>
				<path d="M-2.25 217.31 L44.46 217.31 L44.46 219.29 L46.44 215.32 L44.46 211.35 L44.46 213.34 L-2.25 213.34 L-2.25
							 217.31 Z" class="st4"/>
				<path d="M-2.25 217.31 L44.46 217.31 L44.46 219.29 L46.44 215.32 L44.46 211.35 L44.46 213.34 L-2.25 213.34"
						class="st5"/>
			</g>
			<g id="shape1970-122" v:mID="1970" v:groupContext="shape">
				<title>工作表.1970</title>
				<path d="M0 217.31 L44.46 217.31 L44.46 219.29 L46.44 215.32 L44.46 211.35 L44.46 213.34 L0 213.34" class="st6"/>
			</g>
			<g id="shape1971-125" v:mID="1971" v:groupContext="shape" transform="translate(-1.21444,-2.73425)">
				<title>工作表.1971</title>
				<rect x="0" y="216.821" width="1.5" height="2.4685" class="st7"/>
			</g>
			<g id="shape1968-127" v:mID="1968" v:groupContext="groupContent">
				<v:textBlock v:margins="rect(4,4,4,4)" v:tabSpace="42.5197"/>
				<v:textRect cx="23.2222" cy="215.321" width="46.45" height="7.93701" transform="rotate(180)"/>
				<rect v:rectContext="textBkgnd" x="-29.8666" y="-222.521" width="13.2891" height="14.4001" transform="rotate(180)"
						class="st10"/>
				<text x="-29.87" y="-211.72" transform="rotate(180)" class="st9" v:langID="2052"><v:paragraph v:horizAlign="1"/><v:tabList/>11</text>			</g>
		</g>
		<g id="group1972-130" transform="translate(58.4887,415.78) rotate(-166.144)" v:mID="1972" v:groupContext="group">
			<v:userDefs>
				<v:ud v:nameU="visVersion" v:val="VT0(15):26"/>
			</v:userDefs>
			<title>开放式一维单向箭头.1972</title>
			<desc>13</desc>
			<g id="shape1973-131" v:mID="1973" v:groupContext="shape">
				<title>工作表.1973</title>
				<path d="M-2.25 217.31 L40.95 217.31 L40.95 219.29 L42.93 215.32 L40.95 211.35 L40.95 213.34 L-2.25 213.34 L-2.25
							 217.31 Z" class="st4"/>
				<path d="M-2.25 217.31 L40.95 217.31 L40.95 219.29 L42.93 215.32 L40.95 211.35 L40.95 213.34 L-2.25 213.34"
						class="st5"/>
			</g>
			<g id="shape1974-134" v:mID="1974" v:groupContext="shape">
				<title>工作表.1974</title>
				<path d="M0 217.31 L40.95 217.31 L40.95 219.29 L42.93 215.32 L40.95 211.35 L40.95 213.34 L0 213.34" class="st6"/>
			</g>
			<g id="shape1975-137" v:mID="1975" v:groupContext="shape" transform="translate(-1.17932,-2.73425)">
				<title>工作表.1975</title>
				<rect x="0" y="216.821" width="1.5" height="2.4685" class="st7"/>
			</g>
			<g id="shape1972-139" v:mID="1972" v:groupContext="groupContent">
				<v:textBlock v:margins="rect(4,4,4,4)" v:tabSpace="42.5197"/>
				<v:textRect cx="21.466" cy="215.321" width="42.94" height="7.93701" transform="rotate(180)"/>
				<rect v:rectContext="textBkgnd" x="-28.1105" y="-222.521" width="13.2891" height="14.4001" transform="rotate(180)"
						class="st10"/>
				<text x="-28.11" y="-211.72" transform="rotate(180)" class="st9" v:langID="2052"><v:paragraph v:horizAlign="1"/><v:tabList/>13</text>			</g>
		</g>
		<g id="group1976-142" transform="translate(-157.616,220.185) rotate(-104.835)" v:mID="1976" v:groupContext="group">
			<v:userDefs>
				<v:ud v:nameU="visVersion" v:val="VT0(15):26"/>
			</v:userDefs>
			<title>开放式一维单向箭头.1976</title>
			<desc>14</desc>
			<g id="shape1977-143" v:mID="1977" v:groupContext="shape">
				<title>工作表.1977</title>
				<path d="M-2.25 217.31 L58.4 217.31 L58.4 219.29 L60.38 215.32 L58.4 211.35 L58.4 213.34 L-2.25 213.34 L-2.25 217.31
							 Z" class="st4"/>
				<path d="M-2.25 217.31 L58.4 217.31 L58.4 219.29 L60.38 215.32 L58.4 211.35 L58.4 213.34 L-2.25 213.34" class="st5"/>
			</g>
			<g id="shape1978-146" v:mID="1978" v:groupContext="shape">
				<title>工作表.1978</title>
				<path d="M0 217.31 L58.4 217.31 L58.4 219.29 L60.38 215.32 L58.4 211.35 L58.4 213.34 L0 213.34" class="st6"/>
			</g>
			<g id="shape1979-149" v:mID="1979" v:groupContext="shape" transform="translate(-1.35383,-2.73425)">
				<title>工作表.1979</title>
				<rect x="0" y="216.821" width="1.5" height="2.4685" class="st7"/>
			</g>
			<g id="shape1976-151" v:mID="1976" v:groupContext="groupContent">
				<v:textBlock v:margins="rect(4,4,4,4)" v:tabSpace="42.5197"/>
				<v:textRect cx="30.1916" cy="215.321" width="60.39" height="7.93701" transform="rotate(180)"/>
				<rect v:rectContext="textBkgnd" x="-36.8362" y="-222.521" width="13.2891" height="14.4001" transform="rotate(-180)"
						class="st10"/>
				<text x="-36.84" y="-211.72" transform="rotate(-180)" class="st9" v:langID="2052"><v:paragraph v:horizAlign="1"/><v:tabList/>14</text>			</g>
		</g>
		<g id="group1980-154" transform="translate(105.304,-107.245) rotate(17.0287)" v:mID="1980" v:groupContext="group">
			<v:userDefs>
				<v:ud v:nameU="visVersion" v:val="VT0(15):26"/>
			</v:userDefs>
			<title>开放式一维单向箭头.1980</title>
			<desc>5</desc>
			<g id="shape1981-155" v:mID="1981" v:groupContext="shape">
				<title>工作表.1981</title>
				<path d="M-2.25 217.31 L47.85 217.31 L47.85 219.29 L49.83 215.32 L47.85 211.35 L47.85 213.34 L-2.25 213.34 L-2.25
							 217.31 Z" class="st4"/>
				<path d="M-2.25 217.31 L47.85 217.31 L47.85 219.29 L49.83 215.32 L47.85 211.35 L47.85 213.34 L-2.25 213.34"
						class="st5"/>
			</g>
			<g id="shape1982-158" v:mID="1982" v:groupContext="shape">
				<title>工作表.1982</title>
				<path d="M0 217.31 L47.85 217.31 L47.85 219.29 L49.83 215.32 L47.85 211.35 L47.85 213.34 L0 213.34" class="st6"/>
			</g>
			<g id="shape1983-161" v:mID="1983" v:groupContext="shape" transform="translate(-1.24832,-2.73425)">
				<title>工作表.1983</title>
				<rect x="0" y="216.821" width="1.5" height="2.4685" class="st7"/>
			</g>
			<g id="shape1980-163" v:mID="1980" v:groupContext="groupContent">
				<v:textBlock v:margins="rect(4,4,4,4)" v:tabSpace="42.5197"/>
				<v:textRect cx="24.9162" cy="215.321" width="49.84" height="7.93701"/>
				<rect v:rectContext="textBkgnd" x="21.5939" y="208.121" width="6.64453" height="14.4001" class="st10"/>
				<text x="21.59" y="218.92" class="st9" v:langID="2052"><v:paragraph v:horizAlign="1"/><v:tabList/>5</text>			</g>
		</g>
		<g id="group1984-166" transform="translate(29.2933,307.562) rotate(-162.808)" v:mID="1984" v:groupContext="group">
			<v:userDefs>
				<v:ud v:nameU="visVersion" v:val="VT0(15):26"/>
			</v:userDefs>
			<title>开放式一维单向箭头.1984</title>
			<desc>4</desc>
			<g id="shape1985-167" v:mID="1985" v:groupContext="shape">
				<title>工作表.1985</title>
				<path d="M-2.25 217.31 L47.79 217.31 L47.79 219.29 L49.77 215.32 L47.79 211.35 L47.79 213.34 L-2.25 213.34 L-2.25
							 217.31 Z" class="st4"/>
				<path d="M-2.25 217.31 L47.79 217.31 L47.79 219.29 L49.77 215.32 L47.79 211.35 L47.79 213.34 L-2.25 213.34"
						class="st5"/>
			</g>
			<g id="shape1986-170" v:mID="1986" v:groupContext="shape">
				<title>工作表.1986</title>
				<path d="M0 217.31 L47.79 217.31 L47.79 219.29 L49.77 215.32 L47.79 211.35 L47.79 213.34 L0 213.34" class="st6"/>
			</g>
			<g id="shape1987-173" v:mID="1987" v:groupContext="shape" transform="translate(-1.24771,-2.73425)">
				<title>工作表.1987</title>
				<rect x="0" y="216.821" width="1.5" height="2.4685" class="st7"/>
			</g>
			<g id="shape1984-175" v:mID="1984" v:groupContext="groupContent">
				<v:textBlock v:margins="rect(4,4,4,4)" v:tabSpace="42.5197"/>
				<v:textRect cx="24.8854" cy="215.321" width="49.78" height="7.93701" transform="rotate(180)"/>
				<rect v:rectContext="textBkgnd" x="-28.2076" y="-222.521" width="6.64453" height="14.4001" transform="rotate(180)"
						class="st10"/>
				<text x="-28.21" y="-211.72" transform="rotate(180)" class="st9" v:langID="2052"><v:paragraph v:horizAlign="1"/><v:tabList/>4</text>			</g>
		</g>
		<g id="group1988-178" transform="translate(-114.281,-70.9117) rotate(-46.5452)" v:mID="1988" v:groupContext="group">
			<v:userDefs>
				<v:ud v:nameU="visVersion" v:val="VT0(15):26"/>
			</v:userDefs>
			<title>开放式一维单向箭头.1988</title>
			<desc>15</desc>
			<g id="shape1989-179" v:mID="1989" v:groupContext="shape">
				<title>工作表.1989</title>
				<path d="M-2.25 217.31 L59.23 217.31 L59.23 219.29 L61.22 215.32 L59.23 211.35 L59.23 213.34 L-2.25 213.34 L-2.25
							 217.31 Z" class="st4"/>
				<path d="M-2.25 217.31 L59.23 217.31 L59.23 219.29 L61.22 215.32 L59.23 211.35 L59.23 213.34 L-2.25 213.34"
						class="st5"/>
			</g>
			<g id="shape1990-182" v:mID="1990" v:groupContext="shape">
				<title>工作表.1990</title>
				<path d="M0 217.31 L59.23 217.31 L59.23 219.29 L61.22 215.32 L59.23 211.35 L59.23 213.34 L0 213.34" class="st6"/>
			</g>
			<g id="shape1991-185" v:mID="1991" v:groupContext="shape" transform="translate(-1.36218,-2.73425)">
				<title>工作表.1991</title>
				<rect x="0" y="216.821" width="1.5" height="2.4685" class="st7"/>
			</g>
			<g id="shape1988-187" v:mID="1988" v:groupContext="groupContent">
				<v:textBlock v:margins="rect(4,4,4,4)" v:tabSpace="42.5197"/>
				<v:textRect cx="30.6088" cy="215.321" width="61.22" height="7.93701" transform="rotate(90)"/>
				<rect v:rectContext="textBkgnd" x="208.677" y="-37.8087" width="13.2891" height="14.4001" transform="rotate(90)"
						class="st10"/>
				<text x="208.68" y="-27.01" transform="rotate(90)" class="st9" v:langID="2052"><v:paragraph v:horizAlign="1"/><v:tabList/>15</text>			</g>
		</g>
		<g id="group1993-190" transform="translate(-89.688,247.704) rotate(-105.999)" v:mID="1993" v:groupContext="group">
			<v:userDefs>
				<v:ud v:nameU="visVersion" v:val="VT0(15):26"/>
			</v:userDefs>
			<title>开放式一维单向箭头.1993</title>
			<desc>3</desc>
			<g id="shape1994-191" v:mID="1994" v:groupContext="shape">
				<title>工作表.1994</title>
				<path d="M-2.25 217.31 L61.43 217.31 L61.43 219.29 L63.41 215.32 L61.43 211.35 L61.43 213.34 L-2.25 213.34 L-2.25
							 217.31 Z" class="st4"/>
				<path d="M-2.25 217.31 L61.43 217.31 L61.43 219.29 L63.41 215.32 L61.43 211.35 L61.43 213.34 L-2.25 213.34"
						class="st5"/>
			</g>
			<g id="shape1995-194" v:mID="1995" v:groupContext="shape">
				<title>工作表.1995</title>
				<path d="M0 217.31 L61.43 217.31 L61.43 219.29 L63.41 215.32 L61.43 211.35 L61.43 213.34 L0 213.34" class="st6"/>
			</g>
			<g id="shape1996-197" v:mID="1996" v:groupContext="shape" transform="translate(-1.38411,-2.73425)">
				<title>工作表.1996</title>
				<rect x="0" y="216.821" width="1.5" height="2.4685" class="st7"/>
			</g>
			<g id="shape1993-199" v:mID="1993" v:groupContext="groupContent">
				<v:textBlock v:margins="rect(4,4,4,4)" v:tabSpace="42.5197"/>
				<v:textRect cx="31.7053" cy="215.321" width="63.42" height="7.93701" transform="rotate(180)"/>
				<rect v:rectContext="textBkgnd" x="-35.0274" y="-222.521" width="6.64453" height="14.4001" transform="rotate(180)"
						class="st10"/>
				<text x="-35.03" y="-211.72" transform="rotate(180)" class="st9" v:langID="2052"><v:paragraph v:horizAlign="1"/><v:tabList/>3</text>			</g>
		</g>
		<g id="group1997-202" transform="translate(320.03,69.6459) rotate(74.5021)" v:mID="1997" v:groupContext="group">
			<v:userDefs>
				<v:ud v:nameU="visVersion" v:val="VT0(15):26"/>
			</v:userDefs>
			<title>开放式一维单向箭头.1997</title>
			<desc>12</desc>
			<g id="shape1998-203" v:mID="1998" v:groupContext="shape">
				<title>工作表.1998</title>
				<path d="M-2.25 217.31 L56.49 217.31 L56.49 219.29 L58.47 215.32 L56.49 211.35 L56.49 213.34 L-2.25 213.34 L-2.25
							 217.31 Z" class="st4"/>
				<path d="M-2.25 217.31 L56.49 217.31 L56.49 219.29 L58.47 215.32 L56.49 211.35 L56.49 213.34 L-2.25 213.34"
						class="st5"/>
			</g>
			<g id="shape1999-206" v:mID="1999" v:groupContext="shape">
				<title>工作表.1999</title>
				<path d="M0 217.31 L56.49 217.31 L56.49 219.29 L58.47 215.32 L56.49 211.35 L56.49 213.34 L0 213.34" class="st6"/>
			</g>
			<g id="shape2000-209" v:mID="2000" v:groupContext="shape" transform="translate(-1.33474,-2.73425)">
				<title>工作表.2000</title>
				<rect x="0" y="216.821" width="1.5" height="2.4685" class="st7"/>
			</g>
			<g id="shape1997-211" v:mID="1997" v:groupContext="groupContent">
				<v:textBlock v:margins="rect(4,4,4,4)" v:tabSpace="42.5197"/>
				<v:textRect cx="29.2372" cy="215.321" width="58.48" height="7.93701" transform="rotate(-90)"/>
				<rect v:rectContext="textBkgnd" x="-221.965" y="22.0374" width="13.2891" height="14.4001" transform="rotate(-90)"
						class="st10"/>
				<text x="-221.97" y="32.84" transform="rotate(-90)" class="st9" v:langID="2052"><v:paragraph v:horizAlign="1"/><v:tabList/>12</text>			</g>
		</g>
	</g>
</svg>
