<?xml version="1.0" encoding="UTF-8" standalone="no"?>
<!DOCTYPE svg PUBLIC "-//W3C//DTD SVG 1.1//EN" "http://www.w3.org/Graphics/SVG/1.1/DTD/svg11.dtd">
<!-- 由 Microsoft Visio, SVG Export 生成 EulerCycle2.svg 页-1 -->
<svg xmlns="http://www.w3.org/2000/svg" xmlns:xlink="http://www.w3.org/1999/xlink" xmlns:ev="http://www.w3.org/2001/xml-events"
		xmlns:v="http://schemas.microsoft.com/visio/2003/SVGExtensions/" width="2.90115in" height="3.04569in"
		viewBox="0 0 208.883 219.289" xml:space="preserve" color-interpolation-filters="sRGB" class="st10">
	<v:documentProperties v:langID="2052" v:metric="true" v:viewMarkup="false"/>

	<style type="text/css">
	<![CDATA[
		.st1 {fill:none;stroke:#000000;stroke-linecap:round;stroke-linejoin:round;stroke-width:0.75}
		.st2 {fill:#000000;font-family:Cambria Math;font-size:1.5em}
		.st3 {fill:#ffffff;stroke:#000000;stroke-linecap:round;stroke-linejoin:round;stroke-width:0.75}
		.st4 {fill:#ffffff}
		.st5 {stroke:none;stroke-linecap:round;stroke-linejoin:round;stroke-width:0.75}
		.st6 {stroke:#000000;stroke-linecap:round;stroke-linejoin:round;stroke-width:0.75}
		.st7 {fill:#ffffff;stroke:none;stroke-linecap:round;stroke-linejoin:round;stroke-width:0.75}
		.st8 {fill:#ffffff;stroke:none;stroke-linecap:butt;stroke-width:7.2}
		.st9 {fill:#000000;font-family:Cambria Math;font-size:1.00001em}
		.st10 {fill:none;fill-rule:evenodd;font-size:12px;overflow:visible;stroke-linecap:square;stroke-miterlimit:3}
	]]>
	</style>

	<g v:mID="0" v:index="1" v:groupContext="foregroundPage">
		<title>页-1</title>
		<v:pageProperties v:drawingScale="0.0393701" v:pageScale="0.0393701" v:drawingUnits="24" v:shadowOffsetX="8.50394"
				v:shadowOffsetY="-8.50394"/>
		<g id="shape1836-1" v:mID="1836" v:groupContext="shape" transform="translate(75.4026,-184.261)">
			<title>圆形.1836</title>
			<desc>0</desc>
			<v:userDefs>
				<v:ud v:nameU="visVersion" v:val="VT0(15):26"/>
			</v:userDefs>
			<v:textBlock v:margins="rect(4,4,4,4)" v:tabSpace="42.5197"/>
			<v:textRect cx="17.3268" cy="201.963" width="34.66" height="34.6535"/>
			<path d="M0 201.96 A17.3268 17.3268 0 0 1 34.65 201.96 A17.3268 17.3268 0 1 1 0 201.96 Z" class="st1"/>
			<text x="12.34" y="207.36" class="st2" v:langID="2052"><v:paragraph v:horizAlign="1"/><v:tabList/>0</text>		</g>
		<g id="shape1837-4" v:mID="1837" v:groupContext="shape" transform="translate(9.88682,-111.942)">
			<title>圆形.1837</title>
			<desc>1</desc>
			<v:userDefs>
				<v:ud v:nameU="visVersion" v:val="VT0(15):26"/>
			</v:userDefs>
			<v:textBlock v:margins="rect(4,4,4,4)" v:tabSpace="42.5197"/>
			<v:textRect cx="17.3268" cy="201.963" width="34.66" height="34.6535"/>
			<path d="M0 201.96 A17.3268 17.3268 0 0 1 34.65 201.96 A17.3268 17.3268 0 1 1 0 201.96 Z" class="st1"/>
			<text x="12.34" y="207.36" class="st2" v:langID="2052"><v:paragraph v:horizAlign="1"/><v:tabList/>1</text>		</g>
		<g id="shape1838-7" v:mID="1838" v:groupContext="shape" transform="translate(160.441,-135.34)">
			<title>圆形.1838</title>
			<desc>5</desc>
			<v:userDefs>
				<v:ud v:nameU="visVersion" v:val="VT0(15):26"/>
			</v:userDefs>
			<v:textBlock v:margins="rect(4,4,4,4)" v:tabSpace="42.5197"/>
			<v:textRect cx="17.3268" cy="201.963" width="34.66" height="34.6535"/>
			<path d="M0 201.96 A17.3268 17.3268 0 0 1 34.65 201.96 A17.3268 17.3268 0 1 1 0 201.96 Z" class="st3"/>
			<text x="12.34" y="207.36" class="st2" v:langID="2052"><v:paragraph v:horizAlign="1"/><v:tabList/>5</text>		</g>
		<g id="shape1839-10" v:mID="1839" v:groupContext="shape" transform="translate(37.4532,-18.4813)">
			<title>圆形.1839</title>
			<desc>2</desc>
			<v:userDefs>
				<v:ud v:nameU="visVersion" v:val="VT0(15):26"/>
			</v:userDefs>
			<v:textBlock v:margins="rect(4,4,4,4)" v:tabSpace="42.5197"/>
			<v:textRect cx="17.3268" cy="201.963" width="34.66" height="34.6535"/>
			<path d="M0 201.96 A17.3268 17.3268 0 0 1 34.65 201.96 A17.3268 17.3268 0 1 1 0 201.96 Z" class="st3"/>
			<text x="12.34" y="207.36" class="st2" v:langID="2052"><v:paragraph v:horizAlign="1"/><v:tabList/>2</text>		</g>
		<g id="shape1840-13" v:mID="1840" v:groupContext="shape" transform="translate(90.651,-91.4984)">
			<title>圆形.1840</title>
			<desc>3</desc>
			<v:userDefs>
				<v:ud v:nameU="visVersion" v:val="VT0(15):26"/>
			</v:userDefs>
			<v:textBlock v:margins="rect(4,4,4,4)" v:tabSpace="42.5197"/>
			<v:textRect cx="17.3268" cy="201.963" width="34.66" height="34.6535"/>
			<path d="M0 201.96 A17.3268 17.3268 0 0 1 34.65 201.96 A17.3268 17.3268 0 1 1 0 201.96 Z" class="st3"/>
			<text x="12.34" y="207.36" class="st2" v:langID="2052"><v:paragraph v:horizAlign="1"/><v:tabList/>3</text>		</g>
		<g id="shape1841-16" v:mID="1841" v:groupContext="shape" transform="translate(160.441,-47.8671)">
			<title>圆形.1841</title>
			<desc>4</desc>
			<v:userDefs>
				<v:ud v:nameU="visVersion" v:val="VT0(15):26"/>
			</v:userDefs>
			<v:textBlock v:margins="rect(4,4,4,4)" v:tabSpace="42.5197"/>
			<v:textRect cx="17.3268" cy="201.963" width="34.66" height="34.6535"/>
			<path d="M0 201.96 A17.3268 17.3268 0 0 1 34.65 201.96 A17.3268 17.3268 0 1 1 0 201.96 Z" class="st3"/>
			<text x="12.34" y="207.36" class="st2" v:langID="2052"><v:paragraph v:horizAlign="1"/><v:tabList/>4</text>		</g>
		<g id="shape1842-19" v:mID="1842" v:groupContext="shape" transform="translate(111.154,-0.375)">
			<title>圆形.1842</title>
			<desc>6</desc>
			<v:userDefs>
				<v:ud v:nameU="visVersion" v:val="VT0(15):26"/>
			</v:userDefs>
			<v:textBlock v:margins="rect(4,4,4,4)" v:tabSpace="42.5197"/>
			<v:textRect cx="17.3268" cy="201.963" width="34.66" height="34.6535"/>
			<path d="M0 201.96 A17.3268 17.3268 0 0 1 34.65 201.96 A17.3268 17.3268 0 1 1 0 201.96 Z" class="st3"/>
			<text x="12.34" y="207.36" class="st2" v:langID="2052"><v:paragraph v:horizAlign="1"/><v:tabList/>6</text>		</g>
		<g id="group1851-22" transform="translate(228.005,178.703) rotate(135)" v:mID="1851" v:groupContext="group">
			<v:userDefs>
				<v:ud v:nameU="visVersion" v:val="VT0(15):26"/>
			</v:userDefs>
			<title>开放式一维单向箭头</title>
			<desc>0</desc>
			<g id="shape1852-23" v:mID="1852" v:groupContext="shape">
				<title>工作表.1852</title>
				<path d="M-2.25 217.31 L62.07 217.31 L62.07 219.29 L64.05 215.32 L62.07 211.35 L62.07 213.34 L-2.25 213.34 L-2.25
							 217.31 Z" class="st4"/>
				<path d="M-2.25 217.31 L62.07 217.31 L62.07 219.29 L64.05 215.32 L62.07 211.35 L62.07 213.34 L-2.25 213.34"
						class="st5"/>
			</g>
			<g id="shape1853-26" v:mID="1853" v:groupContext="shape">
				<title>工作表.1853</title>
				<path d="M0 217.31 L62.07 217.31 L62.07 219.29 L64.05 215.32 L62.07 211.35 L62.07 213.34 L0 213.34" class="st6"/>
			</g>
			<g id="shape1854-29" v:mID="1854" v:groupContext="shape" transform="translate(-1.39054,-2.73425)">
				<title>工作表.1854</title>
				<rect x="0" y="216.821" width="1.5" height="2.4685" class="st7"/>
			</g>
			<g id="shape1851-31" v:mID="1851" v:groupContext="groupContent">
				<v:textBlock v:margins="rect(4,4,4,4)" v:tabSpace="42.5197"/>
				<v:textRect cx="32.027" cy="215.321" width="64.06" height="7.93701" transform="rotate(-180)"/>
				<rect v:rectContext="textBkgnd" x="-35.3491" y="-222.521" width="6.64453" height="14.4001" transform="rotate(180)"
						class="st8"/>
				<text x="-35.35" y="-211.72" transform="rotate(180)" class="st9" v:langID="2052"><v:paragraph v:horizAlign="1"/><v:tabList/>0</text>			</g>
		</g>
		<g id="group1855-34" transform="translate(232.179,55.2319) rotate(75.325)" v:mID="1855" v:groupContext="group">
			<v:userDefs>
				<v:ud v:nameU="visVersion" v:val="VT0(15):26"/>
			</v:userDefs>
			<title>开放式一维单向箭头.1855</title>
			<desc>1</desc>
			<g id="shape1856-35" v:mID="1856" v:groupContext="shape">
				<title>工作表.1856</title>
				<path d="M-2.25 217.31 L62.09 217.31 L62.09 219.29 L64.08 215.32 L62.09 211.35 L62.09 213.34 L-2.25 213.34 L-2.25
							 217.31 Z" class="st4"/>
				<path d="M-2.25 217.31 L62.09 217.31 L62.09 219.29 L64.08 215.32 L62.09 211.35 L62.09 213.34 L-2.25 213.34"
						class="st5"/>
			</g>
			<g id="shape1857-38" v:mID="1857" v:groupContext="shape">
				<title>工作表.1857</title>
				<path d="M0 217.31 L62.09 217.31 L62.09 219.29 L64.08 215.32 L62.09 211.35 L62.09 213.34 L0 213.34" class="st6"/>
			</g>
			<g id="shape1858-41" v:mID="1858" v:groupContext="shape" transform="translate(-1.39077,-2.73425)">
				<title>工作表.1858</title>
				<rect x="0" y="216.821" width="1.5" height="2.4685" class="st7"/>
			</g>
			<g id="shape1855-43" v:mID="1855" v:groupContext="groupContent">
				<v:textBlock v:margins="rect(4,4,4,4)" v:tabSpace="42.5197"/>
				<v:textRect cx="32.0387" cy="215.321" width="64.08" height="7.93701" transform="rotate(-90)"/>
				<rect v:rectContext="textBkgnd" x="-218.643" y="24.8388" width="6.64453" height="14.4001" transform="rotate(-90)"
						class="st8"/>
				<text x="-218.64" y="35.64" transform="rotate(-90)" class="st9" v:langID="2052"><v:paragraph v:horizAlign="1"/><v:tabList/>1</text>			</g>
		</g>
		<g id="group1859-46" transform="translate(124.414,-22.9306) rotate(13.6417)" v:mID="1859" v:groupContext="group">
			<v:userDefs>
				<v:ud v:nameU="visVersion" v:val="VT0(15):26"/>
			</v:userDefs>
			<title>开放式一维单向箭头.1859</title>
			<desc>2</desc>
			<g id="shape1860-47" v:mID="1860" v:groupContext="shape">
				<title>工作表.1860</title>
				<path d="M-2.25 217.31 L36.66 217.31 L36.66 219.29 L38.65 215.32 L36.66 211.35 L36.66 213.34 L-2.25 213.34 L-2.25
							 217.31 Z" class="st4"/>
				<path d="M-2.25 217.31 L36.66 217.31 L36.66 219.29 L38.65 215.32 L36.66 211.35 L36.66 213.34 L-2.25 213.34"
						class="st5"/>
			</g>
			<g id="shape1861-50" v:mID="1861" v:groupContext="shape">
				<title>工作表.1861</title>
				<path d="M0 217.31 L36.66 217.31 L36.66 219.29 L38.65 215.32 L36.66 211.35 L36.66 213.34 L0 213.34" class="st6"/>
			</g>
			<g id="shape1862-53" v:mID="1862" v:groupContext="shape" transform="translate(-1.13649,-2.73425)">
				<title>工作表.1862</title>
				<rect x="0" y="216.821" width="1.5" height="2.4685" class="st7"/>
			</g>
			<g id="shape1859-55" v:mID="1859" v:groupContext="groupContent">
				<v:textBlock v:margins="rect(4,4,4,4)" v:tabSpace="42.5197"/>
				<v:textRect cx="19.3246" cy="215.321" width="38.65" height="7.93701"/>
				<rect v:rectContext="textBkgnd" x="16.0024" y="208.121" width="6.64453" height="14.4001" class="st8"/>
				<text x="16" y="218.92" class="st9" v:langID="2052"><v:paragraph v:horizAlign="1"/><v:tabList/>2</text>			</g>
		</g>
		<g id="group1867-58" transform="translate(247.48,-64.4695) rotate(34.0034)" v:mID="1867" v:groupContext="group">
			<v:userDefs>
				<v:ud v:nameU="visVersion" v:val="VT0(15):26"/>
			</v:userDefs>
			<title>开放式一维单向箭头.1867</title>
			<desc>6</desc>
			<g id="shape1868-59" v:mID="1868" v:groupContext="shape">
				<title>工作表.1868</title>
				<path d="M-2.25 217.31 L44.6 217.31 L44.6 219.29 L46.58 215.32 L44.6 211.35 L44.6 213.34 L-2.25 213.34 L-2.25 217.31
							 Z" class="st4"/>
				<path d="M-2.25 217.31 L44.6 217.31 L44.6 219.29 L46.58 215.32 L44.6 211.35 L44.6 213.34 L-2.25 213.34" class="st5"/>
			</g>
			<g id="shape1869-62" v:mID="1869" v:groupContext="shape">
				<title>工作表.1869</title>
				<path d="M0 217.31 L44.6 217.31 L44.6 219.29 L46.58 215.32 L44.6 211.35 L44.6 213.34 L0 213.34" class="st6"/>
			</g>
			<g id="shape1870-65" v:mID="1870" v:groupContext="shape" transform="translate(-1.21583,-2.73425)">
				<title>工作表.1870</title>
				<rect x="0" y="216.821" width="1.5" height="2.4685" class="st7"/>
			</g>
			<g id="shape1867-67" v:mID="1867" v:groupContext="groupContent">
				<v:textBlock v:margins="rect(4,4,4,4)" v:tabSpace="42.5197"/>
				<v:textRect cx="23.2913" cy="215.321" width="46.59" height="7.93701"/>
				<rect v:rectContext="textBkgnd" x="19.969" y="208.121" width="6.64453" height="14.4001" class="st8"/>
				<text x="19.97" y="218.92" class="st9" v:langID="2052"><v:paragraph v:horizAlign="1"/><v:tabList/>6</text>			</g>
		</g>
		<g id="group1871-70" transform="translate(-44.8167,136.71) rotate(-90)" v:mID="1871" v:groupContext="group">
			<v:userDefs>
				<v:ud v:nameU="visVersion" v:val="VT0(15):26"/>
			</v:userDefs>
			<title>开放式一维单向箭头.1871</title>
			<desc>7</desc>
			<g id="shape1872-71" v:mID="1872" v:groupContext="shape">
				<title>工作表.1872</title>
				<path d="M-2.25 217.31 L51.31 217.31 L51.31 219.29 L53.29 215.32 L51.31 211.35 L51.31 213.34 L-2.25 213.34 L-2.25
							 217.31 Z" class="st4"/>
				<path d="M-2.25 217.31 L51.31 217.31 L51.31 219.29 L53.29 215.32 L51.31 211.35 L51.31 213.34 L-2.25 213.34"
						class="st5"/>
			</g>
			<g id="shape1873-74" v:mID="1873" v:groupContext="shape">
				<title>工作表.1873</title>
				<path d="M0 217.31 L51.31 217.31 L51.31 219.29 L53.29 215.32 L51.31 211.35 L51.31 213.34 L0 213.34" class="st6"/>
			</g>
			<g id="shape1874-77" v:mID="1874" v:groupContext="shape" transform="translate(-1.28291,-2.73425)">
				<title>工作表.1874</title>
				<rect x="0" y="216.821" width="1.5" height="2.4685" class="st7"/>
			</g>
			<g id="shape1871-79" v:mID="1871" v:groupContext="groupContent">
				<v:textBlock v:margins="rect(4,4,4,4)" v:tabSpace="42.5197"/>
				<v:textRect cx="26.6457" cy="215.321" width="53.3" height="7.93701" transform="rotate(90)"/>
				<rect v:rectContext="textBkgnd" x="211.999" y="-33.8455" width="6.64453" height="14.4001" transform="rotate(90)"
						class="st8"/>
				<text x="212" y="-23.05" transform="rotate(90)" class="st9" v:langID="2052"><v:paragraph v:horizAlign="1"/><v:tabList/>7</text>			</g>
		</g>
		<g id="group1875-82" transform="translate(62.1794,238.477) rotate(-150.945)" v:mID="1875" v:groupContext="group">
			<v:userDefs>
				<v:ud v:nameU="visVersion" v:val="VT0(15):26"/>
			</v:userDefs>
			<title>开放式一维单向箭头.1875</title>
			<desc>8</desc>
			<g id="shape1876-83" v:mID="1876" v:groupContext="shape">
				<title>工作表.1876</title>
				<path d="M-2.25 217.31 L62.22 217.31 L62.22 219.29 L64.21 215.32 L62.22 211.35 L62.22 213.34 L-2.25 213.34 L-2.25
							 217.31 Z" class="st4"/>
				<path d="M-2.25 217.31 L62.22 217.31 L62.22 219.29 L64.21 215.32 L62.22 211.35 L62.22 213.34 L-2.25 213.34"
						class="st5"/>
			</g>
			<g id="shape1877-86" v:mID="1877" v:groupContext="shape">
				<title>工作表.1877</title>
				<path d="M0 217.31 L62.22 217.31 L62.22 219.29 L64.21 215.32 L62.22 211.35 L62.22 213.34 L0 213.34" class="st6"/>
			</g>
			<g id="shape1878-89" v:mID="1878" v:groupContext="shape" transform="translate(-1.39206,-2.73425)">
				<title>工作表.1878</title>
				<rect x="0" y="216.821" width="1.5" height="2.4685" class="st7"/>
			</g>
			<g id="shape1875-91" v:mID="1875" v:groupContext="groupContent">
				<v:textBlock v:margins="rect(4,4,4,4)" v:tabSpace="42.5197"/>
				<v:textRect cx="32.1029" cy="215.321" width="64.21" height="7.93701" transform="rotate(180)"/>
				<rect v:rectContext="textBkgnd" x="-35.4252" y="-222.521" width="6.64453" height="14.4001" transform="rotate(-180)"
						class="st8"/>
				<text x="-35.43" y="-211.72" transform="rotate(-180)" class="st9" v:langID="2052"><v:paragraph v:horizAlign="1"/><v:tabList/>8</text>			</g>
		</g>
		<g id="group1879-94" transform="translate(211.427,-156.278) rotate(29.2894)" v:mID="1879" v:groupContext="group">
			<v:userDefs>
				<v:ud v:nameU="visVersion" v:val="VT0(15):26"/>
			</v:userDefs>
			<title>开放式一维单向箭头.1879</title>
			<desc>9</desc>
			<g id="shape1880-95" v:mID="1880" v:groupContext="shape">
				<title>工作表.1880</title>
				<path d="M-2.25 217.31 L60.09 217.31 L60.09 219.29 L62.07 215.32 L60.09 211.35 L60.09 213.34 L-2.25 213.34 L-2.25
							 217.31 Z" class="st4"/>
				<path d="M-2.25 217.31 L60.09 217.31 L60.09 219.29 L62.07 215.32 L60.09 211.35 L60.09 213.34 L-2.25 213.34"
						class="st5"/>
			</g>
			<g id="shape1881-98" v:mID="1881" v:groupContext="shape">
				<title>工作表.1881</title>
				<path d="M0 217.31 L60.09 217.31 L60.09 219.29 L62.07 215.32 L60.09 211.35 L60.09 213.34 L0 213.34" class="st6"/>
			</g>
			<g id="shape1882-101" v:mID="1882" v:groupContext="shape" transform="translate(-1.37073,-2.73425)">
				<title>工作表.1882</title>
				<rect x="0" y="216.821" width="1.5" height="2.4685" class="st7"/>
			</g>
			<g id="shape1879-103" v:mID="1879" v:groupContext="groupContent">
				<v:textBlock v:margins="rect(4,4,4,4)" v:tabSpace="42.5197"/>
				<v:textRect cx="31.0364" cy="215.321" width="62.08" height="7.93701"/>
				<rect v:rectContext="textBkgnd" x="27.7141" y="208.121" width="6.64453" height="14.4001" class="st8"/>
				<text x="27.71" y="218.92" class="st9" v:langID="2052"><v:paragraph v:horizAlign="1"/><v:tabList/>9</text>			</g>
		</g>
		<g id="group1883-106" transform="translate(397.894,83.6421) rotate(89.8334)" v:mID="1883" v:groupContext="group">
			<v:userDefs>
				<v:ud v:nameU="visVersion" v:val="VT0(15):26"/>
			</v:userDefs>
			<title>开放式一维单向箭头.1883</title>
			<desc>10</desc>
			<g id="shape1884-107" v:mID="1884" v:groupContext="shape">
				<title>工作表.1884</title>
				<path d="M-2.25 217.31 L50.46 217.31 L50.46 219.29 L52.44 215.32 L50.46 211.35 L50.46 213.34 L-2.25 213.34 L-2.25
							 217.31 Z" class="st4"/>
				<path d="M-2.25 217.31 L50.46 217.31 L50.46 219.29 L52.44 215.32 L50.46 211.35 L50.46 213.34 L-2.25 213.34"
						class="st5"/>
			</g>
			<g id="shape1885-110" v:mID="1885" v:groupContext="shape">
				<title>工作表.1885</title>
				<path d="M0 217.31 L50.46 217.31 L50.46 219.29 L52.44 215.32 L50.46 211.35 L50.46 213.34 L0 213.34" class="st6"/>
			</g>
			<g id="shape1886-113" v:mID="1886" v:groupContext="shape" transform="translate(-1.27442,-2.73425)">
				<title>工作表.1886</title>
				<rect x="0" y="216.821" width="1.5" height="2.4685" class="st7"/>
			</g>
			<g id="shape1883-115" v:mID="1883" v:groupContext="groupContent">
				<v:textBlock v:margins="rect(4,4,4,4)" v:tabSpace="42.5197"/>
				<v:textRect cx="26.221" cy="215.321" width="52.45" height="7.93701" transform="rotate(-90)"/>
				<rect v:rectContext="textBkgnd" x="-221.965" y="19.0212" width="13.2891" height="14.4001" transform="rotate(-90)"
						class="st8"/>
				<text x="-221.97" y="29.82" transform="rotate(-90)" class="st9" v:langID="2052"><v:paragraph v:horizAlign="1"/><v:tabList/>10</text>			</g>
		</g>
		<g id="group1887-118" transform="translate(40.5882,329.995) rotate(-146.698)" v:mID="1887" v:groupContext="group">
			<v:userDefs>
				<v:ud v:nameU="visVersion" v:val="VT0(15):26"/>
			</v:userDefs>
			<title>开放式一维单向箭头.1887</title>
			<desc>11</desc>
			<g id="shape1888-119" v:mID="1888" v:groupContext="shape">
				<title>工作表.1888</title>
				<path d="M-2.25 217.31 L44.48 217.31 L44.48 219.29 L46.46 215.32 L44.48 211.35 L44.48 213.34 L-2.25 213.34 L-2.25
							 217.31 Z" class="st4"/>
				<path d="M-2.25 217.31 L44.48 217.31 L44.48 219.29 L46.46 215.32 L44.48 211.35 L44.48 213.34 L-2.25 213.34"
						class="st5"/>
			</g>
			<g id="shape1889-122" v:mID="1889" v:groupContext="shape">
				<title>工作表.1889</title>
				<path d="M0 217.31 L44.48 217.31 L44.48 219.29 L46.46 215.32 L44.48 211.35 L44.48 213.34 L0 213.34" class="st6"/>
			</g>
			<g id="shape1890-125" v:mID="1890" v:groupContext="shape" transform="translate(-1.21465,-2.73425)">
				<title>工作表.1890</title>
				<rect x="0" y="216.821" width="1.5" height="2.4685" class="st7"/>
			</g>
			<g id="shape1887-127" v:mID="1887" v:groupContext="groupContent">
				<v:textBlock v:margins="rect(4,4,4,4)" v:tabSpace="42.5197"/>
				<v:textRect cx="23.2324" cy="215.321" width="46.47" height="7.93701" transform="rotate(180)"/>
				<rect v:rectContext="textBkgnd" x="-29.8769" y="-222.521" width="13.2891" height="14.4001" transform="rotate(180)"
						class="st8"/>
				<text x="-29.88" y="-211.72" transform="rotate(180)" class="st9" v:langID="2052"><v:paragraph v:horizAlign="1"/><v:tabList/>11</text>			</g>
		</g>
		<g id="group1895-130" transform="translate(58.4887,415.78) rotate(-166.144)" v:mID="1895" v:groupContext="group">
			<v:userDefs>
				<v:ud v:nameU="visVersion" v:val="VT0(15):26"/>
			</v:userDefs>
			<title>开放式一维单向箭头.1895</title>
			<desc>3</desc>
			<g id="shape1896-131" v:mID="1896" v:groupContext="shape">
				<title>工作表.1896</title>
				<path d="M-2.25 217.31 L40.95 217.31 L40.95 219.29 L42.93 215.32 L40.95 211.35 L40.95 213.34 L-2.25 213.34 L-2.25
							 217.31 Z" class="st4"/>
				<path d="M-2.25 217.31 L40.95 217.31 L40.95 219.29 L42.93 215.32 L40.95 211.35 L40.95 213.34 L-2.25 213.34"
						class="st5"/>
			</g>
			<g id="shape1897-134" v:mID="1897" v:groupContext="shape">
				<title>工作表.1897</title>
				<path d="M0 217.31 L40.95 217.31 L40.95 219.29 L42.93 215.32 L40.95 211.35 L40.95 213.34 L0 213.34" class="st6"/>
			</g>
			<g id="shape1898-137" v:mID="1898" v:groupContext="shape" transform="translate(-1.17932,-2.73425)">
				<title>工作表.1898</title>
				<rect x="0" y="216.821" width="1.5" height="2.4685" class="st7"/>
			</g>
			<g id="shape1895-139" v:mID="1895" v:groupContext="groupContent">
				<v:textBlock v:margins="rect(4,4,4,4)" v:tabSpace="42.5197"/>
				<v:textRect cx="21.466" cy="215.321" width="42.94" height="7.93701" transform="rotate(180)"/>
				<rect v:rectContext="textBkgnd" x="-24.7883" y="-222.521" width="6.64453" height="14.4001" transform="rotate(180)"
						class="st8"/>
				<text x="-24.79" y="-211.72" transform="rotate(180)" class="st9" v:langID="2052"><v:paragraph v:horizAlign="1"/><v:tabList/>3</text>			</g>
		</g>
		<g id="group1899-142" transform="translate(-157.616,220.185) rotate(-104.835)" v:mID="1899" v:groupContext="group">
			<v:userDefs>
				<v:ud v:nameU="visVersion" v:val="VT0(15):26"/>
			</v:userDefs>
			<title>开放式一维单向箭头.1899</title>
			<desc>4</desc>
			<g id="shape1900-143" v:mID="1900" v:groupContext="shape">
				<title>工作表.1900</title>
				<path d="M-2.25 217.31 L58.4 217.31 L58.4 219.29 L60.38 215.32 L58.4 211.35 L58.4 213.34 L-2.25 213.34 L-2.25 217.31
							 Z" class="st4"/>
				<path d="M-2.25 217.31 L58.4 217.31 L58.4 219.29 L60.38 215.32 L58.4 211.35 L58.4 213.34 L-2.25 213.34" class="st5"/>
			</g>
			<g id="shape1901-146" v:mID="1901" v:groupContext="shape">
				<title>工作表.1901</title>
				<path d="M0 217.31 L58.4 217.31 L58.4 219.29 L60.38 215.32 L58.4 211.35 L58.4 213.34 L0 213.34" class="st6"/>
			</g>
			<g id="shape1902-149" v:mID="1902" v:groupContext="shape" transform="translate(-1.35383,-2.73425)">
				<title>工作表.1902</title>
				<rect x="0" y="216.821" width="1.5" height="2.4685" class="st7"/>
			</g>
			<g id="shape1899-151" v:mID="1899" v:groupContext="groupContent">
				<v:textBlock v:margins="rect(4,4,4,4)" v:tabSpace="42.5197"/>
				<v:textRect cx="30.1916" cy="215.321" width="60.39" height="7.93701" transform="rotate(180)"/>
				<rect v:rectContext="textBkgnd" x="-33.5139" y="-222.521" width="6.64453" height="14.4001" transform="rotate(180)"
						class="st8"/>
				<text x="-33.51" y="-211.72" transform="rotate(180)" class="st9" v:langID="2052"><v:paragraph v:horizAlign="1"/><v:tabList/>4</text>			</g>
		</g>
		<g id="group1903-154" transform="translate(104.272,-105.021) rotate(16.574)" v:mID="1903" v:groupContext="group">
			<v:userDefs>
				<v:ud v:nameU="visVersion" v:val="VT0(15):26"/>
			</v:userDefs>
			<title>开放式一维单向箭头.1903</title>
			<desc>5</desc>
			<g id="shape1904-155" v:mID="1904" v:groupContext="shape">
				<title>工作表.1904</title>
				<path d="M-2.25 217.31 L47.43 217.31 L47.43 219.29 L49.41 215.32 L47.43 211.35 L47.43 213.34 L-2.25 213.34 L-2.25
							 217.31 Z" class="st4"/>
				<path d="M-2.25 217.31 L47.43 217.31 L47.43 219.29 L49.41 215.32 L47.43 211.35 L47.43 213.34 L-2.25 213.34"
						class="st5"/>
			</g>
			<g id="shape1905-158" v:mID="1905" v:groupContext="shape">
				<title>工作表.1905</title>
				<path d="M0 217.31 L47.43 217.31 L47.43 219.29 L49.41 215.32 L47.43 211.35 L47.43 213.34 L0 213.34" class="st6"/>
			</g>
			<g id="shape1906-161" v:mID="1906" v:groupContext="shape" transform="translate(-1.24415,-2.73425)">
				<title>工作表.1906</title>
				<rect x="0" y="216.821" width="1.5" height="2.4685" class="st7"/>
			</g>
			<g id="shape1903-163" v:mID="1903" v:groupContext="groupContent">
				<v:textBlock v:margins="rect(4,4,4,4)" v:tabSpace="42.5197"/>
				<v:textRect cx="24.7074" cy="215.321" width="49.42" height="7.93701"/>
				<rect v:rectContext="textBkgnd" x="21.3852" y="208.121" width="6.64453" height="14.4001" class="st8"/>
				<text x="21.39" y="218.92" class="st9" v:langID="2052"><v:paragraph v:horizAlign="1"/><v:tabList/>5</text>			</g>
		</g>
		<g id="group1907-166" transform="translate(36.1749,306.347) rotate(-164.919)" v:mID="1907" v:groupContext="group">
			<v:userDefs>
				<v:ud v:nameU="visVersion" v:val="VT0(15):26"/>
			</v:userDefs>
			<title>开放式一维单向箭头.1907</title>
			<desc>12</desc>
			<g id="shape1908-167" v:mID="1908" v:groupContext="shape">
				<title>工作表.1908</title>
				<path d="M-2.25 217.31 L46.45 217.31 L46.45 219.29 L48.43 215.32 L46.45 211.35 L46.45 213.34 L-2.25 213.34 L-2.25
							 217.31 Z" class="st4"/>
				<path d="M-2.25 217.31 L46.45 217.31 L46.45 219.29 L48.43 215.32 L46.45 211.35 L46.45 213.34 L-2.25 213.34"
						class="st5"/>
			</g>
			<g id="shape1909-170" v:mID="1909" v:groupContext="shape">
				<title>工作表.1909</title>
				<path d="M0 217.31 L46.45 217.31 L46.45 219.29 L48.43 215.32 L46.45 211.35 L46.45 213.34 L0 213.34" class="st6"/>
			</g>
			<g id="shape1910-173" v:mID="1910" v:groupContext="shape" transform="translate(-1.23431,-2.73425)">
				<title>工作表.1910</title>
				<rect x="0" y="216.821" width="1.5" height="2.4685" class="st7"/>
			</g>
			<g id="shape1907-175" v:mID="1907" v:groupContext="groupContent">
				<v:textBlock v:margins="rect(4,4,4,4)" v:tabSpace="42.5197"/>
				<v:textRect cx="24.2155" cy="215.321" width="48.44" height="7.93701" transform="rotate(180)"/>
				<rect v:rectContext="textBkgnd" x="-30.86" y="-222.521" width="13.2891" height="14.4001" transform="rotate(-180)"
						class="st8"/>
				<text x="-30.86" y="-211.72" transform="rotate(-180)" class="st9" v:langID="2052"><v:paragraph v:horizAlign="1"/><v:tabList/>12</text>			</g>
		</g>
		<g id="group1911-178" transform="translate(-114.281,-70.9117) rotate(-46.5452)" v:mID="1911" v:groupContext="group">
			<v:userDefs>
				<v:ud v:nameU="visVersion" v:val="VT0(15):26"/>
			</v:userDefs>
			<title>开放式一维单向箭头.1911</title>
			<desc>13</desc>
			<g id="shape1912-179" v:mID="1912" v:groupContext="shape">
				<title>工作表.1912</title>
				<path d="M-2.25 217.31 L59.23 217.31 L59.23 219.29 L61.22 215.32 L59.23 211.35 L59.23 213.34 L-2.25 213.34 L-2.25
							 217.31 Z" class="st4"/>
				<path d="M-2.25 217.31 L59.23 217.31 L59.23 219.29 L61.22 215.32 L59.23 211.35 L59.23 213.34 L-2.25 213.34"
						class="st5"/>
			</g>
			<g id="shape1913-182" v:mID="1913" v:groupContext="shape">
				<title>工作表.1913</title>
				<path d="M0 217.31 L59.23 217.31 L59.23 219.29 L61.22 215.32 L59.23 211.35 L59.23 213.34 L0 213.34" class="st6"/>
			</g>
			<g id="shape1914-185" v:mID="1914" v:groupContext="shape" transform="translate(-1.36218,-2.73425)">
				<title>工作表.1914</title>
				<rect x="0" y="216.821" width="1.5" height="2.4685" class="st7"/>
			</g>
			<g id="shape1911-187" v:mID="1911" v:groupContext="groupContent">
				<v:textBlock v:margins="rect(4,4,4,4)" v:tabSpace="42.5197"/>
				<v:textRect cx="30.6088" cy="215.321" width="61.22" height="7.93701" transform="rotate(90)"/>
				<rect v:rectContext="textBkgnd" x="208.677" y="-37.8087" width="13.2891" height="14.4001" transform="rotate(90)"
						class="st8"/>
				<text x="208.68" y="-27.01" transform="rotate(90)" class="st9" v:langID="2052"><v:paragraph v:horizAlign="1"/><v:tabList/>13</text>			</g>
		</g>
	</g>
</svg>
