<?xml version="1.0" encoding="UTF-8" standalone="no"?>
<!DOCTYPE svg PUBLIC "-//W3C//DTD SVG 1.1//EN" "http://www.w3.org/Graphics/SVG/1.1/DTD/svg11.dtd">
<!-- 由 Microsoft Visio, SVG Export 生成 InorderTraverse1.svg 页-1 -->
<svg xmlns="http://www.w3.org/2000/svg" xmlns:xlink="http://www.w3.org/1999/xlink" xmlns:ev="http://www.w3.org/2001/xml-events"
		xmlns:v="http://schemas.microsoft.com/visio/2003/SVGExtensions/" width="2.50402in" height="2.04487in"
		viewBox="0 0 180.289 147.23" xml:space="preserve" color-interpolation-filters="sRGB" class="st10">
	<v:documentProperties v:langID="2052" v:metric="true" v:viewMarkup="false"/>

	<style type="text/css">
	<![CDATA[
		.st1 {fill:none}
		.st2 {stroke:none;stroke-linecap:round;stroke-linejoin:round;stroke-width:0.75}
		.st3 {stroke:#000000;stroke-linecap:round;stroke-linejoin:round;stroke-width:0.24}
		.st4 {fill:none;stroke:none;stroke-linecap:round;stroke-linejoin:round;stroke-width:0.24;visibility:hidden}
		.st5 {fill:#ffffff}
		.st6 {fill:#ffffff;stroke:none;stroke-linecap:round;stroke-linejoin:round;stroke-width:0.24;visibility:hidden}
		.st7 {fill:none;stroke:#000000;stroke-linecap:round;stroke-linejoin:round;stroke-width:0.75}
		.st8 {fill:#000000;font-family:Cambria Math;font-size:1.5em}
		.st9 {fill:#ffffff;stroke:#000000;stroke-linecap:round;stroke-linejoin:round;stroke-width:0.75}
		.st10 {fill:none;fill-rule:evenodd;font-size:12px;overflow:visible;stroke-linecap:square;stroke-miterlimit:3}
	]]>
	</style>

	<g v:mID="0" v:index="1" v:groupContext="foregroundPage">
		<title>页-1</title>
		<v:pageProperties v:drawingScale="0.0393701" v:pageScale="0.0393701" v:drawingUnits="24" v:shadowOffsetX="8.50394"
				v:shadowOffsetY="-8.50394"/>
		<g id="group1425-1" transform="translate(155.929,161.813) rotate(150.65)" v:mID="1425" v:groupContext="group">
			<v:userDefs>
				<v:ud v:nameU="visVersion" v:val="VT0(15):26"/>
			</v:userDefs>
			<title>一维单向箭头.1425</title>
			<g id="shape1426-2" v:mID="1426" v:groupContext="shape">
				<title>工作表.1426</title>
				<path d="M0 146.34 L42.49 146.34 L42.49 147.23 L43.37 145.45 L42.49 143.68 L42.49 144.57 L0 144.57 L0 146.34 Z"
						class="st1"/>
				<path d="M0 146.34 L42.49 146.34 L42.49 147.23 L43.37 145.45 L42.49 143.68 L42.49 144.57 L0 144.57" class="st2"/>
			</g>
			<g id="shape1427-5" v:mID="1427" v:groupContext="shape">
				<title>工作表.1427</title>
				<path d="M0 146.34 L42.49 146.34 L42.49 147.23 L43.37 145.45 L42.49 143.68 L42.49 144.57 L0 144.57 L0 146.34"
						class="st3"/>
			</g>
			<g id="shape1428-8" v:mID="1428" v:groupContext="shape" transform="translate(-0.556159,-0.902723)">
				<title>工作表.1428</title>
				<rect x="0" y="145.485" width="0.244826" height="1.74532" class="st4"/>
			</g>
		</g>
		<g id="group1429-10" transform="translate(149.684,-95.0703) rotate(26.5651)" v:mID="1429" v:groupContext="group">
			<v:userDefs>
				<v:ud v:nameU="visVersion" v:val="VT0(15):26"/>
			</v:userDefs>
			<title>一维单向箭头.1429</title>
			<g id="shape1430-11" v:mID="1430" v:groupContext="shape">
				<title>工作表.1430</title>
				<path d="M0 146.34 L46.65 146.34 L46.65 147.23 L47.54 145.45 L46.65 143.68 L46.65 144.57 L0 144.57 L0 146.34 Z"
						class="st5"/>
				<path d="M0 146.34 L46.65 146.34 L46.65 147.23 L47.54 145.45 L46.65 143.68 L46.65 144.57 L0 144.57" class="st2"/>
			</g>
			<g id="shape1431-14" v:mID="1431" v:groupContext="shape">
				<title>工作表.1431</title>
				<path d="M0 146.34 L46.65 146.34 L46.65 147.23 L47.54 145.45 L46.65 143.68 L46.65 144.57 L0 144.57 L0 146.34"
						class="st3"/>
			</g>
			<g id="shape1432-17" v:mID="1432" v:groupContext="shape" transform="translate(-0.609549,-0.902723)">
				<title>工作表.1432</title>
				<rect x="0" y="145.485" width="0.268328" height="1.74532" class="st6"/>
			</g>
		</g>
		<g id="shape1433-19" v:mID="1433" v:groupContext="shape" transform="translate(67.3081,-112.202)">
			<title>圆形.1433</title>
			<desc>4</desc>
			<v:userDefs>
				<v:ud v:nameU="visVersion" v:val="VT0(15):26"/>
			</v:userDefs>
			<v:textBlock v:margins="rect(4,4,4,4)" v:tabSpace="42.5197"/>
			<v:textRect cx="17.3268" cy="129.904" width="34.66" height="34.6535"/>
			<path d="M0 129.9 A17.3268 17.3268 0 0 1 34.65 129.9 A17.3268 17.3268 0 1 1 0 129.9 Z" class="st7"/>
			<text x="12.34" y="135.3" class="st8" v:langID="2052"><v:paragraph v:horizAlign="1"/><v:tabList/>4</text>		</g>
		<g id="shape1434-22" v:mID="1434" v:groupContext="shape" transform="translate(29.501,-56.2884)">
			<title>圆形.1434</title>
			<desc>2</desc>
			<v:userDefs>
				<v:ud v:nameU="visVersion" v:val="VT0(15):26"/>
			</v:userDefs>
			<v:textBlock v:margins="rect(4,4,4,4)" v:tabSpace="42.5197"/>
			<v:textRect cx="17.3268" cy="129.904" width="34.66" height="34.6535"/>
			<path d="M0 129.9 A17.3268 17.3268 0 0 1 34.65 129.9 A17.3268 17.3268 0 1 1 0 129.9 Z" class="st7"/>
			<text x="12.34" y="135.3" class="st8" v:langID="2052"><v:paragraph v:horizAlign="1"/><v:tabList/>2</text>		</g>
		<g id="shape1435-25" v:mID="1435" v:groupContext="shape" transform="translate(109.828,-56.2884)">
			<title>圆形.1435</title>
			<desc>6</desc>
			<v:userDefs>
				<v:ud v:nameU="visVersion" v:val="VT0(15):26"/>
			</v:userDefs>
			<v:textBlock v:margins="rect(4,4,4,4)" v:tabSpace="42.5197"/>
			<v:textRect cx="17.3268" cy="129.904" width="34.66" height="34.6535"/>
			<path d="M0 129.9 A17.3268 17.3268 0 0 1 34.65 129.9 A17.3268 17.3268 0 1 1 0 129.9 Z" class="st9"/>
			<text x="12.34" y="135.3" class="st8" v:langID="2052"><v:paragraph v:horizAlign="1"/><v:tabList/>6</text>		</g>
		<g id="shape1436-28" v:mID="1436" v:groupContext="shape" transform="translate(145.261,-0.375)">
			<title>圆形.1436</title>
			<desc>7</desc>
			<v:userDefs>
				<v:ud v:nameU="visVersion" v:val="VT0(15):26"/>
			</v:userDefs>
			<v:textBlock v:margins="rect(4,4,4,4)" v:tabSpace="42.5197"/>
			<v:textRect cx="17.3268" cy="129.904" width="34.66" height="34.6535"/>
			<path d="M0 129.9 A17.3268 17.3268 0 0 1 34.65 129.9 A17.3268 17.3268 0 1 1 0 129.9 Z" class="st9"/>
			<text x="12.34" y="135.3" class="st8" v:langID="2052"><v:paragraph v:horizAlign="1"/><v:tabList/>7</text>		</g>
		<g id="shape1437-31" v:mID="1437" v:groupContext="shape" transform="translate(0.375,-0.375)">
			<title>圆形.1437</title>
			<desc>1</desc>
			<v:userDefs>
				<v:ud v:nameU="visVersion" v:val="VT0(15):26"/>
			</v:userDefs>
			<v:textBlock v:margins="rect(4,4,4,4)" v:tabSpace="42.5197"/>
			<v:textRect cx="17.3268" cy="129.904" width="34.66" height="34.6535"/>
			<path d="M0 129.9 A17.3268 17.3268 0 0 1 34.65 129.9 A17.3268 17.3268 0 1 1 0 129.9 Z" class="st9"/>
			<text x="12.34" y="135.3" class="st8" v:langID="2052"><v:paragraph v:horizAlign="1"/><v:tabList/>1</text>		</g>
		<g id="group1438-34" transform="translate(201.99,-33.7846) rotate(30.9638)" v:mID="1438" v:groupContext="group">
			<v:userDefs>
				<v:ud v:nameU="visVersion" v:val="VT0(15):26"/>
			</v:userDefs>
			<title>一维单向箭头.1438</title>
			<g id="shape1439-35" v:mID="1439" v:groupContext="shape">
				<title>工作表.1439</title>
				<path d="M0 146.34 L40.43 146.34 L40.43 147.23 L41.32 145.45 L40.43 143.68 L40.43 144.57 L0 144.57 L0 146.34 Z"
						class="st5"/>
				<path d="M0 146.34 L40.43 146.34 L40.43 147.23 L41.32 145.45 L40.43 143.68 L40.43 144.57 L0 144.57" class="st2"/>
			</g>
			<g id="shape1440-38" v:mID="1440" v:groupContext="shape">
				<title>工作表.1440</title>
				<path d="M0 146.34 L40.43 146.34 L40.43 147.23 L41.32 145.45 L40.43 143.68 L40.43 144.57 L0 144.57 L0 146.34"
						class="st3"/>
			</g>
			<g id="shape1441-41" v:mID="1441" v:groupContext="shape" transform="translate(-0.529836,-0.902723)">
				<title>工作表.1441</title>
				<rect x="0" y="145.485" width="0.233238" height="1.74532" class="st6"/>
			</g>
		</g>
		<g id="group1442-43" transform="translate(132.584,208.428) rotate(143.873)" v:mID="1442" v:groupContext="group">
			<v:userDefs>
				<v:ud v:nameU="visVersion" v:val="VT0(15):26"/>
			</v:userDefs>
			<title>一维单向箭头.1442</title>
			<g id="shape1443-44" v:mID="1443" v:groupContext="shape">
				<title>工作表.1443</title>
				<path d="M0 146.34 L35.17 146.34 L35.17 147.23 L36.06 145.45 L35.17 143.68 L35.17 144.57 L0 144.57 L0 146.34 Z"
						class="st5"/>
				<path d="M0 146.34 L35.17 146.34 L35.17 147.23 L36.06 145.45 L35.17 143.68 L35.17 144.57 L0 144.57" class="st2"/>
			</g>
			<g id="shape1444-47" v:mID="1444" v:groupContext="shape">
				<title>工作表.1444</title>
				<path d="M0 146.34 L35.17 146.34 L35.17 147.23 L36.06 145.45 L35.17 143.68 L35.17 144.57 L0 144.57 L0 146.34"
						class="st3"/>
			</g>
			<g id="shape1445-50" v:mID="1445" v:groupContext="shape" transform="translate(-0.462366,-0.902723)">
				<title>工作表.1445</title>
				<rect x="0" y="145.485" width="0.203537" height="1.74532" class="st6"/>
			</g>
		</g>
		<g id="shape1446-52" v:mID="1446" v:groupContext="shape" transform="translate(53.1348,-0.375)">
			<title>圆形.1446</title>
			<desc>3</desc>
			<v:userDefs>
				<v:ud v:nameU="visVersion" v:val="VT0(15):26"/>
			</v:userDefs>
			<v:textBlock v:margins="rect(4,4,4,4)" v:tabSpace="42.5197"/>
			<v:textRect cx="17.3268" cy="129.904" width="34.66" height="34.6535"/>
			<path d="M0 129.9 A17.3268 17.3268 0 0 1 34.65 129.9 A17.3268 17.3268 0 1 1 0 129.9 Z" class="st9"/>
			<text x="12.34" y="135.3" class="st8" v:langID="2052"><v:paragraph v:horizAlign="1"/><v:tabList/>3</text>		</g>
		<g id="shape1447-55" v:mID="1447" v:groupContext="shape" transform="translate(95.6545,-0.375)">
			<title>圆形.1447</title>
			<desc>5</desc>
			<v:userDefs>
				<v:ud v:nameU="visVersion" v:val="VT0(15):26"/>
			</v:userDefs>
			<v:textBlock v:margins="rect(4,4,4,4)" v:tabSpace="42.5197"/>
			<v:textRect cx="17.3268" cy="129.904" width="34.66" height="34.6535"/>
			<path d="M0 129.9 A17.3268 17.3268 0 0 1 34.65 129.9 A17.3268 17.3268 0 1 1 0 129.9 Z" class="st9"/>
			<text x="12.34" y="135.3" class="st8" v:langID="2052"><v:paragraph v:horizAlign="1"/><v:tabList/>5</text>		</g>
		<g id="group1448-58" transform="translate(144.105,-17.1981) rotate(41.973)" v:mID="1448" v:groupContext="group">
			<v:userDefs>
				<v:ud v:nameU="visVersion" v:val="VT0(15):26"/>
			</v:userDefs>
			<title>一维单向箭头.1448</title>
			<g id="shape1449-59" v:mID="1449" v:groupContext="shape">
				<title>工作表.1449</title>
				<path d="M0 146.34 L30.9 146.34 L30.9 147.23 L31.79 145.45 L30.9 143.68 L30.9 144.57 L0 144.57 L0 146.34 Z"
						class="st5"/>
				<path d="M0 146.34 L30.9 146.34 L30.9 147.23 L31.79 145.45 L30.9 143.68 L30.9 144.57 L0 144.57" class="st2"/>
			</g>
			<g id="shape1450-62" v:mID="1450" v:groupContext="shape">
				<title>工作表.1450</title>
				<path d="M0 146.34 L30.9 146.34 L30.9 147.23 L31.79 145.45 L30.9 143.68 L30.9 144.57 L0 144.57 L0 146.34"
						class="st3"/>
			</g>
			<g id="shape1451-65" v:mID="1451" v:groupContext="shape" transform="translate(-0.407606,-0.902723)">
				<title>工作表.1451</title>
				<rect x="0" y="145.485" width="0.179431" height="1.74532" class="st6"/>
			</g>
		</g>
		<g id="group1452-67" transform="translate(248.18,171.626) rotate(123.69)" v:mID="1452" v:groupContext="group">
			<v:userDefs>
				<v:ud v:nameU="visVersion" v:val="VT0(15):26"/>
			</v:userDefs>
			<title>一维单向箭头.1452</title>
			<g id="shape1453-68" v:mID="1453" v:groupContext="shape">
				<title>工作表.1453</title>
				<path d="M0 146.34 L24.66 146.34 L24.66 147.23 L25.55 145.45 L24.66 143.68 L24.66 144.57 L0 144.57 L0 146.34 Z"
						class="st5"/>
				<path d="M0 146.34 L24.66 146.34 L24.66 147.23 L25.55 145.45 L24.66 143.68 L24.66 144.57 L0 144.57" class="st2"/>
			</g>
			<g id="shape1454-71" v:mID="1454" v:groupContext="shape">
				<title>工作表.1454</title>
				<path d="M0 146.34 L24.66 146.34 L24.66 147.23 L25.55 145.45 L24.66 143.68 L24.66 144.57 L0 144.57 L0 146.34"
						class="st3"/>
			</g>
			<g id="shape1455-74" v:mID="1455" v:groupContext="shape" transform="translate(-0.327623,-0.902723)">
				<title>工作表.1455</title>
				<rect x="0" y="145.485" width="0.144222" height="1.74532" class="st6"/>
			</g>
		</g>
	</g>
</svg>
