<?xml version="1.0" encoding="UTF-8" standalone="no"?>
<!DOCTYPE svg PUBLIC "-//W3C//DTD SVG 1.1//EN" "http://www.w3.org/Graphics/SVG/1.1/DTD/svg11.dtd">
<!-- 由 Microsoft Visio, SVG Export 生成 KnowledgePoint2.svg 页-1 -->
<svg xmlns="http://www.w3.org/2000/svg" xmlns:xlink="http://www.w3.org/1999/xlink" xmlns:ev="http://www.w3.org/2001/xml-events"
		xmlns:v="http://schemas.microsoft.com/visio/2003/SVGExtensions/" width="2.88886in" height="3.05569in"
		viewBox="0 0 207.998 220.01" xml:space="preserve" color-interpolation-filters="sRGB" class="st10">
	<v:documentProperties v:langID="2052" v:metric="true" v:viewMarkup="false"/>

	<style type="text/css">
	<![CDATA[
		.st1 {fill:none;stroke:#000000;stroke-linecap:round;stroke-linejoin:round;stroke-width:0.75}
		.st2 {fill:#000000;font-family:Cambria Math;font-size:1.5em}
		.st3 {fill:#ffffff;stroke:#000000;stroke-linecap:round;stroke-linejoin:round;stroke-width:0.75}
		.st4 {fill:#c05046}
		.st5 {stroke:none;stroke-linecap:round;stroke-linejoin:round;stroke-width:0.75}
		.st6 {stroke:#000000;stroke-linecap:round;stroke-linejoin:round;stroke-width:0.75}
		.st7 {fill:#c05046;stroke:#c05046;stroke-linecap:round;stroke-linejoin:round;stroke-width:0.75;visibility:hidden}
		.st8 {fill:#ffffff}
		.st9 {fill:#ffffff;stroke:#ffffff;stroke-linecap:round;stroke-linejoin:round;stroke-width:0.75;visibility:hidden}
		.st10 {fill:none;fill-rule:evenodd;font-size:12px;overflow:visible;stroke-linecap:square;stroke-miterlimit:3}
	]]>
	</style>

	<g v:mID="0" v:index="1" v:groupContext="foregroundPage">
		<title>页-1</title>
		<v:pageProperties v:drawingScale="0.0393701" v:pageScale="0.0393701" v:drawingUnits="24" v:shadowOffsetX="8.50394"
				v:shadowOffsetY="-8.50394"/>
		<g id="shape1571-1" v:mID="1571" v:groupContext="shape" transform="translate(65.8907,-184.981)">
			<title>圆形.1571</title>
			<desc>0</desc>
			<v:userDefs>
				<v:ud v:nameU="visVersion" v:val="VT0(15):26"/>
			</v:userDefs>
			<v:textBlock v:margins="rect(4,4,4,4)" v:tabSpace="42.5197"/>
			<v:textRect cx="17.3268" cy="202.683" width="34.66" height="34.6535"/>
			<path d="M0 202.68 A17.3268 17.3268 0 0 1 34.65 202.68 A17.3268 17.3268 0 1 1 0 202.68 Z" class="st1"/>
			<text x="12.34" y="208.08" class="st2" v:langID="2052"><v:paragraph v:horizAlign="1"/><v:tabList/>0</text>		</g>
		<g id="shape1572-4" v:mID="1572" v:groupContext="shape" transform="translate(0.375,-112.662)">
			<title>圆形.1572</title>
			<desc>1</desc>
			<v:userDefs>
				<v:ud v:nameU="visVersion" v:val="VT0(15):26"/>
			</v:userDefs>
			<v:textBlock v:margins="rect(4,4,4,4)" v:tabSpace="42.5197"/>
			<v:textRect cx="17.3268" cy="202.683" width="34.66" height="34.6535"/>
			<path d="M0 202.68 A17.3268 17.3268 0 0 1 34.65 202.68 A17.3268 17.3268 0 1 1 0 202.68 Z" class="st1"/>
			<text x="12.34" y="208.08" class="st2" v:langID="2052"><v:paragraph v:horizAlign="1"/><v:tabList/>1</text>		</g>
		<g id="shape1573-7" v:mID="1573" v:groupContext="shape" transform="translate(172.969,-137.076)">
			<title>圆形.1573</title>
			<desc>5</desc>
			<v:userDefs>
				<v:ud v:nameU="visVersion" v:val="VT0(15):26"/>
			</v:userDefs>
			<v:textBlock v:margins="rect(4,4,4,4)" v:tabSpace="42.5197"/>
			<v:textRect cx="17.3268" cy="202.683" width="34.66" height="34.6535"/>
			<path d="M0 202.68 A17.3268 17.3268 0 0 1 34.65 202.68 A17.3268 17.3268 0 1 1 0 202.68 Z" class="st3"/>
			<text x="12.34" y="208.08" class="st2" v:langID="2052"><v:paragraph v:horizAlign="1"/><v:tabList/>5</text>		</g>
		<g id="shape1574-10" v:mID="1574" v:groupContext="shape" transform="translate(37.5443,-0.375)">
			<title>圆形.1574</title>
			<desc>2</desc>
			<v:userDefs>
				<v:ud v:nameU="visVersion" v:val="VT0(15):26"/>
			</v:userDefs>
			<v:textBlock v:margins="rect(4,4,4,4)" v:tabSpace="42.5197"/>
			<v:textRect cx="17.3268" cy="202.683" width="34.66" height="34.6535"/>
			<path d="M0 202.68 A17.3268 17.3268 0 0 1 34.65 202.68 A17.3268 17.3268 0 1 1 0 202.68 Z" class="st3"/>
			<text x="12.34" y="208.08" class="st2" v:langID="2052"><v:paragraph v:horizAlign="1"/><v:tabList/>2</text>		</g>
		<g id="shape1575-13" v:mID="1575" v:groupContext="shape" transform="translate(113.442,-12.3514)">
			<title>圆形.1575</title>
			<desc>3</desc>
			<v:userDefs>
				<v:ud v:nameU="visVersion" v:val="VT0(15):26"/>
			</v:userDefs>
			<v:textBlock v:margins="rect(4,4,4,4)" v:tabSpace="42.5197"/>
			<v:textRect cx="17.3268" cy="202.683" width="34.66" height="34.6535"/>
			<path d="M0 202.68 A17.3268 17.3268 0 0 1 34.65 202.68 A17.3268 17.3268 0 1 1 0 202.68 Z" class="st3"/>
			<text x="12.34" y="208.08" class="st2" v:langID="2052"><v:paragraph v:horizAlign="1"/><v:tabList/>3</text>		</g>
		<g id="shape1576-16" v:mID="1576" v:groupContext="shape" transform="translate(145.261,-61.6388)">
			<title>圆形.1576</title>
			<desc>4</desc>
			<v:userDefs>
				<v:ud v:nameU="visVersion" v:val="VT0(15):26"/>
			</v:userDefs>
			<v:textBlock v:margins="rect(4,4,4,4)" v:tabSpace="42.5197"/>
			<v:textRect cx="17.3268" cy="202.683" width="34.66" height="34.6535"/>
			<path d="M0 202.68 A17.3268 17.3268 0 0 1 34.65 202.68 A17.3268 17.3268 0 1 1 0 202.68 Z" class="st3"/>
			<text x="12.34" y="208.08" class="st2" v:langID="2052"><v:paragraph v:horizAlign="1"/><v:tabList/>4</text>		</g>
		<g id="group1577-19" transform="translate(-126.088,-78.5018) rotate(-45)" v:mID="1577" v:groupContext="group">
			<v:userDefs>
				<v:ud v:nameU="OpenEnd" v:val="VT0(3):26"/>
				<v:ud v:nameU="visVersion" v:val="VT0(15):26"/>
			</v:userDefs>
			<title>开放/闭合条.1577</title>
			<g id="shape1578-20" v:mID="1578" v:groupContext="shape">
				<title>工作表.1578</title>
				<path d="M0 220.01 L62.54 220.01 L62.54 216.86 L0 216.86 L0 220.01 Z" class="st4"/>
				<path d="M0 220.01 L62.54 220.01 L62.54 216.86 L0 216.86" class="st5"/>
			</g>
			<g id="shape1579-23" v:mID="1579" v:groupContext="shape">
				<title>工作表.1579</title>
				<path d="M0 220.01 L62.54 220.01 L0 220.01 ZM0 216.86 L62.54 216.86 L0 216.86 Z" class="st4"/>
				<path d="M0 220.01 L62.54 220.01" class="st6"/>
				<path d="" class="st6"/>
				<path d="M0 216.86 L62.54 216.86" class="st6"/>
				<path d="" class="st6"/>
				<path d="M0 220.01 L0 216.86" class="st6"/>
				<path d="M62.54 220.01 L62.54 216.86" class="st6"/>
			</g>
			<g id="shape1580-31" v:mID="1580" v:groupContext="shape" transform="translate(-1.125,-0.75)">
				<title>工作表.1580</title>
				<rect x="0" y="218.356" width="1.5" height="1.65354" class="st7"/>
			</g>
			<g id="shape1581-33" v:mID="1581" v:groupContext="shape" transform="translate(62.5372,-0.75)">
				<title>工作表.1581</title>
				<rect x="0" y="218.356" width="0.75" height="1.65354" class="st7"/>
			</g>
		</g>
		<g id="group1582-35" transform="translate(210.455,-171.135) rotate(30)" v:mID="1582" v:groupContext="group">
			<v:userDefs>
				<v:ud v:nameU="OpenEnd" v:val="VT0(3):26"/>
				<v:ud v:nameU="visVersion" v:val="VT0(15):26"/>
			</v:userDefs>
			<title>开放/闭合条.1582</title>
			<g id="shape1583-36" v:mID="1583" v:groupContext="shape">
				<title>工作表.1583</title>
				<path d="M0 220.01 L83.71 220.01 L83.71 216.86 L0 216.86 L0 220.01 Z" class="st4"/>
				<path d="M0 220.01 L83.71 220.01 L83.71 216.86 L0 216.86" class="st5"/>
			</g>
			<g id="shape1584-39" v:mID="1584" v:groupContext="shape">
				<title>工作表.1584</title>
				<path d="M0 220.01 L83.71 220.01 L0 220.01 ZM0 216.86 L83.71 216.86 L0 216.86 Z" class="st4"/>
				<path d="M0 220.01 L83.71 220.01" class="st6"/>
				<path d="" class="st6"/>
				<path d="M0 216.86 L83.71 216.86" class="st6"/>
				<path d="" class="st6"/>
				<path d="M0 220.01 L0 216.86" class="st6"/>
				<path d="M83.71 220.01 L83.71 216.86" class="st6"/>
			</g>
			<g id="shape1585-47" v:mID="1585" v:groupContext="shape" transform="translate(-1.125,-0.75)">
				<title>工作表.1585</title>
				<rect x="0" y="218.356" width="1.5" height="1.65354" class="st7"/>
			</g>
			<g id="shape1586-49" v:mID="1586" v:groupContext="shape" transform="translate(83.7078,-0.75)">
				<title>工作表.1586</title>
				<rect x="0" y="218.356" width="0.75" height="1.65354" class="st7"/>
			</g>
		</g>
		<g id="group1597-51" transform="translate(186.89,-54.5243) rotate(45)" v:mID="1597" v:groupContext="group">
			<v:userDefs>
				<v:ud v:nameU="OpenEnd" v:val="VT0(3):26"/>
				<v:ud v:nameU="visVersion" v:val="VT0(15):26"/>
			</v:userDefs>
			<title>开放/闭合条.1597</title>
			<g id="shape1598-52" v:mID="1598" v:groupContext="shape">
				<title>工作表.1598</title>
				<path d="M0 220.01 L116.46 220.01 L116.46 216.86 L0 216.86 L0 220.01 Z" class="st4"/>
				<path d="M0 220.01 L116.46 220.01 L116.46 216.86 L0 216.86" class="st5"/>
			</g>
			<g id="shape1599-55" v:mID="1599" v:groupContext="shape">
				<title>工作表.1599</title>
				<path d="M0 220.01 L116.46 220.01 L0 220.01 ZM0 216.86 L116.46 216.86 L0 216.86 Z" class="st4"/>
				<path d="M0 220.01 L116.46 220.01" class="st6"/>
				<path d="" class="st6"/>
				<path d="M0 216.86 L116.46 216.86" class="st6"/>
				<path d="" class="st6"/>
				<path d="M0 220.01 L0 216.86" class="st6"/>
				<path d="M116.46 220.01 L116.46 216.86" class="st6"/>
			</g>
			<g id="shape1600-63" v:mID="1600" v:groupContext="shape" transform="translate(-1.125,-0.75)">
				<title>工作表.1600</title>
				<rect x="0" y="218.356" width="1.5" height="1.65354" class="st7"/>
			</g>
			<g id="shape1601-65" v:mID="1601" v:groupContext="shape" transform="translate(116.455,-0.75)">
				<title>工作表.1601</title>
				<rect x="0" y="218.356" width="0.75" height="1.65354" class="st7"/>
			</g>
		</g>
		<g id="group1602-67" transform="translate(234.143,50.1981) rotate(75)" v:mID="1602" v:groupContext="group">
			<v:userDefs>
				<v:ud v:nameU="OpenEnd" v:val="VT0(3):26"/>
				<v:ud v:nameU="visVersion" v:val="VT0(15):26"/>
			</v:userDefs>
			<title>开放/闭合条.1602</title>
			<g id="shape1603-68" v:mID="1603" v:groupContext="shape">
				<title>工作表.1603</title>
				<path d="M0 220.01 L84.03 220.01 L84.03 216.86 L0 216.86 L0 220.01 Z" class="st8"/>
				<path d="M0 220.01 L84.03 220.01 L84.03 216.86 L0 216.86" class="st5"/>
			</g>
			<g id="shape1604-71" v:mID="1604" v:groupContext="shape">
				<title>工作表.1604</title>
				<path d="M0 220.01 L84.03 220.01 L0 220.01 ZM0 216.86 L84.03 216.86 L0 216.86 Z" class="st8"/>
				<path d="M0 220.01 L84.03 220.01" class="st6"/>
				<path d="" class="st6"/>
				<path d="M0 216.86 L84.03 216.86" class="st6"/>
				<path d="" class="st6"/>
				<path d="M0 220.01 L0 216.86" class="st6"/>
				<path d="M84.03 220.01 L84.03 216.86" class="st6"/>
			</g>
			<g id="shape1605-79" v:mID="1605" v:groupContext="shape" transform="translate(-1.125,-0.75)">
				<title>工作表.1605</title>
				<rect x="0" y="218.356" width="1.5" height="1.65354" class="st9"/>
			</g>
			<g id="shape1606-81" v:mID="1606" v:groupContext="shape" transform="translate(84.0299,-0.75)">
				<title>工作表.1606</title>
				<rect x="0" y="218.356" width="0.75" height="1.65354" class="st9"/>
			</g>
		</g>
		<g id="group1607-83" transform="translate(340.603,263.901) rotate(120)" v:mID="1607" v:groupContext="group">
			<v:userDefs>
				<v:ud v:nameU="OpenEnd" v:val="VT0(3):26"/>
				<v:ud v:nameU="visVersion" v:val="VT0(15):26"/>
			</v:userDefs>
			<title>开放/闭合条.1607</title>
			<g id="shape1608-84" v:mID="1608" v:groupContext="shape">
				<title>工作表.1608</title>
				<path d="M0 220.01 L23.75 220.01 L23.75 216.86 L0 216.86 L0 220.01 Z" class="st4"/>
				<path d="M0 220.01 L23.75 220.01 L23.75 216.86 L0 216.86" class="st5"/>
			</g>
			<g id="shape1609-87" v:mID="1609" v:groupContext="shape">
				<title>工作表.1609</title>
				<path d="M0 220.01 L23.75 220.01 L0 220.01 ZM0 216.86 L23.75 216.86 L0 216.86 Z" class="st4"/>
				<path d="M0 220.01 L23.75 220.01" class="st6"/>
				<path d="" class="st6"/>
				<path d="M0 216.86 L23.75 216.86" class="st6"/>
				<path d="" class="st6"/>
				<path d="M0 220.01 L0 216.86" class="st6"/>
				<path d="M23.75 220.01 L23.75 216.86" class="st6"/>
			</g>
			<g id="shape1610-95" v:mID="1610" v:groupContext="shape" transform="translate(-1.125,-0.75)">
				<title>工作表.1610</title>
				<rect x="0" y="218.356" width="1.5" height="1.65354" class="st7"/>
			</g>
			<g id="shape1611-97" v:mID="1611" v:groupContext="shape" transform="translate(23.7512,-0.75)">
				<title>工作表.1611</title>
				<rect x="0" y="218.356" width="0.75" height="1.65354" class="st7"/>
			</g>
		</g>
		<g id="group1617-99" transform="translate(389.488,135.628) rotate(105)" v:mID="1617" v:groupContext="group">
			<v:userDefs>
				<v:ud v:nameU="OpenEnd" v:val="VT0(3):26"/>
				<v:ud v:nameU="visVersion" v:val="VT0(15):26"/>
			</v:userDefs>
			<title>开放/闭合条.1617</title>
			<g id="shape1618-100" v:mID="1618" v:groupContext="shape">
				<title>工作表.1618</title>
				<path d="M0 220.01 L46.99 220.01 L46.99 216.86 L0 216.86 L0 220.01 Z" class="st4"/>
				<path d="M0 220.01 L46.99 220.01 L46.99 216.86 L0 216.86" class="st5"/>
			</g>
			<g id="shape1619-103" v:mID="1619" v:groupContext="shape">
				<title>工作表.1619</title>
				<path d="M0 220.01 L46.99 220.01 L0 220.01 ZM0 216.86 L46.99 216.86 L0 216.86 Z" class="st4"/>
				<path d="M0 220.01 L46.99 220.01" class="st6"/>
				<path d="" class="st6"/>
				<path d="M0 216.86 L46.99 216.86" class="st6"/>
				<path d="" class="st6"/>
				<path d="M0 220.01 L0 216.86" class="st6"/>
				<path d="M46.99 220.01 L46.99 216.86" class="st6"/>
			</g>
			<g id="shape1620-111" v:mID="1620" v:groupContext="shape" transform="translate(-1.125,-0.75)">
				<title>工作表.1620</title>
				<rect x="0" y="218.356" width="1.5" height="1.65354" class="st7"/>
			</g>
			<g id="shape1621-113" v:mID="1621" v:groupContext="shape" transform="translate(46.9911,-0.75)">
				<title>工作表.1621</title>
				<rect x="0" y="218.356" width="0.75" height="1.65354" class="st7"/>
			</g>
		</g>
	</g>
</svg>
