<?xml version="1.0" encoding="UTF-8" standalone="no"?>
<!DOCTYPE svg PUBLIC "-//W3C//DTD SVG 1.1//EN" "http://www.w3.org/Graphics/SVG/1.1/DTD/svg11.dtd">
<!-- 由 Microsoft Visio, SVG Export 生成 KnowledgePoint3.svg 页-1 -->
<svg xmlns="http://www.w3.org/2000/svg" xmlns:xlink="http://www.w3.org/1999/xlink" xmlns:ev="http://www.w3.org/2001/xml-events"
		xmlns:v="http://schemas.microsoft.com/visio/2003/SVGExtensions/" width="11.9884in" height="3.25254in"
		viewBox="0 0 863.166 234.183" xml:space="preserve" color-interpolation-filters="sRGB" class="st12">
	<v:documentProperties v:langID="2052" v:metric="true" v:viewMarkup="false"/>

	<style type="text/css">
	<![CDATA[
		.st1 {fill:none}
		.st2 {stroke:none;stroke-linecap:round;stroke-linejoin:round;stroke-width:0.75}
		.st3 {stroke:#000000;stroke-linecap:round;stroke-linejoin:round;stroke-width:0.24}
		.st4 {fill:none;stroke:none;stroke-linecap:round;stroke-linejoin:round;stroke-width:0.24;visibility:hidden}
		.st5 {fill:none;stroke:#000000;stroke-linecap:round;stroke-linejoin:round;stroke-width:0.75}
		.st6 {fill:#000000;font-family:Cambria Math;font-size:1.5em}
		.st7 {fill:#ffffff;stroke:#000000;stroke-linecap:round;stroke-linejoin:round;stroke-width:0.75}
		.st8 {fill:#ffffff}
		.st9 {fill:#ffffff;stroke:none;stroke-linecap:round;stroke-linejoin:round;stroke-width:0.24;visibility:hidden}
		.st10 {marker-end:url(#mrkr4-129);stroke:#000000;stroke-linecap:round;stroke-linejoin:round;stroke-width:0.237638}
		.st11 {fill:#000000;fill-opacity:1;stroke:#000000;stroke-opacity:1;stroke-width:0.086174404659928}
		.st12 {fill:none;fill-rule:evenodd;font-size:12px;overflow:visible;stroke-linecap:square;stroke-miterlimit:3}
	]]>
	</style>

	<defs id="Markers">
		<g id="lend4">
			<path d="M 2 1 L 0 0 L 2 -1 L 2 1 " style="stroke:none"/>
		</g>
		<marker id="mrkr4-129" class="st11" v:arrowType="4" v:arrowSize="2" v:setback="23.2087" refX="-23.208747514911"
				orient="auto" markerUnits="strokeWidth" overflow="visible">
			<use xlink:href="#lend4" transform="scale(-11.604373757455,-11.604373757455) "/>
		</marker>
	</defs>
	<g v:mID="0" v:index="1" v:groupContext="foregroundPage">
		<title>页-1</title>
		<v:pageProperties v:drawingScale="0.0393701" v:pageScale="0.0393701" v:drawingUnits="24" v:shadowOffsetX="8.50394"
				v:shadowOffsetY="-8.50394"/>
		<v:layer v:name="连接线" v:index="0"/>
		<g id="group1622-1" transform="translate(234.562,192.776) rotate(135)" v:mID="1622" v:groupContext="group">
			<v:userDefs>
				<v:ud v:nameU="visVersion" v:val="VT0(15):26"/>
			</v:userDefs>
			<title>一维单向箭头.1622</title>
			<g id="shape1623-2" v:mID="1623" v:groupContext="shape">
				<title>工作表.1623</title>
				<path d="M0 230.34 L59.52 230.34 L59.52 234.18 L63.36 226.49 L59.52 218.8 L59.52 222.65 L0 222.65 L0 230.34 Z"
						class="st1"/>
				<path d="M0 230.34 L59.52 230.34 L59.52 234.18 L63.36 226.49 L59.52 218.8 L59.52 222.65 L0 222.65" class="st2"/>
			</g>
			<g id="shape1624-5" v:mID="1624" v:groupContext="shape">
				<title>工作表.1624</title>
				<path d="M0 230.34 L59.52 230.34 L59.52 234.18 L63.36 226.49 L59.52 218.8 L59.52 222.65 L0 222.65 L0 230.34"
						class="st3"/>
			</g>
			<g id="shape1625-8" v:mID="1625" v:groupContext="shape" transform="translate(-0.812477,-3.91106)">
				<title>工作表.1625</title>
				<rect x="0" y="226.621" width="0.357659" height="7.56163" class="st4"/>
			</g>
		</g>
		<g id="shape1626-10" v:mID="1626" v:groupContext="shape" transform="translate(65.8907,-199.155)">
			<title>圆形.1626</title>
			<desc>0</desc>
			<v:userDefs>
				<v:ud v:nameU="visVersion" v:val="VT0(15):26"/>
			</v:userDefs>
			<v:textBlock v:margins="rect(4,4,4,4)" v:tabSpace="42.5197"/>
			<v:textRect cx="17.3268" cy="216.856" width="34.66" height="34.6535"/>
			<path d="M0 216.86 A17.3268 17.3268 0 0 1 34.65 216.86 A17.3268 17.3268 0 1 1 0 216.86 Z" class="st5"/>
			<text x="12.34" y="222.26" class="st6" v:langID="2052"><v:paragraph v:horizAlign="1"/><v:tabList/>0</text>		</g>
		<g id="shape1627-13" v:mID="1627" v:groupContext="shape" transform="translate(0.375,-126.836)">
			<title>圆形.1627</title>
			<desc>1</desc>
			<v:userDefs>
				<v:ud v:nameU="visVersion" v:val="VT0(15):26"/>
			</v:userDefs>
			<v:textBlock v:margins="rect(4,4,4,4)" v:tabSpace="42.5197"/>
			<v:textRect cx="17.3268" cy="216.856" width="34.66" height="34.6535"/>
			<path d="M0 216.86 A17.3268 17.3268 0 0 1 34.65 216.86 A17.3268 17.3268 0 1 1 0 216.86 Z" class="st5"/>
			<text x="12.34" y="222.26" class="st6" v:langID="2052"><v:paragraph v:horizAlign="1"/><v:tabList/>1</text>		</g>
		<g id="shape1628-16" v:mID="1628" v:groupContext="shape" transform="translate(172.969,-151.249)">
			<title>圆形.1628</title>
			<desc>5</desc>
			<v:userDefs>
				<v:ud v:nameU="visVersion" v:val="VT0(15):26"/>
			</v:userDefs>
			<v:textBlock v:margins="rect(4,4,4,4)" v:tabSpace="42.5197"/>
			<v:textRect cx="17.3268" cy="216.856" width="34.66" height="34.6535"/>
			<path d="M0 216.86 A17.3268 17.3268 0 0 1 34.65 216.86 A17.3268 17.3268 0 1 1 0 216.86 Z" class="st7"/>
			<text x="12.34" y="222.26" class="st6" v:langID="2052"><v:paragraph v:horizAlign="1"/><v:tabList/>5</text>		</g>
		<g id="shape1629-19" v:mID="1629" v:groupContext="shape" transform="translate(37.5443,-14.5482)">
			<title>圆形.1629</title>
			<desc>2</desc>
			<v:userDefs>
				<v:ud v:nameU="visVersion" v:val="VT0(15):26"/>
			</v:userDefs>
			<v:textBlock v:margins="rect(4,4,4,4)" v:tabSpace="42.5197"/>
			<v:textRect cx="17.3268" cy="216.856" width="34.66" height="34.6535"/>
			<path d="M0 216.86 A17.3268 17.3268 0 0 1 34.65 216.86 A17.3268 17.3268 0 1 1 0 216.86 Z" class="st7"/>
			<text x="12.34" y="222.26" class="st6" v:langID="2052"><v:paragraph v:horizAlign="1"/><v:tabList/>2</text>		</g>
		<g id="shape1630-22" v:mID="1630" v:groupContext="shape" transform="translate(113.442,-26.5246)">
			<title>圆形.1630</title>
			<desc>3</desc>
			<v:userDefs>
				<v:ud v:nameU="visVersion" v:val="VT0(15):26"/>
			</v:userDefs>
			<v:textBlock v:margins="rect(4,4,4,4)" v:tabSpace="42.5197"/>
			<v:textRect cx="17.3268" cy="216.856" width="34.66" height="34.6535"/>
			<path d="M0 216.86 A17.3268 17.3268 0 0 1 34.65 216.86 A17.3268 17.3268 0 1 1 0 216.86 Z" class="st7"/>
			<text x="12.34" y="222.26" class="st6" v:langID="2052"><v:paragraph v:horizAlign="1"/><v:tabList/>3</text>		</g>
		<g id="shape1631-25" v:mID="1631" v:groupContext="shape" transform="translate(145.261,-75.812)">
			<title>圆形.1631</title>
			<desc>4</desc>
			<v:userDefs>
				<v:ud v:nameU="visVersion" v:val="VT0(15):26"/>
			</v:userDefs>
			<v:textBlock v:margins="rect(4,4,4,4)" v:tabSpace="42.5197"/>
			<v:textRect cx="17.3268" cy="216.856" width="34.66" height="34.6535"/>
			<path d="M0 216.86 A17.3268 17.3268 0 0 1 34.65 216.86 A17.3268 17.3268 0 1 1 0 216.86 Z" class="st7"/>
			<text x="12.34" y="222.26" class="st6" v:langID="2052"><v:paragraph v:horizAlign="1"/><v:tabList/>4</text>		</g>
		<g id="group1632-28" transform="translate(227.325,21.5773) rotate(67.7474)" v:mID="1632" v:groupContext="group">
			<v:userDefs>
				<v:ud v:nameU="visVersion" v:val="VT0(15):26"/>
			</v:userDefs>
			<title>一维单向箭头.1632</title>
			<g id="shape1633-29" v:mID="1633" v:groupContext="shape">
				<title>工作表.1633</title>
				<path d="M0 230.34 L80.86 230.34 L80.86 234.18 L84.71 226.49 L80.86 218.8 L80.86 222.65 L0 222.65 L0 230.34 Z"
						class="st1"/>
				<path d="M0 230.34 L80.86 230.34 L80.86 234.18 L84.71 226.49 L80.86 218.8 L80.86 222.65 L0 222.65" class="st2"/>
			</g>
			<g id="shape1634-32" v:mID="1634" v:groupContext="shape">
				<title>工作表.1634</title>
				<path d="M0 230.34 L80.86 230.34 L80.86 234.18 L84.71 226.49 L80.86 218.8 L80.86 222.65 L0 222.65 L0 230.34"
						class="st3"/>
			</g>
			<g id="shape1635-35" v:mID="1635" v:groupContext="shape" transform="translate(-1.08614,-3.91106)">
				<title>工作表.1635</title>
				<rect x="0" y="226.621" width="0.478127" height="7.56163" class="st4"/>
			</g>
		</g>
		<g id="group1636-37" transform="translate(150.025,413.849) rotate(170.705)" v:mID="1636" v:groupContext="group">
			<v:userDefs>
				<v:ud v:nameU="visVersion" v:val="VT0(15):26"/>
			</v:userDefs>
			<title>一维单向箭头.1636</title>
			<g id="shape1637-38" v:mID="1637" v:groupContext="shape">
				<title>工作表.1637</title>
				<path d="M0 230.34 L38.72 230.34 L38.72 234.18 L42.57 226.49 L38.72 218.8 L38.72 222.65 L0 222.65 L0 230.34 Z"
						class="st1"/>
				<path d="M0 230.34 L38.72 230.34 L38.72 234.18 L42.57 226.49 L38.72 218.8 L38.72 222.65 L0 222.65" class="st2"/>
			</g>
			<g id="shape1638-41" v:mID="1638" v:groupContext="shape">
				<title>工作表.1638</title>
				<path d="M0 230.34 L38.72 230.34 L38.72 234.18 L42.57 226.49 L38.72 218.8 L38.72 222.65 L0 222.65 L0 230.34"
						class="st3"/>
			</g>
			<g id="shape1639-44" v:mID="1639" v:groupContext="shape" transform="translate(-0.545852,-3.91106)">
				<title>工作表.1639</title>
				<rect x="0" y="226.621" width="0.240288" height="7.56163" class="st4"/>
			</g>
		</g>
		<g id="group1640-46" transform="translate(178.371,-69.4966) rotate(40.8211)" v:mID="1640" v:groupContext="group">
			<v:userDefs>
				<v:ud v:nameU="visVersion" v:val="VT0(15):26"/>
			</v:userDefs>
			<title>一维单向箭头.1640</title>
			<g id="shape1641-47" v:mID="1641" v:groupContext="shape">
				<title>工作表.1641</title>
				<path d="M0 230.34 L112.7 230.34 L112.7 234.18 L116.55 226.49 L112.7 218.8 L112.7 222.65 L0 222.65 L0 230.34 Z"
						class="st1"/>
				<path d="M0 230.34 L112.7 230.34 L112.7 234.18 L116.55 226.49 L112.7 218.8 L112.7 222.65 L0 222.65" class="st2"/>
			</g>
			<g id="shape1642-50" v:mID="1642" v:groupContext="shape">
				<title>工作表.1642</title>
				<path d="M0 230.34 L112.7 230.34 L112.7 234.18 L116.55 226.49 L112.7 218.8 L112.7 222.65 L0 222.65 L0 230.34"
						class="st3"/>
			</g>
			<g id="shape1643-53" v:mID="1643" v:groupContext="shape" transform="translate(-1.49437,-3.91106)">
				<title>工作表.1643</title>
				<rect x="0" y="226.621" width="0.657832" height="7.56163" class="st4"/>
			</g>
		</g>
		<g id="group1644-55" transform="translate(176.286,-182.261) rotate(20.7842)" v:mID="1644" v:groupContext="group">
			<v:userDefs>
				<v:ud v:nameU="visVersion" v:val="VT0(15):26"/>
			</v:userDefs>
			<title>一维单向箭头.1644</title>
			<g id="shape1645-56" v:mID="1645" v:groupContext="shape">
				<title>工作表.1645</title>
				<path d="M0 230.34 L79.88 230.34 L79.88 234.18 L83.73 226.49 L79.88 218.8 L79.88 222.65 L0 222.65 L0 230.34 Z"
						class="st1"/>
				<path d="M0 230.34 L79.88 230.34 L79.88 234.18 L83.73 226.49 L79.88 218.8 L79.88 222.65 L0 222.65" class="st2"/>
			</g>
			<g id="shape1646-59" v:mID="1646" v:groupContext="shape">
				<title>工作表.1646</title>
				<path d="M0 230.34 L79.88 230.34 L79.88 234.18 L83.73 226.49 L79.88 218.8 L79.88 222.65 L0 222.65 L0 230.34"
						class="st3"/>
			</g>
			<g id="shape1647-62" v:mID="1647" v:groupContext="shape" transform="translate(-1.07361,-3.91106)">
				<title>工作表.1647</title>
				<rect x="0" y="226.621" width="0.47261" height="7.56163" class="st4"/>
			</g>
		</g>
		<g id="group1648-64" transform="translate(207.487,292.795) rotate(171.315)" v:mID="1648" v:groupContext="group">
			<v:userDefs>
				<v:ud v:nameU="visVersion" v:val="VT0(15):26"/>
			</v:userDefs>
			<title>一维单向箭头.1648</title>
			<g id="shape1649-65" v:mID="1649" v:groupContext="shape">
				<title>工作表.1649</title>
				<path d="M0 230.34 L136.01 230.34 L136.01 234.18 L139.86 226.49 L136.01 218.8 L136.01 222.65 L0 222.65 L0 230.34 Z"
						class="st1"/>
				<path d="M0 230.34 L136.01 230.34 L136.01 234.18 L139.86 226.49 L136.01 218.8 L136.01 222.65 L0 222.65" class="st2"/>
			</g>
			<g id="shape1650-68" v:mID="1650" v:groupContext="shape">
				<title>工作表.1650</title>
				<path d="M0 230.34 L136.01 230.34 L136.01 234.18 L139.86 226.49 L136.01 218.8 L136.01 222.65 L0 222.65 L0 230.34"
						class="st3"/>
			</g>
			<g id="shape1651-71" v:mID="1651" v:groupContext="shape" transform="translate(-1.79332,-3.91106)">
				<title>工作表.1651</title>
				<rect x="0" y="226.621" width="0.789436" height="7.56163" class="st4"/>
			</g>
		</g>
		<g id="group1652-73" transform="translate(-29.815,-18.4274) rotate(-24.5054)" v:mID="1652" v:groupContext="group">
			<v:userDefs>
				<v:ud v:nameU="visVersion" v:val="VT0(15):26"/>
			</v:userDefs>
			<title>一维单向箭头.1652</title>
			<g id="shape1653-74" v:mID="1653" v:groupContext="shape">
				<title>工作表.1653</title>
				<path d="M0 230.34 L87.83 230.34 L87.83 234.18 L91.67 226.49 L87.83 218.8 L87.83 222.65 L0 222.65 L0 230.34 Z"
						class="st1"/>
				<path d="M0 230.34 L87.83 230.34 L87.83 234.18 L91.67 226.49 L87.83 218.8 L87.83 222.65 L0 222.65" class="st2"/>
			</g>
			<g id="shape1654-77" v:mID="1654" v:groupContext="shape">
				<title>工作表.1654</title>
				<path d="M0 230.34 L87.83 230.34 L87.83 234.18 L91.67 226.49 L87.83 218.8 L87.83 222.65 L0 222.65 L0 230.34"
						class="st3"/>
			</g>
			<g id="shape1655-80" v:mID="1655" v:groupContext="shape" transform="translate(-1.17543,-3.91106)">
				<title>工作表.1655</title>
				<rect x="0" y="226.621" width="0.517433" height="7.56163" class="st4"/>
			</g>
		</g>
		<g id="group1656-82" transform="translate(131.121,-80.1286) rotate(-12.4409)" v:mID="1656" v:groupContext="group">
			<v:userDefs>
				<v:ud v:nameU="visVersion" v:val="VT0(15):26"/>
			</v:userDefs>
			<title>一维单向箭头.1656</title>
			<g id="shape1657-83" v:mID="1657" v:groupContext="shape">
				<title>工作表.1657</title>
				<path d="M0 230.34 L40.19 230.34 L40.19 234.18 L44.04 226.49 L40.19 218.8 L40.19 222.65 L0 222.65 L0 230.34 Z"
						class="st1"/>
				<path d="M0 230.34 L40.19 230.34 L40.19 234.18 L44.04 226.49 L40.19 218.8 L40.19 222.65 L0 222.65" class="st2"/>
			</g>
			<g id="shape1658-86" v:mID="1658" v:groupContext="shape">
				<title>工作表.1658</title>
				<path d="M0 230.34 L40.19 230.34 L40.19 234.18 L44.04 226.49 L40.19 218.8 L40.19 222.65 L0 222.65 L0 230.34"
						class="st3"/>
			</g>
			<g id="shape1659-89" v:mID="1659" v:groupContext="shape" transform="translate(-0.564637,-3.91106)">
				<title>工作表.1659</title>
				<rect x="0" y="226.621" width="0.248557" height="7.56163" class="st4"/>
			</g>
		</g>
		<g id="shape1665-91" v:mID="1665" v:groupContext="shape" transform="translate(222.916,-85.2987)">
			<title>圆形.1665</title>
			<desc>6</desc>
			<v:userDefs>
				<v:ud v:nameU="visVersion" v:val="VT0(15):26"/>
			</v:userDefs>
			<v:textBlock v:margins="rect(4,4,4,4)" v:tabSpace="42.5197"/>
			<v:textRect cx="17.3268" cy="216.856" width="34.66" height="34.6535"/>
			<path d="M0 216.86 A17.3268 17.3268 0 0 1 34.65 216.86 A17.3268 17.3268 0 1 1 0 216.86 Z" class="st7"/>
			<text x="12.34" y="222.26" class="st6" v:langID="2052"><v:paragraph v:horizAlign="1"/><v:tabList/>6</text>		</g>
		<g id="shape1666-94" v:mID="1666" v:groupContext="shape" transform="translate(173.522,-0.375)">
			<title>圆形.1666</title>
			<desc>7</desc>
			<v:userDefs>
				<v:ud v:nameU="visVersion" v:val="VT0(15):26"/>
			</v:userDefs>
			<v:textBlock v:margins="rect(4,4,4,4)" v:tabSpace="42.5197"/>
			<v:textRect cx="17.3268" cy="216.856" width="34.66" height="34.6535"/>
			<path d="M0 216.86 A17.3268 17.3268 0 0 1 34.65 216.86 A17.3268 17.3268 0 1 1 0 216.86 Z" class="st7"/>
			<text x="12.34" y="222.26" class="st6" v:langID="2052"><v:paragraph v:horizAlign="1"/><v:tabList/>7</text>		</g>
		<g id="group1667-97" transform="translate(385.818,84.8129) rotate(71.6137)" v:mID="1667" v:groupContext="group">
			<v:userDefs>
				<v:ud v:nameU="visVersion" v:val="VT0(15):26"/>
			</v:userDefs>
			<title>一维单向箭头.1667</title>
			<g id="shape1668-98" v:mID="1668" v:groupContext="shape">
				<title>工作表.1668</title>
				<path d="M0 230.34 L42.28 230.34 L42.28 234.18 L46.12 226.49 L42.28 218.8 L42.28 222.65 L0 222.65 L0 230.34 Z"
						class="st1"/>
				<path d="M0 230.34 L42.28 230.34 L42.28 234.18 L46.12 226.49 L42.28 218.8 L42.28 222.65 L0 222.65" class="st2"/>
			</g>
			<g id="shape1669-101" v:mID="1669" v:groupContext="shape">
				<title>工作表.1669</title>
				<path d="M0 230.34 L42.28 230.34 L42.28 234.18 L46.12 226.49 L42.28 218.8 L42.28 222.65 L0 222.65 L0 230.34"
						class="st3"/>
			</g>
			<g id="shape1670-104" v:mID="1670" v:groupContext="shape" transform="translate(-0.591398,-3.91106)">
				<title>工作表.1670</title>
				<rect x="0" y="226.621" width="0.260338" height="7.56163" class="st4"/>
			</g>
		</g>
		<g id="group1715-106" transform="translate(284.878,-81.3028)" v:mID="1715" v:groupContext="group">
			<v:userDefs>
				<v:ud v:nameU="visVersion" v:val="VT0(15):26"/>
			</v:userDefs>
			<title>一维单向箭头</title>
			<g id="shape1716-107" v:mID="1716" v:groupContext="shape">
				<title>工作表.1716</title>
				<path d="M0 211.08 L18.9 211.08 L18.9 234.18 L28.35 187.98 L18.9 141.77 L18.9 164.87 L0 164.87 L0 211.08 Z"
						class="st8"/>
				<path d="M0 211.08 L18.9 211.08 L18.9 234.18 L28.35 187.98 L18.9 141.77 L18.9 164.87 L0 164.87" class="st2"/>
			</g>
			<g id="shape1717-110" v:mID="1717" v:groupContext="shape">
				<title>工作表.1717</title>
				<path d="M0 211.08 L18.9 211.08 L18.9 234.18 L28.35 187.98 L18.9 141.77 L18.9 164.87 L0 164.87 L0 211.08"
						class="st3"/>
			</g>
			<g id="shape1718-113" v:mID="1718" v:groupContext="shape" transform="translate(-0.363465,-23.4943)">
				<title>工作表.1718</title>
				<rect x="0" y="188.759" width="0.16" height="45.4237" class="st9"/>
			</g>
		</g>
		<g id="shape1719-115" v:mID="1719" v:groupContext="shape" transform="translate(355.744,-108.588)">
			<title>框</title>
			<desc>0</desc>
			<v:userDefs>
				<v:ud v:nameU="visVersion" v:val="VT0(15):26"/>
			</v:userDefs>
			<v:textBlock v:margins="rect(4,4,4,4)" v:tabSpace="42.5197"/>
			<v:textRect cx="17.3268" cy="216.856" width="34.66" height="34.6535"/>
			<rect x="0" y="199.53" width="34.6535" height="34.6535" class="st7"/>
			<text x="12.34" y="222.26" class="st6" v:langID="2052"><v:paragraph v:horizAlign="1"/><v:tabList/>0</text>		</g>
		<g id="shape1720-118" v:mID="1720" v:groupContext="shape" transform="translate(434.476,-108.588)">
			<title>框.1720</title>
			<desc>5</desc>
			<v:userDefs>
				<v:ud v:nameU="visVersion" v:val="VT0(15):26"/>
			</v:userDefs>
			<v:textBlock v:margins="rect(4,4,4,4)" v:tabSpace="42.5197"/>
			<v:textRect cx="17.3268" cy="216.856" width="34.66" height="34.6535"/>
			<rect x="0" y="199.53" width="34.6535" height="34.6535" class="st7"/>
			<text x="12.34" y="222.26" class="st6" v:langID="2052"><v:paragraph v:horizAlign="1"/><v:tabList/>5</text>		</g>
		<g id="shape1721-121" v:mID="1721" v:groupContext="shape" transform="translate(513.209,-108.588)">
			<title>框.1721</title>
			<desc>1</desc>
			<v:userDefs>
				<v:ud v:nameU="visVersion" v:val="VT0(15):26"/>
			</v:userDefs>
			<v:textBlock v:margins="rect(4,4,4,4)" v:tabSpace="42.5197"/>
			<v:textRect cx="17.3268" cy="216.856" width="34.66" height="34.6535"/>
			<rect x="0" y="199.53" width="34.6535" height="34.6535" class="st7"/>
			<text x="12.34" y="222.26" class="st6" v:langID="2052"><v:paragraph v:horizAlign="1"/><v:tabList/>1</text>		</g>
		<g id="shape1722-124" v:mID="1722" v:groupContext="shape" v:layerMember="0" transform="translate(390.398,-118.828)">
			<title>动态连接线</title>
			<path d="M0 227.1 L38.56 227.1" class="st10"/>
		</g>
		<g id="shape1723-130" v:mID="1723" v:groupContext="shape" v:layerMember="0" transform="translate(373.071,-150.328)">
			<title>动态连接线.1723</title>
			<path d="M0 241.27 L0 230.64 L157.46 230.64 L157.46 235.75" class="st10"/>
		</g>
		<g id="shape1724-135" v:mID="1724" v:groupContext="shape" v:layerMember="0" transform="translate(469.13,-118.828)">
			<title>动态连接线.1724</title>
			<path d="M0 227.1 L38.56 227.1" class="st10"/>
		</g>
		<g id="shape1725-140" v:mID="1725" v:groupContext="shape" transform="translate(591.941,-108.588)">
			<title>框.1725</title>
			<desc>3</desc>
			<v:userDefs>
				<v:ud v:nameU="visVersion" v:val="VT0(15):26"/>
			</v:userDefs>
			<v:textBlock v:margins="rect(4,4,4,4)" v:tabSpace="42.5197"/>
			<v:textRect cx="17.3268" cy="216.856" width="34.66" height="34.6535"/>
			<rect x="0" y="199.53" width="34.6535" height="34.6535" class="st7"/>
			<text x="12.34" y="222.26" class="st6" v:langID="2052"><v:paragraph v:horizAlign="1"/><v:tabList/>3</text>		</g>
		<g id="shape1726-143" v:mID="1726" v:groupContext="shape" transform="translate(670.673,-108.588)">
			<title>框.1726</title>
			<desc>2</desc>
			<v:userDefs>
				<v:ud v:nameU="visVersion" v:val="VT0(15):26"/>
			</v:userDefs>
			<v:textBlock v:margins="rect(4,4,4,4)" v:tabSpace="42.5197"/>
			<v:textRect cx="17.3268" cy="216.856" width="34.66" height="34.6535"/>
			<rect x="0" y="199.53" width="34.6535" height="34.6535" class="st7"/>
			<text x="12.34" y="222.26" class="st6" v:langID="2052"><v:paragraph v:horizAlign="1"/><v:tabList/>2</text>		</g>
		<g id="shape1727-146" v:mID="1727" v:groupContext="shape" transform="translate(749.405,-108.588)">
			<title>框.1727</title>
			<desc>4</desc>
			<v:userDefs>
				<v:ud v:nameU="visVersion" v:val="VT0(15):26"/>
			</v:userDefs>
			<v:textBlock v:margins="rect(4,4,4,4)" v:tabSpace="42.5197"/>
			<v:textRect cx="17.3268" cy="216.856" width="34.66" height="34.6535"/>
			<rect x="0" y="199.53" width="34.6535" height="34.6535" class="st7"/>
			<text x="12.34" y="222.26" class="st6" v:langID="2052"><v:paragraph v:horizAlign="1"/><v:tabList/>4</text>		</g>
		<g id="shape1728-149" v:mID="1728" v:groupContext="shape" transform="translate(828.138,-142.462)">
			<title>框.1728</title>
			<desc>6</desc>
			<v:userDefs>
				<v:ud v:nameU="visVersion" v:val="VT0(15):26"/>
			</v:userDefs>
			<v:textBlock v:margins="rect(4,4,4,4)" v:tabSpace="42.5197"/>
			<v:textRect cx="17.3268" cy="216.856" width="34.66" height="34.6535"/>
			<rect x="0" y="199.53" width="34.6535" height="34.6535" class="st7"/>
			<text x="12.34" y="222.26" class="st6" v:langID="2052"><v:paragraph v:horizAlign="1"/><v:tabList/>6</text>		</g>
		<g id="shape1729-152" v:mID="1729" v:groupContext="shape" transform="translate(828.138,-72.375)">
			<title>框.1729</title>
			<desc>7</desc>
			<v:userDefs>
				<v:ud v:nameU="visVersion" v:val="VT0(15):26"/>
			</v:userDefs>
			<v:textBlock v:margins="rect(4,4,4,4)" v:tabSpace="42.5197"/>
			<v:textRect cx="17.3268" cy="216.856" width="34.66" height="34.6535"/>
			<rect x="0" y="199.53" width="34.6535" height="34.6535" class="st7"/>
			<text x="12.34" y="222.26" class="st6" v:langID="2052"><v:paragraph v:horizAlign="1"/><v:tabList/>7</text>		</g>
		<g id="shape1730-155" v:mID="1730" v:groupContext="shape" v:layerMember="0" transform="translate(547.862,-118.828)">
			<title>动态连接线.1730</title>
			<path d="M0 227.1 L38.56 227.1" class="st10"/>
		</g>
		<g id="shape1731-160" v:mID="1731" v:groupContext="shape" v:layerMember="0" transform="translate(530.535,-101.501)">
			<title>动态连接线.1731</title>
			<path d="M0 227.1 L0 237.73 L157.46 237.73 L157.46 232.61" class="st10"/>
		</g>
		<g id="shape1732-165" v:mID="1732" v:groupContext="shape" v:layerMember="0" transform="translate(626.594,-118.828)">
			<title>动态连接线.1732</title>
			<path d="M0 227.1 L38.56 227.1" class="st10"/>
		</g>
		<g id="shape1733-170" v:mID="1733" v:groupContext="shape" v:layerMember="0" transform="translate(705.327,-118.828)">
			<title>动态连接线.1733</title>
			<path d="M0 227.1 L38.56 227.1" class="st10"/>
		</g>
		<g id="shape1735-175" v:mID="1735" v:groupContext="shape" v:layerMember="0" transform="translate(784.059,-125.914)">
			<title>动态连接线.1735</title>
			<path d="M0 234.18 L10.63 234.18 L10.63 200.31 L38.56 200.31" class="st10"/>
		</g>
		<g id="shape1736-180" v:mID="1736" v:groupContext="shape" v:layerMember="0" transform="translate(784.059,-125.914)">
			<title>动态连接线.1736</title>
			<path d="M0 234.18 L10.63 234.18 L10.63 270.4 L38.56 270.4" class="st10"/>
		</g>
	</g>
</svg>
