<?xml version="1.0" encoding="UTF-8" standalone="no"?>
<!DOCTYPE svg PUBLIC "-//W3C//DTD SVG 1.1//EN" "http://www.w3.org/Graphics/SVG/1.1/DTD/svg11.dtd">
<!-- 由 Microsoft Visio, SVG Export 生成 TopologicalSort1.svg 页-1 -->
<svg xmlns="http://www.w3.org/2000/svg" xmlns:xlink="http://www.w3.org/1999/xlink" xmlns:ev="http://www.w3.org/2001/xml-events"
		xmlns:v="http://schemas.microsoft.com/visio/2003/SVGExtensions/" width="3.58256in" height="3.25254in"
		viewBox="0 0 257.945 234.183" xml:space="preserve" color-interpolation-filters="sRGB" class="st8">
	<v:documentProperties v:langID="2052" v:metric="true" v:viewMarkup="false"/>

	<style type="text/css">
	<![CDATA[
		.st1 {fill:none}
		.st2 {stroke:none;stroke-linecap:round;stroke-linejoin:round;stroke-width:0.75}
		.st3 {stroke:#000000;stroke-linecap:round;stroke-linejoin:round;stroke-width:0.24}
		.st4 {fill:none;stroke:none;stroke-linecap:round;stroke-linejoin:round;stroke-width:0.24;visibility:hidden}
		.st5 {fill:none;stroke:#000000;stroke-linecap:round;stroke-linejoin:round;stroke-width:0.75}
		.st6 {fill:#000000;font-family:Cambria Math;font-size:1.5em}
		.st7 {fill:#ffffff;stroke:#000000;stroke-linecap:round;stroke-linejoin:round;stroke-width:0.75}
		.st8 {fill:none;fill-rule:evenodd;font-size:12px;overflow:visible;stroke-linecap:square;stroke-miterlimit:3}
	]]>
	</style>

	<g v:mID="0" v:index="1" v:groupContext="foregroundPage">
		<title>页-1</title>
		<v:pageProperties v:drawingScale="0.0393701" v:pageScale="0.0393701" v:drawingUnits="24" v:shadowOffsetX="8.50394"
				v:shadowOffsetY="-8.50394"/>
		<g id="group1784-1" transform="translate(234.562,192.776) rotate(135)" v:mID="1784" v:groupContext="group">
			<v:userDefs>
				<v:ud v:nameU="visVersion" v:val="VT0(15):26"/>
			</v:userDefs>
			<title>一维单向箭头.1622</title>
			<g id="shape1785-2" v:mID="1785" v:groupContext="shape">
				<title>工作表.1785</title>
				<path d="M0 230.34 L59.52 230.34 L59.52 234.18 L63.36 226.49 L59.52 218.8 L59.52 222.65 L0 222.65 L0 230.34 Z"
						class="st1"/>
				<path d="M0 230.34 L59.52 230.34 L59.52 234.18 L63.36 226.49 L59.52 218.8 L59.52 222.65 L0 222.65" class="st2"/>
			</g>
			<g id="shape1786-5" v:mID="1786" v:groupContext="shape">
				<title>工作表.1786</title>
				<path d="M0 230.34 L59.52 230.34 L59.52 234.18 L63.36 226.49 L59.52 218.8 L59.52 222.65 L0 222.65 L0 230.34"
						class="st3"/>
			</g>
			<g id="shape1787-8" v:mID="1787" v:groupContext="shape" transform="translate(-0.812477,-3.91106)">
				<title>工作表.1787</title>
				<rect x="0" y="226.621" width="0.357659" height="7.56163" class="st4"/>
			</g>
		</g>
		<g id="shape1788-10" v:mID="1788" v:groupContext="shape" transform="translate(65.8907,-199.155)">
			<title>圆形.1626</title>
			<desc>0</desc>
			<v:userDefs>
				<v:ud v:nameU="visVersion" v:val="VT0(15):26"/>
			</v:userDefs>
			<v:textBlock v:margins="rect(4,4,4,4)" v:tabSpace="42.5197"/>
			<v:textRect cx="17.3268" cy="216.856" width="34.66" height="34.6535"/>
			<path d="M0 216.86 A17.3268 17.3268 0 0 1 34.65 216.86 A17.3268 17.3268 0 1 1 0 216.86 Z" class="st5"/>
			<text x="12.34" y="222.26" class="st6" v:langID="2052"><v:paragraph v:horizAlign="1"/><v:tabList/>0</text>		</g>
		<g id="shape1789-13" v:mID="1789" v:groupContext="shape" transform="translate(0.375,-126.836)">
			<title>圆形.1627</title>
			<desc>1</desc>
			<v:userDefs>
				<v:ud v:nameU="visVersion" v:val="VT0(15):26"/>
			</v:userDefs>
			<v:textBlock v:margins="rect(4,4,4,4)" v:tabSpace="42.5197"/>
			<v:textRect cx="17.3268" cy="216.856" width="34.66" height="34.6535"/>
			<path d="M0 216.86 A17.3268 17.3268 0 0 1 34.65 216.86 A17.3268 17.3268 0 1 1 0 216.86 Z" class="st5"/>
			<text x="12.34" y="222.26" class="st6" v:langID="2052"><v:paragraph v:horizAlign="1"/><v:tabList/>1</text>		</g>
		<g id="shape1790-16" v:mID="1790" v:groupContext="shape" transform="translate(172.969,-151.249)">
			<title>圆形.1628</title>
			<desc>5</desc>
			<v:userDefs>
				<v:ud v:nameU="visVersion" v:val="VT0(15):26"/>
			</v:userDefs>
			<v:textBlock v:margins="rect(4,4,4,4)" v:tabSpace="42.5197"/>
			<v:textRect cx="17.3268" cy="216.856" width="34.66" height="34.6535"/>
			<path d="M0 216.86 A17.3268 17.3268 0 0 1 34.65 216.86 A17.3268 17.3268 0 1 1 0 216.86 Z" class="st7"/>
			<text x="12.34" y="222.26" class="st6" v:langID="2052"><v:paragraph v:horizAlign="1"/><v:tabList/>5</text>		</g>
		<g id="shape1791-19" v:mID="1791" v:groupContext="shape" transform="translate(37.5443,-14.5482)">
			<title>圆形.1629</title>
			<desc>2</desc>
			<v:userDefs>
				<v:ud v:nameU="visVersion" v:val="VT0(15):26"/>
			</v:userDefs>
			<v:textBlock v:margins="rect(4,4,4,4)" v:tabSpace="42.5197"/>
			<v:textRect cx="17.3268" cy="216.856" width="34.66" height="34.6535"/>
			<path d="M0 216.86 A17.3268 17.3268 0 0 1 34.65 216.86 A17.3268 17.3268 0 1 1 0 216.86 Z" class="st7"/>
			<text x="12.34" y="222.26" class="st6" v:langID="2052"><v:paragraph v:horizAlign="1"/><v:tabList/>2</text>		</g>
		<g id="shape1792-22" v:mID="1792" v:groupContext="shape" transform="translate(113.442,-26.5246)">
			<title>圆形.1630</title>
			<desc>3</desc>
			<v:userDefs>
				<v:ud v:nameU="visVersion" v:val="VT0(15):26"/>
			</v:userDefs>
			<v:textBlock v:margins="rect(4,4,4,4)" v:tabSpace="42.5197"/>
			<v:textRect cx="17.3268" cy="216.856" width="34.66" height="34.6535"/>
			<path d="M0 216.86 A17.3268 17.3268 0 0 1 34.65 216.86 A17.3268 17.3268 0 1 1 0 216.86 Z" class="st7"/>
			<text x="12.34" y="222.26" class="st6" v:langID="2052"><v:paragraph v:horizAlign="1"/><v:tabList/>3</text>		</g>
		<g id="shape1793-25" v:mID="1793" v:groupContext="shape" transform="translate(145.261,-75.812)">
			<title>圆形.1631</title>
			<desc>4</desc>
			<v:userDefs>
				<v:ud v:nameU="visVersion" v:val="VT0(15):26"/>
			</v:userDefs>
			<v:textBlock v:margins="rect(4,4,4,4)" v:tabSpace="42.5197"/>
			<v:textRect cx="17.3268" cy="216.856" width="34.66" height="34.6535"/>
			<path d="M0 216.86 A17.3268 17.3268 0 0 1 34.65 216.86 A17.3268 17.3268 0 1 1 0 216.86 Z" class="st7"/>
			<text x="12.34" y="222.26" class="st6" v:langID="2052"><v:paragraph v:horizAlign="1"/><v:tabList/>4</text>		</g>
		<g id="group1794-28" transform="translate(227.325,21.5773) rotate(67.7474)" v:mID="1794" v:groupContext="group">
			<v:userDefs>
				<v:ud v:nameU="visVersion" v:val="VT0(15):26"/>
			</v:userDefs>
			<title>一维单向箭头.1632</title>
			<g id="shape1795-29" v:mID="1795" v:groupContext="shape">
				<title>工作表.1795</title>
				<path d="M0 230.34 L80.86 230.34 L80.86 234.18 L84.71 226.49 L80.86 218.8 L80.86 222.65 L0 222.65 L0 230.34 Z"
						class="st1"/>
				<path d="M0 230.34 L80.86 230.34 L80.86 234.18 L84.71 226.49 L80.86 218.8 L80.86 222.65 L0 222.65" class="st2"/>
			</g>
			<g id="shape1796-32" v:mID="1796" v:groupContext="shape">
				<title>工作表.1796</title>
				<path d="M0 230.34 L80.86 230.34 L80.86 234.18 L84.71 226.49 L80.86 218.8 L80.86 222.65 L0 222.65 L0 230.34"
						class="st3"/>
			</g>
			<g id="shape1797-35" v:mID="1797" v:groupContext="shape" transform="translate(-1.08614,-3.91106)">
				<title>工作表.1797</title>
				<rect x="0" y="226.621" width="0.478127" height="7.56163" class="st4"/>
			</g>
		</g>
		<g id="group1798-37" transform="translate(150.025,413.849) rotate(170.705)" v:mID="1798" v:groupContext="group">
			<v:userDefs>
				<v:ud v:nameU="visVersion" v:val="VT0(15):26"/>
			</v:userDefs>
			<title>一维单向箭头.1636</title>
			<g id="shape1799-38" v:mID="1799" v:groupContext="shape">
				<title>工作表.1799</title>
				<path d="M0 230.34 L38.72 230.34 L38.72 234.18 L42.57 226.49 L38.72 218.8 L38.72 222.65 L0 222.65 L0 230.34 Z"
						class="st1"/>
				<path d="M0 230.34 L38.72 230.34 L38.72 234.18 L42.57 226.49 L38.72 218.8 L38.72 222.65 L0 222.65" class="st2"/>
			</g>
			<g id="shape1800-41" v:mID="1800" v:groupContext="shape">
				<title>工作表.1800</title>
				<path d="M0 230.34 L38.72 230.34 L38.72 234.18 L42.57 226.49 L38.72 218.8 L38.72 222.65 L0 222.65 L0 230.34"
						class="st3"/>
			</g>
			<g id="shape1801-44" v:mID="1801" v:groupContext="shape" transform="translate(-0.545852,-3.91106)">
				<title>工作表.1801</title>
				<rect x="0" y="226.621" width="0.240288" height="7.56163" class="st4"/>
			</g>
		</g>
		<g id="group1802-46" transform="translate(178.371,-69.4966) rotate(40.8211)" v:mID="1802" v:groupContext="group">
			<v:userDefs>
				<v:ud v:nameU="visVersion" v:val="VT0(15):26"/>
			</v:userDefs>
			<title>一维单向箭头.1640</title>
			<g id="shape1803-47" v:mID="1803" v:groupContext="shape">
				<title>工作表.1803</title>
				<path d="M0 230.34 L112.7 230.34 L112.7 234.18 L116.55 226.49 L112.7 218.8 L112.7 222.65 L0 222.65 L0 230.34 Z"
						class="st1"/>
				<path d="M0 230.34 L112.7 230.34 L112.7 234.18 L116.55 226.49 L112.7 218.8 L112.7 222.65 L0 222.65" class="st2"/>
			</g>
			<g id="shape1804-50" v:mID="1804" v:groupContext="shape">
				<title>工作表.1804</title>
				<path d="M0 230.34 L112.7 230.34 L112.7 234.18 L116.55 226.49 L112.7 218.8 L112.7 222.65 L0 222.65 L0 230.34"
						class="st3"/>
			</g>
			<g id="shape1805-53" v:mID="1805" v:groupContext="shape" transform="translate(-1.49437,-3.91106)">
				<title>工作表.1805</title>
				<rect x="0" y="226.621" width="0.657832" height="7.56163" class="st4"/>
			</g>
		</g>
		<g id="group1806-55" transform="translate(176.286,-182.261) rotate(20.7842)" v:mID="1806" v:groupContext="group">
			<v:userDefs>
				<v:ud v:nameU="visVersion" v:val="VT0(15):26"/>
			</v:userDefs>
			<title>一维单向箭头.1644</title>
			<g id="shape1807-56" v:mID="1807" v:groupContext="shape">
				<title>工作表.1807</title>
				<path d="M0 230.34 L79.88 230.34 L79.88 234.18 L83.73 226.49 L79.88 218.8 L79.88 222.65 L0 222.65 L0 230.34 Z"
						class="st1"/>
				<path d="M0 230.34 L79.88 230.34 L79.88 234.18 L83.73 226.49 L79.88 218.8 L79.88 222.65 L0 222.65" class="st2"/>
			</g>
			<g id="shape1808-59" v:mID="1808" v:groupContext="shape">
				<title>工作表.1808</title>
				<path d="M0 230.34 L79.88 230.34 L79.88 234.18 L83.73 226.49 L79.88 218.8 L79.88 222.65 L0 222.65 L0 230.34"
						class="st3"/>
			</g>
			<g id="shape1809-62" v:mID="1809" v:groupContext="shape" transform="translate(-1.07361,-3.91106)">
				<title>工作表.1809</title>
				<rect x="0" y="226.621" width="0.47261" height="7.56163" class="st4"/>
			</g>
		</g>
		<g id="group1810-64" transform="translate(207.487,292.795) rotate(171.315)" v:mID="1810" v:groupContext="group">
			<v:userDefs>
				<v:ud v:nameU="visVersion" v:val="VT0(15):26"/>
			</v:userDefs>
			<title>一维单向箭头.1648</title>
			<g id="shape1811-65" v:mID="1811" v:groupContext="shape">
				<title>工作表.1811</title>
				<path d="M0 230.34 L136.01 230.34 L136.01 234.18 L139.86 226.49 L136.01 218.8 L136.01 222.65 L0 222.65 L0 230.34 Z"
						class="st1"/>
				<path d="M0 230.34 L136.01 230.34 L136.01 234.18 L139.86 226.49 L136.01 218.8 L136.01 222.65 L0 222.65" class="st2"/>
			</g>
			<g id="shape1812-68" v:mID="1812" v:groupContext="shape">
				<title>工作表.1812</title>
				<path d="M0 230.34 L136.01 230.34 L136.01 234.18 L139.86 226.49 L136.01 218.8 L136.01 222.65 L0 222.65 L0 230.34"
						class="st3"/>
			</g>
			<g id="shape1813-71" v:mID="1813" v:groupContext="shape" transform="translate(-1.79332,-3.91106)">
				<title>工作表.1813</title>
				<rect x="0" y="226.621" width="0.789436" height="7.56163" class="st4"/>
			</g>
		</g>
		<g id="group1814-73" transform="translate(-29.815,-18.4274) rotate(-24.5054)" v:mID="1814" v:groupContext="group">
			<v:userDefs>
				<v:ud v:nameU="visVersion" v:val="VT0(15):26"/>
			</v:userDefs>
			<title>一维单向箭头.1652</title>
			<g id="shape1815-74" v:mID="1815" v:groupContext="shape">
				<title>工作表.1815</title>
				<path d="M0 230.34 L87.83 230.34 L87.83 234.18 L91.67 226.49 L87.83 218.8 L87.83 222.65 L0 222.65 L0 230.34 Z"
						class="st1"/>
				<path d="M0 230.34 L87.83 230.34 L87.83 234.18 L91.67 226.49 L87.83 218.8 L87.83 222.65 L0 222.65" class="st2"/>
			</g>
			<g id="shape1816-77" v:mID="1816" v:groupContext="shape">
				<title>工作表.1816</title>
				<path d="M0 230.34 L87.83 230.34 L87.83 234.18 L91.67 226.49 L87.83 218.8 L87.83 222.65 L0 222.65 L0 230.34"
						class="st3"/>
			</g>
			<g id="shape1817-80" v:mID="1817" v:groupContext="shape" transform="translate(-1.17543,-3.91106)">
				<title>工作表.1817</title>
				<rect x="0" y="226.621" width="0.517433" height="7.56163" class="st4"/>
			</g>
		</g>
		<g id="group1818-82" transform="translate(131.121,-80.1286) rotate(-12.4409)" v:mID="1818" v:groupContext="group">
			<v:userDefs>
				<v:ud v:nameU="visVersion" v:val="VT0(15):26"/>
			</v:userDefs>
			<title>一维单向箭头.1656</title>
			<g id="shape1819-83" v:mID="1819" v:groupContext="shape">
				<title>工作表.1819</title>
				<path d="M0 230.34 L40.19 230.34 L40.19 234.18 L44.04 226.49 L40.19 218.8 L40.19 222.65 L0 222.65 L0 230.34 Z"
						class="st1"/>
				<path d="M0 230.34 L40.19 230.34 L40.19 234.18 L44.04 226.49 L40.19 218.8 L40.19 222.65 L0 222.65" class="st2"/>
			</g>
			<g id="shape1820-86" v:mID="1820" v:groupContext="shape">
				<title>工作表.1820</title>
				<path d="M0 230.34 L40.19 230.34 L40.19 234.18 L44.04 226.49 L40.19 218.8 L40.19 222.65 L0 222.65 L0 230.34"
						class="st3"/>
			</g>
			<g id="shape1821-89" v:mID="1821" v:groupContext="shape" transform="translate(-0.564637,-3.91106)">
				<title>工作表.1821</title>
				<rect x="0" y="226.621" width="0.248557" height="7.56163" class="st4"/>
			</g>
		</g>
		<g id="shape1822-91" v:mID="1822" v:groupContext="shape" transform="translate(222.916,-85.2987)">
			<title>圆形.1665</title>
			<desc>6</desc>
			<v:userDefs>
				<v:ud v:nameU="visVersion" v:val="VT0(15):26"/>
			</v:userDefs>
			<v:textBlock v:margins="rect(4,4,4,4)" v:tabSpace="42.5197"/>
			<v:textRect cx="17.3268" cy="216.856" width="34.66" height="34.6535"/>
			<path d="M0 216.86 A17.3268 17.3268 0 0 1 34.65 216.86 A17.3268 17.3268 0 1 1 0 216.86 Z" class="st7"/>
			<text x="12.34" y="222.26" class="st6" v:langID="2052"><v:paragraph v:horizAlign="1"/><v:tabList/>6</text>		</g>
		<g id="shape1823-94" v:mID="1823" v:groupContext="shape" transform="translate(173.522,-0.375)">
			<title>圆形.1666</title>
			<desc>7</desc>
			<v:userDefs>
				<v:ud v:nameU="visVersion" v:val="VT0(15):26"/>
			</v:userDefs>
			<v:textBlock v:margins="rect(4,4,4,4)" v:tabSpace="42.5197"/>
			<v:textRect cx="17.3268" cy="216.856" width="34.66" height="34.6535"/>
			<path d="M0 216.86 A17.3268 17.3268 0 0 1 34.65 216.86 A17.3268 17.3268 0 1 1 0 216.86 Z" class="st7"/>
			<text x="12.34" y="222.26" class="st6" v:langID="2052"><v:paragraph v:horizAlign="1"/><v:tabList/>7</text>		</g>
		<g id="group1824-97" transform="translate(385.818,84.8129) rotate(71.6137)" v:mID="1824" v:groupContext="group">
			<v:userDefs>
				<v:ud v:nameU="visVersion" v:val="VT0(15):26"/>
			</v:userDefs>
			<title>一维单向箭头.1667</title>
			<g id="shape1825-98" v:mID="1825" v:groupContext="shape">
				<title>工作表.1825</title>
				<path d="M0 230.34 L42.28 230.34 L42.28 234.18 L46.12 226.49 L42.28 218.8 L42.28 222.65 L0 222.65 L0 230.34 Z"
						class="st1"/>
				<path d="M0 230.34 L42.28 230.34 L42.28 234.18 L46.12 226.49 L42.28 218.8 L42.28 222.65 L0 222.65" class="st2"/>
			</g>
			<g id="shape1826-101" v:mID="1826" v:groupContext="shape">
				<title>工作表.1826</title>
				<path d="M0 230.34 L42.28 230.34 L42.28 234.18 L46.12 226.49 L42.28 218.8 L42.28 222.65 L0 222.65 L0 230.34"
						class="st3"/>
			</g>
			<g id="shape1827-104" v:mID="1827" v:groupContext="shape" transform="translate(-0.591398,-3.91106)">
				<title>工作表.1827</title>
				<rect x="0" y="226.621" width="0.260338" height="7.56163" class="st4"/>
			</g>
		</g>
	</g>
</svg>
