<?xml version="1.0" encoding="UTF-8" standalone="no"?>
<!DOCTYPE svg PUBLIC "-//W3C//DTD SVG 1.1//EN" "http://www.w3.org/Graphics/SVG/1.1/DTD/svg11.dtd">
<!-- 由 Microsoft Visio, SVG Export 生成 TopologicalSort2.svg 页-1 -->
<svg xmlns="http://www.w3.org/2000/svg" xmlns:xlink="http://www.w3.org/1999/xlink" xmlns:ev="http://www.w3.org/2001/xml-events"
		xmlns:v="http://schemas.microsoft.com/visio/2003/SVGExtensions/" width="7.71642in" height="3.29191in"
		viewBox="0 0 555.582 237.018" xml:space="preserve" color-interpolation-filters="sRGB" class="st8">
	<v:documentProperties v:langID="2052" v:metric="true" v:viewMarkup="false"/>

	<style type="text/css">
	<![CDATA[
		.st1 {fill:none}
		.st2 {stroke:none;stroke-linecap:round;stroke-linejoin:round;stroke-width:0.75}
		.st3 {stroke:#000000;stroke-linecap:round;stroke-linejoin:round;stroke-width:0.24}
		.st4 {fill:none;stroke:none;stroke-linecap:round;stroke-linejoin:round;stroke-width:0.24;visibility:hidden}
		.st5 {fill:none;stroke:#000000;stroke-linecap:round;stroke-linejoin:round;stroke-width:0.75}
		.st6 {fill:#000000;font-family:Cambria Math;font-size:1.5em}
		.st7 {fill:#ffffff;stroke:#000000;stroke-linecap:round;stroke-linejoin:round;stroke-width:0.75}
		.st8 {fill:none;fill-rule:evenodd;font-size:12px;overflow:visible;stroke-linecap:square;stroke-miterlimit:3}
	]]>
	</style>

	<g v:mID="0" v:index="1" v:groupContext="foregroundPage">
		<title>页-1</title>
		<v:pageProperties v:drawingScale="0.0393701" v:pageScale="0.0393701" v:drawingUnits="24" v:shadowOffsetX="8.50394"
				v:shadowOffsetY="-8.50394"/>
		<g id="group1849-1" transform="translate(236.566,197.615) rotate(135)" v:mID="1849" v:groupContext="group">
			<v:userDefs>
				<v:ud v:nameU="visVersion" v:val="VT0(15):26"/>
			</v:userDefs>
			<title>一维单向箭头.1849</title>
			<g id="shape1850-2" v:mID="1850" v:groupContext="shape">
				<title>工作表.1850</title>
				<path d="M0 233.17 L59.52 233.17 L59.52 237.02 L63.36 229.33 L59.52 221.63 L59.52 225.48 L0 225.48 L0 233.17 Z"
						class="st1"/>
				<path d="M0 233.17 L59.52 233.17 L59.52 237.02 L63.36 229.33 L59.52 221.63 L59.52 225.48 L0 225.48" class="st2"/>
			</g>
			<g id="shape1851-5" v:mID="1851" v:groupContext="shape">
				<title>工作表.1851</title>
				<path d="M0 233.17 L59.52 233.17 L59.52 237.02 L63.36 229.33 L59.52 221.63 L59.52 225.48 L0 225.48 L0 233.17"
						class="st3"/>
			</g>
			<g id="shape1852-8" v:mID="1852" v:groupContext="shape" transform="translate(-0.812477,-3.91106)">
				<title>工作表.1852</title>
				<rect x="0" y="229.456" width="0.357659" height="7.56163" class="st4"/>
			</g>
		</g>
		<g id="shape1853-10" v:mID="1853" v:groupContext="shape" transform="translate(65.8907,-199.155)">
			<title>圆形.1853</title>
			<v:userDefs>
				<v:ud v:nameU="visVersion" v:val="VT0(15):26"/>
			</v:userDefs>
			<path d="M0 219.69 A17.3268 17.3268 0 0 1 34.65 219.69 A17.3268 17.3268 0 1 1 0 219.69 Z" class="st5"/>
		</g>
		<g id="shape1854-12" v:mID="1854" v:groupContext="shape" transform="translate(0.375,-126.836)">
			<title>圆形.1854</title>
			<desc>1</desc>
			<v:userDefs>
				<v:ud v:nameU="visVersion" v:val="VT0(15):26"/>
			</v:userDefs>
			<v:textBlock v:margins="rect(4,4,4,4)" v:tabSpace="42.5197"/>
			<v:textRect cx="17.3268" cy="219.691" width="34.66" height="34.6535"/>
			<path d="M0 219.69 A17.3268 17.3268 0 0 1 34.65 219.69 A17.3268 17.3268 0 1 1 0 219.69 Z" class="st5"/>
			<text x="12.34" y="225.09" class="st6" v:langID="2052"><v:paragraph v:horizAlign="1"/><v:tabList/>1</text>		</g>
		<g id="shape1855-15" v:mID="1855" v:groupContext="shape" transform="translate(172.969,-151.249)">
			<title>圆形.1855</title>
			<v:userDefs>
				<v:ud v:nameU="visVersion" v:val="VT0(15):26"/>
			</v:userDefs>
			<path d="M0 219.69 A17.3268 17.3268 0 0 1 34.65 219.69 A17.3268 17.3268 0 1 1 0 219.69 Z" class="st7"/>
		</g>
		<g id="shape1856-17" v:mID="1856" v:groupContext="shape" transform="translate(37.5443,-14.5482)">
			<title>圆形.1856</title>
			<desc>3</desc>
			<v:userDefs>
				<v:ud v:nameU="visVersion" v:val="VT0(15):26"/>
			</v:userDefs>
			<v:textBlock v:margins="rect(4,4,4,4)" v:tabSpace="42.5197"/>
			<v:textRect cx="17.3268" cy="219.691" width="34.66" height="34.6535"/>
			<path d="M0 219.69 A17.3268 17.3268 0 0 1 34.65 219.69 A17.3268 17.3268 0 1 1 0 219.69 Z" class="st7"/>
			<text x="12.34" y="225.09" class="st6" v:langID="2052"><v:paragraph v:horizAlign="1"/><v:tabList/>3</text>		</g>
		<g id="shape1857-20" v:mID="1857" v:groupContext="shape" transform="translate(113.442,-26.5246)">
			<title>圆形.1857</title>
			<desc>2</desc>
			<v:userDefs>
				<v:ud v:nameU="visVersion" v:val="VT0(15):26"/>
			</v:userDefs>
			<v:textBlock v:margins="rect(4,4,4,4)" v:tabSpace="42.5197"/>
			<v:textRect cx="17.3268" cy="219.691" width="34.66" height="34.6535"/>
			<path d="M0 219.69 A17.3268 17.3268 0 0 1 34.65 219.69 A17.3268 17.3268 0 1 1 0 219.69 Z" class="st7"/>
			<text x="12.34" y="225.09" class="st6" v:langID="2052"><v:paragraph v:horizAlign="1"/><v:tabList/>2</text>		</g>
		<g id="shape1858-23" v:mID="1858" v:groupContext="shape" transform="translate(145.261,-75.812)">
			<title>圆形.1858</title>
			<desc>4</desc>
			<v:userDefs>
				<v:ud v:nameU="visVersion" v:val="VT0(15):26"/>
			</v:userDefs>
			<v:textBlock v:margins="rect(4,4,4,4)" v:tabSpace="42.5197"/>
			<v:textRect cx="17.3268" cy="219.691" width="34.66" height="34.6535"/>
			<path d="M0 219.69 A17.3268 17.3268 0 0 1 34.65 219.69 A17.3268 17.3268 0 1 1 0 219.69 Z" class="st7"/>
			<text x="12.34" y="225.09" class="st6" v:langID="2052"><v:paragraph v:horizAlign="1"/><v:tabList/>4</text>		</g>
		<g id="group1859-26" transform="translate(229.948,23.3385) rotate(67.7474)" v:mID="1859" v:groupContext="group">
			<v:userDefs>
				<v:ud v:nameU="visVersion" v:val="VT0(15):26"/>
			</v:userDefs>
			<title>一维单向箭头.1859</title>
			<g id="shape1860-27" v:mID="1860" v:groupContext="shape">
				<title>工作表.1860</title>
				<path d="M0 233.17 L80.86 233.17 L80.86 237.02 L84.71 229.33 L80.86 221.63 L80.86 225.48 L0 225.48 L0 233.17 Z"
						class="st1"/>
				<path d="M0 233.17 L80.86 233.17 L80.86 237.02 L84.71 229.33 L80.86 221.63 L80.86 225.48 L0 225.48" class="st2"/>
			</g>
			<g id="shape1861-30" v:mID="1861" v:groupContext="shape">
				<title>工作表.1861</title>
				<path d="M0 233.17 L80.86 233.17 L80.86 237.02 L84.71 229.33 L80.86 221.63 L80.86 225.48 L0 225.48 L0 233.17"
						class="st3"/>
			</g>
			<g id="shape1862-33" v:mID="1862" v:groupContext="shape" transform="translate(-1.08614,-3.91106)">
				<title>工作表.1862</title>
				<rect x="0" y="229.456" width="0.478127" height="7.56163" class="st4"/>
			</g>
		</g>
		<g id="group1863-35" transform="translate(150.483,419.481) rotate(170.705)" v:mID="1863" v:groupContext="group">
			<v:userDefs>
				<v:ud v:nameU="visVersion" v:val="VT0(15):26"/>
			</v:userDefs>
			<title>一维单向箭头.1863</title>
			<g id="shape1864-36" v:mID="1864" v:groupContext="shape">
				<title>工作表.1864</title>
				<path d="M0 233.17 L38.72 233.17 L38.72 237.02 L42.57 229.33 L38.72 221.63 L38.72 225.48 L0 225.48 L0 233.17 Z"
						class="st1"/>
				<path d="M0 233.17 L38.72 233.17 L38.72 237.02 L42.57 229.33 L38.72 221.63 L38.72 225.48 L0 225.48" class="st2"/>
			</g>
			<g id="shape1865-39" v:mID="1865" v:groupContext="shape">
				<title>工作表.1865</title>
				<path d="M0 233.17 L38.72 233.17 L38.72 237.02 L42.57 229.33 L38.72 221.63 L38.72 225.48 L0 225.48 L0 233.17"
						class="st3"/>
			</g>
			<g id="shape1866-42" v:mID="1866" v:groupContext="shape" transform="translate(-0.545852,-3.91106)">
				<title>工作表.1866</title>
				<rect x="0" y="229.456" width="0.240288" height="7.56163" class="st4"/>
			</g>
		</g>
		<g id="group1867-44" transform="translate(180.224,-68.8071) rotate(40.8211)" v:mID="1867" v:groupContext="group">
			<v:userDefs>
				<v:ud v:nameU="visVersion" v:val="VT0(15):26"/>
			</v:userDefs>
			<title>一维单向箭头.1867</title>
			<g id="shape1868-45" v:mID="1868" v:groupContext="shape">
				<title>工作表.1868</title>
				<path d="M0 233.17 L112.7 233.17 L112.7 237.02 L116.55 229.33 L112.7 221.63 L112.7 225.48 L0 225.48 L0 233.17 Z"
						class="st1"/>
				<path d="M0 233.17 L112.7 233.17 L112.7 237.02 L116.55 229.33 L112.7 221.63 L112.7 225.48 L0 225.48" class="st2"/>
			</g>
			<g id="shape1869-48" v:mID="1869" v:groupContext="shape">
				<title>工作表.1869</title>
				<path d="M0 233.17 L112.7 233.17 L112.7 237.02 L116.55 229.33 L112.7 221.63 L112.7 225.48 L0 225.48 L0 233.17"
						class="st3"/>
			</g>
			<g id="shape1870-51" v:mID="1870" v:groupContext="shape" transform="translate(-1.49437,-3.91106)">
				<title>工作表.1870</title>
				<rect x="0" y="229.456" width="0.657832" height="7.56163" class="st4"/>
			</g>
		</g>
		<g id="group1871-53" transform="translate(177.292,-182.077) rotate(20.7842)" v:mID="1871" v:groupContext="group">
			<v:userDefs>
				<v:ud v:nameU="visVersion" v:val="VT0(15):26"/>
			</v:userDefs>
			<title>一维单向箭头.1871</title>
			<g id="shape1872-54" v:mID="1872" v:groupContext="shape">
				<title>工作表.1872</title>
				<path d="M0 233.17 L79.88 233.17 L79.88 237.02 L83.73 229.33 L79.88 221.63 L79.88 225.48 L0 225.48 L0 233.17 Z"
						class="st1"/>
				<path d="M0 233.17 L79.88 233.17 L79.88 237.02 L83.73 229.33 L79.88 221.63 L79.88 225.48 L0 225.48" class="st2"/>
			</g>
			<g id="shape1873-57" v:mID="1873" v:groupContext="shape">
				<title>工作表.1873</title>
				<path d="M0 233.17 L79.88 233.17 L79.88 237.02 L83.73 229.33 L79.88 221.63 L79.88 225.48 L0 225.48 L0 233.17"
						class="st3"/>
			</g>
			<g id="shape1874-60" v:mID="1874" v:groupContext="shape" transform="translate(-1.07361,-3.91106)">
				<title>工作表.1874</title>
				<rect x="0" y="229.456" width="0.47261" height="7.56163" class="st4"/>
			</g>
		</g>
		<g id="group1875-62" transform="translate(207.915,298.432) rotate(171.315)" v:mID="1875" v:groupContext="group">
			<v:userDefs>
				<v:ud v:nameU="visVersion" v:val="VT0(15):26"/>
			</v:userDefs>
			<title>一维单向箭头.1875</title>
			<g id="shape1876-63" v:mID="1876" v:groupContext="shape">
				<title>工作表.1876</title>
				<path d="M0 233.17 L136.01 233.17 L136.01 237.02 L139.86 229.33 L136.01 221.63 L136.01 225.48 L0 225.48 L0 233.17
							 Z" class="st1"/>
				<path d="M0 233.17 L136.01 233.17 L136.01 237.02 L139.86 229.33 L136.01 221.63 L136.01 225.48 L0 225.48"
						class="st2"/>
			</g>
			<g id="shape1877-66" v:mID="1877" v:groupContext="shape">
				<title>工作表.1877</title>
				<path d="M0 233.17 L136.01 233.17 L136.01 237.02 L139.86 229.33 L136.01 221.63 L136.01 225.48 L0 225.48 L0 233.17"
						class="st3"/>
			</g>
			<g id="shape1878-69" v:mID="1878" v:groupContext="shape" transform="translate(-1.79332,-3.91106)">
				<title>工作表.1878</title>
				<rect x="0" y="229.456" width="0.789436" height="7.56163" class="st4"/>
			</g>
		</g>
		<g id="group1879-71" transform="translate(-30.9907,-18.172) rotate(-24.5054)" v:mID="1879" v:groupContext="group">
			<v:userDefs>
				<v:ud v:nameU="visVersion" v:val="VT0(15):26"/>
			</v:userDefs>
			<title>一维单向箭头.1879</title>
			<g id="shape1880-72" v:mID="1880" v:groupContext="shape">
				<title>工作表.1880</title>
				<path d="M0 233.17 L87.83 233.17 L87.83 237.02 L91.67 229.33 L87.83 221.63 L87.83 225.48 L0 225.48 L0 233.17 Z"
						class="st1"/>
				<path d="M0 233.17 L87.83 233.17 L87.83 237.02 L91.67 229.33 L87.83 221.63 L87.83 225.48 L0 225.48" class="st2"/>
			</g>
			<g id="shape1881-75" v:mID="1881" v:groupContext="shape">
				<title>工作表.1881</title>
				<path d="M0 233.17 L87.83 233.17 L87.83 237.02 L91.67 229.33 L87.83 221.63 L87.83 225.48 L0 225.48 L0 233.17"
						class="st3"/>
			</g>
			<g id="shape1882-78" v:mID="1882" v:groupContext="shape" transform="translate(-1.17543,-3.91106)">
				<title>工作表.1882</title>
				<rect x="0" y="229.456" width="0.517433" height="7.56163" class="st4"/>
			</g>
		</g>
		<g id="group1883-80" transform="translate(130.51,-80.062) rotate(-12.4409)" v:mID="1883" v:groupContext="group">
			<v:userDefs>
				<v:ud v:nameU="visVersion" v:val="VT0(15):26"/>
			</v:userDefs>
			<title>一维单向箭头.1883</title>
			<g id="shape1884-81" v:mID="1884" v:groupContext="shape">
				<title>工作表.1884</title>
				<path d="M0 233.17 L40.19 233.17 L40.19 237.02 L44.04 229.33 L40.19 221.63 L40.19 225.48 L0 225.48 L0 233.17 Z"
						class="st1"/>
				<path d="M0 233.17 L40.19 233.17 L40.19 237.02 L44.04 229.33 L40.19 221.63 L40.19 225.48 L0 225.48" class="st2"/>
			</g>
			<g id="shape1885-84" v:mID="1885" v:groupContext="shape">
				<title>工作表.1885</title>
				<path d="M0 233.17 L40.19 233.17 L40.19 237.02 L44.04 229.33 L40.19 221.63 L40.19 225.48 L0 225.48 L0 233.17"
						class="st3"/>
			</g>
			<g id="shape1886-87" v:mID="1886" v:groupContext="shape" transform="translate(-0.564637,-3.91106)">
				<title>工作表.1886</title>
				<rect x="0" y="229.456" width="0.248557" height="7.56163" class="st4"/>
			</g>
		</g>
		<g id="shape1887-89" v:mID="1887" v:groupContext="shape" transform="translate(222.916,-85.2987)">
			<title>圆形.1887</title>
			<desc>5</desc>
			<v:userDefs>
				<v:ud v:nameU="visVersion" v:val="VT0(15):26"/>
			</v:userDefs>
			<v:textBlock v:margins="rect(4,4,4,4)" v:tabSpace="42.5197"/>
			<v:textRect cx="17.3268" cy="219.691" width="34.66" height="34.6535"/>
			<path d="M0 219.69 A17.3268 17.3268 0 0 1 34.65 219.69 A17.3268 17.3268 0 1 1 0 219.69 Z" class="st7"/>
			<text x="12.34" y="225.09" class="st6" v:langID="2052"><v:paragraph v:horizAlign="1"/><v:tabList/>5</text>		</g>
		<g id="shape1888-92" v:mID="1888" v:groupContext="shape" transform="translate(173.522,-0.375)">
			<title>圆形.1888</title>
			<desc>6</desc>
			<v:userDefs>
				<v:ud v:nameU="visVersion" v:val="VT0(15):26"/>
			</v:userDefs>
			<v:textBlock v:margins="rect(4,4,4,4)" v:tabSpace="42.5197"/>
			<v:textRect cx="17.3268" cy="219.691" width="34.66" height="34.6535"/>
			<path d="M0 219.69 A17.3268 17.3268 0 0 1 34.65 219.69 A17.3268 17.3268 0 1 1 0 219.69 Z" class="st7"/>
			<text x="12.34" y="225.09" class="st6" v:langID="2052"><v:paragraph v:horizAlign="1"/><v:tabList/>6</text>		</g>
		<g id="group1889-95" transform="translate(388.508,86.7534) rotate(71.6137)" v:mID="1889" v:groupContext="group">
			<v:userDefs>
				<v:ud v:nameU="visVersion" v:val="VT0(15):26"/>
			</v:userDefs>
			<title>一维单向箭头.1889</title>
			<g id="shape1890-96" v:mID="1890" v:groupContext="shape">
				<title>工作表.1890</title>
				<path d="M0 233.17 L42.28 233.17 L42.28 237.02 L46.12 229.33 L42.28 221.63 L42.28 225.48 L0 225.48 L0 233.17 Z"
						class="st1"/>
				<path d="M0 233.17 L42.28 233.17 L42.28 237.02 L46.12 229.33 L42.28 221.63 L42.28 225.48 L0 225.48" class="st2"/>
			</g>
			<g id="shape1891-99" v:mID="1891" v:groupContext="shape">
				<title>工作表.1891</title>
				<path d="M0 233.17 L42.28 233.17 L42.28 237.02 L46.12 229.33 L42.28 221.63 L42.28 225.48 L0 225.48 L0 233.17"
						class="st3"/>
			</g>
			<g id="shape1892-102" v:mID="1892" v:groupContext="shape" transform="translate(-0.591398,-3.91106)">
				<title>工作表.1892</title>
				<rect x="0" y="229.456" width="0.260338" height="7.56163" class="st4"/>
			</g>
		</g>
		<g id="group1893-104" transform="translate(534.204,194.78) rotate(135)" v:mID="1893" v:groupContext="group">
			<v:userDefs>
				<v:ud v:nameU="visVersion" v:val="VT0(15):26"/>
			</v:userDefs>
			<title>一维单向箭头.1893</title>
			<g id="shape1894-105" v:mID="1894" v:groupContext="shape">
				<title>工作表.1894</title>
				<path d="M0 233.17 L59.52 233.17 L59.52 237.02 L63.36 229.33 L59.52 221.63 L59.52 225.48 L0 225.48 L0 233.17 Z"
						class="st1"/>
				<path d="M0 233.17 L59.52 233.17 L59.52 237.02 L63.36 229.33 L59.52 221.63 L59.52 225.48 L0 225.48" class="st2"/>
			</g>
			<g id="shape1895-108" v:mID="1895" v:groupContext="shape">
				<title>工作表.1895</title>
				<path d="M0 233.17 L59.52 233.17 L59.52 237.02 L63.36 229.33 L59.52 221.63 L59.52 225.48 L0 225.48 L0 233.17"
						class="st3"/>
			</g>
			<g id="shape1896-111" v:mID="1896" v:groupContext="shape" transform="translate(-0.812477,-3.91106)">
				<title>工作表.1896</title>
				<rect x="0" y="229.456" width="0.357659" height="7.56163" class="st4"/>
			</g>
		</g>
		<g id="shape1897-113" v:mID="1897" v:groupContext="shape" transform="translate(363.529,-201.989)">
			<title>圆形.1897</title>
			<v:userDefs>
				<v:ud v:nameU="visVersion" v:val="VT0(15):26"/>
			</v:userDefs>
			<path d="M0 219.69 A17.3268 17.3268 0 0 1 34.65 219.69 A17.3268 17.3268 0 1 1 0 219.69 Z" class="st5"/>
		</g>
		<g id="shape1898-115" v:mID="1898" v:groupContext="shape" transform="translate(298.013,-129.67)">
			<title>圆形.1898</title>
			<v:userDefs>
				<v:ud v:nameU="visVersion" v:val="VT0(15):26"/>
			</v:userDefs>
			<path d="M0 219.69 A17.3268 17.3268 0 0 1 34.65 219.69 A17.3268 17.3268 0 1 1 0 219.69 Z" class="st5"/>
		</g>
		<g id="shape1899-117" v:mID="1899" v:groupContext="shape" transform="translate(470.607,-154.084)">
			<title>圆形.1899</title>
			<v:userDefs>
				<v:ud v:nameU="visVersion" v:val="VT0(15):26"/>
			</v:userDefs>
			<path d="M0 219.69 A17.3268 17.3268 0 0 1 34.65 219.69 A17.3268 17.3268 0 1 1 0 219.69 Z" class="st7"/>
		</g>
		<g id="shape1900-119" v:mID="1900" v:groupContext="shape" transform="translate(335.182,-17.3829)">
			<title>圆形.1900</title>
			<desc>2</desc>
			<v:userDefs>
				<v:ud v:nameU="visVersion" v:val="VT0(15):26"/>
			</v:userDefs>
			<v:textBlock v:margins="rect(4,4,4,4)" v:tabSpace="42.5197"/>
			<v:textRect cx="17.3268" cy="219.691" width="34.66" height="34.6535"/>
			<path d="M0 219.69 A17.3268 17.3268 0 0 1 34.65 219.69 A17.3268 17.3268 0 1 1 0 219.69 Z" class="st7"/>
			<text x="12.34" y="225.09" class="st6" v:langID="2052"><v:paragraph v:horizAlign="1"/><v:tabList/>2</text>		</g>
		<g id="shape1901-122" v:mID="1901" v:groupContext="shape" transform="translate(411.08,-29.3593)">
			<title>圆形.1901</title>
			<desc>1</desc>
			<v:userDefs>
				<v:ud v:nameU="visVersion" v:val="VT0(15):26"/>
			</v:userDefs>
			<v:textBlock v:margins="rect(4,4,4,4)" v:tabSpace="42.5197"/>
			<v:textRect cx="17.3268" cy="219.691" width="34.66" height="34.6535"/>
			<path d="M0 219.69 A17.3268 17.3268 0 0 1 34.65 219.69 A17.3268 17.3268 0 1 1 0 219.69 Z" class="st7"/>
			<text x="12.34" y="225.09" class="st6" v:langID="2052"><v:paragraph v:horizAlign="1"/><v:tabList/>1</text>		</g>
		<g id="shape1902-125" v:mID="1902" v:groupContext="shape" transform="translate(442.899,-78.6467)">
			<title>圆形.1902</title>
			<desc>3</desc>
			<v:userDefs>
				<v:ud v:nameU="visVersion" v:val="VT0(15):26"/>
			</v:userDefs>
			<v:textBlock v:margins="rect(4,4,4,4)" v:tabSpace="42.5197"/>
			<v:textRect cx="17.3268" cy="219.691" width="34.66" height="34.6535"/>
			<path d="M0 219.69 A17.3268 17.3268 0 0 1 34.65 219.69 A17.3268 17.3268 0 1 1 0 219.69 Z" class="st7"/>
			<text x="12.34" y="225.09" class="st6" v:langID="2052"><v:paragraph v:horizAlign="1"/><v:tabList/>3</text>		</g>
		<g id="group1903-128" transform="translate(527.586,20.5039) rotate(67.7474)" v:mID="1903" v:groupContext="group">
			<v:userDefs>
				<v:ud v:nameU="visVersion" v:val="VT0(15):26"/>
			</v:userDefs>
			<title>一维单向箭头.1903</title>
			<g id="shape1904-129" v:mID="1904" v:groupContext="shape">
				<title>工作表.1904</title>
				<path d="M0 233.17 L80.86 233.17 L80.86 237.02 L84.71 229.33 L80.86 221.63 L80.86 225.48 L0 225.48 L0 233.17 Z"
						class="st1"/>
				<path d="M0 233.17 L80.86 233.17 L80.86 237.02 L84.71 229.33 L80.86 221.63 L80.86 225.48 L0 225.48" class="st2"/>
			</g>
			<g id="shape1905-132" v:mID="1905" v:groupContext="shape">
				<title>工作表.1905</title>
				<path d="M0 233.17 L80.86 233.17 L80.86 237.02 L84.71 229.33 L80.86 221.63 L80.86 225.48 L0 225.48 L0 233.17"
						class="st3"/>
			</g>
			<g id="shape1906-135" v:mID="1906" v:groupContext="shape" transform="translate(-1.08614,-3.91106)">
				<title>工作表.1906</title>
				<rect x="0" y="229.456" width="0.478127" height="7.56163" class="st4"/>
			</g>
		</g>
		<g id="group1907-137" transform="translate(448.121,416.646) rotate(170.705)" v:mID="1907" v:groupContext="group">
			<v:userDefs>
				<v:ud v:nameU="visVersion" v:val="VT0(15):26"/>
			</v:userDefs>
			<title>一维单向箭头.1907</title>
			<g id="shape1908-138" v:mID="1908" v:groupContext="shape">
				<title>工作表.1908</title>
				<path d="M0 233.17 L38.72 233.17 L38.72 237.02 L42.57 229.33 L38.72 221.63 L38.72 225.48 L0 225.48 L0 233.17 Z"
						class="st1"/>
				<path d="M0 233.17 L38.72 233.17 L38.72 237.02 L42.57 229.33 L38.72 221.63 L38.72 225.48 L0 225.48" class="st2"/>
			</g>
			<g id="shape1909-141" v:mID="1909" v:groupContext="shape">
				<title>工作表.1909</title>
				<path d="M0 233.17 L38.72 233.17 L38.72 237.02 L42.57 229.33 L38.72 221.63 L38.72 225.48 L0 225.48 L0 233.17"
						class="st3"/>
			</g>
			<g id="shape1910-144" v:mID="1910" v:groupContext="shape" transform="translate(-0.545852,-3.91106)">
				<title>工作表.1910</title>
				<rect x="0" y="229.456" width="0.240288" height="7.56163" class="st4"/>
			</g>
		</g>
		<g id="group1911-146" transform="translate(477.862,-71.6417) rotate(40.8211)" v:mID="1911" v:groupContext="group">
			<v:userDefs>
				<v:ud v:nameU="visVersion" v:val="VT0(15):26"/>
			</v:userDefs>
			<title>一维单向箭头.1911</title>
			<g id="shape1912-147" v:mID="1912" v:groupContext="shape">
				<title>工作表.1912</title>
				<path d="M0 233.17 L112.7 233.17 L112.7 237.02 L116.55 229.33 L112.7 221.63 L112.7 225.48 L0 225.48 L0 233.17 Z"
						class="st1"/>
				<path d="M0 233.17 L112.7 233.17 L112.7 237.02 L116.55 229.33 L112.7 221.63 L112.7 225.48 L0 225.48" class="st2"/>
			</g>
			<g id="shape1913-150" v:mID="1913" v:groupContext="shape">
				<title>工作表.1913</title>
				<path d="M0 233.17 L112.7 233.17 L112.7 237.02 L116.55 229.33 L112.7 221.63 L112.7 225.48 L0 225.48 L0 233.17"
						class="st3"/>
			</g>
			<g id="shape1914-153" v:mID="1914" v:groupContext="shape" transform="translate(-1.49437,-3.91106)">
				<title>工作表.1914</title>
				<rect x="0" y="229.456" width="0.657832" height="7.56163" class="st4"/>
			</g>
		</g>
		<g id="group1915-155" transform="translate(474.929,-184.911) rotate(20.7842)" v:mID="1915" v:groupContext="group">
			<v:userDefs>
				<v:ud v:nameU="visVersion" v:val="VT0(15):26"/>
			</v:userDefs>
			<title>一维单向箭头.1915</title>
			<g id="shape1916-156" v:mID="1916" v:groupContext="shape">
				<title>工作表.1916</title>
				<path d="M0 233.17 L79.88 233.17 L79.88 237.02 L83.73 229.33 L79.88 221.63 L79.88 225.48 L0 225.48 L0 233.17 Z"
						class="st1"/>
				<path d="M0 233.17 L79.88 233.17 L79.88 237.02 L83.73 229.33 L79.88 221.63 L79.88 225.48 L0 225.48" class="st2"/>
			</g>
			<g id="shape1917-159" v:mID="1917" v:groupContext="shape">
				<title>工作表.1917</title>
				<path d="M0 233.17 L79.88 233.17 L79.88 237.02 L83.73 229.33 L79.88 221.63 L79.88 225.48 L0 225.48 L0 233.17"
						class="st3"/>
			</g>
			<g id="shape1918-162" v:mID="1918" v:groupContext="shape" transform="translate(-1.07361,-3.91106)">
				<title>工作表.1918</title>
				<rect x="0" y="229.456" width="0.47261" height="7.56163" class="st4"/>
			</g>
		</g>
		<g id="group1919-164" transform="translate(505.553,295.597) rotate(171.315)" v:mID="1919" v:groupContext="group">
			<v:userDefs>
				<v:ud v:nameU="visVersion" v:val="VT0(15):26"/>
			</v:userDefs>
			<title>一维单向箭头.1919</title>
			<g id="shape1920-165" v:mID="1920" v:groupContext="shape">
				<title>工作表.1920</title>
				<path d="M0 233.17 L136.01 233.17 L136.01 237.02 L139.86 229.33 L136.01 221.63 L136.01 225.48 L0 225.48 L0 233.17
							 Z" class="st1"/>
				<path d="M0 233.17 L136.01 233.17 L136.01 237.02 L139.86 229.33 L136.01 221.63 L136.01 225.48 L0 225.48"
						class="st2"/>
			</g>
			<g id="shape1921-168" v:mID="1921" v:groupContext="shape">
				<title>工作表.1921</title>
				<path d="M0 233.17 L136.01 233.17 L136.01 237.02 L139.86 229.33 L136.01 221.63 L136.01 225.48 L0 225.48 L0 233.17"
						class="st3"/>
			</g>
			<g id="shape1922-171" v:mID="1922" v:groupContext="shape" transform="translate(-1.79332,-3.91106)">
				<title>工作表.1922</title>
				<rect x="0" y="229.456" width="0.789436" height="7.56163" class="st4"/>
			</g>
		</g>
		<g id="group1923-173" transform="translate(266.647,-21.0067) rotate(-24.5054)" v:mID="1923" v:groupContext="group">
			<v:userDefs>
				<v:ud v:nameU="visVersion" v:val="VT0(15):26"/>
			</v:userDefs>
			<title>一维单向箭头.1923</title>
			<g id="shape1924-174" v:mID="1924" v:groupContext="shape">
				<title>工作表.1924</title>
				<path d="M0 233.17 L87.83 233.17 L87.83 237.02 L91.67 229.33 L87.83 221.63 L87.83 225.48 L0 225.48 L0 233.17 Z"
						class="st1"/>
				<path d="M0 233.17 L87.83 233.17 L87.83 237.02 L91.67 229.33 L87.83 221.63 L87.83 225.48 L0 225.48" class="st2"/>
			</g>
			<g id="shape1925-177" v:mID="1925" v:groupContext="shape">
				<title>工作表.1925</title>
				<path d="M0 233.17 L87.83 233.17 L87.83 237.02 L91.67 229.33 L87.83 221.63 L87.83 225.48 L0 225.48 L0 233.17"
						class="st3"/>
			</g>
			<g id="shape1926-180" v:mID="1926" v:groupContext="shape" transform="translate(-1.17543,-3.91106)">
				<title>工作表.1926</title>
				<rect x="0" y="229.456" width="0.517433" height="7.56163" class="st4"/>
			</g>
		</g>
		<g id="group1927-182" transform="translate(428.148,-82.8967) rotate(-12.4409)" v:mID="1927" v:groupContext="group">
			<v:userDefs>
				<v:ud v:nameU="visVersion" v:val="VT0(15):26"/>
			</v:userDefs>
			<title>一维单向箭头.1927</title>
			<g id="shape1928-183" v:mID="1928" v:groupContext="shape">
				<title>工作表.1928</title>
				<path d="M0 233.17 L40.19 233.17 L40.19 237.02 L44.04 229.33 L40.19 221.63 L40.19 225.48 L0 225.48 L0 233.17 Z"
						class="st1"/>
				<path d="M0 233.17 L40.19 233.17 L40.19 237.02 L44.04 229.33 L40.19 221.63 L40.19 225.48 L0 225.48" class="st2"/>
			</g>
			<g id="shape1929-186" v:mID="1929" v:groupContext="shape">
				<title>工作表.1929</title>
				<path d="M0 233.17 L40.19 233.17 L40.19 237.02 L44.04 229.33 L40.19 221.63 L40.19 225.48 L0 225.48 L0 233.17"
						class="st3"/>
			</g>
			<g id="shape1930-189" v:mID="1930" v:groupContext="shape" transform="translate(-0.564637,-3.91106)">
				<title>工作表.1930</title>
				<rect x="0" y="229.456" width="0.248557" height="7.56163" class="st4"/>
			</g>
		</g>
		<g id="shape1931-191" v:mID="1931" v:groupContext="shape" transform="translate(520.554,-88.1334)">
			<title>圆形.1931</title>
			<desc>4</desc>
			<v:userDefs>
				<v:ud v:nameU="visVersion" v:val="VT0(15):26"/>
			</v:userDefs>
			<v:textBlock v:margins="rect(4,4,4,4)" v:tabSpace="42.5197"/>
			<v:textRect cx="17.3268" cy="219.691" width="34.66" height="34.6535"/>
			<path d="M0 219.69 A17.3268 17.3268 0 0 1 34.65 219.69 A17.3268 17.3268 0 1 1 0 219.69 Z" class="st7"/>
			<text x="12.34" y="225.09" class="st6" v:langID="2052"><v:paragraph v:horizAlign="1"/><v:tabList/>4</text>		</g>
		<g id="shape1932-194" v:mID="1932" v:groupContext="shape" transform="translate(471.16,-3.20965)">
			<title>圆形.1932</title>
			<desc>5</desc>
			<v:userDefs>
				<v:ud v:nameU="visVersion" v:val="VT0(15):26"/>
			</v:userDefs>
			<v:textBlock v:margins="rect(4,4,4,4)" v:tabSpace="42.5197"/>
			<v:textRect cx="17.3268" cy="219.691" width="34.66" height="34.6535"/>
			<path d="M0 219.69 A17.3268 17.3268 0 0 1 34.65 219.69 A17.3268 17.3268 0 1 1 0 219.69 Z" class="st7"/>
			<text x="12.34" y="225.09" class="st6" v:langID="2052"><v:paragraph v:horizAlign="1"/><v:tabList/>5</text>		</g>
		<g id="group1933-197" transform="translate(686.145,83.9188) rotate(71.6137)" v:mID="1933" v:groupContext="group">
			<v:userDefs>
				<v:ud v:nameU="visVersion" v:val="VT0(15):26"/>
			</v:userDefs>
			<title>一维单向箭头.1933</title>
			<g id="shape1934-198" v:mID="1934" v:groupContext="shape">
				<title>工作表.1934</title>
				<path d="M0 233.17 L42.28 233.17 L42.28 237.02 L46.12 229.33 L42.28 221.63 L42.28 225.48 L0 225.48 L0 233.17 Z"
						class="st1"/>
				<path d="M0 233.17 L42.28 233.17 L42.28 237.02 L46.12 229.33 L42.28 221.63 L42.28 225.48 L0 225.48" class="st2"/>
			</g>
			<g id="shape1935-201" v:mID="1935" v:groupContext="shape">
				<title>工作表.1935</title>
				<path d="M0 233.17 L42.28 233.17 L42.28 237.02 L46.12 229.33 L42.28 221.63 L42.28 225.48 L0 225.48 L0 233.17"
						class="st3"/>
			</g>
			<g id="shape1936-204" v:mID="1936" v:groupContext="shape" transform="translate(-0.591398,-3.91106)">
				<title>工作表.1936</title>
				<rect x="0" y="229.456" width="0.260338" height="7.56163" class="st4"/>
			</g>
		</g>
	</g>
</svg>
