<?xml version="1.0" encoding="UTF-8" standalone="no"?>
<!DOCTYPE svg PUBLIC "-//W3C//DTD SVG 1.1//EN" "http://www.w3.org/Graphics/SVG/1.1/DTD/svg11.dtd">
<!-- 由 Microsoft Visio, SVG Export 生成 AVLTree6.svg 页-1 -->
<svg xmlns="http://www.w3.org/2000/svg" xmlns:xlink="http://www.w3.org/1999/xlink" xmlns:ev="http://www.w3.org/2001/xml-events"
		xmlns:v="http://schemas.microsoft.com/visio/2003/SVGExtensions/" width="5.81342in" height="8.19425in"
		viewBox="0 0 418.566 589.986" xml:space="preserve" color-interpolation-filters="sRGB" class="st9">
	<v:documentProperties v:langID="2052" v:metric="true" v:viewMarkup="false"/>

	<style type="text/css">
	<![CDATA[
		.st1 {fill:#ffffff;stroke:#000000;stroke-linecap:round;stroke-linejoin:round;stroke-width:0.75}
		.st2 {fill:#000000;font-family:Cambria Math;font-size:1.5em}
		.st3 {font-size:1em}
		.st4 {fill:#ffffff}
		.st5 {stroke:none;stroke-linecap:round;stroke-linejoin:round;stroke-width:0.75}
		.st6 {stroke:#000000;stroke-linecap:round;stroke-linejoin:round;stroke-width:0.24}
		.st7 {fill:#ffffff;stroke:none;stroke-linecap:round;stroke-linejoin:round;stroke-width:0.24;visibility:hidden}
		.st8 {fill:#c05046;stroke:#000000;stroke-linecap:round;stroke-linejoin:round;stroke-width:0.75}
		.st9 {fill:none;fill-rule:evenodd;font-size:12px;overflow:visible;stroke-linecap:square;stroke-miterlimit:3}
	]]>
	</style>

	<g v:mID="0" v:index="1" v:groupContext="foregroundPage">
		<title>页-1</title>
		<v:pageProperties v:drawingScale="0.0393701" v:pageScale="0.0393701" v:drawingUnits="24" v:shadowOffsetX="8.50394"
				v:shadowOffsetY="-8.50394"/>
		<g id="shape720-1" v:mID="720" v:groupContext="shape" transform="translate(186.648,-540.881)">
			<title>矩形.720</title>
			<desc>10 3</desc>
			<v:userDefs>
				<v:ud v:nameU="visVersion" v:val="VT0(15):26"/>
			</v:userDefs>
			<v:textBlock v:margins="rect(4,4,4,4)" v:tabSpace="42.5197"/>
			<v:textRect cx="17.1928" cy="565.621" width="34.39" height="48.73"/>
			<rect x="0" y="541.256" width="34.3857" height="48.73" class="st1"/>
			<text x="7.23" y="560.22" class="st2" v:langID="2052"><v:paragraph v:horizAlign="1"/><v:tabList/>10<v:newlineChar/><tspan
						x="12.21" dy="1.2em" class="st3">3</tspan></text>		</g>
		<g id="shape721-5" v:mID="721" v:groupContext="shape" transform="translate(278.207,-436.91)">
			<title>矩形.721</title>
			<desc>15 2</desc>
			<v:userDefs>
				<v:ud v:nameU="visVersion" v:val="VT0(15):26"/>
			</v:userDefs>
			<v:textBlock v:margins="rect(4,4,4,4)" v:tabSpace="42.5197"/>
			<v:textRect cx="17.1928" cy="565.621" width="34.39" height="48.73"/>
			<rect x="0" y="541.256" width="34.3857" height="48.73" class="st1"/>
			<text x="7.23" y="560.22" class="st2" v:langID="2052"><v:paragraph v:horizAlign="1"/><v:tabList/>15<v:newlineChar/><tspan
						x="12.21" dy="1.2em" class="st3">2</tspan></text>		</g>
		<g id="shape722-9" v:mID="722" v:groupContext="shape" transform="translate(88.7807,-436.91)">
			<title>矩形.722</title>
			<desc>5 2</desc>
			<v:userDefs>
				<v:ud v:nameU="visVersion" v:val="VT0(15):26"/>
			</v:userDefs>
			<v:textBlock v:margins="rect(4,4,4,4)" v:tabSpace="42.5197"/>
			<v:textRect cx="17.1928" cy="565.621" width="34.39" height="48.73"/>
			<rect x="0" y="541.256" width="34.3857" height="48.73" class="st1"/>
			<text x="12.21" y="560.22" class="st2" v:langID="2052"><v:paragraph v:horizAlign="1"/><v:tabList/>5<v:newlineChar/><tspan
						x="12.21" dy="1.2em" class="st3">2</tspan></text>		</g>
		<g id="group723-13" transform="translate(492.975,561.348) rotate(150.557)" v:mID="723" v:groupContext="group">
			<v:userDefs>
				<v:ud v:nameU="visVersion" v:val="VT0(15):26"/>
			</v:userDefs>
			<title>一维单向箭头.723</title>
			<g id="shape724-14" v:mID="724" v:groupContext="shape">
				<title>工作表.724</title>
				<path d="M0 589.1 L111.49 589.1 L111.49 589.99 L112.38 588.21 L111.49 586.44 L111.49 587.32 L0 587.32 L0 589.1 Z"
						class="st4"/>
				<path d="M0 589.1 L111.49 589.1 L111.49 589.99 L112.38 588.21 L111.49 586.44 L111.49 587.32 L0 587.32" class="st5"/>
			</g>
			<g id="shape725-17" v:mID="725" v:groupContext="shape">
				<title>工作表.725</title>
				<path d="M0 589.1 L111.49 589.1 L111.49 589.99 L112.38 588.21 L111.49 586.44 L111.49 587.32 L0 587.32 L0 589.1"
						class="st6"/>
			</g>
			<g id="shape726-20" v:mID="726" v:groupContext="shape" transform="translate(-1.44097,-0.902723)">
				<title>工作表.726</title>
				<rect x="0" y="588.241" width="0.634328" height="1.74532" class="st7"/>
			</g>
		</g>
		<g id="group727-22" transform="translate(507.706,-454.539) rotate(31.104)" v:mID="727" v:groupContext="group">
			<v:userDefs>
				<v:ud v:nameU="visVersion" v:val="VT0(15):26"/>
			</v:userDefs>
			<title>一维单向箭头.727</title>
			<g id="shape728-23" v:mID="728" v:groupContext="shape">
				<title>工作表.728</title>
				<path d="M0 589.1 L106.05 589.1 L106.05 589.99 L106.93 588.21 L106.05 586.44 L106.05 587.32 L0 587.32 L0 589.1 Z"
						class="st4"/>
				<path d="M0 589.1 L106.05 589.1 L106.05 589.99 L106.93 588.21 L106.05 586.44 L106.05 587.32 L0 587.32" class="st5"/>
			</g>
			<g id="shape729-26" v:mID="729" v:groupContext="shape">
				<title>工作表.729</title>
				<path d="M0 589.1 L106.05 589.1 L106.05 589.99 L106.93 588.21 L106.05 586.44 L106.05 587.32 L0 587.32 L0 589.1"
						class="st6"/>
			</g>
			<g id="shape730-29" v:mID="730" v:groupContext="shape" transform="translate(-1.37112,-0.902723)">
				<title>工作表.730</title>
				<rect x="0" y="588.241" width="0.603578" height="1.74532" class="st7"/>
			</g>
		</g>
		<g id="shape731-31" v:mID="731" v:groupContext="shape" transform="translate(237.514,-319.053)">
			<title>矩形.731</title>
			<desc>13 1</desc>
			<v:userDefs>
				<v:ud v:nameU="visVersion" v:val="VT0(15):26"/>
			</v:userDefs>
			<v:textBlock v:margins="rect(4,4,4,4)" v:tabSpace="42.5197"/>
			<v:textRect cx="17.1928" cy="565.621" width="34.39" height="48.73"/>
			<rect x="0" y="541.256" width="34.3857" height="48.73" class="st1"/>
			<text x="7.23" y="560.22" class="st2" v:langID="2052"><v:paragraph v:horizAlign="1"/><v:tabList/>13<v:newlineChar/><tspan
						x="12.21" dy="1.2em" class="st3">1</tspan></text>		</g>
		<g id="group732-35" transform="translate(802.303,451.473) rotate(120.484)" v:mID="732" v:groupContext="group">
			<v:userDefs>
				<v:ud v:nameU="visVersion" v:val="VT0(15):26"/>
			</v:userDefs>
			<title>一维单向箭头.732</title>
			<g id="shape733-36" v:mID="733" v:groupContext="shape">
				<title>工作表.733</title>
				<path d="M0 589.1 L79.33 589.1 L79.33 589.99 L80.22 588.21 L79.33 586.44 L79.33 587.32 L0 587.32 L0 589.1 Z"
						class="st4"/>
				<path d="M0 589.1 L79.33 589.1 L79.33 589.99 L80.22 588.21 L79.33 586.44 L79.33 587.32 L0 587.32" class="st5"/>
			</g>
			<g id="shape734-39" v:mID="734" v:groupContext="shape">
				<title>工作表.734</title>
				<path d="M0 589.1 L79.33 589.1 L79.33 589.99 L80.22 588.21 L79.33 586.44 L79.33 587.32 L0 587.32 L0 589.1"
						class="st6"/>
			</g>
			<g id="shape735-42" v:mID="735" v:groupContext="shape" transform="translate(-1.02854,-0.902723)">
				<title>工作表.735</title>
				<rect x="0" y="588.241" width="0.452772" height="1.74532" class="st7"/>
			</g>
		</g>
		<g id="shape736-44" v:mID="736" v:groupContext="shape" transform="translate(348.708,-319.053)">
			<title>矩形.736</title>
			<desc>19 1</desc>
			<v:userDefs>
				<v:ud v:nameU="visVersion" v:val="VT0(15):26"/>
			</v:userDefs>
			<v:textBlock v:margins="rect(4,4,4,4)" v:tabSpace="42.5197"/>
			<v:textRect cx="17.1928" cy="565.621" width="34.39" height="48.73"/>
			<rect x="0" y="541.256" width="34.3857" height="48.73" class="st1"/>
			<text x="7.23" y="560.22" class="st2" v:langID="2052"><v:paragraph v:horizAlign="1"/><v:tabList/>19<v:newlineChar/><tspan
						x="12.21" dy="1.2em" class="st3">1</tspan></text>		</g>
		<g id="group737-48" transform="translate(707.216,-266.923) rotate(44.4365)" v:mID="737" v:groupContext="group">
			<v:userDefs>
				<v:ud v:nameU="visVersion" v:val="VT0(15):26"/>
			</v:userDefs>
			<title>一维单向箭头.737</title>
			<g id="shape738-49" v:mID="738" v:groupContext="shape">
				<title>工作表.738</title>
				<path d="M0 589.1 L97.85 589.1 L97.85 589.99 L98.74 588.21 L97.85 586.44 L97.85 587.32 L0 587.32 L0 589.1 Z"
						class="st4"/>
				<path d="M0 589.1 L97.85 589.1 L97.85 589.99 L98.74 588.21 L97.85 586.44 L97.85 587.32 L0 587.32" class="st5"/>
			</g>
			<g id="shape739-52" v:mID="739" v:groupContext="shape">
				<title>工作表.739</title>
				<path d="M0 589.1 L97.85 589.1 L97.85 589.99 L98.74 588.21 L97.85 586.44 L97.85 587.32 L0 587.32 L0 589.1"
						class="st6"/>
			</g>
			<g id="shape740-55" v:mID="740" v:groupContext="shape" transform="translate(-1.26602,-0.902723)">
				<title>工作表.740</title>
				<rect x="0" y="588.241" width="0.557314" height="1.74532" class="st7"/>
			</g>
		</g>
		<g id="shape741-57" v:mID="741" v:groupContext="shape" transform="translate(41.0681,-319.053)">
			<title>矩形.741</title>
			<desc>2 1</desc>
			<v:userDefs>
				<v:ud v:nameU="visVersion" v:val="VT0(15):26"/>
			</v:userDefs>
			<v:textBlock v:margins="rect(4,4,4,4)" v:tabSpace="42.5197"/>
			<v:textRect cx="17.1928" cy="565.621" width="34.39" height="48.73"/>
			<rect x="0" y="541.256" width="34.3857" height="48.73" class="st1"/>
			<text x="12.21" y="560.22" class="st2" v:langID="2052"><v:paragraph v:horizAlign="1"/><v:tabList/>2<v:newlineChar/><tspan
						x="12.21" dy="1.2em" class="st3">1</tspan></text>		</g>
		<g id="shape742-61" v:mID="742" v:groupContext="shape" transform="translate(126.32,-319.053)">
			<title>矩形.742</title>
			<desc>7 1</desc>
			<v:userDefs>
				<v:ud v:nameU="visVersion" v:val="VT0(15):26"/>
			</v:userDefs>
			<v:textBlock v:margins="rect(4,4,4,4)" v:tabSpace="42.5197"/>
			<v:textRect cx="17.1928" cy="565.621" width="34.39" height="48.73"/>
			<rect x="0" y="541.256" width="34.3857" height="48.73" class="st1"/>
			<text x="12.21" y="560.22" class="st2" v:langID="2052"><v:paragraph v:horizAlign="1"/><v:tabList/>7<v:newlineChar/><tspan
						x="12.21" dy="1.2em" class="st3">1</tspan></text>		</g>
		<g id="group743-65" transform="translate(590.07,487.205) rotate(124.614)" v:mID="743" v:groupContext="group">
			<v:userDefs>
				<v:ud v:nameU="visVersion" v:val="VT0(15):26"/>
			</v:userDefs>
			<title>一维单向箭头.743</title>
			<g id="shape744-66" v:mID="744" v:groupContext="shape">
				<title>工作表.744</title>
				<path d="M0 589.1 L83.11 589.1 L83.11 589.99 L83.99 588.21 L83.11 586.44 L83.11 587.32 L0 587.32 L0 589.1 Z"
						class="st4"/>
				<path d="M0 589.1 L83.11 589.1 L83.11 589.99 L83.99 588.21 L83.11 586.44 L83.11 587.32 L0 587.32" class="st5"/>
			</g>
			<g id="shape745-69" v:mID="745" v:groupContext="shape">
				<title>工作表.745</title>
				<path d="M0 589.1 L83.11 589.1 L83.11 589.99 L83.99 588.21 L83.11 586.44 L83.11 587.32 L0 587.32 L0 589.1"
						class="st6"/>
			</g>
			<g id="shape746-72" v:mID="746" v:groupContext="shape" transform="translate(-1.077,-0.902723)">
				<title>工作表.746</title>
				<rect x="0" y="588.241" width="0.474103" height="1.74532" class="st7"/>
			</g>
		</g>
		<g id="group747-74" transform="translate(622.883,-127.63) rotate(61.496)" v:mID="747" v:groupContext="group">
			<v:userDefs>
				<v:ud v:nameU="visVersion" v:val="VT0(15):26"/>
			</v:userDefs>
			<title>一维单向箭头.747</title>
			<g id="shape748-75" v:mID="748" v:groupContext="shape">
				<title>工作表.748</title>
				<path d="M0 589.1 L77.77 589.1 L77.77 589.99 L78.66 588.21 L77.77 586.44 L77.77 587.32 L0 587.32 L0 589.1 Z"
						class="st4"/>
				<path d="M0 589.1 L77.77 589.1 L77.77 589.99 L78.66 588.21 L77.77 586.44 L77.77 587.32 L0 587.32" class="st5"/>
			</g>
			<g id="shape749-78" v:mID="749" v:groupContext="shape">
				<title>工作表.749</title>
				<path d="M0 589.1 L77.77 589.1 L77.77 589.99 L78.66 588.21 L77.77 586.44 L77.77 587.32 L0 587.32 L0 589.1"
						class="st6"/>
			</g>
			<g id="shape750-81" v:mID="750" v:groupContext="shape" transform="translate(-1.00863,-0.902723)">
				<title>工作表.750</title>
				<rect x="0" y="588.241" width="0.444006" height="1.74532" class="st7"/>
			</g>
		</g>
		<g id="shape751-83" v:mID="751" v:groupContext="shape" transform="translate(0.375,-209.131)">
			<title>矩形.751</title>
			<desc>1 0</desc>
			<v:userDefs>
				<v:ud v:nameU="visVersion" v:val="VT0(15):26"/>
			</v:userDefs>
			<v:textBlock v:margins="rect(4,4,4,4)" v:tabSpace="42.5197"/>
			<v:textRect cx="17.1928" cy="565.621" width="34.39" height="48.73"/>
			<rect x="0" y="541.256" width="34.3857" height="48.73" class="st1"/>
			<text x="12.21" y="560.22" class="st2" v:langID="2052"><v:paragraph v:horizAlign="1"/><v:tabList/>1<v:newlineChar/><tspan
						x="12.21" dy="1.2em" class="st3">0</tspan></text>		</g>
		<g id="shape752-87" v:mID="752" v:groupContext="shape" transform="translate(49.6645,-209.131)">
			<title>矩形.752</title>
			<desc>3 0</desc>
			<v:userDefs>
				<v:ud v:nameU="visVersion" v:val="VT0(15):26"/>
			</v:userDefs>
			<v:textBlock v:margins="rect(4,4,4,4)" v:tabSpace="42.5197"/>
			<v:textRect cx="17.1928" cy="565.621" width="34.39" height="48.73"/>
			<rect x="0" y="541.256" width="34.3857" height="48.73" class="st1"/>
			<text x="12.21" y="560.22" class="st2" v:langID="2052"><v:paragraph v:horizAlign="1"/><v:tabList/>3<v:newlineChar/><tspan
						x="12.21" dy="1.2em" class="st3">0</tspan></text>		</g>
		<g id="group753-91" transform="translate(548.057,596.65) rotate(123.624)" v:mID="753" v:groupContext="group">
			<v:userDefs>
				<v:ud v:nameU="visVersion" v:val="VT0(15):26"/>
			</v:userDefs>
			<title>一维单向箭头.753</title>
			<g id="shape754-92" v:mID="754" v:groupContext="shape">
				<title>工作表.754</title>
				<path d="M0 589.1 L72.6 589.1 L72.6 589.99 L73.49 588.21 L72.6 586.44 L72.6 587.32 L0 587.32 L0 589.1 Z"
						class="st4"/>
				<path d="M0 589.1 L72.6 589.1 L72.6 589.99 L73.49 588.21 L72.6 586.44 L72.6 587.32 L0 587.32" class="st5"/>
			</g>
			<g id="shape755-95" v:mID="755" v:groupContext="shape">
				<title>工作表.755</title>
				<path d="M0 589.1 L72.6 589.1 L72.6 589.99 L73.49 588.21 L72.6 586.44 L72.6 587.32 L0 587.32 L0 589.1" class="st6"/>
			</g>
			<g id="shape756-98" v:mID="756" v:groupContext="shape" transform="translate(-0.942273,-0.902723)">
				<title>工作表.756</title>
				<rect x="0" y="588.241" width="0.414796" height="1.74532" class="st7"/>
			</g>
		</g>
		<g id="group757-100" transform="translate(640.752,189.104) rotate(82.0033)" v:mID="757" v:groupContext="group">
			<v:userDefs>
				<v:ud v:nameU="visVersion" v:val="VT0(15):26"/>
			</v:userDefs>
			<title>一维单向箭头.757</title>
			<g id="shape758-101" v:mID="758" v:groupContext="shape">
				<title>工作表.758</title>
				<path d="M0 589.1 L60.91 589.1 L60.91 589.99 L61.79 588.21 L60.91 586.44 L60.91 587.32 L0 587.32 L0 589.1 Z"
						class="st4"/>
				<path d="M0 589.1 L60.91 589.1 L60.91 589.99 L61.79 588.21 L60.91 586.44 L60.91 587.32 L0 587.32" class="st5"/>
			</g>
			<g id="shape759-104" v:mID="759" v:groupContext="shape">
				<title>工作表.759</title>
				<path d="M0 589.1 L60.91 589.1 L60.91 589.99 L61.79 588.21 L60.91 586.44 L60.91 587.32 L0 587.32 L0 589.1"
						class="st6"/>
			</g>
			<g id="shape760-107" v:mID="760" v:groupContext="shape" transform="translate(-0.792325,-0.902723)">
				<title>工作表.760</title>
				<rect x="0" y="588.241" width="0.348788" height="1.74532" class="st7"/>
			</g>
		</g>
		<g id="shape761-109" v:mID="761" v:groupContext="shape" transform="translate(98.954,-209.131)">
			<title>矩形.761</title>
			<desc>6 0</desc>
			<v:userDefs>
				<v:ud v:nameU="visVersion" v:val="VT0(15):26"/>
			</v:userDefs>
			<v:textBlock v:margins="rect(4,4,4,4)" v:tabSpace="42.5197"/>
			<v:textRect cx="17.1928" cy="565.621" width="34.39" height="48.73"/>
			<rect x="0" y="541.256" width="34.3857" height="48.73" class="st1"/>
			<text x="12.21" y="560.22" class="st2" v:langID="2052"><v:paragraph v:horizAlign="1"/><v:tabList/>6<v:newlineChar/><tspan
						x="12.21" dy="1.2em" class="st3">0</tspan></text>		</g>
		<g id="shape762-113" v:mID="762" v:groupContext="shape" transform="translate(142.801,-209.131)">
			<title>矩形.762</title>
			<desc>8 0</desc>
			<v:userDefs>
				<v:ud v:nameU="visVersion" v:val="VT0(15):26"/>
			</v:userDefs>
			<v:textBlock v:margins="rect(4,4,4,4)" v:tabSpace="42.5197"/>
			<v:textRect cx="17.1928" cy="565.621" width="34.39" height="48.73"/>
			<rect x="0" y="541.256" width="34.3857" height="48.73" class="st1"/>
			<text x="12.21" y="560.22" class="st2" v:langID="2052"><v:paragraph v:horizAlign="1"/><v:tabList/>8<v:newlineChar/><tspan
						x="12.21" dy="1.2em" class="st3">0</tspan></text>		</g>
		<g id="group763-117" transform="translate(680.473,511.07) rotate(114.095)" v:mID="763" v:groupContext="group">
			<v:userDefs>
				<v:ud v:nameU="visVersion" v:val="VT0(15):26"/>
			</v:userDefs>
			<title>一维单向箭头.763</title>
			<g id="shape764-118" v:mID="764" v:groupContext="shape">
				<title>工作表.764</title>
				<path d="M0 589.1 L66.15 589.1 L66.15 589.99 L67.03 588.21 L66.15 586.44 L66.15 587.32 L0 587.32 L0 589.1 Z"
						class="st4"/>
				<path d="M0 589.1 L66.15 589.1 L66.15 589.99 L67.03 588.21 L66.15 586.44 L66.15 587.32 L0 587.32" class="st5"/>
			</g>
			<g id="shape765-121" v:mID="765" v:groupContext="shape">
				<title>工作表.765</title>
				<path d="M0 589.1 L66.15 589.1 L66.15 589.99 L67.03 588.21 L66.15 586.44 L66.15 587.32 L0 587.32 L0 589.1"
						class="st6"/>
			</g>
			<g id="shape766-124" v:mID="766" v:groupContext="shape" transform="translate(-0.859509,-0.902723)">
				<title>工作表.766</title>
				<rect x="0" y="588.241" width="0.378363" height="1.74532" class="st7"/>
			</g>
		</g>
		<g id="group767-126" transform="translate(711.485,117.963) rotate(74.9264)" v:mID="767" v:groupContext="group">
			<v:userDefs>
				<v:ud v:nameU="visVersion" v:val="VT0(15):26"/>
			</v:userDefs>
			<title>一维单向箭头.767</title>
			<g id="shape768-127" v:mID="768" v:groupContext="shape">
				<title>工作表.768</title>
				<path d="M0 589.1 L62.49 589.1 L62.49 589.99 L63.37 588.21 L62.49 586.44 L62.49 587.32 L0 587.32 L0 589.1 Z"
						class="st4"/>
				<path d="M0 589.1 L62.49 589.1 L62.49 589.99 L63.37 588.21 L62.49 586.44 L62.49 587.32 L0 587.32" class="st5"/>
			</g>
			<g id="shape769-130" v:mID="769" v:groupContext="shape">
				<title>工作表.769</title>
				<path d="M0 589.1 L62.49 589.1 L62.49 589.99 L63.37 588.21 L62.49 586.44 L62.49 587.32 L0 587.32 L0 589.1"
						class="st6"/>
			</g>
			<g id="shape770-133" v:mID="770" v:groupContext="shape" transform="translate(-0.812579,-0.902723)">
				<title>工作表.770</title>
				<rect x="0" y="588.241" width="0.357704" height="1.74532" class="st7"/>
			</g>
		</g>
		<g id="shape771-135" v:mID="771" v:groupContext="shape" transform="translate(268.034,-209.131)">
			<title>矩形.771</title>
			<desc>14 0</desc>
			<v:userDefs>
				<v:ud v:nameU="visVersion" v:val="VT0(15):26"/>
			</v:userDefs>
			<v:textBlock v:margins="rect(4,4,4,4)" v:tabSpace="42.5197"/>
			<v:textRect cx="17.1928" cy="565.621" width="34.39" height="48.73"/>
			<rect x="0" y="541.256" width="34.3857" height="48.73" class="st1"/>
			<text x="7.23" y="560.22" class="st2" v:langID="2052"><v:paragraph v:horizAlign="1"/><v:tabList/>14<v:newlineChar/><tspan
						x="12.21" dy="1.2em" class="st3">0</tspan></text>		</g>
		<g id="shape772-139" v:mID="772" v:groupContext="shape" transform="translate(325.92,-209.131)">
			<title>矩形.772</title>
			<desc>16 0</desc>
			<v:userDefs>
				<v:ud v:nameU="visVersion" v:val="VT0(15):26"/>
			</v:userDefs>
			<v:textBlock v:margins="rect(4,4,4,4)" v:tabSpace="42.5197"/>
			<v:textRect cx="17.1928" cy="565.621" width="34.39" height="48.73"/>
			<rect x="0" y="541.256" width="34.3857" height="48.73" class="st1"/>
			<text x="7.23" y="560.22" class="st2" v:langID="2052"><v:paragraph v:horizAlign="1"/><v:tabList/>16<v:newlineChar/><tspan
						x="12.21" dy="1.2em" class="st3">0</tspan></text>		</g>
		<g id="shape773-143" v:mID="773" v:groupContext="shape" transform="translate(383.806,-209.131)">
			<title>矩形.773</title>
			<desc>20 0</desc>
			<v:userDefs>
				<v:ud v:nameU="visVersion" v:val="VT0(15):26"/>
			</v:userDefs>
			<v:textBlock v:margins="rect(4,4,4,4)" v:tabSpace="42.5197"/>
			<v:textRect cx="17.1928" cy="565.621" width="34.39" height="48.73"/>
			<rect x="0" y="541.256" width="34.3857" height="48.73" class="st1"/>
			<text x="7.23" y="560.22" class="st2" v:langID="2052"><v:paragraph v:horizAlign="1"/><v:tabList/>20<v:newlineChar/><tspan
						x="12.21" dy="1.2em" class="st3">0</tspan></text>		</g>
		<g id="group774-147" transform="translate(781.08,8.40261) rotate(63.4921)" v:mID="774" v:groupContext="group">
			<v:userDefs>
				<v:ud v:nameU="visVersion" v:val="VT0(15):26"/>
			</v:userDefs>
			<title>一维单向箭头.774</title>
			<g id="shape775-148" v:mID="775" v:groupContext="shape">
				<title>工作表.775</title>
				<path d="M0 589.1 L67.49 589.1 L67.49 589.99 L68.38 588.21 L67.49 586.44 L67.49 587.32 L0 587.32 L0 589.1 Z"
						class="st4"/>
				<path d="M0 589.1 L67.49 589.1 L67.49 589.99 L68.38 588.21 L67.49 586.44 L67.49 587.32 L0 587.32" class="st5"/>
			</g>
			<g id="shape776-151" v:mID="776" v:groupContext="shape">
				<title>工作表.776</title>
				<path d="M0 589.1 L67.49 589.1 L67.49 589.99 L68.38 588.21 L67.49 586.44 L67.49 587.32 L0 587.32 L0 589.1"
						class="st6"/>
			</g>
			<g id="shape777-154" v:mID="777" v:groupContext="shape" transform="translate(-0.876795,-0.902723)">
				<title>工作表.777</title>
				<rect x="0" y="588.241" width="0.385972" height="1.74532" class="st7"/>
			</g>
		</g>
		<g id="group778-156" transform="translate(917.129,476.212) rotate(110.425)" v:mID="778" v:groupContext="group">
			<v:userDefs>
				<v:ud v:nameU="visVersion" v:val="VT0(15):26"/>
			</v:userDefs>
			<title>一维单向箭头.778</title>
			<g id="shape779-157" v:mID="779" v:groupContext="shape">
				<title>工作表.779</title>
				<path d="M0 589.1 L64.41 589.1 L64.41 589.99 L65.3 588.21 L64.41 586.44 L64.41 587.32 L0 587.32 L0 589.1 Z"
						class="st4"/>
				<path d="M0 589.1 L64.41 589.1 L64.41 589.99 L65.3 588.21 L64.41 586.44 L64.41 587.32 L0 587.32" class="st5"/>
			</g>
			<g id="shape780-160" v:mID="780" v:groupContext="shape">
				<title>工作表.780</title>
				<path d="M0 589.1 L64.41 589.1 L64.41 589.99 L65.3 588.21 L64.41 586.44 L64.41 587.32 L0 587.32 L0 589.1"
						class="st6"/>
			</g>
			<g id="shape781-163" v:mID="781" v:groupContext="shape" transform="translate(-0.837261,-0.902723)">
				<title>工作表.781</title>
				<rect x="0" y="588.241" width="0.368569" height="1.74532" class="st7"/>
			</g>
		</g>
		<g id="group782-165" transform="translate(876.14,-21.7228) rotate(60.1629)" v:mID="782" v:groupContext="group">
			<v:userDefs>
				<v:ud v:nameU="visVersion" v:val="VT0(15):26"/>
			</v:userDefs>
			<title>一维单向箭头.782</title>
			<g id="shape783-166" v:mID="783" v:groupContext="shape">
				<title>工作表.783</title>
				<path d="M0 589.1 L69.66 589.1 L69.66 589.99 L70.54 588.21 L69.66 586.44 L69.66 587.32 L0 587.32 L0 589.1 Z"
						class="st4"/>
				<path d="M0 589.1 L69.66 589.1 L69.66 589.99 L70.54 588.21 L69.66 586.44 L69.66 587.32 L0 587.32" class="st5"/>
			</g>
			<g id="shape784-169" v:mID="784" v:groupContext="shape">
				<title>工作表.784</title>
				<path d="M0 589.1 L69.66 589.1 L69.66 589.99 L70.54 588.21 L69.66 586.44 L69.66 587.32 L0 587.32 L0 589.1"
						class="st6"/>
			</g>
			<g id="shape785-172" v:mID="785" v:groupContext="shape" transform="translate(-0.904521,-0.902723)">
				<title>工作表.785</title>
				<rect x="0" y="588.241" width="0.398177" height="1.74532" class="st7"/>
			</g>
		</g>
		<g id="shape791-174" v:mID="791" v:groupContext="shape" transform="translate(346.266,-104.753)">
			<title>矩形.786</title>
			<desc>17 0</desc>
			<v:userDefs>
				<v:ud v:nameU="visVersion" v:val="VT0(15):26"/>
			</v:userDefs>
			<v:textBlock v:margins="rect(4,4,4,4)" v:tabSpace="42.5197"/>
			<v:textRect cx="17.1928" cy="565.621" width="34.39" height="48.73"/>
			<rect x="0" y="541.256" width="34.3857" height="48.73" class="st1"/>
			<text x="7.23" y="560.22" class="st2" v:langID="2052"><v:paragraph v:horizAlign="1"/><v:tabList/>17<v:newlineChar/><tspan
						x="12.21" dy="1.2em" class="st3">0</tspan></text>		</g>
		<g id="group792-178" transform="translate(895.554,178.866) rotate(69.916)" v:mID="792" v:groupContext="group">
			<v:userDefs>
				<v:ud v:nameU="visVersion" v:val="VT0(15):26"/>
			</v:userDefs>
			<title>一维单向箭头.787</title>
			<g id="shape793-179" v:mID="793" v:groupContext="shape">
				<title>工作表.793</title>
				<path d="M0 589.1 L58.36 589.1 L58.36 589.99 L59.25 588.21 L58.36 586.44 L58.36 587.32 L0 587.32 L0 589.1 Z"
						class="st4"/>
				<path d="M0 589.1 L58.36 589.1 L58.36 589.99 L59.25 588.21 L58.36 586.44 L58.36 587.32 L0 587.32" class="st5"/>
			</g>
			<g id="shape794-182" v:mID="794" v:groupContext="shape">
				<title>工作表.794</title>
				<path d="M0 589.1 L58.36 589.1 L58.36 589.99 L59.25 588.21 L58.36 586.44 L58.36 587.32 L0 587.32 L0 589.1"
						class="st6"/>
			</g>
			<g id="shape795-185" v:mID="795" v:groupContext="shape" transform="translate(-0.759727,-0.902723)">
				<title>工作表.795</title>
				<rect x="0" y="588.241" width="0.334438" height="1.74532" class="st7"/>
			</g>
		</g>
		<g id="shape943-187" v:mID="943" v:groupContext="shape" transform="translate(366.613,-0.375)">
			<title>矩形.943</title>
			<desc>18 0</desc>
			<v:userDefs>
				<v:ud v:nameU="visVersion" v:val="VT0(15):26"/>
			</v:userDefs>
			<v:textBlock v:margins="rect(4,4,4,4)" v:tabSpace="42.5197"/>
			<v:textRect cx="17.1928" cy="565.621" width="34.39" height="48.73"/>
			<rect x="0" y="541.256" width="34.3857" height="48.73" class="st8"/>
			<text x="7.23" y="560.22" class="st2" v:langID="2052"><v:paragraph v:horizAlign="1"/><v:tabList/>18<v:newlineChar/><tspan
						x="12.21" dy="1.2em" class="st3">0</tspan></text>		</g>
		<g id="group944-191" transform="translate(915.901,283.243) rotate(69.916)" v:mID="944" v:groupContext="group">
			<v:userDefs>
				<v:ud v:nameU="visVersion" v:val="VT0(15):26"/>
			</v:userDefs>
			<title>一维单向箭头.944</title>
			<g id="shape945-192" v:mID="945" v:groupContext="shape">
				<title>工作表.945</title>
				<path d="M0 589.1 L58.36 589.1 L58.36 589.99 L59.25 588.21 L58.36 586.44 L58.36 587.32 L0 587.32 L0 589.1 Z"
						class="st4"/>
				<path d="M0 589.1 L58.36 589.1 L58.36 589.99 L59.25 588.21 L58.36 586.44 L58.36 587.32 L0 587.32" class="st5"/>
			</g>
			<g id="shape946-195" v:mID="946" v:groupContext="shape">
				<title>工作表.946</title>
				<path d="M0 589.1 L58.36 589.1 L58.36 589.99 L59.25 588.21 L58.36 586.44 L58.36 587.32 L0 587.32 L0 589.1"
						class="st6"/>
			</g>
			<g id="shape947-198" v:mID="947" v:groupContext="shape" transform="translate(-0.759727,-0.902723)">
				<title>工作表.947</title>
				<rect x="0" y="588.241" width="0.334438" height="1.74532" class="st7"/>
			</g>
		</g>
	</g>
</svg>
