<?xml version="1.0" encoding="UTF-8" standalone="no"?>
<!DOCTYPE svg PUBLIC "-//W3C//DTD SVG 1.1//EN" "http://www.w3.org/Graphics/SVG/1.1/DTD/svg11.dtd">
<!-- 由 Microsoft Visio, SVG Export 生成 AVLTree11.svg 页-1 -->
<svg xmlns="http://www.w3.org/2000/svg" xmlns:xlink="http://www.w3.org/1999/xlink" xmlns:ev="http://www.w3.org/2001/xml-events"
		xmlns:v="http://schemas.microsoft.com/visio/2003/SVGExtensions/" width="5.81342in" height="6.74456in"
		viewBox="0 0 418.566 485.608" xml:space="preserve" color-interpolation-filters="sRGB" class="st9">
	<v:documentProperties v:langID="2052" v:metric="true" v:viewMarkup="false"/>

	<style type="text/css">
	<![CDATA[
		.st1 {fill:#ffffff;stroke:#000000;stroke-linecap:round;stroke-linejoin:round;stroke-width:0.75}
		.st2 {fill:#000000;font-family:Cambria Math;font-size:1.5em}
		.st3 {font-size:1em}
		.st4 {fill:#c05046;stroke:#000000;stroke-linecap:round;stroke-linejoin:round;stroke-width:0.75}
		.st5 {fill:#ffffff}
		.st6 {stroke:none;stroke-linecap:round;stroke-linejoin:round;stroke-width:0.75}
		.st7 {stroke:#000000;stroke-linecap:round;stroke-linejoin:round;stroke-width:0.24}
		.st8 {fill:#ffffff;stroke:none;stroke-linecap:round;stroke-linejoin:round;stroke-width:0.24;visibility:hidden}
		.st9 {fill:none;fill-rule:evenodd;font-size:12px;overflow:visible;stroke-linecap:square;stroke-miterlimit:3}
	]]>
	</style>

	<g v:mID="0" v:index="1" v:groupContext="foregroundPage">
		<title>页-1</title>
		<v:pageProperties v:drawingScale="0.0393701" v:pageScale="0.0393701" v:drawingUnits="24" v:shadowOffsetX="8.50394"
				v:shadowOffsetY="-8.50394"/>
		<g id="shape1176-1" v:mID="1176" v:groupContext="shape" transform="translate(186.648,-436.503)">
			<title>矩形.1176</title>
			<desc>10 3</desc>
			<v:userDefs>
				<v:ud v:nameU="visVersion" v:val="VT0(15):26"/>
			</v:userDefs>
			<v:textBlock v:margins="rect(4,4,4,4)" v:tabSpace="42.5197"/>
			<v:textRect cx="17.1928" cy="461.243" width="34.39" height="48.73"/>
			<rect x="0" y="436.878" width="34.3857" height="48.73" class="st1"/>
			<text x="7.23" y="455.84" class="st2" v:langID="2052"><v:paragraph v:horizAlign="1"/><v:tabList/>10<v:newlineChar/><tspan
						x="12.21" dy="1.2em" class="st3">3</tspan></text>		</g>
		<g id="shape1177-5" v:mID="1177" v:groupContext="shape" transform="translate(278.207,-332.532)">
			<title>矩形.1177</title>
			<desc>15 3</desc>
			<v:userDefs>
				<v:ud v:nameU="visVersion" v:val="VT0(15):26"/>
			</v:userDefs>
			<v:textBlock v:margins="rect(4,4,4,4)" v:tabSpace="42.5197"/>
			<v:textRect cx="17.1928" cy="461.243" width="34.39" height="48.73"/>
			<rect x="0" y="436.878" width="34.3857" height="48.73" class="st4"/>
			<text x="7.23" y="455.84" class="st2" v:langID="2052"><v:paragraph v:horizAlign="1"/><v:tabList/>15<v:newlineChar/><tspan
						x="12.21" dy="1.2em" class="st3">3</tspan></text>		</g>
		<g id="shape1178-9" v:mID="1178" v:groupContext="shape" transform="translate(88.7807,-332.532)">
			<title>矩形.1178</title>
			<desc>5 2</desc>
			<v:userDefs>
				<v:ud v:nameU="visVersion" v:val="VT0(15):26"/>
			</v:userDefs>
			<v:textBlock v:margins="rect(4,4,4,4)" v:tabSpace="42.5197"/>
			<v:textRect cx="17.1928" cy="461.243" width="34.39" height="48.73"/>
			<rect x="0" y="436.878" width="34.3857" height="48.73" class="st1"/>
			<text x="12.21" y="455.84" class="st2" v:langID="2052"><v:paragraph v:horizAlign="1"/><v:tabList/>5<v:newlineChar/><tspan
						x="12.21" dy="1.2em" class="st3">2</tspan></text>		</g>
		<g id="group1179-13" transform="translate(441.668,470.45) rotate(150.557)" v:mID="1179" v:groupContext="group">
			<v:userDefs>
				<v:ud v:nameU="visVersion" v:val="VT0(15):26"/>
			</v:userDefs>
			<title>一维单向箭头.1179</title>
			<g id="shape1180-14" v:mID="1180" v:groupContext="shape">
				<title>工作表.1180</title>
				<path d="M0 484.72 L111.49 484.72 L111.49 485.61 L112.38 483.83 L111.49 482.06 L111.49 482.95 L0 482.95 L0 484.72
							 Z" class="st5"/>
				<path d="M0 484.72 L111.49 484.72 L111.49 485.61 L112.38 483.83 L111.49 482.06 L111.49 482.95 L0 482.95"
						class="st6"/>
			</g>
			<g id="shape1181-17" v:mID="1181" v:groupContext="shape">
				<title>工作表.1181</title>
				<path d="M0 484.72 L111.49 484.72 L111.49 485.61 L112.38 483.83 L111.49 482.06 L111.49 482.95 L0 482.95 L0 484.72"
						class="st7"/>
			</g>
			<g id="shape1182-20" v:mID="1182" v:groupContext="shape" transform="translate(-1.44097,-0.902723)">
				<title>工作表.1182</title>
				<rect x="0" y="483.863" width="0.634328" height="1.74532" class="st8"/>
			</g>
		</g>
		<g id="group1183-22" transform="translate(453.785,-365.168) rotate(31.104)" v:mID="1183" v:groupContext="group">
			<v:userDefs>
				<v:ud v:nameU="visVersion" v:val="VT0(15):26"/>
			</v:userDefs>
			<title>一维单向箭头.1183</title>
			<g id="shape1184-23" v:mID="1184" v:groupContext="shape">
				<title>工作表.1184</title>
				<path d="M0 484.72 L106.05 484.72 L106.05 485.61 L106.93 483.83 L106.05 482.06 L106.05 482.95 L0 482.95 L0 484.72
							 Z" class="st5"/>
				<path d="M0 484.72 L106.05 484.72 L106.05 485.61 L106.93 483.83 L106.05 482.06 L106.05 482.95 L0 482.95"
						class="st6"/>
			</g>
			<g id="shape1185-26" v:mID="1185" v:groupContext="shape">
				<title>工作表.1185</title>
				<path d="M0 484.72 L106.05 484.72 L106.05 485.61 L106.93 483.83 L106.05 482.06 L106.05 482.95 L0 482.95 L0 484.72"
						class="st7"/>
			</g>
			<g id="shape1186-29" v:mID="1186" v:groupContext="shape" transform="translate(-1.37112,-0.902723)">
				<title>工作表.1186</title>
				<rect x="0" y="483.863" width="0.603578" height="1.74532" class="st8"/>
			</g>
		</g>
		<g id="shape1187-31" v:mID="1187" v:groupContext="shape" transform="translate(237.514,-214.675)">
			<title>矩形.1187</title>
			<desc>13 1</desc>
			<v:userDefs>
				<v:ud v:nameU="visVersion" v:val="VT0(15):26"/>
			</v:userDefs>
			<v:textBlock v:margins="rect(4,4,4,4)" v:tabSpace="42.5197"/>
			<v:textRect cx="17.1928" cy="461.243" width="34.39" height="48.73"/>
			<rect x="0" y="436.878" width="34.3857" height="48.73" class="st1"/>
			<text x="7.23" y="455.84" class="st2" v:langID="2052"><v:paragraph v:horizAlign="1"/><v:tabList/>13<v:newlineChar/><tspan
						x="12.21" dy="1.2em" class="st3">1</tspan></text>		</g>
		<g id="group1188-35" transform="translate(712.353,398.523) rotate(120.484)" v:mID="1188" v:groupContext="group">
			<v:userDefs>
				<v:ud v:nameU="visVersion" v:val="VT0(15):26"/>
			</v:userDefs>
			<title>一维单向箭头.1188</title>
			<g id="shape1189-36" v:mID="1189" v:groupContext="shape">
				<title>工作表.1189</title>
				<path d="M0 484.72 L79.33 484.72 L79.33 485.61 L80.22 483.83 L79.33 482.06 L79.33 482.95 L0 482.95 L0 484.72 Z"
						class="st5"/>
				<path d="M0 484.72 L79.33 484.72 L79.33 485.61 L80.22 483.83 L79.33 482.06 L79.33 482.95 L0 482.95" class="st6"/>
			</g>
			<g id="shape1190-39" v:mID="1190" v:groupContext="shape">
				<title>工作表.1190</title>
				<path d="M0 484.72 L79.33 484.72 L79.33 485.61 L80.22 483.83 L79.33 482.06 L79.33 482.95 L0 482.95 L0 484.72"
						class="st7"/>
			</g>
			<g id="shape1191-42" v:mID="1191" v:groupContext="shape" transform="translate(-1.02854,-0.902723)">
				<title>工作表.1191</title>
				<rect x="0" y="483.863" width="0.452772" height="1.74532" class="st8"/>
			</g>
		</g>
		<g id="shape1192-44" v:mID="1192" v:groupContext="shape" transform="translate(348.708,-214.675)">
			<title>矩形.1192</title>
			<desc>19 2</desc>
			<v:userDefs>
				<v:ud v:nameU="visVersion" v:val="VT0(15):26"/>
			</v:userDefs>
			<v:textBlock v:margins="rect(4,4,4,4)" v:tabSpace="42.5197"/>
			<v:textRect cx="17.1928" cy="461.243" width="34.39" height="48.73"/>
			<rect x="0" y="436.878" width="34.3857" height="48.73" class="st4"/>
			<text x="7.23" y="455.84" class="st2" v:langID="2052"><v:paragraph v:horizAlign="1"/><v:tabList/>19<v:newlineChar/><tspan
						x="12.21" dy="1.2em" class="st3">2</tspan></text>		</g>
		<g id="group1193-48" transform="translate(634.14,-192.394) rotate(44.4365)" v:mID="1193" v:groupContext="group">
			<v:userDefs>
				<v:ud v:nameU="visVersion" v:val="VT0(15):26"/>
			</v:userDefs>
			<title>一维单向箭头.1193</title>
			<g id="shape1194-49" v:mID="1194" v:groupContext="shape">
				<title>工作表.1194</title>
				<path d="M0 484.72 L97.85 484.72 L97.85 485.61 L98.74 483.83 L97.85 482.06 L97.85 482.95 L0 482.95 L0 484.72 Z"
						class="st5"/>
				<path d="M0 484.72 L97.85 484.72 L97.85 485.61 L98.74 483.83 L97.85 482.06 L97.85 482.95 L0 482.95" class="st6"/>
			</g>
			<g id="shape1195-52" v:mID="1195" v:groupContext="shape">
				<title>工作表.1195</title>
				<path d="M0 484.72 L97.85 484.72 L97.85 485.61 L98.74 483.83 L97.85 482.06 L97.85 482.95 L0 482.95 L0 484.72"
						class="st7"/>
			</g>
			<g id="shape1196-55" v:mID="1196" v:groupContext="shape" transform="translate(-1.26602,-0.902723)">
				<title>工作表.1196</title>
				<rect x="0" y="483.863" width="0.557314" height="1.74532" class="st8"/>
			</g>
		</g>
		<g id="shape1197-57" v:mID="1197" v:groupContext="shape" transform="translate(41.0681,-214.675)">
			<title>矩形.1197</title>
			<desc>2 1</desc>
			<v:userDefs>
				<v:ud v:nameU="visVersion" v:val="VT0(15):26"/>
			</v:userDefs>
			<v:textBlock v:margins="rect(4,4,4,4)" v:tabSpace="42.5197"/>
			<v:textRect cx="17.1928" cy="461.243" width="34.39" height="48.73"/>
			<rect x="0" y="436.878" width="34.3857" height="48.73" class="st1"/>
			<text x="12.21" y="455.84" class="st2" v:langID="2052"><v:paragraph v:horizAlign="1"/><v:tabList/>2<v:newlineChar/><tspan
						x="12.21" dy="1.2em" class="st3">1</tspan></text>		</g>
		<g id="shape1198-61" v:mID="1198" v:groupContext="shape" transform="translate(126.32,-214.675)">
			<title>矩形.1198</title>
			<desc>7 1</desc>
			<v:userDefs>
				<v:ud v:nameU="visVersion" v:val="VT0(15):26"/>
			</v:userDefs>
			<v:textBlock v:margins="rect(4,4,4,4)" v:tabSpace="42.5197"/>
			<v:textRect cx="17.1928" cy="461.243" width="34.39" height="48.73"/>
			<rect x="0" y="436.878" width="34.3857" height="48.73" class="st1"/>
			<text x="12.21" y="455.84" class="st2" v:langID="2052"><v:paragraph v:horizAlign="1"/><v:tabList/>7<v:newlineChar/><tspan
						x="12.21" dy="1.2em" class="st3">1</tspan></text>		</g>
		<g id="group1199-65" transform="translate(504.167,427.914) rotate(124.614)" v:mID="1199" v:groupContext="group">
			<v:userDefs>
				<v:ud v:nameU="visVersion" v:val="VT0(15):26"/>
			</v:userDefs>
			<title>一维单向箭头.1199</title>
			<g id="shape1200-66" v:mID="1200" v:groupContext="shape">
				<title>工作表.1200</title>
				<path d="M0 484.72 L83.11 484.72 L83.11 485.61 L83.99 483.83 L83.11 482.06 L83.11 482.95 L0 482.95 L0 484.72 Z"
						class="st5"/>
				<path d="M0 484.72 L83.11 484.72 L83.11 485.61 L83.99 483.83 L83.11 482.06 L83.11 482.95 L0 482.95" class="st6"/>
			</g>
			<g id="shape1201-69" v:mID="1201" v:groupContext="shape">
				<title>工作表.1201</title>
				<path d="M0 484.72 L83.11 484.72 L83.11 485.61 L83.99 483.83 L83.11 482.06 L83.11 482.95 L0 482.95 L0 484.72"
						class="st7"/>
			</g>
			<g id="shape1202-72" v:mID="1202" v:groupContext="shape" transform="translate(-1.077,-0.902723)">
				<title>工作表.1202</title>
				<rect x="0" y="483.863" width="0.474103" height="1.74532" class="st8"/>
			</g>
		</g>
		<g id="group1203-74" transform="translate(531.158,-77.819) rotate(61.496)" v:mID="1203" v:groupContext="group">
			<v:userDefs>
				<v:ud v:nameU="visVersion" v:val="VT0(15):26"/>
			</v:userDefs>
			<title>一维单向箭头.1203</title>
			<g id="shape1204-75" v:mID="1204" v:groupContext="shape">
				<title>工作表.1204</title>
				<path d="M0 484.72 L77.77 484.72 L77.77 485.61 L78.66 483.83 L77.77 482.06 L77.77 482.95 L0 482.95 L0 484.72 Z"
						class="st5"/>
				<path d="M0 484.72 L77.77 484.72 L77.77 485.61 L78.66 483.83 L77.77 482.06 L77.77 482.95 L0 482.95" class="st6"/>
			</g>
			<g id="shape1205-78" v:mID="1205" v:groupContext="shape">
				<title>工作表.1205</title>
				<path d="M0 484.72 L77.77 484.72 L77.77 485.61 L78.66 483.83 L77.77 482.06 L77.77 482.95 L0 482.95 L0 484.72"
						class="st7"/>
			</g>
			<g id="shape1206-81" v:mID="1206" v:groupContext="shape" transform="translate(-1.00863,-0.902723)">
				<title>工作表.1206</title>
				<rect x="0" y="483.863" width="0.444006" height="1.74532" class="st8"/>
			</g>
		</g>
		<g id="shape1207-83" v:mID="1207" v:groupContext="shape" transform="translate(0.375,-104.753)">
			<title>矩形.1207</title>
			<desc>1 0</desc>
			<v:userDefs>
				<v:ud v:nameU="visVersion" v:val="VT0(15):26"/>
			</v:userDefs>
			<v:textBlock v:margins="rect(4,4,4,4)" v:tabSpace="42.5197"/>
			<v:textRect cx="17.1928" cy="461.243" width="34.39" height="48.73"/>
			<rect x="0" y="436.878" width="34.3857" height="48.73" class="st1"/>
			<text x="12.21" y="455.84" class="st2" v:langID="2052"><v:paragraph v:horizAlign="1"/><v:tabList/>1<v:newlineChar/><tspan
						x="12.21" dy="1.2em" class="st3">0</tspan></text>		</g>
		<g id="shape1208-87" v:mID="1208" v:groupContext="shape" transform="translate(49.6645,-104.753)">
			<title>矩形.1208</title>
			<desc>3 0</desc>
			<v:userDefs>
				<v:ud v:nameU="visVersion" v:val="VT0(15):26"/>
			</v:userDefs>
			<v:textBlock v:margins="rect(4,4,4,4)" v:tabSpace="42.5197"/>
			<v:textRect cx="17.1928" cy="461.243" width="34.39" height="48.73"/>
			<rect x="0" y="436.878" width="34.3857" height="48.73" class="st1"/>
			<text x="12.21" y="455.84" class="st2" v:langID="2052"><v:paragraph v:horizAlign="1"/><v:tabList/>3<v:newlineChar/><tspan
						x="12.21" dy="1.2em" class="st3">0</tspan></text>		</g>
		<g id="group1209-91" transform="translate(461.143,538.851) rotate(123.624)" v:mID="1209" v:groupContext="group">
			<v:userDefs>
				<v:ud v:nameU="visVersion" v:val="VT0(15):26"/>
			</v:userDefs>
			<title>一维单向箭头.1209</title>
			<g id="shape1210-92" v:mID="1210" v:groupContext="shape">
				<title>工作表.1210</title>
				<path d="M0 484.72 L72.6 484.72 L72.6 485.61 L73.49 483.83 L72.6 482.06 L72.6 482.95 L0 482.95 L0 484.72 Z"
						class="st5"/>
				<path d="M0 484.72 L72.6 484.72 L72.6 485.61 L73.49 483.83 L72.6 482.06 L72.6 482.95 L0 482.95" class="st6"/>
			</g>
			<g id="shape1211-95" v:mID="1211" v:groupContext="shape">
				<title>工作表.1211</title>
				<path d="M0 484.72 L72.6 484.72 L72.6 485.61 L73.49 483.83 L72.6 482.06 L72.6 482.95 L0 482.95 L0 484.72"
						class="st7"/>
			</g>
			<g id="shape1212-98" v:mID="1212" v:groupContext="shape" transform="translate(-0.942273,-0.902723)">
				<title>工作表.1212</title>
				<rect x="0" y="483.863" width="0.414796" height="1.74532" class="st8"/>
			</g>
		</g>
		<g id="group1213-100" transform="translate(537.389,203.624) rotate(82.0033)" v:mID="1213" v:groupContext="group">
			<v:userDefs>
				<v:ud v:nameU="visVersion" v:val="VT0(15):26"/>
			</v:userDefs>
			<title>一维单向箭头.1213</title>
			<g id="shape1214-101" v:mID="1214" v:groupContext="shape">
				<title>工作表.1214</title>
				<path d="M0 484.72 L60.91 484.72 L60.91 485.61 L61.79 483.83 L60.91 482.06 L60.91 482.95 L0 482.95 L0 484.72 Z"
						class="st5"/>
				<path d="M0 484.72 L60.91 484.72 L60.91 485.61 L61.79 483.83 L60.91 482.06 L60.91 482.95 L0 482.95" class="st6"/>
			</g>
			<g id="shape1215-104" v:mID="1215" v:groupContext="shape">
				<title>工作表.1215</title>
				<path d="M0 484.72 L60.91 484.72 L60.91 485.61 L61.79 483.83 L60.91 482.06 L60.91 482.95 L0 482.95 L0 484.72"
						class="st7"/>
			</g>
			<g id="shape1216-107" v:mID="1216" v:groupContext="shape" transform="translate(-0.792325,-0.902723)">
				<title>工作表.1216</title>
				<rect x="0" y="483.863" width="0.348788" height="1.74532" class="st8"/>
			</g>
		</g>
		<g id="shape1217-109" v:mID="1217" v:groupContext="shape" transform="translate(98.954,-104.753)">
			<title>矩形.1217</title>
			<desc>6 0</desc>
			<v:userDefs>
				<v:ud v:nameU="visVersion" v:val="VT0(15):26"/>
			</v:userDefs>
			<v:textBlock v:margins="rect(4,4,4,4)" v:tabSpace="42.5197"/>
			<v:textRect cx="17.1928" cy="461.243" width="34.39" height="48.73"/>
			<rect x="0" y="436.878" width="34.3857" height="48.73" class="st1"/>
			<text x="12.21" y="455.84" class="st2" v:langID="2052"><v:paragraph v:horizAlign="1"/><v:tabList/>6<v:newlineChar/><tspan
						x="12.21" dy="1.2em" class="st3">0</tspan></text>		</g>
		<g id="shape1218-113" v:mID="1218" v:groupContext="shape" transform="translate(142.801,-104.753)">
			<title>矩形.1218</title>
			<desc>8 0</desc>
			<v:userDefs>
				<v:ud v:nameU="visVersion" v:val="VT0(15):26"/>
			</v:userDefs>
			<v:textBlock v:margins="rect(4,4,4,4)" v:tabSpace="42.5197"/>
			<v:textRect cx="17.1928" cy="461.243" width="34.39" height="48.73"/>
			<rect x="0" y="436.878" width="34.3857" height="48.73" class="st1"/>
			<text x="12.21" y="455.84" class="st2" v:langID="2052"><v:paragraph v:horizAlign="1"/><v:tabList/>8<v:newlineChar/><tspan
						x="12.21" dy="1.2em" class="st3">0</tspan></text>		</g>
		<g id="group1219-117" transform="translate(585.189,468.458) rotate(114.095)" v:mID="1219" v:groupContext="group">
			<v:userDefs>
				<v:ud v:nameU="visVersion" v:val="VT0(15):26"/>
			</v:userDefs>
			<title>一维单向箭头.1219</title>
			<g id="shape1220-118" v:mID="1220" v:groupContext="shape">
				<title>工作表.1220</title>
				<path d="M0 484.72 L66.15 484.72 L66.15 485.61 L67.03 483.83 L66.15 482.06 L66.15 482.95 L0 482.95 L0 484.72 Z"
						class="st5"/>
				<path d="M0 484.72 L66.15 484.72 L66.15 485.61 L67.03 483.83 L66.15 482.06 L66.15 482.95 L0 482.95" class="st6"/>
			</g>
			<g id="shape1221-121" v:mID="1221" v:groupContext="shape">
				<title>工作表.1221</title>
				<path d="M0 484.72 L66.15 484.72 L66.15 485.61 L67.03 483.83 L66.15 482.06 L66.15 482.95 L0 482.95 L0 484.72"
						class="st7"/>
			</g>
			<g id="shape1222-124" v:mID="1222" v:groupContext="shape" transform="translate(-0.859509,-0.902723)">
				<title>工作表.1222</title>
				<rect x="0" y="483.863" width="0.378363" height="1.74532" class="st8"/>
			</g>
		</g>
		<g id="group1223-126" transform="translate(610.698,145.108) rotate(74.9264)" v:mID="1223" v:groupContext="group">
			<v:userDefs>
				<v:ud v:nameU="visVersion" v:val="VT0(15):26"/>
			</v:userDefs>
			<title>一维单向箭头.1223</title>
			<g id="shape1224-127" v:mID="1224" v:groupContext="shape">
				<title>工作表.1224</title>
				<path d="M0 484.72 L62.49 484.72 L62.49 485.61 L63.37 483.83 L62.49 482.06 L62.49 482.95 L0 482.95 L0 484.72 Z"
						class="st5"/>
				<path d="M0 484.72 L62.49 484.72 L62.49 485.61 L63.37 483.83 L62.49 482.06 L62.49 482.95 L0 482.95" class="st6"/>
			</g>
			<g id="shape1225-130" v:mID="1225" v:groupContext="shape">
				<title>工作表.1225</title>
				<path d="M0 484.72 L62.49 484.72 L62.49 485.61 L63.37 483.83 L62.49 482.06 L62.49 482.95 L0 482.95 L0 484.72"
						class="st7"/>
			</g>
			<g id="shape1226-133" v:mID="1226" v:groupContext="shape" transform="translate(-0.812579,-0.902723)">
				<title>工作表.1226</title>
				<rect x="0" y="483.863" width="0.357704" height="1.74532" class="st8"/>
			</g>
		</g>
		<g id="shape1227-135" v:mID="1227" v:groupContext="shape" transform="translate(268.034,-104.753)">
			<title>矩形.1227</title>
			<desc>14 0</desc>
			<v:userDefs>
				<v:ud v:nameU="visVersion" v:val="VT0(15):26"/>
			</v:userDefs>
			<v:textBlock v:margins="rect(4,4,4,4)" v:tabSpace="42.5197"/>
			<v:textRect cx="17.1928" cy="461.243" width="34.39" height="48.73"/>
			<rect x="0" y="436.878" width="34.3857" height="48.73" class="st1"/>
			<text x="7.23" y="455.84" class="st2" v:langID="2052"><v:paragraph v:horizAlign="1"/><v:tabList/>14<v:newlineChar/><tspan
						x="12.21" dy="1.2em" class="st3">0</tspan></text>		</g>
		<g id="shape1228-139" v:mID="1228" v:groupContext="shape" transform="translate(325.92,-104.753)">
			<title>矩形.1228</title>
			<desc>17 1</desc>
			<v:userDefs>
				<v:ud v:nameU="visVersion" v:val="VT0(15):26"/>
			</v:userDefs>
			<v:textBlock v:margins="rect(4,4,4,4)" v:tabSpace="42.5197"/>
			<v:textRect cx="17.1928" cy="461.243" width="34.39" height="48.73"/>
			<rect x="0" y="436.878" width="34.3857" height="48.73" class="st4"/>
			<text x="7.23" y="455.84" class="st2" v:langID="2052"><v:paragraph v:horizAlign="1"/><v:tabList/>17<v:newlineChar/><tspan
						x="12.21" dy="1.2em" class="st3">1</tspan></text>		</g>
		<g id="shape1229-143" v:mID="1229" v:groupContext="shape" transform="translate(383.806,-104.753)">
			<title>矩形.1229</title>
			<desc>20 0</desc>
			<v:userDefs>
				<v:ud v:nameU="visVersion" v:val="VT0(15):26"/>
			</v:userDefs>
			<v:textBlock v:margins="rect(4,4,4,4)" v:tabSpace="42.5197"/>
			<v:textRect cx="17.1928" cy="461.243" width="34.39" height="48.73"/>
			<rect x="0" y="436.878" width="34.3857" height="48.73" class="st1"/>
			<text x="7.23" y="455.84" class="st2" v:langID="2052"><v:paragraph v:horizAlign="1"/><v:tabList/>20<v:newlineChar/><tspan
						x="12.21" dy="1.2em" class="st3">0</tspan></text>		</g>
		<g id="group1230-147" transform="translate(687.676,54.9886) rotate(63.4921)" v:mID="1230" v:groupContext="group">
			<v:userDefs>
				<v:ud v:nameU="visVersion" v:val="VT0(15):26"/>
			</v:userDefs>
			<title>一维单向箭头.1230</title>
			<g id="shape1231-148" v:mID="1231" v:groupContext="shape">
				<title>工作表.1231</title>
				<path d="M0 484.72 L67.49 484.72 L67.49 485.61 L68.38 483.83 L67.49 482.06 L67.49 482.95 L0 482.95 L0 484.72 Z"
						class="st5"/>
				<path d="M0 484.72 L67.49 484.72 L67.49 485.61 L68.38 483.83 L67.49 482.06 L67.49 482.95 L0 482.95" class="st6"/>
			</g>
			<g id="shape1232-151" v:mID="1232" v:groupContext="shape">
				<title>工作表.1232</title>
				<path d="M0 484.72 L67.49 484.72 L67.49 485.61 L68.38 483.83 L67.49 482.06 L67.49 482.95 L0 482.95 L0 484.72"
						class="st7"/>
			</g>
			<g id="shape1233-154" v:mID="1233" v:groupContext="shape" transform="translate(-0.876795,-0.902723)">
				<title>工作表.1233</title>
				<rect x="0" y="483.863" width="0.385972" height="1.74532" class="st8"/>
			</g>
		</g>
		<g id="group1234-156" transform="translate(819.313,439.785) rotate(110.425)" v:mID="1234" v:groupContext="group">
			<v:userDefs>
				<v:ud v:nameU="visVersion" v:val="VT0(15):26"/>
			</v:userDefs>
			<title>一维单向箭头.1234</title>
			<g id="shape1235-157" v:mID="1235" v:groupContext="shape">
				<title>工作表.1235</title>
				<path d="M0 484.72 L64.41 484.72 L64.41 485.61 L65.3 483.83 L64.41 482.06 L64.41 482.95 L0 482.95 L0 484.72 Z"
						class="st5"/>
				<path d="M0 484.72 L64.41 484.72 L64.41 485.61 L65.3 483.83 L64.41 482.06 L64.41 482.95 L0 482.95" class="st6"/>
			</g>
			<g id="shape1236-160" v:mID="1236" v:groupContext="shape">
				<title>工作表.1236</title>
				<path d="M0 484.72 L64.41 484.72 L64.41 485.61 L65.3 483.83 L64.41 482.06 L64.41 482.95 L0 482.95 L0 484.72"
						class="st7"/>
			</g>
			<g id="shape1237-163" v:mID="1237" v:groupContext="shape" transform="translate(-0.837261,-0.902723)">
				<title>工作表.1237</title>
				<rect x="0" y="483.863" width="0.368569" height="1.74532" class="st8"/>
			</g>
		</g>
		<g id="group1238-165" transform="translate(785.598,30.2089) rotate(60.1629)" v:mID="1238" v:groupContext="group">
			<v:userDefs>
				<v:ud v:nameU="visVersion" v:val="VT0(15):26"/>
			</v:userDefs>
			<title>一维单向箭头.1238</title>
			<g id="shape1239-166" v:mID="1239" v:groupContext="shape">
				<title>工作表.1239</title>
				<path d="M0 484.72 L69.66 484.72 L69.66 485.61 L70.54 483.83 L69.66 482.06 L69.66 482.95 L0 482.95 L0 484.72 Z"
						class="st5"/>
				<path d="M0 484.72 L69.66 484.72 L69.66 485.61 L70.54 483.83 L69.66 482.06 L69.66 482.95 L0 482.95" class="st6"/>
			</g>
			<g id="shape1240-169" v:mID="1240" v:groupContext="shape">
				<title>工作表.1240</title>
				<path d="M0 484.72 L69.66 484.72 L69.66 485.61 L70.54 483.83 L69.66 482.06 L69.66 482.95 L0 482.95 L0 484.72"
						class="st7"/>
			</g>
			<g id="shape1241-172" v:mID="1241" v:groupContext="shape" transform="translate(-0.904521,-0.902723)">
				<title>工作表.1241</title>
				<rect x="0" y="483.863" width="0.398177" height="1.74532" class="st8"/>
			</g>
		</g>
		<g id="shape1242-174" v:mID="1242" v:groupContext="shape" transform="translate(351.251,-0.375)">
			<title>矩形.1242</title>
			<desc>18 0</desc>
			<v:userDefs>
				<v:ud v:nameU="visVersion" v:val="VT0(15):26"/>
			</v:userDefs>
			<v:textBlock v:margins="rect(4,4,4,4)" v:tabSpace="42.5197"/>
			<v:textRect cx="17.1928" cy="461.243" width="34.39" height="48.73"/>
			<rect x="0" y="436.878" width="34.3857" height="48.73" class="st4"/>
			<text x="7.23" y="455.84" class="st2" v:langID="2052"><v:paragraph v:horizAlign="1"/><v:tabList/>18<v:newlineChar/><tspan
						x="12.21" dy="1.2em" class="st3">0</tspan></text>		</g>
		<g id="group1243-178" transform="translate(783.467,180.401) rotate(65.5245)" v:mID="1243" v:groupContext="group">
			<v:userDefs>
				<v:ud v:nameU="visVersion" v:val="VT0(15):26"/>
			</v:userDefs>
			<title>一维单向箭头.1243</title>
			<g id="shape1244-179" v:mID="1244" v:groupContext="shape">
				<title>工作表.1244</title>
				<path d="M0 484.72 L60.25 484.72 L60.25 485.61 L61.14 483.83 L60.25 482.06 L60.25 482.95 L0 482.95 L0 484.72 Z"
						class="st5"/>
				<path d="M0 484.72 L60.25 484.72 L60.25 485.61 L61.14 483.83 L60.25 482.06 L60.25 482.95 L0 482.95" class="st6"/>
			</g>
			<g id="shape1245-182" v:mID="1245" v:groupContext="shape">
				<title>工作表.1245</title>
				<path d="M0 484.72 L60.25 484.72 L60.25 485.61 L61.14 483.83 L60.25 482.06 L60.25 482.95 L0 482.95 L0 484.72"
						class="st7"/>
			</g>
			<g id="shape1246-185" v:mID="1246" v:groupContext="shape" transform="translate(-0.783978,-0.902723)">
				<title>工作表.1246</title>
				<rect x="0" y="483.863" width="0.345113" height="1.74532" class="st8"/>
			</g>
		</g>
		<g id="shape1247-187" v:mID="1247" v:groupContext="shape" transform="translate(299.266,-0.375)">
			<title>矩形.1247</title>
			<desc>16 0</desc>
			<v:userDefs>
				<v:ud v:nameU="visVersion" v:val="VT0(15):26"/>
			</v:userDefs>
			<v:textBlock v:margins="rect(4,4,4,4)" v:tabSpace="42.5197"/>
			<v:textRect cx="17.1928" cy="461.243" width="34.39" height="48.73"/>
			<rect x="0" y="436.878" width="34.3857" height="48.73" class="st4"/>
			<text x="7.23" y="455.84" class="st2" v:langID="2052"><v:paragraph v:horizAlign="1"/><v:tabList/>16<v:newlineChar/><tspan
						x="12.21" dy="1.2em" class="st3">0</tspan></text>		</g>
		<g id="group1248-191" transform="translate(779.473,589.862) rotate(115.593)" v:mID="1248" v:groupContext="group">
			<v:userDefs>
				<v:ud v:nameU="visVersion" v:val="VT0(15):26"/>
			</v:userDefs>
			<title>一维单向箭头.1248</title>
			<g id="shape1249-192" v:mID="1249" v:groupContext="shape">
				<title>工作表.1249</title>
				<path d="M0 484.72 L60.81 484.72 L60.81 485.61 L61.7 483.83 L60.81 482.06 L60.81 482.95 L0 482.95 L0 484.72 Z"
						class="st5"/>
				<path d="M0 484.72 L60.81 484.72 L60.81 485.61 L61.7 483.83 L60.81 482.06 L60.81 482.95 L0 482.95" class="st6"/>
			</g>
			<g id="shape1250-195" v:mID="1250" v:groupContext="shape">
				<title>工作表.1250</title>
				<path d="M0 484.72 L60.81 484.72 L60.81 485.61 L61.7 483.83 L60.81 482.06 L60.81 482.95 L0 482.95 L0 484.72"
						class="st7"/>
			</g>
			<g id="shape1251-198" v:mID="1251" v:groupContext="shape" transform="translate(-0.791154,-0.902723)">
				<title>工作表.1251</title>
				<rect x="0" y="483.863" width="0.348272" height="1.74532" class="st8"/>
			</g>
		</g>
	</g>
</svg>
