<?xml version="1.0" encoding="UTF-8" standalone="no"?>
<!DOCTYPE svg PUBLIC "-//W3C//DTD SVG 1.1//EN" "http://www.w3.org/Graphics/SVG/1.1/DTD/svg11.dtd">
<!-- 由 Microsoft Visio, SVG Export 生成 AVLTree9.svg 页-1 -->
<svg xmlns="http://www.w3.org/2000/svg" xmlns:xlink="http://www.w3.org/1999/xlink" xmlns:ev="http://www.w3.org/2001/xml-events"
		xmlns:v="http://schemas.microsoft.com/visio/2003/SVGExtensions/" width="5.81342in" height="6.74456in"
		viewBox="0 0 418.566 485.608" xml:space="preserve" color-interpolation-filters="sRGB" class="st9">
	<v:documentProperties v:langID="2052" v:metric="true" v:viewMarkup="false"/>

	<style type="text/css">
	<![CDATA[
		.st1 {fill:#ffffff;stroke:#000000;stroke-linecap:round;stroke-linejoin:round;stroke-width:0.75}
		.st2 {fill:#000000;font-family:Cambria Math;font-size:1.5em}
		.st3 {font-size:1em}
		.st4 {fill:#ffffff}
		.st5 {stroke:none;stroke-linecap:round;stroke-linejoin:round;stroke-width:0.75}
		.st6 {stroke:#000000;stroke-linecap:round;stroke-linejoin:round;stroke-width:0.24}
		.st7 {fill:#ffffff;stroke:none;stroke-linecap:round;stroke-linejoin:round;stroke-width:0.24;visibility:hidden}
		.st8 {fill:#c05046;stroke:#000000;stroke-linecap:round;stroke-linejoin:round;stroke-width:0.75}
		.st9 {fill:none;fill-rule:evenodd;font-size:12px;overflow:visible;stroke-linecap:square;stroke-miterlimit:3}
	]]>
	</style>

	<g v:mID="0" v:index="1" v:groupContext="foregroundPage">
		<title>页-1</title>
		<v:pageProperties v:drawingScale="0.0393701" v:pageScale="0.0393701" v:drawingUnits="24" v:shadowOffsetX="8.50394"
				v:shadowOffsetY="-8.50394"/>
		<g id="shape1024-1" v:mID="1024" v:groupContext="shape" transform="translate(186.648,-436.503)">
			<title>矩形.1024</title>
			<desc>10 3</desc>
			<v:userDefs>
				<v:ud v:nameU="visVersion" v:val="VT0(15):26"/>
			</v:userDefs>
			<v:textBlock v:margins="rect(4,4,4,4)" v:tabSpace="42.5197"/>
			<v:textRect cx="17.1928" cy="461.243" width="34.39" height="48.73"/>
			<rect x="0" y="436.878" width="34.3857" height="48.73" class="st1"/>
			<text x="7.23" y="455.84" class="st2" v:langID="2052"><v:paragraph v:horizAlign="1"/><v:tabList/>10<v:newlineChar/><tspan
						x="12.21" dy="1.2em" class="st3">3</tspan></text>		</g>
		<g id="shape1025-5" v:mID="1025" v:groupContext="shape" transform="translate(278.207,-332.532)">
			<title>矩形.1025</title>
			<desc>15 2</desc>
			<v:userDefs>
				<v:ud v:nameU="visVersion" v:val="VT0(15):26"/>
			</v:userDefs>
			<v:textBlock v:margins="rect(4,4,4,4)" v:tabSpace="42.5197"/>
			<v:textRect cx="17.1928" cy="461.243" width="34.39" height="48.73"/>
			<rect x="0" y="436.878" width="34.3857" height="48.73" class="st1"/>
			<text x="7.23" y="455.84" class="st2" v:langID="2052"><v:paragraph v:horizAlign="1"/><v:tabList/>15<v:newlineChar/><tspan
						x="12.21" dy="1.2em" class="st3">2</tspan></text>		</g>
		<g id="shape1026-9" v:mID="1026" v:groupContext="shape" transform="translate(88.7807,-332.532)">
			<title>矩形.1026</title>
			<desc>5 2</desc>
			<v:userDefs>
				<v:ud v:nameU="visVersion" v:val="VT0(15):26"/>
			</v:userDefs>
			<v:textBlock v:margins="rect(4,4,4,4)" v:tabSpace="42.5197"/>
			<v:textRect cx="17.1928" cy="461.243" width="34.39" height="48.73"/>
			<rect x="0" y="436.878" width="34.3857" height="48.73" class="st1"/>
			<text x="12.21" y="455.84" class="st2" v:langID="2052"><v:paragraph v:horizAlign="1"/><v:tabList/>5<v:newlineChar/><tspan
						x="12.21" dy="1.2em" class="st3">2</tspan></text>		</g>
		<g id="group1027-13" transform="translate(441.668,470.45) rotate(150.557)" v:mID="1027" v:groupContext="group">
			<v:userDefs>
				<v:ud v:nameU="visVersion" v:val="VT0(15):26"/>
			</v:userDefs>
			<title>一维单向箭头.1027</title>
			<g id="shape1028-14" v:mID="1028" v:groupContext="shape">
				<title>工作表.1028</title>
				<path d="M0 484.72 L111.49 484.72 L111.49 485.61 L112.38 483.83 L111.49 482.06 L111.49 482.95 L0 482.95 L0 484.72
							 Z" class="st4"/>
				<path d="M0 484.72 L111.49 484.72 L111.49 485.61 L112.38 483.83 L111.49 482.06 L111.49 482.95 L0 482.95"
						class="st5"/>
			</g>
			<g id="shape1029-17" v:mID="1029" v:groupContext="shape">
				<title>工作表.1029</title>
				<path d="M0 484.72 L111.49 484.72 L111.49 485.61 L112.38 483.83 L111.49 482.06 L111.49 482.95 L0 482.95 L0 484.72"
						class="st6"/>
			</g>
			<g id="shape1030-20" v:mID="1030" v:groupContext="shape" transform="translate(-1.44097,-0.902723)">
				<title>工作表.1030</title>
				<rect x="0" y="483.863" width="0.634328" height="1.74532" class="st7"/>
			</g>
		</g>
		<g id="group1031-22" transform="translate(453.785,-365.168) rotate(31.104)" v:mID="1031" v:groupContext="group">
			<v:userDefs>
				<v:ud v:nameU="visVersion" v:val="VT0(15):26"/>
			</v:userDefs>
			<title>一维单向箭头.1031</title>
			<g id="shape1032-23" v:mID="1032" v:groupContext="shape">
				<title>工作表.1032</title>
				<path d="M0 484.72 L106.05 484.72 L106.05 485.61 L106.93 483.83 L106.05 482.06 L106.05 482.95 L0 482.95 L0 484.72
							 Z" class="st4"/>
				<path d="M0 484.72 L106.05 484.72 L106.05 485.61 L106.93 483.83 L106.05 482.06 L106.05 482.95 L0 482.95"
						class="st5"/>
			</g>
			<g id="shape1033-26" v:mID="1033" v:groupContext="shape">
				<title>工作表.1033</title>
				<path d="M0 484.72 L106.05 484.72 L106.05 485.61 L106.93 483.83 L106.05 482.06 L106.05 482.95 L0 482.95 L0 484.72"
						class="st6"/>
			</g>
			<g id="shape1034-29" v:mID="1034" v:groupContext="shape" transform="translate(-1.37112,-0.902723)">
				<title>工作表.1034</title>
				<rect x="0" y="483.863" width="0.603578" height="1.74532" class="st7"/>
			</g>
		</g>
		<g id="shape1035-31" v:mID="1035" v:groupContext="shape" transform="translate(237.514,-214.675)">
			<title>矩形.1035</title>
			<desc>13 1</desc>
			<v:userDefs>
				<v:ud v:nameU="visVersion" v:val="VT0(15):26"/>
			</v:userDefs>
			<v:textBlock v:margins="rect(4,4,4,4)" v:tabSpace="42.5197"/>
			<v:textRect cx="17.1928" cy="461.243" width="34.39" height="48.73"/>
			<rect x="0" y="436.878" width="34.3857" height="48.73" class="st1"/>
			<text x="7.23" y="455.84" class="st2" v:langID="2052"><v:paragraph v:horizAlign="1"/><v:tabList/>13<v:newlineChar/><tspan
						x="12.21" dy="1.2em" class="st3">1</tspan></text>		</g>
		<g id="group1036-35" transform="translate(712.353,398.523) rotate(120.484)" v:mID="1036" v:groupContext="group">
			<v:userDefs>
				<v:ud v:nameU="visVersion" v:val="VT0(15):26"/>
			</v:userDefs>
			<title>一维单向箭头.1036</title>
			<g id="shape1037-36" v:mID="1037" v:groupContext="shape">
				<title>工作表.1037</title>
				<path d="M0 484.72 L79.33 484.72 L79.33 485.61 L80.22 483.83 L79.33 482.06 L79.33 482.95 L0 482.95 L0 484.72 Z"
						class="st4"/>
				<path d="M0 484.72 L79.33 484.72 L79.33 485.61 L80.22 483.83 L79.33 482.06 L79.33 482.95 L0 482.95" class="st5"/>
			</g>
			<g id="shape1038-39" v:mID="1038" v:groupContext="shape">
				<title>工作表.1038</title>
				<path d="M0 484.72 L79.33 484.72 L79.33 485.61 L80.22 483.83 L79.33 482.06 L79.33 482.95 L0 482.95 L0 484.72"
						class="st6"/>
			</g>
			<g id="shape1039-42" v:mID="1039" v:groupContext="shape" transform="translate(-1.02854,-0.902723)">
				<title>工作表.1039</title>
				<rect x="0" y="483.863" width="0.452772" height="1.74532" class="st7"/>
			</g>
		</g>
		<g id="shape1040-44" v:mID="1040" v:groupContext="shape" transform="translate(348.708,-214.675)">
			<title>矩形.1040</title>
			<desc>19 1</desc>
			<v:userDefs>
				<v:ud v:nameU="visVersion" v:val="VT0(15):26"/>
			</v:userDefs>
			<v:textBlock v:margins="rect(4,4,4,4)" v:tabSpace="42.5197"/>
			<v:textRect cx="17.1928" cy="461.243" width="34.39" height="48.73"/>
			<rect x="0" y="436.878" width="34.3857" height="48.73" class="st1"/>
			<text x="7.23" y="455.84" class="st2" v:langID="2052"><v:paragraph v:horizAlign="1"/><v:tabList/>19<v:newlineChar/><tspan
						x="12.21" dy="1.2em" class="st3">1</tspan></text>		</g>
		<g id="group1041-48" transform="translate(634.14,-192.394) rotate(44.4365)" v:mID="1041" v:groupContext="group">
			<v:userDefs>
				<v:ud v:nameU="visVersion" v:val="VT0(15):26"/>
			</v:userDefs>
			<title>一维单向箭头.1041</title>
			<g id="shape1042-49" v:mID="1042" v:groupContext="shape">
				<title>工作表.1042</title>
				<path d="M0 484.72 L97.85 484.72 L97.85 485.61 L98.74 483.83 L97.85 482.06 L97.85 482.95 L0 482.95 L0 484.72 Z"
						class="st4"/>
				<path d="M0 484.72 L97.85 484.72 L97.85 485.61 L98.74 483.83 L97.85 482.06 L97.85 482.95 L0 482.95" class="st5"/>
			</g>
			<g id="shape1043-52" v:mID="1043" v:groupContext="shape">
				<title>工作表.1043</title>
				<path d="M0 484.72 L97.85 484.72 L97.85 485.61 L98.74 483.83 L97.85 482.06 L97.85 482.95 L0 482.95 L0 484.72"
						class="st6"/>
			</g>
			<g id="shape1044-55" v:mID="1044" v:groupContext="shape" transform="translate(-1.26602,-0.902723)">
				<title>工作表.1044</title>
				<rect x="0" y="483.863" width="0.557314" height="1.74532" class="st7"/>
			</g>
		</g>
		<g id="shape1045-57" v:mID="1045" v:groupContext="shape" transform="translate(41.0681,-214.675)">
			<title>矩形.1045</title>
			<desc>2 1</desc>
			<v:userDefs>
				<v:ud v:nameU="visVersion" v:val="VT0(15):26"/>
			</v:userDefs>
			<v:textBlock v:margins="rect(4,4,4,4)" v:tabSpace="42.5197"/>
			<v:textRect cx="17.1928" cy="461.243" width="34.39" height="48.73"/>
			<rect x="0" y="436.878" width="34.3857" height="48.73" class="st1"/>
			<text x="12.21" y="455.84" class="st2" v:langID="2052"><v:paragraph v:horizAlign="1"/><v:tabList/>2<v:newlineChar/><tspan
						x="12.21" dy="1.2em" class="st3">1</tspan></text>		</g>
		<g id="shape1046-61" v:mID="1046" v:groupContext="shape" transform="translate(126.32,-214.675)">
			<title>矩形.1046</title>
			<desc>7 1</desc>
			<v:userDefs>
				<v:ud v:nameU="visVersion" v:val="VT0(15):26"/>
			</v:userDefs>
			<v:textBlock v:margins="rect(4,4,4,4)" v:tabSpace="42.5197"/>
			<v:textRect cx="17.1928" cy="461.243" width="34.39" height="48.73"/>
			<rect x="0" y="436.878" width="34.3857" height="48.73" class="st1"/>
			<text x="12.21" y="455.84" class="st2" v:langID="2052"><v:paragraph v:horizAlign="1"/><v:tabList/>7<v:newlineChar/><tspan
						x="12.21" dy="1.2em" class="st3">1</tspan></text>		</g>
		<g id="group1047-65" transform="translate(504.167,427.914) rotate(124.614)" v:mID="1047" v:groupContext="group">
			<v:userDefs>
				<v:ud v:nameU="visVersion" v:val="VT0(15):26"/>
			</v:userDefs>
			<title>一维单向箭头.1047</title>
			<g id="shape1048-66" v:mID="1048" v:groupContext="shape">
				<title>工作表.1048</title>
				<path d="M0 484.72 L83.11 484.72 L83.11 485.61 L83.99 483.83 L83.11 482.06 L83.11 482.95 L0 482.95 L0 484.72 Z"
						class="st4"/>
				<path d="M0 484.72 L83.11 484.72 L83.11 485.61 L83.99 483.83 L83.11 482.06 L83.11 482.95 L0 482.95" class="st5"/>
			</g>
			<g id="shape1049-69" v:mID="1049" v:groupContext="shape">
				<title>工作表.1049</title>
				<path d="M0 484.72 L83.11 484.72 L83.11 485.61 L83.99 483.83 L83.11 482.06 L83.11 482.95 L0 482.95 L0 484.72"
						class="st6"/>
			</g>
			<g id="shape1050-72" v:mID="1050" v:groupContext="shape" transform="translate(-1.077,-0.902723)">
				<title>工作表.1050</title>
				<rect x="0" y="483.863" width="0.474103" height="1.74532" class="st7"/>
			</g>
		</g>
		<g id="group1051-74" transform="translate(531.158,-77.819) rotate(61.496)" v:mID="1051" v:groupContext="group">
			<v:userDefs>
				<v:ud v:nameU="visVersion" v:val="VT0(15):26"/>
			</v:userDefs>
			<title>一维单向箭头.1051</title>
			<g id="shape1052-75" v:mID="1052" v:groupContext="shape">
				<title>工作表.1052</title>
				<path d="M0 484.72 L77.77 484.72 L77.77 485.61 L78.66 483.83 L77.77 482.06 L77.77 482.95 L0 482.95 L0 484.72 Z"
						class="st4"/>
				<path d="M0 484.72 L77.77 484.72 L77.77 485.61 L78.66 483.83 L77.77 482.06 L77.77 482.95 L0 482.95" class="st5"/>
			</g>
			<g id="shape1053-78" v:mID="1053" v:groupContext="shape">
				<title>工作表.1053</title>
				<path d="M0 484.72 L77.77 484.72 L77.77 485.61 L78.66 483.83 L77.77 482.06 L77.77 482.95 L0 482.95 L0 484.72"
						class="st6"/>
			</g>
			<g id="shape1054-81" v:mID="1054" v:groupContext="shape" transform="translate(-1.00863,-0.902723)">
				<title>工作表.1054</title>
				<rect x="0" y="483.863" width="0.444006" height="1.74532" class="st7"/>
			</g>
		</g>
		<g id="shape1055-83" v:mID="1055" v:groupContext="shape" transform="translate(0.375,-104.753)">
			<title>矩形.1055</title>
			<desc>1 0</desc>
			<v:userDefs>
				<v:ud v:nameU="visVersion" v:val="VT0(15):26"/>
			</v:userDefs>
			<v:textBlock v:margins="rect(4,4,4,4)" v:tabSpace="42.5197"/>
			<v:textRect cx="17.1928" cy="461.243" width="34.39" height="48.73"/>
			<rect x="0" y="436.878" width="34.3857" height="48.73" class="st1"/>
			<text x="12.21" y="455.84" class="st2" v:langID="2052"><v:paragraph v:horizAlign="1"/><v:tabList/>1<v:newlineChar/><tspan
						x="12.21" dy="1.2em" class="st3">0</tspan></text>		</g>
		<g id="shape1056-87" v:mID="1056" v:groupContext="shape" transform="translate(49.6645,-104.753)">
			<title>矩形.1056</title>
			<desc>3 0</desc>
			<v:userDefs>
				<v:ud v:nameU="visVersion" v:val="VT0(15):26"/>
			</v:userDefs>
			<v:textBlock v:margins="rect(4,4,4,4)" v:tabSpace="42.5197"/>
			<v:textRect cx="17.1928" cy="461.243" width="34.39" height="48.73"/>
			<rect x="0" y="436.878" width="34.3857" height="48.73" class="st1"/>
			<text x="12.21" y="455.84" class="st2" v:langID="2052"><v:paragraph v:horizAlign="1"/><v:tabList/>3<v:newlineChar/><tspan
						x="12.21" dy="1.2em" class="st3">0</tspan></text>		</g>
		<g id="group1057-91" transform="translate(461.143,538.851) rotate(123.624)" v:mID="1057" v:groupContext="group">
			<v:userDefs>
				<v:ud v:nameU="visVersion" v:val="VT0(15):26"/>
			</v:userDefs>
			<title>一维单向箭头.1057</title>
			<g id="shape1058-92" v:mID="1058" v:groupContext="shape">
				<title>工作表.1058</title>
				<path d="M0 484.72 L72.6 484.72 L72.6 485.61 L73.49 483.83 L72.6 482.06 L72.6 482.95 L0 482.95 L0 484.72 Z"
						class="st4"/>
				<path d="M0 484.72 L72.6 484.72 L72.6 485.61 L73.49 483.83 L72.6 482.06 L72.6 482.95 L0 482.95" class="st5"/>
			</g>
			<g id="shape1059-95" v:mID="1059" v:groupContext="shape">
				<title>工作表.1059</title>
				<path d="M0 484.72 L72.6 484.72 L72.6 485.61 L73.49 483.83 L72.6 482.06 L72.6 482.95 L0 482.95 L0 484.72"
						class="st6"/>
			</g>
			<g id="shape1060-98" v:mID="1060" v:groupContext="shape" transform="translate(-0.942273,-0.902723)">
				<title>工作表.1060</title>
				<rect x="0" y="483.863" width="0.414796" height="1.74532" class="st7"/>
			</g>
		</g>
		<g id="group1061-100" transform="translate(537.389,203.624) rotate(82.0033)" v:mID="1061" v:groupContext="group">
			<v:userDefs>
				<v:ud v:nameU="visVersion" v:val="VT0(15):26"/>
			</v:userDefs>
			<title>一维单向箭头.1061</title>
			<g id="shape1062-101" v:mID="1062" v:groupContext="shape">
				<title>工作表.1062</title>
				<path d="M0 484.72 L60.91 484.72 L60.91 485.61 L61.79 483.83 L60.91 482.06 L60.91 482.95 L0 482.95 L0 484.72 Z"
						class="st4"/>
				<path d="M0 484.72 L60.91 484.72 L60.91 485.61 L61.79 483.83 L60.91 482.06 L60.91 482.95 L0 482.95" class="st5"/>
			</g>
			<g id="shape1063-104" v:mID="1063" v:groupContext="shape">
				<title>工作表.1063</title>
				<path d="M0 484.72 L60.91 484.72 L60.91 485.61 L61.79 483.83 L60.91 482.06 L60.91 482.95 L0 482.95 L0 484.72"
						class="st6"/>
			</g>
			<g id="shape1064-107" v:mID="1064" v:groupContext="shape" transform="translate(-0.792325,-0.902723)">
				<title>工作表.1064</title>
				<rect x="0" y="483.863" width="0.348788" height="1.74532" class="st7"/>
			</g>
		</g>
		<g id="shape1065-109" v:mID="1065" v:groupContext="shape" transform="translate(98.954,-104.753)">
			<title>矩形.1065</title>
			<desc>6 0</desc>
			<v:userDefs>
				<v:ud v:nameU="visVersion" v:val="VT0(15):26"/>
			</v:userDefs>
			<v:textBlock v:margins="rect(4,4,4,4)" v:tabSpace="42.5197"/>
			<v:textRect cx="17.1928" cy="461.243" width="34.39" height="48.73"/>
			<rect x="0" y="436.878" width="34.3857" height="48.73" class="st1"/>
			<text x="12.21" y="455.84" class="st2" v:langID="2052"><v:paragraph v:horizAlign="1"/><v:tabList/>6<v:newlineChar/><tspan
						x="12.21" dy="1.2em" class="st3">0</tspan></text>		</g>
		<g id="shape1066-113" v:mID="1066" v:groupContext="shape" transform="translate(142.801,-104.753)">
			<title>矩形.1066</title>
			<desc>8 0</desc>
			<v:userDefs>
				<v:ud v:nameU="visVersion" v:val="VT0(15):26"/>
			</v:userDefs>
			<v:textBlock v:margins="rect(4,4,4,4)" v:tabSpace="42.5197"/>
			<v:textRect cx="17.1928" cy="461.243" width="34.39" height="48.73"/>
			<rect x="0" y="436.878" width="34.3857" height="48.73" class="st1"/>
			<text x="12.21" y="455.84" class="st2" v:langID="2052"><v:paragraph v:horizAlign="1"/><v:tabList/>8<v:newlineChar/><tspan
						x="12.21" dy="1.2em" class="st3">0</tspan></text>		</g>
		<g id="group1067-117" transform="translate(585.189,468.458) rotate(114.095)" v:mID="1067" v:groupContext="group">
			<v:userDefs>
				<v:ud v:nameU="visVersion" v:val="VT0(15):26"/>
			</v:userDefs>
			<title>一维单向箭头.1067</title>
			<g id="shape1068-118" v:mID="1068" v:groupContext="shape">
				<title>工作表.1068</title>
				<path d="M0 484.72 L66.15 484.72 L66.15 485.61 L67.03 483.83 L66.15 482.06 L66.15 482.95 L0 482.95 L0 484.72 Z"
						class="st4"/>
				<path d="M0 484.72 L66.15 484.72 L66.15 485.61 L67.03 483.83 L66.15 482.06 L66.15 482.95 L0 482.95" class="st5"/>
			</g>
			<g id="shape1069-121" v:mID="1069" v:groupContext="shape">
				<title>工作表.1069</title>
				<path d="M0 484.72 L66.15 484.72 L66.15 485.61 L67.03 483.83 L66.15 482.06 L66.15 482.95 L0 482.95 L0 484.72"
						class="st6"/>
			</g>
			<g id="shape1070-124" v:mID="1070" v:groupContext="shape" transform="translate(-0.859509,-0.902723)">
				<title>工作表.1070</title>
				<rect x="0" y="483.863" width="0.378363" height="1.74532" class="st7"/>
			</g>
		</g>
		<g id="group1071-126" transform="translate(610.698,145.108) rotate(74.9264)" v:mID="1071" v:groupContext="group">
			<v:userDefs>
				<v:ud v:nameU="visVersion" v:val="VT0(15):26"/>
			</v:userDefs>
			<title>一维单向箭头.1071</title>
			<g id="shape1072-127" v:mID="1072" v:groupContext="shape">
				<title>工作表.1072</title>
				<path d="M0 484.72 L62.49 484.72 L62.49 485.61 L63.37 483.83 L62.49 482.06 L62.49 482.95 L0 482.95 L0 484.72 Z"
						class="st4"/>
				<path d="M0 484.72 L62.49 484.72 L62.49 485.61 L63.37 483.83 L62.49 482.06 L62.49 482.95 L0 482.95" class="st5"/>
			</g>
			<g id="shape1073-130" v:mID="1073" v:groupContext="shape">
				<title>工作表.1073</title>
				<path d="M0 484.72 L62.49 484.72 L62.49 485.61 L63.37 483.83 L62.49 482.06 L62.49 482.95 L0 482.95 L0 484.72"
						class="st6"/>
			</g>
			<g id="shape1074-133" v:mID="1074" v:groupContext="shape" transform="translate(-0.812579,-0.902723)">
				<title>工作表.1074</title>
				<rect x="0" y="483.863" width="0.357704" height="1.74532" class="st7"/>
			</g>
		</g>
		<g id="shape1075-135" v:mID="1075" v:groupContext="shape" transform="translate(268.034,-104.753)">
			<title>矩形.1075</title>
			<desc>14 0</desc>
			<v:userDefs>
				<v:ud v:nameU="visVersion" v:val="VT0(15):26"/>
			</v:userDefs>
			<v:textBlock v:margins="rect(4,4,4,4)" v:tabSpace="42.5197"/>
			<v:textRect cx="17.1928" cy="461.243" width="34.39" height="48.73"/>
			<rect x="0" y="436.878" width="34.3857" height="48.73" class="st1"/>
			<text x="7.23" y="455.84" class="st2" v:langID="2052"><v:paragraph v:horizAlign="1"/><v:tabList/>14<v:newlineChar/><tspan
						x="12.21" dy="1.2em" class="st3">0</tspan></text>		</g>
		<g id="shape1076-139" v:mID="1076" v:groupContext="shape" transform="translate(325.92,-104.753)">
			<title>矩形.1076</title>
			<desc>17 1</desc>
			<v:userDefs>
				<v:ud v:nameU="visVersion" v:val="VT0(15):26"/>
			</v:userDefs>
			<v:textBlock v:margins="rect(4,4,4,4)" v:tabSpace="42.5197"/>
			<v:textRect cx="17.1928" cy="461.243" width="34.39" height="48.73"/>
			<rect x="0" y="436.878" width="34.3857" height="48.73" class="st8"/>
			<text x="7.23" y="455.84" class="st2" v:langID="2052"><v:paragraph v:horizAlign="1"/><v:tabList/>17<v:newlineChar/><tspan
						x="12.21" dy="1.2em" class="st3">1</tspan></text>		</g>
		<g id="shape1077-143" v:mID="1077" v:groupContext="shape" transform="translate(383.806,-104.753)">
			<title>矩形.1077</title>
			<desc>20 0</desc>
			<v:userDefs>
				<v:ud v:nameU="visVersion" v:val="VT0(15):26"/>
			</v:userDefs>
			<v:textBlock v:margins="rect(4,4,4,4)" v:tabSpace="42.5197"/>
			<v:textRect cx="17.1928" cy="461.243" width="34.39" height="48.73"/>
			<rect x="0" y="436.878" width="34.3857" height="48.73" class="st1"/>
			<text x="7.23" y="455.84" class="st2" v:langID="2052"><v:paragraph v:horizAlign="1"/><v:tabList/>20<v:newlineChar/><tspan
						x="12.21" dy="1.2em" class="st3">0</tspan></text>		</g>
		<g id="group1078-147" transform="translate(687.676,54.9886) rotate(63.4921)" v:mID="1078" v:groupContext="group">
			<v:userDefs>
				<v:ud v:nameU="visVersion" v:val="VT0(15):26"/>
			</v:userDefs>
			<title>一维单向箭头.1078</title>
			<g id="shape1079-148" v:mID="1079" v:groupContext="shape">
				<title>工作表.1079</title>
				<path d="M0 484.72 L67.49 484.72 L67.49 485.61 L68.38 483.83 L67.49 482.06 L67.49 482.95 L0 482.95 L0 484.72 Z"
						class="st4"/>
				<path d="M0 484.72 L67.49 484.72 L67.49 485.61 L68.38 483.83 L67.49 482.06 L67.49 482.95 L0 482.95" class="st5"/>
			</g>
			<g id="shape1080-151" v:mID="1080" v:groupContext="shape">
				<title>工作表.1080</title>
				<path d="M0 484.72 L67.49 484.72 L67.49 485.61 L68.38 483.83 L67.49 482.06 L67.49 482.95 L0 482.95 L0 484.72"
						class="st6"/>
			</g>
			<g id="shape1081-154" v:mID="1081" v:groupContext="shape" transform="translate(-0.876795,-0.902723)">
				<title>工作表.1081</title>
				<rect x="0" y="483.863" width="0.385972" height="1.74532" class="st7"/>
			</g>
		</g>
		<g id="group1082-156" transform="translate(819.313,439.785) rotate(110.425)" v:mID="1082" v:groupContext="group">
			<v:userDefs>
				<v:ud v:nameU="visVersion" v:val="VT0(15):26"/>
			</v:userDefs>
			<title>一维单向箭头.1082</title>
			<g id="shape1083-157" v:mID="1083" v:groupContext="shape">
				<title>工作表.1083</title>
				<path d="M0 484.72 L64.41 484.72 L64.41 485.61 L65.3 483.83 L64.41 482.06 L64.41 482.95 L0 482.95 L0 484.72 Z"
						class="st4"/>
				<path d="M0 484.72 L64.41 484.72 L64.41 485.61 L65.3 483.83 L64.41 482.06 L64.41 482.95 L0 482.95" class="st5"/>
			</g>
			<g id="shape1084-160" v:mID="1084" v:groupContext="shape">
				<title>工作表.1084</title>
				<path d="M0 484.72 L64.41 484.72 L64.41 485.61 L65.3 483.83 L64.41 482.06 L64.41 482.95 L0 482.95 L0 484.72"
						class="st6"/>
			</g>
			<g id="shape1085-163" v:mID="1085" v:groupContext="shape" transform="translate(-0.837261,-0.902723)">
				<title>工作表.1085</title>
				<rect x="0" y="483.863" width="0.368569" height="1.74532" class="st7"/>
			</g>
		</g>
		<g id="group1086-165" transform="translate(785.598,30.2089) rotate(60.1629)" v:mID="1086" v:groupContext="group">
			<v:userDefs>
				<v:ud v:nameU="visVersion" v:val="VT0(15):26"/>
			</v:userDefs>
			<title>一维单向箭头.1086</title>
			<g id="shape1087-166" v:mID="1087" v:groupContext="shape">
				<title>工作表.1087</title>
				<path d="M0 484.72 L69.66 484.72 L69.66 485.61 L70.54 483.83 L69.66 482.06 L69.66 482.95 L0 482.95 L0 484.72 Z"
						class="st4"/>
				<path d="M0 484.72 L69.66 484.72 L69.66 485.61 L70.54 483.83 L69.66 482.06 L69.66 482.95 L0 482.95" class="st5"/>
			</g>
			<g id="shape1088-169" v:mID="1088" v:groupContext="shape">
				<title>工作表.1088</title>
				<path d="M0 484.72 L69.66 484.72 L69.66 485.61 L70.54 483.83 L69.66 482.06 L69.66 482.95 L0 482.95 L0 484.72"
						class="st6"/>
			</g>
			<g id="shape1089-172" v:mID="1089" v:groupContext="shape" transform="translate(-0.904521,-0.902723)">
				<title>工作表.1089</title>
				<rect x="0" y="483.863" width="0.398177" height="1.74532" class="st7"/>
			</g>
		</g>
		<g id="shape1090-174" v:mID="1090" v:groupContext="shape" transform="translate(351.251,-0.375)">
			<title>矩形.1090</title>
			<desc>18 0</desc>
			<v:userDefs>
				<v:ud v:nameU="visVersion" v:val="VT0(15):26"/>
			</v:userDefs>
			<v:textBlock v:margins="rect(4,4,4,4)" v:tabSpace="42.5197"/>
			<v:textRect cx="17.1928" cy="461.243" width="34.39" height="48.73"/>
			<rect x="0" y="436.878" width="34.3857" height="48.73" class="st8"/>
			<text x="7.23" y="455.84" class="st2" v:langID="2052"><v:paragraph v:horizAlign="1"/><v:tabList/>18<v:newlineChar/><tspan
						x="12.21" dy="1.2em" class="st3">0</tspan></text>		</g>
		<g id="group1091-178" transform="translate(783.467,180.401) rotate(65.5245)" v:mID="1091" v:groupContext="group">
			<v:userDefs>
				<v:ud v:nameU="visVersion" v:val="VT0(15):26"/>
			</v:userDefs>
			<title>一维单向箭头.1091</title>
			<g id="shape1092-179" v:mID="1092" v:groupContext="shape">
				<title>工作表.1092</title>
				<path d="M0 484.72 L60.25 484.72 L60.25 485.61 L61.14 483.83 L60.25 482.06 L60.25 482.95 L0 482.95 L0 484.72 Z"
						class="st4"/>
				<path d="M0 484.72 L60.25 484.72 L60.25 485.61 L61.14 483.83 L60.25 482.06 L60.25 482.95 L0 482.95" class="st5"/>
			</g>
			<g id="shape1093-182" v:mID="1093" v:groupContext="shape">
				<title>工作表.1093</title>
				<path d="M0 484.72 L60.25 484.72 L60.25 485.61 L61.14 483.83 L60.25 482.06 L60.25 482.95 L0 482.95 L0 484.72"
						class="st6"/>
			</g>
			<g id="shape1094-185" v:mID="1094" v:groupContext="shape" transform="translate(-0.783978,-0.902723)">
				<title>工作表.1094</title>
				<rect x="0" y="483.863" width="0.345113" height="1.74532" class="st7"/>
			</g>
		</g>
		<g id="shape1095-187" v:mID="1095" v:groupContext="shape" transform="translate(299.266,-0.375)">
			<title>矩形.1095</title>
			<desc>16 0</desc>
			<v:userDefs>
				<v:ud v:nameU="visVersion" v:val="VT0(15):26"/>
			</v:userDefs>
			<v:textBlock v:margins="rect(4,4,4,4)" v:tabSpace="42.5197"/>
			<v:textRect cx="17.1928" cy="461.243" width="34.39" height="48.73"/>
			<rect x="0" y="436.878" width="34.3857" height="48.73" class="st8"/>
			<text x="7.23" y="455.84" class="st2" v:langID="2052"><v:paragraph v:horizAlign="1"/><v:tabList/>16<v:newlineChar/><tspan
						x="12.21" dy="1.2em" class="st3">0</tspan></text>		</g>
		<g id="group1096-191" transform="translate(779.473,589.862) rotate(115.593)" v:mID="1096" v:groupContext="group">
			<v:userDefs>
				<v:ud v:nameU="visVersion" v:val="VT0(15):26"/>
			</v:userDefs>
			<title>一维单向箭头.1096</title>
			<g id="shape1097-192" v:mID="1097" v:groupContext="shape">
				<title>工作表.1097</title>
				<path d="M0 484.72 L60.81 484.72 L60.81 485.61 L61.7 483.83 L60.81 482.06 L60.81 482.95 L0 482.95 L0 484.72 Z"
						class="st4"/>
				<path d="M0 484.72 L60.81 484.72 L60.81 485.61 L61.7 483.83 L60.81 482.06 L60.81 482.95 L0 482.95" class="st5"/>
			</g>
			<g id="shape1098-195" v:mID="1098" v:groupContext="shape">
				<title>工作表.1098</title>
				<path d="M0 484.72 L60.81 484.72 L60.81 485.61 L61.7 483.83 L60.81 482.06 L60.81 482.95 L0 482.95 L0 484.72"
						class="st6"/>
			</g>
			<g id="shape1099-198" v:mID="1099" v:groupContext="shape" transform="translate(-0.791154,-0.902723)">
				<title>工作表.1099</title>
				<rect x="0" y="483.863" width="0.348272" height="1.74532" class="st7"/>
			</g>
		</g>
	</g>
</svg>
