<?xml version="1.0" encoding="UTF-8" standalone="no"?>
<!DOCTYPE svg PUBLIC "-//W3C//DTD SVG 1.1//EN" "http://www.w3.org/Graphics/SVG/1.1/DTD/svg11.dtd">
<!-- 由 Microsoft Visio, SVG Export 生成 AVLTree2.svg 页-1 -->
<svg xmlns="http://www.w3.org/2000/svg" xmlns:xlink="http://www.w3.org/1999/xlink" xmlns:ev="http://www.w3.org/2001/xml-events"
		xmlns:v="http://schemas.microsoft.com/visio/2003/SVGExtensions/" width="7.43337in" height="4.54167in"
		viewBox="0 0 535.203 327" xml:space="preserve" color-interpolation-filters="sRGB" class="st9">
	<v:documentProperties v:langID="2052" v:metric="true" v:viewMarkup="false"/>

	<style type="text/css">
	<![CDATA[
		.st1 {fill:#ffffff}
		.st2 {stroke:none;stroke-linecap:round;stroke-linejoin:round;stroke-width:0.75}
		.st3 {stroke:#000000;stroke-linecap:round;stroke-linejoin:round;stroke-width:0.24}
		.st4 {fill:#ffffff;stroke:none;stroke-linecap:round;stroke-linejoin:round;stroke-width:0.24;visibility:hidden}
		.st5 {fill:#c05046;stroke:#000000;stroke-linecap:round;stroke-linejoin:round;stroke-width:0.75}
		.st6 {fill:#000000;font-family:Cambria Math;font-size:1.5em}
		.st7 {fill:#ffffff;stroke:#000000;stroke-linecap:round;stroke-linejoin:round;stroke-width:0.75}
		.st8 {fill:none;stroke:none;stroke-linecap:round;stroke-linejoin:round;stroke-width:0.75}
		.st9 {fill:none;fill-rule:evenodd;font-size:12px;overflow:visible;stroke-linecap:square;stroke-miterlimit:3}
	]]>
	</style>

	<g v:mID="0" v:index="1" v:groupContext="foregroundPage">
		<title>页-1</title>
		<v:pageProperties v:drawingScale="0.0393701" v:pageScale="0.0393701" v:drawingUnits="24" v:shadowOffsetX="8.50394"
				v:shadowOffsetY="-8.50394"/>
		<g id="group311-1" transform="translate(264.766,-171.587) rotate(37.6753)" v:mID="311" v:groupContext="group">
			<v:userDefs>
				<v:ud v:nameU="visVersion" v:val="VT0(15):26"/>
			</v:userDefs>
			<title>一维单向箭头.311</title>
			<g id="shape312-2" v:mID="312" v:groupContext="shape">
				<title>工作表.312</title>
				<path d="M0 326.11 L49.05 326.11 L49.05 327 L49.94 325.22 L49.05 323.45 L49.05 324.34 L0 324.34 L0 326.11 Z"
						class="st1"/>
				<path d="M0 326.11 L49.05 326.11 L49.05 327 L49.94 325.22 L49.05 323.45 L49.05 324.34 L0 324.34" class="st2"/>
			</g>
			<g id="shape313-5" v:mID="313" v:groupContext="shape">
				<title>工作表.313</title>
				<path d="M0 326.11 L49.05 326.11 L49.05 327 L49.94 325.22 L49.05 323.45 L49.05 324.34 L0 324.34 L0 326.11"
						class="st3"/>
			</g>
			<g id="shape314-8" v:mID="314" v:groupContext="shape" transform="translate(-0.640282,-0.902723)">
				<title>工作表.314</title>
				<rect x="0" y="325.255" width="0.281857" height="1.74532" class="st4"/>
			</g>
		</g>
		<g id="group315-10" transform="translate(260.971,346.12) rotate(143.164)" v:mID="315" v:groupContext="group">
			<v:userDefs>
				<v:ud v:nameU="visVersion" v:val="VT0(15):26"/>
			</v:userDefs>
			<title>一维单向箭头.315</title>
			<g id="shape316-11" v:mID="316" v:groupContext="shape">
				<title>工作表.316</title>
				<path d="M0 326.11 L50.02 326.11 L50.02 327 L50.91 325.22 L50.02 323.45 L50.02 324.34 L0 324.34 L0 326.11 Z"
						class="st1"/>
				<path d="M0 326.11 L50.02 326.11 L50.02 327 L50.91 325.22 L50.02 323.45 L50.02 324.34 L0 324.34" class="st2"/>
			</g>
			<g id="shape317-14" v:mID="317" v:groupContext="shape">
				<title>工作表.317</title>
				<path d="M0 326.11 L50.02 326.11 L50.02 327 L50.91 325.22 L50.02 323.45 L50.02 324.34 L0 324.34 L0 326.11"
						class="st3"/>
			</g>
			<g id="shape318-17" v:mID="318" v:groupContext="shape" transform="translate(-0.652742,-0.902723)">
				<title>工作表.318</title>
				<rect x="0" y="325.255" width="0.287342" height="1.74532" class="st4"/>
			</g>
		</g>
		<g id="shape319-19" v:mID="319" v:groupContext="shape" transform="translate(41.1189,-241.176)">
			<title>圆形.319</title>
			<desc>1</desc>
			<v:userDefs>
				<v:ud v:nameU="visVersion" v:val="VT0(15):26"/>
			</v:userDefs>
			<v:textBlock v:margins="rect(4,4,4,4)" v:tabSpace="42.5197"/>
			<v:textRect cx="24.8736" cy="302.126" width="49.75" height="49.7473"/>
			<path d="M0 302.13 A24.8736 24.8736 0 0 1 49.75 302.13 A24.8736 24.8736 0 1 1 0 302.13 Z" class="st5"/>
			<text x="19.89" y="307.53" class="st6" v:langID="2052"><v:paragraph v:horizAlign="1"/><v:tabList/>1</text>		</g>
		<g id="shape320-22" v:mID="320" v:groupContext="shape" transform="translate(80.6421,-160.909)">
			<title>圆形.320</title>
			<desc>2</desc>
			<v:userDefs>
				<v:ud v:nameU="visVersion" v:val="VT0(15):26"/>
			</v:userDefs>
			<v:textBlock v:margins="rect(4,4,4,4)" v:tabSpace="42.5197"/>
			<v:textRect cx="24.8736" cy="302.126" width="49.75" height="49.7473"/>
			<path d="M0 302.13 A24.8736 24.8736 0 0 1 49.75 302.13 A24.8736 24.8736 0 1 1 0 302.13 Z" class="st5"/>
			<text x="19.89" y="307.53" class="st6" v:langID="2052"><v:paragraph v:horizAlign="1"/><v:tabList/>2</text>		</g>
		<g id="shape321-25" v:mID="321" v:groupContext="shape" transform="translate(0.375,-160.909)">
			<title>圆形.321</title>
			<desc>A</desc>
			<v:userDefs>
				<v:ud v:nameU="visVersion" v:val="VT0(15):26"/>
			</v:userDefs>
			<v:textBlock v:margins="rect(4,4,4,4)" v:tabSpace="42.5197"/>
			<v:textRect cx="24.8736" cy="302.126" width="49.75" height="49.7473"/>
			<path d="M0 302.13 A24.8736 24.8736 0 0 1 49.75 302.13 A24.8736 24.8736 0 1 1 0 302.13 Z" class="st7"/>
			<text x="19.27" y="307.53" class="st6" v:langID="2052"><v:paragraph v:horizAlign="1"/><v:tabList/>A</text>		</g>
		<g id="shape322-28" v:mID="322" v:groupContext="shape" transform="translate(125.659,-80.6421)">
			<title>圆形.322</title>
			<desc>3</desc>
			<v:userDefs>
				<v:ud v:nameU="visVersion" v:val="VT0(15):26"/>
			</v:userDefs>
			<v:textBlock v:margins="rect(4,4,4,4)" v:tabSpace="42.5197"/>
			<v:textRect cx="24.8736" cy="302.126" width="49.75" height="49.7473"/>
			<path d="M0 302.13 A24.8736 24.8736 0 0 1 49.75 302.13 A24.8736 24.8736 0 1 1 0 302.13 Z" class="st5"/>
			<text x="19.89" y="307.53" class="st6" v:langID="2052"><v:paragraph v:horizAlign="1"/><v:tabList/>3</text>		</g>
		<g id="shape323-31" v:mID="323" v:groupContext="shape" transform="translate(45.3917,-80.6421)">
			<title>圆形.323</title>
			<desc>B</desc>
			<v:userDefs>
				<v:ud v:nameU="visVersion" v:val="VT0(15):26"/>
			</v:userDefs>
			<v:textBlock v:margins="rect(4,4,4,4)" v:tabSpace="42.5197"/>
			<v:textRect cx="24.8736" cy="302.126" width="49.75" height="49.7473"/>
			<path d="M0 302.13 A24.8736 24.8736 0 0 1 49.75 302.13 A24.8736 24.8736 0 1 1 0 302.13 Z" class="st7"/>
			<text x="19.37" y="307.53" class="st6" v:langID="2052"><v:paragraph v:horizAlign="1"/><v:tabList/>B</text>		</g>
		<g id="group324-34" transform="translate(288.018,-103.1) rotate(34.1359)" v:mID="324" v:groupContext="group">
			<v:userDefs>
				<v:ud v:nameU="visVersion" v:val="VT0(15):26"/>
			</v:userDefs>
			<title>一维单向箭头.324</title>
			<g id="shape325-35" v:mID="325" v:groupContext="shape">
				<title>工作表.325</title>
				<path d="M0 326.11 L53.5 326.11 L53.5 327 L54.39 325.22 L53.5 323.45 L53.5 324.34 L0 324.34 L0 326.11 Z"
						class="st1"/>
				<path d="M0 326.11 L53.5 326.11 L53.5 327 L54.39 325.22 L53.5 323.45 L53.5 324.34 L0 324.34" class="st2"/>
			</g>
			<g id="shape326-38" v:mID="326" v:groupContext="shape">
				<title>工作表.326</title>
				<path d="M0 326.11 L53.5 326.11 L53.5 327 L54.39 325.22 L53.5 323.45 L53.5 324.34 L0 324.34 L0 326.11" class="st3"/>
			</g>
			<g id="shape327-41" v:mID="327" v:groupContext="shape" transform="translate(-0.697364,-0.902723)">
				<title>工作表.327</title>
				<rect x="0" y="325.255" width="0.306985" height="1.74532" class="st4"/>
			</g>
		</g>
		<g id="group328-43" transform="translate(318.394,411.965) rotate(139.114)" v:mID="328" v:groupContext="group">
			<v:userDefs>
				<v:ud v:nameU="visVersion" v:val="VT0(15):26"/>
			</v:userDefs>
			<title>一维单向箭头.328</title>
			<g id="shape329-44" v:mID="329" v:groupContext="shape">
				<title>工作表.329</title>
				<path d="M0 326.11 L45.74 326.11 L45.74 327 L46.63 325.22 L45.74 323.45 L45.74 324.34 L0 324.34 L0 326.11 Z"
						class="st1"/>
				<path d="M0 326.11 L45.74 326.11 L45.74 327 L46.63 325.22 L45.74 323.45 L45.74 324.34 L0 324.34" class="st2"/>
			</g>
			<g id="shape330-47" v:mID="330" v:groupContext="shape">
				<title>工作表.330</title>
				<path d="M0 326.11 L45.74 326.11 L45.74 327 L46.63 325.22 L45.74 323.45 L45.74 324.34 L0 324.34 L0 326.11"
						class="st3"/>
			</g>
			<g id="shape331-50" v:mID="331" v:groupContext="shape" transform="translate(-0.597858,-0.902723)">
				<title>工作表.331</title>
				<rect x="0" y="325.255" width="0.263182" height="1.74532" class="st4"/>
			</g>
		</g>
		<g id="shape332-52" v:mID="332" v:groupContext="shape" transform="translate(170.269,-292.036)">
			<title>工作表.332</title>
			<desc>RR</desc>
			<v:textBlock v:margins="rect(4,4,4,4)" v:tabSpace="42.5197"/>
			<v:textRect cx="66.1263" cy="309.706" width="132.26" height="34.5891"/>
			<rect x="0" y="292.411" width="132.253" height="34.5891" class="st8"/>
			<text x="54.95" y="315.11" class="st6" v:langID="2052"><v:paragraph v:horizAlign="1"/><v:tabList/>RR</text>		</g>
		<g id="group333-55" transform="translate(211.979,-115.021)" v:mID="333" v:groupContext="group">
			<v:userDefs>
				<v:ud v:nameU="visVersion" v:val="VT0(15):26"/>
			</v:userDefs>
			<title>一维单向箭头.333</title>
			<g id="shape334-56" v:mID="334" v:groupContext="shape">
				<title>工作表.334</title>
				<path d="M0 306.65 L33.91 306.65 L33.91 327 L50.87 286.31 L33.91 245.61 L33.91 265.96 L0 265.96 L0 306.65 Z"
						class="st1"/>
				<path d="M0 306.65 L33.91 306.65 L33.91 327 L50.87 286.31 L33.91 245.61 L33.91 265.96 L0 265.96" class="st2"/>
			</g>
			<g id="shape335-59" v:mID="335" v:groupContext="shape">
				<title>工作表.335</title>
				<path d="M0 306.65 L33.91 306.65 L33.91 327 L50.87 286.31 L33.91 245.61 L33.91 265.96 L0 265.96 L0 306.65"
						class="st3"/>
			</g>
			<g id="shape336-62" v:mID="336" v:groupContext="shape" transform="translate(-0.65222,-20.6911)">
				<title>工作表.336</title>
				<rect x="0" y="286.996" width="0.287112" height="40.004" class="st4"/>
			</g>
		</g>
		<g id="group337-64" transform="translate(557.455,375.617) rotate(150.65)" v:mID="337" v:groupContext="group">
			<v:userDefs>
				<v:ud v:nameU="visVersion" v:val="VT0(15):26"/>
			</v:userDefs>
			<title>一维单向箭头.337</title>
			<g id="shape338-65" v:mID="338" v:groupContext="shape">
				<title>工作表.338</title>
				<path d="M0 326.11 L61.38 326.11 L61.38 327 L62.27 325.22 L61.38 323.45 L61.38 324.34 L0 324.34 L0 326.11 Z"
						class="st1"/>
				<path d="M0 326.11 L61.38 326.11 L61.38 327 L62.27 325.22 L61.38 323.45 L61.38 324.34 L0 324.34" class="st2"/>
			</g>
			<g id="shape339-68" v:mID="339" v:groupContext="shape">
				<title>工作表.339</title>
				<path d="M0 326.11 L61.38 326.11 L61.38 327 L62.27 325.22 L61.38 323.45 L61.38 324.34 L0 324.34 L0 326.11"
						class="st3"/>
			</g>
			<g id="shape340-71" v:mID="340" v:groupContext="shape" transform="translate(-0.7984,-0.902723)">
				<title>工作表.340</title>
				<rect x="0" y="325.255" width="0.351462" height="1.74532" class="st4"/>
			</g>
		</g>
		<g id="group341-73" transform="translate(543.493,-198.752) rotate(26.5651)" v:mID="341" v:groupContext="group">
			<v:userDefs>
				<v:ud v:nameU="visVersion" v:val="VT0(15):26"/>
			</v:userDefs>
			<title>一维单向箭头.341</title>
			<g id="shape342-74" v:mID="342" v:groupContext="shape">
				<title>工作表.342</title>
				<path d="M0 326.11 L67.36 326.11 L67.36 327 L68.24 325.22 L67.36 323.45 L67.36 324.34 L0 324.34 L0 326.11 Z"
						class="st1"/>
				<path d="M0 326.11 L67.36 326.11 L67.36 327 L68.24 325.22 L67.36 323.45 L67.36 324.34 L0 324.34" class="st2"/>
			</g>
			<g id="shape343-77" v:mID="343" v:groupContext="shape">
				<title>工作表.343</title>
				<path d="M0 326.11 L67.36 326.11 L67.36 327 L68.24 325.22 L67.36 323.45 L67.36 324.34 L0 324.34 L0 326.11"
						class="st3"/>
			</g>
			<g id="shape344-80" v:mID="344" v:groupContext="shape" transform="translate(-0.875045,-0.902723)">
				<title>工作表.344</title>
				<rect x="0" y="325.255" width="0.385202" height="1.74532" class="st4"/>
			</g>
		</g>
		<g id="shape345-82" v:mID="345" v:groupContext="shape" transform="translate(373.175,-234.862)">
			<title>圆形.345</title>
			<desc>2</desc>
			<v:userDefs>
				<v:ud v:nameU="visVersion" v:val="VT0(15):26"/>
			</v:userDefs>
			<v:textBlock v:margins="rect(4,4,4,4)" v:tabSpace="42.5197"/>
			<v:textRect cx="24.8736" cy="302.126" width="49.75" height="49.7473"/>
			<path d="M0 302.13 A24.8736 24.8736 0 0 1 49.75 302.13 A24.8736 24.8736 0 1 1 0 302.13 Z" class="st5"/>
			<text x="19.89" y="307.53" class="st6" v:langID="2052"><v:paragraph v:horizAlign="1"/><v:tabList/>2</text>		</g>
		<g id="shape346-85" v:mID="346" v:groupContext="shape" transform="translate(318.9,-154.595)">
			<title>圆形.346</title>
			<desc>1</desc>
			<v:userDefs>
				<v:ud v:nameU="visVersion" v:val="VT0(15):26"/>
			</v:userDefs>
			<v:textBlock v:margins="rect(4,4,4,4)" v:tabSpace="42.5197"/>
			<v:textRect cx="24.8736" cy="302.126" width="49.75" height="49.7473"/>
			<path d="M0 302.13 A24.8736 24.8736 0 0 1 49.75 302.13 A24.8736 24.8736 0 1 1 0 302.13 Z" class="st5"/>
			<text x="19.89" y="307.53" class="st6" v:langID="2052"><v:paragraph v:horizAlign="1"/><v:tabList/>1</text>		</g>
		<g id="shape347-88" v:mID="347" v:groupContext="shape" transform="translate(434.214,-154.595)">
			<title>圆形.347</title>
			<desc>3</desc>
			<v:userDefs>
				<v:ud v:nameU="visVersion" v:val="VT0(15):26"/>
			</v:userDefs>
			<v:textBlock v:margins="rect(4,4,4,4)" v:tabSpace="42.5197"/>
			<v:textRect cx="24.8736" cy="302.126" width="49.75" height="49.7473"/>
			<path d="M0 302.13 A24.8736 24.8736 0 0 1 49.75 302.13 A24.8736 24.8736 0 1 1 0 302.13 Z" class="st5"/>
			<text x="19.89" y="307.53" class="st6" v:langID="2052"><v:paragraph v:horizAlign="1"/><v:tabList/>3</text>		</g>
		<g id="shape348-91" v:mID="348" v:groupContext="shape" transform="translate(485.08,-74.328)">
			<title>圆形.348</title>
			<desc>C</desc>
			<v:userDefs>
				<v:ud v:nameU="visVersion" v:val="VT0(15):26"/>
			</v:userDefs>
			<v:textBlock v:margins="rect(4,4,4,4)" v:tabSpace="42.5197"/>
			<v:textRect cx="24.8736" cy="302.126" width="49.75" height="49.7473"/>
			<path d="M0 302.13 A24.8736 24.8736 0 0 1 49.75 302.13 A24.8736 24.8736 0 1 1 0 302.13 Z" class="st7"/>
			<text x="19.81" y="307.53" class="st6" v:langID="2052"><v:paragraph v:horizAlign="1"/><v:tabList/>C</text>		</g>
		<g id="shape349-94" v:mID="349" v:groupContext="shape" transform="translate(277.088,-74.328)">
			<title>圆形.349</title>
			<desc>A</desc>
			<v:userDefs>
				<v:ud v:nameU="visVersion" v:val="VT0(15):26"/>
			</v:userDefs>
			<v:textBlock v:margins="rect(4,4,4,4)" v:tabSpace="42.5197"/>
			<v:textRect cx="24.8736" cy="302.126" width="49.75" height="49.7473"/>
			<path d="M0 302.13 A24.8736 24.8736 0 0 1 49.75 302.13 A24.8736 24.8736 0 1 1 0 302.13 Z" class="st7"/>
			<text x="19.27" y="307.53" class="st6" v:langID="2052"><v:paragraph v:horizAlign="1"/><v:tabList/>A</text>		</g>
		<g id="group350-97" transform="translate(626.415,-106.473) rotate(30.9638)" v:mID="350" v:groupContext="group">
			<v:userDefs>
				<v:ud v:nameU="visVersion" v:val="VT0(15):26"/>
			</v:userDefs>
			<title>一维单向箭头.350</title>
			<g id="shape351-98" v:mID="351" v:groupContext="shape">
				<title>工作表.351</title>
				<path d="M0 326.11 L58.43 326.11 L58.43 327 L59.32 325.22 L58.43 323.45 L58.43 324.34 L0 324.34 L0 326.11 Z"
						class="st1"/>
				<path d="M0 326.11 L58.43 326.11 L58.43 327 L59.32 325.22 L58.43 323.45 L58.43 324.34 L0 324.34" class="st2"/>
			</g>
			<g id="shape352-101" v:mID="352" v:groupContext="shape">
				<title>工作表.352</title>
				<path d="M0 326.11 L58.43 326.11 L58.43 327 L59.32 325.22 L58.43 323.45 L58.43 324.34 L0 324.34 L0 326.11"
						class="st3"/>
			</g>
			<g id="shape353-104" v:mID="353" v:groupContext="shape" transform="translate(-0.760612,-0.902723)">
				<title>工作表.353</title>
				<rect x="0" y="325.255" width="0.334828" height="1.74532" class="st4"/>
			</g>
		</g>
		<g id="group354-106" transform="translate(535.517,435.094) rotate(143.873)" v:mID="354" v:groupContext="group">
			<v:userDefs>
				<v:ud v:nameU="visVersion" v:val="VT0(15):26"/>
			</v:userDefs>
			<title>一维单向箭头.354</title>
			<g id="shape355-107" v:mID="355" v:groupContext="shape">
				<title>工作表.355</title>
				<path d="M0 326.11 L50.88 326.11 L50.88 327 L51.77 325.22 L50.88 323.45 L50.88 324.34 L0 324.34 L0 326.11 Z"
						class="st1"/>
				<path d="M0 326.11 L50.88 326.11 L50.88 327 L51.77 325.22 L50.88 323.45 L50.88 324.34 L0 324.34" class="st2"/>
			</g>
			<g id="shape356-110" v:mID="356" v:groupContext="shape">
				<title>工作表.356</title>
				<path d="M0 326.11 L50.88 326.11 L50.88 327 L51.77 325.22 L50.88 323.45 L50.88 324.34 L0 324.34 L0 326.11"
						class="st3"/>
			</g>
			<g id="shape357-113" v:mID="357" v:groupContext="shape" transform="translate(-0.663755,-0.902723)">
				<title>工作表.357</title>
				<rect x="0" y="325.255" width="0.29219" height="1.74532" class="st4"/>
			</g>
		</g>
		<g id="shape358-115" v:mID="358" v:groupContext="shape" transform="translate(90.1032,-0.375)">
			<title>圆形.358</title>
			<desc>D</desc>
			<v:userDefs>
				<v:ud v:nameU="visVersion" v:val="VT0(15):26"/>
			</v:userDefs>
			<v:textBlock v:margins="rect(4,4,4,4)" v:tabSpace="42.5197"/>
			<v:textRect cx="24.8736" cy="302.126" width="49.75" height="49.7473"/>
			<path d="M0 302.13 A24.8736 24.8736 0 0 1 49.75 302.13 A24.8736 24.8736 0 1 1 0 302.13 Z" class="st7"/>
			<text x="18.92" y="307.53" class="st6" v:langID="2052"><v:paragraph v:horizAlign="1"/><v:tabList/>D</text>		</g>
		<g id="shape359-118" v:mID="359" v:groupContext="shape" transform="translate(170.37,-0.375)">
			<title>圆形.359</title>
			<desc>C</desc>
			<v:userDefs>
				<v:ud v:nameU="visVersion" v:val="VT0(15):26"/>
			</v:userDefs>
			<v:textBlock v:margins="rect(4,4,4,4)" v:tabSpace="42.5197"/>
			<v:textRect cx="24.8736" cy="302.126" width="49.75" height="49.7473"/>
			<path d="M0 302.13 A24.8736 24.8736 0 0 1 49.75 302.13 A24.8736 24.8736 0 1 1 0 302.13 Z" class="st7"/>
			<text x="19.81" y="307.53" class="st6" v:langID="2052"><v:paragraph v:horizAlign="1"/><v:tabList/>C</text>		</g>
		<g id="group360-121" transform="translate(362.36,493.137) rotate(139.358)" v:mID="360" v:groupContext="group">
			<v:userDefs>
				<v:ud v:nameU="visVersion" v:val="VT0(15):26"/>
			</v:userDefs>
			<title>一维单向箭头.360</title>
			<g id="shape361-122" v:mID="361" v:groupContext="shape">
				<title>工作表.361</title>
				<path d="M0 326.11 L45.97 326.11 L45.97 327 L46.86 325.22 L45.97 323.45 L45.97 324.34 L0 324.34 L0 326.11 Z"
						class="st1"/>
				<path d="M0 326.11 L45.97 326.11 L45.97 327 L46.86 325.22 L45.97 323.45 L45.97 324.34 L0 324.34" class="st2"/>
			</g>
			<g id="shape362-125" v:mID="362" v:groupContext="shape">
				<title>工作表.362</title>
				<path d="M0 326.11 L45.97 326.11 L45.97 327 L46.86 325.22 L45.97 323.45 L45.97 324.34 L0 324.34 L0 326.11"
						class="st3"/>
			</g>
			<g id="shape363-128" v:mID="363" v:groupContext="shape" transform="translate(-0.600822,-0.902723)">
				<title>工作表.363</title>
				<rect x="0" y="325.255" width="0.264487" height="1.74532" class="st4"/>
			</g>
		</g>
		<g id="group364-130" transform="translate(333.886,-22.2545) rotate(34.3172)" v:mID="364" v:groupContext="group">
			<v:userDefs>
				<v:ud v:nameU="visVersion" v:val="VT0(15):26"/>
			</v:userDefs>
			<title>一维单向箭头.364</title>
			<g id="shape365-131" v:mID="365" v:groupContext="shape">
				<title>工作表.365</title>
				<path d="M0 326.11 L53.25 326.11 L53.25 327 L54.13 325.22 L53.25 323.45 L53.25 324.34 L0 324.34 L0 326.11 Z"
						class="st1"/>
				<path d="M0 326.11 L53.25 326.11 L53.25 327 L54.13 325.22 L53.25 323.45 L53.25 324.34 L0 324.34" class="st2"/>
			</g>
			<g id="shape366-134" v:mID="366" v:groupContext="shape">
				<title>工作表.366</title>
				<path d="M0 326.11 L53.25 326.11 L53.25 327 L54.13 325.22 L53.25 323.45 L53.25 324.34 L0 324.34 L0 326.11"
						class="st3"/>
			</g>
			<g id="shape367-137" v:mID="367" v:groupContext="shape" transform="translate(-0.694129,-0.902723)">
				<title>工作表.367</title>
				<rect x="0" y="325.255" width="0.305561" height="1.74532" class="st4"/>
			</g>
		</g>
		<g id="shape368-139" v:mID="368" v:groupContext="shape" transform="translate(352.828,-74.328)">
			<title>圆形.368</title>
			<desc>B</desc>
			<v:userDefs>
				<v:ud v:nameU="visVersion" v:val="VT0(15):26"/>
			</v:userDefs>
			<v:textBlock v:margins="rect(4,4,4,4)" v:tabSpace="42.5197"/>
			<v:textRect cx="24.8736" cy="302.126" width="49.75" height="49.7473"/>
			<path d="M0 302.13 A24.8736 24.8736 0 0 1 49.75 302.13 A24.8736 24.8736 0 1 1 0 302.13 Z" class="st7"/>
			<text x="19.37" y="307.53" class="st6" v:langID="2052"><v:paragraph v:horizAlign="1"/><v:tabList/>B</text>		</g>
		<g id="shape369-142" v:mID="369" v:groupContext="shape" transform="translate(413.868,-74.328)">
			<title>圆形.369</title>
			<desc>D</desc>
			<v:userDefs>
				<v:ud v:nameU="visVersion" v:val="VT0(15):26"/>
			</v:userDefs>
			<v:textBlock v:margins="rect(4,4,4,4)" v:tabSpace="42.5197"/>
			<v:textRect cx="24.8736" cy="302.126" width="49.75" height="49.7473"/>
			<path d="M0 302.13 A24.8736 24.8736 0 0 1 49.75 302.13 A24.8736 24.8736 0 1 1 0 302.13 Z" class="st7"/>
			<text x="18.92" y="307.53" class="st6" v:langID="2052"><v:paragraph v:horizAlign="1"/><v:tabList/>D</text>		</g>
		<g id="group370-145" transform="translate(561.278,-69.3867) rotate(41.973)" v:mID="370" v:groupContext="group">
			<v:userDefs>
				<v:ud v:nameU="visVersion" v:val="VT0(15):26"/>
			</v:userDefs>
			<title>一维单向箭头.370</title>
			<g id="shape371-146" v:mID="371" v:groupContext="shape">
				<title>工作表.371</title>
				<path d="M0 326.11 L44.75 326.11 L44.75 327 L45.64 325.22 L44.75 323.45 L44.75 324.34 L0 324.34 L0 326.11 Z"
						class="st1"/>
				<path d="M0 326.11 L44.75 326.11 L44.75 327 L45.64 325.22 L44.75 323.45 L44.75 324.34 L0 324.34" class="st2"/>
			</g>
			<g id="shape372-149" v:mID="372" v:groupContext="shape">
				<title>工作表.372</title>
				<path d="M0 326.11 L44.75 326.11 L44.75 327 L45.64 325.22 L44.75 323.45 L44.75 324.34 L0 324.34 L0 326.11"
						class="st3"/>
			</g>
			<g id="shape373-152" v:mID="373" v:groupContext="shape" transform="translate(-0.585143,-0.902723)">
				<title>工作表.373</title>
				<rect x="0" y="325.255" width="0.257585" height="1.74532" class="st4"/>
			</g>
		</g>
		<g id="group374-154" transform="translate(729.691,352.807) rotate(123.69)" v:mID="374" v:groupContext="group">
			<v:userDefs>
				<v:ud v:nameU="visVersion" v:val="VT0(15):26"/>
			</v:userDefs>
			<title>一维单向箭头.374</title>
			<g id="shape375-155" v:mID="375" v:groupContext="shape">
				<title>工作表.375</title>
				<path d="M0 326.11 L35.79 326.11 L35.79 327 L36.68 325.22 L35.79 323.45 L35.79 324.34 L0 324.34 L0 326.11 Z"
						class="st1"/>
				<path d="M0 326.11 L35.79 326.11 L35.79 327 L36.68 325.22 L35.79 323.45 L35.79 324.34 L0 324.34" class="st2"/>
			</g>
			<g id="shape376-158" v:mID="376" v:groupContext="shape">
				<title>工作表.376</title>
				<path d="M0 326.11 L35.79 326.11 L35.79 327 L36.68 325.22 L35.79 323.45 L35.79 324.34 L0 324.34 L0 326.11"
						class="st3"/>
			</g>
			<g id="shape377-161" v:mID="377" v:groupContext="shape" transform="translate(-0.470322,-0.902723)">
				<title>工作表.377</title>
				<rect x="0" y="325.255" width="0.20704" height="1.74532" class="st4"/>
			</g>
		</g>
	</g>
</svg>
