<?xml version="1.0" encoding="UTF-8" standalone="no"?>
<!DOCTYPE svg PUBLIC "-//W3C//DTD SVG 1.1//EN" "http://www.w3.org/Graphics/SVG/1.1/DTD/svg11.dtd">
<!-- 由 Microsoft Visio, SVG Export 生成 AVLTree1.svg 页-1 -->
<svg xmlns="http://www.w3.org/2000/svg" xmlns:xlink="http://www.w3.org/1999/xlink" xmlns:ev="http://www.w3.org/2001/xml-events"
		xmlns:v="http://schemas.microsoft.com/visio/2003/SVGExtensions/" width="7.62553in" height="4.54167in"
		viewBox="0 0 549.038 327" xml:space="preserve" color-interpolation-filters="sRGB" class="st9">
	<v:documentProperties v:langID="2052" v:metric="true" v:viewMarkup="false"/>

	<style type="text/css">
	<![CDATA[
		.st1 {fill:#ffffff}
		.st2 {stroke:none;stroke-linecap:round;stroke-linejoin:round;stroke-width:0.75}
		.st3 {stroke:#000000;stroke-linecap:round;stroke-linejoin:round;stroke-width:0.24}
		.st4 {fill:#ffffff;stroke:none;stroke-linecap:round;stroke-linejoin:round;stroke-width:0.24;visibility:hidden}
		.st5 {fill:#c05046;stroke:#000000;stroke-linecap:round;stroke-linejoin:round;stroke-width:0.75}
		.st6 {fill:#000000;font-family:Cambria Math;font-size:1.5em}
		.st7 {fill:#ffffff;stroke:#000000;stroke-linecap:round;stroke-linejoin:round;stroke-width:0.75}
		.st8 {fill:none;stroke:none;stroke-linecap:round;stroke-linejoin:round;stroke-width:0.75}
		.st9 {fill:none;fill-rule:evenodd;font-size:12px;overflow:visible;stroke-linecap:square;stroke-miterlimit:3}
	]]>
	</style>

	<g v:mID="0" v:index="1" v:groupContext="foregroundPage">
		<title>页-1</title>
		<v:pageProperties v:drawingScale="0.0393701" v:pageScale="0.0393701" v:drawingUnits="24" v:shadowOffsetX="8.50394"
				v:shadowOffsetY="-8.50394"/>
		<g id="group12-1" transform="translate(342.903,339.384) rotate(141.228)" v:mID="12" v:groupContext="group">
			<v:userDefs>
				<v:ud v:nameU="visVersion" v:val="VT0(15):26"/>
			</v:userDefs>
			<title>一维单向箭头</title>
			<g id="shape13-2" v:mID="13" v:groupContext="shape">
				<title>工作表.13</title>
				<path d="M0 326.11 L47.85 326.11 L47.85 327 L48.74 325.22 L47.85 323.45 L47.85 324.34 L0 324.34 L0 326.11 Z"
						class="st1"/>
				<path d="M0 326.11 L47.85 326.11 L47.85 327 L48.74 325.22 L47.85 323.45 L47.85 324.34 L0 324.34" class="st2"/>
			</g>
			<g id="shape14-5" v:mID="14" v:groupContext="shape">
				<title>工作表.14</title>
				<path d="M0 326.11 L47.85 326.11 L47.85 327 L48.74 325.22 L47.85 323.45 L47.85 324.34 L0 324.34 L0 326.11"
						class="st3"/>
			</g>
			<g id="shape15-8" v:mID="15" v:groupContext="shape" transform="translate(-0.62491,-0.902723)">
				<title>工作表.15</title>
				<rect x="0" y="325.255" width="0.27509" height="1.74532" class="st4"/>
			</g>
		</g>
		<g id="group16-10" transform="translate(329.621,-177.854) rotate(35.8301)" v:mID="16" v:groupContext="group">
			<v:userDefs>
				<v:ud v:nameU="visVersion" v:val="VT0(15):26"/>
			</v:userDefs>
			<title>一维单向箭头.16</title>
			<g id="shape17-11" v:mID="17" v:groupContext="shape">
				<title>工作表.17</title>
				<path d="M0 326.11 L51.25 326.11 L51.25 327 L52.14 325.22 L51.25 323.45 L51.25 324.34 L0 324.34 L0 326.11 Z"
						class="st1"/>
				<path d="M0 326.11 L51.25 326.11 L51.25 327 L52.14 325.22 L51.25 323.45 L51.25 324.34 L0 324.34" class="st2"/>
			</g>
			<g id="shape18-14" v:mID="18" v:groupContext="shape">
				<title>工作表.18</title>
				<path d="M0 326.11 L51.25 326.11 L51.25 327 L52.14 325.22 L51.25 323.45 L51.25 324.34 L0 324.34 L0 326.11"
						class="st3"/>
			</g>
			<g id="shape19-17" v:mID="19" v:groupContext="shape" transform="translate(-0.668505,-0.902723)">
				<title>工作表.19</title>
				<rect x="0" y="325.255" width="0.294281" height="1.74532" class="st4"/>
			</g>
		</g>
		<g id="shape251-19" v:mID="251" v:groupContext="shape" transform="translate(114.366,-241.176)">
			<title>圆形</title>
			<desc>1</desc>
			<v:userDefs>
				<v:ud v:nameU="visVersion" v:val="VT0(15):26"/>
			</v:userDefs>
			<v:textBlock v:margins="rect(4,4,4,4)" v:tabSpace="42.5197"/>
			<v:textRect cx="24.8736" cy="302.126" width="49.75" height="49.7473"/>
			<path d="M0 302.13 A24.8736 24.8736 0 0 1 49.75 302.13 A24.8736 24.8736 0 1 1 0 302.13 Z" class="st5"/>
			<text x="19.89" y="307.53" class="st6" v:langID="2052"><v:paragraph v:horizAlign="1"/><v:tabList/>1</text>		</g>
		<g id="shape252-22" v:mID="252" v:groupContext="shape" transform="translate(76.3693,-160.909)">
			<title>圆形.252</title>
			<desc>2</desc>
			<v:userDefs>
				<v:ud v:nameU="visVersion" v:val="VT0(15):26"/>
			</v:userDefs>
			<v:textBlock v:margins="rect(4,4,4,4)" v:tabSpace="42.5197"/>
			<v:textRect cx="24.8736" cy="302.126" width="49.75" height="49.7473"/>
			<path d="M0 302.13 A24.8736 24.8736 0 0 1 49.75 302.13 A24.8736 24.8736 0 1 1 0 302.13 Z" class="st5"/>
			<text x="19.89" y="307.53" class="st6" v:langID="2052"><v:paragraph v:horizAlign="1"/><v:tabList/>2</text>		</g>
		<g id="shape253-25" v:mID="253" v:groupContext="shape" transform="translate(156.636,-160.909)">
			<title>圆形.253</title>
			<desc>A</desc>
			<v:userDefs>
				<v:ud v:nameU="visVersion" v:val="VT0(15):26"/>
			</v:userDefs>
			<v:textBlock v:margins="rect(4,4,4,4)" v:tabSpace="42.5197"/>
			<v:textRect cx="24.8736" cy="302.126" width="49.75" height="49.7473"/>
			<path d="M0 302.13 A24.8736 24.8736 0 0 1 49.75 302.13 A24.8736 24.8736 0 1 1 0 302.13 Z" class="st7"/>
			<text x="19.27" y="307.53" class="st6" v:langID="2052"><v:paragraph v:horizAlign="1"/><v:tabList/>A</text>		</g>
		<g id="shape254-28" v:mID="254" v:groupContext="shape" transform="translate(38.3722,-80.6421)">
			<title>圆形.254</title>
			<desc>3</desc>
			<v:userDefs>
				<v:ud v:nameU="visVersion" v:val="VT0(15):26"/>
			</v:userDefs>
			<v:textBlock v:margins="rect(4,4,4,4)" v:tabSpace="42.5197"/>
			<v:textRect cx="24.8736" cy="302.126" width="49.75" height="49.7473"/>
			<path d="M0 302.13 A24.8736 24.8736 0 0 1 49.75 302.13 A24.8736 24.8736 0 1 1 0 302.13 Z" class="st5"/>
			<text x="19.89" y="307.53" class="st6" v:langID="2052"><v:paragraph v:horizAlign="1"/><v:tabList/>3</text>		</g>
		<g id="shape255-31" v:mID="255" v:groupContext="shape" transform="translate(118.639,-80.6421)">
			<title>圆形.255</title>
			<desc>B</desc>
			<v:userDefs>
				<v:ud v:nameU="visVersion" v:val="VT0(15):26"/>
			</v:userDefs>
			<v:textBlock v:margins="rect(4,4,4,4)" v:tabSpace="42.5197"/>
			<v:textRect cx="24.8736" cy="302.126" width="49.75" height="49.7473"/>
			<path d="M0 302.13 A24.8736 24.8736 0 0 1 49.75 302.13 A24.8736 24.8736 0 1 1 0 302.13 Z" class="st7"/>
			<text x="19.37" y="307.53" class="st6" v:langID="2052"><v:paragraph v:horizAlign="1"/><v:tabList/>B</text>		</g>
		<g id="group256-34" transform="translate(304.906,419.651) rotate(141.228)" v:mID="256" v:groupContext="group">
			<v:userDefs>
				<v:ud v:nameU="visVersion" v:val="VT0(15):26"/>
			</v:userDefs>
			<title>一维单向箭头.256</title>
			<g id="shape257-35" v:mID="257" v:groupContext="shape">
				<title>工作表.257</title>
				<path d="M0 326.11 L47.85 326.11 L47.85 327 L48.74 325.22 L47.85 323.45 L47.85 324.34 L0 324.34 L0 326.11 Z"
						class="st1"/>
				<path d="M0 326.11 L47.85 326.11 L47.85 327 L48.74 325.22 L47.85 323.45 L47.85 324.34 L0 324.34" class="st2"/>
			</g>
			<g id="shape258-38" v:mID="258" v:groupContext="shape">
				<title>工作表.258</title>
				<path d="M0 326.11 L47.85 326.11 L47.85 327 L48.74 325.22 L47.85 323.45 L47.85 324.34 L0 324.34 L0 326.11"
						class="st3"/>
			</g>
			<g id="shape259-41" v:mID="259" v:groupContext="shape" transform="translate(-0.62491,-0.902723)">
				<title>工作表.259</title>
				<rect x="0" y="325.255" width="0.27509" height="1.74532" class="st4"/>
			</g>
		</g>
		<g id="group260-43" transform="translate(291.624,-97.5871) rotate(35.8301)" v:mID="260" v:groupContext="group">
			<v:userDefs>
				<v:ud v:nameU="visVersion" v:val="VT0(15):26"/>
			</v:userDefs>
			<title>一维单向箭头.260</title>
			<g id="shape261-44" v:mID="261" v:groupContext="shape">
				<title>工作表.261</title>
				<path d="M0 326.11 L51.25 326.11 L51.25 327 L52.14 325.22 L51.25 323.45 L51.25 324.34 L0 324.34 L0 326.11 Z"
						class="st1"/>
				<path d="M0 326.11 L51.25 326.11 L51.25 327 L52.14 325.22 L51.25 323.45 L51.25 324.34 L0 324.34" class="st2"/>
			</g>
			<g id="shape262-47" v:mID="262" v:groupContext="shape">
				<title>工作表.262</title>
				<path d="M0 326.11 L51.25 326.11 L51.25 327 L52.14 325.22 L51.25 323.45 L51.25 324.34 L0 324.34 L0 326.11"
						class="st3"/>
			</g>
			<g id="shape263-50" v:mID="263" v:groupContext="shape" transform="translate(-0.668505,-0.902723)">
				<title>工作表.263</title>
				<rect x="0" y="325.255" width="0.294281" height="1.74532" class="st4"/>
			</g>
		</g>
		<g id="shape264-52" v:mID="264" v:groupContext="shape" transform="translate(194.634,-292.036)">
			<title>工作表.264</title>
			<desc>LL</desc>
			<v:textBlock v:margins="rect(4,4,4,4)" v:tabSpace="42.5197"/>
			<v:textRect cx="66.1263" cy="309.706" width="132.26" height="34.5891"/>
			<rect x="0" y="292.411" width="132.253" height="34.5891" class="st8"/>
			<text x="56.47" y="315.11" class="st6" v:langID="2052"><v:paragraph v:horizAlign="1"/><v:tabList/>LL</text>		</g>
		<g id="group265-55" transform="translate(228.765,-102.813)" v:mID="265" v:groupContext="group">
			<v:userDefs>
				<v:ud v:nameU="visVersion" v:val="VT0(15):26"/>
			</v:userDefs>
			<title>一维单向箭头.265</title>
			<g id="shape266-56" v:mID="266" v:groupContext="shape">
				<title>工作表.266</title>
				<path d="M0 306.65 L33.91 306.65 L33.91 327 L50.87 286.31 L33.91 245.61 L33.91 265.96 L0 265.96 L0 306.65 Z"
						class="st1"/>
				<path d="M0 306.65 L33.91 306.65 L33.91 327 L50.87 286.31 L33.91 245.61 L33.91 265.96 L0 265.96" class="st2"/>
			</g>
			<g id="shape267-59" v:mID="267" v:groupContext="shape">
				<title>工作表.267</title>
				<path d="M0 306.65 L33.91 306.65 L33.91 327 L50.87 286.31 L33.91 245.61 L33.91 265.96 L0 265.96 L0 306.65"
						class="st3"/>
			</g>
			<g id="shape268-62" v:mID="268" v:groupContext="shape" transform="translate(-0.65222,-20.6911)">
				<title>工作表.268</title>
				<rect x="0" y="286.996" width="0.287112" height="40.004" class="st4"/>
			</g>
		</g>
		<g id="group269-64" transform="translate(571.291,371.548) rotate(150.65)" v:mID="269" v:groupContext="group">
			<v:userDefs>
				<v:ud v:nameU="visVersion" v:val="VT0(15):26"/>
			</v:userDefs>
			<title>一维单向箭头.269</title>
			<g id="shape270-65" v:mID="270" v:groupContext="shape">
				<title>工作表.270</title>
				<path d="M0 326.11 L61.38 326.11 L61.38 327 L62.27 325.22 L61.38 323.45 L61.38 324.34 L0 324.34 L0 326.11 Z"
						class="st1"/>
				<path d="M0 326.11 L61.38 326.11 L61.38 327 L62.27 325.22 L61.38 323.45 L61.38 324.34 L0 324.34" class="st2"/>
			</g>
			<g id="shape271-68" v:mID="271" v:groupContext="shape">
				<title>工作表.271</title>
				<path d="M0 326.11 L61.38 326.11 L61.38 327 L62.27 325.22 L61.38 323.45 L61.38 324.34 L0 324.34 L0 326.11"
						class="st3"/>
			</g>
			<g id="shape272-71" v:mID="272" v:groupContext="shape" transform="translate(-0.7984,-0.902723)">
				<title>工作表.272</title>
				<rect x="0" y="325.255" width="0.351462" height="1.74532" class="st4"/>
			</g>
		</g>
		<g id="group273-73" transform="translate(557.329,-202.821) rotate(26.5651)" v:mID="273" v:groupContext="group">
			<v:userDefs>
				<v:ud v:nameU="visVersion" v:val="VT0(15):26"/>
			</v:userDefs>
			<title>一维单向箭头.273</title>
			<g id="shape274-74" v:mID="274" v:groupContext="shape">
				<title>工作表.274</title>
				<path d="M0 326.11 L67.36 326.11 L67.36 327 L68.24 325.22 L67.36 323.45 L67.36 324.34 L0 324.34 L0 326.11 Z"
						class="st1"/>
				<path d="M0 326.11 L67.36 326.11 L67.36 327 L68.24 325.22 L67.36 323.45 L67.36 324.34 L0 324.34" class="st2"/>
			</g>
			<g id="shape275-77" v:mID="275" v:groupContext="shape">
				<title>工作表.275</title>
				<path d="M0 326.11 L67.36 326.11 L67.36 327 L68.24 325.22 L67.36 323.45 L67.36 324.34 L0 324.34 L0 326.11"
						class="st3"/>
			</g>
			<g id="shape276-80" v:mID="276" v:groupContext="shape" transform="translate(-0.875045,-0.902723)">
				<title>工作表.276</title>
				<rect x="0" y="325.255" width="0.385202" height="1.74532" class="st4"/>
			</g>
		</g>
		<g id="shape277-82" v:mID="277" v:groupContext="shape" transform="translate(387.01,-238.932)">
			<title>圆形.277</title>
			<desc>2</desc>
			<v:userDefs>
				<v:ud v:nameU="visVersion" v:val="VT0(15):26"/>
			</v:userDefs>
			<v:textBlock v:margins="rect(4,4,4,4)" v:tabSpace="42.5197"/>
			<v:textRect cx="24.8736" cy="302.126" width="49.75" height="49.7473"/>
			<path d="M0 302.13 A24.8736 24.8736 0 0 1 49.75 302.13 A24.8736 24.8736 0 1 1 0 302.13 Z" class="st5"/>
			<text x="19.89" y="307.53" class="st6" v:langID="2052"><v:paragraph v:horizAlign="1"/><v:tabList/>2</text>		</g>
		<g id="shape278-85" v:mID="278" v:groupContext="shape" transform="translate(332.736,-158.664)">
			<title>圆形.278</title>
			<desc>3</desc>
			<v:userDefs>
				<v:ud v:nameU="visVersion" v:val="VT0(15):26"/>
			</v:userDefs>
			<v:textBlock v:margins="rect(4,4,4,4)" v:tabSpace="42.5197"/>
			<v:textRect cx="24.8736" cy="302.126" width="49.75" height="49.7473"/>
			<path d="M0 302.13 A24.8736 24.8736 0 0 1 49.75 302.13 A24.8736 24.8736 0 1 1 0 302.13 Z" class="st5"/>
			<text x="19.89" y="307.53" class="st6" v:langID="2052"><v:paragraph v:horizAlign="1"/><v:tabList/>3</text>		</g>
		<g id="shape279-88" v:mID="279" v:groupContext="shape" transform="translate(448.05,-158.664)">
			<title>圆形.279</title>
			<desc>1</desc>
			<v:userDefs>
				<v:ud v:nameU="visVersion" v:val="VT0(15):26"/>
			</v:userDefs>
			<v:textBlock v:margins="rect(4,4,4,4)" v:tabSpace="42.5197"/>
			<v:textRect cx="24.8736" cy="302.126" width="49.75" height="49.7473"/>
			<path d="M0 302.13 A24.8736 24.8736 0 0 1 49.75 302.13 A24.8736 24.8736 0 1 1 0 302.13 Z" class="st5"/>
			<text x="19.89" y="307.53" class="st6" v:langID="2052"><v:paragraph v:horizAlign="1"/><v:tabList/>1</text>		</g>
		<g id="shape280-91" v:mID="280" v:groupContext="shape" transform="translate(498.916,-78.3973)">
			<title>圆形.280</title>
			<desc>A</desc>
			<v:userDefs>
				<v:ud v:nameU="visVersion" v:val="VT0(15):26"/>
			</v:userDefs>
			<v:textBlock v:margins="rect(4,4,4,4)" v:tabSpace="42.5197"/>
			<v:textRect cx="24.8736" cy="302.126" width="49.75" height="49.7473"/>
			<path d="M0 302.13 A24.8736 24.8736 0 0 1 49.75 302.13 A24.8736 24.8736 0 1 1 0 302.13 Z" class="st7"/>
			<text x="19.27" y="307.53" class="st6" v:langID="2052"><v:paragraph v:horizAlign="1"/><v:tabList/>A</text>		</g>
		<g id="shape281-94" v:mID="281" v:groupContext="shape" transform="translate(290.924,-78.3973)">
			<title>圆形.281</title>
			<desc>D</desc>
			<v:userDefs>
				<v:ud v:nameU="visVersion" v:val="VT0(15):26"/>
			</v:userDefs>
			<v:textBlock v:margins="rect(4,4,4,4)" v:tabSpace="42.5197"/>
			<v:textRect cx="24.8736" cy="302.126" width="49.75" height="49.7473"/>
			<path d="M0 302.13 A24.8736 24.8736 0 0 1 49.75 302.13 A24.8736 24.8736 0 1 1 0 302.13 Z" class="st7"/>
			<text x="18.92" y="307.53" class="st6" v:langID="2052"><v:paragraph v:horizAlign="1"/><v:tabList/>D</text>		</g>
		<g id="group282-97" transform="translate(640.25,-110.542) rotate(30.9638)" v:mID="282" v:groupContext="group">
			<v:userDefs>
				<v:ud v:nameU="visVersion" v:val="VT0(15):26"/>
			</v:userDefs>
			<title>一维单向箭头.282</title>
			<g id="shape283-98" v:mID="283" v:groupContext="shape">
				<title>工作表.283</title>
				<path d="M0 326.11 L58.43 326.11 L58.43 327 L59.32 325.22 L58.43 323.45 L58.43 324.34 L0 324.34 L0 326.11 Z"
						class="st1"/>
				<path d="M0 326.11 L58.43 326.11 L58.43 327 L59.32 325.22 L58.43 323.45 L58.43 324.34 L0 324.34" class="st2"/>
			</g>
			<g id="shape284-101" v:mID="284" v:groupContext="shape">
				<title>工作表.284</title>
				<path d="M0 326.11 L58.43 326.11 L58.43 327 L59.32 325.22 L58.43 323.45 L58.43 324.34 L0 324.34 L0 326.11"
						class="st3"/>
			</g>
			<g id="shape285-104" v:mID="285" v:groupContext="shape" transform="translate(-0.760612,-0.902723)">
				<title>工作表.285</title>
				<rect x="0" y="325.255" width="0.334828" height="1.74532" class="st4"/>
			</g>
		</g>
		<g id="group286-106" transform="translate(549.353,431.025) rotate(143.873)" v:mID="286" v:groupContext="group">
			<v:userDefs>
				<v:ud v:nameU="visVersion" v:val="VT0(15):26"/>
			</v:userDefs>
			<title>一维单向箭头.286</title>
			<g id="shape287-107" v:mID="287" v:groupContext="shape">
				<title>工作表.287</title>
				<path d="M0 326.11 L50.88 326.11 L50.88 327 L51.77 325.22 L50.88 323.45 L50.88 324.34 L0 324.34 L0 326.11 Z"
						class="st1"/>
				<path d="M0 326.11 L50.88 326.11 L50.88 327 L51.77 325.22 L50.88 323.45 L50.88 324.34 L0 324.34" class="st2"/>
			</g>
			<g id="shape288-110" v:mID="288" v:groupContext="shape">
				<title>工作表.288</title>
				<path d="M0 326.11 L50.88 326.11 L50.88 327 L51.77 325.22 L50.88 323.45 L50.88 324.34 L0 324.34 L0 326.11"
						class="st3"/>
			</g>
			<g id="shape289-113" v:mID="289" v:groupContext="shape" transform="translate(-0.663755,-0.902723)">
				<title>工作表.289</title>
				<rect x="0" y="325.255" width="0.29219" height="1.74532" class="st4"/>
			</g>
		</g>
		<g id="shape291-115" v:mID="291" v:groupContext="shape" transform="translate(0.375,-0.375)">
			<title>圆形.291</title>
			<desc>D</desc>
			<v:userDefs>
				<v:ud v:nameU="visVersion" v:val="VT0(15):26"/>
			</v:userDefs>
			<v:textBlock v:margins="rect(4,4,4,4)" v:tabSpace="42.5197"/>
			<v:textRect cx="24.8736" cy="302.126" width="49.75" height="49.7473"/>
			<path d="M0 302.13 A24.8736 24.8736 0 0 1 49.75 302.13 A24.8736 24.8736 0 1 1 0 302.13 Z" class="st7"/>
			<text x="18.92" y="307.53" class="st6" v:langID="2052"><v:paragraph v:horizAlign="1"/><v:tabList/>D</text>		</g>
		<g id="shape292-118" v:mID="292" v:groupContext="shape" transform="translate(80.6421,-0.375)">
			<title>圆形.292</title>
			<desc>C</desc>
			<v:userDefs>
				<v:ud v:nameU="visVersion" v:val="VT0(15):26"/>
			</v:userDefs>
			<v:textBlock v:margins="rect(4,4,4,4)" v:tabSpace="42.5197"/>
			<v:textRect cx="24.8736" cy="302.126" width="49.75" height="49.7473"/>
			<path d="M0 302.13 A24.8736 24.8736 0 0 1 49.75 302.13 A24.8736 24.8736 0 1 1 0 302.13 Z" class="st7"/>
			<text x="19.81" y="307.53" class="st6" v:langID="2052"><v:paragraph v:horizAlign="1"/><v:tabList/>C</text>		</g>
		<g id="group293-121" transform="translate(266.908,499.918) rotate(141.228)" v:mID="293" v:groupContext="group">
			<v:userDefs>
				<v:ud v:nameU="visVersion" v:val="VT0(15):26"/>
			</v:userDefs>
			<title>一维单向箭头.293</title>
			<g id="shape294-122" v:mID="294" v:groupContext="shape">
				<title>工作表.294</title>
				<path d="M0 326.11 L47.85 326.11 L47.85 327 L48.74 325.22 L47.85 323.45 L47.85 324.34 L0 324.34 L0 326.11 Z"
						class="st1"/>
				<path d="M0 326.11 L47.85 326.11 L47.85 327 L48.74 325.22 L47.85 323.45 L47.85 324.34 L0 324.34" class="st2"/>
			</g>
			<g id="shape295-125" v:mID="295" v:groupContext="shape">
				<title>工作表.295</title>
				<path d="M0 326.11 L47.85 326.11 L47.85 327 L48.74 325.22 L47.85 323.45 L47.85 324.34 L0 324.34 L0 326.11"
						class="st3"/>
			</g>
			<g id="shape296-128" v:mID="296" v:groupContext="shape" transform="translate(-0.62491,-0.902723)">
				<title>工作表.296</title>
				<rect x="0" y="325.255" width="0.27509" height="1.74532" class="st4"/>
			</g>
		</g>
		<g id="group297-130" transform="translate(253.627,-17.32) rotate(35.8301)" v:mID="297" v:groupContext="group">
			<v:userDefs>
				<v:ud v:nameU="visVersion" v:val="VT0(15):26"/>
			</v:userDefs>
			<title>一维单向箭头.297</title>
			<g id="shape298-131" v:mID="298" v:groupContext="shape">
				<title>工作表.298</title>
				<path d="M0 326.11 L51.25 326.11 L51.25 327 L52.14 325.22 L51.25 323.45 L51.25 324.34 L0 324.34 L0 326.11 Z"
						class="st1"/>
				<path d="M0 326.11 L51.25 326.11 L51.25 327 L52.14 325.22 L51.25 323.45 L51.25 324.34 L0 324.34" class="st2"/>
			</g>
			<g id="shape299-134" v:mID="299" v:groupContext="shape">
				<title>工作表.299</title>
				<path d="M0 326.11 L51.25 326.11 L51.25 327 L52.14 325.22 L51.25 323.45 L51.25 324.34 L0 324.34 L0 326.11"
						class="st3"/>
			</g>
			<g id="shape300-137" v:mID="300" v:groupContext="shape" transform="translate(-0.668505,-0.902723)">
				<title>工作表.300</title>
				<rect x="0" y="325.255" width="0.294281" height="1.74532" class="st4"/>
			</g>
		</g>
		<g id="shape301-139" v:mID="301" v:groupContext="shape" transform="translate(366.664,-78.3973)">
			<title>圆形.301</title>
			<desc>C</desc>
			<v:userDefs>
				<v:ud v:nameU="visVersion" v:val="VT0(15):26"/>
			</v:userDefs>
			<v:textBlock v:margins="rect(4,4,4,4)" v:tabSpace="42.5197"/>
			<v:textRect cx="24.8736" cy="302.126" width="49.75" height="49.7473"/>
			<path d="M0 302.13 A24.8736 24.8736 0 0 1 49.75 302.13 A24.8736 24.8736 0 1 1 0 302.13 Z" class="st7"/>
			<text x="19.81" y="307.53" class="st6" v:langID="2052"><v:paragraph v:horizAlign="1"/><v:tabList/>C</text>		</g>
		<g id="shape302-142" v:mID="302" v:groupContext="shape" transform="translate(427.703,-78.3973)">
			<title>圆形.302</title>
			<desc>B</desc>
			<v:userDefs>
				<v:ud v:nameU="visVersion" v:val="VT0(15):26"/>
			</v:userDefs>
			<v:textBlock v:margins="rect(4,4,4,4)" v:tabSpace="42.5197"/>
			<v:textRect cx="24.8736" cy="302.126" width="49.75" height="49.7473"/>
			<path d="M0 302.13 A24.8736 24.8736 0 0 1 49.75 302.13 A24.8736 24.8736 0 1 1 0 302.13 Z" class="st7"/>
			<text x="19.37" y="307.53" class="st6" v:langID="2052"><v:paragraph v:horizAlign="1"/><v:tabList/>B</text>		</g>
		<g id="group303-145" transform="translate(575.113,-73.456) rotate(41.973)" v:mID="303" v:groupContext="group">
			<v:userDefs>
				<v:ud v:nameU="visVersion" v:val="VT0(15):26"/>
			</v:userDefs>
			<title>一维单向箭头.303</title>
			<g id="shape304-146" v:mID="304" v:groupContext="shape">
				<title>工作表.304</title>
				<path d="M0 326.11 L44.75 326.11 L44.75 327 L45.64 325.22 L44.75 323.45 L44.75 324.34 L0 324.34 L0 326.11 Z"
						class="st1"/>
				<path d="M0 326.11 L44.75 326.11 L44.75 327 L45.64 325.22 L44.75 323.45 L44.75 324.34 L0 324.34" class="st2"/>
			</g>
			<g id="shape305-149" v:mID="305" v:groupContext="shape">
				<title>工作表.305</title>
				<path d="M0 326.11 L44.75 326.11 L44.75 327 L45.64 325.22 L44.75 323.45 L44.75 324.34 L0 324.34 L0 326.11"
						class="st3"/>
			</g>
			<g id="shape306-152" v:mID="306" v:groupContext="shape" transform="translate(-0.585143,-0.902723)">
				<title>工作表.306</title>
				<rect x="0" y="325.255" width="0.257585" height="1.74532" class="st4"/>
			</g>
		</g>
		<g id="group307-154" transform="translate(743.527,348.738) rotate(123.69)" v:mID="307" v:groupContext="group">
			<v:userDefs>
				<v:ud v:nameU="visVersion" v:val="VT0(15):26"/>
			</v:userDefs>
			<title>一维单向箭头.307</title>
			<g id="shape308-155" v:mID="308" v:groupContext="shape">
				<title>工作表.308</title>
				<path d="M0 326.11 L35.79 326.11 L35.79 327 L36.68 325.22 L35.79 323.45 L35.79 324.34 L0 324.34 L0 326.11 Z"
						class="st1"/>
				<path d="M0 326.11 L35.79 326.11 L35.79 327 L36.68 325.22 L35.79 323.45 L35.79 324.34 L0 324.34" class="st2"/>
			</g>
			<g id="shape309-158" v:mID="309" v:groupContext="shape">
				<title>工作表.309</title>
				<path d="M0 326.11 L35.79 326.11 L35.79 327 L36.68 325.22 L35.79 323.45 L35.79 324.34 L0 324.34 L0 326.11"
						class="st3"/>
			</g>
			<g id="shape310-161" v:mID="310" v:groupContext="shape" transform="translate(-0.470322,-0.902723)">
				<title>工作表.310</title>
				<rect x="0" y="325.255" width="0.20704" height="1.74532" class="st4"/>
			</g>
		</g>
	</g>
</svg>
