<?xml version="1.0" encoding="UTF-8" standalone="no"?>
<!DOCTYPE svg PUBLIC "-//W3C//DTD SVG 1.1//EN" "http://www.w3.org/Graphics/SVG/1.1/DTD/svg11.dtd">
<!-- 由 Microsoft Visio, SVG Export 生成 AVLTree3.svg 页-1 -->
<svg xmlns="http://www.w3.org/2000/svg" xmlns:xlink="http://www.w3.org/1999/xlink" xmlns:ev="http://www.w3.org/2001/xml-events"
		xmlns:v="http://schemas.microsoft.com/visio/2003/SVGExtensions/" width="11.3741in" height="4.67317in"
		viewBox="0 0 818.935 336.468" xml:space="preserve" color-interpolation-filters="sRGB" class="st9">
	<v:documentProperties v:langID="2052" v:metric="true" v:viewMarkup="false"/>

	<style type="text/css">
	<![CDATA[
		.st1 {fill:#ffffff}
		.st2 {stroke:none;stroke-linecap:round;stroke-linejoin:round;stroke-width:0.75}
		.st3 {stroke:#000000;stroke-linecap:round;stroke-linejoin:round;stroke-width:0.24}
		.st4 {fill:#ffffff;stroke:none;stroke-linecap:round;stroke-linejoin:round;stroke-width:0.24;visibility:hidden}
		.st5 {fill:#c05046;stroke:#000000;stroke-linecap:round;stroke-linejoin:round;stroke-width:0.75}
		.st6 {fill:#000000;font-family:Cambria Math;font-size:1.5em}
		.st7 {fill:#ffffff;stroke:#000000;stroke-linecap:round;stroke-linejoin:round;stroke-width:0.75}
		.st8 {fill:none;stroke:none;stroke-linecap:round;stroke-linejoin:round;stroke-width:0.75}
		.st9 {fill:none;fill-rule:evenodd;font-size:12px;overflow:visible;stroke-linecap:square;stroke-miterlimit:3}
	]]>
	</style>

	<g v:mID="0" v:index="1" v:groupContext="foregroundPage">
		<title>页-1</title>
		<v:pageProperties v:drawingScale="0.0393701" v:pageScale="0.0393701" v:drawingUnits="24" v:shadowOffsetX="8.50394"
				v:shadowOffsetY="-8.50394"/>
		<g id="group378-1" transform="translate(308.256,363.166) rotate(143.164)" v:mID="378" v:groupContext="group">
			<v:userDefs>
				<v:ud v:nameU="visVersion" v:val="VT0(15):26"/>
			</v:userDefs>
			<title>一维单向箭头.378</title>
			<g id="shape379-2" v:mID="379" v:groupContext="shape">
				<title>工作表.379</title>
				<path d="M0 335.58 L50.02 335.58 L50.02 336.47 L50.91 334.69 L50.02 332.92 L50.02 333.8 L0 333.8 L0 335.58 Z"
						class="st1"/>
				<path d="M0 335.58 L50.02 335.58 L50.02 336.47 L50.91 334.69 L50.02 332.92 L50.02 333.8 L0 333.8" class="st2"/>
			</g>
			<g id="shape380-5" v:mID="380" v:groupContext="shape">
				<title>工作表.380</title>
				<path d="M0 335.58 L50.02 335.58 L50.02 336.47 L50.91 334.69 L50.02 332.92 L50.02 333.8 L0 333.8 L0 335.58"
						class="st3"/>
			</g>
			<g id="shape381-8" v:mID="381" v:groupContext="shape" transform="translate(-0.652742,-0.902723)">
				<title>工作表.381</title>
				<rect x="0" y="334.723" width="0.287342" height="1.74532" class="st4"/>
			</g>
		</g>
		<g id="group382-10" transform="translate(285.121,-188.444) rotate(32.0322)" v:mID="382" v:groupContext="group">
			<v:userDefs>
				<v:ud v:nameU="visVersion" v:val="VT0(15):26"/>
			</v:userDefs>
			<title>一维单向箭头.382</title>
			<g id="shape383-11" v:mID="383" v:groupContext="shape">
				<title>工作表.383</title>
				<path d="M0 335.58 L56.65 335.58 L56.65 336.47 L57.54 334.69 L56.65 332.92 L56.65 333.8 L0 333.8 L0 335.58 Z"
						class="st1"/>
				<path d="M0 335.58 L56.65 335.58 L56.65 336.47 L57.54 334.69 L56.65 332.92 L56.65 333.8 L0 333.8" class="st2"/>
			</g>
			<g id="shape384-14" v:mID="384" v:groupContext="shape">
				<title>工作表.384</title>
				<path d="M0 335.58 L56.65 335.58 L56.65 336.47 L57.54 334.69 L56.65 332.92 L56.65 333.8 L0 333.8 L0 335.58"
						class="st3"/>
			</g>
			<g id="shape385-17" v:mID="385" v:groupContext="shape" transform="translate(-0.73781,-0.902723)">
				<title>工作表.385</title>
				<rect x="0" y="334.723" width="0.32479" height="1.74532" class="st4"/>
			</g>
		</g>
		<g id="shape386-19" v:mID="386" v:groupContext="shape" transform="translate(82.7276,-241.176)">
			<title>圆形.386</title>
			<desc>1</desc>
			<v:userDefs>
				<v:ud v:nameU="visVersion" v:val="VT0(15):26"/>
			</v:userDefs>
			<v:textBlock v:margins="rect(4,4,4,4)" v:tabSpace="42.5197"/>
			<v:textRect cx="24.8736" cy="311.594" width="49.75" height="49.7473"/>
			<path d="M0 311.59 A24.8736 24.8736 0 0 1 49.75 311.59 A24.8736 24.8736 0 1 1 0 311.59 Z" class="st5"/>
			<text x="19.89" y="316.99" class="st6" v:langID="2052"><v:paragraph v:horizAlign="1"/><v:tabList/>1</text>		</g>
		<g id="shape387-22" v:mID="387" v:groupContext="shape" transform="translate(41.9837,-160.909)">
			<title>圆形.387</title>
			<desc>2</desc>
			<v:userDefs>
				<v:ud v:nameU="visVersion" v:val="VT0(15):26"/>
			</v:userDefs>
			<v:textBlock v:margins="rect(4,4,4,4)" v:tabSpace="42.5197"/>
			<v:textRect cx="24.8736" cy="311.594" width="49.75" height="49.7473"/>
			<path d="M0 311.59 A24.8736 24.8736 0 0 1 49.75 311.59 A24.8736 24.8736 0 1 1 0 311.59 Z" class="st5"/>
			<text x="19.89" y="316.99" class="st6" v:langID="2052"><v:paragraph v:horizAlign="1"/><v:tabList/>2</text>		</g>
		<g id="shape388-25" v:mID="388" v:groupContext="shape" transform="translate(131.508,-160.909)">
			<title>圆形.388</title>
			<desc>A</desc>
			<v:userDefs>
				<v:ud v:nameU="visVersion" v:val="VT0(15):26"/>
			</v:userDefs>
			<v:textBlock v:margins="rect(4,4,4,4)" v:tabSpace="42.5197"/>
			<v:textRect cx="24.8736" cy="311.594" width="49.75" height="49.7473"/>
			<path d="M0 311.59 A24.8736 24.8736 0 0 1 49.75 311.59 A24.8736 24.8736 0 1 1 0 311.59 Z" class="st7"/>
			<text x="19.27" y="316.99" class="st6" v:langID="2052"><v:paragraph v:horizAlign="1"/><v:tabList/>A</text>		</g>
		<g id="shape389-28" v:mID="389" v:groupContext="shape" transform="translate(80.6421,-80.6421)">
			<title>圆形.389</title>
			<desc>3</desc>
			<v:userDefs>
				<v:ud v:nameU="visVersion" v:val="VT0(15):26"/>
			</v:userDefs>
			<v:textBlock v:margins="rect(4,4,4,4)" v:tabSpace="42.5197"/>
			<v:textRect cx="24.8736" cy="311.594" width="49.75" height="49.7473"/>
			<path d="M0 311.59 A24.8736 24.8736 0 0 1 49.75 311.59 A24.8736 24.8736 0 1 1 0 311.59 Z" class="st5"/>
			<text x="19.89" y="316.99" class="st6" v:langID="2052"><v:paragraph v:horizAlign="1"/><v:tabList/>3</text>		</g>
		<g id="shape390-31" v:mID="390" v:groupContext="shape" transform="translate(0.375,-80.6421)">
			<title>圆形.390</title>
			<desc>B</desc>
			<v:userDefs>
				<v:ud v:nameU="visVersion" v:val="VT0(15):26"/>
			</v:userDefs>
			<v:textBlock v:margins="rect(4,4,4,4)" v:tabSpace="42.5197"/>
			<v:textRect cx="24.8736" cy="311.594" width="49.75" height="49.7473"/>
			<path d="M0 311.59 A24.8736 24.8736 0 0 1 49.75 311.59 A24.8736 24.8736 0 1 1 0 311.59 Z" class="st7"/>
			<text x="19.37" y="316.99" class="st6" v:langID="2052"><v:paragraph v:horizAlign="1"/><v:tabList/>B</text>		</g>
		<g id="group391-34" transform="translate(274.248,-87.1357) rotate(38.2902)" v:mID="391" v:groupContext="group">
			<v:userDefs>
				<v:ud v:nameU="visVersion" v:val="VT0(15):26"/>
			</v:userDefs>
			<title>一维单向箭头.391</title>
			<g id="shape392-35" v:mID="392" v:groupContext="shape">
				<title>工作表.392</title>
				<path d="M0 335.58 L48.37 335.58 L48.37 336.47 L49.25 334.69 L48.37 332.92 L48.37 333.8 L0 333.8 L0 335.58 Z"
						class="st1"/>
				<path d="M0 335.58 L48.37 335.58 L48.37 336.47 L49.25 334.69 L48.37 332.92 L48.37 333.8 L0 333.8" class="st2"/>
			</g>
			<g id="shape393-38" v:mID="393" v:groupContext="shape">
				<title>工作表.393</title>
				<path d="M0 335.58 L48.37 335.58 L48.37 336.47 L49.25 334.69 L48.37 332.92 L48.37 333.8 L0 333.8 L0 335.58"
						class="st3"/>
			</g>
			<g id="shape394-41" v:mID="394" v:groupContext="shape" transform="translate(-0.631543,-0.902723)">
				<title>工作表.394</title>
				<rect x="0" y="334.723" width="0.27801" height="1.74532" class="st4"/>
			</g>
		</g>
		<g id="group395-43" transform="translate(264.811,445.435) rotate(143.74)" v:mID="395" v:groupContext="group">
			<v:userDefs>
				<v:ud v:nameU="visVersion" v:val="VT0(15):26"/>
			</v:userDefs>
			<title>一维单向箭头.395</title>
			<g id="shape396-44" v:mID="396" v:groupContext="shape">
				<title>工作表.396</title>
				<path d="M0 335.58 L50.71 335.58 L50.71 336.47 L51.6 334.69 L50.71 332.92 L50.71 333.8 L0 333.8 L0 335.58 Z"
						class="st1"/>
				<path d="M0 335.58 L50.71 335.58 L50.71 336.47 L51.6 334.69 L50.71 332.92 L50.71 333.8 L0 333.8" class="st2"/>
			</g>
			<g id="shape397-47" v:mID="397" v:groupContext="shape">
				<title>工作表.397</title>
				<path d="M0 335.58 L50.71 335.58 L50.71 336.47 L51.6 334.69 L50.71 332.92 L50.71 333.8 L0 333.8 L0 335.58"
						class="st3"/>
			</g>
			<g id="shape398-50" v:mID="398" v:groupContext="shape" transform="translate(-0.661649,-0.902723)">
				<title>工作表.398</title>
				<rect x="0" y="334.723" width="0.291263" height="1.74532" class="st4"/>
			</g>
		</g>
		<g id="shape399-52" v:mID="399" v:groupContext="shape" transform="translate(326.835,-301.504)">
			<title>工作表.399</title>
			<desc>LR</desc>
			<v:textBlock v:margins="rect(4,4,4,4)" v:tabSpace="42.5197"/>
			<v:textRect cx="66.1263" cy="319.173" width="132.26" height="34.5891"/>
			<rect x="0" y="301.879" width="132.253" height="34.5891" class="st8"/>
			<text x="55.71" y="324.57" class="st6" v:langID="2052"><v:paragraph v:horizAlign="1"/><v:tabList/>LR</text>		</g>
		<g id="group400-55" transform="translate(212.895,-114.316)" v:mID="400" v:groupContext="group">
			<v:userDefs>
				<v:ud v:nameU="visVersion" v:val="VT0(15):26"/>
			</v:userDefs>
			<title>一维单向箭头.400</title>
			<g id="shape401-56" v:mID="401" v:groupContext="shape">
				<title>工作表.401</title>
				<path d="M0 316.12 L33.91 316.12 L33.91 336.47 L50.87 295.77 L33.91 255.08 L33.91 275.43 L0 275.43 L0 316.12 Z"
						class="st1"/>
				<path d="M0 316.12 L33.91 316.12 L33.91 336.47 L50.87 295.77 L33.91 255.08 L33.91 275.43 L0 275.43" class="st2"/>
			</g>
			<g id="shape402-59" v:mID="402" v:groupContext="shape">
				<title>工作表.402</title>
				<path d="M0 316.12 L33.91 316.12 L33.91 336.47 L50.87 295.77 L33.91 255.08 L33.91 275.43 L0 275.43 L0 316.12"
						class="st3"/>
			</g>
			<g id="shape403-62" v:mID="403" v:groupContext="shape" transform="translate(-0.65222,-20.6911)">
				<title>工作表.403</title>
				<rect x="0" y="296.464" width="0.287112" height="40.004" class="st4"/>
			</g>
		</g>
		<g id="group404-64" transform="translate(845.829,411.032) rotate(150.65)" v:mID="404" v:groupContext="group">
			<v:userDefs>
				<v:ud v:nameU="visVersion" v:val="VT0(15):26"/>
			</v:userDefs>
			<title>一维单向箭头.404</title>
			<g id="shape405-65" v:mID="405" v:groupContext="shape">
				<title>工作表.405</title>
				<path d="M0 335.58 L61.38 335.58 L61.38 336.47 L62.27 334.69 L61.38 332.92 L61.38 333.8 L0 333.8 L0 335.58 Z"
						class="st1"/>
				<path d="M0 335.58 L61.38 335.58 L61.38 336.47 L62.27 334.69 L61.38 332.92 L61.38 333.8 L0 333.8" class="st2"/>
			</g>
			<g id="shape406-68" v:mID="406" v:groupContext="shape">
				<title>工作表.406</title>
				<path d="M0 335.58 L61.38 335.58 L61.38 336.47 L62.27 334.69 L61.38 332.92 L61.38 333.8 L0 333.8 L0 335.58"
						class="st3"/>
			</g>
			<g id="shape407-71" v:mID="407" v:groupContext="shape" transform="translate(-0.7984,-0.902723)">
				<title>工作表.407</title>
				<rect x="0" y="334.723" width="0.351462" height="1.74532" class="st4"/>
			</g>
		</g>
		<g id="group408-73" transform="translate(831.46,-180.058) rotate(26.5651)" v:mID="408" v:groupContext="group">
			<v:userDefs>
				<v:ud v:nameU="visVersion" v:val="VT0(15):26"/>
			</v:userDefs>
			<title>一维单向箭头.408</title>
			<g id="shape409-74" v:mID="409" v:groupContext="shape">
				<title>工作表.409</title>
				<path d="M0 335.58 L67.36 335.58 L67.36 336.47 L68.24 334.69 L67.36 332.92 L67.36 333.8 L0 333.8 L0 335.58 Z"
						class="st1"/>
				<path d="M0 335.58 L67.36 335.58 L67.36 336.47 L68.24 334.69 L67.36 332.92 L67.36 333.8 L0 333.8" class="st2"/>
			</g>
			<g id="shape410-77" v:mID="410" v:groupContext="shape">
				<title>工作表.410</title>
				<path d="M0 335.58 L67.36 335.58 L67.36 336.47 L68.24 334.69 L67.36 332.92 L67.36 333.8 L0 333.8 L0 335.58"
						class="st3"/>
			</g>
			<g id="shape411-80" v:mID="411" v:groupContext="shape" transform="translate(-0.875045,-0.902723)">
				<title>工作表.411</title>
				<rect x="0" y="334.723" width="0.385202" height="1.74532" class="st4"/>
			</g>
		</g>
		<g id="shape412-82" v:mID="412" v:groupContext="shape" transform="translate(656.907,-217.167)">
			<title>圆形.412</title>
			<desc>3</desc>
			<v:userDefs>
				<v:ud v:nameU="visVersion" v:val="VT0(15):26"/>
			</v:userDefs>
			<v:textBlock v:margins="rect(4,4,4,4)" v:tabSpace="42.5197"/>
			<v:textRect cx="24.8736" cy="311.594" width="49.75" height="49.7473"/>
			<path d="M0 311.59 A24.8736 24.8736 0 0 1 49.75 311.59 A24.8736 24.8736 0 1 1 0 311.59 Z" class="st5"/>
			<text x="19.89" y="316.99" class="st6" v:langID="2052"><v:paragraph v:horizAlign="1"/><v:tabList/>3</text>		</g>
		<g id="shape413-85" v:mID="413" v:groupContext="shape" transform="translate(602.633,-136.9)">
			<title>圆形.413</title>
			<desc>2</desc>
			<v:userDefs>
				<v:ud v:nameU="visVersion" v:val="VT0(15):26"/>
			</v:userDefs>
			<v:textBlock v:margins="rect(4,4,4,4)" v:tabSpace="42.5197"/>
			<v:textRect cx="24.8736" cy="311.594" width="49.75" height="49.7473"/>
			<path d="M0 311.59 A24.8736 24.8736 0 0 1 49.75 311.59 A24.8736 24.8736 0 1 1 0 311.59 Z" class="st5"/>
			<text x="19.89" y="316.99" class="st6" v:langID="2052"><v:paragraph v:horizAlign="1"/><v:tabList/>2</text>		</g>
		<g id="shape414-88" v:mID="414" v:groupContext="shape" transform="translate(717.947,-136.9)">
			<title>圆形.414</title>
			<desc>1</desc>
			<v:userDefs>
				<v:ud v:nameU="visVersion" v:val="VT0(15):26"/>
			</v:userDefs>
			<v:textBlock v:margins="rect(4,4,4,4)" v:tabSpace="42.5197"/>
			<v:textRect cx="24.8736" cy="311.594" width="49.75" height="49.7473"/>
			<path d="M0 311.59 A24.8736 24.8736 0 0 1 49.75 311.59 A24.8736 24.8736 0 1 1 0 311.59 Z" class="st5"/>
			<text x="19.89" y="316.99" class="st6" v:langID="2052"><v:paragraph v:horizAlign="1"/><v:tabList/>1</text>		</g>
		<g id="shape415-91" v:mID="415" v:groupContext="shape" transform="translate(768.813,-56.6332)">
			<title>圆形.415</title>
			<desc>A</desc>
			<v:userDefs>
				<v:ud v:nameU="visVersion" v:val="VT0(15):26"/>
			</v:userDefs>
			<v:textBlock v:margins="rect(4,4,4,4)" v:tabSpace="42.5197"/>
			<v:textRect cx="24.8736" cy="311.594" width="49.75" height="49.7473"/>
			<path d="M0 311.59 A24.8736 24.8736 0 0 1 49.75 311.59 A24.8736 24.8736 0 1 1 0 311.59 Z" class="st7"/>
			<text x="19.27" y="316.99" class="st6" v:langID="2052"><v:paragraph v:horizAlign="1"/><v:tabList/>A</text>		</g>
		<g id="shape416-94" v:mID="416" v:groupContext="shape" transform="translate(560.82,-56.6332)">
			<title>圆形.416</title>
			<desc>B</desc>
			<v:userDefs>
				<v:ud v:nameU="visVersion" v:val="VT0(15):26"/>
			</v:userDefs>
			<v:textBlock v:margins="rect(4,4,4,4)" v:tabSpace="42.5197"/>
			<v:textRect cx="24.8736" cy="311.594" width="49.75" height="49.7473"/>
			<path d="M0 311.59 A24.8736 24.8736 0 0 1 49.75 311.59 A24.8736 24.8736 0 1 1 0 311.59 Z" class="st7"/>
			<text x="19.37" y="316.99" class="st6" v:langID="2052"><v:paragraph v:horizAlign="1"/><v:tabList/>B</text>		</g>
		<g id="group417-97" transform="translate(915.018,-87.4289) rotate(30.9638)" v:mID="417" v:groupContext="group">
			<v:userDefs>
				<v:ud v:nameU="visVersion" v:val="VT0(15):26"/>
			</v:userDefs>
			<title>一维单向箭头.417</title>
			<g id="shape418-98" v:mID="418" v:groupContext="shape">
				<title>工作表.418</title>
				<path d="M0 335.58 L58.43 335.58 L58.43 336.47 L59.32 334.69 L58.43 332.92 L58.43 333.8 L0 333.8 L0 335.58 Z"
						class="st1"/>
				<path d="M0 335.58 L58.43 335.58 L58.43 336.47 L59.32 334.69 L58.43 332.92 L58.43 333.8 L0 333.8" class="st2"/>
			</g>
			<g id="shape419-101" v:mID="419" v:groupContext="shape">
				<title>工作表.419</title>
				<path d="M0 335.58 L58.43 335.58 L58.43 336.47 L59.32 334.69 L58.43 332.92 L58.43 333.8 L0 333.8 L0 335.58"
						class="st3"/>
			</g>
			<g id="shape420-104" v:mID="420" v:groupContext="shape" transform="translate(-0.760612,-0.902723)">
				<title>工作表.420</title>
				<rect x="0" y="334.723" width="0.334828" height="1.74532" class="st4"/>
			</g>
		</g>
		<g id="group421-106" transform="translate(824.832,469.904) rotate(143.873)" v:mID="421" v:groupContext="group">
			<v:userDefs>
				<v:ud v:nameU="visVersion" v:val="VT0(15):26"/>
			</v:userDefs>
			<title>一维单向箭头.421</title>
			<g id="shape422-107" v:mID="422" v:groupContext="shape">
				<title>工作表.422</title>
				<path d="M0 335.58 L50.88 335.58 L50.88 336.47 L51.77 334.69 L50.88 332.92 L50.88 333.8 L0 333.8 L0 335.58 Z"
						class="st1"/>
				<path d="M0 335.58 L50.88 335.58 L50.88 336.47 L51.77 334.69 L50.88 332.92 L50.88 333.8 L0 333.8" class="st2"/>
			</g>
			<g id="shape423-110" v:mID="423" v:groupContext="shape">
				<title>工作表.423</title>
				<path d="M0 335.58 L50.88 335.58 L50.88 336.47 L51.77 334.69 L50.88 332.92 L50.88 333.8 L0 333.8 L0 335.58"
						class="st3"/>
			</g>
			<g id="shape424-113" v:mID="424" v:groupContext="shape" transform="translate(-0.663755,-0.902723)">
				<title>工作表.424</title>
				<rect x="0" y="334.723" width="0.29219" height="1.74532" class="st4"/>
			</g>
		</g>
		<g id="shape425-115" v:mID="425" v:groupContext="shape" transform="translate(41.5259,-0.375)">
			<title>圆形.425</title>
			<desc>C</desc>
			<v:userDefs>
				<v:ud v:nameU="visVersion" v:val="VT0(15):26"/>
			</v:userDefs>
			<v:textBlock v:margins="rect(4,4,4,4)" v:tabSpace="42.5197"/>
			<v:textRect cx="24.8736" cy="311.594" width="49.75" height="49.7473"/>
			<path d="M0 311.59 A24.8736 24.8736 0 0 1 49.75 311.59 A24.8736 24.8736 0 1 1 0 311.59 Z" class="st7"/>
			<text x="19.81" y="316.99" class="st6" v:langID="2052"><v:paragraph v:horizAlign="1"/><v:tabList/>C</text>		</g>
		<g id="shape426-118" v:mID="426" v:groupContext="shape" transform="translate(131.508,-0.375)">
			<title>圆形.426</title>
			<desc>D</desc>
			<v:userDefs>
				<v:ud v:nameU="visVersion" v:val="VT0(15):26"/>
			</v:userDefs>
			<v:textBlock v:margins="rect(4,4,4,4)" v:tabSpace="42.5197"/>
			<v:textRect cx="24.8736" cy="311.594" width="49.75" height="49.7473"/>
			<path d="M0 311.59 A24.8736 24.8736 0 0 1 49.75 311.59 A24.8736 24.8736 0 1 1 0 311.59 Z" class="st7"/>
			<text x="18.92" y="316.99" class="st6" v:langID="2052"><v:paragraph v:horizAlign="1"/><v:tabList/>D</text>		</g>
		<g id="group427-121" transform="translate(311.401,519.702) rotate(142.037)" v:mID="427" v:groupContext="group">
			<v:userDefs>
				<v:ud v:nameU="visVersion" v:val="VT0(15):26"/>
			</v:userDefs>
			<title>一维单向箭头.427</title>
			<g id="shape428-122" v:mID="428" v:groupContext="shape">
				<title>工作表.428</title>
				<path d="M0 335.58 L48.73 335.58 L48.73 336.47 L49.61 334.69 L48.73 332.92 L48.73 333.8 L0 333.8 L0 335.58 Z"
						class="st1"/>
				<path d="M0 335.58 L48.73 335.58 L48.73 336.47 L49.61 334.69 L48.73 332.92 L48.73 333.8 L0 333.8" class="st2"/>
			</g>
			<g id="shape429-125" v:mID="429" v:groupContext="shape">
				<title>工作表.429</title>
				<path d="M0 335.58 L48.73 335.58 L48.73 336.47 L49.61 334.69 L48.73 332.92 L48.73 333.8 L0 333.8 L0 335.58"
						class="st3"/>
			</g>
			<g id="shape430-128" v:mID="430" v:groupContext="shape" transform="translate(-0.63616,-0.902723)">
				<title>工作表.430</title>
				<rect x="0" y="334.723" width="0.280043" height="1.74532" class="st4"/>
			</g>
		</g>
		<g id="group431-130" transform="translate(277.714,-31.1707) rotate(30.9638)" v:mID="431" v:groupContext="group">
			<v:userDefs>
				<v:ud v:nameU="visVersion" v:val="VT0(15):26"/>
			</v:userDefs>
			<title>一维单向箭头.431</title>
			<g id="shape432-131" v:mID="432" v:groupContext="shape">
				<title>工作表.432</title>
				<path d="M0 335.58 L58.43 335.58 L58.43 336.47 L59.32 334.69 L58.43 332.92 L58.43 333.8 L0 333.8 L0 335.58 Z"
						class="st1"/>
				<path d="M0 335.58 L58.43 335.58 L58.43 336.47 L59.32 334.69 L58.43 332.92 L58.43 333.8 L0 333.8" class="st2"/>
			</g>
			<g id="shape433-134" v:mID="433" v:groupContext="shape">
				<title>工作表.433</title>
				<path d="M0 335.58 L58.43 335.58 L58.43 336.47 L59.32 334.69 L58.43 332.92 L58.43 333.8 L0 333.8 L0 335.58"
						class="st3"/>
			</g>
			<g id="shape434-137" v:mID="434" v:groupContext="shape" transform="translate(-0.760612,-0.902723)">
				<title>工作表.434</title>
				<rect x="0" y="334.723" width="0.334828" height="1.74532" class="st4"/>
			</g>
		</g>
		<g id="shape435-139" v:mID="435" v:groupContext="shape" transform="translate(636.56,-56.6332)">
			<title>圆形.435</title>
			<desc>C</desc>
			<v:userDefs>
				<v:ud v:nameU="visVersion" v:val="VT0(15):26"/>
			</v:userDefs>
			<v:textBlock v:margins="rect(4,4,4,4)" v:tabSpace="42.5197"/>
			<v:textRect cx="24.8736" cy="311.594" width="49.75" height="49.7473"/>
			<path d="M0 311.59 A24.8736 24.8736 0 0 1 49.75 311.59 A24.8736 24.8736 0 1 1 0 311.59 Z" class="st7"/>
			<text x="19.81" y="316.99" class="st6" v:langID="2052"><v:paragraph v:horizAlign="1"/><v:tabList/>C</text>		</g>
		<g id="shape436-142" v:mID="436" v:groupContext="shape" transform="translate(697.6,-56.6332)">
			<title>圆形.436</title>
			<desc>D</desc>
			<v:userDefs>
				<v:ud v:nameU="visVersion" v:val="VT0(15):26"/>
			</v:userDefs>
			<v:textBlock v:margins="rect(4,4,4,4)" v:tabSpace="42.5197"/>
			<v:textRect cx="24.8736" cy="311.594" width="49.75" height="49.7473"/>
			<path d="M0 311.59 A24.8736 24.8736 0 0 1 49.75 311.59 A24.8736 24.8736 0 1 1 0 311.59 Z" class="st7"/>
			<text x="18.92" y="316.99" class="st6" v:langID="2052"><v:paragraph v:horizAlign="1"/><v:tabList/>D</text>		</g>
		<g id="group437-145" transform="translate(851.342,-49.263) rotate(41.973)" v:mID="437" v:groupContext="group">
			<v:userDefs>
				<v:ud v:nameU="visVersion" v:val="VT0(15):26"/>
			</v:userDefs>
			<title>一维单向箭头.437</title>
			<g id="shape438-146" v:mID="438" v:groupContext="shape">
				<title>工作表.438</title>
				<path d="M0 335.58 L44.75 335.58 L44.75 336.47 L45.64 334.69 L44.75 332.92 L44.75 333.8 L0 333.8 L0 335.58 Z"
						class="st1"/>
				<path d="M0 335.58 L44.75 335.58 L44.75 336.47 L45.64 334.69 L44.75 332.92 L44.75 333.8 L0 333.8" class="st2"/>
			</g>
			<g id="shape439-149" v:mID="439" v:groupContext="shape">
				<title>工作表.439</title>
				<path d="M0 335.58 L44.75 335.58 L44.75 336.47 L45.64 334.69 L44.75 332.92 L44.75 333.8 L0 333.8 L0 335.58"
						class="st3"/>
			</g>
			<g id="shape440-152" v:mID="440" v:groupContext="shape" transform="translate(-0.585143,-0.902723)">
				<title>工作表.440</title>
				<rect x="0" y="334.723" width="0.257585" height="1.74532" class="st4"/>
			</g>
		</g>
		<g id="group441-154" transform="translate(1021.3,385.222) rotate(123.69)" v:mID="441" v:groupContext="group">
			<v:userDefs>
				<v:ud v:nameU="visVersion" v:val="VT0(15):26"/>
			</v:userDefs>
			<title>一维单向箭头.441</title>
			<g id="shape442-155" v:mID="442" v:groupContext="shape">
				<title>工作表.442</title>
				<path d="M0 335.58 L35.79 335.58 L35.79 336.47 L36.68 334.69 L35.79 332.92 L35.79 333.8 L0 333.8 L0 335.58 Z"
						class="st1"/>
				<path d="M0 335.58 L35.79 335.58 L35.79 336.47 L36.68 334.69 L35.79 332.92 L35.79 333.8 L0 333.8" class="st2"/>
			</g>
			<g id="shape443-158" v:mID="443" v:groupContext="shape">
				<title>工作表.443</title>
				<path d="M0 335.58 L35.79 335.58 L35.79 336.47 L36.68 334.69 L35.79 332.92 L35.79 333.8 L0 333.8 L0 335.58"
						class="st3"/>
			</g>
			<g id="shape444-161" v:mID="444" v:groupContext="shape" transform="translate(-0.470322,-0.902723)">
				<title>工作表.444</title>
				<rect x="0" y="334.723" width="0.20704" height="1.74532" class="st4"/>
			</g>
		</g>
		<g id="group445-163" transform="translate(618.322,356.233) rotate(141.228)" v:mID="445" v:groupContext="group">
			<v:userDefs>
				<v:ud v:nameU="visVersion" v:val="VT0(15):26"/>
			</v:userDefs>
			<title>一维单向箭头.445</title>
			<g id="shape446-164" v:mID="446" v:groupContext="shape">
				<title>工作表.446</title>
				<path d="M0 335.58 L47.85 335.58 L47.85 336.47 L48.74 334.69 L47.85 332.92 L47.85 333.8 L0 333.8 L0 335.58 Z"
						class="st1"/>
				<path d="M0 335.58 L47.85 335.58 L47.85 336.47 L48.74 334.69 L47.85 332.92 L47.85 333.8 L0 333.8" class="st2"/>
			</g>
			<g id="shape447-167" v:mID="447" v:groupContext="shape">
				<title>工作表.447</title>
				<path d="M0 335.58 L47.85 335.58 L47.85 336.47 L48.74 334.69 L47.85 332.92 L47.85 333.8 L0 333.8 L0 335.58"
						class="st3"/>
			</g>
			<g id="shape448-170" v:mID="448" v:groupContext="shape" transform="translate(-0.62491,-0.902723)">
				<title>工作表.448</title>
				<rect x="0" y="334.723" width="0.27509" height="1.74532" class="st4"/>
			</g>
		</g>
		<g id="group449-172" transform="translate(604.654,-176.063) rotate(35.8301)" v:mID="449" v:groupContext="group">
			<v:userDefs>
				<v:ud v:nameU="visVersion" v:val="VT0(15):26"/>
			</v:userDefs>
			<title>一维单向箭头.449</title>
			<g id="shape450-173" v:mID="450" v:groupContext="shape">
				<title>工作表.450</title>
				<path d="M0 335.58 L51.25 335.58 L51.25 336.47 L52.14 334.69 L51.25 332.92 L51.25 333.8 L0 333.8 L0 335.58 Z"
						class="st1"/>
				<path d="M0 335.58 L51.25 335.58 L51.25 336.47 L52.14 334.69 L51.25 332.92 L51.25 333.8 L0 333.8" class="st2"/>
			</g>
			<g id="shape451-176" v:mID="451" v:groupContext="shape">
				<title>工作表.451</title>
				<path d="M0 335.58 L51.25 335.58 L51.25 336.47 L52.14 334.69 L51.25 332.92 L51.25 333.8 L0 333.8 L0 335.58"
						class="st3"/>
			</g>
			<g id="shape452-179" v:mID="452" v:groupContext="shape" transform="translate(-0.668505,-0.902723)">
				<title>工作表.452</title>
				<rect x="0" y="334.723" width="0.294281" height="1.74532" class="st4"/>
			</g>
		</g>
		<g id="shape453-181" v:mID="453" v:groupContext="shape" transform="translate(383.856,-241.176)">
			<title>圆形.453</title>
			<desc>1</desc>
			<v:userDefs>
				<v:ud v:nameU="visVersion" v:val="VT0(15):26"/>
			</v:userDefs>
			<v:textBlock v:margins="rect(4,4,4,4)" v:tabSpace="42.5197"/>
			<v:textRect cx="24.8736" cy="311.594" width="49.75" height="49.7473"/>
			<path d="M0 311.59 A24.8736 24.8736 0 0 1 49.75 311.59 A24.8736 24.8736 0 1 1 0 311.59 Z" class="st5"/>
			<text x="19.89" y="316.99" class="st6" v:langID="2052"><v:paragraph v:horizAlign="1"/><v:tabList/>1</text>		</g>
		<g id="shape454-184" v:mID="454" v:groupContext="shape" transform="translate(345.859,-160.909)">
			<title>圆形.454</title>
			<desc>3</desc>
			<v:userDefs>
				<v:ud v:nameU="visVersion" v:val="VT0(15):26"/>
			</v:userDefs>
			<v:textBlock v:margins="rect(4,4,4,4)" v:tabSpace="42.5197"/>
			<v:textRect cx="24.8736" cy="311.594" width="49.75" height="49.7473"/>
			<path d="M0 311.59 A24.8736 24.8736 0 0 1 49.75 311.59 A24.8736 24.8736 0 1 1 0 311.59 Z" class="st5"/>
			<text x="19.89" y="316.99" class="st6" v:langID="2052"><v:paragraph v:horizAlign="1"/><v:tabList/>3</text>		</g>
		<g id="shape455-187" v:mID="455" v:groupContext="shape" transform="translate(426.126,-160.909)">
			<title>圆形.455</title>
			<desc>A</desc>
			<v:userDefs>
				<v:ud v:nameU="visVersion" v:val="VT0(15):26"/>
			</v:userDefs>
			<v:textBlock v:margins="rect(4,4,4,4)" v:tabSpace="42.5197"/>
			<v:textRect cx="24.8736" cy="311.594" width="49.75" height="49.7473"/>
			<path d="M0 311.59 A24.8736 24.8736 0 0 1 49.75 311.59 A24.8736 24.8736 0 1 1 0 311.59 Z" class="st7"/>
			<text x="19.27" y="316.99" class="st6" v:langID="2052"><v:paragraph v:horizAlign="1"/><v:tabList/>A</text>		</g>
		<g id="shape456-190" v:mID="456" v:groupContext="shape" transform="translate(307.862,-80.6421)">
			<title>圆形.456</title>
			<desc>2</desc>
			<v:userDefs>
				<v:ud v:nameU="visVersion" v:val="VT0(15):26"/>
			</v:userDefs>
			<v:textBlock v:margins="rect(4,4,4,4)" v:tabSpace="42.5197"/>
			<v:textRect cx="24.8736" cy="311.594" width="49.75" height="49.7473"/>
			<path d="M0 311.59 A24.8736 24.8736 0 0 1 49.75 311.59 A24.8736 24.8736 0 1 1 0 311.59 Z" class="st5"/>
			<text x="19.89" y="316.99" class="st6" v:langID="2052"><v:paragraph v:horizAlign="1"/><v:tabList/>2</text>		</g>
		<g id="shape457-193" v:mID="457" v:groupContext="shape" transform="translate(388.129,-80.6421)">
			<title>圆形.457</title>
			<desc>D</desc>
			<v:userDefs>
				<v:ud v:nameU="visVersion" v:val="VT0(15):26"/>
			</v:userDefs>
			<v:textBlock v:margins="rect(4,4,4,4)" v:tabSpace="42.5197"/>
			<v:textRect cx="24.8736" cy="311.594" width="49.75" height="49.7473"/>
			<path d="M0 311.59 A24.8736 24.8736 0 0 1 49.75 311.59 A24.8736 24.8736 0 1 1 0 311.59 Z" class="st7"/>
			<text x="18.92" y="316.99" class="st6" v:langID="2052"><v:paragraph v:horizAlign="1"/><v:tabList/>D</text>		</g>
		<g id="group458-196" transform="translate(580.324,436.5) rotate(141.228)" v:mID="458" v:groupContext="group">
			<v:userDefs>
				<v:ud v:nameU="visVersion" v:val="VT0(15):26"/>
			</v:userDefs>
			<title>一维单向箭头.458</title>
			<g id="shape459-197" v:mID="459" v:groupContext="shape">
				<title>工作表.459</title>
				<path d="M0 335.58 L47.85 335.58 L47.85 336.47 L48.74 334.69 L47.85 332.92 L47.85 333.8 L0 333.8 L0 335.58 Z"
						class="st1"/>
				<path d="M0 335.58 L47.85 335.58 L47.85 336.47 L48.74 334.69 L47.85 332.92 L47.85 333.8 L0 333.8" class="st2"/>
			</g>
			<g id="shape460-200" v:mID="460" v:groupContext="shape">
				<title>工作表.460</title>
				<path d="M0 335.58 L47.85 335.58 L47.85 336.47 L48.74 334.69 L47.85 332.92 L47.85 333.8 L0 333.8 L0 335.58"
						class="st3"/>
			</g>
			<g id="shape461-203" v:mID="461" v:groupContext="shape" transform="translate(-0.62491,-0.902723)">
				<title>工作表.461</title>
				<rect x="0" y="334.723" width="0.27509" height="1.74532" class="st4"/>
			</g>
		</g>
		<g id="group462-205" transform="translate(566.656,-95.7954) rotate(35.8301)" v:mID="462" v:groupContext="group">
			<v:userDefs>
				<v:ud v:nameU="visVersion" v:val="VT0(15):26"/>
			</v:userDefs>
			<title>一维单向箭头.462</title>
			<g id="shape463-206" v:mID="463" v:groupContext="shape">
				<title>工作表.463</title>
				<path d="M0 335.58 L51.25 335.58 L51.25 336.47 L52.14 334.69 L51.25 332.92 L51.25 333.8 L0 333.8 L0 335.58 Z"
						class="st1"/>
				<path d="M0 335.58 L51.25 335.58 L51.25 336.47 L52.14 334.69 L51.25 332.92 L51.25 333.8 L0 333.8" class="st2"/>
			</g>
			<g id="shape464-209" v:mID="464" v:groupContext="shape">
				<title>工作表.464</title>
				<path d="M0 335.58 L51.25 335.58 L51.25 336.47 L52.14 334.69 L51.25 332.92 L51.25 333.8 L0 333.8 L0 335.58"
						class="st3"/>
			</g>
			<g id="shape465-212" v:mID="465" v:groupContext="shape" transform="translate(-0.668505,-0.902723)">
				<title>工作表.465</title>
				<rect x="0" y="334.723" width="0.294281" height="1.74532" class="st4"/>
			</g>
		</g>
		<g id="group467-214" transform="translate(497.746,-114.316)" v:mID="467" v:groupContext="group">
			<v:userDefs>
				<v:ud v:nameU="visVersion" v:val="VT0(15):26"/>
			</v:userDefs>
			<title>一维单向箭头.467</title>
			<g id="shape468-215" v:mID="468" v:groupContext="shape">
				<title>工作表.468</title>
				<path d="M0 316.12 L33.91 316.12 L33.91 336.47 L50.87 295.77 L33.91 255.08 L33.91 275.43 L0 275.43 L0 316.12 Z"
						class="st1"/>
				<path d="M0 316.12 L33.91 316.12 L33.91 336.47 L50.87 295.77 L33.91 255.08 L33.91 275.43 L0 275.43" class="st2"/>
			</g>
			<g id="shape469-218" v:mID="469" v:groupContext="shape">
				<title>工作表.469</title>
				<path d="M0 316.12 L33.91 316.12 L33.91 336.47 L50.87 295.77 L33.91 255.08 L33.91 275.43 L0 275.43 L0 316.12"
						class="st3"/>
			</g>
			<g id="shape470-221" v:mID="470" v:groupContext="shape" transform="translate(-0.65222,-20.6911)">
				<title>工作表.470</title>
				<rect x="0" y="296.464" width="0.287112" height="40.004" class="st4"/>
			</g>
		</g>
		<g id="shape492-223" v:mID="492" v:groupContext="shape" transform="translate(269.865,-0.375)">
			<title>圆形.492</title>
			<desc>B</desc>
			<v:userDefs>
				<v:ud v:nameU="visVersion" v:val="VT0(15):26"/>
			</v:userDefs>
			<v:textBlock v:margins="rect(4,4,4,4)" v:tabSpace="42.5197"/>
			<v:textRect cx="24.8736" cy="311.594" width="49.75" height="49.7473"/>
			<path d="M0 311.59 A24.8736 24.8736 0 0 1 49.75 311.59 A24.8736 24.8736 0 1 1 0 311.59 Z" class="st7"/>
			<text x="19.37" y="316.99" class="st6" v:langID="2052"><v:paragraph v:horizAlign="1"/><v:tabList/>B</text>		</g>
		<g id="shape493-226" v:mID="493" v:groupContext="shape" transform="translate(350.132,-0.375)">
			<title>圆形.493</title>
			<desc>C</desc>
			<v:userDefs>
				<v:ud v:nameU="visVersion" v:val="VT0(15):26"/>
			</v:userDefs>
			<v:textBlock v:margins="rect(4,4,4,4)" v:tabSpace="42.5197"/>
			<v:textRect cx="24.8736" cy="311.594" width="49.75" height="49.7473"/>
			<path d="M0 311.59 A24.8736 24.8736 0 0 1 49.75 311.59 A24.8736 24.8736 0 1 1 0 311.59 Z" class="st7"/>
			<text x="19.81" y="316.99" class="st6" v:langID="2052"><v:paragraph v:horizAlign="1"/><v:tabList/>C</text>		</g>
		<g id="group494-229" transform="translate(542.327,516.767) rotate(141.228)" v:mID="494" v:groupContext="group">
			<v:userDefs>
				<v:ud v:nameU="visVersion" v:val="VT0(15):26"/>
			</v:userDefs>
			<title>一维单向箭头.494</title>
			<g id="shape495-230" v:mID="495" v:groupContext="shape">
				<title>工作表.495</title>
				<path d="M0 335.58 L47.85 335.58 L47.85 336.47 L48.74 334.69 L47.85 332.92 L47.85 333.8 L0 333.8 L0 335.58 Z"
						class="st1"/>
				<path d="M0 335.58 L47.85 335.58 L47.85 336.47 L48.74 334.69 L47.85 332.92 L47.85 333.8 L0 333.8" class="st2"/>
			</g>
			<g id="shape496-233" v:mID="496" v:groupContext="shape">
				<title>工作表.496</title>
				<path d="M0 335.58 L47.85 335.58 L47.85 336.47 L48.74 334.69 L47.85 332.92 L47.85 333.8 L0 333.8 L0 335.58"
						class="st3"/>
			</g>
			<g id="shape497-236" v:mID="497" v:groupContext="shape" transform="translate(-0.62491,-0.902723)">
				<title>工作表.497</title>
				<rect x="0" y="334.723" width="0.27509" height="1.74532" class="st4"/>
			</g>
		</g>
		<g id="group498-238" transform="translate(528.659,-15.5283) rotate(35.8301)" v:mID="498" v:groupContext="group">
			<v:userDefs>
				<v:ud v:nameU="visVersion" v:val="VT0(15):26"/>
			</v:userDefs>
			<title>一维单向箭头.498</title>
			<g id="shape499-239" v:mID="499" v:groupContext="shape">
				<title>工作表.499</title>
				<path d="M0 335.58 L51.25 335.58 L51.25 336.47 L52.14 334.69 L51.25 332.92 L51.25 333.8 L0 333.8 L0 335.58 Z"
						class="st1"/>
				<path d="M0 335.58 L51.25 335.58 L51.25 336.47 L52.14 334.69 L51.25 332.92 L51.25 333.8 L0 333.8" class="st2"/>
			</g>
			<g id="shape500-242" v:mID="500" v:groupContext="shape">
				<title>工作表.500</title>
				<path d="M0 335.58 L51.25 335.58 L51.25 336.47 L52.14 334.69 L51.25 332.92 L51.25 333.8 L0 333.8 L0 335.58"
						class="st3"/>
			</g>
			<g id="shape501-245" v:mID="501" v:groupContext="shape" transform="translate(-0.668505,-0.902723)">
				<title>工作表.501</title>
				<rect x="0" y="334.723" width="0.294281" height="1.74532" class="st4"/>
			</g>
		</g>
	</g>
</svg>
