<?xml version="1.0" encoding="UTF-8" standalone="no"?>
<!DOCTYPE svg PUBLIC "-//W3C//DTD SVG 1.1//EN" "http://www.w3.org/Graphics/SVG/1.1/DTD/svg11.dtd">
<!-- 由 Microsoft Visio, SVG Export 生成 AVLTree8.svg 页-1 -->
<svg xmlns="http://www.w3.org/2000/svg" xmlns:xlink="http://www.w3.org/1999/xlink" xmlns:ev="http://www.w3.org/2001/xml-events"
		xmlns:v="http://schemas.microsoft.com/visio/2003/SVGExtensions/" width="5.81342in" height="8.19425in"
		viewBox="0 0 418.566 589.986" xml:space="preserve" color-interpolation-filters="sRGB" class="st9">
	<v:documentProperties v:langID="2052" v:metric="true" v:viewMarkup="false"/>

	<style type="text/css">
	<![CDATA[
		.st1 {fill:#ffffff;stroke:#000000;stroke-linecap:round;stroke-linejoin:round;stroke-width:0.75}
		.st2 {fill:#000000;font-family:Cambria Math;font-size:1.5em}
		.st3 {font-size:1em}
		.st4 {fill:#ffffff}
		.st5 {stroke:none;stroke-linecap:round;stroke-linejoin:round;stroke-width:0.75}
		.st6 {stroke:#000000;stroke-linecap:round;stroke-linejoin:round;stroke-width:0.24}
		.st7 {fill:#ffffff;stroke:none;stroke-linecap:round;stroke-linejoin:round;stroke-width:0.24;visibility:hidden}
		.st8 {fill:#c05046;stroke:#000000;stroke-linecap:round;stroke-linejoin:round;stroke-width:0.75}
		.st9 {fill:none;fill-rule:evenodd;font-size:12px;overflow:visible;stroke-linecap:square;stroke-miterlimit:3}
	]]>
	</style>

	<g v:mID="0" v:index="1" v:groupContext="foregroundPage">
		<title>页-1</title>
		<v:pageProperties v:drawingScale="0.0393701" v:pageScale="0.0393701" v:drawingUnits="24" v:shadowOffsetX="8.50394"
				v:shadowOffsetY="-8.50394"/>
		<g id="shape948-1" v:mID="948" v:groupContext="shape" transform="translate(186.648,-540.881)">
			<title>矩形.948</title>
			<desc>10 3</desc>
			<v:userDefs>
				<v:ud v:nameU="visVersion" v:val="VT0(15):26"/>
			</v:userDefs>
			<v:textBlock v:margins="rect(4,4,4,4)" v:tabSpace="42.5197"/>
			<v:textRect cx="17.1928" cy="565.621" width="34.39" height="48.73"/>
			<rect x="0" y="541.256" width="34.3857" height="48.73" class="st1"/>
			<text x="7.23" y="560.22" class="st2" v:langID="2052"><v:paragraph v:horizAlign="1"/><v:tabList/>10<v:newlineChar/><tspan
						x="12.21" dy="1.2em" class="st3">3</tspan></text>		</g>
		<g id="shape949-5" v:mID="949" v:groupContext="shape" transform="translate(278.207,-436.91)">
			<title>矩形.949</title>
			<desc>15 2</desc>
			<v:userDefs>
				<v:ud v:nameU="visVersion" v:val="VT0(15):26"/>
			</v:userDefs>
			<v:textBlock v:margins="rect(4,4,4,4)" v:tabSpace="42.5197"/>
			<v:textRect cx="17.1928" cy="565.621" width="34.39" height="48.73"/>
			<rect x="0" y="541.256" width="34.3857" height="48.73" class="st1"/>
			<text x="7.23" y="560.22" class="st2" v:langID="2052"><v:paragraph v:horizAlign="1"/><v:tabList/>15<v:newlineChar/><tspan
						x="12.21" dy="1.2em" class="st3">2</tspan></text>		</g>
		<g id="shape950-9" v:mID="950" v:groupContext="shape" transform="translate(88.7807,-436.91)">
			<title>矩形.950</title>
			<desc>5 2</desc>
			<v:userDefs>
				<v:ud v:nameU="visVersion" v:val="VT0(15):26"/>
			</v:userDefs>
			<v:textBlock v:margins="rect(4,4,4,4)" v:tabSpace="42.5197"/>
			<v:textRect cx="17.1928" cy="565.621" width="34.39" height="48.73"/>
			<rect x="0" y="541.256" width="34.3857" height="48.73" class="st1"/>
			<text x="12.21" y="560.22" class="st2" v:langID="2052"><v:paragraph v:horizAlign="1"/><v:tabList/>5<v:newlineChar/><tspan
						x="12.21" dy="1.2em" class="st3">2</tspan></text>		</g>
		<g id="group951-13" transform="translate(492.975,561.348) rotate(150.557)" v:mID="951" v:groupContext="group">
			<v:userDefs>
				<v:ud v:nameU="visVersion" v:val="VT0(15):26"/>
			</v:userDefs>
			<title>一维单向箭头.951</title>
			<g id="shape952-14" v:mID="952" v:groupContext="shape">
				<title>工作表.952</title>
				<path d="M0 589.1 L111.49 589.1 L111.49 589.99 L112.38 588.21 L111.49 586.44 L111.49 587.32 L0 587.32 L0 589.1 Z"
						class="st4"/>
				<path d="M0 589.1 L111.49 589.1 L111.49 589.99 L112.38 588.21 L111.49 586.44 L111.49 587.32 L0 587.32" class="st5"/>
			</g>
			<g id="shape953-17" v:mID="953" v:groupContext="shape">
				<title>工作表.953</title>
				<path d="M0 589.1 L111.49 589.1 L111.49 589.99 L112.38 588.21 L111.49 586.44 L111.49 587.32 L0 587.32 L0 589.1"
						class="st6"/>
			</g>
			<g id="shape954-20" v:mID="954" v:groupContext="shape" transform="translate(-1.44097,-0.902723)">
				<title>工作表.954</title>
				<rect x="0" y="588.241" width="0.634328" height="1.74532" class="st7"/>
			</g>
		</g>
		<g id="group955-22" transform="translate(507.706,-454.539) rotate(31.104)" v:mID="955" v:groupContext="group">
			<v:userDefs>
				<v:ud v:nameU="visVersion" v:val="VT0(15):26"/>
			</v:userDefs>
			<title>一维单向箭头.955</title>
			<g id="shape956-23" v:mID="956" v:groupContext="shape">
				<title>工作表.956</title>
				<path d="M0 589.1 L106.05 589.1 L106.05 589.99 L106.93 588.21 L106.05 586.44 L106.05 587.32 L0 587.32 L0 589.1 Z"
						class="st4"/>
				<path d="M0 589.1 L106.05 589.1 L106.05 589.99 L106.93 588.21 L106.05 586.44 L106.05 587.32 L0 587.32" class="st5"/>
			</g>
			<g id="shape957-26" v:mID="957" v:groupContext="shape">
				<title>工作表.957</title>
				<path d="M0 589.1 L106.05 589.1 L106.05 589.99 L106.93 588.21 L106.05 586.44 L106.05 587.32 L0 587.32 L0 589.1"
						class="st6"/>
			</g>
			<g id="shape958-29" v:mID="958" v:groupContext="shape" transform="translate(-1.37112,-0.902723)">
				<title>工作表.958</title>
				<rect x="0" y="588.241" width="0.603578" height="1.74532" class="st7"/>
			</g>
		</g>
		<g id="shape959-31" v:mID="959" v:groupContext="shape" transform="translate(237.514,-319.053)">
			<title>矩形.959</title>
			<desc>13 1</desc>
			<v:userDefs>
				<v:ud v:nameU="visVersion" v:val="VT0(15):26"/>
			</v:userDefs>
			<v:textBlock v:margins="rect(4,4,4,4)" v:tabSpace="42.5197"/>
			<v:textRect cx="17.1928" cy="565.621" width="34.39" height="48.73"/>
			<rect x="0" y="541.256" width="34.3857" height="48.73" class="st1"/>
			<text x="7.23" y="560.22" class="st2" v:langID="2052"><v:paragraph v:horizAlign="1"/><v:tabList/>13<v:newlineChar/><tspan
						x="12.21" dy="1.2em" class="st3">1</tspan></text>		</g>
		<g id="group960-35" transform="translate(802.303,451.473) rotate(120.484)" v:mID="960" v:groupContext="group">
			<v:userDefs>
				<v:ud v:nameU="visVersion" v:val="VT0(15):26"/>
			</v:userDefs>
			<title>一维单向箭头.960</title>
			<g id="shape961-36" v:mID="961" v:groupContext="shape">
				<title>工作表.961</title>
				<path d="M0 589.1 L79.33 589.1 L79.33 589.99 L80.22 588.21 L79.33 586.44 L79.33 587.32 L0 587.32 L0 589.1 Z"
						class="st4"/>
				<path d="M0 589.1 L79.33 589.1 L79.33 589.99 L80.22 588.21 L79.33 586.44 L79.33 587.32 L0 587.32" class="st5"/>
			</g>
			<g id="shape962-39" v:mID="962" v:groupContext="shape">
				<title>工作表.962</title>
				<path d="M0 589.1 L79.33 589.1 L79.33 589.99 L80.22 588.21 L79.33 586.44 L79.33 587.32 L0 587.32 L0 589.1"
						class="st6"/>
			</g>
			<g id="shape963-42" v:mID="963" v:groupContext="shape" transform="translate(-1.02854,-0.902723)">
				<title>工作表.963</title>
				<rect x="0" y="588.241" width="0.452772" height="1.74532" class="st7"/>
			</g>
		</g>
		<g id="shape964-44" v:mID="964" v:groupContext="shape" transform="translate(348.708,-319.053)">
			<title>矩形.964</title>
			<desc>19 1</desc>
			<v:userDefs>
				<v:ud v:nameU="visVersion" v:val="VT0(15):26"/>
			</v:userDefs>
			<v:textBlock v:margins="rect(4,4,4,4)" v:tabSpace="42.5197"/>
			<v:textRect cx="17.1928" cy="565.621" width="34.39" height="48.73"/>
			<rect x="0" y="541.256" width="34.3857" height="48.73" class="st1"/>
			<text x="7.23" y="560.22" class="st2" v:langID="2052"><v:paragraph v:horizAlign="1"/><v:tabList/>19<v:newlineChar/><tspan
						x="12.21" dy="1.2em" class="st3">1</tspan></text>		</g>
		<g id="group965-48" transform="translate(707.216,-266.923) rotate(44.4365)" v:mID="965" v:groupContext="group">
			<v:userDefs>
				<v:ud v:nameU="visVersion" v:val="VT0(15):26"/>
			</v:userDefs>
			<title>一维单向箭头.965</title>
			<g id="shape966-49" v:mID="966" v:groupContext="shape">
				<title>工作表.966</title>
				<path d="M0 589.1 L97.85 589.1 L97.85 589.99 L98.74 588.21 L97.85 586.44 L97.85 587.32 L0 587.32 L0 589.1 Z"
						class="st4"/>
				<path d="M0 589.1 L97.85 589.1 L97.85 589.99 L98.74 588.21 L97.85 586.44 L97.85 587.32 L0 587.32" class="st5"/>
			</g>
			<g id="shape967-52" v:mID="967" v:groupContext="shape">
				<title>工作表.967</title>
				<path d="M0 589.1 L97.85 589.1 L97.85 589.99 L98.74 588.21 L97.85 586.44 L97.85 587.32 L0 587.32 L0 589.1"
						class="st6"/>
			</g>
			<g id="shape968-55" v:mID="968" v:groupContext="shape" transform="translate(-1.26602,-0.902723)">
				<title>工作表.968</title>
				<rect x="0" y="588.241" width="0.557314" height="1.74532" class="st7"/>
			</g>
		</g>
		<g id="shape969-57" v:mID="969" v:groupContext="shape" transform="translate(41.0681,-319.053)">
			<title>矩形.969</title>
			<desc>2 1</desc>
			<v:userDefs>
				<v:ud v:nameU="visVersion" v:val="VT0(15):26"/>
			</v:userDefs>
			<v:textBlock v:margins="rect(4,4,4,4)" v:tabSpace="42.5197"/>
			<v:textRect cx="17.1928" cy="565.621" width="34.39" height="48.73"/>
			<rect x="0" y="541.256" width="34.3857" height="48.73" class="st1"/>
			<text x="12.21" y="560.22" class="st2" v:langID="2052"><v:paragraph v:horizAlign="1"/><v:tabList/>2<v:newlineChar/><tspan
						x="12.21" dy="1.2em" class="st3">1</tspan></text>		</g>
		<g id="shape970-61" v:mID="970" v:groupContext="shape" transform="translate(126.32,-319.053)">
			<title>矩形.970</title>
			<desc>7 1</desc>
			<v:userDefs>
				<v:ud v:nameU="visVersion" v:val="VT0(15):26"/>
			</v:userDefs>
			<v:textBlock v:margins="rect(4,4,4,4)" v:tabSpace="42.5197"/>
			<v:textRect cx="17.1928" cy="565.621" width="34.39" height="48.73"/>
			<rect x="0" y="541.256" width="34.3857" height="48.73" class="st1"/>
			<text x="12.21" y="560.22" class="st2" v:langID="2052"><v:paragraph v:horizAlign="1"/><v:tabList/>7<v:newlineChar/><tspan
						x="12.21" dy="1.2em" class="st3">1</tspan></text>		</g>
		<g id="group971-65" transform="translate(590.07,487.205) rotate(124.614)" v:mID="971" v:groupContext="group">
			<v:userDefs>
				<v:ud v:nameU="visVersion" v:val="VT0(15):26"/>
			</v:userDefs>
			<title>一维单向箭头.971</title>
			<g id="shape972-66" v:mID="972" v:groupContext="shape">
				<title>工作表.972</title>
				<path d="M0 589.1 L83.11 589.1 L83.11 589.99 L83.99 588.21 L83.11 586.44 L83.11 587.32 L0 587.32 L0 589.1 Z"
						class="st4"/>
				<path d="M0 589.1 L83.11 589.1 L83.11 589.99 L83.99 588.21 L83.11 586.44 L83.11 587.32 L0 587.32" class="st5"/>
			</g>
			<g id="shape973-69" v:mID="973" v:groupContext="shape">
				<title>工作表.973</title>
				<path d="M0 589.1 L83.11 589.1 L83.11 589.99 L83.99 588.21 L83.11 586.44 L83.11 587.32 L0 587.32 L0 589.1"
						class="st6"/>
			</g>
			<g id="shape974-72" v:mID="974" v:groupContext="shape" transform="translate(-1.077,-0.902723)">
				<title>工作表.974</title>
				<rect x="0" y="588.241" width="0.474103" height="1.74532" class="st7"/>
			</g>
		</g>
		<g id="group975-74" transform="translate(622.883,-127.63) rotate(61.496)" v:mID="975" v:groupContext="group">
			<v:userDefs>
				<v:ud v:nameU="visVersion" v:val="VT0(15):26"/>
			</v:userDefs>
			<title>一维单向箭头.975</title>
			<g id="shape976-75" v:mID="976" v:groupContext="shape">
				<title>工作表.976</title>
				<path d="M0 589.1 L77.77 589.1 L77.77 589.99 L78.66 588.21 L77.77 586.44 L77.77 587.32 L0 587.32 L0 589.1 Z"
						class="st4"/>
				<path d="M0 589.1 L77.77 589.1 L77.77 589.99 L78.66 588.21 L77.77 586.44 L77.77 587.32 L0 587.32" class="st5"/>
			</g>
			<g id="shape977-78" v:mID="977" v:groupContext="shape">
				<title>工作表.977</title>
				<path d="M0 589.1 L77.77 589.1 L77.77 589.99 L78.66 588.21 L77.77 586.44 L77.77 587.32 L0 587.32 L0 589.1"
						class="st6"/>
			</g>
			<g id="shape978-81" v:mID="978" v:groupContext="shape" transform="translate(-1.00863,-0.902723)">
				<title>工作表.978</title>
				<rect x="0" y="588.241" width="0.444006" height="1.74532" class="st7"/>
			</g>
		</g>
		<g id="shape979-83" v:mID="979" v:groupContext="shape" transform="translate(0.375,-209.131)">
			<title>矩形.979</title>
			<desc>1 0</desc>
			<v:userDefs>
				<v:ud v:nameU="visVersion" v:val="VT0(15):26"/>
			</v:userDefs>
			<v:textBlock v:margins="rect(4,4,4,4)" v:tabSpace="42.5197"/>
			<v:textRect cx="17.1928" cy="565.621" width="34.39" height="48.73"/>
			<rect x="0" y="541.256" width="34.3857" height="48.73" class="st1"/>
			<text x="12.21" y="560.22" class="st2" v:langID="2052"><v:paragraph v:horizAlign="1"/><v:tabList/>1<v:newlineChar/><tspan
						x="12.21" dy="1.2em" class="st3">0</tspan></text>		</g>
		<g id="shape980-87" v:mID="980" v:groupContext="shape" transform="translate(49.6645,-209.131)">
			<title>矩形.980</title>
			<desc>3 0</desc>
			<v:userDefs>
				<v:ud v:nameU="visVersion" v:val="VT0(15):26"/>
			</v:userDefs>
			<v:textBlock v:margins="rect(4,4,4,4)" v:tabSpace="42.5197"/>
			<v:textRect cx="17.1928" cy="565.621" width="34.39" height="48.73"/>
			<rect x="0" y="541.256" width="34.3857" height="48.73" class="st1"/>
			<text x="12.21" y="560.22" class="st2" v:langID="2052"><v:paragraph v:horizAlign="1"/><v:tabList/>3<v:newlineChar/><tspan
						x="12.21" dy="1.2em" class="st3">0</tspan></text>		</g>
		<g id="group981-91" transform="translate(548.057,596.65) rotate(123.624)" v:mID="981" v:groupContext="group">
			<v:userDefs>
				<v:ud v:nameU="visVersion" v:val="VT0(15):26"/>
			</v:userDefs>
			<title>一维单向箭头.981</title>
			<g id="shape982-92" v:mID="982" v:groupContext="shape">
				<title>工作表.982</title>
				<path d="M0 589.1 L72.6 589.1 L72.6 589.99 L73.49 588.21 L72.6 586.44 L72.6 587.32 L0 587.32 L0 589.1 Z"
						class="st4"/>
				<path d="M0 589.1 L72.6 589.1 L72.6 589.99 L73.49 588.21 L72.6 586.44 L72.6 587.32 L0 587.32" class="st5"/>
			</g>
			<g id="shape983-95" v:mID="983" v:groupContext="shape">
				<title>工作表.983</title>
				<path d="M0 589.1 L72.6 589.1 L72.6 589.99 L73.49 588.21 L72.6 586.44 L72.6 587.32 L0 587.32 L0 589.1" class="st6"/>
			</g>
			<g id="shape984-98" v:mID="984" v:groupContext="shape" transform="translate(-0.942273,-0.902723)">
				<title>工作表.984</title>
				<rect x="0" y="588.241" width="0.414796" height="1.74532" class="st7"/>
			</g>
		</g>
		<g id="group985-100" transform="translate(640.752,189.104) rotate(82.0033)" v:mID="985" v:groupContext="group">
			<v:userDefs>
				<v:ud v:nameU="visVersion" v:val="VT0(15):26"/>
			</v:userDefs>
			<title>一维单向箭头.985</title>
			<g id="shape986-101" v:mID="986" v:groupContext="shape">
				<title>工作表.986</title>
				<path d="M0 589.1 L60.91 589.1 L60.91 589.99 L61.79 588.21 L60.91 586.44 L60.91 587.32 L0 587.32 L0 589.1 Z"
						class="st4"/>
				<path d="M0 589.1 L60.91 589.1 L60.91 589.99 L61.79 588.21 L60.91 586.44 L60.91 587.32 L0 587.32" class="st5"/>
			</g>
			<g id="shape987-104" v:mID="987" v:groupContext="shape">
				<title>工作表.987</title>
				<path d="M0 589.1 L60.91 589.1 L60.91 589.99 L61.79 588.21 L60.91 586.44 L60.91 587.32 L0 587.32 L0 589.1"
						class="st6"/>
			</g>
			<g id="shape988-107" v:mID="988" v:groupContext="shape" transform="translate(-0.792325,-0.902723)">
				<title>工作表.988</title>
				<rect x="0" y="588.241" width="0.348788" height="1.74532" class="st7"/>
			</g>
		</g>
		<g id="shape989-109" v:mID="989" v:groupContext="shape" transform="translate(98.954,-209.131)">
			<title>矩形.989</title>
			<desc>6 0</desc>
			<v:userDefs>
				<v:ud v:nameU="visVersion" v:val="VT0(15):26"/>
			</v:userDefs>
			<v:textBlock v:margins="rect(4,4,4,4)" v:tabSpace="42.5197"/>
			<v:textRect cx="17.1928" cy="565.621" width="34.39" height="48.73"/>
			<rect x="0" y="541.256" width="34.3857" height="48.73" class="st1"/>
			<text x="12.21" y="560.22" class="st2" v:langID="2052"><v:paragraph v:horizAlign="1"/><v:tabList/>6<v:newlineChar/><tspan
						x="12.21" dy="1.2em" class="st3">0</tspan></text>		</g>
		<g id="shape990-113" v:mID="990" v:groupContext="shape" transform="translate(142.801,-209.131)">
			<title>矩形.990</title>
			<desc>8 0</desc>
			<v:userDefs>
				<v:ud v:nameU="visVersion" v:val="VT0(15):26"/>
			</v:userDefs>
			<v:textBlock v:margins="rect(4,4,4,4)" v:tabSpace="42.5197"/>
			<v:textRect cx="17.1928" cy="565.621" width="34.39" height="48.73"/>
			<rect x="0" y="541.256" width="34.3857" height="48.73" class="st1"/>
			<text x="12.21" y="560.22" class="st2" v:langID="2052"><v:paragraph v:horizAlign="1"/><v:tabList/>8<v:newlineChar/><tspan
						x="12.21" dy="1.2em" class="st3">0</tspan></text>		</g>
		<g id="group991-117" transform="translate(680.473,511.07) rotate(114.095)" v:mID="991" v:groupContext="group">
			<v:userDefs>
				<v:ud v:nameU="visVersion" v:val="VT0(15):26"/>
			</v:userDefs>
			<title>一维单向箭头.991</title>
			<g id="shape992-118" v:mID="992" v:groupContext="shape">
				<title>工作表.992</title>
				<path d="M0 589.1 L66.15 589.1 L66.15 589.99 L67.03 588.21 L66.15 586.44 L66.15 587.32 L0 587.32 L0 589.1 Z"
						class="st4"/>
				<path d="M0 589.1 L66.15 589.1 L66.15 589.99 L67.03 588.21 L66.15 586.44 L66.15 587.32 L0 587.32" class="st5"/>
			</g>
			<g id="shape993-121" v:mID="993" v:groupContext="shape">
				<title>工作表.993</title>
				<path d="M0 589.1 L66.15 589.1 L66.15 589.99 L67.03 588.21 L66.15 586.44 L66.15 587.32 L0 587.32 L0 589.1"
						class="st6"/>
			</g>
			<g id="shape994-124" v:mID="994" v:groupContext="shape" transform="translate(-0.859509,-0.902723)">
				<title>工作表.994</title>
				<rect x="0" y="588.241" width="0.378363" height="1.74532" class="st7"/>
			</g>
		</g>
		<g id="group995-126" transform="translate(711.485,117.963) rotate(74.9264)" v:mID="995" v:groupContext="group">
			<v:userDefs>
				<v:ud v:nameU="visVersion" v:val="VT0(15):26"/>
			</v:userDefs>
			<title>一维单向箭头.995</title>
			<g id="shape996-127" v:mID="996" v:groupContext="shape">
				<title>工作表.996</title>
				<path d="M0 589.1 L62.49 589.1 L62.49 589.99 L63.37 588.21 L62.49 586.44 L62.49 587.32 L0 587.32 L0 589.1 Z"
						class="st4"/>
				<path d="M0 589.1 L62.49 589.1 L62.49 589.99 L63.37 588.21 L62.49 586.44 L62.49 587.32 L0 587.32" class="st5"/>
			</g>
			<g id="shape997-130" v:mID="997" v:groupContext="shape">
				<title>工作表.997</title>
				<path d="M0 589.1 L62.49 589.1 L62.49 589.99 L63.37 588.21 L62.49 586.44 L62.49 587.32 L0 587.32 L0 589.1"
						class="st6"/>
			</g>
			<g id="shape998-133" v:mID="998" v:groupContext="shape" transform="translate(-0.812579,-0.902723)">
				<title>工作表.998</title>
				<rect x="0" y="588.241" width="0.357704" height="1.74532" class="st7"/>
			</g>
		</g>
		<g id="shape999-135" v:mID="999" v:groupContext="shape" transform="translate(268.034,-209.131)">
			<title>矩形.999</title>
			<desc>14 0</desc>
			<v:userDefs>
				<v:ud v:nameU="visVersion" v:val="VT0(15):26"/>
			</v:userDefs>
			<v:textBlock v:margins="rect(4,4,4,4)" v:tabSpace="42.5197"/>
			<v:textRect cx="17.1928" cy="565.621" width="34.39" height="48.73"/>
			<rect x="0" y="541.256" width="34.3857" height="48.73" class="st1"/>
			<text x="7.23" y="560.22" class="st2" v:langID="2052"><v:paragraph v:horizAlign="1"/><v:tabList/>14<v:newlineChar/><tspan
						x="12.21" dy="1.2em" class="st3">0</tspan></text>		</g>
		<g id="shape1000-139" v:mID="1000" v:groupContext="shape" transform="translate(325.92,-209.131)">
			<title>矩形.1000</title>
			<desc>16 2</desc>
			<v:userDefs>
				<v:ud v:nameU="visVersion" v:val="VT0(15):26"/>
			</v:userDefs>
			<v:textBlock v:margins="rect(4,4,4,4)" v:tabSpace="42.5197"/>
			<v:textRect cx="17.1928" cy="565.621" width="34.39" height="48.73"/>
			<rect x="0" y="541.256" width="34.3857" height="48.73" class="st8"/>
			<text x="7.23" y="560.22" class="st2" v:langID="2052"><v:paragraph v:horizAlign="1"/><v:tabList/>16<v:newlineChar/><tspan
						x="12.21" dy="1.2em" class="st3">2</tspan></text>		</g>
		<g id="shape1001-143" v:mID="1001" v:groupContext="shape" transform="translate(383.806,-209.131)">
			<title>矩形.1001</title>
			<desc>20 0</desc>
			<v:userDefs>
				<v:ud v:nameU="visVersion" v:val="VT0(15):26"/>
			</v:userDefs>
			<v:textBlock v:margins="rect(4,4,4,4)" v:tabSpace="42.5197"/>
			<v:textRect cx="17.1928" cy="565.621" width="34.39" height="48.73"/>
			<rect x="0" y="541.256" width="34.3857" height="48.73" class="st1"/>
			<text x="7.23" y="560.22" class="st2" v:langID="2052"><v:paragraph v:horizAlign="1"/><v:tabList/>20<v:newlineChar/><tspan
						x="12.21" dy="1.2em" class="st3">0</tspan></text>		</g>
		<g id="group1002-147" transform="translate(781.08,8.40261) rotate(63.4921)" v:mID="1002" v:groupContext="group">
			<v:userDefs>
				<v:ud v:nameU="visVersion" v:val="VT0(15):26"/>
			</v:userDefs>
			<title>一维单向箭头.1002</title>
			<g id="shape1003-148" v:mID="1003" v:groupContext="shape">
				<title>工作表.1003</title>
				<path d="M0 589.1 L67.49 589.1 L67.49 589.99 L68.38 588.21 L67.49 586.44 L67.49 587.32 L0 587.32 L0 589.1 Z"
						class="st4"/>
				<path d="M0 589.1 L67.49 589.1 L67.49 589.99 L68.38 588.21 L67.49 586.44 L67.49 587.32 L0 587.32" class="st5"/>
			</g>
			<g id="shape1004-151" v:mID="1004" v:groupContext="shape">
				<title>工作表.1004</title>
				<path d="M0 589.1 L67.49 589.1 L67.49 589.99 L68.38 588.21 L67.49 586.44 L67.49 587.32 L0 587.32 L0 589.1"
						class="st6"/>
			</g>
			<g id="shape1005-154" v:mID="1005" v:groupContext="shape" transform="translate(-0.876795,-0.902723)">
				<title>工作表.1005</title>
				<rect x="0" y="588.241" width="0.385972" height="1.74532" class="st7"/>
			</g>
		</g>
		<g id="group1006-156" transform="translate(917.129,476.212) rotate(110.425)" v:mID="1006" v:groupContext="group">
			<v:userDefs>
				<v:ud v:nameU="visVersion" v:val="VT0(15):26"/>
			</v:userDefs>
			<title>一维单向箭头.1006</title>
			<g id="shape1007-157" v:mID="1007" v:groupContext="shape">
				<title>工作表.1007</title>
				<path d="M0 589.1 L64.41 589.1 L64.41 589.99 L65.3 588.21 L64.41 586.44 L64.41 587.32 L0 587.32 L0 589.1 Z"
						class="st4"/>
				<path d="M0 589.1 L64.41 589.1 L64.41 589.99 L65.3 588.21 L64.41 586.44 L64.41 587.32 L0 587.32" class="st5"/>
			</g>
			<g id="shape1008-160" v:mID="1008" v:groupContext="shape">
				<title>工作表.1008</title>
				<path d="M0 589.1 L64.41 589.1 L64.41 589.99 L65.3 588.21 L64.41 586.44 L64.41 587.32 L0 587.32 L0 589.1"
						class="st6"/>
			</g>
			<g id="shape1009-163" v:mID="1009" v:groupContext="shape" transform="translate(-0.837261,-0.902723)">
				<title>工作表.1009</title>
				<rect x="0" y="588.241" width="0.368569" height="1.74532" class="st7"/>
			</g>
		</g>
		<g id="group1010-165" transform="translate(876.14,-21.7228) rotate(60.1629)" v:mID="1010" v:groupContext="group">
			<v:userDefs>
				<v:ud v:nameU="visVersion" v:val="VT0(15):26"/>
			</v:userDefs>
			<title>一维单向箭头.1010</title>
			<g id="shape1011-166" v:mID="1011" v:groupContext="shape">
				<title>工作表.1011</title>
				<path d="M0 589.1 L69.66 589.1 L69.66 589.99 L70.54 588.21 L69.66 586.44 L69.66 587.32 L0 587.32 L0 589.1 Z"
						class="st4"/>
				<path d="M0 589.1 L69.66 589.1 L69.66 589.99 L70.54 588.21 L69.66 586.44 L69.66 587.32 L0 587.32" class="st5"/>
			</g>
			<g id="shape1012-169" v:mID="1012" v:groupContext="shape">
				<title>工作表.1012</title>
				<path d="M0 589.1 L69.66 589.1 L69.66 589.99 L70.54 588.21 L69.66 586.44 L69.66 587.32 L0 587.32 L0 589.1"
						class="st6"/>
			</g>
			<g id="shape1013-172" v:mID="1013" v:groupContext="shape" transform="translate(-0.904521,-0.902723)">
				<title>工作表.1013</title>
				<rect x="0" y="588.241" width="0.398177" height="1.74532" class="st7"/>
			</g>
		</g>
		<g id="shape1014-174" v:mID="1014" v:groupContext="shape" transform="translate(346.266,-104.753)">
			<title>矩形.1014</title>
			<desc>17 1</desc>
			<v:userDefs>
				<v:ud v:nameU="visVersion" v:val="VT0(15):26"/>
			</v:userDefs>
			<v:textBlock v:margins="rect(4,4,4,4)" v:tabSpace="42.5197"/>
			<v:textRect cx="17.1928" cy="565.621" width="34.39" height="48.73"/>
			<rect x="0" y="541.256" width="34.3857" height="48.73" class="st8"/>
			<text x="7.23" y="560.22" class="st2" v:langID="2052"><v:paragraph v:horizAlign="1"/><v:tabList/>17<v:newlineChar/><tspan
						x="12.21" dy="1.2em" class="st3">1</tspan></text>		</g>
		<g id="group1015-178" transform="translate(895.554,178.866) rotate(69.916)" v:mID="1015" v:groupContext="group">
			<v:userDefs>
				<v:ud v:nameU="visVersion" v:val="VT0(15):26"/>
			</v:userDefs>
			<title>一维单向箭头.1015</title>
			<g id="shape1016-179" v:mID="1016" v:groupContext="shape">
				<title>工作表.1016</title>
				<path d="M0 589.1 L58.36 589.1 L58.36 589.99 L59.25 588.21 L58.36 586.44 L58.36 587.32 L0 587.32 L0 589.1 Z"
						class="st4"/>
				<path d="M0 589.1 L58.36 589.1 L58.36 589.99 L59.25 588.21 L58.36 586.44 L58.36 587.32 L0 587.32" class="st5"/>
			</g>
			<g id="shape1017-182" v:mID="1017" v:groupContext="shape">
				<title>工作表.1017</title>
				<path d="M0 589.1 L58.36 589.1 L58.36 589.99 L59.25 588.21 L58.36 586.44 L58.36 587.32 L0 587.32 L0 589.1"
						class="st6"/>
			</g>
			<g id="shape1018-185" v:mID="1018" v:groupContext="shape" transform="translate(-0.759727,-0.902723)">
				<title>工作表.1018</title>
				<rect x="0" y="588.241" width="0.334438" height="1.74532" class="st7"/>
			</g>
		</g>
		<g id="shape1019-187" v:mID="1019" v:groupContext="shape" transform="translate(366.613,-0.375)">
			<title>矩形.1019</title>
			<desc>18 0</desc>
			<v:userDefs>
				<v:ud v:nameU="visVersion" v:val="VT0(15):26"/>
			</v:userDefs>
			<v:textBlock v:margins="rect(4,4,4,4)" v:tabSpace="42.5197"/>
			<v:textRect cx="17.1928" cy="565.621" width="34.39" height="48.73"/>
			<rect x="0" y="541.256" width="34.3857" height="48.73" class="st8"/>
			<text x="7.23" y="560.22" class="st2" v:langID="2052"><v:paragraph v:horizAlign="1"/><v:tabList/>18<v:newlineChar/><tspan
						x="12.21" dy="1.2em" class="st3">0</tspan></text>		</g>
		<g id="group1020-191" transform="translate(915.901,283.243) rotate(69.916)" v:mID="1020" v:groupContext="group">
			<v:userDefs>
				<v:ud v:nameU="visVersion" v:val="VT0(15):26"/>
			</v:userDefs>
			<title>一维单向箭头.1020</title>
			<g id="shape1021-192" v:mID="1021" v:groupContext="shape">
				<title>工作表.1021</title>
				<path d="M0 589.1 L58.36 589.1 L58.36 589.99 L59.25 588.21 L58.36 586.44 L58.36 587.32 L0 587.32 L0 589.1 Z"
						class="st4"/>
				<path d="M0 589.1 L58.36 589.1 L58.36 589.99 L59.25 588.21 L58.36 586.44 L58.36 587.32 L0 587.32" class="st5"/>
			</g>
			<g id="shape1022-195" v:mID="1022" v:groupContext="shape">
				<title>工作表.1022</title>
				<path d="M0 589.1 L58.36 589.1 L58.36 589.99 L59.25 588.21 L58.36 586.44 L58.36 587.32 L0 587.32 L0 589.1"
						class="st6"/>
			</g>
			<g id="shape1023-198" v:mID="1023" v:groupContext="shape" transform="translate(-0.759727,-0.902723)">
				<title>工作表.1023</title>
				<rect x="0" y="588.241" width="0.334438" height="1.74532" class="st7"/>
			</g>
		</g>
	</g>
</svg>
