<?xml version="1.0" encoding="UTF-8" standalone="no"?>
<!DOCTYPE svg PUBLIC "-//W3C//DTD SVG 1.1//EN" "http://www.w3.org/Graphics/SVG/1.1/DTD/svg11.dtd">
<!-- 由 Microsoft Visio, SVG Export 生成 AVLTree4.svg 页-1 -->
<svg xmlns="http://www.w3.org/2000/svg" xmlns:xlink="http://www.w3.org/1999/xlink" xmlns:ev="http://www.w3.org/2001/xml-events"
		xmlns:v="http://schemas.microsoft.com/visio/2003/SVGExtensions/" width="10.6726in" height="4.6873in"
		viewBox="0 0 768.425 337.485" xml:space="preserve" color-interpolation-filters="sRGB" class="st9">
	<v:documentProperties v:langID="2052" v:metric="true" v:viewMarkup="false"/>

	<style type="text/css">
	<![CDATA[
		.st1 {fill:#ffffff}
		.st2 {stroke:none;stroke-linecap:round;stroke-linejoin:round;stroke-width:0.75}
		.st3 {stroke:#000000;stroke-linecap:round;stroke-linejoin:round;stroke-width:0.24}
		.st4 {fill:#ffffff;stroke:none;stroke-linecap:round;stroke-linejoin:round;stroke-width:0.24;visibility:hidden}
		.st5 {fill:#c05046;stroke:#000000;stroke-linecap:round;stroke-linejoin:round;stroke-width:0.75}
		.st6 {fill:#000000;font-family:Cambria Math;font-size:1.5em}
		.st7 {fill:#ffffff;stroke:#000000;stroke-linecap:round;stroke-linejoin:round;stroke-width:0.75}
		.st8 {fill:none;stroke:none;stroke-linecap:round;stroke-linejoin:round;stroke-width:0.75}
		.st9 {fill:none;fill-rule:evenodd;font-size:12px;overflow:visible;stroke-linecap:square;stroke-miterlimit:3}
	]]>
	</style>

	<g v:mID="0" v:index="1" v:groupContext="foregroundPage">
		<title>页-1</title>
		<v:pageProperties v:drawingScale="0.0393701" v:pageScale="0.0393701" v:drawingUnits="24" v:shadowOffsetX="8.50394"
				v:shadowOffsetY="-8.50394"/>
		<g id="group512-1" transform="translate(267.852,-172.62) rotate(36.767)" v:mID="512" v:groupContext="group">
			<v:userDefs>
				<v:ud v:nameU="visVersion" v:val="VT0(15):26"/>
			</v:userDefs>
			<title>一维单向箭头.512</title>
			<g id="shape513-2" v:mID="513" v:groupContext="shape">
				<title>工作表.513</title>
				<path d="M0 336.6 L50.1 336.6 L50.1 337.49 L50.99 335.71 L50.1 333.93 L50.1 334.82 L0 334.82 L0 336.6 Z"
						class="st1"/>
				<path d="M0 336.6 L50.1 336.6 L50.1 337.49 L50.99 335.71 L50.1 333.93 L50.1 334.82 L0 334.82" class="st2"/>
			</g>
			<g id="shape514-5" v:mID="514" v:groupContext="shape">
				<title>工作表.514</title>
				<path d="M0 336.6 L50.1 336.6 L50.1 337.49 L50.99 335.71 L50.1 333.93 L50.1 334.82 L0 334.82 L0 336.6" class="st3"/>
			</g>
			<g id="shape515-8" v:mID="515" v:groupContext="shape" transform="translate(-0.653786,-0.902723)">
				<title>工作表.515</title>
				<rect x="0" y="335.74" width="0.287802" height="1.74532" class="st4"/>
			</g>
		</g>
		<g id="group516-10" transform="translate(265.306,367.122) rotate(143.773)" v:mID="516" v:groupContext="group">
			<v:userDefs>
				<v:ud v:nameU="visVersion" v:val="VT0(15):26"/>
			</v:userDefs>
			<title>一维单向箭头.516</title>
			<g id="shape517-11" v:mID="517" v:groupContext="shape">
				<title>工作表.517</title>
				<path d="M0 336.6 L50.76 336.6 L50.76 337.49 L51.64 335.71 L50.76 333.93 L50.76 334.82 L0 334.82 L0 336.6 Z"
						class="st1"/>
				<path d="M0 336.6 L50.76 336.6 L50.76 337.49 L51.64 335.71 L50.76 333.93 L50.76 334.82 L0 334.82" class="st2"/>
			</g>
			<g id="shape518-14" v:mID="518" v:groupContext="shape">
				<title>工作表.518</title>
				<path d="M0 336.6 L50.76 336.6 L50.76 337.49 L51.64 335.71 L50.76 333.93 L50.76 334.82 L0 334.82 L0 336.6"
						class="st3"/>
			</g>
			<g id="shape519-17" v:mID="519" v:groupContext="shape" transform="translate(-0.662175,-0.902723)">
				<title>工作表.519</title>
				<rect x="0" y="335.74" width="0.291495" height="1.74532" class="st4"/>
			</g>
		</g>
		<g id="shape520-19" v:mID="520" v:groupContext="shape" transform="translate(42.0345,-241.176)">
			<title>圆形.520</title>
			<desc>1</desc>
			<v:userDefs>
				<v:ud v:nameU="visVersion" v:val="VT0(15):26"/>
			</v:userDefs>
			<v:textBlock v:margins="rect(4,4,4,4)" v:tabSpace="42.5197"/>
			<v:textRect cx="24.8736" cy="312.612" width="49.75" height="49.7473"/>
			<path d="M0 312.61 A24.8736 24.8736 0 0 1 49.75 312.61 A24.8736 24.8736 0 1 1 0 312.61 Z" class="st5"/>
			<text x="19.89" y="318.01" class="st6" v:langID="2052"><v:paragraph v:horizAlign="1"/><v:tabList/>1</text>		</g>
		<g id="shape521-22" v:mID="521" v:groupContext="shape" transform="translate(82.8802,-160.909)">
			<title>圆形.521</title>
			<desc>2</desc>
			<v:userDefs>
				<v:ud v:nameU="visVersion" v:val="VT0(15):26"/>
			</v:userDefs>
			<v:textBlock v:margins="rect(4,4,4,4)" v:tabSpace="42.5197"/>
			<v:textRect cx="24.8736" cy="312.612" width="49.75" height="49.7473"/>
			<path d="M0 312.61 A24.8736 24.8736 0 0 1 49.75 312.61 A24.8736 24.8736 0 1 1 0 312.61 Z" class="st5"/>
			<text x="19.89" y="318.01" class="st6" v:langID="2052"><v:paragraph v:horizAlign="1"/><v:tabList/>2</text>		</g>
		<g id="shape522-25" v:mID="522" v:groupContext="shape" transform="translate(0.375,-160.909)">
			<title>圆形.522</title>
			<desc>A</desc>
			<v:userDefs>
				<v:ud v:nameU="visVersion" v:val="VT0(15):26"/>
			</v:userDefs>
			<v:textBlock v:margins="rect(4,4,4,4)" v:tabSpace="42.5197"/>
			<v:textRect cx="24.8736" cy="312.612" width="49.75" height="49.7473"/>
			<path d="M0 312.61 A24.8736 24.8736 0 0 1 49.75 312.61 A24.8736 24.8736 0 1 1 0 312.61 Z" class="st7"/>
			<text x="19.27" y="318.01" class="st6" v:langID="2052"><v:paragraph v:horizAlign="1"/><v:tabList/>A</text>		</g>
		<g id="shape523-28" v:mID="523" v:groupContext="shape" transform="translate(39.949,-80.6421)">
			<title>圆形.523</title>
			<desc>3</desc>
			<v:userDefs>
				<v:ud v:nameU="visVersion" v:val="VT0(15):26"/>
			</v:userDefs>
			<v:textBlock v:margins="rect(4,4,4,4)" v:tabSpace="42.5197"/>
			<v:textRect cx="24.8736" cy="312.612" width="49.75" height="49.7473"/>
			<path d="M0 312.61 A24.8736 24.8736 0 0 1 49.75 312.61 A24.8736 24.8736 0 1 1 0 312.61 Z" class="st5"/>
			<text x="19.89" y="318.01" class="st6" v:langID="2052"><v:paragraph v:horizAlign="1"/><v:tabList/>3</text>		</g>
		<g id="shape524-31" v:mID="524" v:groupContext="shape" transform="translate(120.216,-80.6421)">
			<title>圆形.524</title>
			<desc>B</desc>
			<v:userDefs>
				<v:ud v:nameU="visVersion" v:val="VT0(15):26"/>
			</v:userDefs>
			<v:textBlock v:margins="rect(4,4,4,4)" v:tabSpace="42.5197"/>
			<v:textRect cx="24.8736" cy="312.612" width="49.75" height="49.7473"/>
			<path d="M0 312.61 A24.8736 24.8736 0 0 1 49.75 312.61 A24.8736 24.8736 0 1 1 0 312.61 Z" class="st7"/>
			<text x="19.37" y="318.01" class="st6" v:langID="2052"><v:paragraph v:horizAlign="1"/><v:tabList/>B</text>		</g>
		<g id="group525-34" transform="translate(302.267,450.192) rotate(144.591)" v:mID="525" v:groupContext="group">
			<v:userDefs>
				<v:ud v:nameU="visVersion" v:val="VT0(15):26"/>
			</v:userDefs>
			<title>一维单向箭头.525</title>
			<g id="shape526-35" v:mID="526" v:groupContext="shape">
				<title>工作表.526</title>
				<path d="M0 336.6 L51.79 336.6 L51.79 337.49 L52.67 335.71 L51.79 333.93 L51.79 334.82 L0 334.82 L0 336.6 Z"
						class="st1"/>
				<path d="M0 336.6 L51.79 336.6 L51.79 337.49 L52.67 335.71 L51.79 333.93 L51.79 334.82 L0 334.82" class="st2"/>
			</g>
			<g id="shape527-38" v:mID="527" v:groupContext="shape">
				<title>工作表.527</title>
				<path d="M0 336.6 L51.79 336.6 L51.79 337.49 L52.67 335.71 L51.79 333.93 L51.79 334.82 L0 334.82 L0 336.6"
						class="st3"/>
			</g>
			<g id="shape528-41" v:mID="528" v:groupContext="shape" transform="translate(-0.675397,-0.902723)">
				<title>工作表.528</title>
				<rect x="0" y="335.74" width="0.297315" height="1.74532" class="st4"/>
			</g>
		</g>
		<g id="group529-43" transform="translate(320.222,-83.3437) rotate(39.2639)" v:mID="529" v:groupContext="group">
			<v:userDefs>
				<v:ud v:nameU="visVersion" v:val="VT0(15):26"/>
			</v:userDefs>
			<title>一维单向箭头.529</title>
			<g id="shape530-44" v:mID="530" v:groupContext="shape">
				<title>工作表.530</title>
				<path d="M0 336.6 L47.34 336.6 L47.34 337.49 L48.22 335.71 L47.34 333.93 L47.34 334.82 L0 334.82 L0 336.6 Z"
						class="st1"/>
				<path d="M0 336.6 L47.34 336.6 L47.34 337.49 L48.22 335.71 L47.34 333.93 L47.34 334.82 L0 334.82" class="st2"/>
			</g>
			<g id="shape531-47" v:mID="531" v:groupContext="shape">
				<title>工作表.531</title>
				<path d="M0 336.6 L47.34 336.6 L47.34 337.49 L48.22 335.71 L47.34 333.93 L47.34 334.82 L0 334.82 L0 336.6"
						class="st3"/>
			</g>
			<g id="shape532-50" v:mID="532" v:groupContext="shape" transform="translate(-0.618322,-0.902723)">
				<title>工作表.532</title>
				<rect x="0" y="335.74" width="0.27219" height="1.74532" class="st4"/>
			</g>
		</g>
		<g id="shape533-52" v:mID="533" v:groupContext="shape" transform="translate(270.984,-302.521)">
			<title>工作表.533</title>
			<desc>RL</desc>
			<v:textBlock v:margins="rect(4,4,4,4)" v:tabSpace="42.5197"/>
			<v:textRect cx="66.1263" cy="320.191" width="132.26" height="34.5891"/>
			<rect x="0" y="302.896" width="132.253" height="34.5891" class="st8"/>
			<text x="55.71" y="325.59" class="st6" v:langID="2052"><v:paragraph v:horizAlign="1"/><v:tabList/>RL</text>		</g>
		<g id="group534-55" transform="translate(187.261,-117.368)" v:mID="534" v:groupContext="group">
			<v:userDefs>
				<v:ud v:nameU="visVersion" v:val="VT0(15):26"/>
			</v:userDefs>
			<title>一维单向箭头.534</title>
			<g id="shape535-56" v:mID="535" v:groupContext="shape">
				<title>工作表.535</title>
				<path d="M0 317.14 L33.91 317.14 L33.91 337.49 L50.87 296.79 L33.91 256.1 L33.91 276.45 L0 276.45 L0 317.14 Z"
						class="st1"/>
				<path d="M0 317.14 L33.91 317.14 L33.91 337.49 L50.87 296.79 L33.91 256.1 L33.91 276.45 L0 276.45" class="st2"/>
			</g>
			<g id="shape536-59" v:mID="536" v:groupContext="shape">
				<title>工作表.536</title>
				<path d="M0 317.14 L33.91 317.14 L33.91 337.49 L50.87 296.79 L33.91 256.1 L33.91 276.45 L0 276.45 L0 317.14"
						class="st3"/>
			</g>
			<g id="shape537-62" v:mID="537" v:groupContext="shape" transform="translate(-0.65222,-20.6911)">
				<title>工作表.537</title>
				<rect x="0" y="297.481" width="0.287112" height="40.004" class="st4"/>
			</g>
		</g>
		<g id="group538-64" transform="translate(795.817,413.242) rotate(150.65)" v:mID="538" v:groupContext="group">
			<v:userDefs>
				<v:ud v:nameU="visVersion" v:val="VT0(15):26"/>
			</v:userDefs>
			<title>一维单向箭头.538</title>
			<g id="shape539-65" v:mID="539" v:groupContext="shape">
				<title>工作表.539</title>
				<path d="M0 336.6 L61.38 336.6 L61.38 337.49 L62.27 335.71 L61.38 333.93 L61.38 334.82 L0 334.82 L0 336.6 Z"
						class="st1"/>
				<path d="M0 336.6 L61.38 336.6 L61.38 337.49 L62.27 335.71 L61.38 333.93 L61.38 334.82 L0 334.82" class="st2"/>
			</g>
			<g id="shape540-68" v:mID="540" v:groupContext="shape">
				<title>工作表.540</title>
				<path d="M0 336.6 L61.38 336.6 L61.38 337.49 L62.27 335.71 L61.38 333.93 L61.38 334.82 L0 334.82 L0 336.6"
						class="st3"/>
			</g>
			<g id="shape541-71" v:mID="541" v:groupContext="shape" transform="translate(-0.7984,-0.902723)">
				<title>工作表.541</title>
				<rect x="0" y="335.74" width="0.351462" height="1.74532" class="st4"/>
			</g>
		</g>
		<g id="group542-73" transform="translate(781.404,-179.645) rotate(26.5651)" v:mID="542" v:groupContext="group">
			<v:userDefs>
				<v:ud v:nameU="visVersion" v:val="VT0(15):26"/>
			</v:userDefs>
			<title>一维单向箭头.542</title>
			<g id="shape543-74" v:mID="543" v:groupContext="shape">
				<title>工作表.543</title>
				<path d="M0 336.6 L67.36 336.6 L67.36 337.49 L68.24 335.71 L67.36 333.93 L67.36 334.82 L0 334.82 L0 336.6 Z"
						class="st1"/>
				<path d="M0 336.6 L67.36 336.6 L67.36 337.49 L68.24 335.71 L67.36 333.93 L67.36 334.82 L0 334.82" class="st2"/>
			</g>
			<g id="shape544-77" v:mID="544" v:groupContext="shape">
				<title>工作表.544</title>
				<path d="M0 336.6 L67.36 336.6 L67.36 337.49 L68.24 335.71 L67.36 333.93 L67.36 334.82 L0 334.82 L0 336.6"
						class="st3"/>
			</g>
			<g id="shape545-80" v:mID="545" v:groupContext="shape" transform="translate(-0.875045,-0.902723)">
				<title>工作表.545</title>
				<rect x="0" y="335.74" width="0.385202" height="1.74532" class="st4"/>
			</g>
		</g>
		<g id="shape546-82" v:mID="546" v:groupContext="shape" transform="translate(606.397,-216.862)">
			<title>圆形.546</title>
			<desc>3</desc>
			<v:userDefs>
				<v:ud v:nameU="visVersion" v:val="VT0(15):26"/>
			</v:userDefs>
			<v:textBlock v:margins="rect(4,4,4,4)" v:tabSpace="42.5197"/>
			<v:textRect cx="24.8736" cy="312.612" width="49.75" height="49.7473"/>
			<path d="M0 312.61 A24.8736 24.8736 0 0 1 49.75 312.61 A24.8736 24.8736 0 1 1 0 312.61 Z" class="st5"/>
			<text x="19.89" y="318.01" class="st6" v:langID="2052"><v:paragraph v:horizAlign="1"/><v:tabList/>3</text>		</g>
		<g id="shape547-85" v:mID="547" v:groupContext="shape" transform="translate(552.122,-136.595)">
			<title>圆形.547</title>
			<desc>1</desc>
			<v:userDefs>
				<v:ud v:nameU="visVersion" v:val="VT0(15):26"/>
			</v:userDefs>
			<v:textBlock v:margins="rect(4,4,4,4)" v:tabSpace="42.5197"/>
			<v:textRect cx="24.8736" cy="312.612" width="49.75" height="49.7473"/>
			<path d="M0 312.61 A24.8736 24.8736 0 0 1 49.75 312.61 A24.8736 24.8736 0 1 1 0 312.61 Z" class="st5"/>
			<text x="19.89" y="318.01" class="st6" v:langID="2052"><v:paragraph v:horizAlign="1"/><v:tabList/>1</text>		</g>
		<g id="shape548-88" v:mID="548" v:groupContext="shape" transform="translate(667.436,-136.595)">
			<title>圆形.548</title>
			<desc>2</desc>
			<v:userDefs>
				<v:ud v:nameU="visVersion" v:val="VT0(15):26"/>
			</v:userDefs>
			<v:textBlock v:margins="rect(4,4,4,4)" v:tabSpace="42.5197"/>
			<v:textRect cx="24.8736" cy="312.612" width="49.75" height="49.7473"/>
			<path d="M0 312.61 A24.8736 24.8736 0 0 1 49.75 312.61 A24.8736 24.8736 0 1 1 0 312.61 Z" class="st5"/>
			<text x="19.89" y="318.01" class="st6" v:langID="2052"><v:paragraph v:horizAlign="1"/><v:tabList/>2</text>		</g>
		<g id="shape549-91" v:mID="549" v:groupContext="shape" transform="translate(718.303,-56.328)">
			<title>圆形.549</title>
			<desc>B</desc>
			<v:userDefs>
				<v:ud v:nameU="visVersion" v:val="VT0(15):26"/>
			</v:userDefs>
			<v:textBlock v:margins="rect(4,4,4,4)" v:tabSpace="42.5197"/>
			<v:textRect cx="24.8736" cy="312.612" width="49.75" height="49.7473"/>
			<path d="M0 312.61 A24.8736 24.8736 0 0 1 49.75 312.61 A24.8736 24.8736 0 1 1 0 312.61 Z" class="st7"/>
			<text x="19.37" y="318.01" class="st6" v:langID="2052"><v:paragraph v:horizAlign="1"/><v:tabList/>B</text>		</g>
		<g id="shape550-94" v:mID="550" v:groupContext="shape" transform="translate(510.31,-56.328)">
			<title>圆形.550</title>
			<desc>A</desc>
			<v:userDefs>
				<v:ud v:nameU="visVersion" v:val="VT0(15):26"/>
			</v:userDefs>
			<v:textBlock v:margins="rect(4,4,4,4)" v:tabSpace="42.5197"/>
			<v:textRect cx="24.8736" cy="312.612" width="49.75" height="49.7473"/>
			<path d="M0 312.61 A24.8736 24.8736 0 0 1 49.75 312.61 A24.8736 24.8736 0 1 1 0 312.61 Z" class="st7"/>
			<text x="19.27" y="318.01" class="st6" v:langID="2052"><v:paragraph v:horizAlign="1"/><v:tabList/>A</text>		</g>
		<g id="group551-97" transform="translate(865.031,-86.9787) rotate(30.9638)" v:mID="551" v:groupContext="group">
			<v:userDefs>
				<v:ud v:nameU="visVersion" v:val="VT0(15):26"/>
			</v:userDefs>
			<title>一维单向箭头.551</title>
			<g id="shape552-98" v:mID="552" v:groupContext="shape">
				<title>工作表.552</title>
				<path d="M0 336.6 L58.43 336.6 L58.43 337.49 L59.32 335.71 L58.43 333.93 L58.43 334.82 L0 334.82 L0 336.6 Z"
						class="st1"/>
				<path d="M0 336.6 L58.43 336.6 L58.43 337.49 L59.32 335.71 L58.43 333.93 L58.43 334.82 L0 334.82" class="st2"/>
			</g>
			<g id="shape553-101" v:mID="553" v:groupContext="shape">
				<title>工作表.553</title>
				<path d="M0 336.6 L58.43 336.6 L58.43 337.49 L59.32 335.71 L58.43 333.93 L58.43 334.82 L0 334.82 L0 336.6"
						class="st3"/>
			</g>
			<g id="shape554-104" v:mID="554" v:groupContext="shape" transform="translate(-0.760612,-0.902723)">
				<title>工作表.554</title>
				<rect x="0" y="335.74" width="0.334828" height="1.74532" class="st4"/>
			</g>
		</g>
		<g id="group555-106" transform="translate(774.921,472.048) rotate(143.873)" v:mID="555" v:groupContext="group">
			<v:userDefs>
				<v:ud v:nameU="visVersion" v:val="VT0(15):26"/>
			</v:userDefs>
			<title>一维单向箭头.555</title>
			<g id="shape556-107" v:mID="556" v:groupContext="shape">
				<title>工作表.556</title>
				<path d="M0 336.6 L50.88 336.6 L50.88 337.49 L51.77 335.71 L50.88 333.93 L50.88 334.82 L0 334.82 L0 336.6 Z"
						class="st1"/>
				<path d="M0 336.6 L50.88 336.6 L50.88 337.49 L51.77 335.71 L50.88 333.93 L50.88 334.82 L0 334.82" class="st2"/>
			</g>
			<g id="shape557-110" v:mID="557" v:groupContext="shape">
				<title>工作表.557</title>
				<path d="M0 336.6 L50.88 336.6 L50.88 337.49 L51.77 335.71 L50.88 333.93 L50.88 334.82 L0 334.82 L0 336.6"
						class="st3"/>
			</g>
			<g id="shape558-113" v:mID="558" v:groupContext="shape" transform="translate(-0.663755,-0.902723)">
				<title>工作表.558</title>
				<rect x="0" y="335.74" width="0.29219" height="1.74532" class="st4"/>
			</g>
		</g>
		<g id="shape559-115" v:mID="559" v:groupContext="shape" transform="translate(0.832797,-0.375)">
			<title>圆形.559</title>
			<desc>D</desc>
			<v:userDefs>
				<v:ud v:nameU="visVersion" v:val="VT0(15):26"/>
			</v:userDefs>
			<v:textBlock v:margins="rect(4,4,4,4)" v:tabSpace="42.5197"/>
			<v:textRect cx="24.8736" cy="312.612" width="49.75" height="49.7473"/>
			<path d="M0 312.61 A24.8736 24.8736 0 0 1 49.75 312.61 A24.8736 24.8736 0 1 1 0 312.61 Z" class="st7"/>
			<text x="18.92" y="318.01" class="st6" v:langID="2052"><v:paragraph v:horizAlign="1"/><v:tabList/>D</text>		</g>
		<g id="shape560-118" v:mID="560" v:groupContext="shape" transform="translate(90.8154,-0.375)">
			<title>圆形.560</title>
			<desc>C</desc>
			<v:userDefs>
				<v:ud v:nameU="visVersion" v:val="VT0(15):26"/>
			</v:userDefs>
			<v:textBlock v:margins="rect(4,4,4,4)" v:tabSpace="42.5197"/>
			<v:textRect cx="24.8736" cy="312.612" width="49.75" height="49.7473"/>
			<path d="M0 312.61 A24.8736 24.8736 0 0 1 49.75 312.61 A24.8736 24.8736 0 1 1 0 312.61 Z" class="st7"/>
			<text x="19.81" y="318.01" class="st6" v:langID="2052"><v:paragraph v:horizAlign="1"/><v:tabList/>C</text>		</g>
		<g id="group561-121" transform="translate(271.333,521.521) rotate(142.037)" v:mID="561" v:groupContext="group">
			<v:userDefs>
				<v:ud v:nameU="visVersion" v:val="VT0(15):26"/>
			</v:userDefs>
			<title>一维单向箭头.561</title>
			<g id="shape562-122" v:mID="562" v:groupContext="shape">
				<title>工作表.562</title>
				<path d="M0 336.6 L48.73 336.6 L48.73 337.49 L49.61 335.71 L48.73 333.93 L48.73 334.82 L0 334.82 L0 336.6 Z"
						class="st1"/>
				<path d="M0 336.6 L48.73 336.6 L48.73 337.49 L49.61 335.71 L48.73 333.93 L48.73 334.82 L0 334.82" class="st2"/>
			</g>
			<g id="shape563-125" v:mID="563" v:groupContext="shape">
				<title>工作表.563</title>
				<path d="M0 336.6 L48.73 336.6 L48.73 337.49 L49.61 335.71 L48.73 333.93 L48.73 334.82 L0 334.82 L0 336.6"
						class="st3"/>
			</g>
			<g id="shape564-128" v:mID="564" v:groupContext="shape" transform="translate(-0.63616,-0.902723)">
				<title>工作表.564</title>
				<rect x="0" y="335.74" width="0.280043" height="1.74532" class="st4"/>
			</g>
		</g>
		<g id="group565-130" transform="translate(237.544,-31.0257) rotate(30.9638)" v:mID="565" v:groupContext="group">
			<v:userDefs>
				<v:ud v:nameU="visVersion" v:val="VT0(15):26"/>
			</v:userDefs>
			<title>一维单向箭头.565</title>
			<g id="shape566-131" v:mID="566" v:groupContext="shape">
				<title>工作表.566</title>
				<path d="M0 336.6 L58.43 336.6 L58.43 337.49 L59.32 335.71 L58.43 333.93 L58.43 334.82 L0 334.82 L0 336.6 Z"
						class="st1"/>
				<path d="M0 336.6 L58.43 336.6 L58.43 337.49 L59.32 335.71 L58.43 333.93 L58.43 334.82 L0 334.82" class="st2"/>
			</g>
			<g id="shape567-134" v:mID="567" v:groupContext="shape">
				<title>工作表.567</title>
				<path d="M0 336.6 L58.43 336.6 L58.43 337.49 L59.32 335.71 L58.43 333.93 L58.43 334.82 L0 334.82 L0 336.6"
						class="st3"/>
			</g>
			<g id="shape568-137" v:mID="568" v:groupContext="shape" transform="translate(-0.760612,-0.902723)">
				<title>工作表.568</title>
				<rect x="0" y="335.74" width="0.334828" height="1.74532" class="st4"/>
			</g>
		</g>
		<g id="shape569-139" v:mID="569" v:groupContext="shape" transform="translate(586.05,-56.328)">
			<title>圆形.569</title>
			<desc>D</desc>
			<v:userDefs>
				<v:ud v:nameU="visVersion" v:val="VT0(15):26"/>
			</v:userDefs>
			<v:textBlock v:margins="rect(4,4,4,4)" v:tabSpace="42.5197"/>
			<v:textRect cx="24.8736" cy="312.612" width="49.75" height="49.7473"/>
			<path d="M0 312.61 A24.8736 24.8736 0 0 1 49.75 312.61 A24.8736 24.8736 0 1 1 0 312.61 Z" class="st7"/>
			<text x="18.92" y="318.01" class="st6" v:langID="2052"><v:paragraph v:horizAlign="1"/><v:tabList/>D</text>		</g>
		<g id="shape570-142" v:mID="570" v:groupContext="shape" transform="translate(647.09,-56.328)">
			<title>圆形.570</title>
			<desc>C</desc>
			<v:userDefs>
				<v:ud v:nameU="visVersion" v:val="VT0(15):26"/>
			</v:userDefs>
			<v:textBlock v:margins="rect(4,4,4,4)" v:tabSpace="42.5197"/>
			<v:textRect cx="24.8736" cy="312.612" width="49.75" height="49.7473"/>
			<path d="M0 312.61 A24.8736 24.8736 0 0 1 49.75 312.61 A24.8736 24.8736 0 1 1 0 312.61 Z" class="st7"/>
			<text x="19.81" y="318.01" class="st6" v:langID="2052"><v:paragraph v:horizAlign="1"/><v:tabList/>C</text>		</g>
		<g id="group571-145" transform="translate(801.512,-48.6968) rotate(41.973)" v:mID="571" v:groupContext="group">
			<v:userDefs>
				<v:ud v:nameU="visVersion" v:val="VT0(15):26"/>
			</v:userDefs>
			<title>一维单向箭头.571</title>
			<g id="shape572-146" v:mID="572" v:groupContext="shape">
				<title>工作表.572</title>
				<path d="M0 336.6 L44.75 336.6 L44.75 337.49 L45.64 335.71 L44.75 333.93 L44.75 334.82 L0 334.82 L0 336.6 Z"
						class="st1"/>
				<path d="M0 336.6 L44.75 336.6 L44.75 337.49 L45.64 335.71 L44.75 333.93 L44.75 334.82 L0 334.82" class="st2"/>
			</g>
			<g id="shape573-149" v:mID="573" v:groupContext="shape">
				<title>工作表.573</title>
				<path d="M0 336.6 L44.75 336.6 L44.75 337.49 L45.64 335.71 L44.75 333.93 L44.75 334.82 L0 334.82 L0 336.6"
						class="st3"/>
			</g>
			<g id="shape574-152" v:mID="574" v:groupContext="shape" transform="translate(-0.585143,-0.902723)">
				<title>工作表.574</title>
				<rect x="0" y="335.74" width="0.257585" height="1.74532" class="st4"/>
			</g>
		</g>
		<g id="group575-154" transform="translate(971.638,387.108) rotate(123.69)" v:mID="575" v:groupContext="group">
			<v:userDefs>
				<v:ud v:nameU="visVersion" v:val="VT0(15):26"/>
			</v:userDefs>
			<title>一维单向箭头.575</title>
			<g id="shape576-155" v:mID="576" v:groupContext="shape">
				<title>工作表.576</title>
				<path d="M0 336.6 L35.79 336.6 L35.79 337.49 L36.68 335.71 L35.79 333.93 L35.79 334.82 L0 334.82 L0 336.6 Z"
						class="st1"/>
				<path d="M0 336.6 L35.79 336.6 L35.79 337.49 L36.68 335.71 L35.79 333.93 L35.79 334.82 L0 334.82" class="st2"/>
			</g>
			<g id="shape577-158" v:mID="577" v:groupContext="shape">
				<title>工作表.577</title>
				<path d="M0 336.6 L35.79 336.6 L35.79 337.49 L36.68 335.71 L35.79 333.93 L35.79 334.82 L0 334.82 L0 336.6"
						class="st3"/>
			</g>
			<g id="shape578-161" v:mID="578" v:groupContext="shape" transform="translate(-0.470322,-0.902723)">
				<title>工作表.578</title>
				<rect x="0" y="335.74" width="0.20704" height="1.74532" class="st4"/>
			</g>
		</g>
		<g id="group579-163" transform="translate(528.756,-167.582) rotate(38.1804)" v:mID="579" v:groupContext="group">
			<v:userDefs>
				<v:ud v:nameU="visVersion" v:val="VT0(15):26"/>
			</v:userDefs>
			<title>一维单向箭头.579</title>
			<g id="shape580-164" v:mID="580" v:groupContext="shape">
				<title>工作表.580</title>
				<path d="M0 336.6 L48.49 336.6 L48.49 337.49 L49.37 335.71 L48.49 333.93 L48.49 334.82 L0 334.82 L0 336.6 Z"
						class="st1"/>
				<path d="M0 336.6 L48.49 336.6 L48.49 337.49 L49.37 335.71 L48.49 333.93 L48.49 334.82 L0 334.82" class="st2"/>
			</g>
			<g id="shape581-167" v:mID="581" v:groupContext="shape">
				<title>工作表.581</title>
				<path d="M0 336.6 L48.49 336.6 L48.49 337.49 L49.37 335.71 L48.49 333.93 L48.49 334.82 L0 334.82 L0 336.6"
						class="st3"/>
			</g>
			<g id="shape582-170" v:mID="582" v:groupContext="shape" transform="translate(-0.63308,-0.902723)">
				<title>工作表.582</title>
				<rect x="0" y="335.74" width="0.278687" height="1.74532" class="st4"/>
			</g>
		</g>
		<g id="group583-172" transform="translate(536.686,353.766) rotate(140.077)" v:mID="583" v:groupContext="group">
			<v:userDefs>
				<v:ud v:nameU="visVersion" v:val="VT0(15):26"/>
			</v:userDefs>
			<title>一维单向箭头.583</title>
			<g id="shape584-173" v:mID="584" v:groupContext="shape">
				<title>工作表.584</title>
				<path d="M0 336.6 L46.67 336.6 L46.67 337.49 L47.56 335.71 L46.67 333.93 L46.67 334.82 L0 334.82 L0 336.6 Z"
						class="st1"/>
				<path d="M0 336.6 L46.67 336.6 L46.67 337.49 L47.56 335.71 L46.67 333.93 L46.67 334.82 L0 334.82" class="st2"/>
			</g>
			<g id="shape585-176" v:mID="585" v:groupContext="shape">
				<title>工作表.585</title>
				<path d="M0 336.6 L46.67 336.6 L46.67 337.49 L47.56 335.71 L46.67 333.93 L46.67 334.82 L0 334.82 L0 336.6"
						class="st3"/>
			</g>
			<g id="shape586-179" v:mID="586" v:groupContext="shape" transform="translate(-0.609778,-0.902723)">
				<title>工作表.586</title>
				<rect x="0" y="335.74" width="0.268429" height="1.74532" class="st4"/>
			</g>
		</g>
		<g id="shape587-181" v:mID="587" v:groupContext="shape" transform="translate(296.366,-241.176)">
			<title>圆形.587</title>
			<desc>1</desc>
			<v:userDefs>
				<v:ud v:nameU="visVersion" v:val="VT0(15):26"/>
			</v:userDefs>
			<v:textBlock v:margins="rect(4,4,4,4)" v:tabSpace="42.5197"/>
			<v:textRect cx="24.8736" cy="312.612" width="49.75" height="49.7473"/>
			<path d="M0 312.61 A24.8736 24.8736 0 0 1 49.75 312.61 A24.8736 24.8736 0 1 1 0 312.61 Z" class="st5"/>
			<text x="19.89" y="318.01" class="st6" v:langID="2052"><v:paragraph v:horizAlign="1"/><v:tabList/>1</text>		</g>
		<g id="shape588-184" v:mID="588" v:groupContext="shape" transform="translate(335.177,-160.909)">
			<title>圆形.588</title>
			<desc>3</desc>
			<v:userDefs>
				<v:ud v:nameU="visVersion" v:val="VT0(15):26"/>
			</v:userDefs>
			<v:textBlock v:margins="rect(4,4,4,4)" v:tabSpace="42.5197"/>
			<v:textRect cx="24.8736" cy="312.612" width="49.75" height="49.7473"/>
			<path d="M0 312.61 A24.8736 24.8736 0 0 1 49.75 312.61 A24.8736 24.8736 0 1 1 0 312.61 Z" class="st5"/>
			<text x="19.89" y="318.01" class="st6" v:langID="2052"><v:paragraph v:horizAlign="1"/><v:tabList/>3</text>		</g>
		<g id="shape589-187" v:mID="589" v:groupContext="shape" transform="translate(259.895,-160.909)">
			<title>圆形.589</title>
			<desc>A</desc>
			<v:userDefs>
				<v:ud v:nameU="visVersion" v:val="VT0(15):26"/>
			</v:userDefs>
			<v:textBlock v:margins="rect(4,4,4,4)" v:tabSpace="42.5197"/>
			<v:textRect cx="24.8736" cy="312.612" width="49.75" height="49.7473"/>
			<path d="M0 312.61 A24.8736 24.8736 0 0 1 49.75 312.61 A24.8736 24.8736 0 1 1 0 312.61 Z" class="st7"/>
			<text x="19.27" y="318.01" class="st6" v:langID="2052"><v:paragraph v:horizAlign="1"/><v:tabList/>A</text>		</g>
		<g id="shape590-190" v:mID="590" v:groupContext="shape" transform="translate(375.87,-80.6421)">
			<title>圆形.590</title>
			<desc>2</desc>
			<v:userDefs>
				<v:ud v:nameU="visVersion" v:val="VT0(15):26"/>
			</v:userDefs>
			<v:textBlock v:margins="rect(4,4,4,4)" v:tabSpace="42.5197"/>
			<v:textRect cx="24.8736" cy="312.612" width="49.75" height="49.7473"/>
			<path d="M0 312.61 A24.8736 24.8736 0 0 1 49.75 312.61 A24.8736 24.8736 0 1 1 0 312.61 Z" class="st5"/>
			<text x="19.89" y="318.01" class="st6" v:langID="2052"><v:paragraph v:horizAlign="1"/><v:tabList/>2</text>		</g>
		<g id="shape591-193" v:mID="591" v:groupContext="shape" transform="translate(300.639,-80.6421)">
			<title>圆形.591</title>
			<desc>D</desc>
			<v:userDefs>
				<v:ud v:nameU="visVersion" v:val="VT0(15):26"/>
			</v:userDefs>
			<v:textBlock v:margins="rect(4,4,4,4)" v:tabSpace="42.5197"/>
			<v:textRect cx="24.8736" cy="312.612" width="49.75" height="49.7473"/>
			<path d="M0 312.61 A24.8736 24.8736 0 0 1 49.75 312.61 A24.8736 24.8736 0 1 1 0 312.61 Z" class="st7"/>
			<text x="18.92" y="318.01" class="st6" v:langID="2052"><v:paragraph v:horizAlign="1"/><v:tabList/>D</text>		</g>
		<g id="group592-196" transform="translate(561.477,-91.9919) rotate(36.8699)" v:mID="592" v:groupContext="group">
			<v:userDefs>
				<v:ud v:nameU="visVersion" v:val="VT0(15):26"/>
			</v:userDefs>
			<title>一维单向箭头.592</title>
			<g id="shape593-197" v:mID="593" v:groupContext="shape">
				<title>工作表.593</title>
				<path d="M0 336.6 L49.98 336.6 L49.98 337.49 L50.87 335.71 L49.98 333.93 L49.98 334.82 L0 334.82 L0 336.6 Z"
						class="st1"/>
				<path d="M0 336.6 L49.98 336.6 L49.98 337.49 L50.87 335.71 L49.98 333.93 L49.98 334.82 L0 334.82" class="st2"/>
			</g>
			<g id="shape594-200" v:mID="594" v:groupContext="shape">
				<title>工作表.594</title>
				<path d="M0 336.6 L49.98 336.6 L49.98 337.49 L50.87 335.71 L49.98 333.93 L49.98 334.82 L0 334.82 L0 336.6"
						class="st3"/>
			</g>
			<g id="shape595-203" v:mID="595" v:groupContext="shape" transform="translate(-0.65222,-0.902723)">
				<title>工作表.595</title>
				<rect x="0" y="335.74" width="0.287112" height="1.74532" class="st4"/>
			</g>
		</g>
		<g id="group596-205" transform="translate(582.348,428.142) rotate(138.534)" v:mID="596" v:groupContext="group">
			<v:userDefs>
				<v:ud v:nameU="visVersion" v:val="VT0(15):26"/>
			</v:userDefs>
			<title>一维单向箭头.596</title>
			<g id="shape597-206" v:mID="597" v:groupContext="shape">
				<title>工作表.597</title>
				<path d="M0 336.6 L45.2 336.6 L45.2 337.49 L46.09 335.71 L45.2 333.93 L45.2 334.82 L0 334.82 L0 336.6 Z"
						class="st1"/>
				<path d="M0 336.6 L45.2 336.6 L45.2 337.49 L46.09 335.71 L45.2 333.93 L45.2 334.82 L0 334.82" class="st2"/>
			</g>
			<g id="shape598-209" v:mID="598" v:groupContext="shape">
				<title>工作表.598</title>
				<path d="M0 336.6 L45.2 336.6 L45.2 337.49 L46.09 335.71 L45.2 333.93 L45.2 334.82 L0 334.82 L0 336.6" class="st3"/>
			</g>
			<g id="shape599-212" v:mID="599" v:groupContext="shape" transform="translate(-0.590985,-0.902723)">
				<title>工作表.599</title>
				<rect x="0" y="335.74" width="0.260156" height="1.74532" class="st4"/>
			</g>
		</g>
		<g id="group600-214" transform="translate(452.592,-120.559)" v:mID="600" v:groupContext="group">
			<v:userDefs>
				<v:ud v:nameU="visVersion" v:val="VT0(15):26"/>
			</v:userDefs>
			<title>一维单向箭头.600</title>
			<g id="shape601-215" v:mID="601" v:groupContext="shape">
				<title>工作表.601</title>
				<path d="M0 317.14 L33.91 317.14 L33.91 337.49 L50.87 296.79 L33.91 256.1 L33.91 276.45 L0 276.45 L0 317.14 Z"
						class="st1"/>
				<path d="M0 317.14 L33.91 317.14 L33.91 337.49 L50.87 296.79 L33.91 256.1 L33.91 276.45 L0 276.45" class="st2"/>
			</g>
			<g id="shape602-218" v:mID="602" v:groupContext="shape">
				<title>工作表.602</title>
				<path d="M0 317.14 L33.91 317.14 L33.91 337.49 L50.87 296.79 L33.91 256.1 L33.91 276.45 L0 276.45 L0 317.14"
						class="st3"/>
			</g>
			<g id="shape603-221" v:mID="603" v:groupContext="shape" transform="translate(-0.65222,-20.6911)">
				<title>工作表.603</title>
				<rect x="0" y="297.481" width="0.287112" height="40.004" class="st4"/>
			</g>
		</g>
		<g id="shape604-223" v:mID="604" v:groupContext="shape" transform="translate(408.425,-0.375)">
			<title>圆形.604</title>
			<desc>B</desc>
			<v:userDefs>
				<v:ud v:nameU="visVersion" v:val="VT0(15):26"/>
			</v:userDefs>
			<v:textBlock v:margins="rect(4,4,4,4)" v:tabSpace="42.5197"/>
			<v:textRect cx="24.8736" cy="312.612" width="49.75" height="49.7473"/>
			<path d="M0 312.61 A24.8736 24.8736 0 0 1 49.75 312.61 A24.8736 24.8736 0 1 1 0 312.61 Z" class="st7"/>
			<text x="19.37" y="318.01" class="st6" v:langID="2052"><v:paragraph v:horizAlign="1"/><v:tabList/>B</text>		</g>
		<g id="shape605-226" v:mID="605" v:groupContext="shape" transform="translate(335.635,-0.375)">
			<title>圆形.605</title>
			<desc>C</desc>
			<v:userDefs>
				<v:ud v:nameU="visVersion" v:val="VT0(15):26"/>
			</v:userDefs>
			<v:textBlock v:margins="rect(4,4,4,4)" v:tabSpace="42.5197"/>
			<v:textRect cx="24.8736" cy="312.612" width="49.75" height="49.7473"/>
			<path d="M0 312.61 A24.8736 24.8736 0 0 1 49.75 312.61 A24.8736 24.8736 0 1 1 0 312.61 Z" class="st7"/>
			<text x="19.81" y="318.01" class="st6" v:langID="2052"><v:paragraph v:horizAlign="1"/><v:tabList/>C</text>		</g>
		<g id="group606-229" transform="translate(630.35,11.9303) rotate(43.1524)" v:mID="606" v:groupContext="group">
			<v:userDefs>
				<v:ud v:nameU="visVersion" v:val="VT0(15):26"/>
			</v:userDefs>
			<title>一维单向箭头.606</title>
			<g id="shape607-230" v:mID="607" v:groupContext="shape">
				<title>工作表.607</title>
				<path d="M0 336.6 L43.74 336.6 L43.74 337.49 L44.62 335.71 L43.74 333.93 L43.74 334.82 L0 334.82 L0 336.6 Z"
						class="st1"/>
				<path d="M0 336.6 L43.74 336.6 L43.74 337.49 L44.62 335.71 L43.74 333.93 L43.74 334.82 L0 334.82" class="st2"/>
			</g>
			<g id="shape608-233" v:mID="608" v:groupContext="shape">
				<title>工作表.608</title>
				<path d="M0 336.6 L43.74 336.6 L43.74 337.49 L44.62 335.71 L43.74 333.93 L43.74 334.82 L0 334.82 L0 336.6"
						class="st3"/>
			</g>
			<g id="shape609-236" v:mID="609" v:groupContext="shape" transform="translate(-0.572172,-0.902723)">
				<title>工作表.609</title>
				<rect x="0" y="335.74" width="0.251875" height="1.74532" class="st4"/>
			</g>
		</g>
		<g id="group610-238" transform="translate(603.628,524.312) rotate(142.818)" v:mID="610" v:groupContext="group">
			<v:userDefs>
				<v:ud v:nameU="visVersion" v:val="VT0(15):26"/>
			</v:userDefs>
			<title>一维单向箭头.610</title>
			<g id="shape611-239" v:mID="611" v:groupContext="shape">
				<title>工作表.611</title>
				<path d="M0 336.6 L49.61 336.6 L49.61 337.49 L50.5 335.71 L49.61 333.93 L49.61 334.82 L0 334.82 L0 336.6 Z"
						class="st1"/>
				<path d="M0 336.6 L49.61 336.6 L49.61 337.49 L50.5 335.71 L49.61 333.93 L49.61 334.82 L0 334.82" class="st2"/>
			</g>
			<g id="shape612-242" v:mID="612" v:groupContext="shape">
				<title>工作表.612</title>
				<path d="M0 336.6 L49.61 336.6 L49.61 337.49 L50.5 335.71 L49.61 333.93 L49.61 334.82 L0 334.82 L0 336.6"
						class="st3"/>
			</g>
			<g id="shape613-245" v:mID="613" v:groupContext="shape" transform="translate(-0.647533,-0.902723)">
				<title>工作表.613</title>
				<rect x="0" y="335.74" width="0.285049" height="1.74532" class="st4"/>
			</g>
		</g>
	</g>
</svg>
