<?xml version="1.0" encoding="UTF-8" standalone="no"?>
<!DOCTYPE svg PUBLIC "-//W3C//DTD SVG 1.1//EN" "http://www.w3.org/Graphics/SVG/1.1/DTD/svg11.dtd">
<!-- 由 Microsoft Visio, SVG Export 生成 AVLTree5.svg 页-1 -->
<svg xmlns="http://www.w3.org/2000/svg" xmlns:xlink="http://www.w3.org/1999/xlink" xmlns:ev="http://www.w3.org/2001/xml-events"
		xmlns:v="http://schemas.microsoft.com/visio/2003/SVGExtensions/" width="5.81342in" height="6.84912in"
		viewBox="0 0 418.566 493.136" xml:space="preserve" color-interpolation-filters="sRGB" class="st8">
	<v:documentProperties v:langID="2052" v:metric="true" v:viewMarkup="false"/>

	<style type="text/css">
	<![CDATA[
		.st1 {fill:#ffffff;stroke:#000000;stroke-linecap:round;stroke-linejoin:round;stroke-width:0.75}
		.st2 {fill:#000000;font-family:Cambria Math;font-size:1.5em}
		.st3 {font-size:1em}
		.st4 {fill:#ffffff}
		.st5 {stroke:none;stroke-linecap:round;stroke-linejoin:round;stroke-width:0.75}
		.st6 {stroke:#000000;stroke-linecap:round;stroke-linejoin:round;stroke-width:0.24}
		.st7 {fill:#ffffff;stroke:none;stroke-linecap:round;stroke-linejoin:round;stroke-width:0.24;visibility:hidden}
		.st8 {fill:none;fill-rule:evenodd;font-size:12px;overflow:visible;stroke-linecap:square;stroke-miterlimit:3}
	]]>
	</style>

	<g v:mID="0" v:index="1" v:groupContext="foregroundPage">
		<title>页-1</title>
		<v:pageProperties v:drawingScale="0.0393701" v:pageScale="0.0393701" v:drawingUnits="24" v:shadowOffsetX="8.50394"
				v:shadowOffsetY="-8.50394"/>
		<g id="shape647-1" v:mID="647" v:groupContext="shape" transform="translate(186.648,-444.031)">
			<title>矩形.306</title>
			<desc>10 3</desc>
			<v:userDefs>
				<v:ud v:nameU="visVersion" v:val="VT0(15):26"/>
			</v:userDefs>
			<v:textBlock v:margins="rect(4,4,4,4)" v:tabSpace="42.5197"/>
			<v:textRect cx="17.1928" cy="468.771" width="34.39" height="48.73"/>
			<rect x="0" y="444.406" width="34.3857" height="48.73" class="st1"/>
			<text x="7.23" y="463.37" class="st2" v:langID="2052"><v:paragraph v:horizAlign="1"/><v:tabList/>10<v:newlineChar/><tspan
						x="12.21" dy="1.2em" class="st3">3</tspan></text>		</g>
		<g id="shape648-5" v:mID="648" v:groupContext="shape" transform="translate(278.207,-340.061)">
			<title>矩形.307</title>
			<desc>15 2</desc>
			<v:userDefs>
				<v:ud v:nameU="visVersion" v:val="VT0(15):26"/>
			</v:userDefs>
			<v:textBlock v:margins="rect(4,4,4,4)" v:tabSpace="42.5197"/>
			<v:textRect cx="17.1928" cy="468.771" width="34.39" height="48.73"/>
			<rect x="0" y="444.406" width="34.3857" height="48.73" class="st1"/>
			<text x="7.23" y="463.37" class="st2" v:langID="2052"><v:paragraph v:horizAlign="1"/><v:tabList/>15<v:newlineChar/><tspan
						x="12.21" dy="1.2em" class="st3">2</tspan></text>		</g>
		<g id="shape649-9" v:mID="649" v:groupContext="shape" transform="translate(88.7807,-340.061)">
			<title>矩形.308</title>
			<desc>5 2</desc>
			<v:userDefs>
				<v:ud v:nameU="visVersion" v:val="VT0(15):26"/>
			</v:userDefs>
			<v:textBlock v:margins="rect(4,4,4,4)" v:tabSpace="42.5197"/>
			<v:textRect cx="17.1928" cy="468.771" width="34.39" height="48.73"/>
			<rect x="0" y="444.406" width="34.3857" height="48.73" class="st1"/>
			<text x="12.21" y="463.37" class="st2" v:langID="2052"><v:paragraph v:horizAlign="1"/><v:tabList/>5<v:newlineChar/><tspan
						x="12.21" dy="1.2em" class="st3">2</tspan></text>		</g>
		<g id="group650-13" transform="translate(445.369,477.006) rotate(150.557)" v:mID="650" v:groupContext="group">
			<v:userDefs>
				<v:ud v:nameU="visVersion" v:val="VT0(15):26"/>
			</v:userDefs>
			<title>一维单向箭头.310</title>
			<g id="shape651-14" v:mID="651" v:groupContext="shape">
				<title>工作表.651</title>
				<path d="M0 492.25 L111.49 492.25 L111.49 493.14 L112.38 491.36 L111.49 489.59 L111.49 490.47 L0 490.47 L0 492.25
							 Z" class="st4"/>
				<path d="M0 492.25 L111.49 492.25 L111.49 493.14 L112.38 491.36 L111.49 489.59 L111.49 490.47 L0 490.47"
						class="st5"/>
			</g>
			<g id="shape652-17" v:mID="652" v:groupContext="shape">
				<title>工作表.652</title>
				<path d="M0 492.25 L111.49 492.25 L111.49 493.14 L112.38 491.36 L111.49 489.59 L111.49 490.47 L0 490.47 L0 492.25"
						class="st6"/>
			</g>
			<g id="shape653-20" v:mID="653" v:groupContext="shape" transform="translate(-1.44097,-0.902723)">
				<title>工作表.653</title>
				<rect x="0" y="491.391" width="0.634328" height="1.74532" class="st7"/>
			</g>
		</g>
		<g id="group654-22" transform="translate(457.674,-371.614) rotate(31.104)" v:mID="654" v:groupContext="group">
			<v:userDefs>
				<v:ud v:nameU="visVersion" v:val="VT0(15):26"/>
			</v:userDefs>
			<title>一维单向箭头.314</title>
			<g id="shape655-23" v:mID="655" v:groupContext="shape">
				<title>工作表.655</title>
				<path d="M0 492.25 L106.05 492.25 L106.05 493.14 L106.93 491.36 L106.05 489.59 L106.05 490.47 L0 490.47 L0 492.25
							 Z" class="st4"/>
				<path d="M0 492.25 L106.05 492.25 L106.05 493.14 L106.93 491.36 L106.05 489.59 L106.05 490.47 L0 490.47"
						class="st5"/>
			</g>
			<g id="shape656-26" v:mID="656" v:groupContext="shape">
				<title>工作表.656</title>
				<path d="M0 492.25 L106.05 492.25 L106.05 493.14 L106.93 491.36 L106.05 489.59 L106.05 490.47 L0 490.47 L0 492.25"
						class="st6"/>
			</g>
			<g id="shape657-29" v:mID="657" v:groupContext="shape" transform="translate(-1.37112,-0.902723)">
				<title>工作表.657</title>
				<rect x="0" y="491.391" width="0.603578" height="1.74532" class="st7"/>
			</g>
		</g>
		<g id="shape658-31" v:mID="658" v:groupContext="shape" transform="translate(237.514,-222.203)">
			<title>矩形.318</title>
			<desc>13 1</desc>
			<v:userDefs>
				<v:ud v:nameU="visVersion" v:val="VT0(15):26"/>
			</v:userDefs>
			<v:textBlock v:margins="rect(4,4,4,4)" v:tabSpace="42.5197"/>
			<v:textRect cx="17.1928" cy="468.771" width="34.39" height="48.73"/>
			<rect x="0" y="444.406" width="34.3857" height="48.73" class="st1"/>
			<text x="7.23" y="463.37" class="st2" v:langID="2052"><v:paragraph v:horizAlign="1"/><v:tabList/>13<v:newlineChar/><tspan
						x="12.21" dy="1.2em" class="st3">1</tspan></text>		</g>
		<g id="group659-35" transform="translate(718.841,402.342) rotate(120.484)" v:mID="659" v:groupContext="group">
			<v:userDefs>
				<v:ud v:nameU="visVersion" v:val="VT0(15):26"/>
			</v:userDefs>
			<title>一维单向箭头.319</title>
			<g id="shape660-36" v:mID="660" v:groupContext="shape">
				<title>工作表.660</title>
				<path d="M0 492.25 L79.33 492.25 L79.33 493.14 L80.22 491.36 L79.33 489.59 L79.33 490.47 L0 490.47 L0 492.25 Z"
						class="st4"/>
				<path d="M0 492.25 L79.33 492.25 L79.33 493.14 L80.22 491.36 L79.33 489.59 L79.33 490.47 L0 490.47" class="st5"/>
			</g>
			<g id="shape661-39" v:mID="661" v:groupContext="shape">
				<title>工作表.661</title>
				<path d="M0 492.25 L79.33 492.25 L79.33 493.14 L80.22 491.36 L79.33 489.59 L79.33 490.47 L0 490.47 L0 492.25"
						class="st6"/>
			</g>
			<g id="shape662-42" v:mID="662" v:groupContext="shape" transform="translate(-1.02854,-0.902723)">
				<title>工作表.662</title>
				<rect x="0" y="491.391" width="0.452772" height="1.74532" class="st7"/>
			</g>
		</g>
		<g id="shape663-44" v:mID="663" v:groupContext="shape" transform="translate(348.708,-222.203)">
			<title>矩形.323</title>
			<desc>19 1</desc>
			<v:userDefs>
				<v:ud v:nameU="visVersion" v:val="VT0(15):26"/>
			</v:userDefs>
			<v:textBlock v:margins="rect(4,4,4,4)" v:tabSpace="42.5197"/>
			<v:textRect cx="17.1928" cy="468.771" width="34.39" height="48.73"/>
			<rect x="0" y="444.406" width="34.3857" height="48.73" class="st1"/>
			<text x="7.23" y="463.37" class="st2" v:langID="2052"><v:paragraph v:horizAlign="1"/><v:tabList/>19<v:newlineChar/><tspan
						x="12.21" dy="1.2em" class="st3">1</tspan></text>		</g>
		<g id="group664-48" transform="translate(639.41,-197.769) rotate(44.4365)" v:mID="664" v:groupContext="group">
			<v:userDefs>
				<v:ud v:nameU="visVersion" v:val="VT0(15):26"/>
			</v:userDefs>
			<title>一维单向箭头.664</title>
			<g id="shape665-49" v:mID="665" v:groupContext="shape">
				<title>工作表.665</title>
				<path d="M0 492.25 L97.85 492.25 L97.85 493.14 L98.74 491.36 L97.85 489.59 L97.85 490.47 L0 490.47 L0 492.25 Z"
						class="st4"/>
				<path d="M0 492.25 L97.85 492.25 L97.85 493.14 L98.74 491.36 L97.85 489.59 L97.85 490.47 L0 490.47" class="st5"/>
			</g>
			<g id="shape666-52" v:mID="666" v:groupContext="shape">
				<title>工作表.666</title>
				<path d="M0 492.25 L97.85 492.25 L97.85 493.14 L98.74 491.36 L97.85 489.59 L97.85 490.47 L0 490.47 L0 492.25"
						class="st6"/>
			</g>
			<g id="shape667-55" v:mID="667" v:groupContext="shape" transform="translate(-1.26602,-0.902723)">
				<title>工作表.667</title>
				<rect x="0" y="491.391" width="0.557314" height="1.74532" class="st7"/>
			</g>
		</g>
		<g id="shape668-57" v:mID="668" v:groupContext="shape" transform="translate(41.0681,-222.203)">
			<title>矩形.328</title>
			<desc>2 1</desc>
			<v:userDefs>
				<v:ud v:nameU="visVersion" v:val="VT0(15):26"/>
			</v:userDefs>
			<v:textBlock v:margins="rect(4,4,4,4)" v:tabSpace="42.5197"/>
			<v:textRect cx="17.1928" cy="468.771" width="34.39" height="48.73"/>
			<rect x="0" y="444.406" width="34.3857" height="48.73" class="st1"/>
			<text x="12.21" y="463.37" class="st2" v:langID="2052"><v:paragraph v:horizAlign="1"/><v:tabList/>2<v:newlineChar/><tspan
						x="12.21" dy="1.2em" class="st3">1</tspan></text>		</g>
		<g id="shape669-61" v:mID="669" v:groupContext="shape" transform="translate(126.32,-222.203)">
			<title>矩形.329</title>
			<desc>7 1</desc>
			<v:userDefs>
				<v:ud v:nameU="visVersion" v:val="VT0(15):26"/>
			</v:userDefs>
			<v:textBlock v:margins="rect(4,4,4,4)" v:tabSpace="42.5197"/>
			<v:textRect cx="17.1928" cy="468.771" width="34.39" height="48.73"/>
			<rect x="0" y="444.406" width="34.3857" height="48.73" class="st1"/>
			<text x="12.21" y="463.37" class="st2" v:langID="2052"><v:paragraph v:horizAlign="1"/><v:tabList/>7<v:newlineChar/><tspan
						x="12.21" dy="1.2em" class="st3">1</tspan></text>		</g>
		<g id="group670-65" transform="translate(510.363,432.191) rotate(124.614)" v:mID="670" v:groupContext="group">
			<v:userDefs>
				<v:ud v:nameU="visVersion" v:val="VT0(15):26"/>
			</v:userDefs>
			<title>一维单向箭头.330</title>
			<g id="shape671-66" v:mID="671" v:groupContext="shape">
				<title>工作表.671</title>
				<path d="M0 492.25 L83.11 492.25 L83.11 493.14 L83.99 491.36 L83.11 489.59 L83.11 490.47 L0 490.47 L0 492.25 Z"
						class="st4"/>
				<path d="M0 492.25 L83.11 492.25 L83.11 493.14 L83.99 491.36 L83.11 489.59 L83.11 490.47 L0 490.47" class="st5"/>
			</g>
			<g id="shape672-69" v:mID="672" v:groupContext="shape">
				<title>工作表.672</title>
				<path d="M0 492.25 L83.11 492.25 L83.11 493.14 L83.99 491.36 L83.11 489.59 L83.11 490.47 L0 490.47 L0 492.25"
						class="st6"/>
			</g>
			<g id="shape673-72" v:mID="673" v:groupContext="shape" transform="translate(-1.077,-0.902723)">
				<title>工作表.673</title>
				<rect x="0" y="491.391" width="0.474103" height="1.74532" class="st7"/>
			</g>
		</g>
		<g id="group674-74" transform="translate(537.774,-81.4116) rotate(61.496)" v:mID="674" v:groupContext="group">
			<v:userDefs>
				<v:ud v:nameU="visVersion" v:val="VT0(15):26"/>
			</v:userDefs>
			<title>一维单向箭头.334</title>
			<g id="shape675-75" v:mID="675" v:groupContext="shape">
				<title>工作表.675</title>
				<path d="M0 492.25 L77.77 492.25 L77.77 493.14 L78.66 491.36 L77.77 489.59 L77.77 490.47 L0 490.47 L0 492.25 Z"
						class="st4"/>
				<path d="M0 492.25 L77.77 492.25 L77.77 493.14 L78.66 491.36 L77.77 489.59 L77.77 490.47 L0 490.47" class="st5"/>
			</g>
			<g id="shape676-78" v:mID="676" v:groupContext="shape">
				<title>工作表.676</title>
				<path d="M0 492.25 L77.77 492.25 L77.77 493.14 L78.66 491.36 L77.77 489.59 L77.77 490.47 L0 490.47 L0 492.25"
						class="st6"/>
			</g>
			<g id="shape677-81" v:mID="677" v:groupContext="shape" transform="translate(-1.00863,-0.902723)">
				<title>工作表.677</title>
				<rect x="0" y="491.391" width="0.444006" height="1.74532" class="st7"/>
			</g>
		</g>
		<g id="shape678-83" v:mID="678" v:groupContext="shape" transform="translate(0.375,-112.281)">
			<title>矩形.338</title>
			<desc>1 0</desc>
			<v:userDefs>
				<v:ud v:nameU="visVersion" v:val="VT0(15):26"/>
			</v:userDefs>
			<v:textBlock v:margins="rect(4,4,4,4)" v:tabSpace="42.5197"/>
			<v:textRect cx="17.1928" cy="468.771" width="34.39" height="48.73"/>
			<rect x="0" y="444.406" width="34.3857" height="48.73" class="st1"/>
			<text x="12.21" y="463.37" class="st2" v:langID="2052"><v:paragraph v:horizAlign="1"/><v:tabList/>1<v:newlineChar/><tspan
						x="12.21" dy="1.2em" class="st3">0</tspan></text>		</g>
		<g id="shape679-87" v:mID="679" v:groupContext="shape" transform="translate(49.6645,-112.281)">
			<title>矩形.339</title>
			<desc>3 0</desc>
			<v:userDefs>
				<v:ud v:nameU="visVersion" v:val="VT0(15):26"/>
			</v:userDefs>
			<v:textBlock v:margins="rect(4,4,4,4)" v:tabSpace="42.5197"/>
			<v:textRect cx="17.1928" cy="468.771" width="34.39" height="48.73"/>
			<rect x="0" y="444.406" width="34.3857" height="48.73" class="st1"/>
			<text x="12.21" y="463.37" class="st2" v:langID="2052"><v:paragraph v:horizAlign="1"/><v:tabList/>3<v:newlineChar/><tspan
						x="12.21" dy="1.2em" class="st3">0</tspan></text>		</g>
		<g id="group680-91" transform="translate(467.412,543.02) rotate(123.624)" v:mID="680" v:groupContext="group">
			<v:userDefs>
				<v:ud v:nameU="visVersion" v:val="VT0(15):26"/>
			</v:userDefs>
			<title>一维单向箭头.340</title>
			<g id="shape681-92" v:mID="681" v:groupContext="shape">
				<title>工作表.681</title>
				<path d="M0 492.25 L72.6 492.25 L72.6 493.14 L73.49 491.36 L72.6 489.59 L72.6 490.47 L0 490.47 L0 492.25 Z"
						class="st4"/>
				<path d="M0 492.25 L72.6 492.25 L72.6 493.14 L73.49 491.36 L72.6 489.59 L72.6 490.47 L0 490.47" class="st5"/>
			</g>
			<g id="shape682-95" v:mID="682" v:groupContext="shape">
				<title>工作表.682</title>
				<path d="M0 492.25 L72.6 492.25 L72.6 493.14 L73.49 491.36 L72.6 489.59 L72.6 490.47 L0 490.47 L0 492.25"
						class="st6"/>
			</g>
			<g id="shape683-98" v:mID="683" v:groupContext="shape" transform="translate(-0.942273,-0.902723)">
				<title>工作表.683</title>
				<rect x="0" y="491.391" width="0.414796" height="1.74532" class="st7"/>
			</g>
		</g>
		<g id="group684-100" transform="translate(544.844,202.577) rotate(82.0033)" v:mID="684" v:groupContext="group">
			<v:userDefs>
				<v:ud v:nameU="visVersion" v:val="VT0(15):26"/>
			</v:userDefs>
			<title>一维单向箭头.344</title>
			<g id="shape685-101" v:mID="685" v:groupContext="shape">
				<title>工作表.685</title>
				<path d="M0 492.25 L60.91 492.25 L60.91 493.14 L61.79 491.36 L60.91 489.59 L60.91 490.47 L0 490.47 L0 492.25 Z"
						class="st4"/>
				<path d="M0 492.25 L60.91 492.25 L60.91 493.14 L61.79 491.36 L60.91 489.59 L60.91 490.47 L0 490.47" class="st5"/>
			</g>
			<g id="shape686-104" v:mID="686" v:groupContext="shape">
				<title>工作表.686</title>
				<path d="M0 492.25 L60.91 492.25 L60.91 493.14 L61.79 491.36 L60.91 489.59 L60.91 490.47 L0 490.47 L0 492.25"
						class="st6"/>
			</g>
			<g id="shape687-107" v:mID="687" v:groupContext="shape" transform="translate(-0.792325,-0.902723)">
				<title>工作表.687</title>
				<rect x="0" y="491.391" width="0.348788" height="1.74532" class="st7"/>
			</g>
		</g>
		<g id="shape688-109" v:mID="688" v:groupContext="shape" transform="translate(98.954,-112.281)">
			<title>矩形.348</title>
			<desc>6 0</desc>
			<v:userDefs>
				<v:ud v:nameU="visVersion" v:val="VT0(15):26"/>
			</v:userDefs>
			<v:textBlock v:margins="rect(4,4,4,4)" v:tabSpace="42.5197"/>
			<v:textRect cx="17.1928" cy="468.771" width="34.39" height="48.73"/>
			<rect x="0" y="444.406" width="34.3857" height="48.73" class="st1"/>
			<text x="12.21" y="463.37" class="st2" v:langID="2052"><v:paragraph v:horizAlign="1"/><v:tabList/>6<v:newlineChar/><tspan
						x="12.21" dy="1.2em" class="st3">0</tspan></text>		</g>
		<g id="shape689-113" v:mID="689" v:groupContext="shape" transform="translate(142.801,-112.281)">
			<title>矩形.349</title>
			<desc>8 0</desc>
			<v:userDefs>
				<v:ud v:nameU="visVersion" v:val="VT0(15):26"/>
			</v:userDefs>
			<v:textBlock v:margins="rect(4,4,4,4)" v:tabSpace="42.5197"/>
			<v:textRect cx="17.1928" cy="468.771" width="34.39" height="48.73"/>
			<rect x="0" y="444.406" width="34.3857" height="48.73" class="st1"/>
			<text x="12.21" y="463.37" class="st2" v:langID="2052"><v:paragraph v:horizAlign="1"/><v:tabList/>8<v:newlineChar/><tspan
						x="12.21" dy="1.2em" class="st3">0</tspan></text>		</g>
		<g id="group690-117" transform="translate(592.062,471.531) rotate(114.095)" v:mID="690" v:groupContext="group">
			<v:userDefs>
				<v:ud v:nameU="visVersion" v:val="VT0(15):26"/>
			</v:userDefs>
			<title>一维单向箭头.690</title>
			<g id="shape691-118" v:mID="691" v:groupContext="shape">
				<title>工作表.691</title>
				<path d="M0 492.25 L66.15 492.25 L66.15 493.14 L67.03 491.36 L66.15 489.59 L66.15 490.47 L0 490.47 L0 492.25 Z"
						class="st4"/>
				<path d="M0 492.25 L66.15 492.25 L66.15 493.14 L67.03 491.36 L66.15 489.59 L66.15 490.47 L0 490.47" class="st5"/>
			</g>
			<g id="shape692-121" v:mID="692" v:groupContext="shape">
				<title>工作表.692</title>
				<path d="M0 492.25 L66.15 492.25 L66.15 493.14 L67.03 491.36 L66.15 489.59 L66.15 490.47 L0 490.47 L0 492.25"
						class="st6"/>
			</g>
			<g id="shape693-124" v:mID="693" v:groupContext="shape" transform="translate(-0.859509,-0.902723)">
				<title>工作表.693</title>
				<rect x="0" y="491.391" width="0.378363" height="1.74532" class="st7"/>
			</g>
		</g>
		<g id="group694-126" transform="translate(617.967,143.15) rotate(74.9264)" v:mID="694" v:groupContext="group">
			<v:userDefs>
				<v:ud v:nameU="visVersion" v:val="VT0(15):26"/>
			</v:userDefs>
			<title>一维单向箭头.694</title>
			<g id="shape695-127" v:mID="695" v:groupContext="shape">
				<title>工作表.695</title>
				<path d="M0 492.25 L62.49 492.25 L62.49 493.14 L63.37 491.36 L62.49 489.59 L62.49 490.47 L0 490.47 L0 492.25 Z"
						class="st4"/>
				<path d="M0 492.25 L62.49 492.25 L62.49 493.14 L63.37 491.36 L62.49 489.59 L62.49 490.47 L0 490.47" class="st5"/>
			</g>
			<g id="shape696-130" v:mID="696" v:groupContext="shape">
				<title>工作表.696</title>
				<path d="M0 492.25 L62.49 492.25 L62.49 493.14 L63.37 491.36 L62.49 489.59 L62.49 490.47 L0 490.47 L0 492.25"
						class="st6"/>
			</g>
			<g id="shape697-133" v:mID="697" v:groupContext="shape" transform="translate(-0.812579,-0.902723)">
				<title>工作表.697</title>
				<rect x="0" y="491.391" width="0.357704" height="1.74532" class="st7"/>
			</g>
		</g>
		<g id="shape699-135" v:mID="699" v:groupContext="shape" transform="translate(268.034,-112.281)">
			<title>矩形.388</title>
			<desc>14 0</desc>
			<v:userDefs>
				<v:ud v:nameU="visVersion" v:val="VT0(15):26"/>
			</v:userDefs>
			<v:textBlock v:margins="rect(4,4,4,4)" v:tabSpace="42.5197"/>
			<v:textRect cx="17.1928" cy="468.771" width="34.39" height="48.73"/>
			<rect x="0" y="444.406" width="34.3857" height="48.73" class="st1"/>
			<text x="7.23" y="463.37" class="st2" v:langID="2052"><v:paragraph v:horizAlign="1"/><v:tabList/>14<v:newlineChar/><tspan
						x="12.21" dy="1.2em" class="st3">0</tspan></text>		</g>
		<g id="shape700-139" v:mID="700" v:groupContext="shape" transform="translate(325.92,-112.281)">
			<title>矩形.389</title>
			<desc>16 0</desc>
			<v:userDefs>
				<v:ud v:nameU="visVersion" v:val="VT0(15):26"/>
			</v:userDefs>
			<v:textBlock v:margins="rect(4,4,4,4)" v:tabSpace="42.5197"/>
			<v:textRect cx="17.1928" cy="468.771" width="34.39" height="48.73"/>
			<rect x="0" y="444.406" width="34.3857" height="48.73" class="st1"/>
			<text x="7.23" y="463.37" class="st2" v:langID="2052"><v:paragraph v:horizAlign="1"/><v:tabList/>16<v:newlineChar/><tspan
						x="12.21" dy="1.2em" class="st3">0</tspan></text>		</g>
		<g id="shape701-143" v:mID="701" v:groupContext="shape" transform="translate(383.806,-112.281)">
			<title>矩形.390</title>
			<desc>20 0</desc>
			<v:userDefs>
				<v:ud v:nameU="visVersion" v:val="VT0(15):26"/>
			</v:userDefs>
			<v:textBlock v:margins="rect(4,4,4,4)" v:tabSpace="42.5197"/>
			<v:textRect cx="17.1928" cy="468.771" width="34.39" height="48.73"/>
			<rect x="0" y="444.406" width="34.3857" height="48.73" class="st1"/>
			<text x="7.23" y="463.37" class="st2" v:langID="2052"><v:paragraph v:horizAlign="1"/><v:tabList/>20<v:newlineChar/><tspan
						x="12.21" dy="1.2em" class="st3">0</tspan></text>		</g>
		<g id="group706-147" transform="translate(694.412,51.6286) rotate(63.4921)" v:mID="706" v:groupContext="group">
			<v:userDefs>
				<v:ud v:nameU="visVersion" v:val="VT0(15):26"/>
			</v:userDefs>
			<title>一维单向箭头.706</title>
			<g id="shape707-148" v:mID="707" v:groupContext="shape">
				<title>工作表.707</title>
				<path d="M0 492.25 L67.49 492.25 L67.49 493.14 L68.38 491.36 L67.49 489.59 L67.49 490.47 L0 490.47 L0 492.25 Z"
						class="st4"/>
				<path d="M0 492.25 L67.49 492.25 L67.49 493.14 L68.38 491.36 L67.49 489.59 L67.49 490.47 L0 490.47" class="st5"/>
			</g>
			<g id="shape708-151" v:mID="708" v:groupContext="shape">
				<title>工作表.708</title>
				<path d="M0 492.25 L67.49 492.25 L67.49 493.14 L68.38 491.36 L67.49 489.59 L67.49 490.47 L0 490.47 L0 492.25"
						class="st6"/>
			</g>
			<g id="shape709-154" v:mID="709" v:groupContext="shape" transform="translate(-0.876795,-0.902723)">
				<title>工作表.709</title>
				<rect x="0" y="491.391" width="0.385972" height="1.74532" class="st7"/>
			</g>
		</g>
		<g id="group710-156" transform="translate(826.368,442.412) rotate(110.425)" v:mID="710" v:groupContext="group">
			<v:userDefs>
				<v:ud v:nameU="visVersion" v:val="VT0(15):26"/>
			</v:userDefs>
			<title>一维单向箭头.399</title>
			<g id="shape711-157" v:mID="711" v:groupContext="shape">
				<title>工作表.711</title>
				<path d="M0 492.25 L64.41 492.25 L64.41 493.14 L65.3 491.36 L64.41 489.59 L64.41 490.47 L0 490.47 L0 492.25 Z"
						class="st4"/>
				<path d="M0 492.25 L64.41 492.25 L64.41 493.14 L65.3 491.36 L64.41 489.59 L64.41 490.47 L0 490.47" class="st5"/>
			</g>
			<g id="shape712-160" v:mID="712" v:groupContext="shape">
				<title>工作表.712</title>
				<path d="M0 492.25 L64.41 492.25 L64.41 493.14 L65.3 491.36 L64.41 489.59 L64.41 490.47 L0 490.47 L0 492.25"
						class="st6"/>
			</g>
			<g id="shape713-163" v:mID="713" v:groupContext="shape" transform="translate(-0.837261,-0.902723)">
				<title>工作表.713</title>
				<rect x="0" y="491.391" width="0.368569" height="1.74532" class="st7"/>
			</g>
		</g>
		<g id="group714-165" transform="translate(792.128,26.4634) rotate(60.1629)" v:mID="714" v:groupContext="group">
			<v:userDefs>
				<v:ud v:nameU="visVersion" v:val="VT0(15):26"/>
			</v:userDefs>
			<title>一维单向箭头.403</title>
			<g id="shape715-166" v:mID="715" v:groupContext="shape">
				<title>工作表.715</title>
				<path d="M0 492.25 L69.66 492.25 L69.66 493.14 L70.54 491.36 L69.66 489.59 L69.66 490.47 L0 490.47 L0 492.25 Z"
						class="st4"/>
				<path d="M0 492.25 L69.66 492.25 L69.66 493.14 L70.54 491.36 L69.66 489.59 L69.66 490.47 L0 490.47" class="st5"/>
			</g>
			<g id="shape716-169" v:mID="716" v:groupContext="shape">
				<title>工作表.716</title>
				<path d="M0 492.25 L69.66 492.25 L69.66 493.14 L70.54 491.36 L69.66 489.59 L69.66 490.47 L0 490.47 L0 492.25"
						class="st6"/>
			</g>
			<g id="shape717-172" v:mID="717" v:groupContext="shape" transform="translate(-0.904521,-0.902723)">
				<title>工作表.717</title>
				<rect x="0" y="491.391" width="0.398177" height="1.74532" class="st7"/>
			</g>
		</g>
		<g id="shape938-174" v:mID="938" v:groupContext="shape" transform="translate(350.336,-0.375)">
			<title>矩形.938</title>
			<desc>17 0</desc>
			<v:userDefs>
				<v:ud v:nameU="visVersion" v:val="VT0(15):26"/>
			</v:userDefs>
			<v:textBlock v:margins="rect(4,4,4,4)" v:tabSpace="42.5197"/>
			<v:textRect cx="17.1928" cy="468.771" width="34.39" height="48.73"/>
			<rect x="0" y="444.406" width="34.3857" height="48.73" class="st1"/>
			<text x="7.23" y="463.37" class="st2" v:langID="2052"><v:paragraph v:horizAlign="1"/><v:tabList/>17<v:newlineChar/><tspan
						x="12.21" dy="1.2em" class="st3">0</tspan></text>		</g>
		<g id="group939-178" transform="translate(801.436,203.725) rotate(68.8698)" v:mID="939" v:groupContext="group">
			<v:userDefs>
				<v:ud v:nameU="visVersion" v:val="VT0(15):26"/>
			</v:userDefs>
			<title>一维单向箭头.939</title>
			<g id="shape940-179" v:mID="940" v:groupContext="shape">
				<title>工作表.940</title>
				<path d="M0 492.25 L66.84 492.25 L66.84 493.14 L67.73 491.36 L66.84 489.59 L66.84 490.47 L0 490.47 L0 492.25 Z"
						class="st4"/>
				<path d="M0 492.25 L66.84 492.25 L66.84 493.14 L67.73 491.36 L66.84 489.59 L66.84 490.47 L0 490.47" class="st5"/>
			</g>
			<g id="shape941-182" v:mID="941" v:groupContext="shape">
				<title>工作表.941</title>
				<path d="M0 492.25 L66.84 492.25 L66.84 493.14 L67.73 491.36 L66.84 489.59 L66.84 490.47 L0 490.47 L0 492.25"
						class="st6"/>
			</g>
			<g id="shape942-185" v:mID="942" v:groupContext="shape" transform="translate(-0.868448,-0.902723)">
				<title>工作表.942</title>
				<rect x="0" y="491.391" width="0.382298" height="1.74532" class="st7"/>
			</g>
		</g>
	</g>
</svg>
