<?xml version="1.0" encoding="UTF-8" standalone="no"?>
<!DOCTYPE svg PUBLIC "-//W3C//DTD SVG 1.1//EN" "http://www.w3.org/Graphics/SVG/1.1/DTD/svg11.dtd">
<!-- 由 Microsoft Visio, SVG Export 生成 AVLTree12.svg 页-1 -->
<svg xmlns="http://www.w3.org/2000/svg" xmlns:xlink="http://www.w3.org/1999/xlink" xmlns:ev="http://www.w3.org/2001/xml-events"
		xmlns:v="http://schemas.microsoft.com/visio/2003/SVGExtensions/" width="5.81342in" height="6.74456in"
		viewBox="0 0 418.566 485.608" xml:space="preserve" color-interpolation-filters="sRGB" class="st9">
	<v:documentProperties v:langID="2052" v:metric="true" v:viewMarkup="false"/>

	<style type="text/css">
	<![CDATA[
		.st1 {fill:#c05046;stroke:#000000;stroke-linecap:round;stroke-linejoin:round;stroke-width:0.75}
		.st2 {fill:#000000;font-family:Cambria Math;font-size:1.5em}
		.st3 {font-size:1em}
		.st4 {fill:#ffffff;stroke:#000000;stroke-linecap:round;stroke-linejoin:round;stroke-width:0.75}
		.st5 {fill:#ffffff}
		.st6 {stroke:none;stroke-linecap:round;stroke-linejoin:round;stroke-width:0.75}
		.st7 {stroke:#000000;stroke-linecap:round;stroke-linejoin:round;stroke-width:0.24}
		.st8 {fill:#ffffff;stroke:none;stroke-linecap:round;stroke-linejoin:round;stroke-width:0.24;visibility:hidden}
		.st9 {fill:none;fill-rule:evenodd;font-size:12px;overflow:visible;stroke-linecap:square;stroke-miterlimit:3}
	]]>
	</style>

	<g v:mID="0" v:index="1" v:groupContext="foregroundPage">
		<title>页-1</title>
		<v:pageProperties v:drawingScale="0.0393701" v:pageScale="0.0393701" v:drawingUnits="24" v:shadowOffsetX="8.50394"
				v:shadowOffsetY="-8.50394"/>
		<g id="shape1252-1" v:mID="1252" v:groupContext="shape" transform="translate(186.648,-436.503)">
			<title>矩形.1252</title>
			<desc>10 4</desc>
			<v:userDefs>
				<v:ud v:nameU="visVersion" v:val="VT0(15):26"/>
			</v:userDefs>
			<v:textBlock v:margins="rect(4,4,4,4)" v:tabSpace="42.5197"/>
			<v:textRect cx="17.1928" cy="461.243" width="34.39" height="48.73"/>
			<rect x="0" y="436.878" width="34.3857" height="48.73" class="st1"/>
			<text x="7.23" y="455.84" class="st2" v:langID="2052"><v:paragraph v:horizAlign="1"/><v:tabList/>10<v:newlineChar/><tspan
						x="12.21" dy="1.2em" class="st3">4</tspan></text>		</g>
		<g id="shape1253-5" v:mID="1253" v:groupContext="shape" transform="translate(278.207,-332.532)">
			<title>矩形.1253</title>
			<desc>15 3</desc>
			<v:userDefs>
				<v:ud v:nameU="visVersion" v:val="VT0(15):26"/>
			</v:userDefs>
			<v:textBlock v:margins="rect(4,4,4,4)" v:tabSpace="42.5197"/>
			<v:textRect cx="17.1928" cy="461.243" width="34.39" height="48.73"/>
			<rect x="0" y="436.878" width="34.3857" height="48.73" class="st1"/>
			<text x="7.23" y="455.84" class="st2" v:langID="2052"><v:paragraph v:horizAlign="1"/><v:tabList/>15<v:newlineChar/><tspan
						x="12.21" dy="1.2em" class="st3">3</tspan></text>		</g>
		<g id="shape1254-9" v:mID="1254" v:groupContext="shape" transform="translate(88.7807,-332.532)">
			<title>矩形.1254</title>
			<desc>5 2</desc>
			<v:userDefs>
				<v:ud v:nameU="visVersion" v:val="VT0(15):26"/>
			</v:userDefs>
			<v:textBlock v:margins="rect(4,4,4,4)" v:tabSpace="42.5197"/>
			<v:textRect cx="17.1928" cy="461.243" width="34.39" height="48.73"/>
			<rect x="0" y="436.878" width="34.3857" height="48.73" class="st4"/>
			<text x="12.21" y="455.84" class="st2" v:langID="2052"><v:paragraph v:horizAlign="1"/><v:tabList/>5<v:newlineChar/><tspan
						x="12.21" dy="1.2em" class="st3">2</tspan></text>		</g>
		<g id="group1255-13" transform="translate(441.668,470.45) rotate(150.557)" v:mID="1255" v:groupContext="group">
			<v:userDefs>
				<v:ud v:nameU="visVersion" v:val="VT0(15):26"/>
			</v:userDefs>
			<title>一维单向箭头.1255</title>
			<g id="shape1256-14" v:mID="1256" v:groupContext="shape">
				<title>工作表.1256</title>
				<path d="M0 484.72 L111.49 484.72 L111.49 485.61 L112.38 483.83 L111.49 482.06 L111.49 482.95 L0 482.95 L0 484.72
							 Z" class="st5"/>
				<path d="M0 484.72 L111.49 484.72 L111.49 485.61 L112.38 483.83 L111.49 482.06 L111.49 482.95 L0 482.95"
						class="st6"/>
			</g>
			<g id="shape1257-17" v:mID="1257" v:groupContext="shape">
				<title>工作表.1257</title>
				<path d="M0 484.72 L111.49 484.72 L111.49 485.61 L112.38 483.83 L111.49 482.06 L111.49 482.95 L0 482.95 L0 484.72"
						class="st7"/>
			</g>
			<g id="shape1258-20" v:mID="1258" v:groupContext="shape" transform="translate(-1.44097,-0.902723)">
				<title>工作表.1258</title>
				<rect x="0" y="483.863" width="0.634328" height="1.74532" class="st8"/>
			</g>
		</g>
		<g id="group1259-22" transform="translate(453.785,-365.168) rotate(31.104)" v:mID="1259" v:groupContext="group">
			<v:userDefs>
				<v:ud v:nameU="visVersion" v:val="VT0(15):26"/>
			</v:userDefs>
			<title>一维单向箭头.1259</title>
			<g id="shape1260-23" v:mID="1260" v:groupContext="shape">
				<title>工作表.1260</title>
				<path d="M0 484.72 L106.05 484.72 L106.05 485.61 L106.93 483.83 L106.05 482.06 L106.05 482.95 L0 482.95 L0 484.72
							 Z" class="st5"/>
				<path d="M0 484.72 L106.05 484.72 L106.05 485.61 L106.93 483.83 L106.05 482.06 L106.05 482.95 L0 482.95"
						class="st6"/>
			</g>
			<g id="shape1261-26" v:mID="1261" v:groupContext="shape">
				<title>工作表.1261</title>
				<path d="M0 484.72 L106.05 484.72 L106.05 485.61 L106.93 483.83 L106.05 482.06 L106.05 482.95 L0 482.95 L0 484.72"
						class="st7"/>
			</g>
			<g id="shape1262-29" v:mID="1262" v:groupContext="shape" transform="translate(-1.37112,-0.902723)">
				<title>工作表.1262</title>
				<rect x="0" y="483.863" width="0.603578" height="1.74532" class="st8"/>
			</g>
		</g>
		<g id="shape1263-31" v:mID="1263" v:groupContext="shape" transform="translate(237.514,-214.675)">
			<title>矩形.1263</title>
			<desc>13 1</desc>
			<v:userDefs>
				<v:ud v:nameU="visVersion" v:val="VT0(15):26"/>
			</v:userDefs>
			<v:textBlock v:margins="rect(4,4,4,4)" v:tabSpace="42.5197"/>
			<v:textRect cx="17.1928" cy="461.243" width="34.39" height="48.73"/>
			<rect x="0" y="436.878" width="34.3857" height="48.73" class="st4"/>
			<text x="7.23" y="455.84" class="st2" v:langID="2052"><v:paragraph v:horizAlign="1"/><v:tabList/>13<v:newlineChar/><tspan
						x="12.21" dy="1.2em" class="st3">1</tspan></text>		</g>
		<g id="group1264-35" transform="translate(712.353,398.523) rotate(120.484)" v:mID="1264" v:groupContext="group">
			<v:userDefs>
				<v:ud v:nameU="visVersion" v:val="VT0(15):26"/>
			</v:userDefs>
			<title>一维单向箭头.1264</title>
			<g id="shape1265-36" v:mID="1265" v:groupContext="shape">
				<title>工作表.1265</title>
				<path d="M0 484.72 L79.33 484.72 L79.33 485.61 L80.22 483.83 L79.33 482.06 L79.33 482.95 L0 482.95 L0 484.72 Z"
						class="st5"/>
				<path d="M0 484.72 L79.33 484.72 L79.33 485.61 L80.22 483.83 L79.33 482.06 L79.33 482.95 L0 482.95" class="st6"/>
			</g>
			<g id="shape1266-39" v:mID="1266" v:groupContext="shape">
				<title>工作表.1266</title>
				<path d="M0 484.72 L79.33 484.72 L79.33 485.61 L80.22 483.83 L79.33 482.06 L79.33 482.95 L0 482.95 L0 484.72"
						class="st7"/>
			</g>
			<g id="shape1267-42" v:mID="1267" v:groupContext="shape" transform="translate(-1.02854,-0.902723)">
				<title>工作表.1267</title>
				<rect x="0" y="483.863" width="0.452772" height="1.74532" class="st8"/>
			</g>
		</g>
		<g id="shape1268-44" v:mID="1268" v:groupContext="shape" transform="translate(348.708,-214.675)">
			<title>矩形.1268</title>
			<desc>19 2</desc>
			<v:userDefs>
				<v:ud v:nameU="visVersion" v:val="VT0(15):26"/>
			</v:userDefs>
			<v:textBlock v:margins="rect(4,4,4,4)" v:tabSpace="42.5197"/>
			<v:textRect cx="17.1928" cy="461.243" width="34.39" height="48.73"/>
			<rect x="0" y="436.878" width="34.3857" height="48.73" class="st1"/>
			<text x="7.23" y="455.84" class="st2" v:langID="2052"><v:paragraph v:horizAlign="1"/><v:tabList/>19<v:newlineChar/><tspan
						x="12.21" dy="1.2em" class="st3">2</tspan></text>		</g>
		<g id="group1269-48" transform="translate(634.14,-192.394) rotate(44.4365)" v:mID="1269" v:groupContext="group">
			<v:userDefs>
				<v:ud v:nameU="visVersion" v:val="VT0(15):26"/>
			</v:userDefs>
			<title>一维单向箭头.1269</title>
			<g id="shape1270-49" v:mID="1270" v:groupContext="shape">
				<title>工作表.1270</title>
				<path d="M0 484.72 L97.85 484.72 L97.85 485.61 L98.74 483.83 L97.85 482.06 L97.85 482.95 L0 482.95 L0 484.72 Z"
						class="st5"/>
				<path d="M0 484.72 L97.85 484.72 L97.85 485.61 L98.74 483.83 L97.85 482.06 L97.85 482.95 L0 482.95" class="st6"/>
			</g>
			<g id="shape1271-52" v:mID="1271" v:groupContext="shape">
				<title>工作表.1271</title>
				<path d="M0 484.72 L97.85 484.72 L97.85 485.61 L98.74 483.83 L97.85 482.06 L97.85 482.95 L0 482.95 L0 484.72"
						class="st7"/>
			</g>
			<g id="shape1272-55" v:mID="1272" v:groupContext="shape" transform="translate(-1.26602,-0.902723)">
				<title>工作表.1272</title>
				<rect x="0" y="483.863" width="0.557314" height="1.74532" class="st8"/>
			</g>
		</g>
		<g id="shape1273-57" v:mID="1273" v:groupContext="shape" transform="translate(41.0681,-214.675)">
			<title>矩形.1273</title>
			<desc>2 1</desc>
			<v:userDefs>
				<v:ud v:nameU="visVersion" v:val="VT0(15):26"/>
			</v:userDefs>
			<v:textBlock v:margins="rect(4,4,4,4)" v:tabSpace="42.5197"/>
			<v:textRect cx="17.1928" cy="461.243" width="34.39" height="48.73"/>
			<rect x="0" y="436.878" width="34.3857" height="48.73" class="st4"/>
			<text x="12.21" y="455.84" class="st2" v:langID="2052"><v:paragraph v:horizAlign="1"/><v:tabList/>2<v:newlineChar/><tspan
						x="12.21" dy="1.2em" class="st3">1</tspan></text>		</g>
		<g id="shape1274-61" v:mID="1274" v:groupContext="shape" transform="translate(126.32,-214.675)">
			<title>矩形.1274</title>
			<desc>7 1</desc>
			<v:userDefs>
				<v:ud v:nameU="visVersion" v:val="VT0(15):26"/>
			</v:userDefs>
			<v:textBlock v:margins="rect(4,4,4,4)" v:tabSpace="42.5197"/>
			<v:textRect cx="17.1928" cy="461.243" width="34.39" height="48.73"/>
			<rect x="0" y="436.878" width="34.3857" height="48.73" class="st4"/>
			<text x="12.21" y="455.84" class="st2" v:langID="2052"><v:paragraph v:horizAlign="1"/><v:tabList/>7<v:newlineChar/><tspan
						x="12.21" dy="1.2em" class="st3">1</tspan></text>		</g>
		<g id="group1275-65" transform="translate(504.167,427.914) rotate(124.614)" v:mID="1275" v:groupContext="group">
			<v:userDefs>
				<v:ud v:nameU="visVersion" v:val="VT0(15):26"/>
			</v:userDefs>
			<title>一维单向箭头.1275</title>
			<g id="shape1276-66" v:mID="1276" v:groupContext="shape">
				<title>工作表.1276</title>
				<path d="M0 484.72 L83.11 484.72 L83.11 485.61 L83.99 483.83 L83.11 482.06 L83.11 482.95 L0 482.95 L0 484.72 Z"
						class="st5"/>
				<path d="M0 484.72 L83.11 484.72 L83.11 485.61 L83.99 483.83 L83.11 482.06 L83.11 482.95 L0 482.95" class="st6"/>
			</g>
			<g id="shape1277-69" v:mID="1277" v:groupContext="shape">
				<title>工作表.1277</title>
				<path d="M0 484.72 L83.11 484.72 L83.11 485.61 L83.99 483.83 L83.11 482.06 L83.11 482.95 L0 482.95 L0 484.72"
						class="st7"/>
			</g>
			<g id="shape1278-72" v:mID="1278" v:groupContext="shape" transform="translate(-1.077,-0.902723)">
				<title>工作表.1278</title>
				<rect x="0" y="483.863" width="0.474103" height="1.74532" class="st8"/>
			</g>
		</g>
		<g id="group1279-74" transform="translate(531.158,-77.819) rotate(61.496)" v:mID="1279" v:groupContext="group">
			<v:userDefs>
				<v:ud v:nameU="visVersion" v:val="VT0(15):26"/>
			</v:userDefs>
			<title>一维单向箭头.1279</title>
			<g id="shape1280-75" v:mID="1280" v:groupContext="shape">
				<title>工作表.1280</title>
				<path d="M0 484.72 L77.77 484.72 L77.77 485.61 L78.66 483.83 L77.77 482.06 L77.77 482.95 L0 482.95 L0 484.72 Z"
						class="st5"/>
				<path d="M0 484.72 L77.77 484.72 L77.77 485.61 L78.66 483.83 L77.77 482.06 L77.77 482.95 L0 482.95" class="st6"/>
			</g>
			<g id="shape1281-78" v:mID="1281" v:groupContext="shape">
				<title>工作表.1281</title>
				<path d="M0 484.72 L77.77 484.72 L77.77 485.61 L78.66 483.83 L77.77 482.06 L77.77 482.95 L0 482.95 L0 484.72"
						class="st7"/>
			</g>
			<g id="shape1282-81" v:mID="1282" v:groupContext="shape" transform="translate(-1.00863,-0.902723)">
				<title>工作表.1282</title>
				<rect x="0" y="483.863" width="0.444006" height="1.74532" class="st8"/>
			</g>
		</g>
		<g id="shape1283-83" v:mID="1283" v:groupContext="shape" transform="translate(0.375,-104.753)">
			<title>矩形.1283</title>
			<desc>1 0</desc>
			<v:userDefs>
				<v:ud v:nameU="visVersion" v:val="VT0(15):26"/>
			</v:userDefs>
			<v:textBlock v:margins="rect(4,4,4,4)" v:tabSpace="42.5197"/>
			<v:textRect cx="17.1928" cy="461.243" width="34.39" height="48.73"/>
			<rect x="0" y="436.878" width="34.3857" height="48.73" class="st4"/>
			<text x="12.21" y="455.84" class="st2" v:langID="2052"><v:paragraph v:horizAlign="1"/><v:tabList/>1<v:newlineChar/><tspan
						x="12.21" dy="1.2em" class="st3">0</tspan></text>		</g>
		<g id="shape1284-87" v:mID="1284" v:groupContext="shape" transform="translate(49.6645,-104.753)">
			<title>矩形.1284</title>
			<desc>3 0</desc>
			<v:userDefs>
				<v:ud v:nameU="visVersion" v:val="VT0(15):26"/>
			</v:userDefs>
			<v:textBlock v:margins="rect(4,4,4,4)" v:tabSpace="42.5197"/>
			<v:textRect cx="17.1928" cy="461.243" width="34.39" height="48.73"/>
			<rect x="0" y="436.878" width="34.3857" height="48.73" class="st4"/>
			<text x="12.21" y="455.84" class="st2" v:langID="2052"><v:paragraph v:horizAlign="1"/><v:tabList/>3<v:newlineChar/><tspan
						x="12.21" dy="1.2em" class="st3">0</tspan></text>		</g>
		<g id="group1285-91" transform="translate(461.143,538.851) rotate(123.624)" v:mID="1285" v:groupContext="group">
			<v:userDefs>
				<v:ud v:nameU="visVersion" v:val="VT0(15):26"/>
			</v:userDefs>
			<title>一维单向箭头.1285</title>
			<g id="shape1286-92" v:mID="1286" v:groupContext="shape">
				<title>工作表.1286</title>
				<path d="M0 484.72 L72.6 484.72 L72.6 485.61 L73.49 483.83 L72.6 482.06 L72.6 482.95 L0 482.95 L0 484.72 Z"
						class="st5"/>
				<path d="M0 484.72 L72.6 484.72 L72.6 485.61 L73.49 483.83 L72.6 482.06 L72.6 482.95 L0 482.95" class="st6"/>
			</g>
			<g id="shape1287-95" v:mID="1287" v:groupContext="shape">
				<title>工作表.1287</title>
				<path d="M0 484.72 L72.6 484.72 L72.6 485.61 L73.49 483.83 L72.6 482.06 L72.6 482.95 L0 482.95 L0 484.72"
						class="st7"/>
			</g>
			<g id="shape1288-98" v:mID="1288" v:groupContext="shape" transform="translate(-0.942273,-0.902723)">
				<title>工作表.1288</title>
				<rect x="0" y="483.863" width="0.414796" height="1.74532" class="st8"/>
			</g>
		</g>
		<g id="group1289-100" transform="translate(537.389,203.624) rotate(82.0033)" v:mID="1289" v:groupContext="group">
			<v:userDefs>
				<v:ud v:nameU="visVersion" v:val="VT0(15):26"/>
			</v:userDefs>
			<title>一维单向箭头.1289</title>
			<g id="shape1290-101" v:mID="1290" v:groupContext="shape">
				<title>工作表.1290</title>
				<path d="M0 484.72 L60.91 484.72 L60.91 485.61 L61.79 483.83 L60.91 482.06 L60.91 482.95 L0 482.95 L0 484.72 Z"
						class="st5"/>
				<path d="M0 484.72 L60.91 484.72 L60.91 485.61 L61.79 483.83 L60.91 482.06 L60.91 482.95 L0 482.95" class="st6"/>
			</g>
			<g id="shape1291-104" v:mID="1291" v:groupContext="shape">
				<title>工作表.1291</title>
				<path d="M0 484.72 L60.91 484.72 L60.91 485.61 L61.79 483.83 L60.91 482.06 L60.91 482.95 L0 482.95 L0 484.72"
						class="st7"/>
			</g>
			<g id="shape1292-107" v:mID="1292" v:groupContext="shape" transform="translate(-0.792325,-0.902723)">
				<title>工作表.1292</title>
				<rect x="0" y="483.863" width="0.348788" height="1.74532" class="st8"/>
			</g>
		</g>
		<g id="shape1293-109" v:mID="1293" v:groupContext="shape" transform="translate(98.954,-104.753)">
			<title>矩形.1293</title>
			<desc>6 0</desc>
			<v:userDefs>
				<v:ud v:nameU="visVersion" v:val="VT0(15):26"/>
			</v:userDefs>
			<v:textBlock v:margins="rect(4,4,4,4)" v:tabSpace="42.5197"/>
			<v:textRect cx="17.1928" cy="461.243" width="34.39" height="48.73"/>
			<rect x="0" y="436.878" width="34.3857" height="48.73" class="st4"/>
			<text x="12.21" y="455.84" class="st2" v:langID="2052"><v:paragraph v:horizAlign="1"/><v:tabList/>6<v:newlineChar/><tspan
						x="12.21" dy="1.2em" class="st3">0</tspan></text>		</g>
		<g id="shape1294-113" v:mID="1294" v:groupContext="shape" transform="translate(142.801,-104.753)">
			<title>矩形.1294</title>
			<desc>8 0</desc>
			<v:userDefs>
				<v:ud v:nameU="visVersion" v:val="VT0(15):26"/>
			</v:userDefs>
			<v:textBlock v:margins="rect(4,4,4,4)" v:tabSpace="42.5197"/>
			<v:textRect cx="17.1928" cy="461.243" width="34.39" height="48.73"/>
			<rect x="0" y="436.878" width="34.3857" height="48.73" class="st4"/>
			<text x="12.21" y="455.84" class="st2" v:langID="2052"><v:paragraph v:horizAlign="1"/><v:tabList/>8<v:newlineChar/><tspan
						x="12.21" dy="1.2em" class="st3">0</tspan></text>		</g>
		<g id="group1295-117" transform="translate(585.189,468.458) rotate(114.095)" v:mID="1295" v:groupContext="group">
			<v:userDefs>
				<v:ud v:nameU="visVersion" v:val="VT0(15):26"/>
			</v:userDefs>
			<title>一维单向箭头.1295</title>
			<g id="shape1296-118" v:mID="1296" v:groupContext="shape">
				<title>工作表.1296</title>
				<path d="M0 484.72 L66.15 484.72 L66.15 485.61 L67.03 483.83 L66.15 482.06 L66.15 482.95 L0 482.95 L0 484.72 Z"
						class="st5"/>
				<path d="M0 484.72 L66.15 484.72 L66.15 485.61 L67.03 483.83 L66.15 482.06 L66.15 482.95 L0 482.95" class="st6"/>
			</g>
			<g id="shape1297-121" v:mID="1297" v:groupContext="shape">
				<title>工作表.1297</title>
				<path d="M0 484.72 L66.15 484.72 L66.15 485.61 L67.03 483.83 L66.15 482.06 L66.15 482.95 L0 482.95 L0 484.72"
						class="st7"/>
			</g>
			<g id="shape1298-124" v:mID="1298" v:groupContext="shape" transform="translate(-0.859509,-0.902723)">
				<title>工作表.1298</title>
				<rect x="0" y="483.863" width="0.378363" height="1.74532" class="st8"/>
			</g>
		</g>
		<g id="group1299-126" transform="translate(610.698,145.108) rotate(74.9264)" v:mID="1299" v:groupContext="group">
			<v:userDefs>
				<v:ud v:nameU="visVersion" v:val="VT0(15):26"/>
			</v:userDefs>
			<title>一维单向箭头.1299</title>
			<g id="shape1300-127" v:mID="1300" v:groupContext="shape">
				<title>工作表.1300</title>
				<path d="M0 484.72 L62.49 484.72 L62.49 485.61 L63.37 483.83 L62.49 482.06 L62.49 482.95 L0 482.95 L0 484.72 Z"
						class="st5"/>
				<path d="M0 484.72 L62.49 484.72 L62.49 485.61 L63.37 483.83 L62.49 482.06 L62.49 482.95 L0 482.95" class="st6"/>
			</g>
			<g id="shape1301-130" v:mID="1301" v:groupContext="shape">
				<title>工作表.1301</title>
				<path d="M0 484.72 L62.49 484.72 L62.49 485.61 L63.37 483.83 L62.49 482.06 L62.49 482.95 L0 482.95 L0 484.72"
						class="st7"/>
			</g>
			<g id="shape1302-133" v:mID="1302" v:groupContext="shape" transform="translate(-0.812579,-0.902723)">
				<title>工作表.1302</title>
				<rect x="0" y="483.863" width="0.357704" height="1.74532" class="st8"/>
			</g>
		</g>
		<g id="shape1303-135" v:mID="1303" v:groupContext="shape" transform="translate(268.034,-104.753)">
			<title>矩形.1303</title>
			<desc>14 0</desc>
			<v:userDefs>
				<v:ud v:nameU="visVersion" v:val="VT0(15):26"/>
			</v:userDefs>
			<v:textBlock v:margins="rect(4,4,4,4)" v:tabSpace="42.5197"/>
			<v:textRect cx="17.1928" cy="461.243" width="34.39" height="48.73"/>
			<rect x="0" y="436.878" width="34.3857" height="48.73" class="st4"/>
			<text x="7.23" y="455.84" class="st2" v:langID="2052"><v:paragraph v:horizAlign="1"/><v:tabList/>14<v:newlineChar/><tspan
						x="12.21" dy="1.2em" class="st3">0</tspan></text>		</g>
		<g id="shape1304-139" v:mID="1304" v:groupContext="shape" transform="translate(325.92,-104.753)">
			<title>矩形.1304</title>
			<desc>17 1</desc>
			<v:userDefs>
				<v:ud v:nameU="visVersion" v:val="VT0(15):26"/>
			</v:userDefs>
			<v:textBlock v:margins="rect(4,4,4,4)" v:tabSpace="42.5197"/>
			<v:textRect cx="17.1928" cy="461.243" width="34.39" height="48.73"/>
			<rect x="0" y="436.878" width="34.3857" height="48.73" class="st1"/>
			<text x="7.23" y="455.84" class="st2" v:langID="2052"><v:paragraph v:horizAlign="1"/><v:tabList/>17<v:newlineChar/><tspan
						x="12.21" dy="1.2em" class="st3">1</tspan></text>		</g>
		<g id="shape1305-143" v:mID="1305" v:groupContext="shape" transform="translate(383.806,-104.753)">
			<title>矩形.1305</title>
			<desc>20 0</desc>
			<v:userDefs>
				<v:ud v:nameU="visVersion" v:val="VT0(15):26"/>
			</v:userDefs>
			<v:textBlock v:margins="rect(4,4,4,4)" v:tabSpace="42.5197"/>
			<v:textRect cx="17.1928" cy="461.243" width="34.39" height="48.73"/>
			<rect x="0" y="436.878" width="34.3857" height="48.73" class="st4"/>
			<text x="7.23" y="455.84" class="st2" v:langID="2052"><v:paragraph v:horizAlign="1"/><v:tabList/>20<v:newlineChar/><tspan
						x="12.21" dy="1.2em" class="st3">0</tspan></text>		</g>
		<g id="group1306-147" transform="translate(687.676,54.9886) rotate(63.4921)" v:mID="1306" v:groupContext="group">
			<v:userDefs>
				<v:ud v:nameU="visVersion" v:val="VT0(15):26"/>
			</v:userDefs>
			<title>一维单向箭头.1306</title>
			<g id="shape1307-148" v:mID="1307" v:groupContext="shape">
				<title>工作表.1307</title>
				<path d="M0 484.72 L67.49 484.72 L67.49 485.61 L68.38 483.83 L67.49 482.06 L67.49 482.95 L0 482.95 L0 484.72 Z"
						class="st5"/>
				<path d="M0 484.72 L67.49 484.72 L67.49 485.61 L68.38 483.83 L67.49 482.06 L67.49 482.95 L0 482.95" class="st6"/>
			</g>
			<g id="shape1308-151" v:mID="1308" v:groupContext="shape">
				<title>工作表.1308</title>
				<path d="M0 484.72 L67.49 484.72 L67.49 485.61 L68.38 483.83 L67.49 482.06 L67.49 482.95 L0 482.95 L0 484.72"
						class="st7"/>
			</g>
			<g id="shape1309-154" v:mID="1309" v:groupContext="shape" transform="translate(-0.876795,-0.902723)">
				<title>工作表.1309</title>
				<rect x="0" y="483.863" width="0.385972" height="1.74532" class="st8"/>
			</g>
		</g>
		<g id="group1310-156" transform="translate(819.313,439.785) rotate(110.425)" v:mID="1310" v:groupContext="group">
			<v:userDefs>
				<v:ud v:nameU="visVersion" v:val="VT0(15):26"/>
			</v:userDefs>
			<title>一维单向箭头.1310</title>
			<g id="shape1311-157" v:mID="1311" v:groupContext="shape">
				<title>工作表.1311</title>
				<path d="M0 484.72 L64.41 484.72 L64.41 485.61 L65.3 483.83 L64.41 482.06 L64.41 482.95 L0 482.95 L0 484.72 Z"
						class="st5"/>
				<path d="M0 484.72 L64.41 484.72 L64.41 485.61 L65.3 483.83 L64.41 482.06 L64.41 482.95 L0 482.95" class="st6"/>
			</g>
			<g id="shape1312-160" v:mID="1312" v:groupContext="shape">
				<title>工作表.1312</title>
				<path d="M0 484.72 L64.41 484.72 L64.41 485.61 L65.3 483.83 L64.41 482.06 L64.41 482.95 L0 482.95 L0 484.72"
						class="st7"/>
			</g>
			<g id="shape1313-163" v:mID="1313" v:groupContext="shape" transform="translate(-0.837261,-0.902723)">
				<title>工作表.1313</title>
				<rect x="0" y="483.863" width="0.368569" height="1.74532" class="st8"/>
			</g>
		</g>
		<g id="group1314-165" transform="translate(785.598,30.2089) rotate(60.1629)" v:mID="1314" v:groupContext="group">
			<v:userDefs>
				<v:ud v:nameU="visVersion" v:val="VT0(15):26"/>
			</v:userDefs>
			<title>一维单向箭头.1314</title>
			<g id="shape1315-166" v:mID="1315" v:groupContext="shape">
				<title>工作表.1315</title>
				<path d="M0 484.72 L69.66 484.72 L69.66 485.61 L70.54 483.83 L69.66 482.06 L69.66 482.95 L0 482.95 L0 484.72 Z"
						class="st5"/>
				<path d="M0 484.72 L69.66 484.72 L69.66 485.61 L70.54 483.83 L69.66 482.06 L69.66 482.95 L0 482.95" class="st6"/>
			</g>
			<g id="shape1316-169" v:mID="1316" v:groupContext="shape">
				<title>工作表.1316</title>
				<path d="M0 484.72 L69.66 484.72 L69.66 485.61 L70.54 483.83 L69.66 482.06 L69.66 482.95 L0 482.95 L0 484.72"
						class="st7"/>
			</g>
			<g id="shape1317-172" v:mID="1317" v:groupContext="shape" transform="translate(-0.904521,-0.902723)">
				<title>工作表.1317</title>
				<rect x="0" y="483.863" width="0.398177" height="1.74532" class="st8"/>
			</g>
		</g>
		<g id="shape1318-174" v:mID="1318" v:groupContext="shape" transform="translate(351.251,-0.375)">
			<title>矩形.1318</title>
			<desc>18 0</desc>
			<v:userDefs>
				<v:ud v:nameU="visVersion" v:val="VT0(15):26"/>
			</v:userDefs>
			<v:textBlock v:margins="rect(4,4,4,4)" v:tabSpace="42.5197"/>
			<v:textRect cx="17.1928" cy="461.243" width="34.39" height="48.73"/>
			<rect x="0" y="436.878" width="34.3857" height="48.73" class="st1"/>
			<text x="7.23" y="455.84" class="st2" v:langID="2052"><v:paragraph v:horizAlign="1"/><v:tabList/>18<v:newlineChar/><tspan
						x="12.21" dy="1.2em" class="st3">0</tspan></text>		</g>
		<g id="group1319-178" transform="translate(783.467,180.401) rotate(65.5245)" v:mID="1319" v:groupContext="group">
			<v:userDefs>
				<v:ud v:nameU="visVersion" v:val="VT0(15):26"/>
			</v:userDefs>
			<title>一维单向箭头.1319</title>
			<g id="shape1320-179" v:mID="1320" v:groupContext="shape">
				<title>工作表.1320</title>
				<path d="M0 484.72 L60.25 484.72 L60.25 485.61 L61.14 483.83 L60.25 482.06 L60.25 482.95 L0 482.95 L0 484.72 Z"
						class="st5"/>
				<path d="M0 484.72 L60.25 484.72 L60.25 485.61 L61.14 483.83 L60.25 482.06 L60.25 482.95 L0 482.95" class="st6"/>
			</g>
			<g id="shape1321-182" v:mID="1321" v:groupContext="shape">
				<title>工作表.1321</title>
				<path d="M0 484.72 L60.25 484.72 L60.25 485.61 L61.14 483.83 L60.25 482.06 L60.25 482.95 L0 482.95 L0 484.72"
						class="st7"/>
			</g>
			<g id="shape1322-185" v:mID="1322" v:groupContext="shape" transform="translate(-0.783978,-0.902723)">
				<title>工作表.1322</title>
				<rect x="0" y="483.863" width="0.345113" height="1.74532" class="st8"/>
			</g>
		</g>
		<g id="shape1323-187" v:mID="1323" v:groupContext="shape" transform="translate(299.266,-0.375)">
			<title>矩形.1323</title>
			<desc>16 0</desc>
			<v:userDefs>
				<v:ud v:nameU="visVersion" v:val="VT0(15):26"/>
			</v:userDefs>
			<v:textBlock v:margins="rect(4,4,4,4)" v:tabSpace="42.5197"/>
			<v:textRect cx="17.1928" cy="461.243" width="34.39" height="48.73"/>
			<rect x="0" y="436.878" width="34.3857" height="48.73" class="st1"/>
			<text x="7.23" y="455.84" class="st2" v:langID="2052"><v:paragraph v:horizAlign="1"/><v:tabList/>16<v:newlineChar/><tspan
						x="12.21" dy="1.2em" class="st3">0</tspan></text>		</g>
		<g id="group1324-191" transform="translate(779.473,589.862) rotate(115.593)" v:mID="1324" v:groupContext="group">
			<v:userDefs>
				<v:ud v:nameU="visVersion" v:val="VT0(15):26"/>
			</v:userDefs>
			<title>一维单向箭头.1324</title>
			<g id="shape1325-192" v:mID="1325" v:groupContext="shape">
				<title>工作表.1325</title>
				<path d="M0 484.72 L60.81 484.72 L60.81 485.61 L61.7 483.83 L60.81 482.06 L60.81 482.95 L0 482.95 L0 484.72 Z"
						class="st5"/>
				<path d="M0 484.72 L60.81 484.72 L60.81 485.61 L61.7 483.83 L60.81 482.06 L60.81 482.95 L0 482.95" class="st6"/>
			</g>
			<g id="shape1326-195" v:mID="1326" v:groupContext="shape">
				<title>工作表.1326</title>
				<path d="M0 484.72 L60.81 484.72 L60.81 485.61 L61.7 483.83 L60.81 482.06 L60.81 482.95 L0 482.95 L0 484.72"
						class="st7"/>
			</g>
			<g id="shape1327-198" v:mID="1327" v:groupContext="shape" transform="translate(-0.791154,-0.902723)">
				<title>工作表.1327</title>
				<rect x="0" y="483.863" width="0.348272" height="1.74532" class="st8"/>
			</g>
		</g>
	</g>
</svg>
