<?xml version="1.0" encoding="UTF-8" standalone="no"?>
<!DOCTYPE svg PUBLIC "-//W3C//DTD SVG 1.1//EN" "http://www.w3.org/Graphics/SVG/1.1/DTD/svg11.dtd">
<!-- 由 Microsoft Visio, SVG Export 生成 AVLTree7.svg 页-1 -->
<svg xmlns="http://www.w3.org/2000/svg" xmlns:xlink="http://www.w3.org/1999/xlink" xmlns:ev="http://www.w3.org/2001/xml-events"
		xmlns:v="http://schemas.microsoft.com/visio/2003/SVGExtensions/" width="5.81342in" height="8.19425in"
		viewBox="0 0 418.566 589.986" xml:space="preserve" color-interpolation-filters="sRGB" class="st9">
	<v:documentProperties v:langID="2052" v:metric="true" v:viewMarkup="false"/>

	<style type="text/css">
	<![CDATA[
		.st1 {fill:#ffffff;stroke:#000000;stroke-linecap:round;stroke-linejoin:round;stroke-width:0.75}
		.st2 {fill:#000000;font-family:Cambria Math;font-size:1.5em}
		.st3 {font-size:1em}
		.st4 {fill:#ffffff}
		.st5 {stroke:none;stroke-linecap:round;stroke-linejoin:round;stroke-width:0.75}
		.st6 {stroke:#000000;stroke-linecap:round;stroke-linejoin:round;stroke-width:0.24}
		.st7 {fill:#ffffff;stroke:none;stroke-linecap:round;stroke-linejoin:round;stroke-width:0.24;visibility:hidden}
		.st8 {fill:#c05046;stroke:#000000;stroke-linecap:round;stroke-linejoin:round;stroke-width:0.75}
		.st9 {fill:none;fill-rule:evenodd;font-size:12px;overflow:visible;stroke-linecap:square;stroke-miterlimit:3}
	]]>
	</style>

	<g v:mID="0" v:index="1" v:groupContext="foregroundPage">
		<title>页-1</title>
		<v:pageProperties v:drawingScale="0.0393701" v:pageScale="0.0393701" v:drawingUnits="24" v:shadowOffsetX="8.50394"
				v:shadowOffsetY="-8.50394"/>
		<g id="shape1328-1" v:mID="1328" v:groupContext="shape" transform="translate(186.648,-540.881)">
			<title>矩形.1328</title>
			<desc>10 3</desc>
			<v:userDefs>
				<v:ud v:nameU="visVersion" v:val="VT0(15):26"/>
			</v:userDefs>
			<v:textBlock v:margins="rect(4,4,4,4)" v:tabSpace="42.5197"/>
			<v:textRect cx="17.1928" cy="565.621" width="34.39" height="48.73"/>
			<rect x="0" y="541.256" width="34.3857" height="48.73" class="st1"/>
			<text x="7.23" y="560.22" class="st2" v:langID="2052"><v:paragraph v:horizAlign="1"/><v:tabList/>10<v:newlineChar/><tspan
						x="12.21" dy="1.2em" class="st3">3</tspan></text>		</g>
		<g id="shape1329-5" v:mID="1329" v:groupContext="shape" transform="translate(278.207,-436.91)">
			<title>矩形.1329</title>
			<desc>15 2</desc>
			<v:userDefs>
				<v:ud v:nameU="visVersion" v:val="VT0(15):26"/>
			</v:userDefs>
			<v:textBlock v:margins="rect(4,4,4,4)" v:tabSpace="42.5197"/>
			<v:textRect cx="17.1928" cy="565.621" width="34.39" height="48.73"/>
			<rect x="0" y="541.256" width="34.3857" height="48.73" class="st1"/>
			<text x="7.23" y="560.22" class="st2" v:langID="2052"><v:paragraph v:horizAlign="1"/><v:tabList/>15<v:newlineChar/><tspan
						x="12.21" dy="1.2em" class="st3">2</tspan></text>		</g>
		<g id="shape1330-9" v:mID="1330" v:groupContext="shape" transform="translate(88.7807,-436.91)">
			<title>矩形.1330</title>
			<desc>5 2</desc>
			<v:userDefs>
				<v:ud v:nameU="visVersion" v:val="VT0(15):26"/>
			</v:userDefs>
			<v:textBlock v:margins="rect(4,4,4,4)" v:tabSpace="42.5197"/>
			<v:textRect cx="17.1928" cy="565.621" width="34.39" height="48.73"/>
			<rect x="0" y="541.256" width="34.3857" height="48.73" class="st1"/>
			<text x="12.21" y="560.22" class="st2" v:langID="2052"><v:paragraph v:horizAlign="1"/><v:tabList/>5<v:newlineChar/><tspan
						x="12.21" dy="1.2em" class="st3">2</tspan></text>		</g>
		<g id="group1331-13" transform="translate(492.975,561.348) rotate(150.557)" v:mID="1331" v:groupContext="group">
			<v:userDefs>
				<v:ud v:nameU="visVersion" v:val="VT0(15):26"/>
			</v:userDefs>
			<title>一维单向箭头.1331</title>
			<g id="shape1332-14" v:mID="1332" v:groupContext="shape">
				<title>工作表.1332</title>
				<path d="M0 589.1 L111.49 589.1 L111.49 589.99 L112.38 588.21 L111.49 586.44 L111.49 587.32 L0 587.32 L0 589.1 Z"
						class="st4"/>
				<path d="M0 589.1 L111.49 589.1 L111.49 589.99 L112.38 588.21 L111.49 586.44 L111.49 587.32 L0 587.32" class="st5"/>
			</g>
			<g id="shape1333-17" v:mID="1333" v:groupContext="shape">
				<title>工作表.1333</title>
				<path d="M0 589.1 L111.49 589.1 L111.49 589.99 L112.38 588.21 L111.49 586.44 L111.49 587.32 L0 587.32 L0 589.1"
						class="st6"/>
			</g>
			<g id="shape1334-20" v:mID="1334" v:groupContext="shape" transform="translate(-1.44097,-0.902723)">
				<title>工作表.1334</title>
				<rect x="0" y="588.241" width="0.634328" height="1.74532" class="st7"/>
			</g>
		</g>
		<g id="group1335-22" transform="translate(507.706,-454.539) rotate(31.104)" v:mID="1335" v:groupContext="group">
			<v:userDefs>
				<v:ud v:nameU="visVersion" v:val="VT0(15):26"/>
			</v:userDefs>
			<title>一维单向箭头.1335</title>
			<g id="shape1336-23" v:mID="1336" v:groupContext="shape">
				<title>工作表.1336</title>
				<path d="M0 589.1 L106.05 589.1 L106.05 589.99 L106.93 588.21 L106.05 586.44 L106.05 587.32 L0 587.32 L0 589.1 Z"
						class="st4"/>
				<path d="M0 589.1 L106.05 589.1 L106.05 589.99 L106.93 588.21 L106.05 586.44 L106.05 587.32 L0 587.32" class="st5"/>
			</g>
			<g id="shape1337-26" v:mID="1337" v:groupContext="shape">
				<title>工作表.1337</title>
				<path d="M0 589.1 L106.05 589.1 L106.05 589.99 L106.93 588.21 L106.05 586.44 L106.05 587.32 L0 587.32 L0 589.1"
						class="st6"/>
			</g>
			<g id="shape1338-29" v:mID="1338" v:groupContext="shape" transform="translate(-1.37112,-0.902723)">
				<title>工作表.1338</title>
				<rect x="0" y="588.241" width="0.603578" height="1.74532" class="st7"/>
			</g>
		</g>
		<g id="shape1339-31" v:mID="1339" v:groupContext="shape" transform="translate(237.514,-319.053)">
			<title>矩形.1339</title>
			<desc>13 1</desc>
			<v:userDefs>
				<v:ud v:nameU="visVersion" v:val="VT0(15):26"/>
			</v:userDefs>
			<v:textBlock v:margins="rect(4,4,4,4)" v:tabSpace="42.5197"/>
			<v:textRect cx="17.1928" cy="565.621" width="34.39" height="48.73"/>
			<rect x="0" y="541.256" width="34.3857" height="48.73" class="st1"/>
			<text x="7.23" y="560.22" class="st2" v:langID="2052"><v:paragraph v:horizAlign="1"/><v:tabList/>13<v:newlineChar/><tspan
						x="12.21" dy="1.2em" class="st3">1</tspan></text>		</g>
		<g id="group1340-35" transform="translate(802.303,451.473) rotate(120.484)" v:mID="1340" v:groupContext="group">
			<v:userDefs>
				<v:ud v:nameU="visVersion" v:val="VT0(15):26"/>
			</v:userDefs>
			<title>一维单向箭头.1340</title>
			<g id="shape1341-36" v:mID="1341" v:groupContext="shape">
				<title>工作表.1341</title>
				<path d="M0 589.1 L79.33 589.1 L79.33 589.99 L80.22 588.21 L79.33 586.44 L79.33 587.32 L0 587.32 L0 589.1 Z"
						class="st4"/>
				<path d="M0 589.1 L79.33 589.1 L79.33 589.99 L80.22 588.21 L79.33 586.44 L79.33 587.32 L0 587.32" class="st5"/>
			</g>
			<g id="shape1342-39" v:mID="1342" v:groupContext="shape">
				<title>工作表.1342</title>
				<path d="M0 589.1 L79.33 589.1 L79.33 589.99 L80.22 588.21 L79.33 586.44 L79.33 587.32 L0 587.32 L0 589.1"
						class="st6"/>
			</g>
			<g id="shape1343-42" v:mID="1343" v:groupContext="shape" transform="translate(-1.02854,-0.902723)">
				<title>工作表.1343</title>
				<rect x="0" y="588.241" width="0.452772" height="1.74532" class="st7"/>
			</g>
		</g>
		<g id="shape1344-44" v:mID="1344" v:groupContext="shape" transform="translate(348.708,-319.053)">
			<title>矩形.1344</title>
			<desc>19 1</desc>
			<v:userDefs>
				<v:ud v:nameU="visVersion" v:val="VT0(15):26"/>
			</v:userDefs>
			<v:textBlock v:margins="rect(4,4,4,4)" v:tabSpace="42.5197"/>
			<v:textRect cx="17.1928" cy="565.621" width="34.39" height="48.73"/>
			<rect x="0" y="541.256" width="34.3857" height="48.73" class="st1"/>
			<text x="7.23" y="560.22" class="st2" v:langID="2052"><v:paragraph v:horizAlign="1"/><v:tabList/>19<v:newlineChar/><tspan
						x="12.21" dy="1.2em" class="st3">1</tspan></text>		</g>
		<g id="group1345-48" transform="translate(707.216,-266.923) rotate(44.4365)" v:mID="1345" v:groupContext="group">
			<v:userDefs>
				<v:ud v:nameU="visVersion" v:val="VT0(15):26"/>
			</v:userDefs>
			<title>一维单向箭头.1345</title>
			<g id="shape1346-49" v:mID="1346" v:groupContext="shape">
				<title>工作表.1346</title>
				<path d="M0 589.1 L97.85 589.1 L97.85 589.99 L98.74 588.21 L97.85 586.44 L97.85 587.32 L0 587.32 L0 589.1 Z"
						class="st4"/>
				<path d="M0 589.1 L97.85 589.1 L97.85 589.99 L98.74 588.21 L97.85 586.44 L97.85 587.32 L0 587.32" class="st5"/>
			</g>
			<g id="shape1347-52" v:mID="1347" v:groupContext="shape">
				<title>工作表.1347</title>
				<path d="M0 589.1 L97.85 589.1 L97.85 589.99 L98.74 588.21 L97.85 586.44 L97.85 587.32 L0 587.32 L0 589.1"
						class="st6"/>
			</g>
			<g id="shape1348-55" v:mID="1348" v:groupContext="shape" transform="translate(-1.26602,-0.902723)">
				<title>工作表.1348</title>
				<rect x="0" y="588.241" width="0.557314" height="1.74532" class="st7"/>
			</g>
		</g>
		<g id="shape1349-57" v:mID="1349" v:groupContext="shape" transform="translate(41.0681,-319.053)">
			<title>矩形.1349</title>
			<desc>2 1</desc>
			<v:userDefs>
				<v:ud v:nameU="visVersion" v:val="VT0(15):26"/>
			</v:userDefs>
			<v:textBlock v:margins="rect(4,4,4,4)" v:tabSpace="42.5197"/>
			<v:textRect cx="17.1928" cy="565.621" width="34.39" height="48.73"/>
			<rect x="0" y="541.256" width="34.3857" height="48.73" class="st1"/>
			<text x="12.21" y="560.22" class="st2" v:langID="2052"><v:paragraph v:horizAlign="1"/><v:tabList/>2<v:newlineChar/><tspan
						x="12.21" dy="1.2em" class="st3">1</tspan></text>		</g>
		<g id="shape1350-61" v:mID="1350" v:groupContext="shape" transform="translate(126.32,-319.053)">
			<title>矩形.1350</title>
			<desc>7 1</desc>
			<v:userDefs>
				<v:ud v:nameU="visVersion" v:val="VT0(15):26"/>
			</v:userDefs>
			<v:textBlock v:margins="rect(4,4,4,4)" v:tabSpace="42.5197"/>
			<v:textRect cx="17.1928" cy="565.621" width="34.39" height="48.73"/>
			<rect x="0" y="541.256" width="34.3857" height="48.73" class="st1"/>
			<text x="12.21" y="560.22" class="st2" v:langID="2052"><v:paragraph v:horizAlign="1"/><v:tabList/>7<v:newlineChar/><tspan
						x="12.21" dy="1.2em" class="st3">1</tspan></text>		</g>
		<g id="group1351-65" transform="translate(590.07,487.205) rotate(124.614)" v:mID="1351" v:groupContext="group">
			<v:userDefs>
				<v:ud v:nameU="visVersion" v:val="VT0(15):26"/>
			</v:userDefs>
			<title>一维单向箭头.1351</title>
			<g id="shape1352-66" v:mID="1352" v:groupContext="shape">
				<title>工作表.1352</title>
				<path d="M0 589.1 L83.11 589.1 L83.11 589.99 L83.99 588.21 L83.11 586.44 L83.11 587.32 L0 587.32 L0 589.1 Z"
						class="st4"/>
				<path d="M0 589.1 L83.11 589.1 L83.11 589.99 L83.99 588.21 L83.11 586.44 L83.11 587.32 L0 587.32" class="st5"/>
			</g>
			<g id="shape1353-69" v:mID="1353" v:groupContext="shape">
				<title>工作表.1353</title>
				<path d="M0 589.1 L83.11 589.1 L83.11 589.99 L83.99 588.21 L83.11 586.44 L83.11 587.32 L0 587.32 L0 589.1"
						class="st6"/>
			</g>
			<g id="shape1354-72" v:mID="1354" v:groupContext="shape" transform="translate(-1.077,-0.902723)">
				<title>工作表.1354</title>
				<rect x="0" y="588.241" width="0.474103" height="1.74532" class="st7"/>
			</g>
		</g>
		<g id="group1355-74" transform="translate(622.883,-127.63) rotate(61.496)" v:mID="1355" v:groupContext="group">
			<v:userDefs>
				<v:ud v:nameU="visVersion" v:val="VT0(15):26"/>
			</v:userDefs>
			<title>一维单向箭头.1355</title>
			<g id="shape1356-75" v:mID="1356" v:groupContext="shape">
				<title>工作表.1356</title>
				<path d="M0 589.1 L77.77 589.1 L77.77 589.99 L78.66 588.21 L77.77 586.44 L77.77 587.32 L0 587.32 L0 589.1 Z"
						class="st4"/>
				<path d="M0 589.1 L77.77 589.1 L77.77 589.99 L78.66 588.21 L77.77 586.44 L77.77 587.32 L0 587.32" class="st5"/>
			</g>
			<g id="shape1357-78" v:mID="1357" v:groupContext="shape">
				<title>工作表.1357</title>
				<path d="M0 589.1 L77.77 589.1 L77.77 589.99 L78.66 588.21 L77.77 586.44 L77.77 587.32 L0 587.32 L0 589.1"
						class="st6"/>
			</g>
			<g id="shape1358-81" v:mID="1358" v:groupContext="shape" transform="translate(-1.00863,-0.902723)">
				<title>工作表.1358</title>
				<rect x="0" y="588.241" width="0.444006" height="1.74532" class="st7"/>
			</g>
		</g>
		<g id="shape1359-83" v:mID="1359" v:groupContext="shape" transform="translate(0.375,-209.131)">
			<title>矩形.1359</title>
			<desc>1 0</desc>
			<v:userDefs>
				<v:ud v:nameU="visVersion" v:val="VT0(15):26"/>
			</v:userDefs>
			<v:textBlock v:margins="rect(4,4,4,4)" v:tabSpace="42.5197"/>
			<v:textRect cx="17.1928" cy="565.621" width="34.39" height="48.73"/>
			<rect x="0" y="541.256" width="34.3857" height="48.73" class="st1"/>
			<text x="12.21" y="560.22" class="st2" v:langID="2052"><v:paragraph v:horizAlign="1"/><v:tabList/>1<v:newlineChar/><tspan
						x="12.21" dy="1.2em" class="st3">0</tspan></text>		</g>
		<g id="shape1360-87" v:mID="1360" v:groupContext="shape" transform="translate(49.6645,-209.131)">
			<title>矩形.1360</title>
			<desc>3 0</desc>
			<v:userDefs>
				<v:ud v:nameU="visVersion" v:val="VT0(15):26"/>
			</v:userDefs>
			<v:textBlock v:margins="rect(4,4,4,4)" v:tabSpace="42.5197"/>
			<v:textRect cx="17.1928" cy="565.621" width="34.39" height="48.73"/>
			<rect x="0" y="541.256" width="34.3857" height="48.73" class="st1"/>
			<text x="12.21" y="560.22" class="st2" v:langID="2052"><v:paragraph v:horizAlign="1"/><v:tabList/>3<v:newlineChar/><tspan
						x="12.21" dy="1.2em" class="st3">0</tspan></text>		</g>
		<g id="group1361-91" transform="translate(548.057,596.65) rotate(123.624)" v:mID="1361" v:groupContext="group">
			<v:userDefs>
				<v:ud v:nameU="visVersion" v:val="VT0(15):26"/>
			</v:userDefs>
			<title>一维单向箭头.1361</title>
			<g id="shape1362-92" v:mID="1362" v:groupContext="shape">
				<title>工作表.1362</title>
				<path d="M0 589.1 L72.6 589.1 L72.6 589.99 L73.49 588.21 L72.6 586.44 L72.6 587.32 L0 587.32 L0 589.1 Z"
						class="st4"/>
				<path d="M0 589.1 L72.6 589.1 L72.6 589.99 L73.49 588.21 L72.6 586.44 L72.6 587.32 L0 587.32" class="st5"/>
			</g>
			<g id="shape1363-95" v:mID="1363" v:groupContext="shape">
				<title>工作表.1363</title>
				<path d="M0 589.1 L72.6 589.1 L72.6 589.99 L73.49 588.21 L72.6 586.44 L72.6 587.32 L0 587.32 L0 589.1" class="st6"/>
			</g>
			<g id="shape1364-98" v:mID="1364" v:groupContext="shape" transform="translate(-0.942273,-0.902723)">
				<title>工作表.1364</title>
				<rect x="0" y="588.241" width="0.414796" height="1.74532" class="st7"/>
			</g>
		</g>
		<g id="group1365-100" transform="translate(640.752,189.104) rotate(82.0033)" v:mID="1365" v:groupContext="group">
			<v:userDefs>
				<v:ud v:nameU="visVersion" v:val="VT0(15):26"/>
			</v:userDefs>
			<title>一维单向箭头.1365</title>
			<g id="shape1366-101" v:mID="1366" v:groupContext="shape">
				<title>工作表.1366</title>
				<path d="M0 589.1 L60.91 589.1 L60.91 589.99 L61.79 588.21 L60.91 586.44 L60.91 587.32 L0 587.32 L0 589.1 Z"
						class="st4"/>
				<path d="M0 589.1 L60.91 589.1 L60.91 589.99 L61.79 588.21 L60.91 586.44 L60.91 587.32 L0 587.32" class="st5"/>
			</g>
			<g id="shape1367-104" v:mID="1367" v:groupContext="shape">
				<title>工作表.1367</title>
				<path d="M0 589.1 L60.91 589.1 L60.91 589.99 L61.79 588.21 L60.91 586.44 L60.91 587.32 L0 587.32 L0 589.1"
						class="st6"/>
			</g>
			<g id="shape1368-107" v:mID="1368" v:groupContext="shape" transform="translate(-0.792325,-0.902723)">
				<title>工作表.1368</title>
				<rect x="0" y="588.241" width="0.348788" height="1.74532" class="st7"/>
			</g>
		</g>
		<g id="shape1369-109" v:mID="1369" v:groupContext="shape" transform="translate(98.954,-209.131)">
			<title>矩形.1369</title>
			<desc>6 0</desc>
			<v:userDefs>
				<v:ud v:nameU="visVersion" v:val="VT0(15):26"/>
			</v:userDefs>
			<v:textBlock v:margins="rect(4,4,4,4)" v:tabSpace="42.5197"/>
			<v:textRect cx="17.1928" cy="565.621" width="34.39" height="48.73"/>
			<rect x="0" y="541.256" width="34.3857" height="48.73" class="st1"/>
			<text x="12.21" y="560.22" class="st2" v:langID="2052"><v:paragraph v:horizAlign="1"/><v:tabList/>6<v:newlineChar/><tspan
						x="12.21" dy="1.2em" class="st3">0</tspan></text>		</g>
		<g id="shape1370-113" v:mID="1370" v:groupContext="shape" transform="translate(142.801,-209.131)">
			<title>矩形.1370</title>
			<desc>8 0</desc>
			<v:userDefs>
				<v:ud v:nameU="visVersion" v:val="VT0(15):26"/>
			</v:userDefs>
			<v:textBlock v:margins="rect(4,4,4,4)" v:tabSpace="42.5197"/>
			<v:textRect cx="17.1928" cy="565.621" width="34.39" height="48.73"/>
			<rect x="0" y="541.256" width="34.3857" height="48.73" class="st1"/>
			<text x="12.21" y="560.22" class="st2" v:langID="2052"><v:paragraph v:horizAlign="1"/><v:tabList/>8<v:newlineChar/><tspan
						x="12.21" dy="1.2em" class="st3">0</tspan></text>		</g>
		<g id="group1371-117" transform="translate(680.473,511.07) rotate(114.095)" v:mID="1371" v:groupContext="group">
			<v:userDefs>
				<v:ud v:nameU="visVersion" v:val="VT0(15):26"/>
			</v:userDefs>
			<title>一维单向箭头.1371</title>
			<g id="shape1372-118" v:mID="1372" v:groupContext="shape">
				<title>工作表.1372</title>
				<path d="M0 589.1 L66.15 589.1 L66.15 589.99 L67.03 588.21 L66.15 586.44 L66.15 587.32 L0 587.32 L0 589.1 Z"
						class="st4"/>
				<path d="M0 589.1 L66.15 589.1 L66.15 589.99 L67.03 588.21 L66.15 586.44 L66.15 587.32 L0 587.32" class="st5"/>
			</g>
			<g id="shape1373-121" v:mID="1373" v:groupContext="shape">
				<title>工作表.1373</title>
				<path d="M0 589.1 L66.15 589.1 L66.15 589.99 L67.03 588.21 L66.15 586.44 L66.15 587.32 L0 587.32 L0 589.1"
						class="st6"/>
			</g>
			<g id="shape1374-124" v:mID="1374" v:groupContext="shape" transform="translate(-0.859509,-0.902723)">
				<title>工作表.1374</title>
				<rect x="0" y="588.241" width="0.378363" height="1.74532" class="st7"/>
			</g>
		</g>
		<g id="group1375-126" transform="translate(711.485,117.963) rotate(74.9264)" v:mID="1375" v:groupContext="group">
			<v:userDefs>
				<v:ud v:nameU="visVersion" v:val="VT0(15):26"/>
			</v:userDefs>
			<title>一维单向箭头.1375</title>
			<g id="shape1376-127" v:mID="1376" v:groupContext="shape">
				<title>工作表.1376</title>
				<path d="M0 589.1 L62.49 589.1 L62.49 589.99 L63.37 588.21 L62.49 586.44 L62.49 587.32 L0 587.32 L0 589.1 Z"
						class="st4"/>
				<path d="M0 589.1 L62.49 589.1 L62.49 589.99 L63.37 588.21 L62.49 586.44 L62.49 587.32 L0 587.32" class="st5"/>
			</g>
			<g id="shape1377-130" v:mID="1377" v:groupContext="shape">
				<title>工作表.1377</title>
				<path d="M0 589.1 L62.49 589.1 L62.49 589.99 L63.37 588.21 L62.49 586.44 L62.49 587.32 L0 587.32 L0 589.1"
						class="st6"/>
			</g>
			<g id="shape1378-133" v:mID="1378" v:groupContext="shape" transform="translate(-0.812579,-0.902723)">
				<title>工作表.1378</title>
				<rect x="0" y="588.241" width="0.357704" height="1.74532" class="st7"/>
			</g>
		</g>
		<g id="shape1379-135" v:mID="1379" v:groupContext="shape" transform="translate(268.034,-209.131)">
			<title>矩形.1379</title>
			<desc>14 0</desc>
			<v:userDefs>
				<v:ud v:nameU="visVersion" v:val="VT0(15):26"/>
			</v:userDefs>
			<v:textBlock v:margins="rect(4,4,4,4)" v:tabSpace="42.5197"/>
			<v:textRect cx="17.1928" cy="565.621" width="34.39" height="48.73"/>
			<rect x="0" y="541.256" width="34.3857" height="48.73" class="st1"/>
			<text x="7.23" y="560.22" class="st2" v:langID="2052"><v:paragraph v:horizAlign="1"/><v:tabList/>14<v:newlineChar/><tspan
						x="12.21" dy="1.2em" class="st3">0</tspan></text>		</g>
		<g id="shape1380-139" v:mID="1380" v:groupContext="shape" transform="translate(325.92,-209.131)">
			<title>矩形.1380</title>
			<desc>16 0</desc>
			<v:userDefs>
				<v:ud v:nameU="visVersion" v:val="VT0(15):26"/>
			</v:userDefs>
			<v:textBlock v:margins="rect(4,4,4,4)" v:tabSpace="42.5197"/>
			<v:textRect cx="17.1928" cy="565.621" width="34.39" height="48.73"/>
			<rect x="0" y="541.256" width="34.3857" height="48.73" class="st1"/>
			<text x="7.23" y="560.22" class="st2" v:langID="2052"><v:paragraph v:horizAlign="1"/><v:tabList/>16<v:newlineChar/><tspan
						x="12.21" dy="1.2em" class="st3">0</tspan></text>		</g>
		<g id="shape1381-143" v:mID="1381" v:groupContext="shape" transform="translate(383.806,-209.131)">
			<title>矩形.1381</title>
			<desc>20 0</desc>
			<v:userDefs>
				<v:ud v:nameU="visVersion" v:val="VT0(15):26"/>
			</v:userDefs>
			<v:textBlock v:margins="rect(4,4,4,4)" v:tabSpace="42.5197"/>
			<v:textRect cx="17.1928" cy="565.621" width="34.39" height="48.73"/>
			<rect x="0" y="541.256" width="34.3857" height="48.73" class="st1"/>
			<text x="7.23" y="560.22" class="st2" v:langID="2052"><v:paragraph v:horizAlign="1"/><v:tabList/>20<v:newlineChar/><tspan
						x="12.21" dy="1.2em" class="st3">0</tspan></text>		</g>
		<g id="group1382-147" transform="translate(781.08,8.40261) rotate(63.4921)" v:mID="1382" v:groupContext="group">
			<v:userDefs>
				<v:ud v:nameU="visVersion" v:val="VT0(15):26"/>
			</v:userDefs>
			<title>一维单向箭头.1382</title>
			<g id="shape1383-148" v:mID="1383" v:groupContext="shape">
				<title>工作表.1383</title>
				<path d="M0 589.1 L67.49 589.1 L67.49 589.99 L68.38 588.21 L67.49 586.44 L67.49 587.32 L0 587.32 L0 589.1 Z"
						class="st4"/>
				<path d="M0 589.1 L67.49 589.1 L67.49 589.99 L68.38 588.21 L67.49 586.44 L67.49 587.32 L0 587.32" class="st5"/>
			</g>
			<g id="shape1384-151" v:mID="1384" v:groupContext="shape">
				<title>工作表.1384</title>
				<path d="M0 589.1 L67.49 589.1 L67.49 589.99 L68.38 588.21 L67.49 586.44 L67.49 587.32 L0 587.32 L0 589.1"
						class="st6"/>
			</g>
			<g id="shape1385-154" v:mID="1385" v:groupContext="shape" transform="translate(-0.876795,-0.902723)">
				<title>工作表.1385</title>
				<rect x="0" y="588.241" width="0.385972" height="1.74532" class="st7"/>
			</g>
		</g>
		<g id="group1386-156" transform="translate(917.129,476.212) rotate(110.425)" v:mID="1386" v:groupContext="group">
			<v:userDefs>
				<v:ud v:nameU="visVersion" v:val="VT0(15):26"/>
			</v:userDefs>
			<title>一维单向箭头.1386</title>
			<g id="shape1387-157" v:mID="1387" v:groupContext="shape">
				<title>工作表.1387</title>
				<path d="M0 589.1 L64.41 589.1 L64.41 589.99 L65.3 588.21 L64.41 586.44 L64.41 587.32 L0 587.32 L0 589.1 Z"
						class="st4"/>
				<path d="M0 589.1 L64.41 589.1 L64.41 589.99 L65.3 588.21 L64.41 586.44 L64.41 587.32 L0 587.32" class="st5"/>
			</g>
			<g id="shape1388-160" v:mID="1388" v:groupContext="shape">
				<title>工作表.1388</title>
				<path d="M0 589.1 L64.41 589.1 L64.41 589.99 L65.3 588.21 L64.41 586.44 L64.41 587.32 L0 587.32 L0 589.1"
						class="st6"/>
			</g>
			<g id="shape1389-163" v:mID="1389" v:groupContext="shape" transform="translate(-0.837261,-0.902723)">
				<title>工作表.1389</title>
				<rect x="0" y="588.241" width="0.368569" height="1.74532" class="st7"/>
			</g>
		</g>
		<g id="group1390-165" transform="translate(876.14,-21.7228) rotate(60.1629)" v:mID="1390" v:groupContext="group">
			<v:userDefs>
				<v:ud v:nameU="visVersion" v:val="VT0(15):26"/>
			</v:userDefs>
			<title>一维单向箭头.1390</title>
			<g id="shape1391-166" v:mID="1391" v:groupContext="shape">
				<title>工作表.1391</title>
				<path d="M0 589.1 L69.66 589.1 L69.66 589.99 L70.54 588.21 L69.66 586.44 L69.66 587.32 L0 587.32 L0 589.1 Z"
						class="st4"/>
				<path d="M0 589.1 L69.66 589.1 L69.66 589.99 L70.54 588.21 L69.66 586.44 L69.66 587.32 L0 587.32" class="st5"/>
			</g>
			<g id="shape1392-169" v:mID="1392" v:groupContext="shape">
				<title>工作表.1392</title>
				<path d="M0 589.1 L69.66 589.1 L69.66 589.99 L70.54 588.21 L69.66 586.44 L69.66 587.32 L0 587.32 L0 589.1"
						class="st6"/>
			</g>
			<g id="shape1393-172" v:mID="1393" v:groupContext="shape" transform="translate(-0.904521,-0.902723)">
				<title>工作表.1393</title>
				<rect x="0" y="588.241" width="0.398177" height="1.74532" class="st7"/>
			</g>
		</g>
		<g id="shape1394-174" v:mID="1394" v:groupContext="shape" transform="translate(346.266,-104.753)">
			<title>矩形.1394</title>
			<desc>17 1</desc>
			<v:userDefs>
				<v:ud v:nameU="visVersion" v:val="VT0(15):26"/>
			</v:userDefs>
			<v:textBlock v:margins="rect(4,4,4,4)" v:tabSpace="42.5197"/>
			<v:textRect cx="17.1928" cy="565.621" width="34.39" height="48.73"/>
			<rect x="0" y="541.256" width="34.3857" height="48.73" class="st8"/>
			<text x="7.23" y="560.22" class="st2" v:langID="2052"><v:paragraph v:horizAlign="1"/><v:tabList/>17<v:newlineChar/><tspan
						x="12.21" dy="1.2em" class="st3">1</tspan></text>		</g>
		<g id="group1395-178" transform="translate(895.554,178.866) rotate(69.916)" v:mID="1395" v:groupContext="group">
			<v:userDefs>
				<v:ud v:nameU="visVersion" v:val="VT0(15):26"/>
			</v:userDefs>
			<title>一维单向箭头.1395</title>
			<g id="shape1396-179" v:mID="1396" v:groupContext="shape">
				<title>工作表.1396</title>
				<path d="M0 589.1 L58.36 589.1 L58.36 589.99 L59.25 588.21 L58.36 586.44 L58.36 587.32 L0 587.32 L0 589.1 Z"
						class="st4"/>
				<path d="M0 589.1 L58.36 589.1 L58.36 589.99 L59.25 588.21 L58.36 586.44 L58.36 587.32 L0 587.32" class="st5"/>
			</g>
			<g id="shape1397-182" v:mID="1397" v:groupContext="shape">
				<title>工作表.1397</title>
				<path d="M0 589.1 L58.36 589.1 L58.36 589.99 L59.25 588.21 L58.36 586.44 L58.36 587.32 L0 587.32 L0 589.1"
						class="st6"/>
			</g>
			<g id="shape1398-185" v:mID="1398" v:groupContext="shape" transform="translate(-0.759727,-0.902723)">
				<title>工作表.1398</title>
				<rect x="0" y="588.241" width="0.334438" height="1.74532" class="st7"/>
			</g>
		</g>
		<g id="shape1399-187" v:mID="1399" v:groupContext="shape" transform="translate(366.613,-0.375)">
			<title>矩形.1399</title>
			<desc>18 0</desc>
			<v:userDefs>
				<v:ud v:nameU="visVersion" v:val="VT0(15):26"/>
			</v:userDefs>
			<v:textBlock v:margins="rect(4,4,4,4)" v:tabSpace="42.5197"/>
			<v:textRect cx="17.1928" cy="565.621" width="34.39" height="48.73"/>
			<rect x="0" y="541.256" width="34.3857" height="48.73" class="st8"/>
			<text x="7.23" y="560.22" class="st2" v:langID="2052"><v:paragraph v:horizAlign="1"/><v:tabList/>18<v:newlineChar/><tspan
						x="12.21" dy="1.2em" class="st3">0</tspan></text>		</g>
		<g id="group1400-191" transform="translate(915.901,283.243) rotate(69.916)" v:mID="1400" v:groupContext="group">
			<v:userDefs>
				<v:ud v:nameU="visVersion" v:val="VT0(15):26"/>
			</v:userDefs>
			<title>一维单向箭头.1400</title>
			<g id="shape1401-192" v:mID="1401" v:groupContext="shape">
				<title>工作表.1401</title>
				<path d="M0 589.1 L58.36 589.1 L58.36 589.99 L59.25 588.21 L58.36 586.44 L58.36 587.32 L0 587.32 L0 589.1 Z"
						class="st4"/>
				<path d="M0 589.1 L58.36 589.1 L58.36 589.99 L59.25 588.21 L58.36 586.44 L58.36 587.32 L0 587.32" class="st5"/>
			</g>
			<g id="shape1402-195" v:mID="1402" v:groupContext="shape">
				<title>工作表.1402</title>
				<path d="M0 589.1 L58.36 589.1 L58.36 589.99 L59.25 588.21 L58.36 586.44 L58.36 587.32 L0 587.32 L0 589.1"
						class="st6"/>
			</g>
			<g id="shape1403-198" v:mID="1403" v:groupContext="shape" transform="translate(-0.759727,-0.902723)">
				<title>工作表.1403</title>
				<rect x="0" y="588.241" width="0.334438" height="1.74532" class="st7"/>
			</g>
		</g>
	</g>
</svg>
