<?xml version="1.0" encoding="UTF-8" standalone="no"?>
<!DOCTYPE svg PUBLIC "-//W3C//DTD SVG 1.1//EN" "http://www.w3.org/Graphics/SVG/1.1/DTD/svg11.dtd">
<!-- 由 Microsoft Visio, SVG Export 生成 LeftistTree1.svg 页-1 -->
<svg xmlns="http://www.w3.org/2000/svg" xmlns:xlink="http://www.w3.org/1999/xlink" xmlns:ev="http://www.w3.org/2001/xml-events"
		xmlns:v="http://schemas.microsoft.com/visio/2003/SVGExtensions/" width="9.89904in" height="7.96244in"
		viewBox="0 0 712.731 573.296" xml:space="preserve" color-interpolation-filters="sRGB" class="st8">
	<v:documentProperties v:langID="2052" v:metric="true" v:viewMarkup="false"/>

	<style type="text/css">
	<![CDATA[
		.st1 {fill:#ffffff;stroke:#000000;stroke-linecap:round;stroke-linejoin:round;stroke-width:0.75}
		.st2 {fill:#000000;font-family:Cambria Math;font-size:1.5em}
		.st3 {font-size:1em}
		.st4 {fill:#ffffff}
		.st5 {stroke:none;stroke-linecap:round;stroke-linejoin:round;stroke-width:0.75}
		.st6 {stroke:#000000;stroke-linecap:round;stroke-linejoin:round;stroke-width:0.24}
		.st7 {fill:#ffffff;stroke:none;stroke-linecap:round;stroke-linejoin:round;stroke-width:0.24;visibility:hidden}
		.st8 {fill:none;fill-rule:evenodd;font-size:12px;overflow:visible;stroke-linecap:square;stroke-miterlimit:3}
	]]>
	</style>

	<g v:mID="0" v:index="1" v:groupContext="foregroundPage">
		<title>页-1</title>
		<v:pageProperties v:drawingScale="0.0393701" v:pageScale="0.0393701" v:drawingUnits="24" v:shadowOffsetX="8.50394"
				v:shadowOffsetY="-8.50394"/>
		<g id="shape2-1" v:mID="2" v:groupContext="shape" transform="translate(341.61,-525.803)">
			<title>矩形</title>
			<desc>3 3</desc>
			<v:userDefs>
				<v:ud v:nameU="visVersion" v:val="VT0(15):26"/>
			</v:userDefs>
			<v:textBlock v:margins="rect(4,4,4,4)" v:tabSpace="42.5197"/>
			<v:textRect cx="16.624" cy="549.737" width="33.25" height="47.1178"/>
			<rect x="0" y="526.178" width="33.2481" height="47.1178" class="st1"/>
			<text x="11.64" y="544.34" class="st2" v:langID="2052"><v:paragraph v:horizAlign="1"/><v:tabList/>3<v:newlineChar/><tspan
						x="11.64" dy="1.2em" class="st3">3</tspan></text>		</g>
		<g id="shape3-5" v:mID="3" v:groupContext="shape" transform="translate(180.485,-427.436)">
			<title>矩形.3</title>
			<desc>6 2</desc>
			<v:userDefs>
				<v:ud v:nameU="visVersion" v:val="VT0(15):26"/>
			</v:userDefs>
			<v:textBlock v:margins="rect(4,4,4,4)" v:tabSpace="42.5197"/>
			<v:textRect cx="16.624" cy="549.737" width="33.25" height="47.1178"/>
			<rect x="0" y="526.178" width="33.2481" height="47.1178" class="st1"/>
			<text x="11.64" y="544.34" class="st2" v:langID="2052"><v:paragraph v:horizAlign="1"/><v:tabList/>6<v:newlineChar/><tspan
						x="11.64" dy="1.2em" class="st3">2</tspan></text>		</g>
		<g id="shape4-9" v:mID="4" v:groupContext="shape" transform="translate(521.72,-427.436)">
			<title>矩形.4</title>
			<desc>7 2</desc>
			<v:userDefs>
				<v:ud v:nameU="visVersion" v:val="VT0(15):26"/>
			</v:userDefs>
			<v:textBlock v:margins="rect(4,4,4,4)" v:tabSpace="42.5197"/>
			<v:textRect cx="16.624" cy="549.737" width="33.25" height="47.1178"/>
			<rect x="0" y="526.178" width="33.2481" height="47.1178" class="st1"/>
			<text x="11.64" y="544.34" class="st2" v:langID="2052"><v:paragraph v:horizAlign="1"/><v:tabList/>7<v:newlineChar/><tspan
						x="11.64" dy="1.2em" class="st3">2</tspan></text>		</g>
		<g id="group12-13" transform="translate(531.467,592.127) rotate(162.356)" v:mID="12" v:groupContext="group">
			<v:userDefs>
				<v:ud v:nameU="visVersion" v:val="VT0(15):26"/>
			</v:userDefs>
			<title>一维单向箭头</title>
			<g id="shape13-14" v:mID="13" v:groupContext="shape">
				<title>工作表.13</title>
				<path d="M0 572.41 L168.19 572.41 L168.19 573.3 L169.08 571.52 L168.19 569.74 L168.19 570.63 L0 570.63 L0 572.41 Z"
						class="st4"/>
				<path d="M0 572.41 L168.19 572.41 L168.19 573.3 L169.08 571.52 L168.19 569.74 L168.19 570.63 L0 570.63" class="st5"/>
			</g>
			<g id="shape14-17" v:mID="14" v:groupContext="shape">
				<title>工作表.14</title>
				<path d="M0 572.41 L168.19 572.41 L168.19 573.3 L169.08 571.52 L168.19 569.74 L168.19 570.63 L0 570.63 L0 572.41"
						class="st6"/>
			</g>
			<g id="shape15-20" v:mID="15" v:groupContext="shape" transform="translate(-2.16797,-0.902723)">
				<title>工作表.15</title>
				<rect x="0" y="571.55" width="0.954359" height="1.74532" class="st7"/>
			</g>
		</g>
		<g id="group16-22" transform="translate(514.648,-502.207) rotate(15.8834)" v:mID="16" v:groupContext="group">
			<v:userDefs>
				<v:ud v:nameU="visVersion" v:val="VT0(15):26"/>
			</v:userDefs>
			<title>一维单向箭头.16</title>
			<g id="shape17-23" v:mID="17" v:groupContext="shape">
				<title>工作表.17</title>
				<path d="M0 572.41 L186.37 572.41 L186.37 573.3 L187.26 571.52 L186.37 569.74 L186.37 570.63 L0 570.63 L0 572.41 Z"
						class="st4"/>
				<path d="M0 572.41 L186.37 572.41 L186.37 573.3 L187.26 571.52 L186.37 569.74 L186.37 570.63 L0 570.63" class="st5"/>
			</g>
			<g id="shape18-26" v:mID="18" v:groupContext="shape">
				<title>工作表.18</title>
				<path d="M0 572.41 L186.37 572.41 L186.37 573.3 L187.26 571.52 L186.37 569.74 L186.37 570.63 L0 570.63 L0 572.41"
						class="st6"/>
			</g>
			<g id="shape19-29" v:mID="19" v:groupContext="shape" transform="translate(-2.40108,-0.902723)">
				<title>工作表.19</title>
				<rect x="0" y="571.55" width="1.05698" height="1.74532" class="st7"/>
			</g>
		</g>
		<g id="shape20-31" v:mID="20" v:groupContext="shape" transform="translate(85.856,-326.904)">
			<title>矩形.20</title>
			<desc>11 2</desc>
			<v:userDefs>
				<v:ud v:nameU="visVersion" v:val="VT0(15):26"/>
			</v:userDefs>
			<v:textBlock v:margins="rect(4,4,4,4)" v:tabSpace="42.5197"/>
			<v:textRect cx="16.624" cy="549.737" width="33.25" height="47.1178"/>
			<rect x="0" y="526.178" width="33.2481" height="47.1178" class="st1"/>
			<text x="6.66" y="544.34" class="st2" v:langID="2052"><v:paragraph v:horizAlign="1"/><v:tabList/>11<v:newlineChar/><tspan
						x="11.64" dy="1.2em" class="st3">2</tspan></text>		</g>
		<g id="shape21-35" v:mID="21" v:groupContext="shape" transform="translate(253.08,-326.904)">
			<title>矩形.21</title>
			<desc>8 1</desc>
			<v:userDefs>
				<v:ud v:nameU="visVersion" v:val="VT0(15):26"/>
			</v:userDefs>
			<v:textBlock v:margins="rect(4,4,4,4)" v:tabSpace="42.5197"/>
			<v:textRect cx="16.624" cy="549.737" width="33.25" height="47.1178"/>
			<rect x="0" y="526.178" width="33.2481" height="47.1178" class="st1"/>
			<text x="11.64" y="544.34" class="st2" v:langID="2052"><v:paragraph v:horizAlign="1"/><v:tabList/>8<v:newlineChar/><tspan
						x="11.64" dy="1.2em" class="st3">1</tspan></text>		</g>
		<g id="group23-39" transform="translate(478.04,643.568) rotate(150.557)" v:mID="23" v:groupContext="group">
			<v:userDefs>
				<v:ud v:nameU="visVersion" v:val="VT0(15):26"/>
			</v:userDefs>
			<title>一维单向箭头.23</title>
			<g id="shape24-40" v:mID="24" v:groupContext="shape">
				<title>工作表.24</title>
				<path d="M0 572.41 L107.78 572.41 L107.78 573.3 L108.66 571.52 L107.78 569.74 L107.78 570.63 L0 570.63 L0 572.41 Z"
						class="st4"/>
				<path d="M0 572.41 L107.78 572.41 L107.78 573.3 L108.66 571.52 L107.78 569.74 L107.78 570.63 L0 570.63" class="st5"/>
			</g>
			<g id="shape25-43" v:mID="25" v:groupContext="shape">
				<title>工作表.25</title>
				<path d="M0 572.41 L107.78 572.41 L107.78 573.3 L108.66 571.52 L107.78 569.74 L107.78 570.63 L0 570.63 L0 572.41"
						class="st6"/>
			</g>
			<g id="shape26-46" v:mID="26" v:groupContext="shape" transform="translate(-1.3933,-0.902723)">
				<title>工作表.26</title>
				<rect x="0" y="571.55" width="0.613342" height="1.74532" class="st7"/>
			</g>
		</g>
		<g id="group27-48" transform="translate(535.815,-314.481) rotate(36.3446)" v:mID="27" v:groupContext="group">
			<v:userDefs>
				<v:ud v:nameU="visVersion" v:val="VT0(15):26"/>
			</v:userDefs>
			<title>一维单向箭头.27</title>
			<g id="shape28-49" v:mID="28" v:groupContext="shape">
				<title>工作表.28</title>
				<path d="M0 572.41 L89.24 572.41 L89.24 573.3 L90.13 571.52 L89.24 569.74 L89.24 570.63 L0 570.63 L0 572.41 Z"
						class="st4"/>
				<path d="M0 572.41 L89.24 572.41 L89.24 573.3 L90.13 571.52 L89.24 569.74 L89.24 570.63 L0 570.63" class="st5"/>
			</g>
			<g id="shape29-52" v:mID="29" v:groupContext="shape">
				<title>工作表.29</title>
				<path d="M0 572.41 L89.24 572.41 L89.24 573.3 L90.13 571.52 L89.24 569.74 L89.24 570.63 L0 570.63 L0 572.41"
						class="st6"/>
			</g>
			<g id="shape30-55" v:mID="30" v:groupContext="shape" transform="translate(-1.15564,-0.902723)">
				<title>工作表.30</title>
				<rect x="0" y="571.55" width="0.508721" height="1.74532" class="st7"/>
			</g>
		</g>
		<g id="shape31-57" v:mID="31" v:groupContext="shape" transform="translate(433.19,-326.904)">
			<title>矩形.31</title>
			<desc>9 1</desc>
			<v:userDefs>
				<v:ud v:nameU="visVersion" v:val="VT0(15):26"/>
			</v:userDefs>
			<v:textBlock v:margins="rect(4,4,4,4)" v:tabSpace="42.5197"/>
			<v:textRect cx="16.624" cy="549.737" width="33.25" height="47.1178"/>
			<rect x="0" y="526.178" width="33.2481" height="47.1178" class="st1"/>
			<text x="11.64" y="544.34" class="st2" v:langID="2052"><v:paragraph v:horizAlign="1"/><v:tabList/>9<v:newlineChar/><tspan
						x="11.64" dy="1.2em" class="st3">1</tspan></text>		</g>
		<g id="group32-61" transform="translate(833.588,635.213) rotate(148.896)" v:mID="32" v:groupContext="group">
			<v:userDefs>
				<v:ud v:nameU="visVersion" v:val="VT0(15):26"/>
			</v:userDefs>
			<title>一维单向箭头.32</title>
			<g id="shape33-62" v:mID="33" v:groupContext="shape">
				<title>工作表.33</title>
				<path d="M0 572.41 L102.51 572.41 L102.51 573.3 L103.4 571.52 L102.51 569.74 L102.51 570.63 L0 570.63 L0 572.41 Z"
						class="st4"/>
				<path d="M0 572.41 L102.51 572.41 L102.51 573.3 L103.4 571.52 L102.51 569.74 L102.51 570.63 L0 570.63" class="st5"/>
			</g>
			<g id="shape34-65" v:mID="34" v:groupContext="shape">
				<title>工作表.34</title>
				<path d="M0 572.41 L102.51 572.41 L102.51 573.3 L103.4 571.52 L102.51 569.74 L102.51 570.63 L0 570.63 L0 572.41"
						class="st6"/>
			</g>
			<g id="shape35-68" v:mID="35" v:groupContext="shape" transform="translate(-1.32576,-0.902723)">
				<title>工作表.35</title>
				<rect x="0" y="571.55" width="0.58361" height="1.74532" class="st7"/>
			</g>
		</g>
		<g id="shape36-70" v:mID="36" v:groupContext="shape" transform="translate(613.3,-326.904)">
			<title>矩形.36</title>
			<desc>12 1</desc>
			<v:userDefs>
				<v:ud v:nameU="visVersion" v:val="VT0(15):26"/>
			</v:userDefs>
			<v:textBlock v:margins="rect(4,4,4,4)" v:tabSpace="42.5197"/>
			<v:textRect cx="16.624" cy="549.737" width="33.25" height="47.1178"/>
			<rect x="0" y="526.178" width="33.2481" height="47.1178" class="st1"/>
			<text x="6.66" y="544.34" class="st2" v:langID="2052"><v:paragraph v:horizAlign="1"/><v:tabList/>12<v:newlineChar/><tspan
						x="11.64" dy="1.2em" class="st3">1</tspan></text>		</g>
		<g id="group37-74" transform="translate(826.284,-347.826) rotate(30.2526)" v:mID="37" v:groupContext="group">
			<v:userDefs>
				<v:ud v:nameU="visVersion" v:val="VT0(15):26"/>
			</v:userDefs>
			<title>一维单向箭头.37</title>
			<g id="shape38-75" v:mID="38" v:groupContext="shape">
				<title>工作表.38</title>
				<path d="M0 572.41 L105.13 572.41 L105.13 573.3 L106.02 571.52 L105.13 569.74 L105.13 570.63 L0 570.63 L0 572.41 Z"
						class="st4"/>
				<path d="M0 572.41 L105.13 572.41 L105.13 573.3 L106.02 571.52 L105.13 569.74 L105.13 570.63 L0 570.63" class="st5"/>
			</g>
			<g id="shape39-78" v:mID="39" v:groupContext="shape">
				<title>工作表.39</title>
				<path d="M0 572.41 L105.13 572.41 L105.13 573.3 L106.02 571.52 L105.13 569.74 L105.13 570.63 L0 570.63 L0 572.41"
						class="st6"/>
			</g>
			<g id="shape40-81" v:mID="40" v:groupContext="shape" transform="translate(-1.35939,-0.902723)">
				<title>工作表.40</title>
				<rect x="0" y="571.55" width="0.598413" height="1.74532" class="st7"/>
			</g>
		</g>
		<g id="shape41-83" v:mID="41" v:groupContext="shape" transform="translate(39.7218,-212.946)">
			<title>矩形.41</title>
			<desc>17 1</desc>
			<v:userDefs>
				<v:ud v:nameU="visVersion" v:val="VT0(15):26"/>
			</v:userDefs>
			<v:textBlock v:margins="rect(4,4,4,4)" v:tabSpace="42.5197"/>
			<v:textRect cx="16.624" cy="549.737" width="33.25" height="47.1178"/>
			<rect x="0" y="526.178" width="33.2481" height="47.1178" class="st1"/>
			<text x="6.66" y="544.34" class="st2" v:langID="2052"><v:paragraph v:horizAlign="1"/><v:tabList/>17<v:newlineChar/><tspan
						x="11.64" dy="1.2em" class="st3">1</tspan></text>		</g>
		<g id="shape42-87" v:mID="42" v:groupContext="shape" transform="translate(122.153,-212.946)">
			<title>矩形.42</title>
			<desc>14 1</desc>
			<v:userDefs>
				<v:ud v:nameU="visVersion" v:val="VT0(15):26"/>
			</v:userDefs>
			<v:textBlock v:margins="rect(4,4,4,4)" v:tabSpace="42.5197"/>
			<v:textRect cx="16.624" cy="549.737" width="33.25" height="47.1178"/>
			<rect x="0" y="526.178" width="33.2481" height="47.1178" class="st1"/>
			<text x="6.66" y="544.34" class="st2" v:langID="2052"><v:paragraph v:horizAlign="1"/><v:tabList/>14<v:newlineChar/><tspan
						x="11.64" dy="1.2em" class="st3">1</tspan></text>		</g>
		<g id="group43-91" transform="translate(572.84,571.04) rotate(124.614)" v:mID="43" v:groupContext="group">
			<v:userDefs>
				<v:ud v:nameU="visVersion" v:val="VT0(15):26"/>
			</v:userDefs>
			<title>一维单向箭头.43</title>
			<g id="shape44-92" v:mID="44" v:groupContext="shape">
				<title>工作表.44</title>
				<path d="M0 572.41 L80.33 572.41 L80.33 573.3 L81.22 571.52 L80.33 569.74 L80.33 570.63 L0 570.63 L0 572.41 Z"
						class="st4"/>
				<path d="M0 572.41 L80.33 572.41 L80.33 573.3 L81.22 571.52 L80.33 569.74 L80.33 570.63 L0 570.63" class="st5"/>
			</g>
			<g id="shape45-95" v:mID="45" v:groupContext="shape">
				<title>工作表.45</title>
				<path d="M0 572.41 L80.33 572.41 L80.33 573.3 L81.22 571.52 L80.33 569.74 L80.33 570.63 L0 570.63 L0 572.41"
						class="st6"/>
			</g>
			<g id="shape46-98" v:mID="46" v:groupContext="shape" transform="translate(-1.04137,-0.902723)">
				<title>工作表.46</title>
				<rect x="0" y="571.55" width="0.458418" height="1.74532" class="st7"/>
			</g>
		</g>
		<g id="group47-100" transform="translate(604.723,-26.35) rotate(61.496)" v:mID="47" v:groupContext="group">
			<v:userDefs>
				<v:ud v:nameU="visVersion" v:val="VT0(15):26"/>
			</v:userDefs>
			<title>一维单向箭头.47</title>
			<g id="shape48-101" v:mID="48" v:groupContext="shape">
				<title>工作表.48</title>
				<path d="M0 572.41 L75.17 572.41 L75.17 573.3 L76.06 571.52 L75.17 569.74 L75.17 570.63 L0 570.63 L0 572.41 Z"
						class="st4"/>
				<path d="M0 572.41 L75.17 572.41 L75.17 573.3 L76.06 571.52 L75.17 569.74 L75.17 570.63 L0 570.63" class="st5"/>
			</g>
			<g id="shape49-104" v:mID="49" v:groupContext="shape">
				<title>工作表.49</title>
				<path d="M0 572.41 L75.17 572.41 L75.17 573.3 L76.06 571.52 L75.17 569.74 L75.17 570.63 L0 570.63 L0 572.41"
						class="st6"/>
			</g>
			<g id="shape50-107" v:mID="50" v:groupContext="shape" transform="translate(-0.97526,-0.902723)">
				<title>工作表.50</title>
				<rect x="0" y="571.55" width="0.429317" height="1.74532" class="st7"/>
			</g>
		</g>
		<g id="shape51-109" v:mID="51" v:groupContext="shape" transform="translate(0.375,-106.661)">
			<title>矩形.51</title>
			<desc>18 0</desc>
			<v:userDefs>
				<v:ud v:nameU="visVersion" v:val="VT0(15):26"/>
			</v:userDefs>
			<v:textBlock v:margins="rect(4,4,4,4)" v:tabSpace="42.5197"/>
			<v:textRect cx="16.624" cy="549.737" width="33.25" height="47.1178"/>
			<rect x="0" y="526.178" width="33.2481" height="47.1178" class="st1"/>
			<text x="6.66" y="544.34" class="st2" v:langID="2052"><v:paragraph v:horizAlign="1"/><v:tabList/>18<v:newlineChar/><tspan
						x="11.64" dy="1.2em" class="st3">0</tspan></text>		</g>
		<g id="shape52-113" v:mID="52" v:groupContext="shape" transform="translate(48.0338,-106.661)">
			<title>矩形.52</title>
			<desc>20 0</desc>
			<v:userDefs>
				<v:ud v:nameU="visVersion" v:val="VT0(15):26"/>
			</v:userDefs>
			<v:textBlock v:margins="rect(4,4,4,4)" v:tabSpace="42.5197"/>
			<v:textRect cx="16.624" cy="549.737" width="33.25" height="47.1178"/>
			<rect x="0" y="526.178" width="33.2481" height="47.1178" class="st1"/>
			<text x="6.66" y="544.34" class="st2" v:langID="2052"><v:paragraph v:horizAlign="1"/><v:tabList/>20<v:newlineChar/><tspan
						x="11.64" dy="1.2em" class="st3">0</tspan></text>		</g>
		<g id="group53-117" transform="translate(532.244,676.824) rotate(123.624)" v:mID="53" v:groupContext="group">
			<v:userDefs>
				<v:ud v:nameU="visVersion" v:val="VT0(15):26"/>
			</v:userDefs>
			<title>一维单向箭头.53</title>
			<g id="shape54-118" v:mID="54" v:groupContext="shape">
				<title>工作表.54</title>
				<path d="M0 572.41 L70.17 572.41 L70.17 573.3 L71.06 571.52 L70.17 569.74 L70.17 570.63 L0 570.63 L0 572.41 Z"
						class="st4"/>
				<path d="M0 572.41 L70.17 572.41 L70.17 573.3 L71.06 571.52 L70.17 569.74 L70.17 570.63 L0 570.63" class="st5"/>
			</g>
			<g id="shape55-121" v:mID="55" v:groupContext="shape">
				<title>工作表.55</title>
				<path d="M0 572.41 L70.17 572.41 L70.17 573.3 L71.06 571.52 L70.17 569.74 L70.17 570.63 L0 570.63 L0 572.41"
						class="st6"/>
			</g>
			<g id="shape56-124" v:mID="56" v:groupContext="shape" transform="translate(-0.9111,-0.902723)">
				<title>工作表.56</title>
				<rect x="0" y="571.55" width="0.401073" height="1.74532" class="st7"/>
			</g>
		</g>
		<g id="group57-126" transform="translate(622.309,280.842) rotate(82.0033)" v:mID="57" v:groupContext="group">
			<v:userDefs>
				<v:ud v:nameU="visVersion" v:val="VT0(15):26"/>
			</v:userDefs>
			<title>一维单向箭头.57</title>
			<g id="shape58-127" v:mID="58" v:groupContext="shape">
				<title>工作表.58</title>
				<path d="M0 572.41 L58.86 572.41 L58.86 573.3 L59.75 571.52 L58.86 569.74 L58.86 570.63 L0 570.63 L0 572.41 Z"
						class="st4"/>
				<path d="M0 572.41 L58.86 572.41 L58.86 573.3 L59.75 571.52 L58.86 569.74 L58.86 570.63 L0 570.63" class="st5"/>
			</g>
			<g id="shape59-130" v:mID="59" v:groupContext="shape">
				<title>工作表.59</title>
				<path d="M0 572.41 L58.86 572.41 L58.86 573.3 L59.75 571.52 L58.86 569.74 L58.86 570.63 L0 570.63 L0 572.41"
						class="st6"/>
			</g>
			<g id="shape60-133" v:mID="60" v:groupContext="shape" transform="translate(-0.766112,-0.902723)">
				<title>工作表.60</title>
				<rect x="0" y="571.55" width="0.337249" height="1.74532" class="st7"/>
			</g>
		</g>
		<g id="shape61-135" v:mID="61" v:groupContext="shape" transform="translate(95.6927,-106.661)">
			<title>矩形.61</title>
			<desc>19 0</desc>
			<v:userDefs>
				<v:ud v:nameU="visVersion" v:val="VT0(15):26"/>
			</v:userDefs>
			<v:textBlock v:margins="rect(4,4,4,4)" v:tabSpace="42.5197"/>
			<v:textRect cx="16.624" cy="549.737" width="33.25" height="47.1178"/>
			<rect x="0" y="526.178" width="33.2481" height="47.1178" class="st1"/>
			<text x="6.66" y="544.34" class="st2" v:langID="2052"><v:paragraph v:horizAlign="1"/><v:tabList/>19<v:newlineChar/><tspan
						x="11.64" dy="1.2em" class="st3">0</tspan></text>		</g>
		<g id="shape114-139" v:mID="114" v:groupContext="shape" transform="translate(138.089,-106.661)">
			<title>矩形.114</title>
			<desc>24 0</desc>
			<v:userDefs>
				<v:ud v:nameU="visVersion" v:val="VT0(15):26"/>
			</v:userDefs>
			<v:textBlock v:margins="rect(4,4,4,4)" v:tabSpace="42.5197"/>
			<v:textRect cx="16.624" cy="549.737" width="33.25" height="47.1178"/>
			<rect x="0" y="526.178" width="33.2481" height="47.1178" class="st1"/>
			<text x="6.66" y="544.34" class="st2" v:langID="2052"><v:paragraph v:horizAlign="1"/><v:tabList/>24<v:newlineChar/><tspan
						x="11.64" dy="1.2em" class="st3">0</tspan></text>		</g>
		<g id="group115-143" transform="translate(660.501,593.672) rotate(114.095)" v:mID="115" v:groupContext="group">
			<v:userDefs>
				<v:ud v:nameU="visVersion" v:val="VT0(15):26"/>
			</v:userDefs>
			<title>一维单向箭头.115</title>
			<g id="shape116-144" v:mID="116" v:groupContext="shape">
				<title>工作表.116</title>
				<path d="M0 572.41 L63.93 572.41 L63.93 573.3 L64.82 571.52 L63.93 569.74 L63.93 570.63 L0 570.63 L0 572.41 Z"
						class="st4"/>
				<path d="M0 572.41 L63.93 572.41 L63.93 573.3 L64.82 571.52 L63.93 569.74 L63.93 570.63 L0 570.63" class="st5"/>
			</g>
			<g id="shape117-147" v:mID="117" v:groupContext="shape">
				<title>工作表.117</title>
				<path d="M0 572.41 L63.93 572.41 L63.93 573.3 L64.82 571.52 L63.93 569.74 L63.93 570.63 L0 570.63 L0 572.41"
						class="st6"/>
			</g>
			<g id="shape118-150" v:mID="118" v:groupContext="shape" transform="translate(-0.831074,-0.902723)">
				<title>工作表.118</title>
				<rect x="0" y="571.55" width="0.365845" height="1.74532" class="st7"/>
			</g>
		</g>
		<g id="group119-152" transform="translate(690.633,211.72) rotate(74.9264)" v:mID="119" v:groupContext="group">
			<v:userDefs>
				<v:ud v:nameU="visVersion" v:val="VT0(15):26"/>
			</v:userDefs>
			<title>一维单向箭头.119</title>
			<g id="shape120-153" v:mID="120" v:groupContext="shape">
				<title>工作表.120</title>
				<path d="M0 572.41 L60.39 572.41 L60.39 573.3 L61.28 571.52 L60.39 569.74 L60.39 570.63 L0 570.63 L0 572.41 Z"
						class="st4"/>
				<path d="M0 572.41 L60.39 572.41 L60.39 573.3 L61.28 571.52 L60.39 569.74 L60.39 570.63 L0 570.63" class="st5"/>
			</g>
			<g id="shape121-156" v:mID="121" v:groupContext="shape">
				<title>工作表.121</title>
				<path d="M0 572.41 L60.39 572.41 L60.39 573.3 L61.28 571.52 L60.39 569.74 L60.39 570.63 L0 570.63 L0 572.41"
						class="st6"/>
			</g>
			<g id="shape122-159" v:mID="122" v:groupContext="shape" transform="translate(-0.785696,-0.902723)">
				<title>工作表.122</title>
				<rect x="0" y="571.55" width="0.34587" height="1.74532" class="st7"/>
			</g>
		</g>
		<g id="shape123-161" v:mID="123" v:groupContext="shape" transform="translate(217.471,-212.946)">
			<title>矩形.123</title>
			<desc>10 1</desc>
			<v:userDefs>
				<v:ud v:nameU="visVersion" v:val="VT0(15):26"/>
			</v:userDefs>
			<v:textBlock v:margins="rect(4,4,4,4)" v:tabSpace="42.5197"/>
			<v:textRect cx="16.624" cy="549.737" width="33.25" height="47.1178"/>
			<rect x="0" y="526.178" width="33.2481" height="47.1178" class="st1"/>
			<text x="6.66" y="544.34" class="st2" v:langID="2052"><v:paragraph v:horizAlign="1"/><v:tabList/>10<v:newlineChar/><tspan
						x="11.64" dy="1.2em" class="st3">1</tspan></text>		</g>
		<g id="shape124-165" v:mID="124" v:groupContext="shape" transform="translate(292.427,-212.946)">
			<title>矩形.124</title>
			<desc>13 0</desc>
			<v:userDefs>
				<v:ud v:nameU="visVersion" v:val="VT0(15):26"/>
			</v:userDefs>
			<v:textBlock v:margins="rect(4,4,4,4)" v:tabSpace="42.5197"/>
			<v:textRect cx="16.624" cy="549.737" width="33.25" height="47.1178"/>
			<rect x="0" y="526.178" width="33.2481" height="47.1178" class="st1"/>
			<text x="6.66" y="544.34" class="st2" v:langID="2052"><v:paragraph v:horizAlign="1"/><v:tabList/>13<v:newlineChar/><tspan
						x="11.64" dy="1.2em" class="st3">0</tspan></text>		</g>
		<g id="group125-169" transform="translate(774.11,515.111) rotate(118.046)" v:mID="125" v:groupContext="group">
			<v:userDefs>
				<v:ud v:nameU="visVersion" v:val="VT0(15):26"/>
			</v:userDefs>
			<title>一维单向箭头.125</title>
			<g id="shape126-170" v:mID="126" v:groupContext="shape">
				<title>工作表.126</title>
				<path d="M0 572.41 L74.85 572.41 L74.85 573.3 L75.73 571.52 L74.85 569.74 L74.85 570.63 L0 570.63 L0 572.41 Z"
						class="st4"/>
				<path d="M0 572.41 L74.85 572.41 L74.85 573.3 L75.73 571.52 L74.85 569.74 L74.85 570.63 L0 570.63" class="st5"/>
			</g>
			<g id="shape127-173" v:mID="127" v:groupContext="shape">
				<title>工作表.127</title>
				<path d="M0 572.41 L74.85 572.41 L74.85 573.3 L75.73 571.52 L74.85 569.74 L74.85 570.63 L0 570.63 L0 572.41"
						class="st6"/>
			</g>
			<g id="shape128-176" v:mID="128" v:groupContext="shape" transform="translate(-0.971078,-0.902723)">
				<title>工作表.128</title>
				<rect x="0" y="571.55" width="0.427476" height="1.74532" class="st7"/>
			</g>
		</g>
		<g id="group129-178" transform="translate(762.224,-43.5395) rotate(59.516)" v:mID="129" v:groupContext="group">
			<v:userDefs>
				<v:ud v:nameU="visVersion" v:val="VT0(15):26"/>
			</v:userDefs>
			<title>一维单向箭头.129</title>
			<g id="shape130-179" v:mID="130" v:groupContext="shape">
				<title>工作表.130</title>
				<path d="M0 572.41 L76.67 572.41 L76.67 573.3 L77.56 571.52 L76.67 569.74 L76.67 570.63 L0 570.63 L0 572.41 Z"
						class="st4"/>
				<path d="M0 572.41 L76.67 572.41 L76.67 573.3 L77.56 571.52 L76.67 569.74 L76.67 570.63 L0 570.63" class="st5"/>
			</g>
			<g id="shape131-182" v:mID="131" v:groupContext="shape">
				<title>工作表.131</title>
				<path d="M0 572.41 L76.67 572.41 L76.67 573.3 L77.56 571.52 L76.67 569.74 L76.67 570.63 L0 570.63 L0 572.41"
						class="st6"/>
			</g>
			<g id="shape132-185" v:mID="132" v:groupContext="shape" transform="translate(-0.994513,-0.902723)">
				<title>工作表.132</title>
				<rect x="0" y="571.55" width="0.437793" height="1.74532" class="st7"/>
			</g>
		</g>
		<g id="shape133-187" v:mID="133" v:groupContext="shape" transform="translate(180.485,-106.661)">
			<title>矩形.133</title>
			<desc>15 0</desc>
			<v:userDefs>
				<v:ud v:nameU="visVersion" v:val="VT0(15):26"/>
			</v:userDefs>
			<v:textBlock v:margins="rect(4,4,4,4)" v:tabSpace="42.5197"/>
			<v:textRect cx="16.624" cy="549.737" width="33.25" height="47.1178"/>
			<rect x="0" y="526.178" width="33.2481" height="47.1178" class="st1"/>
			<text x="6.66" y="544.34" class="st2" v:langID="2052"><v:paragraph v:horizAlign="1"/><v:tabList/>15<v:newlineChar/><tspan
						x="11.64" dy="1.2em" class="st3">0</tspan></text>		</g>
		<g id="shape134-191" v:mID="134" v:groupContext="shape" transform="translate(230.357,-106.661)">
			<title>矩形.134</title>
			<desc>30 0</desc>
			<v:userDefs>
				<v:ud v:nameU="visVersion" v:val="VT0(15):26"/>
			</v:userDefs>
			<v:textBlock v:margins="rect(4,4,4,4)" v:tabSpace="42.5197"/>
			<v:textRect cx="16.624" cy="549.737" width="33.25" height="47.1178"/>
			<rect x="0" y="526.178" width="33.2481" height="47.1178" class="st1"/>
			<text x="6.66" y="544.34" class="st2" v:langID="2052"><v:paragraph v:horizAlign="1"/><v:tabList/>30<v:newlineChar/><tspan
						x="11.64" dy="1.2em" class="st3">0</tspan></text>		</g>
		<g id="group135-195" transform="translate(718.721,663.291) rotate(122.01)" v:mID="135" v:groupContext="group">
			<v:userDefs>
				<v:ud v:nameU="visVersion" v:val="VT0(15):26"/>
			</v:userDefs>
			<title>一维单向箭头.135</title>
			<g id="shape136-196" v:mID="136" v:groupContext="shape">
				<title>工作表.136</title>
				<path d="M0 572.41 L68.89 572.41 L68.89 573.3 L69.78 571.52 L68.89 569.74 L68.89 570.63 L0 570.63 L0 572.41 Z"
						class="st4"/>
				<path d="M0 572.41 L68.89 572.41 L68.89 573.3 L69.78 571.52 L68.89 569.74 L68.89 570.63 L0 570.63" class="st5"/>
			</g>
			<g id="shape137-199" v:mID="137" v:groupContext="shape">
				<title>工作表.137</title>
				<path d="M0 572.41 L68.89 572.41 L68.89 573.3 L69.78 571.52 L68.89 569.74 L68.89 570.63 L0 570.63 L0 572.41"
						class="st6"/>
			</g>
			<g id="shape138-202" v:mID="138" v:groupContext="shape" transform="translate(-0.894693,-0.902723)">
				<title>工作表.138</title>
				<rect x="0" y="571.55" width="0.393851" height="1.74532" class="st7"/>
			</g>
		</g>
		<g id="group139-204" transform="translate(792.525,238.729) rotate(77.7135)" v:mID="139" v:groupContext="group">
			<v:userDefs>
				<v:ud v:nameU="visVersion" v:val="VT0(15):26"/>
			</v:userDefs>
			<title>一维单向箭头.139</title>
			<g id="shape140-205" v:mID="140" v:groupContext="shape">
				<title>工作表.140</title>
				<path d="M0 572.41 L59.67 572.41 L59.67 573.3 L60.55 571.52 L59.67 569.74 L59.67 570.63 L0 570.63 L0 572.41 Z"
						class="st4"/>
				<path d="M0 572.41 L59.67 572.41 L59.67 573.3 L60.55 571.52 L59.67 569.74 L59.67 570.63 L0 570.63" class="st5"/>
			</g>
			<g id="shape141-208" v:mID="141" v:groupContext="shape">
				<title>工作表.141</title>
				<path d="M0 572.41 L59.67 572.41 L59.67 573.3 L60.55 571.52 L59.67 569.74 L59.67 570.63 L0 570.63 L0 572.41"
						class="st6"/>
			</g>
			<g id="shape142-211" v:mID="142" v:groupContext="shape" transform="translate(-0.776447,-0.902723)">
				<title>工作表.142</title>
				<rect x="0" y="571.55" width="0.341798" height="1.74532" class="st7"/>
			</g>
		</g>
		<g id="shape143-213" v:mID="143" v:groupContext="shape" transform="translate(272.753,-106.661)">
			<title>矩形.143</title>
			<desc>28 0</desc>
			<v:userDefs>
				<v:ud v:nameU="visVersion" v:val="VT0(15):26"/>
			</v:userDefs>
			<v:textBlock v:margins="rect(4,4,4,4)" v:tabSpace="42.5197"/>
			<v:textRect cx="16.624" cy="549.737" width="33.25" height="47.1178"/>
			<rect x="0" y="526.178" width="33.2481" height="47.1178" class="st1"/>
			<text x="6.66" y="544.34" class="st2" v:langID="2052"><v:paragraph v:horizAlign="1"/><v:tabList/>28<v:newlineChar/><tspan
						x="11.64" dy="1.2em" class="st3">0</tspan></text>		</g>
		<g id="group144-217" transform="translate(851.378,540.674) rotate(108.392)" v:mID="144" v:groupContext="group">
			<v:userDefs>
				<v:ud v:nameU="visVersion" v:val="VT0(15):26"/>
			</v:userDefs>
			<title>一维单向箭头.144</title>
			<g id="shape145-218" v:mID="145" v:groupContext="shape">
				<title>工作表.145</title>
				<path d="M0 572.41 L61.47 572.41 L61.47 573.3 L62.35 571.52 L61.47 569.74 L61.47 570.63 L0 570.63 L0 572.41 Z"
						class="st4"/>
				<path d="M0 572.41 L61.47 572.41 L61.47 573.3 L62.35 571.52 L61.47 569.74 L61.47 570.63 L0 570.63" class="st5"/>
			</g>
			<g id="shape146-221" v:mID="146" v:groupContext="shape">
				<title>工作表.146</title>
				<path d="M0 572.41 L61.47 572.41 L61.47 573.3 L62.35 571.52 L61.47 569.74 L61.47 570.63 L0 570.63 L0 572.41"
						class="st6"/>
			</g>
			<g id="shape147-224" v:mID="147" v:groupContext="shape" transform="translate(-0.799501,-0.902723)">
				<title>工作表.147</title>
				<rect x="0" y="571.55" width="0.351947" height="1.74532" class="st7"/>
			</g>
		</g>
		<g id="shape148-226" v:mID="148" v:groupContext="shape" transform="translate(525.458,-106.661)">
			<title>矩形.148</title>
			<desc>42 0</desc>
			<v:userDefs>
				<v:ud v:nameU="visVersion" v:val="VT0(15):26"/>
			</v:userDefs>
			<v:textBlock v:margins="rect(4,4,4,4)" v:tabSpace="42.5197"/>
			<v:textRect cx="16.624" cy="549.737" width="33.25" height="47.1178"/>
			<rect x="0" y="526.178" width="33.2481" height="47.1178" class="st1"/>
			<text x="6.66" y="544.34" class="st2" v:langID="2052"><v:paragraph v:horizAlign="1"/><v:tabList/>42<v:newlineChar/><tspan
						x="11.64" dy="1.2em" class="st3">0</tspan></text>		</g>
		<g id="shape149-230" v:mID="149" v:groupContext="shape" transform="translate(593.627,-106.661)">
			<title>矩形.149</title>
			<desc>33 0</desc>
			<v:userDefs>
				<v:ud v:nameU="visVersion" v:val="VT0(15):26"/>
			</v:userDefs>
			<v:textBlock v:margins="rect(4,4,4,4)" v:tabSpace="42.5197"/>
			<v:textRect cx="16.624" cy="549.737" width="33.25" height="47.1178"/>
			<rect x="0" y="526.178" width="33.2481" height="47.1178" class="st1"/>
			<text x="6.66" y="544.34" class="st2" v:langID="2052"><v:paragraph v:horizAlign="1"/><v:tabList/>33<v:newlineChar/><tspan
						x="11.64" dy="1.2em" class="st3">0</tspan></text>		</g>
		<g id="shape150-234" v:mID="150" v:groupContext="shape" transform="translate(498.998,-0.375)">
			<title>矩形.150</title>
			<desc>50 0</desc>
			<v:userDefs>
				<v:ud v:nameU="visVersion" v:val="VT0(15):26"/>
			</v:userDefs>
			<v:textBlock v:margins="rect(4,4,4,4)" v:tabSpace="42.5197"/>
			<v:textRect cx="16.624" cy="549.737" width="33.25" height="47.1178"/>
			<rect x="0" y="526.178" width="33.2481" height="47.1178" class="st1"/>
			<text x="6.66" y="544.34" class="st2" v:langID="2052"><v:paragraph v:horizAlign="1"/><v:tabList/>50<v:newlineChar/><tspan
						x="11.64" dy="1.2em" class="st3">0</tspan></text>		</g>
		<g id="shape151-238" v:mID="151" v:groupContext="shape" transform="translate(656.385,-106.661)">
			<title>矩形.151</title>
			<desc>27 0</desc>
			<v:userDefs>
				<v:ud v:nameU="visVersion" v:val="VT0(15):26"/>
			</v:userDefs>
			<v:textBlock v:margins="rect(4,4,4,4)" v:tabSpace="42.5197"/>
			<v:textRect cx="16.624" cy="549.737" width="33.25" height="47.1178"/>
			<rect x="0" y="526.178" width="33.2481" height="47.1178" class="st1"/>
			<text x="6.66" y="544.34" class="st2" v:langID="2052"><v:paragraph v:horizAlign="1"/><v:tabList/>27<v:newlineChar/><tspan
						x="11.64" dy="1.2em" class="st3">0</tspan></text>		</g>
		<g id="shape153-242" v:mID="153" v:groupContext="shape" transform="translate(387.745,-212.946)">
			<title>矩形.153</title>
			<desc>21 0</desc>
			<v:userDefs>
				<v:ud v:nameU="visVersion" v:val="VT0(15):26"/>
			</v:userDefs>
			<v:textBlock v:margins="rect(4,4,4,4)" v:tabSpace="42.5197"/>
			<v:textRect cx="16.624" cy="549.737" width="33.25" height="47.1178"/>
			<rect x="0" y="526.178" width="33.2481" height="47.1178" class="st1"/>
			<text x="6.66" y="544.34" class="st2" v:langID="2052"><v:paragraph v:horizAlign="1"/><v:tabList/>21<v:newlineChar/><tspan
						x="11.64" dy="1.2em" class="st3">0</tspan></text>		</g>
		<g id="shape154-246" v:mID="154" v:groupContext="shape" transform="translate(472.537,-212.946)">
			<title>矩形.154</title>
			<desc>16 0</desc>
			<v:userDefs>
				<v:ud v:nameU="visVersion" v:val="VT0(15):26"/>
			</v:userDefs>
			<v:textBlock v:margins="rect(4,4,4,4)" v:tabSpace="42.5197"/>
			<v:textRect cx="16.624" cy="549.737" width="33.25" height="47.1178"/>
			<rect x="0" y="526.178" width="33.2481" height="47.1178" class="st1"/>
			<text x="6.66" y="544.34" class="st2" v:langID="2052"><v:paragraph v:horizAlign="1"/><v:tabList/>16<v:newlineChar/><tspan
						x="11.64" dy="1.2em" class="st3">0</tspan></text>		</g>
		<g id="shape155-250" v:mID="155" v:groupContext="shape" transform="translate(563.625,-212.946)">
			<title>矩形.155</title>
			<desc>31 1</desc>
			<v:userDefs>
				<v:ud v:nameU="visVersion" v:val="VT0(15):26"/>
			</v:userDefs>
			<v:textBlock v:margins="rect(4,4,4,4)" v:tabSpace="42.5197"/>
			<v:textRect cx="16.624" cy="549.737" width="33.25" height="47.1178"/>
			<rect x="0" y="526.178" width="33.2481" height="47.1178" class="st1"/>
			<text x="6.66" y="544.34" class="st2" v:langID="2052"><v:paragraph v:horizAlign="1"/><v:tabList/>31<v:newlineChar/><tspan
						x="11.64" dy="1.2em" class="st3">1</tspan></text>		</g>
		<g id="shape156-254" v:mID="156" v:groupContext="shape" transform="translate(679.108,-212.946)">
			<title>矩形.156</title>
			<desc>26 0</desc>
			<v:userDefs>
				<v:ud v:nameU="visVersion" v:val="VT0(15):26"/>
			</v:userDefs>
			<v:textBlock v:margins="rect(4,4,4,4)" v:tabSpace="42.5197"/>
			<v:textRect cx="16.624" cy="549.737" width="33.25" height="47.1178"/>
			<rect x="0" y="526.178" width="33.2481" height="47.1178" class="st1"/>
			<text x="6.66" y="544.34" class="st2" v:langID="2052"><v:paragraph v:horizAlign="1"/><v:tabList/>26<v:newlineChar/><tspan
						x="11.64" dy="1.2em" class="st3">0</tspan></text>		</g>
		<g id="group157-258" transform="translate(922.439,567.734) rotate(124.212)" v:mID="157" v:groupContext="group">
			<v:userDefs>
				<v:ud v:nameU="visVersion" v:val="VT0(15):26"/>
			</v:userDefs>
			<title>一维单向箭头.157</title>
			<g id="shape158-259" v:mID="158" v:groupContext="shape">
				<title>工作表.158</title>
				<path d="M0 572.41 L79.94 572.41 L79.94 573.3 L80.83 571.52 L79.94 569.74 L79.94 570.63 L0 570.63 L0 572.41 Z"
						class="st4"/>
				<path d="M0 572.41 L79.94 572.41 L79.94 573.3 L80.83 571.52 L79.94 569.74 L79.94 570.63 L0 570.63" class="st5"/>
			</g>
			<g id="shape159-262" v:mID="159" v:groupContext="shape">
				<title>工作表.159</title>
				<path d="M0 572.41 L79.94 572.41 L79.94 573.3 L80.83 571.52 L79.94 569.74 L79.94 570.63 L0 570.63 L0 572.41"
						class="st6"/>
			</g>
			<g id="shape160-265" v:mID="160" v:groupContext="shape" transform="translate(-1.03638,-0.902723)">
				<title>工作表.160</title>
				<rect x="0" y="571.55" width="0.456221" height="1.74532" class="st7"/>
			</g>
		</g>
		<g id="group161-267" transform="translate(942.334,-43.5395) rotate(59.516)" v:mID="161" v:groupContext="group">
			<v:userDefs>
				<v:ud v:nameU="visVersion" v:val="VT0(15):26"/>
			</v:userDefs>
			<title>一维单向箭头.161</title>
			<g id="shape162-268" v:mID="162" v:groupContext="shape">
				<title>工作表.162</title>
				<path d="M0 572.41 L76.67 572.41 L76.67 573.3 L77.56 571.52 L76.67 569.74 L76.67 570.63 L0 570.63 L0 572.41 Z"
						class="st4"/>
				<path d="M0 572.41 L76.67 572.41 L76.67 573.3 L77.56 571.52 L76.67 569.74 L76.67 570.63 L0 570.63" class="st5"/>
			</g>
			<g id="shape163-271" v:mID="163" v:groupContext="shape">
				<title>工作表.163</title>
				<path d="M0 572.41 L76.67 572.41 L76.67 573.3 L77.56 571.52 L76.67 569.74 L76.67 570.63 L0 570.63 L0 572.41"
						class="st6"/>
			</g>
			<g id="shape164-274" v:mID="164" v:groupContext="shape" transform="translate(-0.994513,-0.902723)">
				<title>工作表.164</title>
				<rect x="0" y="571.55" width="0.437793" height="1.74532" class="st7"/>
			</g>
		</g>
		<g id="group165-276" transform="translate(1088.63,587.302) rotate(126.619)" v:mID="165" v:groupContext="group">
			<v:userDefs>
				<v:ud v:nameU="visVersion" v:val="VT0(15):26"/>
			</v:userDefs>
			<title>一维单向箭头.165</title>
			<g id="shape166-277" v:mID="166" v:groupContext="shape">
				<title>工作表.166</title>
				<path d="M0 572.41 L82.39 572.41 L82.39 573.3 L83.28 571.52 L82.39 569.74 L82.39 570.63 L0 570.63 L0 572.41 Z"
						class="st4"/>
				<path d="M0 572.41 L82.39 572.41 L82.39 573.3 L83.28 571.52 L82.39 569.74 L82.39 570.63 L0 570.63" class="st5"/>
			</g>
			<g id="shape167-280" v:mID="167" v:groupContext="shape">
				<title>工作表.167</title>
				<path d="M0 572.41 L82.39 572.41 L82.39 573.3 L83.28 571.52 L82.39 569.74 L82.39 570.63 L0 570.63 L0 572.41"
						class="st6"/>
			</g>
			<g id="shape168-283" v:mID="168" v:groupContext="shape" transform="translate(-1.06781,-0.902723)">
				<title>工作表.168</title>
				<rect x="0" y="571.55" width="0.47006" height="1.74532" class="st7"/>
			</g>
		</g>
		<g id="group169-285" transform="translate(1037.18,-154.576) rotate(45.4461)" v:mID="169" v:groupContext="group">
			<v:userDefs>
				<v:ud v:nameU="visVersion" v:val="VT0(15):26"/>
			</v:userDefs>
			<title>一维单向箭头.169</title>
			<g id="shape170-286" v:mID="170" v:groupContext="shape">
				<title>工作表.170</title>
				<path d="M0 572.41 L92.91 572.41 L92.91 573.3 L93.8 571.52 L92.91 569.74 L92.91 570.63 L0 570.63 L0 572.41 Z"
						class="st4"/>
				<path d="M0 572.41 L92.91 572.41 L92.91 573.3 L93.8 571.52 L92.91 569.74 L92.91 570.63 L0 570.63" class="st5"/>
			</g>
			<g id="shape171-289" v:mID="171" v:groupContext="shape">
				<title>工作表.171</title>
				<path d="M0 572.41 L92.91 572.41 L92.91 573.3 L93.8 571.52 L92.91 569.74 L92.91 570.63 L0 570.63 L0 572.41"
						class="st6"/>
			</g>
			<g id="shape172-292" v:mID="172" v:groupContext="shape" transform="translate(-1.20271,-0.902723)">
				<title>工作表.172</title>
				<rect x="0" y="571.55" width="0.529444" height="1.74532" class="st7"/>
			</g>
		</g>
		<g id="group173-294" transform="translate(1060.52,670.149) rotate(122.824)" v:mID="173" v:groupContext="group">
			<v:userDefs>
				<v:ud v:nameU="visVersion" v:val="VT0(15):26"/>
			</v:userDefs>
			<title>一维单向箭头.173</title>
			<g id="shape174-295" v:mID="174" v:groupContext="shape">
				<title>工作表.174</title>
				<path d="M0 572.41 L69.52 572.41 L69.52 573.3 L70.41 571.52 L69.52 569.74 L69.52 570.63 L0 570.63 L0 572.41 Z"
						class="st4"/>
				<path d="M0 572.41 L69.52 572.41 L69.52 573.3 L70.41 571.52 L69.52 569.74 L69.52 570.63 L0 570.63" class="st5"/>
			</g>
			<g id="shape175-298" v:mID="175" v:groupContext="shape">
				<title>工作表.175</title>
				<path d="M0 572.41 L69.52 572.41 L69.52 573.3 L70.41 571.52 L69.52 569.74 L69.52 570.63 L0 570.63 L0 572.41"
						class="st6"/>
			</g>
			<g id="shape176-301" v:mID="176" v:groupContext="shape" transform="translate(-0.902807,-0.902723)">
				<title>工作表.176</title>
				<rect x="0" y="571.55" width="0.397423" height="1.74532" class="st7"/>
			</g>
		</g>
		<g id="group177-303" transform="translate(1089.98,101.88) rotate(63.112)" v:mID="177" v:groupContext="group">
			<v:userDefs>
				<v:ud v:nameU="visVersion" v:val="VT0(15):26"/>
			</v:userDefs>
			<title>一维单向箭头.177</title>
			<g id="shape178-304" v:mID="178" v:groupContext="shape">
				<title>工作表.178</title>
				<path d="M0 572.41 L65.45 572.41 L65.45 573.3 L66.34 571.52 L65.45 569.74 L65.45 570.63 L0 570.63 L0 572.41 Z"
						class="st4"/>
				<path d="M0 572.41 L65.45 572.41 L65.45 573.3 L66.34 571.52 L65.45 569.74 L65.45 570.63 L0 570.63" class="st5"/>
			</g>
			<g id="shape179-307" v:mID="179" v:groupContext="shape">
				<title>工作表.179</title>
				<path d="M0 572.41 L65.45 572.41 L65.45 573.3 L66.34 571.52 L65.45 569.74 L65.45 570.63 L0 570.63 L0 572.41"
						class="st6"/>
			</g>
			<g id="shape180-310" v:mID="180" v:groupContext="shape" transform="translate(-0.850621,-0.902723)">
				<title>工作表.180</title>
				<rect x="0" y="571.55" width="0.37445" height="1.74532" class="st7"/>
			</g>
		</g>
		<g id="group181-312" transform="translate(1229.26,565.246) rotate(111.009)" v:mID="181" v:groupContext="group">
			<v:userDefs>
				<v:ud v:nameU="visVersion" v:val="VT0(15):26"/>
			</v:userDefs>
			<title>一维单向箭头.181</title>
			<g id="shape182-313" v:mID="182" v:groupContext="shape">
				<title>工作表.182</title>
				<path d="M0 572.41 L62.49 572.41 L62.49 573.3 L63.38 571.52 L62.49 569.74 L62.49 570.63 L0 570.63 L0 572.41 Z"
						class="st4"/>
				<path d="M0 572.41 L62.49 572.41 L62.49 573.3 L63.38 571.52 L62.49 569.74 L62.49 570.63 L0 570.63" class="st5"/>
			</g>
			<g id="shape183-316" v:mID="183" v:groupContext="shape">
				<title>工作表.183</title>
				<path d="M0 572.41 L62.49 572.41 L62.49 573.3 L63.38 571.52 L62.49 569.74 L62.49 570.63 L0 570.63 L0 572.41"
						class="st6"/>
			</g>
			<g id="shape184-319" v:mID="184" v:groupContext="shape" transform="translate(-0.812685,-0.902723)">
				<title>工作表.184</title>
				<rect x="0" y="571.55" width="0.357751" height="1.74532" class="st7"/>
			</g>
		</g>
		<g id="group185-321" transform="translate(1063.81,699.958) rotate(114.095)" v:mID="185" v:groupContext="group">
			<v:userDefs>
				<v:ud v:nameU="visVersion" v:val="VT0(15):26"/>
			</v:userDefs>
			<title>一维单向箭头.185</title>
			<g id="shape186-322" v:mID="186" v:groupContext="shape">
				<title>工作表.186</title>
				<path d="M0 572.41 L63.93 572.41 L63.93 573.3 L64.82 571.52 L63.93 569.74 L63.93 570.63 L0 570.63 L0 572.41 Z"
						class="st4"/>
				<path d="M0 572.41 L63.93 572.41 L63.93 573.3 L64.82 571.52 L63.93 569.74 L63.93 570.63 L0 570.63" class="st5"/>
			</g>
			<g id="shape187-325" v:mID="187" v:groupContext="shape">
				<title>工作表.187</title>
				<path d="M0 572.41 L63.93 572.41 L63.93 573.3 L64.82 571.52 L63.93 569.74 L63.93 570.63 L0 570.63 L0 572.41"
						class="st6"/>
			</g>
			<g id="shape188-328" v:mID="188" v:groupContext="shape" transform="translate(-0.831074,-0.902723)">
				<title>工作表.188</title>
				<rect x="0" y="571.55" width="0.365845" height="1.74532" class="st7"/>
			</g>
		</g>
	</g>
</svg>
