<?xml version="1.0" encoding="UTF-8" standalone="no"?>
<!DOCTYPE svg PUBLIC "-//W3C//DTD SVG 1.1//EN" "http://www.w3.org/Graphics/SVG/1.1/DTD/svg11.dtd">
<!-- 由 Microsoft Visio, SVG Export 生成 LeftistTree12.svg 页-1 -->
<svg xmlns="http://www.w3.org/2000/svg" xmlns:xlink="http://www.w3.org/1999/xlink" xmlns:ev="http://www.w3.org/2001/xml-events"
		xmlns:v="http://schemas.microsoft.com/visio/2003/SVGExtensions/" width="6.3728in" height="9.52795in"
		viewBox="0 0 458.842 686.013" xml:space="preserve" color-interpolation-filters="sRGB" class="st11">
	<v:documentProperties v:langID="2052" v:metric="true" v:viewMarkup="false"/>

	<style type="text/css">
	<![CDATA[
		.st1 {fill:#ffffff;stroke:#000000;stroke-linecap:round;stroke-linejoin:round;stroke-width:0.75}
		.st2 {fill:#000000;font-family:Cambria Math;font-size:1.5em}
		.st3 {font-size:1em}
		.st4 {fill:#c05046;stroke:#000000;stroke-linecap:round;stroke-linejoin:round;stroke-width:0.75}
		.st5 {fill:#ffffff}
		.st6 {stroke:none;stroke-linecap:round;stroke-linejoin:round;stroke-width:0.75}
		.st7 {stroke:#000000;stroke-linecap:round;stroke-linejoin:round;stroke-width:0.24}
		.st8 {fill:#ffffff;stroke:none;stroke-linecap:round;stroke-linejoin:round;stroke-width:0.24;visibility:hidden}
		.st9 {fill:#4bacc6}
		.st10 {fill:#c05046}
		.st11 {fill:none;fill-rule:evenodd;font-size:12px;overflow:visible;stroke-linecap:square;stroke-miterlimit:3}
	]]>
	</style>

	<g v:mID="0" v:index="1" v:groupContext="foregroundPage">
		<title>页-1</title>
		<v:pageProperties v:drawingScale="0.0393701" v:pageScale="0.0393701" v:drawingUnits="24" v:shadowOffsetX="8.50394"
				v:shadowOffsetY="-8.50394"/>
		<g id="shape1525-1" v:mID="1525" v:groupContext="shape" transform="translate(180.485,-638.52)">
			<title>矩形.1525</title>
			<desc>6 2</desc>
			<v:userDefs>
				<v:ud v:nameU="visVersion" v:val="VT0(15):26"/>
			</v:userDefs>
			<v:textBlock v:margins="rect(4,4,4,4)" v:tabSpace="42.5197"/>
			<v:textRect cx="16.624" cy="662.454" width="33.25" height="47.1178"/>
			<rect x="0" y="638.895" width="33.2481" height="47.1178" class="st1"/>
			<text x="11.64" y="657.05" class="st2" v:langID="2052"><v:paragraph v:horizAlign="1"/><v:tabList/>6<v:newlineChar/><tspan
						x="11.64" dy="1.2em" class="st3">2</tspan></text>		</g>
		<g id="shape1526-5" v:mID="1526" v:groupContext="shape" transform="translate(324.986,-537.989)">
			<title>矩形.1526</title>
			<desc>7 2</desc>
			<v:userDefs>
				<v:ud v:nameU="visVersion" v:val="VT0(15):26"/>
			</v:userDefs>
			<v:textBlock v:margins="rect(4,4,4,4)" v:tabSpace="42.5197"/>
			<v:textRect cx="16.624" cy="662.454" width="33.25" height="47.1178"/>
			<rect x="0" y="638.895" width="33.2481" height="47.1178" class="st4"/>
			<text x="11.64" y="657.05" class="st2" v:langID="2052"><v:paragraph v:horizAlign="1"/><v:tabList/>7<v:newlineChar/><tspan
						x="11.64" dy="1.2em" class="st3">2</tspan></text>		</g>
		<g id="shape1527-9" v:mID="1527" v:groupContext="shape" transform="translate(85.856,-537.989)">
			<title>矩形.1527</title>
			<desc>11 2</desc>
			<v:userDefs>
				<v:ud v:nameU="visVersion" v:val="VT0(15):26"/>
			</v:userDefs>
			<v:textBlock v:margins="rect(4,4,4,4)" v:tabSpace="42.5197"/>
			<v:textRect cx="16.624" cy="662.454" width="33.25" height="47.1178"/>
			<rect x="0" y="638.895" width="33.2481" height="47.1178" class="st1"/>
			<text x="6.66" y="657.05" class="st2" v:langID="2052"><v:paragraph v:horizAlign="1"/><v:tabList/>11<v:newlineChar/><tspan
						x="11.64" dy="1.2em" class="st3">2</tspan></text>		</g>
		<g id="shape1528-13" v:mID="1528" v:groupContext="shape" transform="translate(235.272,-424.03)">
			<title>矩形.1528</title>
			<desc>8 2</desc>
			<v:userDefs>
				<v:ud v:nameU="visVersion" v:val="VT0(15):26"/>
			</v:userDefs>
			<v:textBlock v:margins="rect(4,4,4,4)" v:tabSpace="42.5197"/>
			<v:textRect cx="16.624" cy="662.454" width="33.25" height="47.1178"/>
			<rect x="0" y="638.895" width="33.2481" height="47.1178" class="st4"/>
			<text x="11.64" y="657.05" class="st2" v:langID="2052"><v:paragraph v:horizAlign="1"/><v:tabList/>8<v:newlineChar/><tspan
						x="11.64" dy="1.2em" class="st3">2</tspan></text>		</g>
		<g id="group1529-17" transform="translate(533.446,643.36) rotate(150.557)" v:mID="1529" v:groupContext="group">
			<v:userDefs>
				<v:ud v:nameU="visVersion" v:val="VT0(15):26"/>
			</v:userDefs>
			<title>一维单向箭头.1529</title>
			<g id="shape1530-18" v:mID="1530" v:groupContext="shape">
				<title>工作表.1530</title>
				<path d="M0 685.12 L107.78 685.12 L107.78 686.01 L108.66 684.24 L107.78 682.46 L107.78 683.35 L0 683.35 L0 685.12
							 Z" class="st5"/>
				<path d="M0 685.12 L107.78 685.12 L107.78 686.01 L108.66 684.24 L107.78 682.46 L107.78 683.35 L0 683.35"
						class="st6"/>
			</g>
			<g id="shape1531-21" v:mID="1531" v:groupContext="shape">
				<title>工作表.1531</title>
				<path d="M0 685.12 L107.78 685.12 L107.78 686.01 L108.66 684.24 L107.78 682.46 L107.78 683.35 L0 683.35 L0 685.12"
						class="st7"/>
			</g>
			<g id="shape1532-24" v:mID="1532" v:groupContext="shape" transform="translate(-1.3933,-0.902723)">
				<title>工作表.1532</title>
				<rect x="0" y="684.267" width="0.613342" height="1.74532" class="st8"/>
			</g>
		</g>
		<g id="group1533-26" transform="translate(434.342,-594.302) rotate(20.2863)" v:mID="1533" v:groupContext="group">
			<v:userDefs>
				<v:ud v:nameU="visVersion" v:val="VT0(15):26"/>
			</v:userDefs>
			<title>一维单向箭头.1533</title>
			<g id="shape1534-27" v:mID="1534" v:groupContext="shape">
				<title>工作表.1534</title>
				<path d="M0 685.12 L153.17 685.12 L153.17 686.01 L154.06 684.24 L153.17 682.46 L153.17 683.35 L0 683.35 L0 685.12
							 Z" class="st9"/>
				<path d="M0 685.12 L153.17 685.12 L153.17 686.01 L154.06 684.24 L153.17 682.46 L153.17 683.35 L0 683.35"
						class="st6"/>
			</g>
			<g id="shape1535-30" v:mID="1535" v:groupContext="shape">
				<title>工作表.1535</title>
				<path d="M0 685.12 L153.17 685.12 L153.17 686.01 L154.06 684.24 L153.17 682.46 L153.17 683.35 L0 683.35 L0 685.12"
						class="st7"/>
			</g>
			<g id="shape1536-33" v:mID="1536" v:groupContext="shape" transform="translate(-1.97535,-0.902723)">
				<title>工作表.1536</title>
				<rect x="0" y="684.267" width="0.869567" height="1.74532" class="st8"/>
			</g>
		</g>
		<g id="shape1537-35" v:mID="1537" v:groupContext="shape" transform="translate(392.659,-424.03)">
			<title>矩形.1537</title>
			<desc>9 1</desc>
			<v:userDefs>
				<v:ud v:nameU="visVersion" v:val="VT0(15):26"/>
			</v:userDefs>
			<v:textBlock v:margins="rect(4,4,4,4)" v:tabSpace="42.5197"/>
			<v:textRect cx="16.624" cy="662.454" width="33.25" height="47.1178"/>
			<rect x="0" y="638.895" width="33.2481" height="47.1178" class="st4"/>
			<text x="11.64" y="657.05" class="st2" v:langID="2052"><v:paragraph v:horizAlign="1"/><v:tabList/>9<v:newlineChar/><tspan
						x="11.64" dy="1.2em" class="st3">1</tspan></text>		</g>
		<g id="group1538-39" transform="translate(822.435,-338.79) rotate(44.6454)" v:mID="1538" v:groupContext="group">
			<v:userDefs>
				<v:ud v:nameU="visVersion" v:val="VT0(15):26"/>
			</v:userDefs>
			<title>一维单向箭头.1538</title>
			<g id="shape1539-40" v:mID="1539" v:groupContext="shape">
				<title>工作表.1539</title>
				<path d="M0 685.12 L94.23 685.12 L94.23 686.01 L95.12 684.24 L94.23 682.46 L94.23 683.35 L0 683.35 L0 685.12 Z"
						class="st10"/>
				<path d="M0 685.12 L94.23 685.12 L94.23 686.01 L95.12 684.24 L94.23 682.46 L94.23 683.35 L0 683.35" class="st6"/>
			</g>
			<g id="shape1540-43" v:mID="1540" v:groupContext="shape">
				<title>工作表.1540</title>
				<path d="M0 685.12 L94.23 685.12 L94.23 686.01 L95.12 684.24 L94.23 682.46 L94.23 683.35 L0 683.35 L0 685.12"
						class="st7"/>
			</g>
			<g id="shape1541-46" v:mID="1541" v:groupContext="shape" transform="translate(-1.21961,-0.902723)">
				<title>工作表.1541</title>
				<rect x="0" y="684.267" width="0.536884" height="1.74532" class="st8"/>
			</g>
		</g>
		<g id="shape1542-48" v:mID="1542" v:groupContext="shape" transform="translate(192.187,-317.745)">
			<title>矩形.1542</title>
			<desc>12 2</desc>
			<v:userDefs>
				<v:ud v:nameU="visVersion" v:val="VT0(15):26"/>
			</v:userDefs>
			<v:textBlock v:margins="rect(4,4,4,4)" v:tabSpace="42.5197"/>
			<v:textRect cx="16.624" cy="662.454" width="33.25" height="47.1178"/>
			<rect x="0" y="638.895" width="33.2481" height="47.1178" class="st4"/>
			<text x="6.66" y="657.05" class="st2" v:langID="2052"><v:paragraph v:horizAlign="1"/><v:tabList/>12<v:newlineChar/><tspan
						x="11.64" dy="1.2em" class="st3">2</tspan></text>		</g>
		<g id="group1543-52" transform="translate(750.408,696.718) rotate(143.313)" v:mID="1543" v:groupContext="group">
			<v:userDefs>
				<v:ud v:nameU="visVersion" v:val="VT0(15):26"/>
			</v:userDefs>
			<title>一维单向箭头.1543</title>
			<g id="shape1544-53" v:mID="1544" v:groupContext="shape">
				<title>工作表.1544</title>
				<path d="M0 685.12 L110.99 685.12 L110.99 686.01 L111.88 684.24 L110.99 682.46 L110.99 683.35 L0 683.35 L0 685.12
							 Z" class="st10"/>
				<path d="M0 685.12 L110.99 685.12 L110.99 686.01 L111.88 684.24 L110.99 682.46 L110.99 683.35 L0 683.35"
						class="st6"/>
			</g>
			<g id="shape1545-56" v:mID="1545" v:groupContext="shape">
				<title>工作表.1545</title>
				<path d="M0 685.12 L110.99 685.12 L110.99 686.01 L111.88 684.24 L110.99 682.46 L110.99 683.35 L0 683.35 L0 685.12"
						class="st7"/>
			</g>
			<g id="shape1546-59" v:mID="1546" v:groupContext="shape" transform="translate(-1.4345,-0.902723)">
				<title>工作表.1546</title>
				<rect x="0" y="684.267" width="0.631479" height="1.74532" class="st8"/>
			</g>
		</g>
		<g id="shape1547-61" v:mID="1547" v:groupContext="shape" transform="translate(39.7218,-424.03)">
			<title>矩形.1547</title>
			<desc>17 1</desc>
			<v:userDefs>
				<v:ud v:nameU="visVersion" v:val="VT0(15):26"/>
			</v:userDefs>
			<v:textBlock v:margins="rect(4,4,4,4)" v:tabSpace="42.5197"/>
			<v:textRect cx="16.624" cy="662.454" width="33.25" height="47.1178"/>
			<rect x="0" y="638.895" width="33.2481" height="47.1178" class="st1"/>
			<text x="6.66" y="657.05" class="st2" v:langID="2052"><v:paragraph v:horizAlign="1"/><v:tabList/>17<v:newlineChar/><tspan
						x="11.64" dy="1.2em" class="st3">1</tspan></text>		</g>
		<g id="shape1548-65" v:mID="1548" v:groupContext="shape" transform="translate(122.153,-424.03)">
			<title>矩形.1548</title>
			<desc>14 1</desc>
			<v:userDefs>
				<v:ud v:nameU="visVersion" v:val="VT0(15):26"/>
			</v:userDefs>
			<v:textBlock v:margins="rect(4,4,4,4)" v:tabSpace="42.5197"/>
			<v:textRect cx="16.624" cy="662.454" width="33.25" height="47.1178"/>
			<rect x="0" y="638.895" width="33.2481" height="47.1178" class="st1"/>
			<text x="6.66" y="657.05" class="st2" v:langID="2052"><v:paragraph v:horizAlign="1"/><v:tabList/>14<v:newlineChar/><tspan
						x="11.64" dy="1.2em" class="st3">1</tspan></text>		</g>
		<g id="group1549-69" transform="translate(665.606,536.701) rotate(124.614)" v:mID="1549" v:groupContext="group">
			<v:userDefs>
				<v:ud v:nameU="visVersion" v:val="VT0(15):26"/>
			</v:userDefs>
			<title>一维单向箭头.1549</title>
			<g id="shape1550-70" v:mID="1550" v:groupContext="shape">
				<title>工作表.1550</title>
				<path d="M0 685.12 L80.33 685.12 L80.33 686.01 L81.22 684.24 L80.33 682.46 L80.33 683.35 L0 683.35 L0 685.12 Z"
						class="st5"/>
				<path d="M0 685.12 L80.33 685.12 L80.33 686.01 L81.22 684.24 L80.33 682.46 L80.33 683.35 L0 683.35" class="st6"/>
			</g>
			<g id="shape1551-73" v:mID="1551" v:groupContext="shape">
				<title>工作表.1551</title>
				<path d="M0 685.12 L80.33 685.12 L80.33 686.01 L81.22 684.24 L80.33 682.46 L80.33 683.35 L0 683.35 L0 685.12"
						class="st7"/>
			</g>
			<g id="shape1552-76" v:mID="1552" v:groupContext="shape" transform="translate(-1.04137,-0.902723)">
				<title>工作表.1552</title>
				<rect x="0" y="684.267" width="0.458418" height="1.74532" class="st8"/>
			</g>
		</g>
		<g id="group1553-78" transform="translate(703.777,-178.508) rotate(61.496)" v:mID="1553" v:groupContext="group">
			<v:userDefs>
				<v:ud v:nameU="visVersion" v:val="VT0(15):26"/>
			</v:userDefs>
			<title>一维单向箭头.1553</title>
			<g id="shape1554-79" v:mID="1554" v:groupContext="shape">
				<title>工作表.1554</title>
				<path d="M0 685.12 L75.17 685.12 L75.17 686.01 L76.06 684.24 L75.17 682.46 L75.17 683.35 L0 683.35 L0 685.12 Z"
						class="st5"/>
				<path d="M0 685.12 L75.17 685.12 L75.17 686.01 L76.06 684.24 L75.17 682.46 L75.17 683.35 L0 683.35" class="st6"/>
			</g>
			<g id="shape1555-82" v:mID="1555" v:groupContext="shape">
				<title>工作表.1555</title>
				<path d="M0 685.12 L75.17 685.12 L75.17 686.01 L76.06 684.24 L75.17 682.46 L75.17 683.35 L0 683.35 L0 685.12"
						class="st7"/>
			</g>
			<g id="shape1556-85" v:mID="1556" v:groupContext="shape" transform="translate(-0.97526,-0.902723)">
				<title>工作表.1556</title>
				<rect x="0" y="684.267" width="0.429317" height="1.74532" class="st8"/>
			</g>
		</g>
		<g id="shape1557-87" v:mID="1557" v:groupContext="shape" transform="translate(0.375,-317.745)">
			<title>矩形.1557</title>
			<desc>18 0</desc>
			<v:userDefs>
				<v:ud v:nameU="visVersion" v:val="VT0(15):26"/>
			</v:userDefs>
			<v:textBlock v:margins="rect(4,4,4,4)" v:tabSpace="42.5197"/>
			<v:textRect cx="16.624" cy="662.454" width="33.25" height="47.1178"/>
			<rect x="0" y="638.895" width="33.2481" height="47.1178" class="st1"/>
			<text x="6.66" y="657.05" class="st2" v:langID="2052"><v:paragraph v:horizAlign="1"/><v:tabList/>18<v:newlineChar/><tspan
						x="11.64" dy="1.2em" class="st3">0</tspan></text>		</g>
		<g id="shape1558-91" v:mID="1558" v:groupContext="shape" transform="translate(48.0338,-317.745)">
			<title>矩形.1558</title>
			<desc>20 0</desc>
			<v:userDefs>
				<v:ud v:nameU="visVersion" v:val="VT0(15):26"/>
			</v:userDefs>
			<v:textBlock v:margins="rect(4,4,4,4)" v:tabSpace="42.5197"/>
			<v:textRect cx="16.624" cy="662.454" width="33.25" height="47.1178"/>
			<rect x="0" y="638.895" width="33.2481" height="47.1178" class="st1"/>
			<text x="6.66" y="657.05" class="st2" v:langID="2052"><v:paragraph v:horizAlign="1"/><v:tabList/>20<v:newlineChar/><tspan
						x="11.64" dy="1.2em" class="st3">0</tspan></text>		</g>
		<g id="group1559-95" transform="translate(626.102,640.873) rotate(123.624)" v:mID="1559" v:groupContext="group">
			<v:userDefs>
				<v:ud v:nameU="visVersion" v:val="VT0(15):26"/>
			</v:userDefs>
			<title>一维单向箭头.1559</title>
			<g id="shape1560-96" v:mID="1560" v:groupContext="shape">
				<title>工作表.1560</title>
				<path d="M0 685.12 L70.17 685.12 L70.17 686.01 L71.06 684.24 L70.17 682.46 L70.17 683.35 L0 683.35 L0 685.12 Z"
						class="st5"/>
				<path d="M0 685.12 L70.17 685.12 L70.17 686.01 L71.06 684.24 L70.17 682.46 L70.17 683.35 L0 683.35" class="st6"/>
			</g>
			<g id="shape1561-99" v:mID="1561" v:groupContext="shape">
				<title>工作表.1561</title>
				<path d="M0 685.12 L70.17 685.12 L70.17 686.01 L71.06 684.24 L70.17 682.46 L70.17 683.35 L0 683.35 L0 685.12"
						class="st7"/>
			</g>
			<g id="shape1562-102" v:mID="1562" v:groupContext="shape" transform="translate(-0.9111,-0.902723)">
				<title>工作表.1562</title>
				<rect x="0" y="684.267" width="0.401073" height="1.74532" class="st8"/>
			</g>
		</g>
		<g id="group1563-104" transform="translate(733.93,166.794) rotate(82.0033)" v:mID="1563" v:groupContext="group">
			<v:userDefs>
				<v:ud v:nameU="visVersion" v:val="VT0(15):26"/>
			</v:userDefs>
			<title>一维单向箭头.1563</title>
			<g id="shape1564-105" v:mID="1564" v:groupContext="shape">
				<title>工作表.1564</title>
				<path d="M0 685.12 L58.86 685.12 L58.86 686.01 L59.75 684.24 L58.86 682.46 L58.86 683.35 L0 683.35 L0 685.12 Z"
						class="st5"/>
				<path d="M0 685.12 L58.86 685.12 L58.86 686.01 L59.75 684.24 L58.86 682.46 L58.86 683.35 L0 683.35" class="st6"/>
			</g>
			<g id="shape1565-108" v:mID="1565" v:groupContext="shape">
				<title>工作表.1565</title>
				<path d="M0 685.12 L58.86 685.12 L58.86 686.01 L59.75 684.24 L58.86 682.46 L58.86 683.35 L0 683.35 L0 685.12"
						class="st7"/>
			</g>
			<g id="shape1566-111" v:mID="1566" v:groupContext="shape" transform="translate(-0.766112,-0.902723)">
				<title>工作表.1566</title>
				<rect x="0" y="684.267" width="0.337249" height="1.74532" class="st8"/>
			</g>
		</g>
		<g id="shape1567-113" v:mID="1567" v:groupContext="shape" transform="translate(95.6927,-317.745)">
			<title>矩形.1567</title>
			<desc>19 0</desc>
			<v:userDefs>
				<v:ud v:nameU="visVersion" v:val="VT0(15):26"/>
			</v:userDefs>
			<v:textBlock v:margins="rect(4,4,4,4)" v:tabSpace="42.5197"/>
			<v:textRect cx="16.624" cy="662.454" width="33.25" height="47.1178"/>
			<rect x="0" y="638.895" width="33.2481" height="47.1178" class="st1"/>
			<text x="6.66" y="657.05" class="st2" v:langID="2052"><v:paragraph v:horizAlign="1"/><v:tabList/>19<v:newlineChar/><tspan
						x="11.64" dy="1.2em" class="st3">0</tspan></text>		</g>
		<g id="shape1568-117" v:mID="1568" v:groupContext="shape" transform="translate(138.089,-317.745)">
			<title>矩形.1568</title>
			<desc>24 0</desc>
			<v:userDefs>
				<v:ud v:nameU="visVersion" v:val="VT0(15):26"/>
			</v:userDefs>
			<v:textBlock v:margins="rect(4,4,4,4)" v:tabSpace="42.5197"/>
			<v:textRect cx="16.624" cy="662.454" width="33.25" height="47.1178"/>
			<rect x="0" y="638.895" width="33.2481" height="47.1178" class="st1"/>
			<text x="6.66" y="657.05" class="st2" v:langID="2052"><v:paragraph v:horizAlign="1"/><v:tabList/>24<v:newlineChar/><tspan
						x="11.64" dy="1.2em" class="st3">0</tspan></text>		</g>
		<g id="group1569-121" transform="translate(763.397,541.322) rotate(114.095)" v:mID="1569" v:groupContext="group">
			<v:userDefs>
				<v:ud v:nameU="visVersion" v:val="VT0(15):26"/>
			</v:userDefs>
			<title>一维单向箭头.1569</title>
			<g id="shape1570-122" v:mID="1570" v:groupContext="shape">
				<title>工作表.1570</title>
				<path d="M0 685.12 L63.93 685.12 L63.93 686.01 L64.82 684.24 L63.93 682.46 L63.93 683.35 L0 683.35 L0 685.12 Z"
						class="st5"/>
				<path d="M0 685.12 L63.93 685.12 L63.93 686.01 L64.82 684.24 L63.93 682.46 L63.93 683.35 L0 683.35" class="st6"/>
			</g>
			<g id="shape1571-125" v:mID="1571" v:groupContext="shape">
				<title>工作表.1571</title>
				<path d="M0 685.12 L63.93 685.12 L63.93 686.01 L64.82 684.24 L63.93 682.46 L63.93 683.35 L0 683.35 L0 685.12"
						class="st7"/>
			</g>
			<g id="shape1572-128" v:mID="1572" v:groupContext="shape" transform="translate(-0.831074,-0.902723)">
				<title>工作表.1572</title>
				<rect x="0" y="684.267" width="0.365845" height="1.74532" class="st8"/>
			</g>
		</g>
		<g id="group1573-130" transform="translate(799.472,84.0396) rotate(74.9264)" v:mID="1573" v:groupContext="group">
			<v:userDefs>
				<v:ud v:nameU="visVersion" v:val="VT0(15):26"/>
			</v:userDefs>
			<title>一维单向箭头.1573</title>
			<g id="shape1574-131" v:mID="1574" v:groupContext="shape">
				<title>工作表.1574</title>
				<path d="M0 685.12 L60.39 685.12 L60.39 686.01 L61.28 684.24 L60.39 682.46 L60.39 683.35 L0 683.35 L0 685.12 Z"
						class="st5"/>
				<path d="M0 685.12 L60.39 685.12 L60.39 686.01 L61.28 684.24 L60.39 682.46 L60.39 683.35 L0 683.35" class="st6"/>
			</g>
			<g id="shape1575-134" v:mID="1575" v:groupContext="shape">
				<title>工作表.1575</title>
				<path d="M0 685.12 L60.39 685.12 L60.39 686.01 L61.28 684.24 L60.39 682.46 L60.39 683.35 L0 683.35 L0 685.12"
						class="st7"/>
			</g>
			<g id="shape1576-137" v:mID="1576" v:groupContext="shape" transform="translate(-0.785696,-0.902723)">
				<title>工作表.1576</title>
				<rect x="0" y="684.267" width="0.34587" height="1.74532" class="st8"/>
			</g>
		</g>
		<g id="shape1577-139" v:mID="1577" v:groupContext="shape" transform="translate(300.391,-317.745)">
			<title>矩形.1577</title>
			<desc>10 1</desc>
			<v:userDefs>
				<v:ud v:nameU="visVersion" v:val="VT0(15):26"/>
			</v:userDefs>
			<v:textBlock v:margins="rect(4,4,4,4)" v:tabSpace="42.5197"/>
			<v:textRect cx="16.624" cy="662.454" width="33.25" height="47.1178"/>
			<rect x="0" y="638.895" width="33.2481" height="47.1178" class="st4"/>
			<text x="6.66" y="657.05" class="st2" v:langID="2052"><v:paragraph v:horizAlign="1"/><v:tabList/>10<v:newlineChar/><tspan
						x="11.64" dy="1.2em" class="st3">1</tspan></text>		</g>
		<g id="shape1578-143" v:mID="1578" v:groupContext="shape" transform="translate(224.817,-205.564)">
			<title>矩形.1578</title>
			<desc>13 1</desc>
			<v:userDefs>
				<v:ud v:nameU="visVersion" v:val="VT0(15):26"/>
			</v:userDefs>
			<v:textBlock v:margins="rect(4,4,4,4)" v:tabSpace="42.5197"/>
			<v:textRect cx="16.624" cy="662.454" width="33.25" height="47.1178"/>
			<rect x="0" y="638.895" width="33.2481" height="47.1178" class="st4"/>
			<text x="6.66" y="657.05" class="st2" v:langID="2052"><v:paragraph v:horizAlign="1"/><v:tabList/>13<v:newlineChar/><tspan
						x="11.64" dy="1.2em" class="st3">1</tspan></text>		</g>
		<g id="group1579-147" transform="translate(712.031,-244.433) rotate(42.2586)" v:mID="1579" v:groupContext="group">
			<v:userDefs>
				<v:ud v:nameU="visVersion" v:val="VT0(15):26"/>
			</v:userDefs>
			<title>一维单向箭头.1579</title>
			<g id="shape1580-148" v:mID="1580" v:groupContext="shape">
				<title>工作表.1580</title>
				<path d="M0 685.12 L87.1 685.12 L87.1 686.01 L87.98 684.24 L87.1 682.46 L87.1 683.35 L0 683.35 L0 685.12 Z"
						class="st10"/>
				<path d="M0 685.12 L87.1 685.12 L87.1 686.01 L87.98 684.24 L87.1 682.46 L87.1 683.35 L0 683.35" class="st6"/>
			</g>
			<g id="shape1581-151" v:mID="1581" v:groupContext="shape">
				<title>工作表.1581</title>
				<path d="M0 685.12 L87.1 685.12 L87.1 686.01 L87.98 684.24 L87.1 682.46 L87.1 683.35 L0 683.35 L0 685.12"
						class="st7"/>
			</g>
			<g id="shape1582-154" v:mID="1582" v:groupContext="shape" transform="translate(-1.12816,-0.902723)">
				<title>工作表.1582</title>
				<rect x="0" y="684.267" width="0.496625" height="1.74532" class="st8"/>
			</g>
		</g>
		<g id="group1583-156" transform="translate(805.025,664.759) rotate(126.061)" v:mID="1583" v:groupContext="group">
			<v:userDefs>
				<v:ud v:nameU="visVersion" v:val="VT0(15):26"/>
			</v:userDefs>
			<title>一维单向箭头.1583</title>
			<g id="shape1584-157" v:mID="1584" v:groupContext="shape">
				<title>工作表.1584</title>
				<path d="M0 685.12 L72.3 685.12 L72.3 686.01 L73.19 684.24 L72.3 682.46 L72.3 683.35 L0 683.35 L0 685.12 Z"
						class="st10"/>
				<path d="M0 685.12 L72.3 685.12 L72.3 686.01 L73.19 684.24 L72.3 682.46 L72.3 683.35 L0 683.35" class="st6"/>
			</g>
			<g id="shape1585-160" v:mID="1585" v:groupContext="shape">
				<title>工作表.1585</title>
				<path d="M0 685.12 L72.3 685.12 L72.3 686.01 L73.19 684.24 L72.3 682.46 L72.3 683.35 L0 683.35 L0 685.12"
						class="st7"/>
			</g>
			<g id="shape1586-163" v:mID="1586" v:groupContext="shape" transform="translate(-0.938489,-0.902723)">
				<title>工作表.1586</title>
				<rect x="0" y="684.267" width="0.41313" height="1.74532" class="st8"/>
			</g>
		</g>
		<g id="shape1587-165" v:mID="1587" v:groupContext="shape" transform="translate(280.718,-205.564)">
			<title>矩形.1587</title>
			<desc>15 0</desc>
			<v:userDefs>
				<v:ud v:nameU="visVersion" v:val="VT0(15):26"/>
			</v:userDefs>
			<v:textBlock v:margins="rect(4,4,4,4)" v:tabSpace="42.5197"/>
			<v:textRect cx="16.624" cy="662.454" width="33.25" height="47.1178"/>
			<rect x="0" y="638.895" width="33.2481" height="47.1178" class="st1"/>
			<text x="6.66" y="657.05" class="st2" v:langID="2052"><v:paragraph v:horizAlign="1"/><v:tabList/>15<v:newlineChar/><tspan
						x="11.64" dy="1.2em" class="st3">0</tspan></text>		</g>
		<g id="shape1588-169" v:mID="1588" v:groupContext="shape" transform="translate(336.618,-205.564)">
			<title>矩形.1588</title>
			<desc>30 0</desc>
			<v:userDefs>
				<v:ud v:nameU="visVersion" v:val="VT0(15):26"/>
			</v:userDefs>
			<v:textBlock v:margins="rect(4,4,4,4)" v:tabSpace="42.5197"/>
			<v:textRect cx="16.624" cy="662.454" width="33.25" height="47.1178"/>
			<rect x="0" y="638.895" width="33.2481" height="47.1178" class="st1"/>
			<text x="6.66" y="657.05" class="st2" v:langID="2052"><v:paragraph v:horizAlign="1"/><v:tabList/>30<v:newlineChar/><tspan
						x="11.64" dy="1.2em" class="st3">0</tspan></text>		</g>
		<g id="group1589-173" transform="translate(971.966,566.308) rotate(106.824)" v:mID="1589" v:groupContext="group">
			<v:userDefs>
				<v:ud v:nameU="visVersion" v:val="VT0(15):26"/>
			</v:userDefs>
			<title>一维单向箭头.1589</title>
			<g id="shape1590-174" v:mID="1590" v:groupContext="shape">
				<title>工作表.1590</title>
				<path d="M0 685.12 L67.08 685.12 L67.08 686.01 L67.97 684.24 L67.08 682.46 L67.08 683.35 L0 683.35 L0 685.12 Z"
						class="st5"/>
				<path d="M0 685.12 L67.08 685.12 L67.08 686.01 L67.97 684.24 L67.08 682.46 L67.08 683.35 L0 683.35" class="st6"/>
			</g>
			<g id="shape1591-177" v:mID="1591" v:groupContext="shape">
				<title>工作表.1591</title>
				<path d="M0 685.12 L67.08 685.12 L67.08 686.01 L67.97 684.24 L67.08 682.46 L67.08 683.35 L0 683.35 L0 685.12"
						class="st7"/>
			</g>
			<g id="shape1592-180" v:mID="1592" v:groupContext="shape" transform="translate(-0.871561,-0.902723)">
				<title>工作表.1592</title>
				<rect x="0" y="684.267" width="0.383668" height="1.74532" class="st8"/>
			</g>
		</g>
		<g id="group1593-182" transform="translate(914.83,35.4052) rotate(60.891)" v:mID="1593" v:groupContext="group">
			<v:userDefs>
				<v:ud v:nameU="visVersion" v:val="VT0(15):26"/>
			</v:userDefs>
			<title>一维单向箭头.1593</title>
			<g id="shape1594-183" v:mID="1594" v:groupContext="shape">
				<title>工作表.1594</title>
				<path d="M0 685.12 L73.58 685.12 L73.58 686.01 L74.47 684.24 L73.58 682.46 L73.58 683.35 L0 683.35 L0 685.12 Z"
						class="st5"/>
				<path d="M0 685.12 L73.58 685.12 L73.58 686.01 L74.47 684.24 L73.58 682.46 L73.58 683.35 L0 683.35" class="st6"/>
			</g>
			<g id="shape1595-186" v:mID="1595" v:groupContext="shape">
				<title>工作表.1595</title>
				<path d="M0 685.12 L73.58 685.12 L73.58 686.01 L74.47 684.24 L73.58 682.46 L73.58 683.35 L0 683.35 L0 685.12"
						class="st7"/>
			</g>
			<g id="shape1596-189" v:mID="1596" v:groupContext="shape" transform="translate(-0.954859,-0.902723)">
				<title>工作表.1596</title>
				<rect x="0" y="684.267" width="0.420337" height="1.74532" class="st8"/>
			</g>
		</g>
		<g id="shape1597-191" v:mID="1597" v:groupContext="shape" transform="translate(208.811,-102.969)">
			<title>矩形.1597</title>
			<desc>28 0</desc>
			<v:userDefs>
				<v:ud v:nameU="visVersion" v:val="VT0(15):26"/>
			</v:userDefs>
			<v:textBlock v:margins="rect(4,4,4,4)" v:tabSpace="42.5197"/>
			<v:textRect cx="16.624" cy="662.454" width="33.25" height="47.1178"/>
			<rect x="0" y="638.895" width="33.2481" height="47.1178" class="st1"/>
			<text x="6.66" y="657.05" class="st2" v:langID="2052"><v:paragraph v:horizAlign="1"/><v:tabList/>28<v:newlineChar/><tspan
						x="11.64" dy="1.2em" class="st3">0</tspan></text>		</g>
		<g id="group1598-195" transform="translate(898.863,670.124) rotate(106.094)" v:mID="1598" v:groupContext="group">
			<v:userDefs>
				<v:ud v:nameU="visVersion" v:val="VT0(15):26"/>
			</v:userDefs>
			<title>一维单向箭头.1598</title>
			<g id="shape1599-196" v:mID="1599" v:groupContext="shape">
				<title>工作表.1599</title>
				<path d="M0 685.12 L56.85 685.12 L56.85 686.01 L57.74 684.24 L56.85 682.46 L56.85 683.35 L0 683.35 L0 685.12 Z"
						class="st5"/>
				<path d="M0 685.12 L56.85 685.12 L56.85 686.01 L57.74 684.24 L56.85 682.46 L56.85 683.35 L0 683.35" class="st6"/>
			</g>
			<g id="shape1600-199" v:mID="1600" v:groupContext="shape">
				<title>工作表.1600</title>
				<path d="M0 685.12 L56.85 685.12 L56.85 686.01 L57.74 684.24 L56.85 682.46 L56.85 683.35 L0 683.35 L0 685.12"
						class="st7"/>
			</g>
			<g id="shape1601-202" v:mID="1601" v:groupContext="shape" transform="translate(-0.740345,-0.902723)">
				<title>工作表.1601</title>
				<rect x="0" y="684.267" width="0.325906" height="1.74532" class="st8"/>
			</g>
		</g>
		<g id="shape1602-204" v:mID="1602" v:groupContext="shape" transform="translate(115.461,-102.969)">
			<title>矩形.1602</title>
			<desc>42 0</desc>
			<v:userDefs>
				<v:ud v:nameU="visVersion" v:val="VT0(15):26"/>
			</v:userDefs>
			<v:textBlock v:margins="rect(4,4,4,4)" v:tabSpace="42.5197"/>
			<v:textRect cx="16.624" cy="662.454" width="33.25" height="47.1178"/>
			<rect x="0" y="638.895" width="33.2481" height="47.1178" class="st1"/>
			<text x="6.66" y="657.05" class="st2" v:langID="2052"><v:paragraph v:horizAlign="1"/><v:tabList/>42<v:newlineChar/><tspan
						x="11.64" dy="1.2em" class="st3">0</tspan></text>		</g>
		<g id="shape1603-208" v:mID="1603" v:groupContext="shape" transform="translate(166.612,-102.969)">
			<title>矩形.1603</title>
			<desc>33 0</desc>
			<v:userDefs>
				<v:ud v:nameU="visVersion" v:val="VT0(15):26"/>
			</v:userDefs>
			<v:textBlock v:margins="rect(4,4,4,4)" v:tabSpace="42.5197"/>
			<v:textRect cx="16.624" cy="662.454" width="33.25" height="47.1178"/>
			<rect x="0" y="638.895" width="33.2481" height="47.1178" class="st1"/>
			<text x="6.66" y="657.05" class="st2" v:langID="2052"><v:paragraph v:horizAlign="1"/><v:tabList/>33<v:newlineChar/><tspan
						x="11.64" dy="1.2em" class="st3">0</tspan></text>		</g>
		<g id="shape1604-212" v:mID="1604" v:groupContext="shape" transform="translate(87.7214,-0.375)">
			<title>矩形.1604</title>
			<desc>50 0</desc>
			<v:userDefs>
				<v:ud v:nameU="visVersion" v:val="VT0(15):26"/>
			</v:userDefs>
			<v:textBlock v:margins="rect(4,4,4,4)" v:tabSpace="42.5197"/>
			<v:textRect cx="16.624" cy="662.454" width="33.25" height="47.1178"/>
			<rect x="0" y="638.895" width="33.2481" height="47.1178" class="st1"/>
			<text x="6.66" y="657.05" class="st2" v:langID="2052"><v:paragraph v:horizAlign="1"/><v:tabList/>50<v:newlineChar/><tspan
						x="11.64" dy="1.2em" class="st3">0</tspan></text>		</g>
		<g id="shape1605-216" v:mID="1605" v:groupContext="shape" transform="translate(238.321,-0.375)">
			<title>矩形.1605</title>
			<desc>27 0</desc>
			<v:userDefs>
				<v:ud v:nameU="visVersion" v:val="VT0(15):26"/>
			</v:userDefs>
			<v:textBlock v:margins="rect(4,4,4,4)" v:tabSpace="42.5197"/>
			<v:textRect cx="16.624" cy="662.454" width="33.25" height="47.1178"/>
			<rect x="0" y="638.895" width="33.2481" height="47.1178" class="st1"/>
			<text x="6.66" y="657.05" class="st2" v:langID="2052"><v:paragraph v:horizAlign="1"/><v:tabList/>27<v:newlineChar/><tspan
						x="11.64" dy="1.2em" class="st3">0</tspan></text>		</g>
		<g id="shape1606-220" v:mID="1606" v:groupContext="shape" transform="translate(362.461,-317.745)">
			<title>矩形.1606</title>
			<desc>21 0</desc>
			<v:userDefs>
				<v:ud v:nameU="visVersion" v:val="VT0(15):26"/>
			</v:userDefs>
			<v:textBlock v:margins="rect(4,4,4,4)" v:tabSpace="42.5197"/>
			<v:textRect cx="16.624" cy="662.454" width="33.25" height="47.1178"/>
			<rect x="0" y="638.895" width="33.2481" height="47.1178" class="st1"/>
			<text x="6.66" y="657.05" class="st2" v:langID="2052"><v:paragraph v:horizAlign="1"/><v:tabList/>21<v:newlineChar/><tspan
						x="11.64" dy="1.2em" class="st3">0</tspan></text>		</g>
		<g id="shape1607-224" v:mID="1607" v:groupContext="shape" transform="translate(425.219,-317.745)">
			<title>矩形.1607</title>
			<desc>16 0</desc>
			<v:userDefs>
				<v:ud v:nameU="visVersion" v:val="VT0(15):26"/>
			</v:userDefs>
			<v:textBlock v:margins="rect(4,4,4,4)" v:tabSpace="42.5197"/>
			<v:textRect cx="16.624" cy="662.454" width="33.25" height="47.1178"/>
			<rect x="0" y="638.895" width="33.2481" height="47.1178" class="st1"/>
			<text x="6.66" y="657.05" class="st2" v:langID="2052"><v:paragraph v:horizAlign="1"/><v:tabList/>16<v:newlineChar/><tspan
						x="11.64" dy="1.2em" class="st3">0</tspan></text>		</g>
		<g id="shape1608-228" v:mID="1608" v:groupContext="shape" transform="translate(151.028,-205.564)">
			<title>矩形.1608</title>
			<desc>31 1</desc>
			<v:userDefs>
				<v:ud v:nameU="visVersion" v:val="VT0(15):26"/>
			</v:userDefs>
			<v:textBlock v:margins="rect(4,4,4,4)" v:tabSpace="42.5197"/>
			<v:textRect cx="16.624" cy="662.454" width="33.25" height="47.1178"/>
			<rect x="0" y="638.895" width="33.2481" height="47.1178" class="st1"/>
			<text x="6.66" y="657.05" class="st2" v:langID="2052"><v:paragraph v:horizAlign="1"/><v:tabList/>31<v:newlineChar/><tspan
						x="11.64" dy="1.2em" class="st3">1</tspan></text>		</g>
		<g id="shape1609-232" v:mID="1609" v:groupContext="shape" transform="translate(257.11,-102.969)">
			<title>矩形.1609</title>
			<desc>26 0</desc>
			<v:userDefs>
				<v:ud v:nameU="visVersion" v:val="VT0(15):26"/>
			</v:userDefs>
			<v:textBlock v:margins="rect(4,4,4,4)" v:tabSpace="42.5197"/>
			<v:textRect cx="16.624" cy="662.454" width="33.25" height="47.1178"/>
			<rect x="0" y="638.895" width="33.2481" height="47.1178" class="st4"/>
			<text x="6.66" y="657.05" class="st2" v:langID="2052"><v:paragraph v:horizAlign="1"/><v:tabList/>26<v:newlineChar/><tspan
						x="11.64" dy="1.2em" class="st3">0</tspan></text>		</g>
		<g id="group1610-236" transform="translate(1018.73,573.038) rotate(117.039)" v:mID="1610" v:groupContext="group">
			<v:userDefs>
				<v:ud v:nameU="visVersion" v:val="VT0(15):26"/>
			</v:userDefs>
			<title>一维单向箭头.1610</title>
			<g id="shape1611-237" v:mID="1611" v:groupContext="shape">
				<title>工作表.1611</title>
				<path d="M0 685.12 L65.54 685.12 L65.54 686.01 L66.43 684.24 L65.54 682.46 L65.54 683.35 L0 683.35 L0 685.12 Z"
						class="st5"/>
				<path d="M0 685.12 L65.54 685.12 L65.54 686.01 L66.43 684.24 L65.54 682.46 L65.54 683.35 L0 683.35" class="st6"/>
			</g>
			<g id="shape1612-240" v:mID="1612" v:groupContext="shape">
				<title>工作表.1612</title>
				<path d="M0 685.12 L65.54 685.12 L65.54 686.01 L66.43 684.24 L65.54 682.46 L65.54 683.35 L0 683.35 L0 685.12"
						class="st7"/>
			</g>
			<g id="shape1613-243" v:mID="1613" v:groupContext="shape" transform="translate(-0.851765,-0.902723)">
				<title>工作表.1613</title>
				<rect x="0" y="684.267" width="0.374954" height="1.74532" class="st8"/>
			</g>
		</g>
		<g id="group1614-245" transform="translate(1008.75,-67.8984) rotate(61.1764)" v:mID="1614" v:groupContext="group">
			<v:userDefs>
				<v:ud v:nameU="visVersion" v:val="VT0(15):26"/>
			</v:userDefs>
			<title>一维单向箭头.1614</title>
			<g id="shape1615-246" v:mID="1615" v:groupContext="shape">
				<title>工作表.1615</title>
				<path d="M0 685.12 L66.65 685.12 L66.65 686.01 L67.53 684.24 L66.65 682.46 L66.65 683.35 L0 683.35 L0 685.12 Z"
						class="st5"/>
				<path d="M0 685.12 L66.65 685.12 L66.65 686.01 L67.53 684.24 L66.65 682.46 L66.65 683.35 L0 683.35" class="st6"/>
			</g>
			<g id="shape1616-249" v:mID="1616" v:groupContext="shape">
				<title>工作表.1616</title>
				<path d="M0 685.12 L66.65 685.12 L66.65 686.01 L67.53 684.24 L66.65 682.46 L66.65 683.35 L0 683.35 L0 685.12"
						class="st7"/>
			</g>
			<g id="shape1617-252" v:mID="1617" v:groupContext="shape" transform="translate(-0.865946,-0.902723)">
				<title>工作表.1617</title>
				<rect x="0" y="684.267" width="0.381196" height="1.74532" class="st8"/>
			</g>
		</g>
		<g id="group1618-254" transform="translate(787.057,734.071) rotate(122.318)" v:mID="1618" v:groupContext="group">
			<v:userDefs>
				<v:ud v:nameU="visVersion" v:val="VT0(15):26"/>
			</v:userDefs>
			<title>一维单向箭头.1618</title>
			<g id="shape1619-255" v:mID="1619" v:groupContext="shape">
				<title>工作表.1619</title>
				<path d="M0 685.12 L76.1 685.12 L76.1 686.01 L76.99 684.24 L76.1 682.46 L76.1 683.35 L0 683.35 L0 685.12 Z"
						class="st5"/>
				<path d="M0 685.12 L76.1 685.12 L76.1 686.01 L76.99 684.24 L76.1 682.46 L76.1 683.35 L0 683.35" class="st6"/>
			</g>
			<g id="shape1620-258" v:mID="1620" v:groupContext="shape">
				<title>工作表.1620</title>
				<path d="M0 685.12 L76.1 685.12 L76.1 686.01 L76.99 684.24 L76.1 682.46 L76.1 683.35 L0 683.35 L0 685.12"
						class="st7"/>
			</g>
			<g id="shape1621-261" v:mID="1621" v:groupContext="shape" transform="translate(-0.987174,-0.902723)">
				<title>工作表.1621</title>
				<rect x="0" y="684.267" width="0.434562" height="1.74532" class="st8"/>
			</g>
		</g>
		<g id="group1622-263" transform="translate(820.442,61.5302) rotate(63.3659)" v:mID="1622" v:groupContext="group">
			<v:userDefs>
				<v:ud v:nameU="visVersion" v:val="VT0(15):26"/>
			</v:userDefs>
			<title>一维单向箭头.1622</title>
			<g id="shape1623-264" v:mID="1623" v:groupContext="shape">
				<title>工作表.1623</title>
				<path d="M0 685.12 L71.9 685.12 L71.9 686.01 L72.79 684.24 L71.9 682.46 L71.9 683.35 L0 683.35 L0 685.12 Z"
						class="st10"/>
				<path d="M0 685.12 L71.9 685.12 L71.9 686.01 L72.79 684.24 L71.9 682.46 L71.9 683.35 L0 683.35" class="st6"/>
			</g>
			<g id="shape1624-267" v:mID="1624" v:groupContext="shape">
				<title>工作表.1624</title>
				<path d="M0 685.12 L71.9 685.12 L71.9 686.01 L72.79 684.24 L71.9 682.46 L71.9 683.35 L0 683.35 L0 685.12"
						class="st7"/>
			</g>
			<g id="shape1625-270" v:mID="1625" v:groupContext="shape" transform="translate(-0.93329,-0.902723)">
				<title>工作表.1625</title>
				<rect x="0" y="684.267" width="0.410842" height="1.74532" class="st8"/>
			</g>
		</g>
		<g id="group1626-272" transform="translate(743.674,849.745) rotate(122.665)" v:mID="1626" v:groupContext="group">
			<v:userDefs>
				<v:ud v:nameU="visVersion" v:val="VT0(15):26"/>
			</v:userDefs>
			<title>一维单向箭头.1626</title>
			<g id="shape1627-273" v:mID="1627" v:groupContext="shape">
				<title>工作表.1627</title>
				<path d="M0 685.12 L65.01 685.12 L65.01 686.01 L65.9 684.24 L65.01 682.46 L65.01 683.35 L0 683.35 L0 685.12 Z"
						class="st5"/>
				<path d="M0 685.12 L65.01 685.12 L65.01 686.01 L65.9 684.24 L65.01 682.46 L65.01 683.35 L0 683.35" class="st6"/>
			</g>
			<g id="shape1628-276" v:mID="1628" v:groupContext="shape">
				<title>工作表.1628</title>
				<path d="M0 685.12 L65.01 685.12 L65.01 686.01 L65.9 684.24 L65.01 682.46 L65.01 683.35 L0 683.35 L0 685.12"
						class="st7"/>
			</g>
			<g id="shape1629-279" v:mID="1629" v:groupContext="shape" transform="translate(-0.844967,-0.902723)">
				<title>工作表.1629</title>
				<rect x="0" y="684.267" width="0.371961" height="1.74532" class="st8"/>
			</g>
		</g>
		<g id="group1630-281" transform="translate(826.391,295.399) rotate(74.3092)" v:mID="1630" v:groupContext="group">
			<v:userDefs>
				<v:ud v:nameU="visVersion" v:val="VT0(15):26"/>
			</v:userDefs>
			<title>一维单向箭头.1630</title>
			<g id="shape1631-282" v:mID="1631" v:groupContext="shape">
				<title>工作表.1631</title>
				<path d="M0 685.12 L56.74 685.12 L56.74 686.01 L57.62 684.24 L56.74 682.46 L56.74 683.35 L0 683.35 L0 685.12 Z"
						class="st5"/>
				<path d="M0 685.12 L56.74 685.12 L56.74 686.01 L57.62 684.24 L56.74 682.46 L56.74 683.35 L0 683.35" class="st6"/>
			</g>
			<g id="shape1632-285" v:mID="1632" v:groupContext="shape">
				<title>工作表.1632</title>
				<path d="M0 685.12 L56.74 685.12 L56.74 686.01 L57.62 684.24 L56.74 682.46 L56.74 683.35 L0 683.35 L0 685.12"
						class="st7"/>
			</g>
			<g id="shape1633-288" v:mID="1633" v:groupContext="shape" transform="translate(-0.738865,-0.902723)">
				<title>工作表.1633</title>
				<rect x="0" y="684.267" width="0.325254" height="1.74532" class="st8"/>
			</g>
		</g>
		<g id="group1634-290" transform="translate(921.813,802.527) rotate(108.71)" v:mID="1634" v:groupContext="group">
			<v:userDefs>
				<v:ud v:nameU="visVersion" v:val="VT0(15):26"/>
			</v:userDefs>
			<title>一维单向箭头.1634</title>
			<g id="shape1635-291" v:mID="1635" v:groupContext="shape">
				<title>工作表.1635</title>
				<path d="M0 685.12 L57.68 685.12 L57.68 686.01 L58.57 684.24 L57.68 682.46 L57.68 683.35 L0 683.35 L0 685.12 Z"
						class="st5"/>
				<path d="M0 685.12 L57.68 685.12 L57.68 686.01 L58.57 684.24 L57.68 682.46 L57.68 683.35 L0 683.35" class="st6"/>
			</g>
			<g id="shape1636-294" v:mID="1636" v:groupContext="shape">
				<title>工作表.1636</title>
				<path d="M0 685.12 L57.68 685.12 L57.68 686.01 L58.57 684.24 L57.68 682.46 L57.68 683.35 L0 683.35 L0 685.12"
						class="st7"/>
			</g>
			<g id="shape1637-297" v:mID="1637" v:groupContext="shape" transform="translate(-0.751018,-0.902723)">
				<title>工作表.1637</title>
				<rect x="0" y="684.267" width="0.330604" height="1.74532" class="st8"/>
			</g>
		</g>
		<g id="group1638-299" transform="translate(744.08,889.055) rotate(116.566)" v:mID="1638" v:groupContext="group">
			<v:userDefs>
				<v:ud v:nameU="visVersion" v:val="VT0(15):26"/>
			</v:userDefs>
			<title>一维单向箭头.1638</title>
			<g id="shape1639-300" v:mID="1639" v:groupContext="shape">
				<title>工作表.1639</title>
				<path d="M0 685.12 L61.14 685.12 L61.14 686.01 L62.03 684.24 L61.14 682.46 L61.14 683.35 L0 683.35 L0 685.12 Z"
						class="st5"/>
				<path d="M0 685.12 L61.14 685.12 L61.14 686.01 L62.03 684.24 L61.14 682.46 L61.14 683.35 L0 683.35" class="st6"/>
			</g>
			<g id="shape1640-303" v:mID="1640" v:groupContext="shape">
				<title>工作表.1640</title>
				<path d="M0 685.12 L61.14 685.12 L61.14 686.01 L62.03 684.24 L61.14 682.46 L61.14 683.35 L0 683.35 L0 685.12"
						class="st7"/>
			</g>
			<g id="shape1641-306" v:mID="1641" v:groupContext="shape" transform="translate(-0.7953,-0.902723)">
				<title>工作表.1641</title>
				<rect x="0" y="684.267" width="0.350097" height="1.74532" class="st8"/>
			</g>
		</g>
		<g id="group1642-308" transform="translate(832.789,136.229) rotate(59.7966)" v:mID="1642" v:groupContext="group">
			<v:userDefs>
				<v:ud v:nameU="visVersion" v:val="VT0(15):26"/>
			</v:userDefs>
			<title>一维单向箭头.1642</title>
			<g id="shape1643-309" v:mID="1643" v:groupContext="shape">
				<title>工作表.1643</title>
				<path d="M0 685.12 L63.3 685.12 L63.3 686.01 L64.19 684.24 L63.3 682.46 L63.3 683.35 L0 683.35 L0 685.12 Z"
						class="st10"/>
				<path d="M0 685.12 L63.3 685.12 L63.3 686.01 L64.19 684.24 L63.3 682.46 L63.3 683.35 L0 683.35" class="st6"/>
			</g>
			<g id="shape1644-312" v:mID="1644" v:groupContext="shape">
				<title>工作表.1644</title>
				<path d="M0 685.12 L63.3 685.12 L63.3 686.01 L64.19 684.24 L63.3 682.46 L63.3 683.35 L0 683.35 L0 685.12"
						class="st7"/>
			</g>
			<g id="shape1645-315" v:mID="1645" v:groupContext="shape" transform="translate(-0.823067,-0.902723)">
				<title>工作表.1645</title>
				<rect x="0" y="684.267" width="0.362321" height="1.74532" class="st8"/>
			</g>
		</g>
		<g id="shape1646-317" v:mID="1646" v:groupContext="shape" transform="translate(290.554,-0.375)">
			<title>矩形.1646</title>
			<desc>nil -1</desc>
			<v:userDefs>
				<v:ud v:nameU="visVersion" v:val="VT0(15):26"/>
			</v:userDefs>
			<v:textBlock v:margins="rect(4,4,4,4)" v:tabSpace="42.5197"/>
			<v:textRect cx="16.624" cy="662.454" width="33.25" height="47.1178"/>
			<rect x="0" y="638.895" width="33.2481" height="47.1178" class="st4"/>
			<text x="6.66" y="657.05" class="st2" v:langID="2052"><v:paragraph v:horizAlign="1"/><v:tabList/>nil<v:newlineChar/><tspan
						x="8.65" dy="1.2em" class="st3">-</tspan>1</text>		</g>
		<g id="group1647-321" transform="translate(859.72,229.772) rotate(58.9157)" v:mID="1647" v:groupContext="group">
			<v:userDefs>
				<v:ud v:nameU="visVersion" v:val="VT0(15):26"/>
			</v:userDefs>
			<title>一维单向箭头.1647</title>
			<g id="shape1648-322" v:mID="1648" v:groupContext="shape">
				<title>工作表.1648</title>
				<path d="M0 685.12 L63.89 685.12 L63.89 686.01 L64.78 684.24 L63.89 682.46 L63.89 683.35 L0 683.35 L0 685.12 Z"
						class="st10"/>
				<path d="M0 685.12 L63.89 685.12 L63.89 686.01 L64.78 684.24 L63.89 682.46 L63.89 683.35 L0 683.35" class="st6"/>
			</g>
			<g id="shape1649-325" v:mID="1649" v:groupContext="shape">
				<title>工作表.1649</title>
				<path d="M0 685.12 L63.89 685.12 L63.89 686.01 L64.78 684.24 L63.89 682.46 L63.89 683.35 L0 683.35 L0 685.12"
						class="st7"/>
			</g>
			<g id="shape1650-328" v:mID="1650" v:groupContext="shape" transform="translate(-0.830598,-0.902723)">
				<title>工作表.1650</title>
				<rect x="0" y="684.267" width="0.365636" height="1.74532" class="st8"/>
			</g>
		</g>
	</g>
</svg>
