<?xml version="1.0" encoding="UTF-8" standalone="no"?>
<!DOCTYPE svg PUBLIC "-//W3C//DTD SVG 1.1//EN" "http://www.w3.org/Graphics/SVG/1.1/DTD/svg11.dtd">
<!-- 由 Microsoft Visio, SVG Export 生成 LeftistTree6.svg 页-1 -->
<svg xmlns="http://www.w3.org/2000/svg" xmlns:xlink="http://www.w3.org/1999/xlink" xmlns:ev="http://www.w3.org/2001/xml-events"
		xmlns:v="http://schemas.microsoft.com/visio/2003/SVGExtensions/" width="9.13494in" height="9.44539in"
		viewBox="0 0 657.716 680.068" xml:space="preserve" color-interpolation-filters="sRGB" class="st10">
	<v:documentProperties v:langID="2052" v:metric="true" v:viewMarkup="false"/>

	<style type="text/css">
	<![CDATA[
		.st1 {fill:#ffffff;stroke:#000000;stroke-linecap:round;stroke-linejoin:round;stroke-width:0.75}
		.st2 {fill:#000000;font-family:Cambria Math;font-size:1.5em}
		.st3 {font-size:1em}
		.st4 {fill:#4bacc6;stroke:#000000;stroke-linecap:round;stroke-linejoin:round;stroke-width:0.75}
		.st5 {fill:#ffffff}
		.st6 {stroke:none;stroke-linecap:round;stroke-linejoin:round;stroke-width:0.75}
		.st7 {stroke:#000000;stroke-linecap:round;stroke-linejoin:round;stroke-width:0.24}
		.st8 {fill:#ffffff;stroke:none;stroke-linecap:round;stroke-linejoin:round;stroke-width:0.24;visibility:hidden}
		.st9 {fill:#4bacc6}
		.st10 {fill:none;fill-rule:evenodd;font-size:12px;overflow:visible;stroke-linecap:square;stroke-miterlimit:3}
	]]>
	</style>

	<g v:mID="0" v:index="1" v:groupContext="foregroundPage">
		<title>页-1</title>
		<v:pageProperties v:drawingScale="0.0393701" v:pageScale="0.0393701" v:drawingUnits="24" v:shadowOffsetX="8.50394"
				v:shadowOffsetY="-8.50394"/>
		<g id="shape657-1" v:mID="657" v:groupContext="shape" transform="translate(180.485,-632.575)">
			<title>矩形.657</title>
			<desc>6 2</desc>
			<v:userDefs>
				<v:ud v:nameU="visVersion" v:val="VT0(15):26"/>
			</v:userDefs>
			<v:textBlock v:margins="rect(4,4,4,4)" v:tabSpace="42.5197"/>
			<v:textRect cx="16.624" cy="656.509" width="33.25" height="47.1178"/>
			<rect x="0" y="632.95" width="33.2481" height="47.1178" class="st1"/>
			<text x="11.64" y="651.11" class="st2" v:langID="2052"><v:paragraph v:horizAlign="1"/><v:tabList/>6<v:newlineChar/><tspan
						x="11.64" dy="1.2em" class="st3">2</tspan></text>		</g>
		<g id="shape658-5" v:mID="658" v:groupContext="shape" transform="translate(324.986,-532.044)">
			<title>矩形.658</title>
			<desc>7 2</desc>
			<v:userDefs>
				<v:ud v:nameU="visVersion" v:val="VT0(15):26"/>
			</v:userDefs>
			<v:textBlock v:margins="rect(4,4,4,4)" v:tabSpace="42.5197"/>
			<v:textRect cx="16.624" cy="656.509" width="33.25" height="47.1178"/>
			<rect x="0" y="632.95" width="33.2481" height="47.1178" class="st4"/>
			<text x="11.64" y="651.11" class="st2" v:langID="2052"><v:paragraph v:horizAlign="1"/><v:tabList/>7<v:newlineChar/><tspan
						x="11.64" dy="1.2em" class="st3">2</tspan></text>		</g>
		<g id="shape659-9" v:mID="659" v:groupContext="shape" transform="translate(85.856,-532.044)">
			<title>矩形.659</title>
			<desc>11 2</desc>
			<v:userDefs>
				<v:ud v:nameU="visVersion" v:val="VT0(15):26"/>
			</v:userDefs>
			<v:textBlock v:margins="rect(4,4,4,4)" v:tabSpace="42.5197"/>
			<v:textRect cx="16.624" cy="656.509" width="33.25" height="47.1178"/>
			<rect x="0" y="632.95" width="33.2481" height="47.1178" class="st1"/>
			<text x="6.66" y="651.11" class="st2" v:langID="2052"><v:paragraph v:horizAlign="1"/><v:tabList/>11<v:newlineChar/><tspan
						x="11.64" dy="1.2em" class="st3">2</tspan></text>		</g>
		<g id="shape660-13" v:mID="660" v:groupContext="shape" transform="translate(388.293,-418.086)">
			<title>矩形.660</title>
			<desc>8 1</desc>
			<v:userDefs>
				<v:ud v:nameU="visVersion" v:val="VT0(15):26"/>
			</v:userDefs>
			<v:textBlock v:margins="rect(4,4,4,4)" v:tabSpace="42.5197"/>
			<v:textRect cx="16.624" cy="656.509" width="33.25" height="47.1178"/>
			<rect x="0" y="632.95" width="33.2481" height="47.1178" class="st4"/>
			<text x="11.64" y="651.11" class="st2" v:langID="2052"><v:paragraph v:horizAlign="1"/><v:tabList/>8<v:newlineChar/><tspan
						x="11.64" dy="1.2em" class="st3">1</tspan></text>		</g>
		<g id="group661-17" transform="translate(530.524,638.183) rotate(150.557)" v:mID="661" v:groupContext="group">
			<v:userDefs>
				<v:ud v:nameU="visVersion" v:val="VT0(15):26"/>
			</v:userDefs>
			<title>一维单向箭头.661</title>
			<g id="shape662-18" v:mID="662" v:groupContext="shape">
				<title>工作表.662</title>
				<path d="M0 679.18 L107.78 679.18 L107.78 680.07 L108.66 678.29 L107.78 676.52 L107.78 677.4 L0 677.4 L0 679.18 Z"
						class="st5"/>
				<path d="M0 679.18 L107.78 679.18 L107.78 680.07 L108.66 678.29 L107.78 676.52 L107.78 677.4 L0 677.4" class="st6"/>
			</g>
			<g id="shape663-21" v:mID="663" v:groupContext="shape">
				<title>工作表.663</title>
				<path d="M0 679.18 L107.78 679.18 L107.78 680.07 L108.66 678.29 L107.78 676.52 L107.78 677.4 L0 677.4 L0 679.18"
						class="st7"/>
			</g>
			<g id="shape664-24" v:mID="664" v:groupContext="shape" transform="translate(-1.3933,-0.902723)">
				<title>工作表.664</title>
				<rect x="0" y="678.323" width="0.613342" height="1.74532" class="st8"/>
			</g>
		</g>
		<g id="group665-26" transform="translate(432.281,-588.726) rotate(20.2863)" v:mID="665" v:groupContext="group">
			<v:userDefs>
				<v:ud v:nameU="visVersion" v:val="VT0(15):26"/>
			</v:userDefs>
			<title>一维单向箭头.665</title>
			<g id="shape666-27" v:mID="666" v:groupContext="shape">
				<title>工作表.666</title>
				<path d="M0 679.18 L153.17 679.18 L153.17 680.07 L154.06 678.29 L153.17 676.52 L153.17 677.4 L0 677.4 L0 679.18 Z"
						class="st9"/>
				<path d="M0 679.18 L153.17 679.18 L153.17 680.07 L154.06 678.29 L153.17 676.52 L153.17 677.4 L0 677.4" class="st6"/>
			</g>
			<g id="shape667-30" v:mID="667" v:groupContext="shape">
				<title>工作表.667</title>
				<path d="M0 679.18 L153.17 679.18 L153.17 680.07 L154.06 678.29 L153.17 676.52 L153.17 677.4 L0 677.4 L0 679.18"
						class="st7"/>
			</g>
			<g id="shape668-33" v:mID="668" v:groupContext="shape" transform="translate(-1.97535,-0.902723)">
				<title>工作表.668</title>
				<rect x="0" y="678.323" width="0.869567" height="1.74532" class="st8"/>
			</g>
		</g>
		<g id="shape669-35" v:mID="669" v:groupContext="shape" transform="translate(257.759,-418.086)">
			<title>矩形.669</title>
			<desc>9 1</desc>
			<v:userDefs>
				<v:ud v:nameU="visVersion" v:val="VT0(15):26"/>
			</v:userDefs>
			<v:textBlock v:margins="rect(4,4,4,4)" v:tabSpace="42.5197"/>
			<v:textRect cx="16.624" cy="656.509" width="33.25" height="47.1178"/>
			<rect x="0" y="632.95" width="33.2481" height="47.1178" class="st1"/>
			<text x="11.64" y="651.11" class="st2" v:langID="2052"><v:paragraph v:horizAlign="1"/><v:tabList/>9<v:newlineChar/><tspan
						x="11.64" dy="1.2em" class="st3">1</tspan></text>		</g>
		<g id="group670-39" transform="translate(819.851,629.03) rotate(135.165)" v:mID="670" v:groupContext="group">
			<v:userDefs>
				<v:ud v:nameU="visVersion" v:val="VT0(15):26"/>
			</v:userDefs>
			<title>一维单向箭头.670</title>
			<g id="shape671-40" v:mID="671" v:groupContext="shape">
				<title>工作表.671</title>
				<path d="M0 679.18 L93.91 679.18 L93.91 680.07 L94.8 678.29 L93.91 676.52 L93.91 677.4 L0 677.4 L0 679.18 Z"
						class="st5"/>
				<path d="M0 679.18 L93.91 679.18 L93.91 680.07 L94.8 678.29 L93.91 676.52 L93.91 677.4 L0 677.4" class="st6"/>
			</g>
			<g id="shape672-43" v:mID="672" v:groupContext="shape">
				<title>工作表.672</title>
				<path d="M0 679.18 L93.91 679.18 L93.91 680.07 L94.8 678.29 L93.91 676.52 L93.91 677.4 L0 677.4 L0 679.18"
						class="st7"/>
			</g>
			<g id="shape673-46" v:mID="673" v:groupContext="shape" transform="translate(-1.21555,-0.902723)">
				<title>工作表.673</title>
				<rect x="0" y="678.323" width="0.535095" height="1.74532" class="st8"/>
			</g>
		</g>
		<g id="shape674-48" v:mID="674" v:groupContext="shape" transform="translate(465.75,-311.8)">
			<title>矩形.674</title>
			<desc>12 1</desc>
			<v:userDefs>
				<v:ud v:nameU="visVersion" v:val="VT0(15):26"/>
			</v:userDefs>
			<v:textBlock v:margins="rect(4,4,4,4)" v:tabSpace="42.5197"/>
			<v:textRect cx="16.624" cy="656.509" width="33.25" height="47.1178"/>
			<rect x="0" y="632.95" width="33.2481" height="47.1178" class="st4"/>
			<text x="6.66" y="651.11" class="st2" v:langID="2052"><v:paragraph v:horizAlign="1"/><v:tabList/>12<v:newlineChar/><tspan
						x="11.64" dy="1.2em" class="st3">1</tspan></text>		</g>
		<g id="group675-52" transform="translate(834.078,-318.405) rotate(46.5555)" v:mID="675" v:groupContext="group">
			<v:userDefs>
				<v:ud v:nameU="visVersion" v:val="VT0(15):26"/>
			</v:userDefs>
			<title>一维单向箭头.675</title>
			<g id="shape676-53" v:mID="676" v:groupContext="shape">
				<title>工作表.676</title>
				<path d="M0 679.18 L91.17 679.18 L91.17 680.07 L92.06 678.29 L91.17 676.52 L91.17 677.4 L0 677.4 L0 679.18 Z"
						class="st9"/>
				<path d="M0 679.18 L91.17 679.18 L91.17 680.07 L92.06 678.29 L91.17 676.52 L91.17 677.4 L0 677.4" class="st6"/>
			</g>
			<g id="shape677-56" v:mID="677" v:groupContext="shape">
				<title>工作表.677</title>
				<path d="M0 679.18 L91.17 679.18 L91.17 680.07 L92.06 678.29 L91.17 676.52 L91.17 677.4 L0 677.4 L0 679.18"
						class="st7"/>
			</g>
			<g id="shape678-59" v:mID="678" v:groupContext="shape" transform="translate(-1.18043,-0.902723)">
				<title>工作表.678</title>
				<rect x="0" y="678.323" width="0.519636" height="1.74532" class="st8"/>
			</g>
		</g>
		<g id="shape679-61" v:mID="679" v:groupContext="shape" transform="translate(39.7218,-418.086)">
			<title>矩形.679</title>
			<desc>17 1</desc>
			<v:userDefs>
				<v:ud v:nameU="visVersion" v:val="VT0(15):26"/>
			</v:userDefs>
			<v:textBlock v:margins="rect(4,4,4,4)" v:tabSpace="42.5197"/>
			<v:textRect cx="16.624" cy="656.509" width="33.25" height="47.1178"/>
			<rect x="0" y="632.95" width="33.2481" height="47.1178" class="st1"/>
			<text x="6.66" y="651.11" class="st2" v:langID="2052"><v:paragraph v:horizAlign="1"/><v:tabList/>17<v:newlineChar/><tspan
						x="11.64" dy="1.2em" class="st3">1</tspan></text>		</g>
		<g id="shape680-65" v:mID="680" v:groupContext="shape" transform="translate(122.153,-418.086)">
			<title>矩形.680</title>
			<desc>14 1</desc>
			<v:userDefs>
				<v:ud v:nameU="visVersion" v:val="VT0(15):26"/>
			</v:userDefs>
			<v:textBlock v:margins="rect(4,4,4,4)" v:tabSpace="42.5197"/>
			<v:textRect cx="16.624" cy="656.509" width="33.25" height="47.1178"/>
			<rect x="0" y="632.95" width="33.2481" height="47.1178" class="st1"/>
			<text x="6.66" y="651.11" class="st2" v:langID="2052"><v:paragraph v:horizAlign="1"/><v:tabList/>14<v:newlineChar/><tspan
						x="11.64" dy="1.2em" class="st3">1</tspan></text>		</g>
		<g id="group681-69" transform="translate(660.713,533.324) rotate(124.614)" v:mID="681" v:groupContext="group">
			<v:userDefs>
				<v:ud v:nameU="visVersion" v:val="VT0(15):26"/>
			</v:userDefs>
			<title>一维单向箭头.681</title>
			<g id="shape682-70" v:mID="682" v:groupContext="shape">
				<title>工作表.682</title>
				<path d="M0 679.18 L80.33 679.18 L80.33 680.07 L81.22 678.29 L80.33 676.52 L80.33 677.4 L0 677.4 L0 679.18 Z"
						class="st5"/>
				<path d="M0 679.18 L80.33 679.18 L80.33 680.07 L81.22 678.29 L80.33 676.52 L80.33 677.4 L0 677.4" class="st6"/>
			</g>
			<g id="shape683-73" v:mID="683" v:groupContext="shape">
				<title>工作表.683</title>
				<path d="M0 679.18 L80.33 679.18 L80.33 680.07 L81.22 678.29 L80.33 676.52 L80.33 677.4 L0 677.4 L0 679.18"
						class="st7"/>
			</g>
			<g id="shape684-76" v:mID="684" v:groupContext="shape" transform="translate(-1.04137,-0.902723)">
				<title>工作表.684</title>
				<rect x="0" y="678.323" width="0.458418" height="1.74532" class="st8"/>
			</g>
		</g>
		<g id="group685-78" transform="translate(698.552,-175.671) rotate(61.496)" v:mID="685" v:groupContext="group">
			<v:userDefs>
				<v:ud v:nameU="visVersion" v:val="VT0(15):26"/>
			</v:userDefs>
			<title>一维单向箭头.685</title>
			<g id="shape686-79" v:mID="686" v:groupContext="shape">
				<title>工作表.686</title>
				<path d="M0 679.18 L75.17 679.18 L75.17 680.07 L76.06 678.29 L75.17 676.52 L75.17 677.4 L0 677.4 L0 679.18 Z"
						class="st5"/>
				<path d="M0 679.18 L75.17 679.18 L75.17 680.07 L76.06 678.29 L75.17 676.52 L75.17 677.4 L0 677.4" class="st6"/>
			</g>
			<g id="shape687-82" v:mID="687" v:groupContext="shape">
				<title>工作表.687</title>
				<path d="M0 679.18 L75.17 679.18 L75.17 680.07 L76.06 678.29 L75.17 676.52 L75.17 677.4 L0 677.4 L0 679.18"
						class="st7"/>
			</g>
			<g id="shape688-85" v:mID="688" v:groupContext="shape" transform="translate(-0.97526,-0.902723)">
				<title>工作表.688</title>
				<rect x="0" y="678.323" width="0.429317" height="1.74532" class="st8"/>
			</g>
		</g>
		<g id="shape689-87" v:mID="689" v:groupContext="shape" transform="translate(0.375,-311.8)">
			<title>矩形.689</title>
			<desc>18 0</desc>
			<v:userDefs>
				<v:ud v:nameU="visVersion" v:val="VT0(15):26"/>
			</v:userDefs>
			<v:textBlock v:margins="rect(4,4,4,4)" v:tabSpace="42.5197"/>
			<v:textRect cx="16.624" cy="656.509" width="33.25" height="47.1178"/>
			<rect x="0" y="632.95" width="33.2481" height="47.1178" class="st1"/>
			<text x="6.66" y="651.11" class="st2" v:langID="2052"><v:paragraph v:horizAlign="1"/><v:tabList/>18<v:newlineChar/><tspan
						x="11.64" dy="1.2em" class="st3">0</tspan></text>		</g>
		<g id="shape690-91" v:mID="690" v:groupContext="shape" transform="translate(48.0338,-311.8)">
			<title>矩形.690</title>
			<desc>20 0</desc>
			<v:userDefs>
				<v:ud v:nameU="visVersion" v:val="VT0(15):26"/>
			</v:userDefs>
			<v:textBlock v:margins="rect(4,4,4,4)" v:tabSpace="42.5197"/>
			<v:textRect cx="16.624" cy="656.509" width="33.25" height="47.1178"/>
			<rect x="0" y="632.95" width="33.2481" height="47.1178" class="st1"/>
			<text x="6.66" y="651.11" class="st2" v:langID="2052"><v:paragraph v:horizAlign="1"/><v:tabList/>20<v:newlineChar/><tspan
						x="11.64" dy="1.2em" class="st3">0</tspan></text>		</g>
		<g id="group691-95" transform="translate(621.152,637.581) rotate(123.624)" v:mID="691" v:groupContext="group">
			<v:userDefs>
				<v:ud v:nameU="visVersion" v:val="VT0(15):26"/>
			</v:userDefs>
			<title>一维单向箭头.691</title>
			<g id="shape692-96" v:mID="692" v:groupContext="shape">
				<title>工作表.692</title>
				<path d="M0 679.18 L70.17 679.18 L70.17 680.07 L71.06 678.29 L70.17 676.52 L70.17 677.4 L0 677.4 L0 679.18 Z"
						class="st5"/>
				<path d="M0 679.18 L70.17 679.18 L70.17 680.07 L71.06 678.29 L70.17 676.52 L70.17 677.4 L0 677.4" class="st6"/>
			</g>
			<g id="shape693-99" v:mID="693" v:groupContext="shape">
				<title>工作表.693</title>
				<path d="M0 679.18 L70.17 679.18 L70.17 680.07 L71.06 678.29 L70.17 676.52 L70.17 677.4 L0 677.4 L0 679.18"
						class="st7"/>
			</g>
			<g id="shape694-102" v:mID="694" v:groupContext="shape" transform="translate(-0.9111,-0.902723)">
				<title>工作表.694</title>
				<rect x="0" y="678.323" width="0.401073" height="1.74532" class="st8"/>
			</g>
		</g>
		<g id="group695-104" transform="translate(728.043,167.621) rotate(82.0033)" v:mID="695" v:groupContext="group">
			<v:userDefs>
				<v:ud v:nameU="visVersion" v:val="VT0(15):26"/>
			</v:userDefs>
			<title>一维单向箭头.695</title>
			<g id="shape696-105" v:mID="696" v:groupContext="shape">
				<title>工作表.696</title>
				<path d="M0 679.18 L58.86 679.18 L58.86 680.07 L59.75 678.29 L58.86 676.52 L58.86 677.4 L0 677.4 L0 679.18 Z"
						class="st5"/>
				<path d="M0 679.18 L58.86 679.18 L58.86 680.07 L59.75 678.29 L58.86 676.52 L58.86 677.4 L0 677.4" class="st6"/>
			</g>
			<g id="shape697-108" v:mID="697" v:groupContext="shape">
				<title>工作表.697</title>
				<path d="M0 679.18 L58.86 679.18 L58.86 680.07 L59.75 678.29 L58.86 676.52 L58.86 677.4 L0 677.4 L0 679.18"
						class="st7"/>
			</g>
			<g id="shape698-111" v:mID="698" v:groupContext="shape" transform="translate(-0.766112,-0.902723)">
				<title>工作表.698</title>
				<rect x="0" y="678.323" width="0.337249" height="1.74532" class="st8"/>
			</g>
		</g>
		<g id="shape699-113" v:mID="699" v:groupContext="shape" transform="translate(95.6927,-311.8)">
			<title>矩形.699</title>
			<desc>19 0</desc>
			<v:userDefs>
				<v:ud v:nameU="visVersion" v:val="VT0(15):26"/>
			</v:userDefs>
			<v:textBlock v:margins="rect(4,4,4,4)" v:tabSpace="42.5197"/>
			<v:textRect cx="16.624" cy="656.509" width="33.25" height="47.1178"/>
			<rect x="0" y="632.95" width="33.2481" height="47.1178" class="st1"/>
			<text x="6.66" y="651.11" class="st2" v:langID="2052"><v:paragraph v:horizAlign="1"/><v:tabList/>19<v:newlineChar/><tspan
						x="11.64" dy="1.2em" class="st3">0</tspan></text>		</g>
		<g id="shape700-117" v:mID="700" v:groupContext="shape" transform="translate(138.089,-311.8)">
			<title>矩形.700</title>
			<desc>24 0</desc>
			<v:userDefs>
				<v:ud v:nameU="visVersion" v:val="VT0(15):26"/>
			</v:userDefs>
			<v:textBlock v:margins="rect(4,4,4,4)" v:tabSpace="42.5197"/>
			<v:textRect cx="16.624" cy="656.509" width="33.25" height="47.1178"/>
			<rect x="0" y="632.95" width="33.2481" height="47.1178" class="st1"/>
			<text x="6.66" y="651.11" class="st2" v:langID="2052"><v:paragraph v:horizAlign="1"/><v:tabList/>24<v:newlineChar/><tspan
						x="11.64" dy="1.2em" class="st3">0</tspan></text>		</g>
		<g id="group701-121" transform="translate(757.971,538.895) rotate(114.095)" v:mID="701" v:groupContext="group">
			<v:userDefs>
				<v:ud v:nameU="visVersion" v:val="VT0(15):26"/>
			</v:userDefs>
			<title>一维单向箭头.701</title>
			<g id="shape702-122" v:mID="702" v:groupContext="shape">
				<title>工作表.702</title>
				<path d="M0 679.18 L63.93 679.18 L63.93 680.07 L64.82 678.29 L63.93 676.52 L63.93 677.4 L0 677.4 L0 679.18 Z"
						class="st5"/>
				<path d="M0 679.18 L63.93 679.18 L63.93 680.07 L64.82 678.29 L63.93 676.52 L63.93 677.4 L0 677.4" class="st6"/>
			</g>
			<g id="shape703-125" v:mID="703" v:groupContext="shape">
				<title>工作表.703</title>
				<path d="M0 679.18 L63.93 679.18 L63.93 680.07 L64.82 678.29 L63.93 676.52 L63.93 677.4 L0 677.4 L0 679.18"
						class="st7"/>
			</g>
			<g id="shape704-128" v:mID="704" v:groupContext="shape" transform="translate(-0.831074,-0.902723)">
				<title>工作表.704</title>
				<rect x="0" y="678.323" width="0.365845" height="1.74532" class="st8"/>
			</g>
		</g>
		<g id="group705-130" transform="translate(793.732,85.5856) rotate(74.9264)" v:mID="705" v:groupContext="group">
			<v:userDefs>
				<v:ud v:nameU="visVersion" v:val="VT0(15):26"/>
			</v:userDefs>
			<title>一维单向箭头.705</title>
			<g id="shape706-131" v:mID="706" v:groupContext="shape">
				<title>工作表.706</title>
				<path d="M0 679.18 L60.39 679.18 L60.39 680.07 L61.28 678.29 L60.39 676.52 L60.39 677.4 L0 677.4 L0 679.18 Z"
						class="st5"/>
				<path d="M0 679.18 L60.39 679.18 L60.39 680.07 L61.28 678.29 L60.39 676.52 L60.39 677.4 L0 677.4" class="st6"/>
			</g>
			<g id="shape707-134" v:mID="707" v:groupContext="shape">
				<title>工作表.707</title>
				<path d="M0 679.18 L60.39 679.18 L60.39 680.07 L61.28 678.29 L60.39 676.52 L60.39 677.4 L0 677.4 L0 679.18"
						class="st7"/>
			</g>
			<g id="shape708-137" v:mID="708" v:groupContext="shape" transform="translate(-0.785696,-0.902723)">
				<title>工作表.708</title>
				<rect x="0" y="678.323" width="0.34587" height="1.74532" class="st8"/>
			</g>
		</g>
		<g id="shape709-139" v:mID="709" v:groupContext="shape" transform="translate(347.709,-311.8)">
			<title>矩形.709</title>
			<desc>10 1</desc>
			<v:userDefs>
				<v:ud v:nameU="visVersion" v:val="VT0(15):26"/>
			</v:userDefs>
			<v:textBlock v:margins="rect(4,4,4,4)" v:tabSpace="42.5197"/>
			<v:textRect cx="16.624" cy="656.509" width="33.25" height="47.1178"/>
			<rect x="0" y="632.95" width="33.2481" height="47.1178" class="st1"/>
			<text x="6.66" y="651.11" class="st2" v:langID="2052"><v:paragraph v:horizAlign="1"/><v:tabList/>10<v:newlineChar/><tspan
						x="11.64" dy="1.2em" class="st3">1</tspan></text>		</g>
		<g id="shape710-143" v:mID="710" v:groupContext="shape" transform="translate(521.987,-205.564)">
			<title>矩形.710</title>
			<desc>13 0</desc>
			<v:userDefs>
				<v:ud v:nameU="visVersion" v:val="VT0(15):26"/>
			</v:userDefs>
			<v:textBlock v:margins="rect(4,4,4,4)" v:tabSpace="42.5197"/>
			<v:textRect cx="16.624" cy="656.509" width="33.25" height="47.1178"/>
			<rect x="0" y="632.95" width="33.2481" height="47.1178" class="st4"/>
			<text x="6.66" y="651.11" class="st2" v:langID="2052"><v:paragraph v:horizAlign="1"/><v:tabList/>13<v:newlineChar/><tspan
						x="11.64" dy="1.2em" class="st3">0</tspan></text>		</g>
		<g id="group711-147" transform="translate(964.274,645.648) rotate(124.446)" v:mID="711" v:groupContext="group">
			<v:userDefs>
				<v:ud v:nameU="visVersion" v:val="VT0(15):26"/>
			</v:userDefs>
			<title>一维单向箭头.711</title>
			<g id="shape712-148" v:mID="712" v:groupContext="shape">
				<title>工作表.712</title>
				<path d="M0 679.18 L70.86 679.18 L70.86 680.07 L71.75 678.29 L70.86 676.52 L70.86 677.4 L0 677.4 L0 679.18 Z"
						class="st5"/>
				<path d="M0 679.18 L70.86 679.18 L70.86 680.07 L71.75 678.29 L70.86 676.52 L70.86 677.4 L0 677.4" class="st6"/>
			</g>
			<g id="shape713-151" v:mID="713" v:groupContext="shape">
				<title>工作表.713</title>
				<path d="M0 679.18 L70.86 679.18 L70.86 680.07 L71.75 678.29 L70.86 676.52 L70.86 677.4 L0 677.4 L0 679.18"
						class="st7"/>
			</g>
			<g id="shape714-154" v:mID="714" v:groupContext="shape" transform="translate(-0.919975,-0.902723)">
				<title>工作表.714</title>
				<rect x="0" y="678.323" width="0.40498" height="1.74532" class="st8"/>
			</g>
		</g>
		<g id="group715-156" transform="translate(884.542,-217.643) rotate(45)" v:mID="715" v:groupContext="group">
			<v:userDefs>
				<v:ud v:nameU="visVersion" v:val="VT0(15):26"/>
			</v:userDefs>
			<title>一维单向箭头.715</title>
			<g id="shape716-157" v:mID="716" v:groupContext="shape">
				<title>工作表.716</title>
				<path d="M0 679.18 L85.96 679.18 L85.96 680.07 L86.84 678.29 L85.96 676.52 L85.96 677.4 L0 677.4 L0 679.18 Z"
						class="st9"/>
				<path d="M0 679.18 L85.96 679.18 L85.96 680.07 L86.84 678.29 L85.96 676.52 L85.96 677.4 L0 677.4" class="st6"/>
			</g>
			<g id="shape717-160" v:mID="717" v:groupContext="shape">
				<title>工作表.717</title>
				<path d="M0 679.18 L85.96 679.18 L85.96 680.07 L86.84 678.29 L85.96 676.52 L85.96 677.4 L0 677.4 L0 679.18"
						class="st7"/>
			</g>
			<g id="shape718-163" v:mID="718" v:groupContext="shape" transform="translate(-1.11353,-0.902723)">
				<title>工作表.718</title>
				<rect x="0" y="678.323" width="0.490185" height="1.74532" class="st8"/>
			</g>
		</g>
		<g id="shape719-165" v:mID="719" v:groupContext="shape" transform="translate(309.599,-205.564)">
			<title>矩形.719</title>
			<desc>15 0</desc>
			<v:userDefs>
				<v:ud v:nameU="visVersion" v:val="VT0(15):26"/>
			</v:userDefs>
			<v:textBlock v:margins="rect(4,4,4,4)" v:tabSpace="42.5197"/>
			<v:textRect cx="16.624" cy="656.509" width="33.25" height="47.1178"/>
			<rect x="0" y="632.95" width="33.2481" height="47.1178" class="st1"/>
			<text x="6.66" y="651.11" class="st2" v:langID="2052"><v:paragraph v:horizAlign="1"/><v:tabList/>15<v:newlineChar/><tspan
						x="11.64" dy="1.2em" class="st3">0</tspan></text>		</g>
		<g id="shape720-169" v:mID="720" v:groupContext="shape" transform="translate(368.619,-205.564)">
			<title>矩形.720</title>
			<desc>30 0</desc>
			<v:userDefs>
				<v:ud v:nameU="visVersion" v:val="VT0(15):26"/>
			</v:userDefs>
			<v:textBlock v:margins="rect(4,4,4,4)" v:tabSpace="42.5197"/>
			<v:textRect cx="16.624" cy="656.509" width="33.25" height="47.1178"/>
			<rect x="0" y="632.95" width="33.2481" height="47.1178" class="st1"/>
			<text x="6.66" y="651.11" class="st2" v:langID="2052"><v:paragraph v:horizAlign="1"/><v:tabList/>30<v:newlineChar/><tspan
						x="11.64" dy="1.2em" class="st3">0</tspan></text>		</g>
		<g id="group721-173" transform="translate(934.435,735.779) rotate(122.807)" v:mID="721" v:groupContext="group">
			<v:userDefs>
				<v:ud v:nameU="visVersion" v:val="VT0(15):26"/>
			</v:userDefs>
			<title>一维单向箭头.721</title>
			<g id="shape722-174" v:mID="722" v:groupContext="shape">
				<title>工作表.722</title>
				<path d="M0 679.18 L69.45 679.18 L69.45 680.07 L70.34 678.29 L69.45 676.52 L69.45 677.4 L0 677.4 L0 679.18 Z"
						class="st5"/>
				<path d="M0 679.18 L69.45 679.18 L69.45 680.07 L70.34 678.29 L69.45 676.52 L69.45 677.4 L0 677.4" class="st6"/>
			</g>
			<g id="shape723-177" v:mID="723" v:groupContext="shape">
				<title>工作表.723</title>
				<path d="M0 679.18 L69.45 679.18 L69.45 680.07 L70.34 678.29 L69.45 676.52 L69.45 677.4 L0 677.4 L0 679.18"
						class="st7"/>
			</g>
			<g id="shape724-180" v:mID="724" v:groupContext="shape" transform="translate(-0.901886,-0.902723)">
				<title>工作表.724</title>
				<rect x="0" y="678.323" width="0.397018" height="1.74532" class="st8"/>
			</g>
		</g>
		<g id="group725-182" transform="translate(1003.8,142.089) rotate(70.5215)" v:mID="725" v:groupContext="group">
			<v:userDefs>
				<v:ud v:nameU="visVersion" v:val="VT0(15):26"/>
			</v:userDefs>
			<title>一维单向箭头.725</title>
			<g id="shape726-183" v:mID="726" v:groupContext="shape">
				<title>工作表.726</title>
				<path d="M0 679.18 L61.82 679.18 L61.82 680.07 L62.71 678.29 L61.82 676.52 L61.82 677.4 L0 677.4 L0 679.18 Z"
						class="st5"/>
				<path d="M0 679.18 L61.82 679.18 L61.82 680.07 L62.71 678.29 L61.82 676.52 L61.82 677.4 L0 677.4" class="st6"/>
			</g>
			<g id="shape727-186" v:mID="727" v:groupContext="shape">
				<title>工作表.727</title>
				<path d="M0 679.18 L61.82 679.18 L61.82 680.07 L62.71 678.29 L61.82 676.52 L61.82 677.4 L0 677.4 L0 679.18"
						class="st7"/>
			</g>
			<g id="shape728-189" v:mID="728" v:groupContext="shape" transform="translate(-0.80405,-0.902723)">
				<title>工作表.728</title>
				<rect x="0" y="678.323" width="0.353949" height="1.74532" class="st8"/>
			</g>
		</g>
		<g id="shape729-191" v:mID="729" v:groupContext="shape" transform="translate(501.429,-102.969)">
			<title>矩形.729</title>
			<desc>28 0</desc>
			<v:userDefs>
				<v:ud v:nameU="visVersion" v:val="VT0(15):26"/>
			</v:userDefs>
			<v:textBlock v:margins="rect(4,4,4,4)" v:tabSpace="42.5197"/>
			<v:textRect cx="16.624" cy="656.509" width="33.25" height="47.1178"/>
			<rect x="0" y="632.95" width="33.2481" height="47.1178" class="st1"/>
			<text x="6.66" y="651.11" class="st2" v:langID="2052"><v:paragraph v:horizAlign="1"/><v:tabList/>28<v:newlineChar/><tspan
						x="11.64" dy="1.2em" class="st3">0</tspan></text>		</g>
		<g id="group730-195" transform="translate(1174.64,710.205) rotate(110.334)" v:mID="730" v:groupContext="group">
			<v:userDefs>
				<v:ud v:nameU="visVersion" v:val="VT0(15):26"/>
			</v:userDefs>
			<title>一维单向箭头.730</title>
			<g id="shape731-196" v:mID="731" v:groupContext="shape">
				<title>工作表.731</title>
				<path d="M0 679.18 L58.28 679.18 L58.28 680.07 L59.16 678.29 L58.28 676.52 L58.28 677.4 L0 677.4 L0 679.18 Z"
						class="st5"/>
				<path d="M0 679.18 L58.28 679.18 L58.28 680.07 L59.16 678.29 L58.28 676.52 L58.28 677.4 L0 677.4" class="st6"/>
			</g>
			<g id="shape732-199" v:mID="732" v:groupContext="shape">
				<title>工作表.732</title>
				<path d="M0 679.18 L58.28 679.18 L58.28 680.07 L59.16 678.29 L58.28 676.52 L58.28 677.4 L0 677.4 L0 679.18"
						class="st7"/>
			</g>
			<g id="shape733-202" v:mID="733" v:groupContext="shape" transform="translate(-0.758605,-0.902723)">
				<title>工作表.733</title>
				<rect x="0" y="678.323" width="0.333944" height="1.74532" class="st8"/>
			</g>
		</g>
		<g id="shape734-204" v:mID="734" v:groupContext="shape" transform="translate(387.056,-102.969)">
			<title>矩形.734</title>
			<desc>42 0</desc>
			<v:userDefs>
				<v:ud v:nameU="visVersion" v:val="VT0(15):26"/>
			</v:userDefs>
			<v:textBlock v:margins="rect(4,4,4,4)" v:tabSpace="42.5197"/>
			<v:textRect cx="16.624" cy="656.509" width="33.25" height="47.1178"/>
			<rect x="0" y="632.95" width="33.2481" height="47.1178" class="st1"/>
			<text x="6.66" y="651.11" class="st2" v:langID="2052"><v:paragraph v:horizAlign="1"/><v:tabList/>42<v:newlineChar/><tspan
						x="11.64" dy="1.2em" class="st3">0</tspan></text>		</g>
		<g id="shape735-208" v:mID="735" v:groupContext="shape" transform="translate(452.864,-102.969)">
			<title>矩形.735</title>
			<desc>33 0</desc>
			<v:userDefs>
				<v:ud v:nameU="visVersion" v:val="VT0(15):26"/>
			</v:userDefs>
			<v:textBlock v:margins="rect(4,4,4,4)" v:tabSpace="42.5197"/>
			<v:textRect cx="16.624" cy="656.509" width="33.25" height="47.1178"/>
			<rect x="0" y="632.95" width="33.2481" height="47.1178" class="st1"/>
			<text x="6.66" y="651.11" class="st2" v:langID="2052"><v:paragraph v:horizAlign="1"/><v:tabList/>33<v:newlineChar/><tspan
						x="11.64" dy="1.2em" class="st3">0</tspan></text>		</g>
		<g id="shape736-212" v:mID="736" v:groupContext="shape" transform="translate(354.496,-0.375)">
			<title>矩形.736</title>
			<desc>50 0</desc>
			<v:userDefs>
				<v:ud v:nameU="visVersion" v:val="VT0(15):26"/>
			</v:userDefs>
			<v:textBlock v:margins="rect(4,4,4,4)" v:tabSpace="42.5197"/>
			<v:textRect cx="16.624" cy="656.509" width="33.25" height="47.1178"/>
			<rect x="0" y="632.95" width="33.2481" height="47.1178" class="st1"/>
			<text x="6.66" y="651.11" class="st2" v:langID="2052"><v:paragraph v:horizAlign="1"/><v:tabList/>50<v:newlineChar/><tspan
						x="11.64" dy="1.2em" class="st3">0</tspan></text>		</g>
		<g id="shape737-216" v:mID="737" v:groupContext="shape" transform="translate(600.681,-101.197)">
			<title>矩形.737</title>
			<desc>27 0</desc>
			<v:userDefs>
				<v:ud v:nameU="visVersion" v:val="VT0(15):26"/>
			</v:userDefs>
			<v:textBlock v:margins="rect(4,4,4,4)" v:tabSpace="42.5197"/>
			<v:textRect cx="16.624" cy="656.509" width="33.25" height="47.1178"/>
			<rect x="0" y="632.95" width="33.2481" height="47.1178" class="st1"/>
			<text x="6.66" y="651.11" class="st2" v:langID="2052"><v:paragraph v:horizAlign="1"/><v:tabList/>27<v:newlineChar/><tspan
						x="11.64" dy="1.2em" class="st3">0</tspan></text>		</g>
		<g id="shape738-220" v:mID="738" v:groupContext="shape" transform="translate(214.281,-311.8)">
			<title>矩形.738</title>
			<desc>21 0</desc>
			<v:userDefs>
				<v:ud v:nameU="visVersion" v:val="VT0(15):26"/>
			</v:userDefs>
			<v:textBlock v:margins="rect(4,4,4,4)" v:tabSpace="42.5197"/>
			<v:textRect cx="16.624" cy="656.509" width="33.25" height="47.1178"/>
			<rect x="0" y="632.95" width="33.2481" height="47.1178" class="st1"/>
			<text x="6.66" y="651.11" class="st2" v:langID="2052"><v:paragraph v:horizAlign="1"/><v:tabList/>21<v:newlineChar/><tspan
						x="11.64" dy="1.2em" class="st3">0</tspan></text>		</g>
		<g id="shape739-224" v:mID="739" v:groupContext="shape" transform="translate(290.474,-311.8)">
			<title>矩形.739</title>
			<desc>16 0</desc>
			<v:userDefs>
				<v:ud v:nameU="visVersion" v:val="VT0(15):26"/>
			</v:userDefs>
			<v:textBlock v:margins="rect(4,4,4,4)" v:tabSpace="42.5197"/>
			<v:textRect cx="16.624" cy="656.509" width="33.25" height="47.1178"/>
			<rect x="0" y="632.95" width="33.2481" height="47.1178" class="st1"/>
			<text x="6.66" y="651.11" class="st2" v:langID="2052"><v:paragraph v:horizAlign="1"/><v:tabList/>16<v:newlineChar/><tspan
						x="11.64" dy="1.2em" class="st3">0</tspan></text>		</g>
		<g id="shape740-228" v:mID="740" v:groupContext="shape" transform="translate(427.639,-205.564)">
			<title>矩形.740</title>
			<desc>31 1</desc>
			<v:userDefs>
				<v:ud v:nameU="visVersion" v:val="VT0(15):26"/>
			</v:userDefs>
			<v:textBlock v:margins="rect(4,4,4,4)" v:tabSpace="42.5197"/>
			<v:textRect cx="16.624" cy="656.509" width="33.25" height="47.1178"/>
			<rect x="0" y="632.95" width="33.2481" height="47.1178" class="st1"/>
			<text x="6.66" y="651.11" class="st2" v:langID="2052"><v:paragraph v:horizAlign="1"/><v:tabList/>31<v:newlineChar/><tspan
						x="11.64" dy="1.2em" class="st3">1</tspan></text>		</g>
		<g id="shape741-232" v:mID="741" v:groupContext="shape" transform="translate(624.093,-203.792)">
			<title>矩形.741</title>
			<desc>26 0</desc>
			<v:userDefs>
				<v:ud v:nameU="visVersion" v:val="VT0(15):26"/>
			</v:userDefs>
			<v:textBlock v:margins="rect(4,4,4,4)" v:tabSpace="42.5197"/>
			<v:textRect cx="16.624" cy="656.509" width="33.25" height="47.1178"/>
			<rect x="0" y="632.95" width="33.2481" height="47.1178" class="st1"/>
			<text x="6.66" y="651.11" class="st2" v:langID="2052"><v:paragraph v:horizAlign="1"/><v:tabList/>26<v:newlineChar/><tspan
						x="11.64" dy="1.2em" class="st3">0</tspan></text>		</g>
		<g id="group742-236" transform="translate(820.972,663.631) rotate(126.31)" v:mID="742" v:groupContext="group">
			<v:userDefs>
				<v:ud v:nameU="visVersion" v:val="VT0(15):26"/>
			</v:userDefs>
			<title>一维单向箭头.742</title>
			<g id="shape743-237" v:mID="743" v:groupContext="shape">
				<title>工作表.743</title>
				<path d="M0 679.18 L72.54 679.18 L72.54 680.07 L73.42 678.29 L72.54 676.52 L72.54 677.4 L0 677.4 L0 679.18 Z"
						class="st5"/>
				<path d="M0 679.18 L72.54 679.18 L72.54 680.07 L73.42 678.29 L72.54 676.52 L72.54 677.4 L0 677.4" class="st6"/>
			</g>
			<g id="shape744-240" v:mID="744" v:groupContext="shape">
				<title>工作表.744</title>
				<path d="M0 679.18 L72.54 679.18 L72.54 680.07 L73.42 678.29 L72.54 676.52 L72.54 677.4 L0 677.4 L0 679.18"
						class="st7"/>
			</g>
			<g id="shape745-243" v:mID="745" v:groupContext="shape" transform="translate(-0.941468,-0.902723)">
				<title>工作表.745</title>
				<rect x="0" y="678.323" width="0.414442" height="1.74532" class="st8"/>
			</g>
		</g>
		<g id="group746-245" transform="translate(867.985,-66.222) rotate(61.0616)" v:mID="746" v:groupContext="group">
			<v:userDefs>
				<v:ud v:nameU="visVersion" v:val="VT0(15):26"/>
			</v:userDefs>
			<title>一维单向箭头.746</title>
			<g id="shape747-246" v:mID="747" v:groupContext="shape">
				<title>工作表.747</title>
				<path d="M0 679.18 L66.72 679.18 L66.72 680.07 L67.61 678.29 L66.72 676.52 L66.72 677.4 L0 677.4 L0 679.18 Z"
						class="st5"/>
				<path d="M0 679.18 L66.72 679.18 L66.72 680.07 L67.61 678.29 L66.72 676.52 L66.72 677.4 L0 677.4" class="st6"/>
			</g>
			<g id="shape748-249" v:mID="748" v:groupContext="shape">
				<title>工作表.748</title>
				<path d="M0 679.18 L66.72 679.18 L66.72 680.07 L67.61 678.29 L66.72 676.52 L66.72 677.4 L0 677.4 L0 679.18"
						class="st7"/>
			</g>
			<g id="shape749-252" v:mID="749" v:groupContext="shape" transform="translate(-0.866903,-0.902723)">
				<title>工作表.749</title>
				<rect x="0" y="678.323" width="0.381618" height="1.74532" class="st8"/>
			</g>
		</g>
		<g id="group750-254" transform="translate(1052.48,735.779) rotate(122.807)" v:mID="750" v:groupContext="group">
			<v:userDefs>
				<v:ud v:nameU="visVersion" v:val="VT0(15):26"/>
			</v:userDefs>
			<title>一维单向箭头.750</title>
			<g id="shape751-255" v:mID="751" v:groupContext="shape">
				<title>工作表.751</title>
				<path d="M0 679.18 L69.45 679.18 L69.45 680.07 L70.34 678.29 L69.45 676.52 L69.45 677.4 L0 677.4 L0 679.18 Z"
						class="st5"/>
				<path d="M0 679.18 L69.45 679.18 L69.45 680.07 L70.34 678.29 L69.45 676.52 L69.45 677.4 L0 677.4" class="st6"/>
			</g>
			<g id="shape752-258" v:mID="752" v:groupContext="shape">
				<title>工作表.752</title>
				<path d="M0 679.18 L69.45 679.18 L69.45 680.07 L70.34 678.29 L69.45 676.52 L69.45 677.4 L0 677.4 L0 679.18"
						class="st7"/>
			</g>
			<g id="shape753-261" v:mID="753" v:groupContext="shape" transform="translate(-0.901886,-0.902723)">
				<title>工作表.753</title>
				<rect x="0" y="678.323" width="0.397018" height="1.74532" class="st8"/>
			</g>
		</g>
		<g id="group754-263" transform="translate(973.823,-99.2341) rotate(46.4305)" v:mID="754" v:groupContext="group">
			<v:userDefs>
				<v:ud v:nameU="visVersion" v:val="VT0(15):26"/>
			</v:userDefs>
			<title>一维单向箭头.754</title>
			<g id="shape755-264" v:mID="755" v:groupContext="shape">
				<title>工作表.755</title>
				<path d="M0 679.18 L80.71 679.18 L80.71 680.07 L81.59 678.29 L80.71 676.52 L80.71 677.4 L0 677.4 L0 679.18 Z"
						class="st9"/>
				<path d="M0 679.18 L80.71 679.18 L80.71 680.07 L81.59 678.29 L80.71 676.52 L80.71 677.4 L0 677.4" class="st6"/>
			</g>
			<g id="shape756-267" v:mID="756" v:groupContext="shape">
				<title>工作表.756</title>
				<path d="M0 679.18 L80.71 679.18 L80.71 680.07 L81.59 678.29 L80.71 676.52 L80.71 677.4 L0 677.4 L0 679.18"
						class="st7"/>
			</g>
			<g id="shape757-270" v:mID="757" v:groupContext="shape" transform="translate(-1.04623,-0.902723)">
				<title>工作表.757</title>
				<rect x="0" y="678.323" width="0.460557" height="1.74532" class="st8"/>
			</g>
		</g>
		<g id="group758-272" transform="translate(991.709,874.984) rotate(126.187)" v:mID="758" v:groupContext="group">
			<v:userDefs>
				<v:ud v:nameU="visVersion" v:val="VT0(15):26"/>
			</v:userDefs>
			<title>一维单向箭头.758</title>
			<g id="shape759-273" v:mID="759" v:groupContext="shape">
				<title>工作表.759</title>
				<path d="M0 679.18 L67.85 679.18 L67.85 680.07 L68.74 678.29 L67.85 676.52 L67.85 677.4 L0 677.4 L0 679.18 Z"
						class="st5"/>
				<path d="M0 679.18 L67.85 679.18 L67.85 680.07 L68.74 678.29 L67.85 676.52 L67.85 677.4 L0 677.4" class="st6"/>
			</g>
			<g id="shape760-276" v:mID="760" v:groupContext="shape">
				<title>工作表.760</title>
				<path d="M0 679.18 L67.85 679.18 L67.85 680.07 L68.74 678.29 L67.85 676.52 L67.85 677.4 L0 677.4 L0 679.18"
						class="st7"/>
			</g>
			<g id="shape761-279" v:mID="761" v:groupContext="shape" transform="translate(-0.88135,-0.902723)">
				<title>工作表.761</title>
				<rect x="0" y="678.323" width="0.387977" height="1.74532" class="st8"/>
			</g>
		</g>
		<g id="group762-281" transform="translate(1061.73,193.755) rotate(65.5496)" v:mID="762" v:groupContext="group">
			<v:userDefs>
				<v:ud v:nameU="visVersion" v:val="VT0(15):26"/>
			</v:userDefs>
			<title>一维单向箭头.762</title>
			<g id="shape763-282" v:mID="763" v:groupContext="shape">
				<title>工作表.763</title>
				<path d="M0 679.18 L60.05 679.18 L60.05 680.07 L60.94 678.29 L60.05 676.52 L60.05 677.4 L0 677.4 L0 679.18 Z"
						class="st5"/>
				<path d="M0 679.18 L60.05 679.18 L60.05 680.07 L60.94 678.29 L60.05 676.52 L60.05 677.4 L0 677.4" class="st6"/>
			</g>
			<g id="shape764-285" v:mID="764" v:groupContext="shape">
				<title>工作表.764</title>
				<path d="M0 679.18 L60.05 679.18 L60.05 680.07 L60.94 678.29 L60.05 676.52 L60.05 677.4 L0 677.4 L0 679.18"
						class="st7"/>
			</g>
			<g id="shape765-288" v:mID="765" v:groupContext="shape" transform="translate(-0.781408,-0.902723)">
				<title>工作表.765</title>
				<rect x="0" y="678.323" width="0.343982" height="1.74532" class="st8"/>
			</g>
		</g>
		<g id="group766-290" transform="translate(1265.64,739.998) rotate(112.88)" v:mID="766" v:groupContext="group">
			<v:userDefs>
				<v:ud v:nameU="visVersion" v:val="VT0(15):26"/>
			</v:userDefs>
			<title>一维单向箭头.766</title>
			<g id="shape767-291" v:mID="767" v:groupContext="shape">
				<title>工作表.767</title>
				<path d="M0 679.18 L59.33 679.18 L59.33 680.07 L60.21 678.29 L59.33 676.52 L59.33 677.4 L0 677.4 L0 679.18 Z"
						class="st5"/>
				<path d="M0 679.18 L59.33 679.18 L59.33 680.07 L60.21 678.29 L59.33 676.52 L59.33 677.4 L0 677.4" class="st6"/>
			</g>
			<g id="shape768-294" v:mID="768" v:groupContext="shape">
				<title>工作表.768</title>
				<path d="M0 679.18 L59.33 679.18 L59.33 680.07 L60.21 678.29 L59.33 676.52 L59.33 677.4 L0 677.4 L0 679.18"
						class="st7"/>
			</g>
			<g id="shape769-297" v:mID="769" v:groupContext="shape" transform="translate(-0.772077,-0.902723)">
				<title>工作表.769</title>
				<rect x="0" y="678.323" width="0.339875" height="1.74532" class="st8"/>
			</g>
		</g>
		<g id="group770-299" transform="translate(988.663,920.429) rotate(120.409)" v:mID="770" v:groupContext="group">
			<v:userDefs>
				<v:ud v:nameU="visVersion" v:val="VT0(15):26"/>
			</v:userDefs>
			<title>一维单向箭头.770</title>
			<g id="shape771-300" v:mID="771" v:groupContext="shape">
				<title>工作表.771</title>
				<path d="M0 679.18 L63.44 679.18 L63.44 680.07 L64.33 678.29 L63.44 676.52 L63.44 677.4 L0 677.4 L0 679.18 Z"
						class="st5"/>
				<path d="M0 679.18 L63.44 679.18 L63.44 680.07 L64.33 678.29 L63.44 676.52 L63.44 677.4 L0 677.4" class="st6"/>
			</g>
			<g id="shape772-303" v:mID="772" v:groupContext="shape">
				<title>工作表.772</title>
				<path d="M0 679.18 L63.44 679.18 L63.44 680.07 L64.33 678.29 L63.44 676.52 L63.44 677.4 L0 677.4 L0 679.18"
						class="st7"/>
			</g>
			<g id="shape773-306" v:mID="773" v:groupContext="shape" transform="translate(-0.824795,-0.902723)">
				<title>工作表.773</title>
				<rect x="0" y="678.323" width="0.363081" height="1.74532" class="st8"/>
			</g>
		</g>
	</g>
</svg>
