<?xml version="1.0" encoding="UTF-8" standalone="no"?>
<!DOCTYPE svg PUBLIC "-//W3C//DTD SVG 1.1//EN" "http://www.w3.org/Graphics/SVG/1.1/DTD/svg11.dtd">
<!-- 由 Microsoft Visio, SVG Export 生成 LeftistTree4.svg 页-1 -->
<svg xmlns="http://www.w3.org/2000/svg" xmlns:xlink="http://www.w3.org/1999/xlink" xmlns:ev="http://www.w3.org/2001/xml-events"
		xmlns:v="http://schemas.microsoft.com/visio/2003/SVGExtensions/" width="9.91143in" height="7.94392in"
		viewBox="0 0 713.623 571.962" xml:space="preserve" color-interpolation-filters="sRGB" class="st10">
	<v:documentProperties v:langID="2052" v:metric="true" v:viewMarkup="false"/>

	<style type="text/css">
	<![CDATA[
		.st1 {fill:#ffffff;stroke:#000000;stroke-linecap:round;stroke-linejoin:round;stroke-width:0.75}
		.st2 {fill:#000000;font-family:Cambria Math;font-size:1.5em}
		.st3 {font-size:1em}
		.st4 {fill:#4bacc6;stroke:#000000;stroke-linecap:round;stroke-linejoin:round;stroke-width:0.75}
		.st5 {fill:#ffffff}
		.st6 {stroke:none;stroke-linecap:round;stroke-linejoin:round;stroke-width:0.75}
		.st7 {stroke:#000000;stroke-linecap:round;stroke-linejoin:round;stroke-width:0.24}
		.st8 {fill:#ffffff;stroke:none;stroke-linecap:round;stroke-linejoin:round;stroke-width:0.24;visibility:hidden}
		.st9 {fill:#4bacc6}
		.st10 {fill:none;fill-rule:evenodd;font-size:12px;overflow:visible;stroke-linecap:square;stroke-miterlimit:3}
	]]>
	</style>

	<g v:mID="0" v:index="1" v:groupContext="foregroundPage">
		<title>页-1</title>
		<v:pageProperties v:drawingScale="0.0393701" v:pageScale="0.0393701" v:drawingUnits="24" v:shadowOffsetX="8.50394"
				v:shadowOffsetY="-8.50394"/>
		<g id="shape423-1" v:mID="423" v:groupContext="shape" transform="translate(180.485,-524.47)">
			<title>矩形.423</title>
			<desc>6 2</desc>
			<v:userDefs>
				<v:ud v:nameU="visVersion" v:val="VT0(15):26"/>
			</v:userDefs>
			<v:textBlock v:margins="rect(4,4,4,4)" v:tabSpace="42.5197"/>
			<v:textRect cx="16.624" cy="548.404" width="33.25" height="47.1178"/>
			<rect x="0" y="524.845" width="33.2481" height="47.1178" class="st1"/>
			<text x="11.64" y="543" class="st2" v:langID="2052"><v:paragraph v:horizAlign="1"/><v:tabList/>6<v:newlineChar/><tspan
						x="11.64" dy="1.2em" class="st3">2</tspan></text>		</g>
		<g id="shape424-5" v:mID="424" v:groupContext="shape" transform="translate(324.986,-423.938)">
			<title>矩形.424</title>
			<desc>7 2</desc>
			<v:userDefs>
				<v:ud v:nameU="visVersion" v:val="VT0(15):26"/>
			</v:userDefs>
			<v:textBlock v:margins="rect(4,4,4,4)" v:tabSpace="42.5197"/>
			<v:textRect cx="16.624" cy="548.404" width="33.25" height="47.1178"/>
			<rect x="0" y="524.845" width="33.2481" height="47.1178" class="st4"/>
			<text x="11.64" y="543" class="st2" v:langID="2052"><v:paragraph v:horizAlign="1"/><v:tabList/>7<v:newlineChar/><tspan
						x="11.64" dy="1.2em" class="st3">2</tspan></text>		</g>
		<g id="shape425-9" v:mID="425" v:groupContext="shape" transform="translate(85.856,-423.938)">
			<title>矩形.425</title>
			<desc>11 2</desc>
			<v:userDefs>
				<v:ud v:nameU="visVersion" v:val="VT0(15):26"/>
			</v:userDefs>
			<v:textBlock v:margins="rect(4,4,4,4)" v:tabSpace="42.5197"/>
			<v:textRect cx="16.624" cy="548.404" width="33.25" height="47.1178"/>
			<rect x="0" y="524.845" width="33.2481" height="47.1178" class="st1"/>
			<text x="6.66" y="543" class="st2" v:langID="2052"><v:paragraph v:horizAlign="1"/><v:tabList/>11<v:newlineChar/><tspan
						x="11.64" dy="1.2em" class="st3">2</tspan></text>		</g>
		<g id="shape426-13" v:mID="426" v:groupContext="shape" transform="translate(388.293,-309.98)">
			<title>矩形.426</title>
			<desc>8 1</desc>
			<v:userDefs>
				<v:ud v:nameU="visVersion" v:val="VT0(15):26"/>
			</v:userDefs>
			<v:textBlock v:margins="rect(4,4,4,4)" v:tabSpace="42.5197"/>
			<v:textRect cx="16.624" cy="548.404" width="33.25" height="47.1178"/>
			<rect x="0" y="524.845" width="33.2481" height="47.1178" class="st4"/>
			<text x="11.64" y="543" class="st2" v:langID="2052"><v:paragraph v:horizAlign="1"/><v:tabList/>8<v:newlineChar/><tspan
						x="11.64" dy="1.2em" class="st3">1</tspan></text>		</g>
		<g id="group427-17" transform="translate(477.385,544.04) rotate(150.557)" v:mID="427" v:groupContext="group">
			<v:userDefs>
				<v:ud v:nameU="visVersion" v:val="VT0(15):26"/>
			</v:userDefs>
			<title>一维单向箭头.427</title>
			<g id="shape428-18" v:mID="428" v:groupContext="shape">
				<title>工作表.428</title>
				<path d="M0 571.07 L107.78 571.07 L107.78 571.96 L108.66 570.19 L107.78 568.41 L107.78 569.3 L0 569.3 L0 571.07 Z"
						class="st5"/>
				<path d="M0 571.07 L107.78 571.07 L107.78 571.96 L108.66 570.19 L107.78 568.41 L107.78 569.3 L0 569.3" class="st6"/>
			</g>
			<g id="shape429-21" v:mID="429" v:groupContext="shape">
				<title>工作表.429</title>
				<path d="M0 571.07 L107.78 571.07 L107.78 571.96 L108.66 570.19 L107.78 568.41 L107.78 569.3 L0 569.3 L0 571.07"
						class="st7"/>
			</g>
			<g id="shape430-24" v:mID="430" v:groupContext="shape" transform="translate(-1.3933,-0.902723)">
				<title>工作表.430</title>
				<rect x="0" y="570.217" width="0.613342" height="1.74532" class="st8"/>
			</g>
		</g>
		<g id="group431-26" transform="translate(394.799,-487.327) rotate(20.2863)" v:mID="431" v:groupContext="group">
			<v:userDefs>
				<v:ud v:nameU="visVersion" v:val="VT0(15):26"/>
			</v:userDefs>
			<title>一维单向箭头.431</title>
			<g id="shape432-27" v:mID="432" v:groupContext="shape">
				<title>工作表.432</title>
				<path d="M0 571.07 L153.17 571.07 L153.17 571.96 L154.06 570.19 L153.17 568.41 L153.17 569.3 L0 569.3 L0 571.07 Z"
						class="st9"/>
				<path d="M0 571.07 L153.17 571.07 L153.17 571.96 L154.06 570.19 L153.17 568.41 L153.17 569.3 L0 569.3" class="st6"/>
			</g>
			<g id="shape433-30" v:mID="433" v:groupContext="shape">
				<title>工作表.433</title>
				<path d="M0 571.07 L153.17 571.07 L153.17 571.96 L154.06 570.19 L153.17 568.41 L153.17 569.3 L0 569.3 L0 571.07"
						class="st7"/>
			</g>
			<g id="shape434-33" v:mID="434" v:groupContext="shape" transform="translate(-1.97535,-0.902723)">
				<title>工作表.434</title>
				<rect x="0" y="570.217" width="0.869567" height="1.74532" class="st8"/>
			</g>
		</g>
		<g id="shape435-35" v:mID="435" v:groupContext="shape" transform="translate(257.759,-309.98)">
			<title>矩形.435</title>
			<desc>9 1</desc>
			<v:userDefs>
				<v:ud v:nameU="visVersion" v:val="VT0(15):26"/>
			</v:userDefs>
			<v:textBlock v:margins="rect(4,4,4,4)" v:tabSpace="42.5197"/>
			<v:textRect cx="16.624" cy="548.404" width="33.25" height="47.1178"/>
			<rect x="0" y="524.845" width="33.2481" height="47.1178" class="st1"/>
			<text x="11.64" y="543" class="st2" v:langID="2052"><v:paragraph v:horizAlign="1"/><v:tabList/>9<v:newlineChar/><tspan
						x="11.64" dy="1.2em" class="st3">1</tspan></text>		</g>
		<g id="group436-39" transform="translate(743.63,552.368) rotate(135.165)" v:mID="436" v:groupContext="group">
			<v:userDefs>
				<v:ud v:nameU="visVersion" v:val="VT0(15):26"/>
			</v:userDefs>
			<title>一维单向箭头.436</title>
			<g id="shape437-40" v:mID="437" v:groupContext="shape">
				<title>工作表.437</title>
				<path d="M0 571.07 L93.91 571.07 L93.91 571.96 L94.8 570.19 L93.91 568.41 L93.91 569.3 L0 569.3 L0 571.07 Z"
						class="st5"/>
				<path d="M0 571.07 L93.91 571.07 L93.91 571.96 L94.8 570.19 L93.91 568.41 L93.91 569.3 L0 569.3" class="st6"/>
			</g>
			<g id="shape438-43" v:mID="438" v:groupContext="shape">
				<title>工作表.438</title>
				<path d="M0 571.07 L93.91 571.07 L93.91 571.96 L94.8 570.19 L93.91 568.41 L93.91 569.3 L0 569.3 L0 571.07"
						class="st7"/>
			</g>
			<g id="shape439-46" v:mID="439" v:groupContext="shape" transform="translate(-1.21555,-0.902723)">
				<title>工作表.439</title>
				<rect x="0" y="570.217" width="0.535095" height="1.74532" class="st8"/>
			</g>
		</g>
		<g id="shape440-48" v:mID="440" v:groupContext="shape" transform="translate(614.193,-303.395)">
			<title>矩形.440</title>
			<desc>12 1</desc>
			<v:userDefs>
				<v:ud v:nameU="visVersion" v:val="VT0(15):26"/>
			</v:userDefs>
			<v:textBlock v:margins="rect(4,4,4,4)" v:tabSpace="42.5197"/>
			<v:textRect cx="16.624" cy="548.404" width="33.25" height="47.1178"/>
			<rect x="0" y="524.845" width="33.2481" height="47.1178" class="st1"/>
			<text x="6.66" y="543" class="st2" v:langID="2052"><v:paragraph v:horizAlign="1"/><v:tabList/>12<v:newlineChar/><tspan
						x="11.64" dy="1.2em" class="st3">1</tspan></text>		</g>
		<g id="group441-52" transform="translate(755.589,-244.066) rotate(46.5555)" v:mID="441" v:groupContext="group">
			<v:userDefs>
				<v:ud v:nameU="visVersion" v:val="VT0(15):26"/>
			</v:userDefs>
			<title>一维单向箭头.441</title>
			<g id="shape442-53" v:mID="442" v:groupContext="shape">
				<title>工作表.442</title>
				<path d="M0 571.07 L91.17 571.07 L91.17 571.96 L92.06 570.19 L91.17 568.41 L91.17 569.3 L0 569.3 L0 571.07 Z"
						class="st9"/>
				<path d="M0 571.07 L91.17 571.07 L91.17 571.96 L92.06 570.19 L91.17 568.41 L91.17 569.3 L0 569.3" class="st6"/>
			</g>
			<g id="shape443-56" v:mID="443" v:groupContext="shape">
				<title>工作表.443</title>
				<path d="M0 571.07 L91.17 571.07 L91.17 571.96 L92.06 570.19 L91.17 568.41 L91.17 569.3 L0 569.3 L0 571.07"
						class="st7"/>
			</g>
			<g id="shape444-59" v:mID="444" v:groupContext="shape" transform="translate(-1.18043,-0.902723)">
				<title>工作表.444</title>
				<rect x="0" y="570.217" width="0.519636" height="1.74532" class="st8"/>
			</g>
		</g>
		<g id="shape445-61" v:mID="445" v:groupContext="shape" transform="translate(39.7218,-309.98)">
			<title>矩形.445</title>
			<desc>17 1</desc>
			<v:userDefs>
				<v:ud v:nameU="visVersion" v:val="VT0(15):26"/>
			</v:userDefs>
			<v:textBlock v:margins="rect(4,4,4,4)" v:tabSpace="42.5197"/>
			<v:textRect cx="16.624" cy="548.404" width="33.25" height="47.1178"/>
			<rect x="0" y="524.845" width="33.2481" height="47.1178" class="st1"/>
			<text x="6.66" y="543" class="st2" v:langID="2052"><v:paragraph v:horizAlign="1"/><v:tabList/>17<v:newlineChar/><tspan
						x="11.64" dy="1.2em" class="st3">1</tspan></text>		</g>
		<g id="shape446-65" v:mID="446" v:groupContext="shape" transform="translate(122.153,-309.98)">
			<title>矩形.446</title>
			<desc>14 1</desc>
			<v:userDefs>
				<v:ud v:nameU="visVersion" v:val="VT0(15):26"/>
			</v:userDefs>
			<v:textBlock v:margins="rect(4,4,4,4)" v:tabSpace="42.5197"/>
			<v:textRect cx="16.624" cy="548.404" width="33.25" height="47.1178"/>
			<rect x="0" y="524.845" width="33.2481" height="47.1178" class="st1"/>
			<text x="6.66" y="543" class="st2" v:langID="2052"><v:paragraph v:horizAlign="1"/><v:tabList/>14<v:newlineChar/><tspan
						x="11.64" dy="1.2em" class="st3">1</tspan></text>		</g>
		<g id="group447-69" transform="translate(571.743,471.915) rotate(124.614)" v:mID="447" v:groupContext="group">
			<v:userDefs>
				<v:ud v:nameU="visVersion" v:val="VT0(15):26"/>
			</v:userDefs>
			<title>一维单向箭头.447</title>
			<g id="shape448-70" v:mID="448" v:groupContext="shape">
				<title>工作表.448</title>
				<path d="M0 571.07 L80.33 571.07 L80.33 571.96 L81.22 570.19 L80.33 568.41 L80.33 569.3 L0 569.3 L0 571.07 Z"
						class="st5"/>
				<path d="M0 571.07 L80.33 571.07 L80.33 571.96 L81.22 570.19 L80.33 568.41 L80.33 569.3 L0 569.3" class="st6"/>
			</g>
			<g id="shape449-73" v:mID="449" v:groupContext="shape">
				<title>工作表.449</title>
				<path d="M0 571.07 L80.33 571.07 L80.33 571.96 L81.22 570.19 L80.33 568.41 L80.33 569.3 L0 569.3 L0 571.07"
						class="st7"/>
			</g>
			<g id="shape450-76" v:mID="450" v:groupContext="shape" transform="translate(-1.04137,-0.902723)">
				<title>工作表.450</title>
				<rect x="0" y="570.217" width="0.458418" height="1.74532" class="st8"/>
			</g>
		</g>
		<g id="group451-78" transform="translate(603.551,-124.081) rotate(61.496)" v:mID="451" v:groupContext="group">
			<v:userDefs>
				<v:ud v:nameU="visVersion" v:val="VT0(15):26"/>
			</v:userDefs>
			<title>一维单向箭头.451</title>
			<g id="shape452-79" v:mID="452" v:groupContext="shape">
				<title>工作表.452</title>
				<path d="M0 571.07 L75.17 571.07 L75.17 571.96 L76.06 570.19 L75.17 568.41 L75.17 569.3 L0 569.3 L0 571.07 Z"
						class="st5"/>
				<path d="M0 571.07 L75.17 571.07 L75.17 571.96 L76.06 570.19 L75.17 568.41 L75.17 569.3 L0 569.3" class="st6"/>
			</g>
			<g id="shape453-82" v:mID="453" v:groupContext="shape">
				<title>工作表.453</title>
				<path d="M0 571.07 L75.17 571.07 L75.17 571.96 L76.06 570.19 L75.17 568.41 L75.17 569.3 L0 569.3 L0 571.07"
						class="st7"/>
			</g>
			<g id="shape454-85" v:mID="454" v:groupContext="shape" transform="translate(-0.97526,-0.902723)">
				<title>工作表.454</title>
				<rect x="0" y="570.217" width="0.429317" height="1.74532" class="st8"/>
			</g>
		</g>
		<g id="shape455-87" v:mID="455" v:groupContext="shape" transform="translate(0.375,-203.695)">
			<title>矩形.455</title>
			<desc>18 0</desc>
			<v:userDefs>
				<v:ud v:nameU="visVersion" v:val="VT0(15):26"/>
			</v:userDefs>
			<v:textBlock v:margins="rect(4,4,4,4)" v:tabSpace="42.5197"/>
			<v:textRect cx="16.624" cy="548.404" width="33.25" height="47.1178"/>
			<rect x="0" y="524.845" width="33.2481" height="47.1178" class="st1"/>
			<text x="6.66" y="543" class="st2" v:langID="2052"><v:paragraph v:horizAlign="1"/><v:tabList/>18<v:newlineChar/><tspan
						x="11.64" dy="1.2em" class="st3">0</tspan></text>		</g>
		<g id="shape456-91" v:mID="456" v:groupContext="shape" transform="translate(48.0338,-203.695)">
			<title>矩形.456</title>
			<desc>20 0</desc>
			<v:userDefs>
				<v:ud v:nameU="visVersion" v:val="VT0(15):26"/>
			</v:userDefs>
			<v:textBlock v:margins="rect(4,4,4,4)" v:tabSpace="42.5197"/>
			<v:textRect cx="16.624" cy="548.404" width="33.25" height="47.1178"/>
			<rect x="0" y="524.845" width="33.2481" height="47.1178" class="st1"/>
			<text x="6.66" y="543" class="st2" v:langID="2052"><v:paragraph v:horizAlign="1"/><v:tabList/>20<v:newlineChar/><tspan
						x="11.64" dy="1.2em" class="st3">0</tspan></text>		</g>
		<g id="group457-95" transform="translate(531.134,577.718) rotate(123.624)" v:mID="457" v:groupContext="group">
			<v:userDefs>
				<v:ud v:nameU="visVersion" v:val="VT0(15):26"/>
			</v:userDefs>
			<title>一维单向箭头.457</title>
			<g id="shape458-96" v:mID="458" v:groupContext="shape">
				<title>工作表.458</title>
				<path d="M0 571.07 L70.17 571.07 L70.17 571.96 L71.06 570.19 L70.17 568.41 L70.17 569.3 L0 569.3 L0 571.07 Z"
						class="st5"/>
				<path d="M0 571.07 L70.17 571.07 L70.17 571.96 L71.06 570.19 L70.17 568.41 L70.17 569.3 L0 569.3" class="st6"/>
			</g>
			<g id="shape459-99" v:mID="459" v:groupContext="shape">
				<title>工作表.459</title>
				<path d="M0 571.07 L70.17 571.07 L70.17 571.96 L71.06 570.19 L70.17 568.41 L70.17 569.3 L0 569.3 L0 571.07"
						class="st7"/>
			</g>
			<g id="shape460-102" v:mID="460" v:groupContext="shape" transform="translate(-0.9111,-0.902723)">
				<title>工作表.460</title>
				<rect x="0" y="570.217" width="0.401073" height="1.74532" class="st8"/>
			</g>
		</g>
		<g id="group461-104" transform="translate(620.988,182.66) rotate(82.0033)" v:mID="461" v:groupContext="group">
			<v:userDefs>
				<v:ud v:nameU="visVersion" v:val="VT0(15):26"/>
			</v:userDefs>
			<title>一维单向箭头.461</title>
			<g id="shape462-105" v:mID="462" v:groupContext="shape">
				<title>工作表.462</title>
				<path d="M0 571.07 L58.86 571.07 L58.86 571.96 L59.75 570.19 L58.86 568.41 L58.86 569.3 L0 569.3 L0 571.07 Z"
						class="st5"/>
				<path d="M0 571.07 L58.86 571.07 L58.86 571.96 L59.75 570.19 L58.86 568.41 L58.86 569.3 L0 569.3" class="st6"/>
			</g>
			<g id="shape463-108" v:mID="463" v:groupContext="shape">
				<title>工作表.463</title>
				<path d="M0 571.07 L58.86 571.07 L58.86 571.96 L59.75 570.19 L58.86 568.41 L58.86 569.3 L0 569.3 L0 571.07"
						class="st7"/>
			</g>
			<g id="shape464-111" v:mID="464" v:groupContext="shape" transform="translate(-0.766112,-0.902723)">
				<title>工作表.464</title>
				<rect x="0" y="570.217" width="0.337249" height="1.74532" class="st8"/>
			</g>
		</g>
		<g id="shape465-113" v:mID="465" v:groupContext="shape" transform="translate(95.6927,-203.695)">
			<title>矩形.465</title>
			<desc>19 0</desc>
			<v:userDefs>
				<v:ud v:nameU="visVersion" v:val="VT0(15):26"/>
			</v:userDefs>
			<v:textBlock v:margins="rect(4,4,4,4)" v:tabSpace="42.5197"/>
			<v:textRect cx="16.624" cy="548.404" width="33.25" height="47.1178"/>
			<rect x="0" y="524.845" width="33.2481" height="47.1178" class="st1"/>
			<text x="6.66" y="543" class="st2" v:langID="2052"><v:paragraph v:horizAlign="1"/><v:tabList/>19<v:newlineChar/><tspan
						x="11.64" dy="1.2em" class="st3">0</tspan></text>		</g>
		<g id="shape466-117" v:mID="466" v:groupContext="shape" transform="translate(138.089,-203.695)">
			<title>矩形.466</title>
			<desc>24 0</desc>
			<v:userDefs>
				<v:ud v:nameU="visVersion" v:val="VT0(15):26"/>
			</v:userDefs>
			<v:textBlock v:margins="rect(4,4,4,4)" v:tabSpace="42.5197"/>
			<v:textRect cx="16.624" cy="548.404" width="33.25" height="47.1178"/>
			<rect x="0" y="524.845" width="33.2481" height="47.1178" class="st1"/>
			<text x="6.66" y="543" class="st2" v:langID="2052"><v:paragraph v:horizAlign="1"/><v:tabList/>24<v:newlineChar/><tspan
						x="11.64" dy="1.2em" class="st3">0</tspan></text>		</g>
		<g id="group467-121" transform="translate(659.284,494.761) rotate(114.095)" v:mID="467" v:groupContext="group">
			<v:userDefs>
				<v:ud v:nameU="visVersion" v:val="VT0(15):26"/>
			</v:userDefs>
			<title>一维单向箭头.467</title>
			<g id="shape468-122" v:mID="468" v:groupContext="shape">
				<title>工作表.468</title>
				<path d="M0 571.07 L63.93 571.07 L63.93 571.96 L64.82 570.19 L63.93 568.41 L63.93 569.3 L0 569.3 L0 571.07 Z"
						class="st5"/>
				<path d="M0 571.07 L63.93 571.07 L63.93 571.96 L64.82 570.19 L63.93 568.41 L63.93 569.3 L0 569.3" class="st6"/>
			</g>
			<g id="shape469-125" v:mID="469" v:groupContext="shape">
				<title>工作表.469</title>
				<path d="M0 571.07 L63.93 571.07 L63.93 571.96 L64.82 570.19 L63.93 568.41 L63.93 569.3 L0 569.3 L0 571.07"
						class="st7"/>
			</g>
			<g id="shape470-128" v:mID="470" v:groupContext="shape" transform="translate(-0.831074,-0.902723)">
				<title>工作表.470</title>
				<rect x="0" y="570.217" width="0.365845" height="1.74532" class="st8"/>
			</g>
		</g>
		<g id="group471-130" transform="translate(689.346,113.699) rotate(74.9264)" v:mID="471" v:groupContext="group">
			<v:userDefs>
				<v:ud v:nameU="visVersion" v:val="VT0(15):26"/>
			</v:userDefs>
			<title>一维单向箭头.471</title>
			<g id="shape472-131" v:mID="472" v:groupContext="shape">
				<title>工作表.472</title>
				<path d="M0 571.07 L60.39 571.07 L60.39 571.96 L61.28 570.19 L60.39 568.41 L60.39 569.3 L0 569.3 L0 571.07 Z"
						class="st5"/>
				<path d="M0 571.07 L60.39 571.07 L60.39 571.96 L61.28 570.19 L60.39 568.41 L60.39 569.3 L0 569.3" class="st6"/>
			</g>
			<g id="shape473-134" v:mID="473" v:groupContext="shape">
				<title>工作表.473</title>
				<path d="M0 571.07 L60.39 571.07 L60.39 571.96 L61.28 570.19 L60.39 568.41 L60.39 569.3 L0 569.3 L0 571.07"
						class="st7"/>
			</g>
			<g id="shape474-137" v:mID="474" v:groupContext="shape" transform="translate(-0.785696,-0.902723)">
				<title>工作表.474</title>
				<rect x="0" y="570.217" width="0.34587" height="1.74532" class="st8"/>
			</g>
		</g>
		<g id="shape475-139" v:mID="475" v:groupContext="shape" transform="translate(347.709,-203.695)">
			<title>矩形.475</title>
			<desc>10 1</desc>
			<v:userDefs>
				<v:ud v:nameU="visVersion" v:val="VT0(15):26"/>
			</v:userDefs>
			<v:textBlock v:margins="rect(4,4,4,4)" v:tabSpace="42.5197"/>
			<v:textRect cx="16.624" cy="548.404" width="33.25" height="47.1178"/>
			<rect x="0" y="524.845" width="33.2481" height="47.1178" class="st1"/>
			<text x="6.66" y="543" class="st2" v:langID="2052"><v:paragraph v:horizAlign="1"/><v:tabList/>10<v:newlineChar/><tspan
						x="11.64" dy="1.2em" class="st3">1</tspan></text>		</g>
		<g id="shape476-143" v:mID="476" v:groupContext="shape" transform="translate(426.403,-203.695)">
			<title>矩形.476</title>
			<desc>13 0</desc>
			<v:userDefs>
				<v:ud v:nameU="visVersion" v:val="VT0(15):26"/>
			</v:userDefs>
			<v:textBlock v:margins="rect(4,4,4,4)" v:tabSpace="42.5197"/>
			<v:textRect cx="16.624" cy="548.404" width="33.25" height="47.1178"/>
			<rect x="0" y="524.845" width="33.2481" height="47.1178" class="st1"/>
			<text x="6.66" y="543" class="st2" v:langID="2052"><v:paragraph v:horizAlign="1"/><v:tabList/>13<v:newlineChar/><tspan
						x="11.64" dy="1.2em" class="st3">0</tspan></text>		</g>
		<g id="group477-147" transform="translate(875.125,584.5) rotate(124.446)" v:mID="477" v:groupContext="group">
			<v:userDefs>
				<v:ud v:nameU="visVersion" v:val="VT0(15):26"/>
			</v:userDefs>
			<title>一维单向箭头.477</title>
			<g id="shape478-148" v:mID="478" v:groupContext="shape">
				<title>工作表.478</title>
				<path d="M0 571.07 L70.86 571.07 L70.86 571.96 L71.75 570.19 L70.86 568.41 L70.86 569.3 L0 569.3 L0 571.07 Z"
						class="st5"/>
				<path d="M0 571.07 L70.86 571.07 L70.86 571.96 L71.75 570.19 L70.86 568.41 L70.86 569.3 L0 569.3" class="st6"/>
			</g>
			<g id="shape479-151" v:mID="479" v:groupContext="shape">
				<title>工作表.479</title>
				<path d="M0 571.07 L70.86 571.07 L70.86 571.96 L71.75 570.19 L70.86 568.41 L70.86 569.3 L0 569.3 L0 571.07"
						class="st7"/>
			</g>
			<g id="shape480-154" v:mID="480" v:groupContext="shape" transform="translate(-0.919975,-0.902723)">
				<title>工作表.480</title>
				<rect x="0" y="570.217" width="0.40498" height="1.74532" class="st8"/>
			</g>
		</g>
		<g id="group481-156" transform="translate(884.274,-46.7735) rotate(57.2143)" v:mID="481" v:groupContext="group">
			<v:userDefs>
				<v:ud v:nameU="visVersion" v:val="VT0(15):26"/>
			</v:userDefs>
			<title>一维单向箭头.481</title>
			<g id="shape482-157" v:mID="482" v:groupContext="shape">
				<title>工作表.482</title>
				<path d="M0 571.07 L69.49 571.07 L69.49 571.96 L70.38 570.19 L69.49 568.41 L69.49 569.3 L0 569.3 L0 571.07 Z"
						class="st5"/>
				<path d="M0 571.07 L69.49 571.07 L69.49 571.96 L70.38 570.19 L69.49 568.41 L69.49 569.3 L0 569.3" class="st6"/>
			</g>
			<g id="shape483-160" v:mID="483" v:groupContext="shape">
				<title>工作表.483</title>
				<path d="M0 571.07 L69.49 571.07 L69.49 571.96 L70.38 570.19 L69.49 568.41 L69.49 569.3 L0 569.3 L0 571.07"
						class="st7"/>
			</g>
			<g id="shape484-163" v:mID="484" v:groupContext="shape" transform="translate(-0.902416,-0.902723)">
				<title>工作表.484</title>
				<rect x="0" y="570.217" width="0.397251" height="1.74532" class="st8"/>
			</g>
		</g>
		<g id="shape485-165" v:mID="485" v:groupContext="shape" transform="translate(309.599,-97.4581)">
			<title>矩形.485</title>
			<desc>15 0</desc>
			<v:userDefs>
				<v:ud v:nameU="visVersion" v:val="VT0(15):26"/>
			</v:userDefs>
			<v:textBlock v:margins="rect(4,4,4,4)" v:tabSpace="42.5197"/>
			<v:textRect cx="16.624" cy="548.404" width="33.25" height="47.1178"/>
			<rect x="0" y="524.845" width="33.2481" height="47.1178" class="st1"/>
			<text x="6.66" y="543" class="st2" v:langID="2052"><v:paragraph v:horizAlign="1"/><v:tabList/>15<v:newlineChar/><tspan
						x="11.64" dy="1.2em" class="st3">0</tspan></text>		</g>
		<g id="shape486-169" v:mID="486" v:groupContext="shape" transform="translate(368.619,-97.4581)">
			<title>矩形.486</title>
			<desc>30 0</desc>
			<v:userDefs>
				<v:ud v:nameU="visVersion" v:val="VT0(15):26"/>
			</v:userDefs>
			<v:textBlock v:margins="rect(4,4,4,4)" v:tabSpace="42.5197"/>
			<v:textRect cx="16.624" cy="548.404" width="33.25" height="47.1178"/>
			<rect x="0" y="524.845" width="33.2481" height="47.1178" class="st1"/>
			<text x="6.66" y="543" class="st2" v:langID="2052"><v:paragraph v:horizAlign="1"/><v:tabList/>30<v:newlineChar/><tspan
						x="11.64" dy="1.2em" class="st3">0</tspan></text>		</g>
		<g id="group487-173" transform="translate(843.573,677.205) rotate(122.807)" v:mID="487" v:groupContext="group">
			<v:userDefs>
				<v:ud v:nameU="visVersion" v:val="VT0(15):26"/>
			</v:userDefs>
			<title>一维单向箭头.487</title>
			<g id="shape488-174" v:mID="488" v:groupContext="shape">
				<title>工作表.488</title>
				<path d="M0 571.07 L69.45 571.07 L69.45 571.96 L70.34 570.19 L69.45 568.41 L69.45 569.3 L0 569.3 L0 571.07 Z"
						class="st5"/>
				<path d="M0 571.07 L69.45 571.07 L69.45 571.96 L70.34 570.19 L69.45 568.41 L69.45 569.3 L0 569.3" class="st6"/>
			</g>
			<g id="shape489-177" v:mID="489" v:groupContext="shape">
				<title>工作表.489</title>
				<path d="M0 571.07 L69.45 571.07 L69.45 571.96 L70.34 570.19 L69.45 568.41 L69.45 569.3 L0 569.3 L0 571.07"
						class="st7"/>
			</g>
			<g id="shape490-180" v:mID="490" v:groupContext="shape" transform="translate(-0.901886,-0.902723)">
				<title>工作表.490</title>
				<rect x="0" y="570.217" width="0.397018" height="1.74532" class="st8"/>
			</g>
		</g>
		<g id="group491-182" transform="translate(901.887,178.137) rotate(70.5215)" v:mID="491" v:groupContext="group">
			<v:userDefs>
				<v:ud v:nameU="visVersion" v:val="VT0(15):26"/>
			</v:userDefs>
			<title>一维单向箭头.491</title>
			<g id="shape492-183" v:mID="492" v:groupContext="shape">
				<title>工作表.492</title>
				<path d="M0 571.07 L61.82 571.07 L61.82 571.96 L62.71 570.19 L61.82 568.41 L61.82 569.3 L0 569.3 L0 571.07 Z"
						class="st5"/>
				<path d="M0 571.07 L61.82 571.07 L61.82 571.96 L62.71 570.19 L61.82 568.41 L61.82 569.3 L0 569.3" class="st6"/>
			</g>
			<g id="shape493-186" v:mID="493" v:groupContext="shape">
				<title>工作表.493</title>
				<path d="M0 571.07 L61.82 571.07 L61.82 571.96 L62.71 570.19 L61.82 568.41 L61.82 569.3 L0 569.3 L0 571.07"
						class="st7"/>
			</g>
			<g id="shape494-189" v:mID="494" v:groupContext="shape" transform="translate(-0.80405,-0.902723)">
				<title>工作表.494</title>
				<rect x="0" y="570.217" width="0.353949" height="1.74532" class="st8"/>
			</g>
		</g>
		<g id="shape495-191" v:mID="495" v:groupContext="shape" transform="translate(407.966,-97.4581)">
			<title>矩形.495</title>
			<desc>28 0</desc>
			<v:userDefs>
				<v:ud v:nameU="visVersion" v:val="VT0(15):26"/>
			</v:userDefs>
			<v:textBlock v:margins="rect(4,4,4,4)" v:tabSpace="42.5197"/>
			<v:textRect cx="16.624" cy="548.404" width="33.25" height="47.1178"/>
			<rect x="0" y="524.845" width="33.2481" height="47.1178" class="st1"/>
			<text x="6.66" y="543" class="st2" v:langID="2052"><v:paragraph v:horizAlign="1"/><v:tabList/>28<v:newlineChar/><tspan
						x="11.64" dy="1.2em" class="st3">0</tspan></text>		</g>
		<g id="group496-195" transform="translate(987.358,538.024) rotate(107.321)" v:mID="496" v:groupContext="group">
			<v:userDefs>
				<v:ud v:nameU="visVersion" v:val="VT0(15):26"/>
			</v:userDefs>
			<title>一维单向箭头.496</title>
			<g id="shape497-196" v:mID="497" v:groupContext="shape">
				<title>工作表.497</title>
				<path d="M0 571.07 L61.04 571.07 L61.04 571.96 L61.93 570.19 L61.04 568.41 L61.04 569.3 L0 569.3 L0 571.07 Z"
						class="st5"/>
				<path d="M0 571.07 L61.04 571.07 L61.04 571.96 L61.93 570.19 L61.04 568.41 L61.04 569.3 L0 569.3" class="st6"/>
			</g>
			<g id="shape498-199" v:mID="498" v:groupContext="shape">
				<title>工作表.498</title>
				<path d="M0 571.07 L61.04 571.07 L61.04 571.96 L61.93 570.19 L61.04 568.41 L61.04 569.3 L0 569.3 L0 571.07"
						class="st7"/>
			</g>
			<g id="shape499-202" v:mID="499" v:groupContext="shape" transform="translate(-0.794039,-0.902723)">
				<title>工作表.499</title>
				<rect x="0" y="570.217" width="0.349542" height="1.74532" class="st8"/>
			</g>
		</g>
		<g id="shape500-204" v:mID="500" v:groupContext="shape" transform="translate(519.563,-98.7421)">
			<title>矩形.500</title>
			<desc>42 0</desc>
			<v:userDefs>
				<v:ud v:nameU="visVersion" v:val="VT0(15):26"/>
			</v:userDefs>
			<v:textBlock v:margins="rect(4,4,4,4)" v:tabSpace="42.5197"/>
			<v:textRect cx="16.624" cy="548.404" width="33.25" height="47.1178"/>
			<rect x="0" y="524.845" width="33.2481" height="47.1178" class="st1"/>
			<text x="6.66" y="543" class="st2" v:langID="2052"><v:paragraph v:horizAlign="1"/><v:tabList/>42<v:newlineChar/><tspan
						x="11.64" dy="1.2em" class="st3">0</tspan></text>		</g>
		<g id="shape501-208" v:mID="501" v:groupContext="shape" transform="translate(597.569,-98.7421)">
			<title>矩形.501</title>
			<desc>33 0</desc>
			<v:userDefs>
				<v:ud v:nameU="visVersion" v:val="VT0(15):26"/>
			</v:userDefs>
			<v:textBlock v:margins="rect(4,4,4,4)" v:tabSpace="42.5197"/>
			<v:textRect cx="16.624" cy="548.404" width="33.25" height="47.1178"/>
			<rect x="0" y="524.845" width="33.2481" height="47.1178" class="st1"/>
			<text x="6.66" y="543" class="st2" v:langID="2052"><v:paragraph v:horizAlign="1"/><v:tabList/>33<v:newlineChar/><tspan
						x="11.64" dy="1.2em" class="st3">0</tspan></text>		</g>
		<g id="shape502-212" v:mID="502" v:groupContext="shape" transform="translate(490.053,-0.375)">
			<title>矩形.502</title>
			<desc>50 0</desc>
			<v:userDefs>
				<v:ud v:nameU="visVersion" v:val="VT0(15):26"/>
			</v:userDefs>
			<v:textBlock v:margins="rect(4,4,4,4)" v:tabSpace="42.5197"/>
			<v:textRect cx="16.624" cy="548.404" width="33.25" height="47.1178"/>
			<rect x="0" y="524.845" width="33.2481" height="47.1178" class="st1"/>
			<text x="6.66" y="543" class="st2" v:langID="2052"><v:paragraph v:horizAlign="1"/><v:tabList/>50<v:newlineChar/><tspan
						x="11.64" dy="1.2em" class="st3">0</tspan></text>		</g>
		<g id="shape503-216" v:mID="503" v:groupContext="shape" transform="translate(650.49,-98.7421)">
			<title>矩形.503</title>
			<desc>27 0</desc>
			<v:userDefs>
				<v:ud v:nameU="visVersion" v:val="VT0(15):26"/>
			</v:userDefs>
			<v:textBlock v:margins="rect(4,4,4,4)" v:tabSpace="42.5197"/>
			<v:textRect cx="16.624" cy="548.404" width="33.25" height="47.1178"/>
			<rect x="0" y="524.845" width="33.2481" height="47.1178" class="st1"/>
			<text x="6.66" y="543" class="st2" v:langID="2052"><v:paragraph v:horizAlign="1"/><v:tabList/>27<v:newlineChar/><tspan
						x="11.64" dy="1.2em" class="st3">0</tspan></text>		</g>
		<g id="shape504-220" v:mID="504" v:groupContext="shape" transform="translate(214.281,-203.695)">
			<title>矩形.504</title>
			<desc>21 0</desc>
			<v:userDefs>
				<v:ud v:nameU="visVersion" v:val="VT0(15):26"/>
			</v:userDefs>
			<v:textBlock v:margins="rect(4,4,4,4)" v:tabSpace="42.5197"/>
			<v:textRect cx="16.624" cy="548.404" width="33.25" height="47.1178"/>
			<rect x="0" y="524.845" width="33.2481" height="47.1178" class="st1"/>
			<text x="6.66" y="543" class="st2" v:langID="2052"><v:paragraph v:horizAlign="1"/><v:tabList/>21<v:newlineChar/><tspan
						x="11.64" dy="1.2em" class="st3">0</tspan></text>		</g>
		<g id="shape505-224" v:mID="505" v:groupContext="shape" transform="translate(290.474,-203.695)">
			<title>矩形.505</title>
			<desc>16 0</desc>
			<v:userDefs>
				<v:ud v:nameU="visVersion" v:val="VT0(15):26"/>
			</v:userDefs>
			<v:textBlock v:margins="rect(4,4,4,4)" v:tabSpace="42.5197"/>
			<v:textRect cx="16.624" cy="548.404" width="33.25" height="47.1178"/>
			<rect x="0" y="524.845" width="33.2481" height="47.1178" class="st1"/>
			<text x="6.66" y="543" class="st2" v:langID="2052"><v:paragraph v:horizAlign="1"/><v:tabList/>16<v:newlineChar/><tspan
						x="11.64" dy="1.2em" class="st3">0</tspan></text>		</g>
		<g id="shape506-228" v:mID="506" v:groupContext="shape" transform="translate(565.009,-197.109)">
			<title>矩形.506</title>
			<desc>31 1</desc>
			<v:userDefs>
				<v:ud v:nameU="visVersion" v:val="VT0(15):26"/>
			</v:userDefs>
			<v:textBlock v:margins="rect(4,4,4,4)" v:tabSpace="42.5197"/>
			<v:textRect cx="16.624" cy="548.404" width="33.25" height="47.1178"/>
			<rect x="0" y="524.845" width="33.2481" height="47.1178" class="st1"/>
			<text x="6.66" y="543" class="st2" v:langID="2052"><v:paragraph v:horizAlign="1"/><v:tabList/>31<v:newlineChar/><tspan
						x="11.64" dy="1.2em" class="st3">1</tspan></text>		</g>
		<g id="shape507-232" v:mID="507" v:groupContext="shape" transform="translate(680,-197.109)">
			<title>矩形.507</title>
			<desc>26 0</desc>
			<v:userDefs>
				<v:ud v:nameU="visVersion" v:val="VT0(15):26"/>
			</v:userDefs>
			<v:textBlock v:margins="rect(4,4,4,4)" v:tabSpace="42.5197"/>
			<v:textRect cx="16.624" cy="548.404" width="33.25" height="47.1178"/>
			<rect x="0" y="524.845" width="33.2481" height="47.1178" class="st1"/>
			<text x="6.66" y="543" class="st2" v:langID="2052"><v:paragraph v:horizAlign="1"/><v:tabList/>26<v:newlineChar/><tspan
						x="11.64" dy="1.2em" class="st3">0</tspan></text>		</g>
		<g id="group508-236" transform="translate(733.857,599.617) rotate(126.31)" v:mID="508" v:groupContext="group">
			<v:userDefs>
				<v:ud v:nameU="visVersion" v:val="VT0(15):26"/>
			</v:userDefs>
			<title>一维单向箭头.508</title>
			<g id="shape509-237" v:mID="509" v:groupContext="shape">
				<title>工作表.509</title>
				<path d="M0 571.07 L72.54 571.07 L72.54 571.96 L73.42 570.19 L72.54 568.41 L72.54 569.3 L0 569.3 L0 571.07 Z"
						class="st5"/>
				<path d="M0 571.07 L72.54 571.07 L72.54 571.96 L73.42 570.19 L72.54 568.41 L72.54 569.3 L0 569.3" class="st6"/>
			</g>
			<g id="shape510-240" v:mID="510" v:groupContext="shape">
				<title>工作表.510</title>
				<path d="M0 571.07 L72.54 571.07 L72.54 571.96 L73.42 570.19 L72.54 568.41 L72.54 569.3 L0 569.3 L0 571.07"
						class="st7"/>
			</g>
			<g id="shape511-243" v:mID="511" v:groupContext="shape" transform="translate(-0.941468,-0.902723)">
				<title>工作表.511</title>
				<rect x="0" y="570.217" width="0.414442" height="1.74532" class="st8"/>
			</g>
		</g>
		<g id="group512-245" transform="translate(773.377,-13.9132) rotate(61.0616)" v:mID="512" v:groupContext="group">
			<v:userDefs>
				<v:ud v:nameU="visVersion" v:val="VT0(15):26"/>
			</v:userDefs>
			<title>一维单向箭头.512</title>
			<g id="shape513-246" v:mID="513" v:groupContext="shape">
				<title>工作表.513</title>
				<path d="M0 571.07 L66.72 571.07 L66.72 571.96 L67.61 570.19 L66.72 568.41 L66.72 569.3 L0 569.3 L0 571.07 Z"
						class="st5"/>
				<path d="M0 571.07 L66.72 571.07 L66.72 571.96 L67.61 570.19 L66.72 568.41 L66.72 569.3 L0 569.3" class="st6"/>
			</g>
			<g id="shape514-249" v:mID="514" v:groupContext="shape">
				<title>工作表.514</title>
				<path d="M0 571.07 L66.72 571.07 L66.72 571.96 L67.61 570.19 L66.72 568.41 L66.72 569.3 L0 569.3 L0 571.07"
						class="st7"/>
			</g>
			<g id="shape515-252" v:mID="515" v:groupContext="shape" transform="translate(-0.866903,-0.902723)">
				<title>工作表.515</title>
				<rect x="0" y="570.217" width="0.381618" height="1.74532" class="st8"/>
			</g>
		</g>
		<g id="group516-254" transform="translate(1069.29,633.054) rotate(129.735)" v:mID="516" v:groupContext="group">
			<v:userDefs>
				<v:ud v:nameU="visVersion" v:val="VT0(15):26"/>
			</v:userDefs>
			<title>一维单向箭头.516</title>
			<g id="shape517-255" v:mID="517" v:groupContext="shape">
				<title>工作表.517</title>
				<path d="M0 571.07 L76.05 571.07 L76.05 571.96 L76.94 570.19 L76.05 568.41 L76.05 569.3 L0 569.3 L0 571.07 Z"
						class="st5"/>
				<path d="M0 571.07 L76.05 571.07 L76.05 571.96 L76.94 570.19 L76.05 568.41 L76.05 569.3 L0 569.3" class="st6"/>
			</g>
			<g id="shape518-258" v:mID="518" v:groupContext="shape">
				<title>工作表.518</title>
				<path d="M0 571.07 L76.05 571.07 L76.05 571.96 L76.94 570.19 L76.05 568.41 L76.05 569.3 L0 569.3 L0 571.07"
						class="st7"/>
			</g>
			<g id="shape519-261" v:mID="519" v:groupContext="shape" transform="translate(-0.986549,-0.902723)">
				<title>工作表.519</title>
				<rect x="0" y="570.217" width="0.434287" height="1.74532" class="st8"/>
			</g>
		</g>
		<g id="group520-263" transform="translate(1012.04,-155.438) rotate(41.9588)" v:mID="520" v:groupContext="group">
			<v:userDefs>
				<v:ud v:nameU="visVersion" v:val="VT0(15):26"/>
			</v:userDefs>
			<title>一维单向箭头.520</title>
			<g id="shape521-264" v:mID="521" v:groupContext="shape">
				<title>工作表.521</title>
				<path d="M0 571.07 L87.61 571.07 L87.61 571.96 L88.5 570.19 L87.61 568.41 L87.61 569.3 L0 569.3 L0 571.07 Z"
						class="st5"/>
				<path d="M0 571.07 L87.61 571.07 L87.61 571.96 L88.5 570.19 L87.61 568.41 L87.61 569.3 L0 569.3" class="st6"/>
			</g>
			<g id="shape522-267" v:mID="522" v:groupContext="shape">
				<title>工作表.522</title>
				<path d="M0 571.07 L87.61 571.07 L87.61 571.96 L88.5 570.19 L87.61 568.41 L87.61 569.3 L0 569.3 L0 571.07"
						class="st7"/>
			</g>
			<g id="shape523-270" v:mID="523" v:groupContext="shape" transform="translate(-1.13471,-0.902723)">
				<title>工作表.523</title>
				<rect x="0" y="570.217" width="0.499508" height="1.74532" class="st8"/>
			</g>
		</g>
		<g id="group524-272" transform="translate(1008.25,753.156) rotate(131.565)" v:mID="524" v:groupContext="group">
			<v:userDefs>
				<v:ud v:nameU="visVersion" v:val="VT0(15):26"/>
			</v:userDefs>
			<title>一维单向箭头.524</title>
			<g id="shape525-273" v:mID="525" v:groupContext="shape">
				<title>工作表.525</title>
				<path d="M0 571.07 L67.61 571.07 L67.61 571.96 L68.5 570.19 L67.61 568.41 L67.61 569.3 L0 569.3 L0 571.07 Z"
						class="st5"/>
				<path d="M0 571.07 L67.61 571.07 L67.61 571.96 L68.5 570.19 L67.61 568.41 L67.61 569.3 L0 569.3" class="st6"/>
			</g>
			<g id="shape526-276" v:mID="526" v:groupContext="shape">
				<title>工作表.526</title>
				<path d="M0 571.07 L67.61 571.07 L67.61 571.96 L68.5 570.19 L67.61 568.41 L67.61 569.3 L0 569.3 L0 571.07"
						class="st7"/>
			</g>
			<g id="shape527-279" v:mID="527" v:groupContext="shape" transform="translate(-0.878279,-0.902723)">
				<title>工作表.527</title>
				<rect x="0" y="570.217" width="0.386625" height="1.74532" class="st8"/>
			</g>
		</g>
		<g id="group528-281" transform="translate(1062.91,69.0925) rotate(57.5715)" v:mID="528" v:groupContext="group">
			<v:userDefs>
				<v:ud v:nameU="visVersion" v:val="VT0(15):26"/>
			</v:userDefs>
			<title>一维单向箭头.528</title>
			<g id="shape529-282" v:mID="529" v:groupContext="shape">
				<title>工作表.529</title>
				<path d="M0 571.07 L59.83 571.07 L59.83 571.96 L60.72 570.19 L59.83 568.41 L59.83 569.3 L0 569.3 L0 571.07 Z"
						class="st5"/>
				<path d="M0 571.07 L59.83 571.07 L59.83 571.96 L60.72 570.19 L59.83 568.41 L59.83 569.3 L0 569.3" class="st6"/>
			</g>
			<g id="shape530-285" v:mID="530" v:groupContext="shape">
				<title>工作表.530</title>
				<path d="M0 571.07 L59.83 571.07 L59.83 571.96 L60.72 570.19 L59.83 568.41 L59.83 569.3 L0 569.3 L0 571.07"
						class="st7"/>
			</g>
			<g id="shape531-288" v:mID="531" v:groupContext="shape" transform="translate(-0.778532,-0.902723)">
				<title>工作表.531</title>
				<rect x="0" y="570.217" width="0.342716" height="1.74532" class="st8"/>
			</g>
		</g>
		<g id="group532-290" transform="translate(1190.75,659.378) rotate(119.934)" v:mID="532" v:groupContext="group">
			<v:userDefs>
				<v:ud v:nameU="visVersion" v:val="VT0(15):26"/>
			</v:userDefs>
			<title>一维单向箭头.532</title>
			<g id="shape533-291" v:mID="533" v:groupContext="shape">
				<title>工作表.533</title>
				<path d="M0 571.07 L58.25 571.07 L58.25 571.96 L59.14 570.19 L58.25 568.41 L58.25 569.3 L0 569.3 L0 571.07 Z"
						class="st5"/>
				<path d="M0 571.07 L58.25 571.07 L58.25 571.96 L59.14 570.19 L58.25 568.41 L58.25 569.3 L0 569.3" class="st6"/>
			</g>
			<g id="shape534-294" v:mID="534" v:groupContext="shape">
				<title>工作表.534</title>
				<path d="M0 571.07 L58.25 571.07 L58.25 571.96 L59.14 570.19 L58.25 568.41 L58.25 569.3 L0 569.3 L0 571.07"
						class="st7"/>
			</g>
			<g id="shape535-297" v:mID="535" v:groupContext="shape" transform="translate(-0.758284,-0.902723)">
				<title>工作表.535</title>
				<rect x="0" y="570.217" width="0.333803" height="1.74532" class="st8"/>
			</g>
		</g>
		<g id="group536-299" transform="translate(1030.31,757.745) rotate(119.934)" v:mID="536" v:groupContext="group">
			<v:userDefs>
				<v:ud v:nameU="visVersion" v:val="VT0(15):26"/>
			</v:userDefs>
			<title>一维单向箭头.536</title>
			<g id="shape537-300" v:mID="537" v:groupContext="shape">
				<title>工作表.537</title>
				<path d="M0 571.07 L58.25 571.07 L58.25 571.96 L59.14 570.19 L58.25 568.41 L58.25 569.3 L0 569.3 L0 571.07 Z"
						class="st5"/>
				<path d="M0 571.07 L58.25 571.07 L58.25 571.96 L59.14 570.19 L58.25 568.41 L58.25 569.3 L0 569.3" class="st6"/>
			</g>
			<g id="shape538-303" v:mID="538" v:groupContext="shape">
				<title>工作表.538</title>
				<path d="M0 571.07 L58.25 571.07 L58.25 571.96 L59.14 570.19 L58.25 568.41 L58.25 569.3 L0 569.3 L0 571.07"
						class="st7"/>
			</g>
			<g id="shape539-306" v:mID="539" v:groupContext="shape" transform="translate(-0.758284,-0.902723)">
				<title>工作表.539</title>
				<rect x="0" y="570.217" width="0.333803" height="1.74532" class="st8"/>
			</g>
		</g>
	</g>
</svg>
