<?xml version="1.0" encoding="UTF-8" standalone="no"?>
<!DOCTYPE svg PUBLIC "-//W3C//DTD SVG 1.1//EN" "http://www.w3.org/Graphics/SVG/1.1/DTD/svg11.dtd">
<!-- 由 Microsoft Visio, SVG Export 生成 LeftistTree11.svg 页-1 -->
<svg xmlns="http://www.w3.org/2000/svg" xmlns:xlink="http://www.w3.org/1999/xlink" xmlns:ev="http://www.w3.org/2001/xml-events"
		xmlns:v="http://schemas.microsoft.com/visio/2003/SVGExtensions/" width="7.23488in" height="9.43442in"
		viewBox="0 0 520.912 679.278" xml:space="preserve" color-interpolation-filters="sRGB" class="st12">
	<v:documentProperties v:langID="2052" v:metric="true" v:viewMarkup="false"/>

	<style type="text/css">
	<![CDATA[
		.st1 {fill:#ffffff;stroke:#000000;stroke-linecap:round;stroke-linejoin:round;stroke-width:0.75}
		.st2 {fill:#000000;font-family:Cambria Math;font-size:1.5em}
		.st3 {font-size:1em}
		.st4 {fill:#4bacc6;stroke:#000000;stroke-linecap:round;stroke-linejoin:round;stroke-width:0.75}
		.st5 {fill:#c05046;stroke:#000000;stroke-linecap:round;stroke-linejoin:round;stroke-width:0.75}
		.st6 {fill:#ffffff}
		.st7 {stroke:none;stroke-linecap:round;stroke-linejoin:round;stroke-width:0.75}
		.st8 {stroke:#000000;stroke-linecap:round;stroke-linejoin:round;stroke-width:0.24}
		.st9 {fill:#ffffff;stroke:none;stroke-linecap:round;stroke-linejoin:round;stroke-width:0.24;visibility:hidden}
		.st10 {fill:#4bacc6}
		.st11 {fill:#c05046}
		.st12 {fill:none;fill-rule:evenodd;font-size:12px;overflow:visible;stroke-linecap:square;stroke-miterlimit:3}
	]]>
	</style>

	<g v:mID="0" v:index="1" v:groupContext="foregroundPage">
		<title>页-1</title>
		<v:pageProperties v:drawingScale="0.0393701" v:pageScale="0.0393701" v:drawingUnits="24" v:shadowOffsetX="8.50394"
				v:shadowOffsetY="-8.50394"/>
		<g id="shape1399-1" v:mID="1399" v:groupContext="shape" transform="translate(180.485,-631.785)">
			<title>矩形.1399</title>
			<desc>6 2</desc>
			<v:userDefs>
				<v:ud v:nameU="visVersion" v:val="VT0(15):26"/>
			</v:userDefs>
			<v:textBlock v:margins="rect(4,4,4,4)" v:tabSpace="42.5197"/>
			<v:textRect cx="16.624" cy="655.719" width="33.25" height="47.1178"/>
			<rect x="0" y="632.16" width="33.2481" height="47.1178" class="st1"/>
			<text x="11.64" y="650.32" class="st2" v:langID="2052"><v:paragraph v:horizAlign="1"/><v:tabList/>6<v:newlineChar/><tspan
						x="11.64" dy="1.2em" class="st3">2</tspan></text>		</g>
		<g id="shape1400-5" v:mID="1400" v:groupContext="shape" transform="translate(324.986,-531.254)">
			<title>矩形.1400</title>
			<desc>7 2</desc>
			<v:userDefs>
				<v:ud v:nameU="visVersion" v:val="VT0(15):26"/>
			</v:userDefs>
			<v:textBlock v:margins="rect(4,4,4,4)" v:tabSpace="42.5197"/>
			<v:textRect cx="16.624" cy="655.719" width="33.25" height="47.1178"/>
			<rect x="0" y="632.16" width="33.2481" height="47.1178" class="st4"/>
			<text x="11.64" y="650.32" class="st2" v:langID="2052"><v:paragraph v:horizAlign="1"/><v:tabList/>7<v:newlineChar/><tspan
						x="11.64" dy="1.2em" class="st3">2</tspan></text>		</g>
		<g id="shape1401-9" v:mID="1401" v:groupContext="shape" transform="translate(85.856,-531.254)">
			<title>矩形.1401</title>
			<desc>11 2</desc>
			<v:userDefs>
				<v:ud v:nameU="visVersion" v:val="VT0(15):26"/>
			</v:userDefs>
			<v:textBlock v:margins="rect(4,4,4,4)" v:tabSpace="42.5197"/>
			<v:textRect cx="16.624" cy="655.719" width="33.25" height="47.1178"/>
			<rect x="0" y="632.16" width="33.2481" height="47.1178" class="st1"/>
			<text x="6.66" y="650.32" class="st2" v:langID="2052"><v:paragraph v:horizAlign="1"/><v:tabList/>11<v:newlineChar/><tspan
						x="11.64" dy="1.2em" class="st3">2</tspan></text>		</g>
		<g id="shape1402-13" v:mID="1402" v:groupContext="shape" transform="translate(388.293,-417.296)">
			<title>矩形.1402</title>
			<desc>8 2</desc>
			<v:userDefs>
				<v:ud v:nameU="visVersion" v:val="VT0(15):26"/>
			</v:userDefs>
			<v:textBlock v:margins="rect(4,4,4,4)" v:tabSpace="42.5197"/>
			<v:textRect cx="16.624" cy="655.719" width="33.25" height="47.1178"/>
			<rect x="0" y="632.16" width="33.2481" height="47.1178" class="st5"/>
			<text x="11.64" y="650.32" class="st2" v:langID="2052"><v:paragraph v:horizAlign="1"/><v:tabList/>8<v:newlineChar/><tspan
						x="11.64" dy="1.2em" class="st3">2</tspan></text>		</g>
		<g id="group1403-17" transform="translate(530.136,637.496) rotate(150.557)" v:mID="1403" v:groupContext="group">
			<v:userDefs>
				<v:ud v:nameU="visVersion" v:val="VT0(15):26"/>
			</v:userDefs>
			<title>一维单向箭头.1403</title>
			<g id="shape1404-18" v:mID="1404" v:groupContext="shape">
				<title>工作表.1404</title>
				<path d="M0 678.39 L107.78 678.39 L107.78 679.28 L108.66 677.5 L107.78 675.73 L107.78 676.62 L0 676.62 L0 678.39 Z"
						class="st6"/>
				<path d="M0 678.39 L107.78 678.39 L107.78 679.28 L108.66 677.5 L107.78 675.73 L107.78 676.62 L0 676.62" class="st7"/>
			</g>
			<g id="shape1405-21" v:mID="1405" v:groupContext="shape">
				<title>工作表.1405</title>
				<path d="M0 678.39 L107.78 678.39 L107.78 679.28 L108.66 677.5 L107.78 675.73 L107.78 676.62 L0 676.62 L0 678.39"
						class="st8"/>
			</g>
			<g id="shape1406-24" v:mID="1406" v:groupContext="shape" transform="translate(-1.3933,-0.902723)">
				<title>工作表.1406</title>
				<rect x="0" y="677.533" width="0.613342" height="1.74532" class="st9"/>
			</g>
		</g>
		<g id="group1407-26" transform="translate(432.007,-587.986) rotate(20.2863)" v:mID="1407" v:groupContext="group">
			<v:userDefs>
				<v:ud v:nameU="visVersion" v:val="VT0(15):26"/>
			</v:userDefs>
			<title>一维单向箭头.1407</title>
			<g id="shape1408-27" v:mID="1408" v:groupContext="shape">
				<title>工作表.1408</title>
				<path d="M0 678.39 L153.17 678.39 L153.17 679.28 L154.06 677.5 L153.17 675.73 L153.17 676.62 L0 676.62 L0 678.39 Z"
						class="st10"/>
				<path d="M0 678.39 L153.17 678.39 L153.17 679.28 L154.06 677.5 L153.17 675.73 L153.17 676.62 L0 676.62" class="st7"/>
			</g>
			<g id="shape1409-30" v:mID="1409" v:groupContext="shape">
				<title>工作表.1409</title>
				<path d="M0 678.39 L153.17 678.39 L153.17 679.28 L154.06 677.5 L153.17 675.73 L153.17 676.62 L0 676.62 L0 678.39"
						class="st8"/>
			</g>
			<g id="shape1410-33" v:mID="1410" v:groupContext="shape" transform="translate(-1.97535,-0.902723)">
				<title>工作表.1410</title>
				<rect x="0" y="677.533" width="0.869567" height="1.74532" class="st9"/>
			</g>
		</g>
		<g id="shape1411-35" v:mID="1411" v:groupContext="shape" transform="translate(257.759,-417.296)">
			<title>矩形.1411</title>
			<desc>9 1</desc>
			<v:userDefs>
				<v:ud v:nameU="visVersion" v:val="VT0(15):26"/>
			</v:userDefs>
			<v:textBlock v:margins="rect(4,4,4,4)" v:tabSpace="42.5197"/>
			<v:textRect cx="16.624" cy="655.719" width="33.25" height="47.1178"/>
			<rect x="0" y="632.16" width="33.2481" height="47.1178" class="st1"/>
			<text x="11.64" y="650.32" class="st2" v:langID="2052"><v:paragraph v:horizAlign="1"/><v:tabList/>9<v:newlineChar/><tspan
						x="11.64" dy="1.2em" class="st3">1</tspan></text>		</g>
		<g id="group1412-39" transform="translate(819.294,628.47) rotate(135.165)" v:mID="1412" v:groupContext="group">
			<v:userDefs>
				<v:ud v:nameU="visVersion" v:val="VT0(15):26"/>
			</v:userDefs>
			<title>一维单向箭头.1412</title>
			<g id="shape1413-40" v:mID="1413" v:groupContext="shape">
				<title>工作表.1413</title>
				<path d="M0 678.39 L93.91 678.39 L93.91 679.28 L94.8 677.5 L93.91 675.73 L93.91 676.62 L0 676.62 L0 678.39 Z"
						class="st6"/>
				<path d="M0 678.39 L93.91 678.39 L93.91 679.28 L94.8 677.5 L93.91 675.73 L93.91 676.62 L0 676.62" class="st7"/>
			</g>
			<g id="shape1414-43" v:mID="1414" v:groupContext="shape">
				<title>工作表.1414</title>
				<path d="M0 678.39 L93.91 678.39 L93.91 679.28 L94.8 677.5 L93.91 675.73 L93.91 676.62 L0 676.62 L0 678.39"
						class="st8"/>
			</g>
			<g id="shape1415-46" v:mID="1415" v:groupContext="shape" transform="translate(-1.21555,-0.902723)">
				<title>工作表.1415</title>
				<rect x="0" y="677.533" width="0.535095" height="1.74532" class="st9"/>
			</g>
		</g>
		<g id="shape1416-48" v:mID="1416" v:groupContext="shape" transform="translate(339.808,-311.8)">
			<title>矩形.1416</title>
			<desc>12 2</desc>
			<v:userDefs>
				<v:ud v:nameU="visVersion" v:val="VT0(15):26"/>
			</v:userDefs>
			<v:textBlock v:margins="rect(4,4,4,4)" v:tabSpace="42.5197"/>
			<v:textRect cx="16.624" cy="655.719" width="33.25" height="47.1178"/>
			<rect x="0" y="632.16" width="33.2481" height="47.1178" class="st5"/>
			<text x="6.66" y="650.32" class="st2" v:langID="2052"><v:paragraph v:horizAlign="1"/><v:tabList/>12<v:newlineChar/><tspan
						x="11.64" dy="1.2em" class="st3">2</tspan></text>		</g>
		<g id="group1417-52" transform="translate(833.505,-317.862) rotate(46.5555)" v:mID="1417" v:groupContext="group">
			<v:userDefs>
				<v:ud v:nameU="visVersion" v:val="VT0(15):26"/>
			</v:userDefs>
			<title>一维单向箭头.1417</title>
			<g id="shape1418-53" v:mID="1418" v:groupContext="shape">
				<title>工作表.1418</title>
				<path d="M0 678.39 L91.17 678.39 L91.17 679.28 L92.06 677.5 L91.17 675.73 L91.17 676.62 L0 676.62 L0 678.39 Z"
						class="st10"/>
				<path d="M0 678.39 L91.17 678.39 L91.17 679.28 L92.06 677.5 L91.17 675.73 L91.17 676.62 L0 676.62" class="st7"/>
			</g>
			<g id="shape1419-56" v:mID="1419" v:groupContext="shape">
				<title>工作表.1419</title>
				<path d="M0 678.39 L91.17 678.39 L91.17 679.28 L92.06 677.5 L91.17 675.73 L91.17 676.62 L0 676.62 L0 678.39"
						class="st8"/>
			</g>
			<g id="shape1420-59" v:mID="1420" v:groupContext="shape" transform="translate(-1.18043,-0.902723)">
				<title>工作表.1420</title>
				<rect x="0" y="677.533" width="0.519636" height="1.74532" class="st9"/>
			</g>
		</g>
		<g id="shape1421-61" v:mID="1421" v:groupContext="shape" transform="translate(39.7218,-417.296)">
			<title>矩形.1421</title>
			<desc>17 1</desc>
			<v:userDefs>
				<v:ud v:nameU="visVersion" v:val="VT0(15):26"/>
			</v:userDefs>
			<v:textBlock v:margins="rect(4,4,4,4)" v:tabSpace="42.5197"/>
			<v:textRect cx="16.624" cy="655.719" width="33.25" height="47.1178"/>
			<rect x="0" y="632.16" width="33.2481" height="47.1178" class="st1"/>
			<text x="6.66" y="650.32" class="st2" v:langID="2052"><v:paragraph v:horizAlign="1"/><v:tabList/>17<v:newlineChar/><tspan
						x="11.64" dy="1.2em" class="st3">1</tspan></text>		</g>
		<g id="shape1422-65" v:mID="1422" v:groupContext="shape" transform="translate(122.153,-417.296)">
			<title>矩形.1422</title>
			<desc>14 1</desc>
			<v:userDefs>
				<v:ud v:nameU="visVersion" v:val="VT0(15):26"/>
			</v:userDefs>
			<v:textBlock v:margins="rect(4,4,4,4)" v:tabSpace="42.5197"/>
			<v:textRect cx="16.624" cy="655.719" width="33.25" height="47.1178"/>
			<rect x="0" y="632.16" width="33.2481" height="47.1178" class="st1"/>
			<text x="6.66" y="650.32" class="st2" v:langID="2052"><v:paragraph v:horizAlign="1"/><v:tabList/>14<v:newlineChar/><tspan
						x="11.64" dy="1.2em" class="st3">1</tspan></text>		</g>
		<g id="group1423-69" transform="translate(660.064,532.876) rotate(124.614)" v:mID="1423" v:groupContext="group">
			<v:userDefs>
				<v:ud v:nameU="visVersion" v:val="VT0(15):26"/>
			</v:userDefs>
			<title>一维单向箭头.1423</title>
			<g id="shape1424-70" v:mID="1424" v:groupContext="shape">
				<title>工作表.1424</title>
				<path d="M0 678.39 L80.33 678.39 L80.33 679.28 L81.22 677.5 L80.33 675.73 L80.33 676.62 L0 676.62 L0 678.39 Z"
						class="st6"/>
				<path d="M0 678.39 L80.33 678.39 L80.33 679.28 L81.22 677.5 L80.33 675.73 L80.33 676.62 L0 676.62" class="st7"/>
			</g>
			<g id="shape1425-73" v:mID="1425" v:groupContext="shape">
				<title>工作表.1425</title>
				<path d="M0 678.39 L80.33 678.39 L80.33 679.28 L81.22 677.5 L80.33 675.73 L80.33 676.62 L0 676.62 L0 678.39"
						class="st8"/>
			</g>
			<g id="shape1426-76" v:mID="1426" v:groupContext="shape" transform="translate(-1.04137,-0.902723)">
				<title>工作表.1426</title>
				<rect x="0" y="677.533" width="0.458418" height="1.74532" class="st9"/>
			</g>
		</g>
		<g id="group1427-78" transform="translate(697.859,-175.294) rotate(61.496)" v:mID="1427" v:groupContext="group">
			<v:userDefs>
				<v:ud v:nameU="visVersion" v:val="VT0(15):26"/>
			</v:userDefs>
			<title>一维单向箭头.1427</title>
			<g id="shape1428-79" v:mID="1428" v:groupContext="shape">
				<title>工作表.1428</title>
				<path d="M0 678.39 L75.17 678.39 L75.17 679.28 L76.06 677.5 L75.17 675.73 L75.17 676.62 L0 676.62 L0 678.39 Z"
						class="st6"/>
				<path d="M0 678.39 L75.17 678.39 L75.17 679.28 L76.06 677.5 L75.17 675.73 L75.17 676.62 L0 676.62" class="st7"/>
			</g>
			<g id="shape1429-82" v:mID="1429" v:groupContext="shape">
				<title>工作表.1429</title>
				<path d="M0 678.39 L75.17 678.39 L75.17 679.28 L76.06 677.5 L75.17 675.73 L75.17 676.62 L0 676.62 L0 678.39"
						class="st8"/>
			</g>
			<g id="shape1430-85" v:mID="1430" v:groupContext="shape" transform="translate(-0.97526,-0.902723)">
				<title>工作表.1430</title>
				<rect x="0" y="677.533" width="0.429317" height="1.74532" class="st9"/>
			</g>
		</g>
		<g id="shape1431-87" v:mID="1431" v:groupContext="shape" transform="translate(0.375,-311.01)">
			<title>矩形.1431</title>
			<desc>18 0</desc>
			<v:userDefs>
				<v:ud v:nameU="visVersion" v:val="VT0(15):26"/>
			</v:userDefs>
			<v:textBlock v:margins="rect(4,4,4,4)" v:tabSpace="42.5197"/>
			<v:textRect cx="16.624" cy="655.719" width="33.25" height="47.1178"/>
			<rect x="0" y="632.16" width="33.2481" height="47.1178" class="st1"/>
			<text x="6.66" y="650.32" class="st2" v:langID="2052"><v:paragraph v:horizAlign="1"/><v:tabList/>18<v:newlineChar/><tspan
						x="11.64" dy="1.2em" class="st3">0</tspan></text>		</g>
		<g id="shape1432-91" v:mID="1432" v:groupContext="shape" transform="translate(48.0338,-311.01)">
			<title>矩形.1432</title>
			<desc>20 0</desc>
			<v:userDefs>
				<v:ud v:nameU="visVersion" v:val="VT0(15):26"/>
			</v:userDefs>
			<v:textBlock v:margins="rect(4,4,4,4)" v:tabSpace="42.5197"/>
			<v:textRect cx="16.624" cy="655.719" width="33.25" height="47.1178"/>
			<rect x="0" y="632.16" width="33.2481" height="47.1178" class="st1"/>
			<text x="6.66" y="650.32" class="st2" v:langID="2052"><v:paragraph v:horizAlign="1"/><v:tabList/>20<v:newlineChar/><tspan
						x="11.64" dy="1.2em" class="st3">0</tspan></text>		</g>
		<g id="group1433-95" transform="translate(620.495,637.144) rotate(123.624)" v:mID="1433" v:groupContext="group">
			<v:userDefs>
				<v:ud v:nameU="visVersion" v:val="VT0(15):26"/>
			</v:userDefs>
			<title>一维单向箭头.1433</title>
			<g id="shape1434-96" v:mID="1434" v:groupContext="shape">
				<title>工作表.1434</title>
				<path d="M0 678.39 L70.17 678.39 L70.17 679.28 L71.06 677.5 L70.17 675.73 L70.17 676.62 L0 676.62 L0 678.39 Z"
						class="st6"/>
				<path d="M0 678.39 L70.17 678.39 L70.17 679.28 L71.06 677.5 L70.17 675.73 L70.17 676.62 L0 676.62" class="st7"/>
			</g>
			<g id="shape1435-99" v:mID="1435" v:groupContext="shape">
				<title>工作表.1435</title>
				<path d="M0 678.39 L70.17 678.39 L70.17 679.28 L71.06 677.5 L70.17 675.73 L70.17 676.62 L0 676.62 L0 678.39"
						class="st8"/>
			</g>
			<g id="shape1436-102" v:mID="1436" v:groupContext="shape" transform="translate(-0.9111,-0.902723)">
				<title>工作表.1436</title>
				<rect x="0" y="677.533" width="0.401073" height="1.74532" class="st9"/>
			</g>
		</g>
		<g id="group1437-104" transform="translate(727.261,167.731) rotate(82.0033)" v:mID="1437" v:groupContext="group">
			<v:userDefs>
				<v:ud v:nameU="visVersion" v:val="VT0(15):26"/>
			</v:userDefs>
			<title>一维单向箭头.1437</title>
			<g id="shape1438-105" v:mID="1438" v:groupContext="shape">
				<title>工作表.1438</title>
				<path d="M0 678.39 L58.86 678.39 L58.86 679.28 L59.75 677.5 L58.86 675.73 L58.86 676.62 L0 676.62 L0 678.39 Z"
						class="st6"/>
				<path d="M0 678.39 L58.86 678.39 L58.86 679.28 L59.75 677.5 L58.86 675.73 L58.86 676.62 L0 676.62" class="st7"/>
			</g>
			<g id="shape1439-108" v:mID="1439" v:groupContext="shape">
				<title>工作表.1439</title>
				<path d="M0 678.39 L58.86 678.39 L58.86 679.28 L59.75 677.5 L58.86 675.73 L58.86 676.62 L0 676.62 L0 678.39"
						class="st8"/>
			</g>
			<g id="shape1440-111" v:mID="1440" v:groupContext="shape" transform="translate(-0.766112,-0.902723)">
				<title>工作表.1440</title>
				<rect x="0" y="677.533" width="0.337249" height="1.74532" class="st9"/>
			</g>
		</g>
		<g id="shape1441-113" v:mID="1441" v:groupContext="shape" transform="translate(95.6927,-311.01)">
			<title>矩形.1441</title>
			<desc>19 0</desc>
			<v:userDefs>
				<v:ud v:nameU="visVersion" v:val="VT0(15):26"/>
			</v:userDefs>
			<v:textBlock v:margins="rect(4,4,4,4)" v:tabSpace="42.5197"/>
			<v:textRect cx="16.624" cy="655.719" width="33.25" height="47.1178"/>
			<rect x="0" y="632.16" width="33.2481" height="47.1178" class="st1"/>
			<text x="6.66" y="650.32" class="st2" v:langID="2052"><v:paragraph v:horizAlign="1"/><v:tabList/>19<v:newlineChar/><tspan
						x="11.64" dy="1.2em" class="st3">0</tspan></text>		</g>
		<g id="shape1442-117" v:mID="1442" v:groupContext="shape" transform="translate(138.089,-311.01)">
			<title>矩形.1442</title>
			<desc>24 0</desc>
			<v:userDefs>
				<v:ud v:nameU="visVersion" v:val="VT0(15):26"/>
			</v:userDefs>
			<v:textBlock v:margins="rect(4,4,4,4)" v:tabSpace="42.5197"/>
			<v:textRect cx="16.624" cy="655.719" width="33.25" height="47.1178"/>
			<rect x="0" y="632.16" width="33.2481" height="47.1178" class="st1"/>
			<text x="6.66" y="650.32" class="st2" v:langID="2052"><v:paragraph v:horizAlign="1"/><v:tabList/>24<v:newlineChar/><tspan
						x="11.64" dy="1.2em" class="st3">0</tspan></text>		</g>
		<g id="group1443-121" transform="translate(757.25,538.573) rotate(114.095)" v:mID="1443" v:groupContext="group">
			<v:userDefs>
				<v:ud v:nameU="visVersion" v:val="VT0(15):26"/>
			</v:userDefs>
			<title>一维单向箭头.1443</title>
			<g id="shape1444-122" v:mID="1444" v:groupContext="shape">
				<title>工作表.1444</title>
				<path d="M0 678.39 L63.93 678.39 L63.93 679.28 L64.82 677.5 L63.93 675.73 L63.93 676.62 L0 676.62 L0 678.39 Z"
						class="st6"/>
				<path d="M0 678.39 L63.93 678.39 L63.93 679.28 L64.82 677.5 L63.93 675.73 L63.93 676.62 L0 676.62" class="st7"/>
			</g>
			<g id="shape1445-125" v:mID="1445" v:groupContext="shape">
				<title>工作表.1445</title>
				<path d="M0 678.39 L63.93 678.39 L63.93 679.28 L64.82 677.5 L63.93 675.73 L63.93 676.62 L0 676.62 L0 678.39"
						class="st8"/>
			</g>
			<g id="shape1446-128" v:mID="1446" v:groupContext="shape" transform="translate(-0.831074,-0.902723)">
				<title>工作表.1446</title>
				<rect x="0" y="677.533" width="0.365845" height="1.74532" class="st9"/>
			</g>
		</g>
		<g id="group1447-130" transform="translate(792.969,85.7909) rotate(74.9264)" v:mID="1447" v:groupContext="group">
			<v:userDefs>
				<v:ud v:nameU="visVersion" v:val="VT0(15):26"/>
			</v:userDefs>
			<title>一维单向箭头.1447</title>
			<g id="shape1448-131" v:mID="1448" v:groupContext="shape">
				<title>工作表.1448</title>
				<path d="M0 678.39 L60.39 678.39 L60.39 679.28 L61.28 677.5 L60.39 675.73 L60.39 676.62 L0 676.62 L0 678.39 Z"
						class="st6"/>
				<path d="M0 678.39 L60.39 678.39 L60.39 679.28 L61.28 677.5 L60.39 675.73 L60.39 676.62 L0 676.62" class="st7"/>
			</g>
			<g id="shape1449-134" v:mID="1449" v:groupContext="shape">
				<title>工作表.1449</title>
				<path d="M0 678.39 L60.39 678.39 L60.39 679.28 L61.28 677.5 L60.39 675.73 L60.39 676.62 L0 676.62 L0 678.39"
						class="st8"/>
			</g>
			<g id="shape1450-137" v:mID="1450" v:groupContext="shape" transform="translate(-0.785696,-0.902723)">
				<title>工作表.1450</title>
				<rect x="0" y="677.533" width="0.34587" height="1.74532" class="st9"/>
			</g>
		</g>
		<g id="shape1451-139" v:mID="1451" v:groupContext="shape" transform="translate(451.061,-311.8)">
			<title>矩形.1451</title>
			<desc>10 1</desc>
			<v:userDefs>
				<v:ud v:nameU="visVersion" v:val="VT0(15):26"/>
			</v:userDefs>
			<v:textBlock v:margins="rect(4,4,4,4)" v:tabSpace="42.5197"/>
			<v:textRect cx="16.624" cy="655.719" width="33.25" height="47.1178"/>
			<rect x="0" y="632.16" width="33.2481" height="47.1178" class="st5"/>
			<text x="6.66" y="650.32" class="st2" v:langID="2052"><v:paragraph v:horizAlign="1"/><v:tabList/>10<v:newlineChar/><tspan
						x="11.64" dy="1.2em" class="st3">1</tspan></text>		</g>
		<g id="shape1452-143" v:mID="1452" v:groupContext="shape" transform="translate(375.487,-205.564)">
			<title>矩形.1452</title>
			<desc>13 1</desc>
			<v:userDefs>
				<v:ud v:nameU="visVersion" v:val="VT0(15):26"/>
			</v:userDefs>
			<v:textBlock v:margins="rect(4,4,4,4)" v:tabSpace="42.5197"/>
			<v:textRect cx="16.624" cy="655.719" width="33.25" height="47.1178"/>
			<rect x="0" y="632.16" width="33.2481" height="47.1178" class="st5"/>
			<text x="6.66" y="650.32" class="st2" v:langID="2052"><v:paragraph v:horizAlign="1"/><v:tabList/>13<v:newlineChar/><tspan
						x="11.64" dy="1.2em" class="st3">1</tspan></text>		</g>
		<g id="group1453-147" transform="translate(866.319,-234.121) rotate(42.9245)" v:mID="1453" v:groupContext="group">
			<v:userDefs>
				<v:ud v:nameU="visVersion" v:val="VT0(15):26"/>
			</v:userDefs>
			<title>一维单向箭头.1453</title>
			<g id="shape1454-148" v:mID="1454" v:groupContext="shape">
				<title>工作表.1454</title>
				<path d="M0 678.39 L84.83 678.39 L84.83 679.28 L85.72 677.5 L84.83 675.73 L84.83 676.62 L0 676.62 L0 678.39 Z"
						class="st11"/>
				<path d="M0 678.39 L84.83 678.39 L84.83 679.28 L85.72 677.5 L84.83 675.73 L84.83 676.62 L0 676.62" class="st7"/>
			</g>
			<g id="shape1455-151" v:mID="1455" v:groupContext="shape">
				<title>工作表.1455</title>
				<path d="M0 678.39 L84.83 678.39 L84.83 679.28 L85.72 677.5 L84.83 675.73 L84.83 676.62 L0 676.62 L0 678.39"
						class="st8"/>
			</g>
			<g id="shape1456-154" v:mID="1456" v:groupContext="shape" transform="translate(-1.09912,-0.902723)">
				<title>工作表.1456</title>
				<rect x="0" y="677.533" width="0.483842" height="1.74532" class="st9"/>
			</g>
		</g>
		<g id="group1457-156" transform="translate(926.109,694.844) rotate(129.71)" v:mID="1457" v:groupContext="group">
			<v:userDefs>
				<v:ud v:nameU="visVersion" v:val="VT0(15):26"/>
			</v:userDefs>
			<title>一维单向箭头.1457</title>
			<g id="shape1458-157" v:mID="1458" v:groupContext="shape">
				<title>工作表.1458</title>
				<path d="M0 678.39 L75 678.39 L75 679.28 L75.89 677.5 L75 675.73 L75 676.62 L0 676.62 L0 678.39 Z" class="st11"/>
				<path d="M0 678.39 L75 678.39 L75 679.28 L75.89 677.5 L75 675.73 L75 676.62 L0 676.62" class="st7"/>
			</g>
			<g id="shape1459-160" v:mID="1459" v:groupContext="shape">
				<title>工作表.1459</title>
				<path d="M0 678.39 L75 678.39 L75 679.28 L75.89 677.5 L75 675.73 L75 676.62 L0 676.62 L0 678.39" class="st8"/>
			</g>
			<g id="shape1460-163" v:mID="1460" v:groupContext="shape" transform="translate(-0.973034,-0.902723)">
				<title>工作表.1460</title>
				<rect x="0" y="677.533" width="0.428337" height="1.74532" class="st9"/>
			</g>
		</g>
		<g id="shape1461-165" v:mID="1461" v:groupContext="shape" transform="translate(431.388,-205.564)">
			<title>矩形.1461</title>
			<desc>15 0</desc>
			<v:userDefs>
				<v:ud v:nameU="visVersion" v:val="VT0(15):26"/>
			</v:userDefs>
			<v:textBlock v:margins="rect(4,4,4,4)" v:tabSpace="42.5197"/>
			<v:textRect cx="16.624" cy="655.719" width="33.25" height="47.1178"/>
			<rect x="0" y="632.16" width="33.2481" height="47.1178" class="st1"/>
			<text x="6.66" y="650.32" class="st2" v:langID="2052"><v:paragraph v:horizAlign="1"/><v:tabList/>15<v:newlineChar/><tspan
						x="11.64" dy="1.2em" class="st3">0</tspan></text>		</g>
		<g id="shape1462-169" v:mID="1462" v:groupContext="shape" transform="translate(487.288,-205.564)">
			<title>矩形.1462</title>
			<desc>30 0</desc>
			<v:userDefs>
				<v:ud v:nameU="visVersion" v:val="VT0(15):26"/>
			</v:userDefs>
			<v:textBlock v:margins="rect(4,4,4,4)" v:tabSpace="42.5197"/>
			<v:textRect cx="16.624" cy="655.719" width="33.25" height="47.1178"/>
			<rect x="0" y="632.16" width="33.2481" height="47.1178" class="st1"/>
			<text x="6.66" y="650.32" class="st2" v:langID="2052"><v:paragraph v:horizAlign="1"/><v:tabList/>30<v:newlineChar/><tspan
						x="11.64" dy="1.2em" class="st3">0</tspan></text>		</g>
		<g id="group1463-173" transform="translate(1110.53,581.403) rotate(108.406)" v:mID="1463" v:groupContext="group">
			<v:userDefs>
				<v:ud v:nameU="visVersion" v:val="VT0(15):26"/>
			</v:userDefs>
			<title>一维单向箭头.1463</title>
			<g id="shape1464-174" v:mID="1464" v:groupContext="shape">
				<title>工作表.1464</title>
				<path d="M0 678.39 L61.42 678.39 L61.42 679.28 L62.31 677.5 L61.42 675.73 L61.42 676.62 L0 676.62 L0 678.39 Z"
						class="st6"/>
				<path d="M0 678.39 L61.42 678.39 L61.42 679.28 L62.31 677.5 L61.42 675.73 L61.42 676.62 L0 676.62" class="st7"/>
			</g>
			<g id="shape1465-177" v:mID="1465" v:groupContext="shape">
				<title>工作表.1465</title>
				<path d="M0 678.39 L61.42 678.39 L61.42 679.28 L62.31 677.5 L61.42 675.73 L61.42 676.62 L0 676.62 L0 678.39"
						class="st8"/>
			</g>
			<g id="shape1466-180" v:mID="1466" v:groupContext="shape" transform="translate(-0.798903,-0.902723)">
				<title>工作表.1466</title>
				<rect x="0" y="677.533" width="0.351683" height="1.74532" class="st9"/>
			</g>
		</g>
		<g id="group1467-182" transform="translate(1045.35,13.4893) rotate(58.5005)" v:mID="1467" v:groupContext="group">
			<v:userDefs>
				<v:ud v:nameU="visVersion" v:val="VT0(15):26"/>
			</v:userDefs>
			<title>一维单向箭头.1467</title>
			<g id="shape1468-183" v:mID="1468" v:groupContext="shape">
				<title>工作表.1468</title>
				<path d="M0 678.39 L68.45 678.39 L68.45 679.28 L69.34 677.5 L68.45 675.73 L68.45 676.62 L0 676.62 L0 678.39 Z"
						class="st6"/>
				<path d="M0 678.39 L68.45 678.39 L68.45 679.28 L69.34 677.5 L68.45 675.73 L68.45 676.62 L0 676.62" class="st7"/>
			</g>
			<g id="shape1469-186" v:mID="1469" v:groupContext="shape">
				<title>工作表.1469</title>
				<path d="M0 678.39 L68.45 678.39 L68.45 679.28 L69.34 677.5 L68.45 675.73 L68.45 676.62 L0 676.62 L0 678.39"
						class="st8"/>
			</g>
			<g id="shape1470-189" v:mID="1470" v:groupContext="shape" transform="translate(-0.889036,-0.902723)">
				<title>工作表.1470</title>
				<rect x="0" y="677.533" width="0.391361" height="1.74532" class="st9"/>
			</g>
		</g>
		<g id="shape1471-191" v:mID="1471" v:groupContext="shape" transform="translate(359.482,-102.969)">
			<title>矩形.1471</title>
			<desc>28 0</desc>
			<v:userDefs>
				<v:ud v:nameU="visVersion" v:val="VT0(15):26"/>
			</v:userDefs>
			<v:textBlock v:margins="rect(4,4,4,4)" v:tabSpace="42.5197"/>
			<v:textRect cx="16.624" cy="655.719" width="33.25" height="47.1178"/>
			<rect x="0" y="632.16" width="33.2481" height="47.1178" class="st1"/>
			<text x="6.66" y="650.32" class="st2" v:langID="2052"><v:paragraph v:horizAlign="1"/><v:tabList/>28<v:newlineChar/><tspan
						x="11.64" dy="1.2em" class="st3">0</tspan></text>		</g>
		<g id="group1472-195" transform="translate(1043.06,661.523) rotate(106.094)" v:mID="1472" v:groupContext="group">
			<v:userDefs>
				<v:ud v:nameU="visVersion" v:val="VT0(15):26"/>
			</v:userDefs>
			<title>一维单向箭头.1472</title>
			<g id="shape1473-196" v:mID="1473" v:groupContext="shape">
				<title>工作表.1473</title>
				<path d="M0 678.39 L56.85 678.39 L56.85 679.28 L57.74 677.5 L56.85 675.73 L56.85 676.62 L0 676.62 L0 678.39 Z"
						class="st6"/>
				<path d="M0 678.39 L56.85 678.39 L56.85 679.28 L57.74 677.5 L56.85 675.73 L56.85 676.62 L0 676.62" class="st7"/>
			</g>
			<g id="shape1474-199" v:mID="1474" v:groupContext="shape">
				<title>工作表.1474</title>
				<path d="M0 678.39 L56.85 678.39 L56.85 679.28 L57.74 677.5 L56.85 675.73 L56.85 676.62 L0 676.62 L0 678.39"
						class="st8"/>
			</g>
			<g id="shape1475-202" v:mID="1475" v:groupContext="shape" transform="translate(-0.740345,-0.902723)">
				<title>工作表.1475</title>
				<rect x="0" y="677.533" width="0.325906" height="1.74532" class="st9"/>
			</g>
		</g>
		<g id="shape1476-204" v:mID="1476" v:groupContext="shape" transform="translate(266.131,-102.969)">
			<title>矩形.1476</title>
			<desc>42 0</desc>
			<v:userDefs>
				<v:ud v:nameU="visVersion" v:val="VT0(15):26"/>
			</v:userDefs>
			<v:textBlock v:margins="rect(4,4,4,4)" v:tabSpace="42.5197"/>
			<v:textRect cx="16.624" cy="655.719" width="33.25" height="47.1178"/>
			<rect x="0" y="632.16" width="33.2481" height="47.1178" class="st1"/>
			<text x="6.66" y="650.32" class="st2" v:langID="2052"><v:paragraph v:horizAlign="1"/><v:tabList/>42<v:newlineChar/><tspan
						x="11.64" dy="1.2em" class="st3">0</tspan></text>		</g>
		<g id="shape1477-208" v:mID="1477" v:groupContext="shape" transform="translate(317.282,-102.969)">
			<title>矩形.1477</title>
			<desc>33 0</desc>
			<v:userDefs>
				<v:ud v:nameU="visVersion" v:val="VT0(15):26"/>
			</v:userDefs>
			<v:textBlock v:margins="rect(4,4,4,4)" v:tabSpace="42.5197"/>
			<v:textRect cx="16.624" cy="655.719" width="33.25" height="47.1178"/>
			<rect x="0" y="632.16" width="33.2481" height="47.1178" class="st1"/>
			<text x="6.66" y="650.32" class="st2" v:langID="2052"><v:paragraph v:horizAlign="1"/><v:tabList/>33<v:newlineChar/><tspan
						x="11.64" dy="1.2em" class="st3">0</tspan></text>		</g>
		<g id="shape1478-212" v:mID="1478" v:groupContext="shape" transform="translate(238.392,-0.375)">
			<title>矩形.1478</title>
			<desc>50 0</desc>
			<v:userDefs>
				<v:ud v:nameU="visVersion" v:val="VT0(15):26"/>
			</v:userDefs>
			<v:textBlock v:margins="rect(4,4,4,4)" v:tabSpace="42.5197"/>
			<v:textRect cx="16.624" cy="655.719" width="33.25" height="47.1178"/>
			<rect x="0" y="632.16" width="33.2481" height="47.1178" class="st1"/>
			<text x="6.66" y="650.32" class="st2" v:langID="2052"><v:paragraph v:horizAlign="1"/><v:tabList/>50<v:newlineChar/><tspan
						x="11.64" dy="1.2em" class="st3">0</tspan></text>		</g>
		<g id="shape1479-216" v:mID="1479" v:groupContext="shape" transform="translate(388.992,-0.375)">
			<title>矩形.1479</title>
			<desc>27 0</desc>
			<v:userDefs>
				<v:ud v:nameU="visVersion" v:val="VT0(15):26"/>
			</v:userDefs>
			<v:textBlock v:margins="rect(4,4,4,4)" v:tabSpace="42.5197"/>
			<v:textRect cx="16.624" cy="655.719" width="33.25" height="47.1178"/>
			<rect x="0" y="632.16" width="33.2481" height="47.1178" class="st1"/>
			<text x="6.66" y="650.32" class="st2" v:langID="2052"><v:paragraph v:horizAlign="1"/><v:tabList/>27<v:newlineChar/><tspan
						x="11.64" dy="1.2em" class="st3">0</tspan></text>		</g>
		<g id="shape1480-220" v:mID="1480" v:groupContext="shape" transform="translate(214.281,-311.01)">
			<title>矩形.1480</title>
			<desc>21 0</desc>
			<v:userDefs>
				<v:ud v:nameU="visVersion" v:val="VT0(15):26"/>
			</v:userDefs>
			<v:textBlock v:margins="rect(4,4,4,4)" v:tabSpace="42.5197"/>
			<v:textRect cx="16.624" cy="655.719" width="33.25" height="47.1178"/>
			<rect x="0" y="632.16" width="33.2481" height="47.1178" class="st1"/>
			<text x="6.66" y="650.32" class="st2" v:langID="2052"><v:paragraph v:horizAlign="1"/><v:tabList/>21<v:newlineChar/><tspan
						x="11.64" dy="1.2em" class="st3">0</tspan></text>		</g>
		<g id="shape1481-224" v:mID="1481" v:groupContext="shape" transform="translate(290.474,-311.01)">
			<title>矩形.1481</title>
			<desc>16 0</desc>
			<v:userDefs>
				<v:ud v:nameU="visVersion" v:val="VT0(15):26"/>
			</v:userDefs>
			<v:textBlock v:margins="rect(4,4,4,4)" v:tabSpace="42.5197"/>
			<v:textRect cx="16.624" cy="655.719" width="33.25" height="47.1178"/>
			<rect x="0" y="632.16" width="33.2481" height="47.1178" class="st1"/>
			<text x="6.66" y="650.32" class="st2" v:langID="2052"><v:paragraph v:horizAlign="1"/><v:tabList/>16<v:newlineChar/><tspan
						x="11.64" dy="1.2em" class="st3">0</tspan></text>		</g>
		<g id="shape1482-228" v:mID="1482" v:groupContext="shape" transform="translate(301.698,-205.564)">
			<title>矩形.1482</title>
			<desc>31 1</desc>
			<v:userDefs>
				<v:ud v:nameU="visVersion" v:val="VT0(15):26"/>
			</v:userDefs>
			<v:textBlock v:margins="rect(4,4,4,4)" v:tabSpace="42.5197"/>
			<v:textRect cx="16.624" cy="655.719" width="33.25" height="47.1178"/>
			<rect x="0" y="632.16" width="33.2481" height="47.1178" class="st1"/>
			<text x="6.66" y="650.32" class="st2" v:langID="2052"><v:paragraph v:horizAlign="1"/><v:tabList/>31<v:newlineChar/><tspan
						x="11.64" dy="1.2em" class="st3">1</tspan></text>		</g>
		<g id="shape1483-232" v:mID="1483" v:groupContext="shape" transform="translate(407.78,-102.969)">
			<title>矩形.1483</title>
			<desc>26 0</desc>
			<v:userDefs>
				<v:ud v:nameU="visVersion" v:val="VT0(15):26"/>
			</v:userDefs>
			<v:textBlock v:margins="rect(4,4,4,4)" v:tabSpace="42.5197"/>
			<v:textRect cx="16.624" cy="655.719" width="33.25" height="47.1178"/>
			<rect x="0" y="632.16" width="33.2481" height="47.1178" class="st5"/>
			<text x="6.66" y="650.32" class="st2" v:langID="2052"><v:paragraph v:horizAlign="1"/><v:tabList/>26<v:newlineChar/><tspan
						x="11.64" dy="1.2em" class="st3">0</tspan></text>		</g>
		<g id="group1484-236" transform="translate(820.335,663.164) rotate(126.31)" v:mID="1484" v:groupContext="group">
			<v:userDefs>
				<v:ud v:nameU="visVersion" v:val="VT0(15):26"/>
			</v:userDefs>
			<title>一维单向箭头.1484</title>
			<g id="shape1485-237" v:mID="1485" v:groupContext="shape">
				<title>工作表.1485</title>
				<path d="M0 678.39 L72.54 678.39 L72.54 679.28 L73.42 677.5 L72.54 675.73 L72.54 676.62 L0 676.62 L0 678.39 Z"
						class="st6"/>
				<path d="M0 678.39 L72.54 678.39 L72.54 679.28 L73.42 677.5 L72.54 675.73 L72.54 676.62 L0 676.62" class="st7"/>
			</g>
			<g id="shape1486-240" v:mID="1486" v:groupContext="shape">
				<title>工作表.1486</title>
				<path d="M0 678.39 L72.54 678.39 L72.54 679.28 L73.42 677.5 L72.54 675.73 L72.54 676.62 L0 676.62 L0 678.39"
						class="st8"/>
			</g>
			<g id="shape1487-243" v:mID="1487" v:groupContext="shape" transform="translate(-0.941468,-0.902723)">
				<title>工作表.1487</title>
				<rect x="0" y="677.533" width="0.414442" height="1.74532" class="st9"/>
			</g>
		</g>
		<g id="group1488-245" transform="translate(867.294,-65.84) rotate(61.0616)" v:mID="1488" v:groupContext="group">
			<v:userDefs>
				<v:ud v:nameU="visVersion" v:val="VT0(15):26"/>
			</v:userDefs>
			<title>一维单向箭头.1488</title>
			<g id="shape1489-246" v:mID="1489" v:groupContext="shape">
				<title>工作表.1489</title>
				<path d="M0 678.39 L66.72 678.39 L66.72 679.28 L67.61 677.5 L66.72 675.73 L66.72 676.62 L0 676.62 L0 678.39 Z"
						class="st6"/>
				<path d="M0 678.39 L66.72 678.39 L66.72 679.28 L67.61 677.5 L66.72 675.73 L66.72 676.62 L0 676.62" class="st7"/>
			</g>
			<g id="shape1490-249" v:mID="1490" v:groupContext="shape">
				<title>工作表.1490</title>
				<path d="M0 678.39 L66.72 678.39 L66.72 679.28 L67.61 677.5 L66.72 675.73 L66.72 676.62 L0 676.62 L0 678.39"
						class="st8"/>
			</g>
			<g id="shape1491-252" v:mID="1491" v:groupContext="shape" transform="translate(-0.866903,-0.902723)">
				<title>工作表.1491</title>
				<rect x="0" y="677.533" width="0.381618" height="1.74532" class="st9"/>
			</g>
		</g>
		<g id="group1492-254" transform="translate(925.871,734.561) rotate(122.807)" v:mID="1492" v:groupContext="group">
			<v:userDefs>
				<v:ud v:nameU="visVersion" v:val="VT0(15):26"/>
			</v:userDefs>
			<title>一维单向箭头.1492</title>
			<g id="shape1493-255" v:mID="1493" v:groupContext="shape">
				<title>工作表.1493</title>
				<path d="M0 678.39 L69.45 678.39 L69.45 679.28 L70.34 677.5 L69.45 675.73 L69.45 676.62 L0 676.62 L0 678.39 Z"
						class="st6"/>
				<path d="M0 678.39 L69.45 678.39 L69.45 679.28 L70.34 677.5 L69.45 675.73 L69.45 676.62 L0 676.62" class="st7"/>
			</g>
			<g id="shape1494-258" v:mID="1494" v:groupContext="shape">
				<title>工作表.1494</title>
				<path d="M0 678.39 L69.45 678.39 L69.45 679.28 L70.34 677.5 L69.45 675.73 L69.45 676.62 L0 676.62 L0 678.39"
						class="st8"/>
			</g>
			<g id="shape1495-261" v:mID="1495" v:groupContext="shape" transform="translate(-0.901886,-0.902723)">
				<title>工作表.1495</title>
				<rect x="0" y="677.533" width="0.397018" height="1.74532" class="st9"/>
			</g>
		</g>
		<g id="group1496-263" transform="translate(936.484,17.4067) rotate(58.8883)" v:mID="1496" v:groupContext="group">
			<v:userDefs>
				<v:ud v:nameU="visVersion" v:val="VT0(15):26"/>
			</v:userDefs>
			<title>一维单向箭头.1496</title>
			<g id="shape1497-264" v:mID="1497" v:groupContext="shape">
				<title>工作表.1497</title>
				<path d="M0 678.39 L68.16 678.39 L68.16 679.28 L69.05 677.5 L68.16 675.73 L68.16 676.62 L0 676.62 L0 678.39 Z"
						class="st11"/>
				<path d="M0 678.39 L68.16 678.39 L68.16 679.28 L69.05 677.5 L68.16 675.73 L68.16 676.62 L0 676.62" class="st7"/>
			</g>
			<g id="shape1498-267" v:mID="1498" v:groupContext="shape">
				<title>工作表.1498</title>
				<path d="M0 678.39 L68.16 678.39 L68.16 679.28 L69.05 677.5 L68.16 675.73 L68.16 676.62 L0 676.62 L0 678.39"
						class="st8"/>
			</g>
			<g id="shape1499-270" v:mID="1499" v:groupContext="shape" transform="translate(-0.885385,-0.902723)">
				<title>工作表.1499</title>
				<rect x="0" y="677.533" width="0.389753" height="1.74532" class="st9"/>
			</g>
		</g>
		<g id="group1500-272" transform="translate(888.675,839.376) rotate(122.665)" v:mID="1500" v:groupContext="group">
			<v:userDefs>
				<v:ud v:nameU="visVersion" v:val="VT0(15):26"/>
			</v:userDefs>
			<title>一维单向箭头.1500</title>
			<g id="shape1501-273" v:mID="1501" v:groupContext="shape">
				<title>工作表.1501</title>
				<path d="M0 678.39 L65.01 678.39 L65.01 679.28 L65.9 677.5 L65.01 675.73 L65.01 676.62 L0 676.62 L0 678.39 Z"
						class="st6"/>
				<path d="M0 678.39 L65.01 678.39 L65.01 679.28 L65.9 677.5 L65.01 675.73 L65.01 676.62 L0 676.62" class="st7"/>
			</g>
			<g id="shape1502-276" v:mID="1502" v:groupContext="shape">
				<title>工作表.1502</title>
				<path d="M0 678.39 L65.01 678.39 L65.01 679.28 L65.9 677.5 L65.01 675.73 L65.01 676.62 L0 676.62 L0 678.39"
						class="st8"/>
			</g>
			<g id="shape1503-279" v:mID="1503" v:groupContext="shape" transform="translate(-0.844967,-0.902723)">
				<title>工作表.1503</title>
				<rect x="0" y="677.533" width="0.371961" height="1.74532" class="st9"/>
			</g>
		</g>
		<g id="group1504-281" transform="translate(970.578,290.486) rotate(74.3092)" v:mID="1504" v:groupContext="group">
			<v:userDefs>
				<v:ud v:nameU="visVersion" v:val="VT0(15):26"/>
			</v:userDefs>
			<title>一维单向箭头.1504</title>
			<g id="shape1505-282" v:mID="1505" v:groupContext="shape">
				<title>工作表.1505</title>
				<path d="M0 678.39 L56.74 678.39 L56.74 679.28 L57.62 677.5 L56.74 675.73 L56.74 676.62 L0 676.62 L0 678.39 Z"
						class="st6"/>
				<path d="M0 678.39 L56.74 678.39 L56.74 679.28 L57.62 677.5 L56.74 675.73 L56.74 676.62 L0 676.62" class="st7"/>
			</g>
			<g id="shape1506-285" v:mID="1506" v:groupContext="shape">
				<title>工作表.1506</title>
				<path d="M0 678.39 L56.74 678.39 L56.74 679.28 L57.62 677.5 L56.74 675.73 L56.74 676.62 L0 676.62 L0 678.39"
						class="st8"/>
			</g>
			<g id="shape1507-288" v:mID="1507" v:groupContext="shape" transform="translate(-0.738865,-0.902723)">
				<title>工作表.1507</title>
				<rect x="0" y="677.533" width="0.325254" height="1.74532" class="st9"/>
			</g>
		</g>
		<g id="group1508-290" transform="translate(1066.11,793.633) rotate(108.71)" v:mID="1508" v:groupContext="group">
			<v:userDefs>
				<v:ud v:nameU="visVersion" v:val="VT0(15):26"/>
			</v:userDefs>
			<title>一维单向箭头.1508</title>
			<g id="shape1509-291" v:mID="1509" v:groupContext="shape">
				<title>工作表.1509</title>
				<path d="M0 678.39 L57.68 678.39 L57.68 679.28 L58.57 677.5 L57.68 675.73 L57.68 676.62 L0 676.62 L0 678.39 Z"
						class="st6"/>
				<path d="M0 678.39 L57.68 678.39 L57.68 679.28 L58.57 677.5 L57.68 675.73 L57.68 676.62 L0 676.62" class="st7"/>
			</g>
			<g id="shape1510-294" v:mID="1510" v:groupContext="shape">
				<title>工作表.1510</title>
				<path d="M0 678.39 L57.68 678.39 L57.68 679.28 L58.57 677.5 L57.68 675.73 L57.68 676.62 L0 676.62 L0 678.39"
						class="st8"/>
			</g>
			<g id="shape1511-297" v:mID="1511" v:groupContext="shape" transform="translate(-0.751018,-0.902723)">
				<title>工作表.1511</title>
				<rect x="0" y="677.533" width="0.330604" height="1.74532" class="st9"/>
			</g>
		</g>
		<g id="group1512-299" transform="translate(888.727,879.309) rotate(116.566)" v:mID="1512" v:groupContext="group">
			<v:userDefs>
				<v:ud v:nameU="visVersion" v:val="VT0(15):26"/>
			</v:userDefs>
			<title>一维单向箭头.1512</title>
			<g id="shape1513-300" v:mID="1513" v:groupContext="shape">
				<title>工作表.1513</title>
				<path d="M0 678.39 L61.14 678.39 L61.14 679.28 L62.03 677.5 L61.14 675.73 L61.14 676.62 L0 676.62 L0 678.39 Z"
						class="st6"/>
				<path d="M0 678.39 L61.14 678.39 L61.14 679.28 L62.03 677.5 L61.14 675.73 L61.14 676.62 L0 676.62" class="st7"/>
			</g>
			<g id="shape1514-303" v:mID="1514" v:groupContext="shape">
				<title>工作表.1514</title>
				<path d="M0 678.39 L61.14 678.39 L61.14 679.28 L62.03 677.5 L61.14 675.73 L61.14 676.62 L0 676.62 L0 678.39"
						class="st8"/>
			</g>
			<g id="shape1515-306" v:mID="1515" v:groupContext="shape" transform="translate(-0.7953,-0.902723)">
				<title>工作表.1515</title>
				<rect x="0" y="677.533" width="0.350097" height="1.74532" class="st9"/>
			</g>
		</g>
		<g id="group1516-308" transform="translate(977.64,132.882) rotate(59.7966)" v:mID="1516" v:groupContext="group">
			<v:userDefs>
				<v:ud v:nameU="visVersion" v:val="VT0(15):26"/>
			</v:userDefs>
			<title>一维单向箭头.1516</title>
			<g id="shape1517-309" v:mID="1517" v:groupContext="shape">
				<title>工作表.1517</title>
				<path d="M0 678.39 L63.3 678.39 L63.3 679.28 L64.19 677.5 L63.3 675.73 L63.3 676.62 L0 676.62 L0 678.39 Z"
						class="st11"/>
				<path d="M0 678.39 L63.3 678.39 L63.3 679.28 L64.19 677.5 L63.3 675.73 L63.3 676.62 L0 676.62" class="st7"/>
			</g>
			<g id="shape1518-312" v:mID="1518" v:groupContext="shape">
				<title>工作表.1518</title>
				<path d="M0 678.39 L63.3 678.39 L63.3 679.28 L64.19 677.5 L63.3 675.73 L63.3 676.62 L0 676.62 L0 678.39"
						class="st8"/>
			</g>
			<g id="shape1519-315" v:mID="1519" v:groupContext="shape" transform="translate(-0.823067,-0.902723)">
				<title>工作表.1519</title>
				<rect x="0" y="677.533" width="0.362321" height="1.74532" class="st9"/>
			</g>
		</g>
		<g id="shape1520-317" v:mID="1520" v:groupContext="shape" transform="translate(441.225,-0.375)">
			<title>矩形.1520</title>
			<desc>nil -1</desc>
			<v:userDefs>
				<v:ud v:nameU="visVersion" v:val="VT0(15):26"/>
			</v:userDefs>
			<v:textBlock v:margins="rect(4,4,4,4)" v:tabSpace="42.5197"/>
			<v:textRect cx="16.624" cy="655.719" width="33.25" height="47.1178"/>
			<rect x="0" y="632.16" width="33.2481" height="47.1178" class="st5"/>
			<text x="6.66" y="650.32" class="st2" v:langID="2052"><v:paragraph v:horizAlign="1"/><v:tabList/>nil<v:newlineChar/><tspan
						x="8.65" dy="1.2em" class="st3">-</tspan>1</text>		</g>
		<g id="group1521-321" transform="translate(1004.62,226.515) rotate(58.9157)" v:mID="1521" v:groupContext="group">
			<v:userDefs>
				<v:ud v:nameU="visVersion" v:val="VT0(15):26"/>
			</v:userDefs>
			<title>一维单向箭头.1521</title>
			<g id="shape1522-322" v:mID="1522" v:groupContext="shape">
				<title>工作表.1522</title>
				<path d="M0 678.39 L63.89 678.39 L63.89 679.28 L64.78 677.5 L63.89 675.73 L63.89 676.62 L0 676.62 L0 678.39 Z"
						class="st11"/>
				<path d="M0 678.39 L63.89 678.39 L63.89 679.28 L64.78 677.5 L63.89 675.73 L63.89 676.62 L0 676.62" class="st7"/>
			</g>
			<g id="shape1523-325" v:mID="1523" v:groupContext="shape">
				<title>工作表.1523</title>
				<path d="M0 678.39 L63.89 678.39 L63.89 679.28 L64.78 677.5 L63.89 675.73 L63.89 676.62 L0 676.62 L0 678.39"
						class="st8"/>
			</g>
			<g id="shape1524-328" v:mID="1524" v:groupContext="shape" transform="translate(-0.830598,-0.902723)">
				<title>工作表.1524</title>
				<rect x="0" y="677.533" width="0.365636" height="1.74532" class="st9"/>
			</g>
		</g>
	</g>
</svg>
