<?xml version="1.0" encoding="UTF-8" standalone="no"?>
<!DOCTYPE svg PUBLIC "-//W3C//DTD SVG 1.1//EN" "http://www.w3.org/Graphics/SVG/1.1/DTD/svg11.dtd">
<!-- 由 Microsoft Visio, SVG Export 生成 LeftistTree3.svg 页-1 -->
<svg xmlns="http://www.w3.org/2000/svg" xmlns:xlink="http://www.w3.org/1999/xlink" xmlns:ev="http://www.w3.org/2001/xml-events"
		xmlns:v="http://schemas.microsoft.com/visio/2003/SVGExtensions/" width="9.84166in" height="7.85246in"
		viewBox="0 0 708.599 565.377" xml:space="preserve" color-interpolation-filters="sRGB" class="st10">
	<v:documentProperties v:langID="2052" v:metric="true" v:viewMarkup="false"/>

	<style type="text/css">
	<![CDATA[
		.st1 {fill:#ffffff;stroke:#000000;stroke-linecap:round;stroke-linejoin:round;stroke-width:0.75}
		.st2 {fill:#000000;font-family:Cambria Math;font-size:1.5em}
		.st3 {font-size:1em}
		.st4 {fill:#4bacc6;stroke:#000000;stroke-linecap:round;stroke-linejoin:round;stroke-width:0.75}
		.st5 {fill:#ffffff}
		.st6 {stroke:none;stroke-linecap:round;stroke-linejoin:round;stroke-width:0.75}
		.st7 {stroke:#000000;stroke-linecap:round;stroke-linejoin:round;stroke-width:0.24}
		.st8 {fill:#ffffff;stroke:none;stroke-linecap:round;stroke-linejoin:round;stroke-width:0.24;visibility:hidden}
		.st9 {fill:#4bacc6}
		.st10 {fill:none;fill-rule:evenodd;font-size:12px;overflow:visible;stroke-linecap:square;stroke-miterlimit:3}
	]]>
	</style>

	<g v:mID="0" v:index="1" v:groupContext="foregroundPage">
		<title>页-1</title>
		<v:pageProperties v:drawingScale="0.0393701" v:pageScale="0.0393701" v:drawingUnits="24" v:shadowOffsetX="8.50394"
				v:shadowOffsetY="-8.50394"/>
		<g id="shape306-1" v:mID="306" v:groupContext="shape" transform="translate(180.485,-517.884)">
			<title>矩形.306</title>
			<desc>6 2</desc>
			<v:userDefs>
				<v:ud v:nameU="visVersion" v:val="VT0(15):26"/>
			</v:userDefs>
			<v:textBlock v:margins="rect(4,4,4,4)" v:tabSpace="42.5197"/>
			<v:textRect cx="16.624" cy="541.818" width="33.25" height="47.1178"/>
			<rect x="0" y="518.259" width="33.2481" height="47.1178" class="st1"/>
			<text x="11.64" y="536.42" class="st2" v:langID="2052"><v:paragraph v:horizAlign="1"/><v:tabList/>6<v:newlineChar/><tspan
						x="11.64" dy="1.2em" class="st3">2</tspan></text>		</g>
		<g id="shape307-5" v:mID="307" v:groupContext="shape" transform="translate(324.986,-417.353)">
			<title>矩形.307</title>
			<desc>7 2</desc>
			<v:userDefs>
				<v:ud v:nameU="visVersion" v:val="VT0(15):26"/>
			</v:userDefs>
			<v:textBlock v:margins="rect(4,4,4,4)" v:tabSpace="42.5197"/>
			<v:textRect cx="16.624" cy="541.818" width="33.25" height="47.1178"/>
			<rect x="0" y="518.259" width="33.2481" height="47.1178" class="st4"/>
			<text x="11.64" y="536.42" class="st2" v:langID="2052"><v:paragraph v:horizAlign="1"/><v:tabList/>7<v:newlineChar/><tspan
						x="11.64" dy="1.2em" class="st3">2</tspan></text>		</g>
		<g id="shape308-9" v:mID="308" v:groupContext="shape" transform="translate(85.856,-417.353)">
			<title>矩形.308</title>
			<desc>11 2</desc>
			<v:userDefs>
				<v:ud v:nameU="visVersion" v:val="VT0(15):26"/>
			</v:userDefs>
			<v:textBlock v:margins="rect(4,4,4,4)" v:tabSpace="42.5197"/>
			<v:textRect cx="16.624" cy="541.818" width="33.25" height="47.1178"/>
			<rect x="0" y="518.259" width="33.2481" height="47.1178" class="st1"/>
			<text x="6.66" y="536.42" class="st2" v:langID="2052"><v:paragraph v:horizAlign="1"/><v:tabList/>11<v:newlineChar/><tspan
						x="11.64" dy="1.2em" class="st3">2</tspan></text>		</g>
		<g id="shape309-13" v:mID="309" v:groupContext="shape" transform="translate(635.63,-417.304)">
			<title>矩形.309</title>
			<desc>8 1</desc>
			<v:userDefs>
				<v:ud v:nameU="visVersion" v:val="VT0(15):26"/>
			</v:userDefs>
			<v:textBlock v:margins="rect(4,4,4,4)" v:tabSpace="42.5197"/>
			<v:textRect cx="16.624" cy="541.818" width="33.25" height="47.1178"/>
			<rect x="0" y="518.259" width="33.2481" height="47.1178" class="st1"/>
			<text x="11.64" y="536.42" class="st2" v:langID="2052"><v:paragraph v:horizAlign="1"/><v:tabList/>8<v:newlineChar/><tspan
						x="11.64" dy="1.2em" class="st3">1</tspan></text>		</g>
		<g id="group310-17" transform="translate(474.148,538.305) rotate(150.557)" v:mID="310" v:groupContext="group">
			<v:userDefs>
				<v:ud v:nameU="visVersion" v:val="VT0(15):26"/>
			</v:userDefs>
			<title>一维单向箭头.310</title>
			<g id="shape311-18" v:mID="311" v:groupContext="shape">
				<title>工作表.311</title>
				<path d="M0 564.49 L107.78 564.49 L107.78 565.38 L108.66 563.6 L107.78 561.83 L107.78 562.71 L0 562.71 L0 564.49 Z"
						class="st5"/>
				<path d="M0 564.49 L107.78 564.49 L107.78 565.38 L108.66 563.6 L107.78 561.83 L107.78 562.71 L0 562.71" class="st6"/>
			</g>
			<g id="shape312-21" v:mID="312" v:groupContext="shape">
				<title>工作表.312</title>
				<path d="M0 564.49 L107.78 564.49 L107.78 565.38 L108.66 563.6 L107.78 561.83 L107.78 562.71 L0 562.71 L0 564.49"
						class="st7"/>
			</g>
			<g id="shape313-24" v:mID="313" v:groupContext="shape" transform="translate(-1.3933,-0.902723)">
				<title>工作表.313</title>
				<rect x="0" y="563.632" width="0.613342" height="1.74532" class="st8"/>
			</g>
		</g>
		<g id="group314-26" transform="translate(392.516,-481.15) rotate(20.2863)" v:mID="314" v:groupContext="group">
			<v:userDefs>
				<v:ud v:nameU="visVersion" v:val="VT0(15):26"/>
			</v:userDefs>
			<title>一维单向箭头.314</title>
			<g id="shape315-27" v:mID="315" v:groupContext="shape">
				<title>工作表.315</title>
				<path d="M0 564.49 L153.17 564.49 L153.17 565.38 L154.06 563.6 L153.17 561.83 L153.17 562.71 L0 562.71 L0 564.49 Z"
						class="st9"/>
				<path d="M0 564.49 L153.17 564.49 L153.17 565.38 L154.06 563.6 L153.17 561.83 L153.17 562.71 L0 562.71" class="st6"/>
			</g>
			<g id="shape316-30" v:mID="316" v:groupContext="shape">
				<title>工作表.316</title>
				<path d="M0 564.49 L153.17 564.49 L153.17 565.38 L154.06 563.6 L153.17 561.83 L153.17 562.71 L0 562.71 L0 564.49"
						class="st7"/>
			</g>
			<g id="shape317-33" v:mID="317" v:groupContext="shape" transform="translate(-1.97535,-0.902723)">
				<title>工作表.317</title>
				<rect x="0" y="563.632" width="0.869567" height="1.74532" class="st8"/>
			</g>
		</g>
		<g id="shape318-35" v:mID="318" v:groupContext="shape" transform="translate(232.718,-303.395)">
			<title>矩形.318</title>
			<desc>9 1</desc>
			<v:userDefs>
				<v:ud v:nameU="visVersion" v:val="VT0(15):26"/>
			</v:userDefs>
			<v:textBlock v:margins="rect(4,4,4,4)" v:tabSpace="42.5197"/>
			<v:textRect cx="16.624" cy="541.818" width="33.25" height="47.1178"/>
			<rect x="0" y="518.259" width="33.2481" height="47.1178" class="st1"/>
			<text x="11.64" y="536.42" class="st2" v:langID="2052"><v:paragraph v:horizAlign="1"/><v:tabList/>9<v:newlineChar/><tspan
						x="11.64" dy="1.2em" class="st3">1</tspan></text>		</g>
		<g id="group319-39" transform="translate(672.251,604.449) rotate(144.08)" v:mID="319" v:groupContext="group">
			<v:userDefs>
				<v:ud v:nameU="visVersion" v:val="VT0(15):26"/>
			</v:userDefs>
			<title>一维单向箭头.319</title>
			<g id="shape320-40" v:mID="320" v:groupContext="shape">
				<title>工作表.320</title>
				<path d="M0 564.49 L113.05 564.49 L113.05 565.38 L113.93 563.6 L113.05 561.83 L113.05 562.71 L0 562.71 L0 564.49 Z"
						class="st5"/>
				<path d="M0 564.49 L113.05 564.49 L113.05 565.38 L113.93 563.6 L113.05 561.83 L113.05 562.71 L0 562.71" class="st6"/>
			</g>
			<g id="shape321-43" v:mID="321" v:groupContext="shape">
				<title>工作表.321</title>
				<path d="M0 564.49 L113.05 564.49 L113.05 565.38 L113.93 563.6 L113.05 561.83 L113.05 562.71 L0 562.71 L0 564.49"
						class="st7"/>
			</g>
			<g id="shape322-46" v:mID="322" v:groupContext="shape" transform="translate(-1.46089,-0.902723)">
				<title>工作表.322</title>
				<rect x="0" y="563.632" width="0.643097" height="1.74532" class="st8"/>
			</g>
		</g>
		<g id="shape323-48" v:mID="323" v:groupContext="shape" transform="translate(409.779,-303.395)">
			<title>矩形.323</title>
			<desc>12 1</desc>
			<v:userDefs>
				<v:ud v:nameU="visVersion" v:val="VT0(15):26"/>
			</v:userDefs>
			<v:textBlock v:margins="rect(4,4,4,4)" v:tabSpace="42.5197"/>
			<v:textRect cx="16.624" cy="541.818" width="33.25" height="47.1178"/>
			<rect x="0" y="518.259" width="33.2481" height="47.1178" class="st1"/>
			<text x="6.66" y="536.42" class="st2" v:langID="2052"><v:paragraph v:horizAlign="1"/><v:tabList/>12<v:newlineChar/><tspan
						x="11.64" dy="1.2em" class="st3">1</tspan></text>		</g>
		<g id="group324-52" transform="translate(690.518,-294.593) rotate(38.2481)" v:mID="324" v:groupContext="group">
			<v:userDefs>
				<v:ud v:nameU="visVersion" v:val="VT0(15):26"/>
			</v:userDefs>
			<title>一维单向箭头.324</title>
			<g id="shape325-53" v:mID="325" v:groupContext="shape">
				<title>工作表.325</title>
				<path d="M0 564.49 L107.08 564.49 L107.08 565.38 L107.97 563.6 L107.08 561.83 L107.08 562.71 L0 562.71 L0 564.49 Z"
						class="st5"/>
				<path d="M0 564.49 L107.08 564.49 L107.08 565.38 L107.97 563.6 L107.08 561.83 L107.08 562.71 L0 562.71" class="st6"/>
			</g>
			<g id="shape326-56" v:mID="326" v:groupContext="shape">
				<title>工作表.326</title>
				<path d="M0 564.49 L107.08 564.49 L107.08 565.38 L107.97 563.6 L107.08 561.83 L107.08 562.71 L0 562.71 L0 564.49"
						class="st7"/>
			</g>
			<g id="shape327-59" v:mID="327" v:groupContext="shape" transform="translate(-1.38441,-0.902723)">
				<title>工作表.327</title>
				<rect x="0" y="563.632" width="0.609427" height="1.74532" class="st8"/>
			</g>
		</g>
		<g id="shape328-61" v:mID="328" v:groupContext="shape" transform="translate(39.7218,-303.395)">
			<title>矩形.328</title>
			<desc>17 1</desc>
			<v:userDefs>
				<v:ud v:nameU="visVersion" v:val="VT0(15):26"/>
			</v:userDefs>
			<v:textBlock v:margins="rect(4,4,4,4)" v:tabSpace="42.5197"/>
			<v:textRect cx="16.624" cy="541.818" width="33.25" height="47.1178"/>
			<rect x="0" y="518.259" width="33.2481" height="47.1178" class="st1"/>
			<text x="6.66" y="536.42" class="st2" v:langID="2052"><v:paragraph v:horizAlign="1"/><v:tabList/>17<v:newlineChar/><tspan
						x="11.64" dy="1.2em" class="st3">1</tspan></text>		</g>
		<g id="shape329-65" v:mID="329" v:groupContext="shape" transform="translate(122.153,-303.395)">
			<title>矩形.329</title>
			<desc>14 1</desc>
			<v:userDefs>
				<v:ud v:nameU="visVersion" v:val="VT0(15):26"/>
			</v:userDefs>
			<v:textBlock v:margins="rect(4,4,4,4)" v:tabSpace="42.5197"/>
			<v:textRect cx="16.624" cy="541.818" width="33.25" height="47.1178"/>
			<rect x="0" y="518.259" width="33.2481" height="47.1178" class="st1"/>
			<text x="6.66" y="536.42" class="st2" v:langID="2052"><v:paragraph v:horizAlign="1"/><v:tabList/>14<v:newlineChar/><tspan
						x="11.64" dy="1.2em" class="st3">1</tspan></text>		</g>
		<g id="group330-69" transform="translate(566.323,468.175) rotate(124.614)" v:mID="330" v:groupContext="group">
			<v:userDefs>
				<v:ud v:nameU="visVersion" v:val="VT0(15):26"/>
			</v:userDefs>
			<title>一维单向箭头.330</title>
			<g id="shape331-70" v:mID="331" v:groupContext="shape">
				<title>工作表.331</title>
				<path d="M0 564.49 L80.33 564.49 L80.33 565.38 L81.22 563.6 L80.33 561.83 L80.33 562.71 L0 562.71 L0 564.49 Z"
						class="st5"/>
				<path d="M0 564.49 L80.33 564.49 L80.33 565.38 L81.22 563.6 L80.33 561.83 L80.33 562.71 L0 562.71" class="st6"/>
			</g>
			<g id="shape332-73" v:mID="332" v:groupContext="shape">
				<title>工作表.332</title>
				<path d="M0 564.49 L80.33 564.49 L80.33 565.38 L81.22 563.6 L80.33 561.83 L80.33 562.71 L0 562.71 L0 564.49"
						class="st7"/>
			</g>
			<g id="shape333-76" v:mID="333" v:groupContext="shape" transform="translate(-1.04137,-0.902723)">
				<title>工作表.333</title>
				<rect x="0" y="563.632" width="0.458418" height="1.74532" class="st8"/>
			</g>
		</g>
		<g id="group334-78" transform="translate(597.764,-120.938) rotate(61.496)" v:mID="334" v:groupContext="group">
			<v:userDefs>
				<v:ud v:nameU="visVersion" v:val="VT0(15):26"/>
			</v:userDefs>
			<title>一维单向箭头.334</title>
			<g id="shape335-79" v:mID="335" v:groupContext="shape">
				<title>工作表.335</title>
				<path d="M0 564.49 L75.17 564.49 L75.17 565.38 L76.06 563.6 L75.17 561.83 L75.17 562.71 L0 562.71 L0 564.49 Z"
						class="st5"/>
				<path d="M0 564.49 L75.17 564.49 L75.17 565.38 L76.06 563.6 L75.17 561.83 L75.17 562.71 L0 562.71" class="st6"/>
			</g>
			<g id="shape336-82" v:mID="336" v:groupContext="shape">
				<title>工作表.336</title>
				<path d="M0 564.49 L75.17 564.49 L75.17 565.38 L76.06 563.6 L75.17 561.83 L75.17 562.71 L0 562.71 L0 564.49"
						class="st7"/>
			</g>
			<g id="shape337-85" v:mID="337" v:groupContext="shape" transform="translate(-0.97526,-0.902723)">
				<title>工作表.337</title>
				<rect x="0" y="563.632" width="0.429317" height="1.74532" class="st8"/>
			</g>
		</g>
		<g id="shape338-87" v:mID="338" v:groupContext="shape" transform="translate(0.375,-197.109)">
			<title>矩形.338</title>
			<desc>18 0</desc>
			<v:userDefs>
				<v:ud v:nameU="visVersion" v:val="VT0(15):26"/>
			</v:userDefs>
			<v:textBlock v:margins="rect(4,4,4,4)" v:tabSpace="42.5197"/>
			<v:textRect cx="16.624" cy="541.818" width="33.25" height="47.1178"/>
			<rect x="0" y="518.259" width="33.2481" height="47.1178" class="st1"/>
			<text x="6.66" y="536.42" class="st2" v:langID="2052"><v:paragraph v:horizAlign="1"/><v:tabList/>18<v:newlineChar/><tspan
						x="11.64" dy="1.2em" class="st3">0</tspan></text>		</g>
		<g id="shape339-91" v:mID="339" v:groupContext="shape" transform="translate(48.0338,-197.109)">
			<title>矩形.339</title>
			<desc>20 0</desc>
			<v:userDefs>
				<v:ud v:nameU="visVersion" v:val="VT0(15):26"/>
			</v:userDefs>
			<v:textBlock v:margins="rect(4,4,4,4)" v:tabSpace="42.5197"/>
			<v:textRect cx="16.624" cy="541.818" width="33.25" height="47.1178"/>
			<rect x="0" y="518.259" width="33.2481" height="47.1178" class="st1"/>
			<text x="6.66" y="536.42" class="st2" v:langID="2052"><v:paragraph v:horizAlign="1"/><v:tabList/>20<v:newlineChar/><tspan
						x="11.64" dy="1.2em" class="st3">0</tspan></text>		</g>
		<g id="group340-95" transform="translate(525.651,574.072) rotate(123.624)" v:mID="340" v:groupContext="group">
			<v:userDefs>
				<v:ud v:nameU="visVersion" v:val="VT0(15):26"/>
			</v:userDefs>
			<title>一维单向箭头.340</title>
			<g id="shape341-96" v:mID="341" v:groupContext="shape">
				<title>工作表.341</title>
				<path d="M0 564.49 L70.17 564.49 L70.17 565.38 L71.06 563.6 L70.17 561.83 L70.17 562.71 L0 562.71 L0 564.49 Z"
						class="st5"/>
				<path d="M0 564.49 L70.17 564.49 L70.17 565.38 L71.06 563.6 L70.17 561.83 L70.17 562.71 L0 562.71" class="st6"/>
			</g>
			<g id="shape342-99" v:mID="342" v:groupContext="shape">
				<title>工作表.342</title>
				<path d="M0 564.49 L70.17 564.49 L70.17 565.38 L71.06 563.6 L70.17 561.83 L70.17 562.71 L0 562.71 L0 564.49"
						class="st7"/>
			</g>
			<g id="shape343-102" v:mID="343" v:groupContext="shape" transform="translate(-0.9111,-0.902723)">
				<title>工作表.343</title>
				<rect x="0" y="563.632" width="0.401073" height="1.74532" class="st8"/>
			</g>
		</g>
		<g id="group344-104" transform="translate(614.467,183.576) rotate(82.0033)" v:mID="344" v:groupContext="group">
			<v:userDefs>
				<v:ud v:nameU="visVersion" v:val="VT0(15):26"/>
			</v:userDefs>
			<title>一维单向箭头.344</title>
			<g id="shape345-105" v:mID="345" v:groupContext="shape">
				<title>工作表.345</title>
				<path d="M0 564.49 L58.86 564.49 L58.86 565.38 L59.75 563.6 L58.86 561.83 L58.86 562.71 L0 562.71 L0 564.49 Z"
						class="st5"/>
				<path d="M0 564.49 L58.86 564.49 L58.86 565.38 L59.75 563.6 L58.86 561.83 L58.86 562.71 L0 562.71" class="st6"/>
			</g>
			<g id="shape346-108" v:mID="346" v:groupContext="shape">
				<title>工作表.346</title>
				<path d="M0 564.49 L58.86 564.49 L58.86 565.38 L59.75 563.6 L58.86 561.83 L58.86 562.71 L0 562.71 L0 564.49"
						class="st7"/>
			</g>
			<g id="shape347-111" v:mID="347" v:groupContext="shape" transform="translate(-0.766112,-0.902723)">
				<title>工作表.347</title>
				<rect x="0" y="563.632" width="0.337249" height="1.74532" class="st8"/>
			</g>
		</g>
		<g id="shape348-113" v:mID="348" v:groupContext="shape" transform="translate(95.6927,-197.109)">
			<title>矩形.348</title>
			<desc>19 0</desc>
			<v:userDefs>
				<v:ud v:nameU="visVersion" v:val="VT0(15):26"/>
			</v:userDefs>
			<v:textBlock v:margins="rect(4,4,4,4)" v:tabSpace="42.5197"/>
			<v:textRect cx="16.624" cy="541.818" width="33.25" height="47.1178"/>
			<rect x="0" y="518.259" width="33.2481" height="47.1178" class="st1"/>
			<text x="6.66" y="536.42" class="st2" v:langID="2052"><v:paragraph v:horizAlign="1"/><v:tabList/>19<v:newlineChar/><tspan
						x="11.64" dy="1.2em" class="st3">0</tspan></text>		</g>
		<g id="shape349-117" v:mID="349" v:groupContext="shape" transform="translate(138.089,-197.109)">
			<title>矩形.349</title>
			<desc>24 0</desc>
			<v:userDefs>
				<v:ud v:nameU="visVersion" v:val="VT0(15):26"/>
			</v:userDefs>
			<v:textBlock v:margins="rect(4,4,4,4)" v:tabSpace="42.5197"/>
			<v:textRect cx="16.624" cy="541.818" width="33.25" height="47.1178"/>
			<rect x="0" y="518.259" width="33.2481" height="47.1178" class="st1"/>
			<text x="6.66" y="536.42" class="st2" v:langID="2052"><v:paragraph v:horizAlign="1"/><v:tabList/>24<v:newlineChar/><tspan
						x="11.64" dy="1.2em" class="st3">0</tspan></text>		</g>
		<g id="group350-121" transform="translate(653.273,492.072) rotate(114.095)" v:mID="350" v:groupContext="group">
			<v:userDefs>
				<v:ud v:nameU="visVersion" v:val="VT0(15):26"/>
			</v:userDefs>
			<title>一维单向箭头.350</title>
			<g id="shape351-122" v:mID="351" v:groupContext="shape">
				<title>工作表.351</title>
				<path d="M0 564.49 L63.93 564.49 L63.93 565.38 L64.82 563.6 L63.93 561.83 L63.93 562.71 L0 562.71 L0 564.49 Z"
						class="st5"/>
				<path d="M0 564.49 L63.93 564.49 L63.93 565.38 L64.82 563.6 L63.93 561.83 L63.93 562.71 L0 562.71" class="st6"/>
			</g>
			<g id="shape352-125" v:mID="352" v:groupContext="shape">
				<title>工作表.352</title>
				<path d="M0 564.49 L63.93 564.49 L63.93 565.38 L64.82 563.6 L63.93 561.83 L63.93 562.71 L0 562.71 L0 564.49"
						class="st7"/>
			</g>
			<g id="shape353-128" v:mID="353" v:groupContext="shape" transform="translate(-0.831074,-0.902723)">
				<title>工作表.353</title>
				<rect x="0" y="563.632" width="0.365845" height="1.74532" class="st8"/>
			</g>
		</g>
		<g id="group354-130" transform="translate(682.987,115.412) rotate(74.9264)" v:mID="354" v:groupContext="group">
			<v:userDefs>
				<v:ud v:nameU="visVersion" v:val="VT0(15):26"/>
			</v:userDefs>
			<title>一维单向箭头.354</title>
			<g id="shape355-131" v:mID="355" v:groupContext="shape">
				<title>工作表.355</title>
				<path d="M0 564.49 L60.39 564.49 L60.39 565.38 L61.28 563.6 L60.39 561.83 L60.39 562.71 L0 562.71 L0 564.49 Z"
						class="st5"/>
				<path d="M0 564.49 L60.39 564.49 L60.39 565.38 L61.28 563.6 L60.39 561.83 L60.39 562.71 L0 562.71" class="st6"/>
			</g>
			<g id="shape356-134" v:mID="356" v:groupContext="shape">
				<title>工作表.356</title>
				<path d="M0 564.49 L60.39 564.49 L60.39 565.38 L61.28 563.6 L60.39 561.83 L60.39 562.71 L0 562.71 L0 564.49"
						class="st7"/>
			</g>
			<g id="shape357-137" v:mID="357" v:groupContext="shape" transform="translate(-0.785696,-0.902723)">
				<title>工作表.357</title>
				<rect x="0" y="563.632" width="0.34587" height="1.74532" class="st8"/>
			</g>
		</g>
		<g id="shape358-139" v:mID="358" v:groupContext="shape" transform="translate(600.021,-303.346)">
			<title>矩形.358</title>
			<desc>10 1</desc>
			<v:userDefs>
				<v:ud v:nameU="visVersion" v:val="VT0(15):26"/>
			</v:userDefs>
			<v:textBlock v:margins="rect(4,4,4,4)" v:tabSpace="42.5197"/>
			<v:textRect cx="16.624" cy="541.818" width="33.25" height="47.1178"/>
			<rect x="0" y="518.259" width="33.2481" height="47.1178" class="st1"/>
			<text x="6.66" y="536.42" class="st2" v:langID="2052"><v:paragraph v:horizAlign="1"/><v:tabList/>10<v:newlineChar/><tspan
						x="11.64" dy="1.2em" class="st3">1</tspan></text>		</g>
		<g id="shape359-143" v:mID="359" v:groupContext="shape" transform="translate(674.976,-303.346)">
			<title>矩形.359</title>
			<desc>13 0</desc>
			<v:userDefs>
				<v:ud v:nameU="visVersion" v:val="VT0(15):26"/>
			</v:userDefs>
			<v:textBlock v:margins="rect(4,4,4,4)" v:tabSpace="42.5197"/>
			<v:textRect cx="16.624" cy="541.818" width="33.25" height="47.1178"/>
			<rect x="0" y="518.259" width="33.2481" height="47.1178" class="st1"/>
			<text x="6.66" y="536.42" class="st2" v:langID="2052"><v:paragraph v:horizAlign="1"/><v:tabList/>13<v:newlineChar/><tspan
						x="11.64" dy="1.2em" class="st3">0</tspan></text>		</g>
		<g id="group360-147" transform="translate(1149.67,413.069) rotate(118.046)" v:mID="360" v:groupContext="group">
			<v:userDefs>
				<v:ud v:nameU="visVersion" v:val="VT0(15):26"/>
			</v:userDefs>
			<title>一维单向箭头.360</title>
			<g id="shape361-148" v:mID="361" v:groupContext="shape">
				<title>工作表.361</title>
				<path d="M0 564.49 L74.85 564.49 L74.85 565.38 L75.73 563.6 L74.85 561.83 L74.85 562.71 L0 562.71 L0 564.49 Z"
						class="st5"/>
				<path d="M0 564.49 L74.85 564.49 L74.85 565.38 L75.73 563.6 L74.85 561.83 L74.85 562.71 L0 562.71" class="st6"/>
			</g>
			<g id="shape362-151" v:mID="362" v:groupContext="shape">
				<title>工作表.362</title>
				<path d="M0 564.49 L74.85 564.49 L74.85 565.38 L75.73 563.6 L74.85 561.83 L74.85 562.71 L0 562.71 L0 564.49"
						class="st7"/>
			</g>
			<g id="shape363-154" v:mID="363" v:groupContext="shape" transform="translate(-0.971078,-0.902723)">
				<title>工作表.363</title>
				<rect x="0" y="563.632" width="0.427476" height="1.74532" class="st8"/>
			</g>
		</g>
		<g id="group364-156" transform="translate(1137.95,-137.84) rotate(59.516)" v:mID="364" v:groupContext="group">
			<v:userDefs>
				<v:ud v:nameU="visVersion" v:val="VT0(15):26"/>
			</v:userDefs>
			<title>一维单向箭头.364</title>
			<g id="shape365-157" v:mID="365" v:groupContext="shape">
				<title>工作表.365</title>
				<path d="M0 564.49 L76.67 564.49 L76.67 565.38 L77.56 563.6 L76.67 561.83 L76.67 562.71 L0 562.71 L0 564.49 Z"
						class="st5"/>
				<path d="M0 564.49 L76.67 564.49 L76.67 565.38 L77.56 563.6 L76.67 561.83 L76.67 562.71 L0 562.71" class="st6"/>
			</g>
			<g id="shape366-160" v:mID="366" v:groupContext="shape">
				<title>工作表.366</title>
				<path d="M0 564.49 L76.67 564.49 L76.67 565.38 L77.56 563.6 L76.67 561.83 L76.67 562.71 L0 562.71 L0 564.49"
						class="st7"/>
			</g>
			<g id="shape367-163" v:mID="367" v:groupContext="shape" transform="translate(-0.994513,-0.902723)">
				<title>工作表.367</title>
				<rect x="0" y="563.632" width="0.437793" height="1.74532" class="st8"/>
			</g>
		</g>
		<g id="shape368-165" v:mID="368" v:groupContext="shape" transform="translate(563.035,-197.06)">
			<title>矩形.368</title>
			<desc>15 0</desc>
			<v:userDefs>
				<v:ud v:nameU="visVersion" v:val="VT0(15):26"/>
			</v:userDefs>
			<v:textBlock v:margins="rect(4,4,4,4)" v:tabSpace="42.5197"/>
			<v:textRect cx="16.624" cy="541.818" width="33.25" height="47.1178"/>
			<rect x="0" y="518.259" width="33.2481" height="47.1178" class="st1"/>
			<text x="6.66" y="536.42" class="st2" v:langID="2052"><v:paragraph v:horizAlign="1"/><v:tabList/>15<v:newlineChar/><tspan
						x="11.64" dy="1.2em" class="st3">0</tspan></text>		</g>
		<g id="shape369-169" v:mID="369" v:groupContext="shape" transform="translate(612.907,-197.06)">
			<title>矩形.369</title>
			<desc>30 0</desc>
			<v:userDefs>
				<v:ud v:nameU="visVersion" v:val="VT0(15):26"/>
			</v:userDefs>
			<v:textBlock v:margins="rect(4,4,4,4)" v:tabSpace="42.5197"/>
			<v:textRect cx="16.624" cy="541.818" width="33.25" height="47.1178"/>
			<rect x="0" y="518.259" width="33.2481" height="47.1178" class="st1"/>
			<text x="6.66" y="536.42" class="st2" v:langID="2052"><v:paragraph v:horizAlign="1"/><v:tabList/>30<v:newlineChar/><tspan
						x="11.64" dy="1.2em" class="st3">0</tspan></text>		</g>
		<g id="group370-173" transform="translate(1094.56,560.775) rotate(122.01)" v:mID="370" v:groupContext="group">
			<v:userDefs>
				<v:ud v:nameU="visVersion" v:val="VT0(15):26"/>
			</v:userDefs>
			<title>一维单向箭头.370</title>
			<g id="shape371-174" v:mID="371" v:groupContext="shape">
				<title>工作表.371</title>
				<path d="M0 564.49 L68.89 564.49 L68.89 565.38 L69.78 563.6 L68.89 561.83 L68.89 562.71 L0 562.71 L0 564.49 Z"
						class="st5"/>
				<path d="M0 564.49 L68.89 564.49 L68.89 565.38 L69.78 563.6 L68.89 561.83 L68.89 562.71 L0 562.71" class="st6"/>
			</g>
			<g id="shape372-177" v:mID="372" v:groupContext="shape">
				<title>工作表.372</title>
				<path d="M0 564.49 L68.89 564.49 L68.89 565.38 L69.78 563.6 L68.89 561.83 L68.89 562.71 L0 562.71 L0 564.49"
						class="st7"/>
			</g>
			<g id="shape373-180" v:mID="373" v:groupContext="shape" transform="translate(-0.894693,-0.902723)">
				<title>工作表.373</title>
				<rect x="0" y="563.632" width="0.393851" height="1.74532" class="st8"/>
			</g>
		</g>
		<g id="group374-182" transform="translate(1167.34,142.097) rotate(77.7135)" v:mID="374" v:groupContext="group">
			<v:userDefs>
				<v:ud v:nameU="visVersion" v:val="VT0(15):26"/>
			</v:userDefs>
			<title>一维单向箭头.374</title>
			<g id="shape375-183" v:mID="375" v:groupContext="shape">
				<title>工作表.375</title>
				<path d="M0 564.49 L59.67 564.49 L59.67 565.38 L60.55 563.6 L59.67 561.83 L59.67 562.71 L0 562.71 L0 564.49 Z"
						class="st5"/>
				<path d="M0 564.49 L59.67 564.49 L59.67 565.38 L60.55 563.6 L59.67 561.83 L59.67 562.71 L0 562.71" class="st6"/>
			</g>
			<g id="shape376-186" v:mID="376" v:groupContext="shape">
				<title>工作表.376</title>
				<path d="M0 564.49 L59.67 564.49 L59.67 565.38 L60.55 563.6 L59.67 561.83 L59.67 562.71 L0 562.71 L0 564.49"
						class="st7"/>
			</g>
			<g id="shape377-189" v:mID="377" v:groupContext="shape" transform="translate(-0.776447,-0.902723)">
				<title>工作表.377</title>
				<rect x="0" y="563.632" width="0.341798" height="1.74532" class="st8"/>
			</g>
		</g>
		<g id="shape378-191" v:mID="378" v:groupContext="shape" transform="translate(655.303,-197.06)">
			<title>矩形.378</title>
			<desc>28 0</desc>
			<v:userDefs>
				<v:ud v:nameU="visVersion" v:val="VT0(15):26"/>
			</v:userDefs>
			<v:textBlock v:margins="rect(4,4,4,4)" v:tabSpace="42.5197"/>
			<v:textRect cx="16.624" cy="541.818" width="33.25" height="47.1178"/>
			<rect x="0" y="518.259" width="33.2481" height="47.1178" class="st1"/>
			<text x="6.66" y="536.42" class="st2" v:langID="2052"><v:paragraph v:horizAlign="1"/><v:tabList/>28<v:newlineChar/><tspan
						x="11.64" dy="1.2em" class="st3">0</tspan></text>		</g>
		<g id="group379-195" transform="translate(1226.41,439.858) rotate(108.392)" v:mID="379" v:groupContext="group">
			<v:userDefs>
				<v:ud v:nameU="visVersion" v:val="VT0(15):26"/>
			</v:userDefs>
			<title>一维单向箭头.379</title>
			<g id="shape380-196" v:mID="380" v:groupContext="shape">
				<title>工作表.380</title>
				<path d="M0 564.49 L61.47 564.49 L61.47 565.38 L62.35 563.6 L61.47 561.83 L61.47 562.71 L0 562.71 L0 564.49 Z"
						class="st5"/>
				<path d="M0 564.49 L61.47 564.49 L61.47 565.38 L62.35 563.6 L61.47 561.83 L61.47 562.71 L0 562.71" class="st6"/>
			</g>
			<g id="shape381-199" v:mID="381" v:groupContext="shape">
				<title>工作表.381</title>
				<path d="M0 564.49 L61.47 564.49 L61.47 565.38 L62.35 563.6 L61.47 561.83 L61.47 562.71 L0 562.71 L0 564.49"
						class="st7"/>
			</g>
			<g id="shape382-202" v:mID="382" v:groupContext="shape" transform="translate(-0.799501,-0.902723)">
				<title>工作表.382</title>
				<rect x="0" y="563.632" width="0.351947" height="1.74532" class="st8"/>
			</g>
		</g>
		<g id="shape383-204" v:mID="383" v:groupContext="shape" transform="translate(315.15,-98.7421)">
			<title>矩形.383</title>
			<desc>42 0</desc>
			<v:userDefs>
				<v:ud v:nameU="visVersion" v:val="VT0(15):26"/>
			</v:userDefs>
			<v:textBlock v:margins="rect(4,4,4,4)" v:tabSpace="42.5197"/>
			<v:textRect cx="16.624" cy="541.818" width="33.25" height="47.1178"/>
			<rect x="0" y="518.259" width="33.2481" height="47.1178" class="st1"/>
			<text x="6.66" y="536.42" class="st2" v:langID="2052"><v:paragraph v:horizAlign="1"/><v:tabList/>42<v:newlineChar/><tspan
						x="11.64" dy="1.2em" class="st3">0</tspan></text>		</g>
		<g id="shape384-208" v:mID="384" v:groupContext="shape" transform="translate(393.155,-98.7421)">
			<title>矩形.384</title>
			<desc>33 0</desc>
			<v:userDefs>
				<v:ud v:nameU="visVersion" v:val="VT0(15):26"/>
			</v:userDefs>
			<v:textBlock v:margins="rect(4,4,4,4)" v:tabSpace="42.5197"/>
			<v:textRect cx="16.624" cy="541.818" width="33.25" height="47.1178"/>
			<rect x="0" y="518.259" width="33.2481" height="47.1178" class="st1"/>
			<text x="6.66" y="536.42" class="st2" v:langID="2052"><v:paragraph v:horizAlign="1"/><v:tabList/>33<v:newlineChar/><tspan
						x="11.64" dy="1.2em" class="st3">0</tspan></text>		</g>
		<g id="shape385-212" v:mID="385" v:groupContext="shape" transform="translate(285.64,-0.375)">
			<title>矩形.385</title>
			<desc>50 0</desc>
			<v:userDefs>
				<v:ud v:nameU="visVersion" v:val="VT0(15):26"/>
			</v:userDefs>
			<v:textBlock v:margins="rect(4,4,4,4)" v:tabSpace="42.5197"/>
			<v:textRect cx="16.624" cy="541.818" width="33.25" height="47.1178"/>
			<rect x="0" y="518.259" width="33.2481" height="47.1178" class="st1"/>
			<text x="6.66" y="536.42" class="st2" v:langID="2052"><v:paragraph v:horizAlign="1"/><v:tabList/>50<v:newlineChar/><tspan
						x="11.64" dy="1.2em" class="st3">0</tspan></text>		</g>
		<g id="shape386-216" v:mID="386" v:groupContext="shape" transform="translate(446.076,-98.7421)">
			<title>矩形.386</title>
			<desc>27 0</desc>
			<v:userDefs>
				<v:ud v:nameU="visVersion" v:val="VT0(15):26"/>
			</v:userDefs>
			<v:textBlock v:margins="rect(4,4,4,4)" v:tabSpace="42.5197"/>
			<v:textRect cx="16.624" cy="541.818" width="33.25" height="47.1178"/>
			<rect x="0" y="518.259" width="33.2481" height="47.1178" class="st1"/>
			<text x="6.66" y="536.42" class="st2" v:langID="2052"><v:paragraph v:horizAlign="1"/><v:tabList/>27<v:newlineChar/><tspan
						x="11.64" dy="1.2em" class="st3">0</tspan></text>		</g>
		<g id="shape387-220" v:mID="387" v:groupContext="shape" transform="translate(190.322,-197.109)">
			<title>矩形.387</title>
			<desc>21 0</desc>
			<v:userDefs>
				<v:ud v:nameU="visVersion" v:val="VT0(15):26"/>
			</v:userDefs>
			<v:textBlock v:margins="rect(4,4,4,4)" v:tabSpace="42.5197"/>
			<v:textRect cx="16.624" cy="541.818" width="33.25" height="47.1178"/>
			<rect x="0" y="518.259" width="33.2481" height="47.1178" class="st1"/>
			<text x="6.66" y="536.42" class="st2" v:langID="2052"><v:paragraph v:horizAlign="1"/><v:tabList/>21<v:newlineChar/><tspan
						x="11.64" dy="1.2em" class="st3">0</tspan></text>		</g>
		<g id="shape388-224" v:mID="388" v:groupContext="shape" transform="translate(269.015,-197.109)">
			<title>矩形.388</title>
			<desc>16 0</desc>
			<v:userDefs>
				<v:ud v:nameU="visVersion" v:val="VT0(15):26"/>
			</v:userDefs>
			<v:textBlock v:margins="rect(4,4,4,4)" v:tabSpace="42.5197"/>
			<v:textRect cx="16.624" cy="541.818" width="33.25" height="47.1178"/>
			<rect x="0" y="518.259" width="33.2481" height="47.1178" class="st1"/>
			<text x="6.66" y="536.42" class="st2" v:langID="2052"><v:paragraph v:horizAlign="1"/><v:tabList/>16<v:newlineChar/><tspan
						x="11.64" dy="1.2em" class="st3">0</tspan></text>		</g>
		<g id="shape389-228" v:mID="389" v:groupContext="shape" transform="translate(360.595,-197.109)">
			<title>矩形.389</title>
			<desc>31 1</desc>
			<v:userDefs>
				<v:ud v:nameU="visVersion" v:val="VT0(15):26"/>
			</v:userDefs>
			<v:textBlock v:margins="rect(4,4,4,4)" v:tabSpace="42.5197"/>
			<v:textRect cx="16.624" cy="541.818" width="33.25" height="47.1178"/>
			<rect x="0" y="518.259" width="33.2481" height="47.1178" class="st1"/>
			<text x="6.66" y="536.42" class="st2" v:langID="2052"><v:paragraph v:horizAlign="1"/><v:tabList/>31<v:newlineChar/><tspan
						x="11.64" dy="1.2em" class="st3">1</tspan></text>		</g>
		<g id="shape390-232" v:mID="390" v:groupContext="shape" transform="translate(475.586,-197.109)">
			<title>矩形.390</title>
			<desc>26 0</desc>
			<v:userDefs>
				<v:ud v:nameU="visVersion" v:val="VT0(15):26"/>
			</v:userDefs>
			<v:textBlock v:margins="rect(4,4,4,4)" v:tabSpace="42.5197"/>
			<v:textRect cx="16.624" cy="541.818" width="33.25" height="47.1178"/>
			<rect x="0" y="518.259" width="33.2481" height="47.1178" class="st1"/>
			<text x="6.66" y="536.42" class="st2" v:langID="2052"><v:paragraph v:horizAlign="1"/><v:tabList/>26<v:newlineChar/><tspan
						x="11.64" dy="1.2em" class="st3">0</tspan></text>		</g>
		<g id="group391-236" transform="translate(707.474,590.253) rotate(125.623)" v:mID="391" v:groupContext="group">
			<v:userDefs>
				<v:ud v:nameU="visVersion" v:val="VT0(15):26"/>
			</v:userDefs>
			<title>一维单向箭头.391</title>
			<g id="shape392-237" v:mID="392" v:groupContext="shape">
				<title>工作表.392</title>
				<path d="M0 564.49 L71.9 564.49 L71.9 565.38 L72.79 563.6 L71.9 561.83 L71.9 562.71 L0 562.71 L0 564.49 Z"
						class="st5"/>
				<path d="M0 564.49 L71.9 564.49 L71.9 565.38 L72.79 563.6 L71.9 561.83 L71.9 562.71 L0 562.71" class="st6"/>
			</g>
			<g id="shape393-240" v:mID="393" v:groupContext="shape">
				<title>工作表.393</title>
				<path d="M0 564.49 L71.9 564.49 L71.9 565.38 L72.79 563.6 L71.9 561.83 L71.9 562.71 L0 562.71 L0 564.49"
						class="st7"/>
			</g>
			<g id="shape394-243" v:mID="394" v:groupContext="shape" transform="translate(-0.933319,-0.902723)">
				<title>工作表.394</title>
				<rect x="0" y="563.632" width="0.410855" height="1.74532" class="st8"/>
			</g>
		</g>
		<g id="group395-245" transform="translate(729.749,-32.7312) rotate(58.4723)" v:mID="395" v:groupContext="group">
			<v:userDefs>
				<v:ud v:nameU="visVersion" v:val="VT0(15):26"/>
			</v:userDefs>
			<title>一维单向箭头.395</title>
			<g id="shape396-246" v:mID="396" v:groupContext="shape">
				<title>工作表.396</title>
				<path d="M0 564.49 L68.53 564.49 L68.53 565.38 L69.41 563.6 L68.53 561.83 L68.53 562.71 L0 562.71 L0 564.49 Z"
						class="st5"/>
				<path d="M0 564.49 L68.53 564.49 L68.53 565.38 L69.41 563.6 L68.53 561.83 L68.53 562.71 L0 562.71" class="st6"/>
			</g>
			<g id="shape397-249" v:mID="397" v:groupContext="shape">
				<title>工作表.397</title>
				<path d="M0 564.49 L68.53 564.49 L68.53 565.38 L69.41 563.6 L68.53 561.83 L68.53 562.71 L0 562.71 L0 564.49"
						class="st7"/>
			</g>
			<g id="shape398-252" v:mID="398" v:groupContext="shape" transform="translate(-0.890044,-0.902723)">
				<title>工作表.398</title>
				<rect x="0" y="563.632" width="0.391805" height="1.74532" class="st8"/>
			</g>
		</g>
		<g id="group399-254" transform="translate(859.816,622.259) rotate(129.735)" v:mID="399" v:groupContext="group">
			<v:userDefs>
				<v:ud v:nameU="visVersion" v:val="VT0(15):26"/>
			</v:userDefs>
			<title>一维单向箭头.399</title>
			<g id="shape400-255" v:mID="400" v:groupContext="shape">
				<title>工作表.400</title>
				<path d="M0 564.49 L76.05 564.49 L76.05 565.38 L76.94 563.6 L76.05 561.83 L76.05 562.71 L0 562.71 L0 564.49 Z"
						class="st5"/>
				<path d="M0 564.49 L76.05 564.49 L76.05 565.38 L76.94 563.6 L76.05 561.83 L76.05 562.71 L0 562.71" class="st6"/>
			</g>
			<g id="shape401-258" v:mID="401" v:groupContext="shape">
				<title>工作表.401</title>
				<path d="M0 564.49 L76.05 564.49 L76.05 565.38 L76.94 563.6 L76.05 561.83 L76.05 562.71 L0 562.71 L0 564.49"
						class="st7"/>
			</g>
			<g id="shape402-261" v:mID="402" v:groupContext="shape" transform="translate(-0.986549,-0.902723)">
				<title>工作表.402</title>
				<rect x="0" y="563.632" width="0.434287" height="1.74532" class="st8"/>
			</g>
		</g>
		<g id="group403-263" transform="translate(803.225,-157.126) rotate(41.9588)" v:mID="403" v:groupContext="group">
			<v:userDefs>
				<v:ud v:nameU="visVersion" v:val="VT0(15):26"/>
			</v:userDefs>
			<title>一维单向箭头.403</title>
			<g id="shape404-264" v:mID="404" v:groupContext="shape">
				<title>工作表.404</title>
				<path d="M0 564.49 L87.61 564.49 L87.61 565.38 L88.5 563.6 L87.61 561.83 L87.61 562.71 L0 562.71 L0 564.49 Z"
						class="st5"/>
				<path d="M0 564.49 L87.61 564.49 L87.61 565.38 L88.5 563.6 L87.61 561.83 L87.61 562.71 L0 562.71" class="st6"/>
			</g>
			<g id="shape405-267" v:mID="405" v:groupContext="shape">
				<title>工作表.405</title>
				<path d="M0 564.49 L87.61 564.49 L87.61 565.38 L88.5 563.6 L87.61 561.83 L87.61 562.71 L0 562.71 L0 564.49"
						class="st7"/>
			</g>
			<g id="shape406-270" v:mID="406" v:groupContext="shape" transform="translate(-1.13471,-0.902723)">
				<title>工作表.406</title>
				<rect x="0" y="563.632" width="0.499508" height="1.74532" class="st8"/>
			</g>
		</g>
		<g id="group407-272" transform="translate(798.907,742.202) rotate(131.565)" v:mID="407" v:groupContext="group">
			<v:userDefs>
				<v:ud v:nameU="visVersion" v:val="VT0(15):26"/>
			</v:userDefs>
			<title>一维单向箭头.407</title>
			<g id="shape408-273" v:mID="408" v:groupContext="shape">
				<title>工作表.408</title>
				<path d="M0 564.49 L67.61 564.49 L67.61 565.38 L68.5 563.6 L67.61 561.83 L67.61 562.71 L0 562.71 L0 564.49 Z"
						class="st5"/>
				<path d="M0 564.49 L67.61 564.49 L67.61 565.38 L68.5 563.6 L67.61 561.83 L67.61 562.71 L0 562.71" class="st6"/>
			</g>
			<g id="shape409-276" v:mID="409" v:groupContext="shape">
				<title>工作表.409</title>
				<path d="M0 564.49 L67.61 564.49 L67.61 565.38 L68.5 563.6 L67.61 561.83 L67.61 562.71 L0 562.71 L0 564.49"
						class="st7"/>
			</g>
			<g id="shape410-279" v:mID="410" v:groupContext="shape" transform="translate(-0.878279,-0.902723)">
				<title>工作表.410</title>
				<rect x="0" y="563.632" width="0.386625" height="1.74532" class="st8"/>
			</g>
		</g>
		<g id="group411-281" transform="translate(852.934,66.0385) rotate(57.5715)" v:mID="411" v:groupContext="group">
			<v:userDefs>
				<v:ud v:nameU="visVersion" v:val="VT0(15):26"/>
			</v:userDefs>
			<title>一维单向箭头.411</title>
			<g id="shape412-282" v:mID="412" v:groupContext="shape">
				<title>工作表.412</title>
				<path d="M0 564.49 L59.83 564.49 L59.83 565.38 L60.72 563.6 L59.83 561.83 L59.83 562.71 L0 562.71 L0 564.49 Z"
						class="st5"/>
				<path d="M0 564.49 L59.83 564.49 L59.83 565.38 L60.72 563.6 L59.83 561.83 L59.83 562.71 L0 562.71" class="st6"/>
			</g>
			<g id="shape413-285" v:mID="413" v:groupContext="shape">
				<title>工作表.413</title>
				<path d="M0 564.49 L59.83 564.49 L59.83 565.38 L60.72 563.6 L59.83 561.83 L59.83 562.71 L0 562.71 L0 564.49"
						class="st7"/>
			</g>
			<g id="shape414-288" v:mID="414" v:groupContext="shape" transform="translate(-0.778532,-0.902723)">
				<title>工作表.414</title>
				<rect x="0" y="563.632" width="0.342716" height="1.74532" class="st8"/>
			</g>
		</g>
		<g id="group415-290" transform="translate(980.628,649.506) rotate(119.934)" v:mID="415" v:groupContext="group">
			<v:userDefs>
				<v:ud v:nameU="visVersion" v:val="VT0(15):26"/>
			</v:userDefs>
			<title>一维单向箭头.415</title>
			<g id="shape416-291" v:mID="416" v:groupContext="shape">
				<title>工作表.416</title>
				<path d="M0 564.49 L58.25 564.49 L58.25 565.38 L59.14 563.6 L58.25 561.83 L58.25 562.71 L0 562.71 L0 564.49 Z"
						class="st5"/>
				<path d="M0 564.49 L58.25 564.49 L58.25 565.38 L59.14 563.6 L58.25 561.83 L58.25 562.71 L0 562.71" class="st6"/>
			</g>
			<g id="shape417-294" v:mID="417" v:groupContext="shape">
				<title>工作表.417</title>
				<path d="M0 564.49 L58.25 564.49 L58.25 565.38 L59.14 563.6 L58.25 561.83 L58.25 562.71 L0 562.71 L0 564.49"
						class="st7"/>
			</g>
			<g id="shape418-297" v:mID="418" v:groupContext="shape" transform="translate(-0.758284,-0.902723)">
				<title>工作表.418</title>
				<rect x="0" y="563.632" width="0.333803" height="1.74532" class="st8"/>
			</g>
		</g>
		<g id="group419-299" transform="translate(820.191,747.873) rotate(119.934)" v:mID="419" v:groupContext="group">
			<v:userDefs>
				<v:ud v:nameU="visVersion" v:val="VT0(15):26"/>
			</v:userDefs>
			<title>一维单向箭头.419</title>
			<g id="shape420-300" v:mID="420" v:groupContext="shape">
				<title>工作表.420</title>
				<path d="M0 564.49 L58.25 564.49 L58.25 565.38 L59.14 563.6 L58.25 561.83 L58.25 562.71 L0 562.71 L0 564.49 Z"
						class="st5"/>
				<path d="M0 564.49 L58.25 564.49 L58.25 565.38 L59.14 563.6 L58.25 561.83 L58.25 562.71 L0 562.71" class="st6"/>
			</g>
			<g id="shape421-303" v:mID="421" v:groupContext="shape">
				<title>工作表.421</title>
				<path d="M0 564.49 L58.25 564.49 L58.25 565.38 L59.14 563.6 L58.25 561.83 L58.25 562.71 L0 562.71 L0 564.49"
						class="st7"/>
			</g>
			<g id="shape422-306" v:mID="422" v:groupContext="shape" transform="translate(-0.758284,-0.902723)">
				<title>工作表.422</title>
				<rect x="0" y="563.632" width="0.333803" height="1.74532" class="st8"/>
			</g>
		</g>
	</g>
</svg>
