<?xml version="1.0" encoding="UTF-8" standalone="no"?>
<!DOCTYPE svg PUBLIC "-//W3C//DTD SVG 1.1//EN" "http://www.w3.org/Graphics/SVG/1.1/DTD/svg11.dtd">
<!-- 由 Microsoft Visio, SVG Export 生成 LeftistTree7.svg 页-1 -->
<svg xmlns="http://www.w3.org/2000/svg" xmlns:xlink="http://www.w3.org/1999/xlink" xmlns:ev="http://www.w3.org/2001/xml-events"
		xmlns:v="http://schemas.microsoft.com/visio/2003/SVGExtensions/" width="8.39806in" height="9.44539in"
		viewBox="0 0 604.661 680.068" xml:space="preserve" color-interpolation-filters="sRGB" class="st10">
	<v:documentProperties v:langID="2052" v:metric="true" v:viewMarkup="false"/>

	<style type="text/css">
	<![CDATA[
		.st1 {fill:#ffffff;stroke:#000000;stroke-linecap:round;stroke-linejoin:round;stroke-width:0.75}
		.st2 {fill:#000000;font-family:Cambria Math;font-size:1.5em}
		.st3 {font-size:1em}
		.st4 {fill:#4bacc6;stroke:#000000;stroke-linecap:round;stroke-linejoin:round;stroke-width:0.75}
		.st5 {fill:#ffffff}
		.st6 {stroke:none;stroke-linecap:round;stroke-linejoin:round;stroke-width:0.75}
		.st7 {stroke:#000000;stroke-linecap:round;stroke-linejoin:round;stroke-width:0.24}
		.st8 {fill:#ffffff;stroke:none;stroke-linecap:round;stroke-linejoin:round;stroke-width:0.24;visibility:hidden}
		.st9 {fill:#4bacc6}
		.st10 {fill:none;fill-rule:evenodd;font-size:12px;overflow:visible;stroke-linecap:square;stroke-miterlimit:3}
	]]>
	</style>

	<g v:mID="0" v:index="1" v:groupContext="foregroundPage">
		<title>页-1</title>
		<v:pageProperties v:drawingScale="0.0393701" v:pageScale="0.0393701" v:drawingUnits="24" v:shadowOffsetX="8.50394"
				v:shadowOffsetY="-8.50394"/>
		<g id="shape774-1" v:mID="774" v:groupContext="shape" transform="translate(180.485,-632.575)">
			<title>矩形.774</title>
			<desc>6 2</desc>
			<v:userDefs>
				<v:ud v:nameU="visVersion" v:val="VT0(15):26"/>
			</v:userDefs>
			<v:textBlock v:margins="rect(4,4,4,4)" v:tabSpace="42.5197"/>
			<v:textRect cx="16.624" cy="656.509" width="33.25" height="47.1178"/>
			<rect x="0" y="632.95" width="33.2481" height="47.1178" class="st1"/>
			<text x="11.64" y="651.11" class="st2" v:langID="2052"><v:paragraph v:horizAlign="1"/><v:tabList/>6<v:newlineChar/><tspan
						x="11.64" dy="1.2em" class="st3">2</tspan></text>		</g>
		<g id="shape775-5" v:mID="775" v:groupContext="shape" transform="translate(324.986,-532.044)">
			<title>矩形.775</title>
			<desc>7 2</desc>
			<v:userDefs>
				<v:ud v:nameU="visVersion" v:val="VT0(15):26"/>
			</v:userDefs>
			<v:textBlock v:margins="rect(4,4,4,4)" v:tabSpace="42.5197"/>
			<v:textRect cx="16.624" cy="656.509" width="33.25" height="47.1178"/>
			<rect x="0" y="632.95" width="33.2481" height="47.1178" class="st4"/>
			<text x="11.64" y="651.11" class="st2" v:langID="2052"><v:paragraph v:horizAlign="1"/><v:tabList/>7<v:newlineChar/><tspan
						x="11.64" dy="1.2em" class="st3">2</tspan></text>		</g>
		<g id="shape776-9" v:mID="776" v:groupContext="shape" transform="translate(85.856,-532.044)">
			<title>矩形.776</title>
			<desc>11 2</desc>
			<v:userDefs>
				<v:ud v:nameU="visVersion" v:val="VT0(15):26"/>
			</v:userDefs>
			<v:textBlock v:margins="rect(4,4,4,4)" v:tabSpace="42.5197"/>
			<v:textRect cx="16.624" cy="656.509" width="33.25" height="47.1178"/>
			<rect x="0" y="632.95" width="33.2481" height="47.1178" class="st1"/>
			<text x="6.66" y="651.11" class="st2" v:langID="2052"><v:paragraph v:horizAlign="1"/><v:tabList/>11<v:newlineChar/><tspan
						x="11.64" dy="1.2em" class="st3">2</tspan></text>		</g>
		<g id="shape777-13" v:mID="777" v:groupContext="shape" transform="translate(388.293,-418.086)">
			<title>矩形.777</title>
			<desc>8 1</desc>
			<v:userDefs>
				<v:ud v:nameU="visVersion" v:val="VT0(15):26"/>
			</v:userDefs>
			<v:textBlock v:margins="rect(4,4,4,4)" v:tabSpace="42.5197"/>
			<v:textRect cx="16.624" cy="656.509" width="33.25" height="47.1178"/>
			<rect x="0" y="632.95" width="33.2481" height="47.1178" class="st4"/>
			<text x="11.64" y="651.11" class="st2" v:langID="2052"><v:paragraph v:horizAlign="1"/><v:tabList/>8<v:newlineChar/><tspan
						x="11.64" dy="1.2em" class="st3">1</tspan></text>		</g>
		<g id="group778-17" transform="translate(530.524,638.183) rotate(150.557)" v:mID="778" v:groupContext="group">
			<v:userDefs>
				<v:ud v:nameU="visVersion" v:val="VT0(15):26"/>
			</v:userDefs>
			<title>一维单向箭头.778</title>
			<g id="shape779-18" v:mID="779" v:groupContext="shape">
				<title>工作表.779</title>
				<path d="M0 679.18 L107.78 679.18 L107.78 680.07 L108.66 678.29 L107.78 676.52 L107.78 677.4 L0 677.4 L0 679.18 Z"
						class="st5"/>
				<path d="M0 679.18 L107.78 679.18 L107.78 680.07 L108.66 678.29 L107.78 676.52 L107.78 677.4 L0 677.4" class="st6"/>
			</g>
			<g id="shape780-21" v:mID="780" v:groupContext="shape">
				<title>工作表.780</title>
				<path d="M0 679.18 L107.78 679.18 L107.78 680.07 L108.66 678.29 L107.78 676.52 L107.78 677.4 L0 677.4 L0 679.18"
						class="st7"/>
			</g>
			<g id="shape781-24" v:mID="781" v:groupContext="shape" transform="translate(-1.3933,-0.902723)">
				<title>工作表.781</title>
				<rect x="0" y="678.323" width="0.613342" height="1.74532" class="st8"/>
			</g>
		</g>
		<g id="group782-26" transform="translate(432.281,-588.726) rotate(20.2863)" v:mID="782" v:groupContext="group">
			<v:userDefs>
				<v:ud v:nameU="visVersion" v:val="VT0(15):26"/>
			</v:userDefs>
			<title>一维单向箭头.782</title>
			<g id="shape783-27" v:mID="783" v:groupContext="shape">
				<title>工作表.783</title>
				<path d="M0 679.18 L153.17 679.18 L153.17 680.07 L154.06 678.29 L153.17 676.52 L153.17 677.4 L0 677.4 L0 679.18 Z"
						class="st9"/>
				<path d="M0 679.18 L153.17 679.18 L153.17 680.07 L154.06 678.29 L153.17 676.52 L153.17 677.4 L0 677.4" class="st6"/>
			</g>
			<g id="shape784-30" v:mID="784" v:groupContext="shape">
				<title>工作表.784</title>
				<path d="M0 679.18 L153.17 679.18 L153.17 680.07 L154.06 678.29 L153.17 676.52 L153.17 677.4 L0 677.4 L0 679.18"
						class="st7"/>
			</g>
			<g id="shape785-33" v:mID="785" v:groupContext="shape" transform="translate(-1.97535,-0.902723)">
				<title>工作表.785</title>
				<rect x="0" y="678.323" width="0.869567" height="1.74532" class="st8"/>
			</g>
		</g>
		<g id="shape786-35" v:mID="786" v:groupContext="shape" transform="translate(257.759,-418.086)">
			<title>矩形.786</title>
			<desc>9 1</desc>
			<v:userDefs>
				<v:ud v:nameU="visVersion" v:val="VT0(15):26"/>
			</v:userDefs>
			<v:textBlock v:margins="rect(4,4,4,4)" v:tabSpace="42.5197"/>
			<v:textRect cx="16.624" cy="656.509" width="33.25" height="47.1178"/>
			<rect x="0" y="632.95" width="33.2481" height="47.1178" class="st1"/>
			<text x="11.64" y="651.11" class="st2" v:langID="2052"><v:paragraph v:horizAlign="1"/><v:tabList/>9<v:newlineChar/><tspan
						x="11.64" dy="1.2em" class="st3">1</tspan></text>		</g>
		<g id="group787-39" transform="translate(819.851,629.03) rotate(135.165)" v:mID="787" v:groupContext="group">
			<v:userDefs>
				<v:ud v:nameU="visVersion" v:val="VT0(15):26"/>
			</v:userDefs>
			<title>一维单向箭头.787</title>
			<g id="shape788-40" v:mID="788" v:groupContext="shape">
				<title>工作表.788</title>
				<path d="M0 679.18 L93.91 679.18 L93.91 680.07 L94.8 678.29 L93.91 676.52 L93.91 677.4 L0 677.4 L0 679.18 Z"
						class="st5"/>
				<path d="M0 679.18 L93.91 679.18 L93.91 680.07 L94.8 678.29 L93.91 676.52 L93.91 677.4 L0 677.4" class="st6"/>
			</g>
			<g id="shape789-43" v:mID="789" v:groupContext="shape">
				<title>工作表.789</title>
				<path d="M0 679.18 L93.91 679.18 L93.91 680.07 L94.8 678.29 L93.91 676.52 L93.91 677.4 L0 677.4 L0 679.18"
						class="st7"/>
			</g>
			<g id="shape790-46" v:mID="790" v:groupContext="shape" transform="translate(-1.21555,-0.902723)">
				<title>工作表.790</title>
				<rect x="0" y="678.323" width="0.535095" height="1.74532" class="st8"/>
			</g>
		</g>
		<g id="shape791-48" v:mID="791" v:groupContext="shape" transform="translate(465.75,-311.8)">
			<title>矩形.791</title>
			<desc>12 1</desc>
			<v:userDefs>
				<v:ud v:nameU="visVersion" v:val="VT0(15):26"/>
			</v:userDefs>
			<v:textBlock v:margins="rect(4,4,4,4)" v:tabSpace="42.5197"/>
			<v:textRect cx="16.624" cy="656.509" width="33.25" height="47.1178"/>
			<rect x="0" y="632.95" width="33.2481" height="47.1178" class="st4"/>
			<text x="6.66" y="651.11" class="st2" v:langID="2052"><v:paragraph v:horizAlign="1"/><v:tabList/>12<v:newlineChar/><tspan
						x="11.64" dy="1.2em" class="st3">1</tspan></text>		</g>
		<g id="group792-52" transform="translate(834.078,-318.405) rotate(46.5555)" v:mID="792" v:groupContext="group">
			<v:userDefs>
				<v:ud v:nameU="visVersion" v:val="VT0(15):26"/>
			</v:userDefs>
			<title>一维单向箭头.792</title>
			<g id="shape793-53" v:mID="793" v:groupContext="shape">
				<title>工作表.793</title>
				<path d="M0 679.18 L91.17 679.18 L91.17 680.07 L92.06 678.29 L91.17 676.52 L91.17 677.4 L0 677.4 L0 679.18 Z"
						class="st9"/>
				<path d="M0 679.18 L91.17 679.18 L91.17 680.07 L92.06 678.29 L91.17 676.52 L91.17 677.4 L0 677.4" class="st6"/>
			</g>
			<g id="shape794-56" v:mID="794" v:groupContext="shape">
				<title>工作表.794</title>
				<path d="M0 679.18 L91.17 679.18 L91.17 680.07 L92.06 678.29 L91.17 676.52 L91.17 677.4 L0 677.4 L0 679.18"
						class="st7"/>
			</g>
			<g id="shape795-59" v:mID="795" v:groupContext="shape" transform="translate(-1.18043,-0.902723)">
				<title>工作表.795</title>
				<rect x="0" y="678.323" width="0.519636" height="1.74532" class="st8"/>
			</g>
		</g>
		<g id="shape796-61" v:mID="796" v:groupContext="shape" transform="translate(39.7218,-418.086)">
			<title>矩形.796</title>
			<desc>17 1</desc>
			<v:userDefs>
				<v:ud v:nameU="visVersion" v:val="VT0(15):26"/>
			</v:userDefs>
			<v:textBlock v:margins="rect(4,4,4,4)" v:tabSpace="42.5197"/>
			<v:textRect cx="16.624" cy="656.509" width="33.25" height="47.1178"/>
			<rect x="0" y="632.95" width="33.2481" height="47.1178" class="st1"/>
			<text x="6.66" y="651.11" class="st2" v:langID="2052"><v:paragraph v:horizAlign="1"/><v:tabList/>17<v:newlineChar/><tspan
						x="11.64" dy="1.2em" class="st3">1</tspan></text>		</g>
		<g id="shape797-65" v:mID="797" v:groupContext="shape" transform="translate(122.153,-418.086)">
			<title>矩形.797</title>
			<desc>14 1</desc>
			<v:userDefs>
				<v:ud v:nameU="visVersion" v:val="VT0(15):26"/>
			</v:userDefs>
			<v:textBlock v:margins="rect(4,4,4,4)" v:tabSpace="42.5197"/>
			<v:textRect cx="16.624" cy="656.509" width="33.25" height="47.1178"/>
			<rect x="0" y="632.95" width="33.2481" height="47.1178" class="st1"/>
			<text x="6.66" y="651.11" class="st2" v:langID="2052"><v:paragraph v:horizAlign="1"/><v:tabList/>14<v:newlineChar/><tspan
						x="11.64" dy="1.2em" class="st3">1</tspan></text>		</g>
		<g id="group798-69" transform="translate(660.713,533.324) rotate(124.614)" v:mID="798" v:groupContext="group">
			<v:userDefs>
				<v:ud v:nameU="visVersion" v:val="VT0(15):26"/>
			</v:userDefs>
			<title>一维单向箭头.798</title>
			<g id="shape799-70" v:mID="799" v:groupContext="shape">
				<title>工作表.799</title>
				<path d="M0 679.18 L80.33 679.18 L80.33 680.07 L81.22 678.29 L80.33 676.52 L80.33 677.4 L0 677.4 L0 679.18 Z"
						class="st5"/>
				<path d="M0 679.18 L80.33 679.18 L80.33 680.07 L81.22 678.29 L80.33 676.52 L80.33 677.4 L0 677.4" class="st6"/>
			</g>
			<g id="shape800-73" v:mID="800" v:groupContext="shape">
				<title>工作表.800</title>
				<path d="M0 679.18 L80.33 679.18 L80.33 680.07 L81.22 678.29 L80.33 676.52 L80.33 677.4 L0 677.4 L0 679.18"
						class="st7"/>
			</g>
			<g id="shape801-76" v:mID="801" v:groupContext="shape" transform="translate(-1.04137,-0.902723)">
				<title>工作表.801</title>
				<rect x="0" y="678.323" width="0.458418" height="1.74532" class="st8"/>
			</g>
		</g>
		<g id="group802-78" transform="translate(698.552,-175.671) rotate(61.496)" v:mID="802" v:groupContext="group">
			<v:userDefs>
				<v:ud v:nameU="visVersion" v:val="VT0(15):26"/>
			</v:userDefs>
			<title>一维单向箭头.802</title>
			<g id="shape803-79" v:mID="803" v:groupContext="shape">
				<title>工作表.803</title>
				<path d="M0 679.18 L75.17 679.18 L75.17 680.07 L76.06 678.29 L75.17 676.52 L75.17 677.4 L0 677.4 L0 679.18 Z"
						class="st5"/>
				<path d="M0 679.18 L75.17 679.18 L75.17 680.07 L76.06 678.29 L75.17 676.52 L75.17 677.4 L0 677.4" class="st6"/>
			</g>
			<g id="shape804-82" v:mID="804" v:groupContext="shape">
				<title>工作表.804</title>
				<path d="M0 679.18 L75.17 679.18 L75.17 680.07 L76.06 678.29 L75.17 676.52 L75.17 677.4 L0 677.4 L0 679.18"
						class="st7"/>
			</g>
			<g id="shape805-85" v:mID="805" v:groupContext="shape" transform="translate(-0.97526,-0.902723)">
				<title>工作表.805</title>
				<rect x="0" y="678.323" width="0.429317" height="1.74532" class="st8"/>
			</g>
		</g>
		<g id="shape806-87" v:mID="806" v:groupContext="shape" transform="translate(0.375,-311.8)">
			<title>矩形.806</title>
			<desc>18 0</desc>
			<v:userDefs>
				<v:ud v:nameU="visVersion" v:val="VT0(15):26"/>
			</v:userDefs>
			<v:textBlock v:margins="rect(4,4,4,4)" v:tabSpace="42.5197"/>
			<v:textRect cx="16.624" cy="656.509" width="33.25" height="47.1178"/>
			<rect x="0" y="632.95" width="33.2481" height="47.1178" class="st1"/>
			<text x="6.66" y="651.11" class="st2" v:langID="2052"><v:paragraph v:horizAlign="1"/><v:tabList/>18<v:newlineChar/><tspan
						x="11.64" dy="1.2em" class="st3">0</tspan></text>		</g>
		<g id="shape807-91" v:mID="807" v:groupContext="shape" transform="translate(48.0338,-311.8)">
			<title>矩形.807</title>
			<desc>20 0</desc>
			<v:userDefs>
				<v:ud v:nameU="visVersion" v:val="VT0(15):26"/>
			</v:userDefs>
			<v:textBlock v:margins="rect(4,4,4,4)" v:tabSpace="42.5197"/>
			<v:textRect cx="16.624" cy="656.509" width="33.25" height="47.1178"/>
			<rect x="0" y="632.95" width="33.2481" height="47.1178" class="st1"/>
			<text x="6.66" y="651.11" class="st2" v:langID="2052"><v:paragraph v:horizAlign="1"/><v:tabList/>20<v:newlineChar/><tspan
						x="11.64" dy="1.2em" class="st3">0</tspan></text>		</g>
		<g id="group808-95" transform="translate(621.152,637.581) rotate(123.624)" v:mID="808" v:groupContext="group">
			<v:userDefs>
				<v:ud v:nameU="visVersion" v:val="VT0(15):26"/>
			</v:userDefs>
			<title>一维单向箭头.808</title>
			<g id="shape809-96" v:mID="809" v:groupContext="shape">
				<title>工作表.809</title>
				<path d="M0 679.18 L70.17 679.18 L70.17 680.07 L71.06 678.29 L70.17 676.52 L70.17 677.4 L0 677.4 L0 679.18 Z"
						class="st5"/>
				<path d="M0 679.18 L70.17 679.18 L70.17 680.07 L71.06 678.29 L70.17 676.52 L70.17 677.4 L0 677.4" class="st6"/>
			</g>
			<g id="shape810-99" v:mID="810" v:groupContext="shape">
				<title>工作表.810</title>
				<path d="M0 679.18 L70.17 679.18 L70.17 680.07 L71.06 678.29 L70.17 676.52 L70.17 677.4 L0 677.4 L0 679.18"
						class="st7"/>
			</g>
			<g id="shape811-102" v:mID="811" v:groupContext="shape" transform="translate(-0.9111,-0.902723)">
				<title>工作表.811</title>
				<rect x="0" y="678.323" width="0.401073" height="1.74532" class="st8"/>
			</g>
		</g>
		<g id="group812-104" transform="translate(728.043,167.621) rotate(82.0033)" v:mID="812" v:groupContext="group">
			<v:userDefs>
				<v:ud v:nameU="visVersion" v:val="VT0(15):26"/>
			</v:userDefs>
			<title>一维单向箭头.812</title>
			<g id="shape813-105" v:mID="813" v:groupContext="shape">
				<title>工作表.813</title>
				<path d="M0 679.18 L58.86 679.18 L58.86 680.07 L59.75 678.29 L58.86 676.52 L58.86 677.4 L0 677.4 L0 679.18 Z"
						class="st5"/>
				<path d="M0 679.18 L58.86 679.18 L58.86 680.07 L59.75 678.29 L58.86 676.52 L58.86 677.4 L0 677.4" class="st6"/>
			</g>
			<g id="shape814-108" v:mID="814" v:groupContext="shape">
				<title>工作表.814</title>
				<path d="M0 679.18 L58.86 679.18 L58.86 680.07 L59.75 678.29 L58.86 676.52 L58.86 677.4 L0 677.4 L0 679.18"
						class="st7"/>
			</g>
			<g id="shape815-111" v:mID="815" v:groupContext="shape" transform="translate(-0.766112,-0.902723)">
				<title>工作表.815</title>
				<rect x="0" y="678.323" width="0.337249" height="1.74532" class="st8"/>
			</g>
		</g>
		<g id="shape816-113" v:mID="816" v:groupContext="shape" transform="translate(95.6927,-311.8)">
			<title>矩形.816</title>
			<desc>19 0</desc>
			<v:userDefs>
				<v:ud v:nameU="visVersion" v:val="VT0(15):26"/>
			</v:userDefs>
			<v:textBlock v:margins="rect(4,4,4,4)" v:tabSpace="42.5197"/>
			<v:textRect cx="16.624" cy="656.509" width="33.25" height="47.1178"/>
			<rect x="0" y="632.95" width="33.2481" height="47.1178" class="st1"/>
			<text x="6.66" y="651.11" class="st2" v:langID="2052"><v:paragraph v:horizAlign="1"/><v:tabList/>19<v:newlineChar/><tspan
						x="11.64" dy="1.2em" class="st3">0</tspan></text>		</g>
		<g id="shape817-117" v:mID="817" v:groupContext="shape" transform="translate(138.089,-311.8)">
			<title>矩形.817</title>
			<desc>24 0</desc>
			<v:userDefs>
				<v:ud v:nameU="visVersion" v:val="VT0(15):26"/>
			</v:userDefs>
			<v:textBlock v:margins="rect(4,4,4,4)" v:tabSpace="42.5197"/>
			<v:textRect cx="16.624" cy="656.509" width="33.25" height="47.1178"/>
			<rect x="0" y="632.95" width="33.2481" height="47.1178" class="st1"/>
			<text x="6.66" y="651.11" class="st2" v:langID="2052"><v:paragraph v:horizAlign="1"/><v:tabList/>24<v:newlineChar/><tspan
						x="11.64" dy="1.2em" class="st3">0</tspan></text>		</g>
		<g id="group818-121" transform="translate(757.971,538.895) rotate(114.095)" v:mID="818" v:groupContext="group">
			<v:userDefs>
				<v:ud v:nameU="visVersion" v:val="VT0(15):26"/>
			</v:userDefs>
			<title>一维单向箭头.818</title>
			<g id="shape819-122" v:mID="819" v:groupContext="shape">
				<title>工作表.819</title>
				<path d="M0 679.18 L63.93 679.18 L63.93 680.07 L64.82 678.29 L63.93 676.52 L63.93 677.4 L0 677.4 L0 679.18 Z"
						class="st5"/>
				<path d="M0 679.18 L63.93 679.18 L63.93 680.07 L64.82 678.29 L63.93 676.52 L63.93 677.4 L0 677.4" class="st6"/>
			</g>
			<g id="shape820-125" v:mID="820" v:groupContext="shape">
				<title>工作表.820</title>
				<path d="M0 679.18 L63.93 679.18 L63.93 680.07 L64.82 678.29 L63.93 676.52 L63.93 677.4 L0 677.4 L0 679.18"
						class="st7"/>
			</g>
			<g id="shape821-128" v:mID="821" v:groupContext="shape" transform="translate(-0.831074,-0.902723)">
				<title>工作表.821</title>
				<rect x="0" y="678.323" width="0.365845" height="1.74532" class="st8"/>
			</g>
		</g>
		<g id="group822-130" transform="translate(793.732,85.5856) rotate(74.9264)" v:mID="822" v:groupContext="group">
			<v:userDefs>
				<v:ud v:nameU="visVersion" v:val="VT0(15):26"/>
			</v:userDefs>
			<title>一维单向箭头.822</title>
			<g id="shape823-131" v:mID="823" v:groupContext="shape">
				<title>工作表.823</title>
				<path d="M0 679.18 L60.39 679.18 L60.39 680.07 L61.28 678.29 L60.39 676.52 L60.39 677.4 L0 677.4 L0 679.18 Z"
						class="st5"/>
				<path d="M0 679.18 L60.39 679.18 L60.39 680.07 L61.28 678.29 L60.39 676.52 L60.39 677.4 L0 677.4" class="st6"/>
			</g>
			<g id="shape824-134" v:mID="824" v:groupContext="shape">
				<title>工作表.824</title>
				<path d="M0 679.18 L60.39 679.18 L60.39 680.07 L61.28 678.29 L60.39 676.52 L60.39 677.4 L0 677.4 L0 679.18"
						class="st7"/>
			</g>
			<g id="shape825-137" v:mID="825" v:groupContext="shape" transform="translate(-0.785696,-0.902723)">
				<title>工作表.825</title>
				<rect x="0" y="678.323" width="0.34587" height="1.74532" class="st8"/>
			</g>
		</g>
		<g id="shape826-139" v:mID="826" v:groupContext="shape" transform="translate(347.709,-311.8)">
			<title>矩形.826</title>
			<desc>10 1</desc>
			<v:userDefs>
				<v:ud v:nameU="visVersion" v:val="VT0(15):26"/>
			</v:userDefs>
			<v:textBlock v:margins="rect(4,4,4,4)" v:tabSpace="42.5197"/>
			<v:textRect cx="16.624" cy="656.509" width="33.25" height="47.1178"/>
			<rect x="0" y="632.95" width="33.2481" height="47.1178" class="st1"/>
			<text x="6.66" y="651.11" class="st2" v:langID="2052"><v:paragraph v:horizAlign="1"/><v:tabList/>10<v:newlineChar/><tspan
						x="11.64" dy="1.2em" class="st3">1</tspan></text>		</g>
		<g id="shape827-143" v:mID="827" v:groupContext="shape" transform="translate(521.987,-205.564)">
			<title>矩形.827</title>
			<desc>13 0</desc>
			<v:userDefs>
				<v:ud v:nameU="visVersion" v:val="VT0(15):26"/>
			</v:userDefs>
			<v:textBlock v:margins="rect(4,4,4,4)" v:tabSpace="42.5197"/>
			<v:textRect cx="16.624" cy="656.509" width="33.25" height="47.1178"/>
			<rect x="0" y="632.95" width="33.2481" height="47.1178" class="st4"/>
			<text x="6.66" y="651.11" class="st2" v:langID="2052"><v:paragraph v:horizAlign="1"/><v:tabList/>13<v:newlineChar/><tspan
						x="11.64" dy="1.2em" class="st3">0</tspan></text>		</g>
		<g id="group828-147" transform="translate(964.274,645.648) rotate(124.446)" v:mID="828" v:groupContext="group">
			<v:userDefs>
				<v:ud v:nameU="visVersion" v:val="VT0(15):26"/>
			</v:userDefs>
			<title>一维单向箭头.828</title>
			<g id="shape829-148" v:mID="829" v:groupContext="shape">
				<title>工作表.829</title>
				<path d="M0 679.18 L70.86 679.18 L70.86 680.07 L71.75 678.29 L70.86 676.52 L70.86 677.4 L0 677.4 L0 679.18 Z"
						class="st5"/>
				<path d="M0 679.18 L70.86 679.18 L70.86 680.07 L71.75 678.29 L70.86 676.52 L70.86 677.4 L0 677.4" class="st6"/>
			</g>
			<g id="shape830-151" v:mID="830" v:groupContext="shape">
				<title>工作表.830</title>
				<path d="M0 679.18 L70.86 679.18 L70.86 680.07 L71.75 678.29 L70.86 676.52 L70.86 677.4 L0 677.4 L0 679.18"
						class="st7"/>
			</g>
			<g id="shape831-154" v:mID="831" v:groupContext="shape" transform="translate(-0.919975,-0.902723)">
				<title>工作表.831</title>
				<rect x="0" y="678.323" width="0.40498" height="1.74532" class="st8"/>
			</g>
		</g>
		<g id="group832-156" transform="translate(884.542,-217.643) rotate(45)" v:mID="832" v:groupContext="group">
			<v:userDefs>
				<v:ud v:nameU="visVersion" v:val="VT0(15):26"/>
			</v:userDefs>
			<title>一维单向箭头.832</title>
			<g id="shape833-157" v:mID="833" v:groupContext="shape">
				<title>工作表.833</title>
				<path d="M0 679.18 L85.96 679.18 L85.96 680.07 L86.84 678.29 L85.96 676.52 L85.96 677.4 L0 677.4 L0 679.18 Z"
						class="st9"/>
				<path d="M0 679.18 L85.96 679.18 L85.96 680.07 L86.84 678.29 L85.96 676.52 L85.96 677.4 L0 677.4" class="st6"/>
			</g>
			<g id="shape834-160" v:mID="834" v:groupContext="shape">
				<title>工作表.834</title>
				<path d="M0 679.18 L85.96 679.18 L85.96 680.07 L86.84 678.29 L85.96 676.52 L85.96 677.4 L0 677.4 L0 679.18"
						class="st7"/>
			</g>
			<g id="shape835-163" v:mID="835" v:groupContext="shape" transform="translate(-1.11353,-0.902723)">
				<title>工作表.835</title>
				<rect x="0" y="678.323" width="0.490185" height="1.74532" class="st8"/>
			</g>
		</g>
		<g id="shape836-165" v:mID="836" v:groupContext="shape" transform="translate(309.599,-205.564)">
			<title>矩形.836</title>
			<desc>15 0</desc>
			<v:userDefs>
				<v:ud v:nameU="visVersion" v:val="VT0(15):26"/>
			</v:userDefs>
			<v:textBlock v:margins="rect(4,4,4,4)" v:tabSpace="42.5197"/>
			<v:textRect cx="16.624" cy="656.509" width="33.25" height="47.1178"/>
			<rect x="0" y="632.95" width="33.2481" height="47.1178" class="st1"/>
			<text x="6.66" y="651.11" class="st2" v:langID="2052"><v:paragraph v:horizAlign="1"/><v:tabList/>15<v:newlineChar/><tspan
						x="11.64" dy="1.2em" class="st3">0</tspan></text>		</g>
		<g id="shape837-169" v:mID="837" v:groupContext="shape" transform="translate(368.619,-205.564)">
			<title>矩形.837</title>
			<desc>30 0</desc>
			<v:userDefs>
				<v:ud v:nameU="visVersion" v:val="VT0(15):26"/>
			</v:userDefs>
			<v:textBlock v:margins="rect(4,4,4,4)" v:tabSpace="42.5197"/>
			<v:textRect cx="16.624" cy="656.509" width="33.25" height="47.1178"/>
			<rect x="0" y="632.95" width="33.2481" height="47.1178" class="st1"/>
			<text x="6.66" y="651.11" class="st2" v:langID="2052"><v:paragraph v:horizAlign="1"/><v:tabList/>30<v:newlineChar/><tspan
						x="11.64" dy="1.2em" class="st3">0</tspan></text>		</g>
		<g id="group838-173" transform="translate(934.435,735.779) rotate(122.807)" v:mID="838" v:groupContext="group">
			<v:userDefs>
				<v:ud v:nameU="visVersion" v:val="VT0(15):26"/>
			</v:userDefs>
			<title>一维单向箭头.838</title>
			<g id="shape839-174" v:mID="839" v:groupContext="shape">
				<title>工作表.839</title>
				<path d="M0 679.18 L69.45 679.18 L69.45 680.07 L70.34 678.29 L69.45 676.52 L69.45 677.4 L0 677.4 L0 679.18 Z"
						class="st5"/>
				<path d="M0 679.18 L69.45 679.18 L69.45 680.07 L70.34 678.29 L69.45 676.52 L69.45 677.4 L0 677.4" class="st6"/>
			</g>
			<g id="shape840-177" v:mID="840" v:groupContext="shape">
				<title>工作表.840</title>
				<path d="M0 679.18 L69.45 679.18 L69.45 680.07 L70.34 678.29 L69.45 676.52 L69.45 677.4 L0 677.4 L0 679.18"
						class="st7"/>
			</g>
			<g id="shape841-180" v:mID="841" v:groupContext="shape" transform="translate(-0.901886,-0.902723)">
				<title>工作表.841</title>
				<rect x="0" y="678.323" width="0.397018" height="1.74532" class="st8"/>
			</g>
		</g>
		<g id="group842-182" transform="translate(1003.8,142.089) rotate(70.5215)" v:mID="842" v:groupContext="group">
			<v:userDefs>
				<v:ud v:nameU="visVersion" v:val="VT0(15):26"/>
			</v:userDefs>
			<title>一维单向箭头.842</title>
			<g id="shape843-183" v:mID="843" v:groupContext="shape">
				<title>工作表.843</title>
				<path d="M0 679.18 L61.82 679.18 L61.82 680.07 L62.71 678.29 L61.82 676.52 L61.82 677.4 L0 677.4 L0 679.18 Z"
						class="st5"/>
				<path d="M0 679.18 L61.82 679.18 L61.82 680.07 L62.71 678.29 L61.82 676.52 L61.82 677.4 L0 677.4" class="st6"/>
			</g>
			<g id="shape844-186" v:mID="844" v:groupContext="shape">
				<title>工作表.844</title>
				<path d="M0 679.18 L61.82 679.18 L61.82 680.07 L62.71 678.29 L61.82 676.52 L61.82 677.4 L0 677.4 L0 679.18"
						class="st7"/>
			</g>
			<g id="shape845-189" v:mID="845" v:groupContext="shape" transform="translate(-0.80405,-0.902723)">
				<title>工作表.845</title>
				<rect x="0" y="678.323" width="0.353949" height="1.74532" class="st8"/>
			</g>
		</g>
		<g id="shape846-191" v:mID="846" v:groupContext="shape" transform="translate(501.429,-102.969)">
			<title>矩形.846</title>
			<desc>28 0</desc>
			<v:userDefs>
				<v:ud v:nameU="visVersion" v:val="VT0(15):26"/>
			</v:userDefs>
			<v:textBlock v:margins="rect(4,4,4,4)" v:tabSpace="42.5197"/>
			<v:textRect cx="16.624" cy="656.509" width="33.25" height="47.1178"/>
			<rect x="0" y="632.95" width="33.2481" height="47.1178" class="st1"/>
			<text x="6.66" y="651.11" class="st2" v:langID="2052"><v:paragraph v:horizAlign="1"/><v:tabList/>28<v:newlineChar/><tspan
						x="11.64" dy="1.2em" class="st3">0</tspan></text>		</g>
		<g id="group847-195" transform="translate(1174.64,710.205) rotate(110.334)" v:mID="847" v:groupContext="group">
			<v:userDefs>
				<v:ud v:nameU="visVersion" v:val="VT0(15):26"/>
			</v:userDefs>
			<title>一维单向箭头.847</title>
			<g id="shape848-196" v:mID="848" v:groupContext="shape">
				<title>工作表.848</title>
				<path d="M0 679.18 L58.28 679.18 L58.28 680.07 L59.16 678.29 L58.28 676.52 L58.28 677.4 L0 677.4 L0 679.18 Z"
						class="st5"/>
				<path d="M0 679.18 L58.28 679.18 L58.28 680.07 L59.16 678.29 L58.28 676.52 L58.28 677.4 L0 677.4" class="st6"/>
			</g>
			<g id="shape849-199" v:mID="849" v:groupContext="shape">
				<title>工作表.849</title>
				<path d="M0 679.18 L58.28 679.18 L58.28 680.07 L59.16 678.29 L58.28 676.52 L58.28 677.4 L0 677.4 L0 679.18"
						class="st7"/>
			</g>
			<g id="shape850-202" v:mID="850" v:groupContext="shape" transform="translate(-0.758605,-0.902723)">
				<title>工作表.850</title>
				<rect x="0" y="678.323" width="0.333944" height="1.74532" class="st8"/>
			</g>
		</g>
		<g id="shape851-204" v:mID="851" v:groupContext="shape" transform="translate(387.056,-102.969)">
			<title>矩形.851</title>
			<desc>42 0</desc>
			<v:userDefs>
				<v:ud v:nameU="visVersion" v:val="VT0(15):26"/>
			</v:userDefs>
			<v:textBlock v:margins="rect(4,4,4,4)" v:tabSpace="42.5197"/>
			<v:textRect cx="16.624" cy="656.509" width="33.25" height="47.1178"/>
			<rect x="0" y="632.95" width="33.2481" height="47.1178" class="st1"/>
			<text x="6.66" y="651.11" class="st2" v:langID="2052"><v:paragraph v:horizAlign="1"/><v:tabList/>42<v:newlineChar/><tspan
						x="11.64" dy="1.2em" class="st3">0</tspan></text>		</g>
		<g id="shape852-208" v:mID="852" v:groupContext="shape" transform="translate(452.864,-102.969)">
			<title>矩形.852</title>
			<desc>33 0</desc>
			<v:userDefs>
				<v:ud v:nameU="visVersion" v:val="VT0(15):26"/>
			</v:userDefs>
			<v:textBlock v:margins="rect(4,4,4,4)" v:tabSpace="42.5197"/>
			<v:textRect cx="16.624" cy="656.509" width="33.25" height="47.1178"/>
			<rect x="0" y="632.95" width="33.2481" height="47.1178" class="st1"/>
			<text x="6.66" y="651.11" class="st2" v:langID="2052"><v:paragraph v:horizAlign="1"/><v:tabList/>33<v:newlineChar/><tspan
						x="11.64" dy="1.2em" class="st3">0</tspan></text>		</g>
		<g id="shape853-212" v:mID="853" v:groupContext="shape" transform="translate(354.496,-0.375)">
			<title>矩形.853</title>
			<desc>50 0</desc>
			<v:userDefs>
				<v:ud v:nameU="visVersion" v:val="VT0(15):26"/>
			</v:userDefs>
			<v:textBlock v:margins="rect(4,4,4,4)" v:tabSpace="42.5197"/>
			<v:textRect cx="16.624" cy="656.509" width="33.25" height="47.1178"/>
			<rect x="0" y="632.95" width="33.2481" height="47.1178" class="st1"/>
			<text x="6.66" y="651.11" class="st2" v:langID="2052"><v:paragraph v:horizAlign="1"/><v:tabList/>50<v:newlineChar/><tspan
						x="11.64" dy="1.2em" class="st3">0</tspan></text>		</g>
		<g id="shape854-216" v:mID="854" v:groupContext="shape" transform="translate(548.315,-0.375)">
			<title>矩形.854</title>
			<desc>27 0</desc>
			<v:userDefs>
				<v:ud v:nameU="visVersion" v:val="VT0(15):26"/>
			</v:userDefs>
			<v:textBlock v:margins="rect(4,4,4,4)" v:tabSpace="42.5197"/>
			<v:textRect cx="16.624" cy="656.509" width="33.25" height="47.1178"/>
			<rect x="0" y="632.95" width="33.2481" height="47.1178" class="st1"/>
			<text x="6.66" y="651.11" class="st2" v:langID="2052"><v:paragraph v:horizAlign="1"/><v:tabList/>27<v:newlineChar/><tspan
						x="11.64" dy="1.2em" class="st3">0</tspan></text>		</g>
		<g id="shape855-220" v:mID="855" v:groupContext="shape" transform="translate(214.281,-311.8)">
			<title>矩形.855</title>
			<desc>21 0</desc>
			<v:userDefs>
				<v:ud v:nameU="visVersion" v:val="VT0(15):26"/>
			</v:userDefs>
			<v:textBlock v:margins="rect(4,4,4,4)" v:tabSpace="42.5197"/>
			<v:textRect cx="16.624" cy="656.509" width="33.25" height="47.1178"/>
			<rect x="0" y="632.95" width="33.2481" height="47.1178" class="st1"/>
			<text x="6.66" y="651.11" class="st2" v:langID="2052"><v:paragraph v:horizAlign="1"/><v:tabList/>21<v:newlineChar/><tspan
						x="11.64" dy="1.2em" class="st3">0</tspan></text>		</g>
		<g id="shape856-224" v:mID="856" v:groupContext="shape" transform="translate(290.474,-311.8)">
			<title>矩形.856</title>
			<desc>16 0</desc>
			<v:userDefs>
				<v:ud v:nameU="visVersion" v:val="VT0(15):26"/>
			</v:userDefs>
			<v:textBlock v:margins="rect(4,4,4,4)" v:tabSpace="42.5197"/>
			<v:textRect cx="16.624" cy="656.509" width="33.25" height="47.1178"/>
			<rect x="0" y="632.95" width="33.2481" height="47.1178" class="st1"/>
			<text x="6.66" y="651.11" class="st2" v:langID="2052"><v:paragraph v:horizAlign="1"/><v:tabList/>16<v:newlineChar/><tspan
						x="11.64" dy="1.2em" class="st3">0</tspan></text>		</g>
		<g id="shape857-228" v:mID="857" v:groupContext="shape" transform="translate(427.639,-205.564)">
			<title>矩形.857</title>
			<desc>31 1</desc>
			<v:userDefs>
				<v:ud v:nameU="visVersion" v:val="VT0(15):26"/>
			</v:userDefs>
			<v:textBlock v:margins="rect(4,4,4,4)" v:tabSpace="42.5197"/>
			<v:textRect cx="16.624" cy="656.509" width="33.25" height="47.1178"/>
			<rect x="0" y="632.95" width="33.2481" height="47.1178" class="st1"/>
			<text x="6.66" y="651.11" class="st2" v:langID="2052"><v:paragraph v:horizAlign="1"/><v:tabList/>31<v:newlineChar/><tspan
						x="11.64" dy="1.2em" class="st3">1</tspan></text>		</g>
		<g id="shape858-232" v:mID="858" v:groupContext="shape" transform="translate(571.038,-102.969)">
			<title>矩形.858</title>
			<desc>26 0</desc>
			<v:userDefs>
				<v:ud v:nameU="visVersion" v:val="VT0(15):26"/>
			</v:userDefs>
			<v:textBlock v:margins="rect(4,4,4,4)" v:tabSpace="42.5197"/>
			<v:textRect cx="16.624" cy="656.509" width="33.25" height="47.1178"/>
			<rect x="0" y="632.95" width="33.2481" height="47.1178" class="st4"/>
			<text x="6.66" y="651.11" class="st2" v:langID="2052"><v:paragraph v:horizAlign="1"/><v:tabList/>26<v:newlineChar/><tspan
						x="11.64" dy="1.2em" class="st3">0</tspan></text>		</g>
		<g id="group859-236" transform="translate(820.972,663.631) rotate(126.31)" v:mID="859" v:groupContext="group">
			<v:userDefs>
				<v:ud v:nameU="visVersion" v:val="VT0(15):26"/>
			</v:userDefs>
			<title>一维单向箭头.859</title>
			<g id="shape860-237" v:mID="860" v:groupContext="shape">
				<title>工作表.860</title>
				<path d="M0 679.18 L72.54 679.18 L72.54 680.07 L73.42 678.29 L72.54 676.52 L72.54 677.4 L0 677.4 L0 679.18 Z"
						class="st5"/>
				<path d="M0 679.18 L72.54 679.18 L72.54 680.07 L73.42 678.29 L72.54 676.52 L72.54 677.4 L0 677.4" class="st6"/>
			</g>
			<g id="shape861-240" v:mID="861" v:groupContext="shape">
				<title>工作表.861</title>
				<path d="M0 679.18 L72.54 679.18 L72.54 680.07 L73.42 678.29 L72.54 676.52 L72.54 677.4 L0 677.4 L0 679.18"
						class="st7"/>
			</g>
			<g id="shape862-243" v:mID="862" v:groupContext="shape" transform="translate(-0.941468,-0.902723)">
				<title>工作表.862</title>
				<rect x="0" y="678.323" width="0.414442" height="1.74532" class="st8"/>
			</g>
		</g>
		<g id="group863-245" transform="translate(867.985,-66.222) rotate(61.0616)" v:mID="863" v:groupContext="group">
			<v:userDefs>
				<v:ud v:nameU="visVersion" v:val="VT0(15):26"/>
			</v:userDefs>
			<title>一维单向箭头.863</title>
			<g id="shape864-246" v:mID="864" v:groupContext="shape">
				<title>工作表.864</title>
				<path d="M0 679.18 L66.72 679.18 L66.72 680.07 L67.61 678.29 L66.72 676.52 L66.72 677.4 L0 677.4 L0 679.18 Z"
						class="st5"/>
				<path d="M0 679.18 L66.72 679.18 L66.72 680.07 L67.61 678.29 L66.72 676.52 L66.72 677.4 L0 677.4" class="st6"/>
			</g>
			<g id="shape865-249" v:mID="865" v:groupContext="shape">
				<title>工作表.865</title>
				<path d="M0 679.18 L66.72 679.18 L66.72 680.07 L67.61 678.29 L66.72 676.52 L66.72 677.4 L0 677.4 L0 679.18"
						class="st7"/>
			</g>
			<g id="shape866-252" v:mID="866" v:groupContext="shape" transform="translate(-0.866903,-0.902723)">
				<title>工作表.866</title>
				<rect x="0" y="678.323" width="0.381618" height="1.74532" class="st8"/>
			</g>
		</g>
		<g id="group867-254" transform="translate(1052.48,735.779) rotate(122.807)" v:mID="867" v:groupContext="group">
			<v:userDefs>
				<v:ud v:nameU="visVersion" v:val="VT0(15):26"/>
			</v:userDefs>
			<title>一维单向箭头.867</title>
			<g id="shape868-255" v:mID="868" v:groupContext="shape">
				<title>工作表.868</title>
				<path d="M0 679.18 L69.45 679.18 L69.45 680.07 L70.34 678.29 L69.45 676.52 L69.45 677.4 L0 677.4 L0 679.18 Z"
						class="st5"/>
				<path d="M0 679.18 L69.45 679.18 L69.45 680.07 L70.34 678.29 L69.45 676.52 L69.45 677.4 L0 677.4" class="st6"/>
			</g>
			<g id="shape869-258" v:mID="869" v:groupContext="shape">
				<title>工作表.869</title>
				<path d="M0 679.18 L69.45 679.18 L69.45 680.07 L70.34 678.29 L69.45 676.52 L69.45 677.4 L0 677.4 L0 679.18"
						class="st7"/>
			</g>
			<g id="shape870-261" v:mID="870" v:groupContext="shape" transform="translate(-0.901886,-0.902723)">
				<title>工作表.870</title>
				<rect x="0" y="678.323" width="0.397018" height="1.74532" class="st8"/>
			</g>
		</g>
		<g id="group871-263" transform="translate(973.823,-99.2341) rotate(46.4305)" v:mID="871" v:groupContext="group">
			<v:userDefs>
				<v:ud v:nameU="visVersion" v:val="VT0(15):26"/>
			</v:userDefs>
			<title>一维单向箭头.871</title>
			<g id="shape872-264" v:mID="872" v:groupContext="shape">
				<title>工作表.872</title>
				<path d="M0 679.18 L80.71 679.18 L80.71 680.07 L81.59 678.29 L80.71 676.52 L80.71 677.4 L0 677.4 L0 679.18 Z"
						class="st9"/>
				<path d="M0 679.18 L80.71 679.18 L80.71 680.07 L81.59 678.29 L80.71 676.52 L80.71 677.4 L0 677.4" class="st6"/>
			</g>
			<g id="shape873-267" v:mID="873" v:groupContext="shape">
				<title>工作表.873</title>
				<path d="M0 679.18 L80.71 679.18 L80.71 680.07 L81.59 678.29 L80.71 676.52 L80.71 677.4 L0 677.4 L0 679.18"
						class="st7"/>
			</g>
			<g id="shape874-270" v:mID="874" v:groupContext="shape" transform="translate(-1.04623,-0.902723)">
				<title>工作表.874</title>
				<rect x="0" y="678.323" width="0.460557" height="1.74532" class="st8"/>
			</g>
		</g>
		<g id="group875-272" transform="translate(991.709,874.984) rotate(126.187)" v:mID="875" v:groupContext="group">
			<v:userDefs>
				<v:ud v:nameU="visVersion" v:val="VT0(15):26"/>
			</v:userDefs>
			<title>一维单向箭头.875</title>
			<g id="shape876-273" v:mID="876" v:groupContext="shape">
				<title>工作表.876</title>
				<path d="M0 679.18 L67.85 679.18 L67.85 680.07 L68.74 678.29 L67.85 676.52 L67.85 677.4 L0 677.4 L0 679.18 Z"
						class="st5"/>
				<path d="M0 679.18 L67.85 679.18 L67.85 680.07 L68.74 678.29 L67.85 676.52 L67.85 677.4 L0 677.4" class="st6"/>
			</g>
			<g id="shape877-276" v:mID="877" v:groupContext="shape">
				<title>工作表.877</title>
				<path d="M0 679.18 L67.85 679.18 L67.85 680.07 L68.74 678.29 L67.85 676.52 L67.85 677.4 L0 677.4 L0 679.18"
						class="st7"/>
			</g>
			<g id="shape878-279" v:mID="878" v:groupContext="shape" transform="translate(-0.88135,-0.902723)">
				<title>工作表.878</title>
				<rect x="0" y="678.323" width="0.387977" height="1.74532" class="st8"/>
			</g>
		</g>
		<g id="group879-281" transform="translate(1061.73,193.755) rotate(65.5496)" v:mID="879" v:groupContext="group">
			<v:userDefs>
				<v:ud v:nameU="visVersion" v:val="VT0(15):26"/>
			</v:userDefs>
			<title>一维单向箭头.879</title>
			<g id="shape880-282" v:mID="880" v:groupContext="shape">
				<title>工作表.880</title>
				<path d="M0 679.18 L60.05 679.18 L60.05 680.07 L60.94 678.29 L60.05 676.52 L60.05 677.4 L0 677.4 L0 679.18 Z"
						class="st5"/>
				<path d="M0 679.18 L60.05 679.18 L60.05 680.07 L60.94 678.29 L60.05 676.52 L60.05 677.4 L0 677.4" class="st6"/>
			</g>
			<g id="shape881-285" v:mID="881" v:groupContext="shape">
				<title>工作表.881</title>
				<path d="M0 679.18 L60.05 679.18 L60.05 680.07 L60.94 678.29 L60.05 676.52 L60.05 677.4 L0 677.4 L0 679.18"
						class="st7"/>
			</g>
			<g id="shape882-288" v:mID="882" v:groupContext="shape" transform="translate(-0.781408,-0.902723)">
				<title>工作表.882</title>
				<rect x="0" y="678.323" width="0.343982" height="1.74532" class="st8"/>
			</g>
		</g>
		<g id="group883-290" transform="translate(1215.34,834.193) rotate(112.274)" v:mID="883" v:groupContext="group">
			<v:userDefs>
				<v:ud v:nameU="visVersion" v:val="VT0(15):26"/>
			</v:userDefs>
			<title>一维单向箭头.883</title>
			<g id="shape884-291" v:mID="884" v:groupContext="shape">
				<title>工作表.884</title>
				<path d="M0 679.18 L59.06 679.18 L59.06 680.07 L59.95 678.29 L59.06 676.52 L59.06 677.4 L0 677.4 L0 679.18 Z"
						class="st5"/>
				<path d="M0 679.18 L59.06 679.18 L59.06 680.07 L59.95 678.29 L59.06 676.52 L59.06 677.4 L0 677.4" class="st6"/>
			</g>
			<g id="shape885-294" v:mID="885" v:groupContext="shape">
				<title>工作表.885</title>
				<path d="M0 679.18 L59.06 679.18 L59.06 680.07 L59.95 678.29 L59.06 676.52 L59.06 677.4 L0 677.4 L0 679.18"
						class="st7"/>
			</g>
			<g id="shape886-297" v:mID="886" v:groupContext="shape" transform="translate(-0.768688,-0.902723)">
				<title>工作表.886</title>
				<rect x="0" y="678.323" width="0.338382" height="1.74532" class="st8"/>
			</g>
		</g>
		<g id="group887-299" transform="translate(988.663,920.429) rotate(120.409)" v:mID="887" v:groupContext="group">
			<v:userDefs>
				<v:ud v:nameU="visVersion" v:val="VT0(15):26"/>
			</v:userDefs>
			<title>一维单向箭头.887</title>
			<g id="shape888-300" v:mID="888" v:groupContext="shape">
				<title>工作表.888</title>
				<path d="M0 679.18 L63.44 679.18 L63.44 680.07 L64.33 678.29 L63.44 676.52 L63.44 677.4 L0 677.4 L0 679.18 Z"
						class="st5"/>
				<path d="M0 679.18 L63.44 679.18 L63.44 680.07 L64.33 678.29 L63.44 676.52 L63.44 677.4 L0 677.4" class="st6"/>
			</g>
			<g id="shape889-303" v:mID="889" v:groupContext="shape">
				<title>工作表.889</title>
				<path d="M0 679.18 L63.44 679.18 L63.44 680.07 L64.33 678.29 L63.44 676.52 L63.44 677.4 L0 677.4 L0 679.18"
						class="st7"/>
			</g>
			<g id="shape890-306" v:mID="890" v:groupContext="shape" transform="translate(-0.824795,-0.902723)">
				<title>工作表.890</title>
				<rect x="0" y="678.323" width="0.363081" height="1.74532" class="st8"/>
			</g>
		</g>
		<g id="group891-308" transform="translate(1046.77,25.2153) rotate(48.5182)" v:mID="891" v:groupContext="group">
			<v:userDefs>
				<v:ud v:nameU="visVersion" v:val="VT0(15):26"/>
			</v:userDefs>
			<title>一维单向箭头.891</title>
			<g id="shape892-309" v:mID="892" v:groupContext="shape">
				<title>工作表.892</title>
				<path d="M0 679.18 L73.16 679.18 L73.16 680.07 L74.05 678.29 L73.16 676.52 L73.16 677.4 L0 677.4 L0 679.18 Z"
						class="st9"/>
				<path d="M0 679.18 L73.16 679.18 L73.16 680.07 L74.05 678.29 L73.16 676.52 L73.16 677.4 L0 677.4" class="st6"/>
			</g>
			<g id="shape893-312" v:mID="893" v:groupContext="shape">
				<title>工作表.893</title>
				<path d="M0 679.18 L73.16 679.18 L73.16 680.07 L74.05 678.29 L73.16 676.52 L73.16 677.4 L0 677.4 L0 679.18"
						class="st7"/>
			</g>
			<g id="shape894-315" v:mID="894" v:groupContext="shape" transform="translate(-0.949498,-0.902723)">
				<title>工作表.894</title>
				<rect x="0" y="678.323" width="0.417976" height="1.74532" class="st8"/>
			</g>
		</g>
	</g>
</svg>
