<?xml version="1.0" encoding="UTF-8" standalone="no"?>
<!DOCTYPE svg PUBLIC "-//W3C//DTD SVG 1.1//EN" "http://www.w3.org/Graphics/SVG/1.1/DTD/svg11.dtd">
<!-- 由 Microsoft Visio, SVG Export 生成 LeftistTree9.svg 页-1 -->
<svg xmlns="http://www.w3.org/2000/svg" xmlns:xlink="http://www.w3.org/1999/xlink" xmlns:ev="http://www.w3.org/2001/xml-events"
		xmlns:v="http://schemas.microsoft.com/visio/2003/SVGExtensions/" width="9.08117in" height="9.44539in"
		viewBox="0 0 653.844 680.068" xml:space="preserve" color-interpolation-filters="sRGB" class="st12">
	<v:documentProperties v:langID="2052" v:metric="true" v:viewMarkup="false"/>

	<style type="text/css">
	<![CDATA[
		.st1 {fill:#ffffff;stroke:#000000;stroke-linecap:round;stroke-linejoin:round;stroke-width:0.75}
		.st2 {fill:#000000;font-family:Cambria Math;font-size:1.5em}
		.st3 {font-size:1em}
		.st4 {fill:#4bacc6;stroke:#000000;stroke-linecap:round;stroke-linejoin:round;stroke-width:0.75}
		.st5 {fill:#ffffff}
		.st6 {stroke:none;stroke-linecap:round;stroke-linejoin:round;stroke-width:0.75}
		.st7 {stroke:#000000;stroke-linecap:round;stroke-linejoin:round;stroke-width:0.24}
		.st8 {fill:#ffffff;stroke:none;stroke-linecap:round;stroke-linejoin:round;stroke-width:0.24;visibility:hidden}
		.st9 {fill:#4bacc6}
		.st10 {fill:#c05046;stroke:#000000;stroke-linecap:round;stroke-linejoin:round;stroke-width:0.75}
		.st11 {fill:#c05046}
		.st12 {fill:none;fill-rule:evenodd;font-size:12px;overflow:visible;stroke-linecap:square;stroke-miterlimit:3}
	]]>
	</style>

	<g v:mID="0" v:index="1" v:groupContext="foregroundPage">
		<title>页-1</title>
		<v:pageProperties v:drawingScale="0.0393701" v:pageScale="0.0393701" v:drawingUnits="24" v:shadowOffsetX="8.50394"
				v:shadowOffsetY="-8.50394"/>
		<g id="shape1147-1" v:mID="1147" v:groupContext="shape" transform="translate(180.485,-632.575)">
			<title>矩形.1147</title>
			<desc>6 2</desc>
			<v:userDefs>
				<v:ud v:nameU="visVersion" v:val="VT0(15):26"/>
			</v:userDefs>
			<v:textBlock v:margins="rect(4,4,4,4)" v:tabSpace="42.5197"/>
			<v:textRect cx="16.624" cy="656.509" width="33.25" height="47.1178"/>
			<rect x="0" y="632.95" width="33.2481" height="47.1178" class="st1"/>
			<text x="11.64" y="651.11" class="st2" v:langID="2052"><v:paragraph v:horizAlign="1"/><v:tabList/>6<v:newlineChar/><tspan
						x="11.64" dy="1.2em" class="st3">2</tspan></text>		</g>
		<g id="shape1148-5" v:mID="1148" v:groupContext="shape" transform="translate(324.986,-532.044)">
			<title>矩形.1148</title>
			<desc>7 2</desc>
			<v:userDefs>
				<v:ud v:nameU="visVersion" v:val="VT0(15):26"/>
			</v:userDefs>
			<v:textBlock v:margins="rect(4,4,4,4)" v:tabSpace="42.5197"/>
			<v:textRect cx="16.624" cy="656.509" width="33.25" height="47.1178"/>
			<rect x="0" y="632.95" width="33.2481" height="47.1178" class="st4"/>
			<text x="11.64" y="651.11" class="st2" v:langID="2052"><v:paragraph v:horizAlign="1"/><v:tabList/>7<v:newlineChar/><tspan
						x="11.64" dy="1.2em" class="st3">2</tspan></text>		</g>
		<g id="shape1149-9" v:mID="1149" v:groupContext="shape" transform="translate(85.856,-532.044)">
			<title>矩形.1149</title>
			<desc>11 2</desc>
			<v:userDefs>
				<v:ud v:nameU="visVersion" v:val="VT0(15):26"/>
			</v:userDefs>
			<v:textBlock v:margins="rect(4,4,4,4)" v:tabSpace="42.5197"/>
			<v:textRect cx="16.624" cy="656.509" width="33.25" height="47.1178"/>
			<rect x="0" y="632.95" width="33.2481" height="47.1178" class="st1"/>
			<text x="6.66" y="651.11" class="st2" v:langID="2052"><v:paragraph v:horizAlign="1"/><v:tabList/>11<v:newlineChar/><tspan
						x="11.64" dy="1.2em" class="st3">2</tspan></text>		</g>
		<g id="shape1150-13" v:mID="1150" v:groupContext="shape" transform="translate(388.293,-418.086)">
			<title>矩形.1150</title>
			<desc>8 1</desc>
			<v:userDefs>
				<v:ud v:nameU="visVersion" v:val="VT0(15):26"/>
			</v:userDefs>
			<v:textBlock v:margins="rect(4,4,4,4)" v:tabSpace="42.5197"/>
			<v:textRect cx="16.624" cy="656.509" width="33.25" height="47.1178"/>
			<rect x="0" y="632.95" width="33.2481" height="47.1178" class="st4"/>
			<text x="11.64" y="651.11" class="st2" v:langID="2052"><v:paragraph v:horizAlign="1"/><v:tabList/>8<v:newlineChar/><tspan
						x="11.64" dy="1.2em" class="st3">1</tspan></text>		</g>
		<g id="group1151-17" transform="translate(530.524,638.183) rotate(150.557)" v:mID="1151" v:groupContext="group">
			<v:userDefs>
				<v:ud v:nameU="visVersion" v:val="VT0(15):26"/>
			</v:userDefs>
			<title>一维单向箭头.1151</title>
			<g id="shape1152-18" v:mID="1152" v:groupContext="shape">
				<title>工作表.1152</title>
				<path d="M0 679.18 L107.78 679.18 L107.78 680.07 L108.66 678.29 L107.78 676.52 L107.78 677.4 L0 677.4 L0 679.18 Z"
						class="st5"/>
				<path d="M0 679.18 L107.78 679.18 L107.78 680.07 L108.66 678.29 L107.78 676.52 L107.78 677.4 L0 677.4" class="st6"/>
			</g>
			<g id="shape1153-21" v:mID="1153" v:groupContext="shape">
				<title>工作表.1153</title>
				<path d="M0 679.18 L107.78 679.18 L107.78 680.07 L108.66 678.29 L107.78 676.52 L107.78 677.4 L0 677.4 L0 679.18"
						class="st7"/>
			</g>
			<g id="shape1154-24" v:mID="1154" v:groupContext="shape" transform="translate(-1.3933,-0.902723)">
				<title>工作表.1154</title>
				<rect x="0" y="678.323" width="0.613342" height="1.74532" class="st8"/>
			</g>
		</g>
		<g id="group1155-26" transform="translate(432.281,-588.726) rotate(20.2863)" v:mID="1155" v:groupContext="group">
			<v:userDefs>
				<v:ud v:nameU="visVersion" v:val="VT0(15):26"/>
			</v:userDefs>
			<title>一维单向箭头.1155</title>
			<g id="shape1156-27" v:mID="1156" v:groupContext="shape">
				<title>工作表.1156</title>
				<path d="M0 679.18 L153.17 679.18 L153.17 680.07 L154.06 678.29 L153.17 676.52 L153.17 677.4 L0 677.4 L0 679.18 Z"
						class="st9"/>
				<path d="M0 679.18 L153.17 679.18 L153.17 680.07 L154.06 678.29 L153.17 676.52 L153.17 677.4 L0 677.4" class="st6"/>
			</g>
			<g id="shape1157-30" v:mID="1157" v:groupContext="shape">
				<title>工作表.1157</title>
				<path d="M0 679.18 L153.17 679.18 L153.17 680.07 L154.06 678.29 L153.17 676.52 L153.17 677.4 L0 677.4 L0 679.18"
						class="st7"/>
			</g>
			<g id="shape1158-33" v:mID="1158" v:groupContext="shape" transform="translate(-1.97535,-0.902723)">
				<title>工作表.1158</title>
				<rect x="0" y="678.323" width="0.869567" height="1.74532" class="st8"/>
			</g>
		</g>
		<g id="shape1159-35" v:mID="1159" v:groupContext="shape" transform="translate(257.759,-418.086)">
			<title>矩形.1159</title>
			<desc>9 1</desc>
			<v:userDefs>
				<v:ud v:nameU="visVersion" v:val="VT0(15):26"/>
			</v:userDefs>
			<v:textBlock v:margins="rect(4,4,4,4)" v:tabSpace="42.5197"/>
			<v:textRect cx="16.624" cy="656.509" width="33.25" height="47.1178"/>
			<rect x="0" y="632.95" width="33.2481" height="47.1178" class="st1"/>
			<text x="11.64" y="651.11" class="st2" v:langID="2052"><v:paragraph v:horizAlign="1"/><v:tabList/>9<v:newlineChar/><tspan
						x="11.64" dy="1.2em" class="st3">1</tspan></text>		</g>
		<g id="group1160-39" transform="translate(819.851,629.03) rotate(135.165)" v:mID="1160" v:groupContext="group">
			<v:userDefs>
				<v:ud v:nameU="visVersion" v:val="VT0(15):26"/>
			</v:userDefs>
			<title>一维单向箭头.1160</title>
			<g id="shape1161-40" v:mID="1161" v:groupContext="shape">
				<title>工作表.1161</title>
				<path d="M0 679.18 L93.91 679.18 L93.91 680.07 L94.8 678.29 L93.91 676.52 L93.91 677.4 L0 677.4 L0 679.18 Z"
						class="st5"/>
				<path d="M0 679.18 L93.91 679.18 L93.91 680.07 L94.8 678.29 L93.91 676.52 L93.91 677.4 L0 677.4" class="st6"/>
			</g>
			<g id="shape1162-43" v:mID="1162" v:groupContext="shape">
				<title>工作表.1162</title>
				<path d="M0 679.18 L93.91 679.18 L93.91 680.07 L94.8 678.29 L93.91 676.52 L93.91 677.4 L0 677.4 L0 679.18"
						class="st7"/>
			</g>
			<g id="shape1163-46" v:mID="1163" v:groupContext="shape" transform="translate(-1.21555,-0.902723)">
				<title>工作表.1163</title>
				<rect x="0" y="678.323" width="0.535095" height="1.74532" class="st8"/>
			</g>
		</g>
		<g id="shape1164-48" v:mID="1164" v:groupContext="shape" transform="translate(465.75,-311.8)">
			<title>矩形.1164</title>
			<desc>12 1</desc>
			<v:userDefs>
				<v:ud v:nameU="visVersion" v:val="VT0(15):26"/>
			</v:userDefs>
			<v:textBlock v:margins="rect(4,4,4,4)" v:tabSpace="42.5197"/>
			<v:textRect cx="16.624" cy="656.509" width="33.25" height="47.1178"/>
			<rect x="0" y="632.95" width="33.2481" height="47.1178" class="st4"/>
			<text x="6.66" y="651.11" class="st2" v:langID="2052"><v:paragraph v:horizAlign="1"/><v:tabList/>12<v:newlineChar/><tspan
						x="11.64" dy="1.2em" class="st3">1</tspan></text>		</g>
		<g id="group1165-52" transform="translate(834.078,-318.405) rotate(46.5555)" v:mID="1165" v:groupContext="group">
			<v:userDefs>
				<v:ud v:nameU="visVersion" v:val="VT0(15):26"/>
			</v:userDefs>
			<title>一维单向箭头.1165</title>
			<g id="shape1166-53" v:mID="1166" v:groupContext="shape">
				<title>工作表.1166</title>
				<path d="M0 679.18 L91.17 679.18 L91.17 680.07 L92.06 678.29 L91.17 676.52 L91.17 677.4 L0 677.4 L0 679.18 Z"
						class="st9"/>
				<path d="M0 679.18 L91.17 679.18 L91.17 680.07 L92.06 678.29 L91.17 676.52 L91.17 677.4 L0 677.4" class="st6"/>
			</g>
			<g id="shape1167-56" v:mID="1167" v:groupContext="shape">
				<title>工作表.1167</title>
				<path d="M0 679.18 L91.17 679.18 L91.17 680.07 L92.06 678.29 L91.17 676.52 L91.17 677.4 L0 677.4 L0 679.18"
						class="st7"/>
			</g>
			<g id="shape1168-59" v:mID="1168" v:groupContext="shape" transform="translate(-1.18043,-0.902723)">
				<title>工作表.1168</title>
				<rect x="0" y="678.323" width="0.519636" height="1.74532" class="st8"/>
			</g>
		</g>
		<g id="shape1169-61" v:mID="1169" v:groupContext="shape" transform="translate(39.7218,-418.086)">
			<title>矩形.1169</title>
			<desc>17 1</desc>
			<v:userDefs>
				<v:ud v:nameU="visVersion" v:val="VT0(15):26"/>
			</v:userDefs>
			<v:textBlock v:margins="rect(4,4,4,4)" v:tabSpace="42.5197"/>
			<v:textRect cx="16.624" cy="656.509" width="33.25" height="47.1178"/>
			<rect x="0" y="632.95" width="33.2481" height="47.1178" class="st1"/>
			<text x="6.66" y="651.11" class="st2" v:langID="2052"><v:paragraph v:horizAlign="1"/><v:tabList/>17<v:newlineChar/><tspan
						x="11.64" dy="1.2em" class="st3">1</tspan></text>		</g>
		<g id="shape1170-65" v:mID="1170" v:groupContext="shape" transform="translate(122.153,-418.086)">
			<title>矩形.1170</title>
			<desc>14 1</desc>
			<v:userDefs>
				<v:ud v:nameU="visVersion" v:val="VT0(15):26"/>
			</v:userDefs>
			<v:textBlock v:margins="rect(4,4,4,4)" v:tabSpace="42.5197"/>
			<v:textRect cx="16.624" cy="656.509" width="33.25" height="47.1178"/>
			<rect x="0" y="632.95" width="33.2481" height="47.1178" class="st1"/>
			<text x="6.66" y="651.11" class="st2" v:langID="2052"><v:paragraph v:horizAlign="1"/><v:tabList/>14<v:newlineChar/><tspan
						x="11.64" dy="1.2em" class="st3">1</tspan></text>		</g>
		<g id="group1171-69" transform="translate(660.713,533.324) rotate(124.614)" v:mID="1171" v:groupContext="group">
			<v:userDefs>
				<v:ud v:nameU="visVersion" v:val="VT0(15):26"/>
			</v:userDefs>
			<title>一维单向箭头.1171</title>
			<g id="shape1172-70" v:mID="1172" v:groupContext="shape">
				<title>工作表.1172</title>
				<path d="M0 679.18 L80.33 679.18 L80.33 680.07 L81.22 678.29 L80.33 676.52 L80.33 677.4 L0 677.4 L0 679.18 Z"
						class="st5"/>
				<path d="M0 679.18 L80.33 679.18 L80.33 680.07 L81.22 678.29 L80.33 676.52 L80.33 677.4 L0 677.4" class="st6"/>
			</g>
			<g id="shape1173-73" v:mID="1173" v:groupContext="shape">
				<title>工作表.1173</title>
				<path d="M0 679.18 L80.33 679.18 L80.33 680.07 L81.22 678.29 L80.33 676.52 L80.33 677.4 L0 677.4 L0 679.18"
						class="st7"/>
			</g>
			<g id="shape1174-76" v:mID="1174" v:groupContext="shape" transform="translate(-1.04137,-0.902723)">
				<title>工作表.1174</title>
				<rect x="0" y="678.323" width="0.458418" height="1.74532" class="st8"/>
			</g>
		</g>
		<g id="group1175-78" transform="translate(698.552,-175.671) rotate(61.496)" v:mID="1175" v:groupContext="group">
			<v:userDefs>
				<v:ud v:nameU="visVersion" v:val="VT0(15):26"/>
			</v:userDefs>
			<title>一维单向箭头.1175</title>
			<g id="shape1176-79" v:mID="1176" v:groupContext="shape">
				<title>工作表.1176</title>
				<path d="M0 679.18 L75.17 679.18 L75.17 680.07 L76.06 678.29 L75.17 676.52 L75.17 677.4 L0 677.4 L0 679.18 Z"
						class="st5"/>
				<path d="M0 679.18 L75.17 679.18 L75.17 680.07 L76.06 678.29 L75.17 676.52 L75.17 677.4 L0 677.4" class="st6"/>
			</g>
			<g id="shape1177-82" v:mID="1177" v:groupContext="shape">
				<title>工作表.1177</title>
				<path d="M0 679.18 L75.17 679.18 L75.17 680.07 L76.06 678.29 L75.17 676.52 L75.17 677.4 L0 677.4 L0 679.18"
						class="st7"/>
			</g>
			<g id="shape1178-85" v:mID="1178" v:groupContext="shape" transform="translate(-0.97526,-0.902723)">
				<title>工作表.1178</title>
				<rect x="0" y="678.323" width="0.429317" height="1.74532" class="st8"/>
			</g>
		</g>
		<g id="shape1179-87" v:mID="1179" v:groupContext="shape" transform="translate(0.375,-311.8)">
			<title>矩形.1179</title>
			<desc>18 0</desc>
			<v:userDefs>
				<v:ud v:nameU="visVersion" v:val="VT0(15):26"/>
			</v:userDefs>
			<v:textBlock v:margins="rect(4,4,4,4)" v:tabSpace="42.5197"/>
			<v:textRect cx="16.624" cy="656.509" width="33.25" height="47.1178"/>
			<rect x="0" y="632.95" width="33.2481" height="47.1178" class="st1"/>
			<text x="6.66" y="651.11" class="st2" v:langID="2052"><v:paragraph v:horizAlign="1"/><v:tabList/>18<v:newlineChar/><tspan
						x="11.64" dy="1.2em" class="st3">0</tspan></text>		</g>
		<g id="shape1180-91" v:mID="1180" v:groupContext="shape" transform="translate(48.0338,-311.8)">
			<title>矩形.1180</title>
			<desc>20 0</desc>
			<v:userDefs>
				<v:ud v:nameU="visVersion" v:val="VT0(15):26"/>
			</v:userDefs>
			<v:textBlock v:margins="rect(4,4,4,4)" v:tabSpace="42.5197"/>
			<v:textRect cx="16.624" cy="656.509" width="33.25" height="47.1178"/>
			<rect x="0" y="632.95" width="33.2481" height="47.1178" class="st1"/>
			<text x="6.66" y="651.11" class="st2" v:langID="2052"><v:paragraph v:horizAlign="1"/><v:tabList/>20<v:newlineChar/><tspan
						x="11.64" dy="1.2em" class="st3">0</tspan></text>		</g>
		<g id="group1181-95" transform="translate(621.152,637.581) rotate(123.624)" v:mID="1181" v:groupContext="group">
			<v:userDefs>
				<v:ud v:nameU="visVersion" v:val="VT0(15):26"/>
			</v:userDefs>
			<title>一维单向箭头.1181</title>
			<g id="shape1182-96" v:mID="1182" v:groupContext="shape">
				<title>工作表.1182</title>
				<path d="M0 679.18 L70.17 679.18 L70.17 680.07 L71.06 678.29 L70.17 676.52 L70.17 677.4 L0 677.4 L0 679.18 Z"
						class="st5"/>
				<path d="M0 679.18 L70.17 679.18 L70.17 680.07 L71.06 678.29 L70.17 676.52 L70.17 677.4 L0 677.4" class="st6"/>
			</g>
			<g id="shape1183-99" v:mID="1183" v:groupContext="shape">
				<title>工作表.1183</title>
				<path d="M0 679.18 L70.17 679.18 L70.17 680.07 L71.06 678.29 L70.17 676.52 L70.17 677.4 L0 677.4 L0 679.18"
						class="st7"/>
			</g>
			<g id="shape1184-102" v:mID="1184" v:groupContext="shape" transform="translate(-0.9111,-0.902723)">
				<title>工作表.1184</title>
				<rect x="0" y="678.323" width="0.401073" height="1.74532" class="st8"/>
			</g>
		</g>
		<g id="group1185-104" transform="translate(728.043,167.621) rotate(82.0033)" v:mID="1185" v:groupContext="group">
			<v:userDefs>
				<v:ud v:nameU="visVersion" v:val="VT0(15):26"/>
			</v:userDefs>
			<title>一维单向箭头.1185</title>
			<g id="shape1186-105" v:mID="1186" v:groupContext="shape">
				<title>工作表.1186</title>
				<path d="M0 679.18 L58.86 679.18 L58.86 680.07 L59.75 678.29 L58.86 676.52 L58.86 677.4 L0 677.4 L0 679.18 Z"
						class="st5"/>
				<path d="M0 679.18 L58.86 679.18 L58.86 680.07 L59.75 678.29 L58.86 676.52 L58.86 677.4 L0 677.4" class="st6"/>
			</g>
			<g id="shape1187-108" v:mID="1187" v:groupContext="shape">
				<title>工作表.1187</title>
				<path d="M0 679.18 L58.86 679.18 L58.86 680.07 L59.75 678.29 L58.86 676.52 L58.86 677.4 L0 677.4 L0 679.18"
						class="st7"/>
			</g>
			<g id="shape1188-111" v:mID="1188" v:groupContext="shape" transform="translate(-0.766112,-0.902723)">
				<title>工作表.1188</title>
				<rect x="0" y="678.323" width="0.337249" height="1.74532" class="st8"/>
			</g>
		</g>
		<g id="shape1189-113" v:mID="1189" v:groupContext="shape" transform="translate(95.6927,-311.8)">
			<title>矩形.1189</title>
			<desc>19 0</desc>
			<v:userDefs>
				<v:ud v:nameU="visVersion" v:val="VT0(15):26"/>
			</v:userDefs>
			<v:textBlock v:margins="rect(4,4,4,4)" v:tabSpace="42.5197"/>
			<v:textRect cx="16.624" cy="656.509" width="33.25" height="47.1178"/>
			<rect x="0" y="632.95" width="33.2481" height="47.1178" class="st1"/>
			<text x="6.66" y="651.11" class="st2" v:langID="2052"><v:paragraph v:horizAlign="1"/><v:tabList/>19<v:newlineChar/><tspan
						x="11.64" dy="1.2em" class="st3">0</tspan></text>		</g>
		<g id="shape1190-117" v:mID="1190" v:groupContext="shape" transform="translate(138.089,-311.8)">
			<title>矩形.1190</title>
			<desc>24 0</desc>
			<v:userDefs>
				<v:ud v:nameU="visVersion" v:val="VT0(15):26"/>
			</v:userDefs>
			<v:textBlock v:margins="rect(4,4,4,4)" v:tabSpace="42.5197"/>
			<v:textRect cx="16.624" cy="656.509" width="33.25" height="47.1178"/>
			<rect x="0" y="632.95" width="33.2481" height="47.1178" class="st1"/>
			<text x="6.66" y="651.11" class="st2" v:langID="2052"><v:paragraph v:horizAlign="1"/><v:tabList/>24<v:newlineChar/><tspan
						x="11.64" dy="1.2em" class="st3">0</tspan></text>		</g>
		<g id="group1191-121" transform="translate(757.971,538.895) rotate(114.095)" v:mID="1191" v:groupContext="group">
			<v:userDefs>
				<v:ud v:nameU="visVersion" v:val="VT0(15):26"/>
			</v:userDefs>
			<title>一维单向箭头.1191</title>
			<g id="shape1192-122" v:mID="1192" v:groupContext="shape">
				<title>工作表.1192</title>
				<path d="M0 679.18 L63.93 679.18 L63.93 680.07 L64.82 678.29 L63.93 676.52 L63.93 677.4 L0 677.4 L0 679.18 Z"
						class="st5"/>
				<path d="M0 679.18 L63.93 679.18 L63.93 680.07 L64.82 678.29 L63.93 676.52 L63.93 677.4 L0 677.4" class="st6"/>
			</g>
			<g id="shape1193-125" v:mID="1193" v:groupContext="shape">
				<title>工作表.1193</title>
				<path d="M0 679.18 L63.93 679.18 L63.93 680.07 L64.82 678.29 L63.93 676.52 L63.93 677.4 L0 677.4 L0 679.18"
						class="st7"/>
			</g>
			<g id="shape1194-128" v:mID="1194" v:groupContext="shape" transform="translate(-0.831074,-0.902723)">
				<title>工作表.1194</title>
				<rect x="0" y="678.323" width="0.365845" height="1.74532" class="st8"/>
			</g>
		</g>
		<g id="group1195-130" transform="translate(793.732,85.5856) rotate(74.9264)" v:mID="1195" v:groupContext="group">
			<v:userDefs>
				<v:ud v:nameU="visVersion" v:val="VT0(15):26"/>
			</v:userDefs>
			<title>一维单向箭头.1195</title>
			<g id="shape1196-131" v:mID="1196" v:groupContext="shape">
				<title>工作表.1196</title>
				<path d="M0 679.18 L60.39 679.18 L60.39 680.07 L61.28 678.29 L60.39 676.52 L60.39 677.4 L0 677.4 L0 679.18 Z"
						class="st5"/>
				<path d="M0 679.18 L60.39 679.18 L60.39 680.07 L61.28 678.29 L60.39 676.52 L60.39 677.4 L0 677.4" class="st6"/>
			</g>
			<g id="shape1197-134" v:mID="1197" v:groupContext="shape">
				<title>工作表.1197</title>
				<path d="M0 679.18 L60.39 679.18 L60.39 680.07 L61.28 678.29 L60.39 676.52 L60.39 677.4 L0 677.4 L0 679.18"
						class="st7"/>
			</g>
			<g id="shape1198-137" v:mID="1198" v:groupContext="shape" transform="translate(-0.785696,-0.902723)">
				<title>工作表.1198</title>
				<rect x="0" y="678.323" width="0.34587" height="1.74532" class="st8"/>
			</g>
		</g>
		<g id="shape1199-139" v:mID="1199" v:groupContext="shape" transform="translate(347.709,-311.8)">
			<title>矩形.1199</title>
			<desc>10 1</desc>
			<v:userDefs>
				<v:ud v:nameU="visVersion" v:val="VT0(15):26"/>
			</v:userDefs>
			<v:textBlock v:margins="rect(4,4,4,4)" v:tabSpace="42.5197"/>
			<v:textRect cx="16.624" cy="656.509" width="33.25" height="47.1178"/>
			<rect x="0" y="632.95" width="33.2481" height="47.1178" class="st1"/>
			<text x="6.66" y="651.11" class="st2" v:langID="2052"><v:paragraph v:horizAlign="1"/><v:tabList/>10<v:newlineChar/><tspan
						x="11.64" dy="1.2em" class="st3">1</tspan></text>		</g>
		<g id="shape1200-143" v:mID="1200" v:groupContext="shape" transform="translate(521.987,-205.564)">
			<title>矩形.1200</title>
			<desc>13 1</desc>
			<v:userDefs>
				<v:ud v:nameU="visVersion" v:val="VT0(15):26"/>
			</v:userDefs>
			<v:textBlock v:margins="rect(4,4,4,4)" v:tabSpace="42.5197"/>
			<v:textRect cx="16.624" cy="656.509" width="33.25" height="47.1178"/>
			<rect x="0" y="632.95" width="33.2481" height="47.1178" class="st10"/>
			<text x="6.66" y="651.11" class="st2" v:langID="2052"><v:paragraph v:horizAlign="1"/><v:tabList/>13<v:newlineChar/><tspan
						x="11.64" dy="1.2em" class="st3">1</tspan></text>		</g>
		<g id="group1201-147" transform="translate(964.274,645.648) rotate(124.446)" v:mID="1201" v:groupContext="group">
			<v:userDefs>
				<v:ud v:nameU="visVersion" v:val="VT0(15):26"/>
			</v:userDefs>
			<title>一维单向箭头.1201</title>
			<g id="shape1202-148" v:mID="1202" v:groupContext="shape">
				<title>工作表.1202</title>
				<path d="M0 679.18 L70.86 679.18 L70.86 680.07 L71.75 678.29 L70.86 676.52 L70.86 677.4 L0 677.4 L0 679.18 Z"
						class="st5"/>
				<path d="M0 679.18 L70.86 679.18 L70.86 680.07 L71.75 678.29 L70.86 676.52 L70.86 677.4 L0 677.4" class="st6"/>
			</g>
			<g id="shape1203-151" v:mID="1203" v:groupContext="shape">
				<title>工作表.1203</title>
				<path d="M0 679.18 L70.86 679.18 L70.86 680.07 L71.75 678.29 L70.86 676.52 L70.86 677.4 L0 677.4 L0 679.18"
						class="st7"/>
			</g>
			<g id="shape1204-154" v:mID="1204" v:groupContext="shape" transform="translate(-0.919975,-0.902723)">
				<title>工作表.1204</title>
				<rect x="0" y="678.323" width="0.40498" height="1.74532" class="st8"/>
			</g>
		</g>
		<g id="group1205-156" transform="translate(884.542,-217.643) rotate(45)" v:mID="1205" v:groupContext="group">
			<v:userDefs>
				<v:ud v:nameU="visVersion" v:val="VT0(15):26"/>
			</v:userDefs>
			<title>一维单向箭头.1205</title>
			<g id="shape1206-157" v:mID="1206" v:groupContext="shape">
				<title>工作表.1206</title>
				<path d="M0 679.18 L85.96 679.18 L85.96 680.07 L86.84 678.29 L85.96 676.52 L85.96 677.4 L0 677.4 L0 679.18 Z"
						class="st9"/>
				<path d="M0 679.18 L85.96 679.18 L85.96 680.07 L86.84 678.29 L85.96 676.52 L85.96 677.4 L0 677.4" class="st6"/>
			</g>
			<g id="shape1207-160" v:mID="1207" v:groupContext="shape">
				<title>工作表.1207</title>
				<path d="M0 679.18 L85.96 679.18 L85.96 680.07 L86.84 678.29 L85.96 676.52 L85.96 677.4 L0 677.4 L0 679.18"
						class="st7"/>
			</g>
			<g id="shape1208-163" v:mID="1208" v:groupContext="shape" transform="translate(-1.11353,-0.902723)">
				<title>工作表.1208</title>
				<rect x="0" y="678.323" width="0.490185" height="1.74532" class="st8"/>
			</g>
		</g>
		<g id="shape1209-165" v:mID="1209" v:groupContext="shape" transform="translate(309.599,-205.564)">
			<title>矩形.1209</title>
			<desc>15 0</desc>
			<v:userDefs>
				<v:ud v:nameU="visVersion" v:val="VT0(15):26"/>
			</v:userDefs>
			<v:textBlock v:margins="rect(4,4,4,4)" v:tabSpace="42.5197"/>
			<v:textRect cx="16.624" cy="656.509" width="33.25" height="47.1178"/>
			<rect x="0" y="632.95" width="33.2481" height="47.1178" class="st1"/>
			<text x="6.66" y="651.11" class="st2" v:langID="2052"><v:paragraph v:horizAlign="1"/><v:tabList/>15<v:newlineChar/><tspan
						x="11.64" dy="1.2em" class="st3">0</tspan></text>		</g>
		<g id="shape1210-169" v:mID="1210" v:groupContext="shape" transform="translate(368.619,-205.564)">
			<title>矩形.1210</title>
			<desc>30 0</desc>
			<v:userDefs>
				<v:ud v:nameU="visVersion" v:val="VT0(15):26"/>
			</v:userDefs>
			<v:textBlock v:margins="rect(4,4,4,4)" v:tabSpace="42.5197"/>
			<v:textRect cx="16.624" cy="656.509" width="33.25" height="47.1178"/>
			<rect x="0" y="632.95" width="33.2481" height="47.1178" class="st1"/>
			<text x="6.66" y="651.11" class="st2" v:langID="2052"><v:paragraph v:horizAlign="1"/><v:tabList/>30<v:newlineChar/><tspan
						x="11.64" dy="1.2em" class="st3">0</tspan></text>		</g>
		<g id="group1211-173" transform="translate(934.435,735.779) rotate(122.807)" v:mID="1211" v:groupContext="group">
			<v:userDefs>
				<v:ud v:nameU="visVersion" v:val="VT0(15):26"/>
			</v:userDefs>
			<title>一维单向箭头.1211</title>
			<g id="shape1212-174" v:mID="1212" v:groupContext="shape">
				<title>工作表.1212</title>
				<path d="M0 679.18 L69.45 679.18 L69.45 680.07 L70.34 678.29 L69.45 676.52 L69.45 677.4 L0 677.4 L0 679.18 Z"
						class="st5"/>
				<path d="M0 679.18 L69.45 679.18 L69.45 680.07 L70.34 678.29 L69.45 676.52 L69.45 677.4 L0 677.4" class="st6"/>
			</g>
			<g id="shape1213-177" v:mID="1213" v:groupContext="shape">
				<title>工作表.1213</title>
				<path d="M0 679.18 L69.45 679.18 L69.45 680.07 L70.34 678.29 L69.45 676.52 L69.45 677.4 L0 677.4 L0 679.18"
						class="st7"/>
			</g>
			<g id="shape1214-180" v:mID="1214" v:groupContext="shape" transform="translate(-0.901886,-0.902723)">
				<title>工作表.1214</title>
				<rect x="0" y="678.323" width="0.397018" height="1.74532" class="st8"/>
			</g>
		</g>
		<g id="group1215-182" transform="translate(1003.8,142.089) rotate(70.5215)" v:mID="1215" v:groupContext="group">
			<v:userDefs>
				<v:ud v:nameU="visVersion" v:val="VT0(15):26"/>
			</v:userDefs>
			<title>一维单向箭头.1215</title>
			<g id="shape1216-183" v:mID="1216" v:groupContext="shape">
				<title>工作表.1216</title>
				<path d="M0 679.18 L61.82 679.18 L61.82 680.07 L62.71 678.29 L61.82 676.52 L61.82 677.4 L0 677.4 L0 679.18 Z"
						class="st5"/>
				<path d="M0 679.18 L61.82 679.18 L61.82 680.07 L62.71 678.29 L61.82 676.52 L61.82 677.4 L0 677.4" class="st6"/>
			</g>
			<g id="shape1217-186" v:mID="1217" v:groupContext="shape">
				<title>工作表.1217</title>
				<path d="M0 679.18 L61.82 679.18 L61.82 680.07 L62.71 678.29 L61.82 676.52 L61.82 677.4 L0 677.4 L0 679.18"
						class="st7"/>
			</g>
			<g id="shape1218-189" v:mID="1218" v:groupContext="shape" transform="translate(-0.80405,-0.902723)">
				<title>工作表.1218</title>
				<rect x="0" y="678.323" width="0.353949" height="1.74532" class="st8"/>
			</g>
		</g>
		<g id="shape1219-191" v:mID="1219" v:groupContext="shape" transform="translate(501.429,-102.969)">
			<title>矩形.1219</title>
			<desc>28 0</desc>
			<v:userDefs>
				<v:ud v:nameU="visVersion" v:val="VT0(15):26"/>
			</v:userDefs>
			<v:textBlock v:margins="rect(4,4,4,4)" v:tabSpace="42.5197"/>
			<v:textRect cx="16.624" cy="656.509" width="33.25" height="47.1178"/>
			<rect x="0" y="632.95" width="33.2481" height="47.1178" class="st1"/>
			<text x="6.66" y="651.11" class="st2" v:langID="2052"><v:paragraph v:horizAlign="1"/><v:tabList/>28<v:newlineChar/><tspan
						x="11.64" dy="1.2em" class="st3">0</tspan></text>		</g>
		<g id="group1220-195" transform="translate(1174.64,710.205) rotate(110.334)" v:mID="1220" v:groupContext="group">
			<v:userDefs>
				<v:ud v:nameU="visVersion" v:val="VT0(15):26"/>
			</v:userDefs>
			<title>一维单向箭头.1220</title>
			<g id="shape1221-196" v:mID="1221" v:groupContext="shape">
				<title>工作表.1221</title>
				<path d="M0 679.18 L58.28 679.18 L58.28 680.07 L59.16 678.29 L58.28 676.52 L58.28 677.4 L0 677.4 L0 679.18 Z"
						class="st5"/>
				<path d="M0 679.18 L58.28 679.18 L58.28 680.07 L59.16 678.29 L58.28 676.52 L58.28 677.4 L0 677.4" class="st6"/>
			</g>
			<g id="shape1222-199" v:mID="1222" v:groupContext="shape">
				<title>工作表.1222</title>
				<path d="M0 679.18 L58.28 679.18 L58.28 680.07 L59.16 678.29 L58.28 676.52 L58.28 677.4 L0 677.4 L0 679.18"
						class="st7"/>
			</g>
			<g id="shape1223-202" v:mID="1223" v:groupContext="shape" transform="translate(-0.758605,-0.902723)">
				<title>工作表.1223</title>
				<rect x="0" y="678.323" width="0.333944" height="1.74532" class="st8"/>
			</g>
		</g>
		<g id="shape1224-204" v:mID="1224" v:groupContext="shape" transform="translate(387.056,-102.969)">
			<title>矩形.1224</title>
			<desc>42 0</desc>
			<v:userDefs>
				<v:ud v:nameU="visVersion" v:val="VT0(15):26"/>
			</v:userDefs>
			<v:textBlock v:margins="rect(4,4,4,4)" v:tabSpace="42.5197"/>
			<v:textRect cx="16.624" cy="656.509" width="33.25" height="47.1178"/>
			<rect x="0" y="632.95" width="33.2481" height="47.1178" class="st1"/>
			<text x="6.66" y="651.11" class="st2" v:langID="2052"><v:paragraph v:horizAlign="1"/><v:tabList/>42<v:newlineChar/><tspan
						x="11.64" dy="1.2em" class="st3">0</tspan></text>		</g>
		<g id="shape1225-208" v:mID="1225" v:groupContext="shape" transform="translate(452.864,-102.969)">
			<title>矩形.1225</title>
			<desc>33 0</desc>
			<v:userDefs>
				<v:ud v:nameU="visVersion" v:val="VT0(15):26"/>
			</v:userDefs>
			<v:textBlock v:margins="rect(4,4,4,4)" v:tabSpace="42.5197"/>
			<v:textRect cx="16.624" cy="656.509" width="33.25" height="47.1178"/>
			<rect x="0" y="632.95" width="33.2481" height="47.1178" class="st1"/>
			<text x="6.66" y="651.11" class="st2" v:langID="2052"><v:paragraph v:horizAlign="1"/><v:tabList/>33<v:newlineChar/><tspan
						x="11.64" dy="1.2em" class="st3">0</tspan></text>		</g>
		<g id="shape1226-212" v:mID="1226" v:groupContext="shape" transform="translate(354.496,-0.375)">
			<title>矩形.1226</title>
			<desc>50 0</desc>
			<v:userDefs>
				<v:ud v:nameU="visVersion" v:val="VT0(15):26"/>
			</v:userDefs>
			<v:textBlock v:margins="rect(4,4,4,4)" v:tabSpace="42.5197"/>
			<v:textRect cx="16.624" cy="656.509" width="33.25" height="47.1178"/>
			<rect x="0" y="632.95" width="33.2481" height="47.1178" class="st1"/>
			<text x="6.66" y="651.11" class="st2" v:langID="2052"><v:paragraph v:horizAlign="1"/><v:tabList/>50<v:newlineChar/><tspan
						x="11.64" dy="1.2em" class="st3">0</tspan></text>		</g>
		<g id="shape1227-216" v:mID="1227" v:groupContext="shape" transform="translate(548.315,-0.375)">
			<title>矩形.1227</title>
			<desc>27 0</desc>
			<v:userDefs>
				<v:ud v:nameU="visVersion" v:val="VT0(15):26"/>
			</v:userDefs>
			<v:textBlock v:margins="rect(4,4,4,4)" v:tabSpace="42.5197"/>
			<v:textRect cx="16.624" cy="656.509" width="33.25" height="47.1178"/>
			<rect x="0" y="632.95" width="33.2481" height="47.1178" class="st1"/>
			<text x="6.66" y="651.11" class="st2" v:langID="2052"><v:paragraph v:horizAlign="1"/><v:tabList/>27<v:newlineChar/><tspan
						x="11.64" dy="1.2em" class="st3">0</tspan></text>		</g>
		<g id="shape1228-220" v:mID="1228" v:groupContext="shape" transform="translate(214.281,-311.8)">
			<title>矩形.1228</title>
			<desc>21 0</desc>
			<v:userDefs>
				<v:ud v:nameU="visVersion" v:val="VT0(15):26"/>
			</v:userDefs>
			<v:textBlock v:margins="rect(4,4,4,4)" v:tabSpace="42.5197"/>
			<v:textRect cx="16.624" cy="656.509" width="33.25" height="47.1178"/>
			<rect x="0" y="632.95" width="33.2481" height="47.1178" class="st1"/>
			<text x="6.66" y="651.11" class="st2" v:langID="2052"><v:paragraph v:horizAlign="1"/><v:tabList/>21<v:newlineChar/><tspan
						x="11.64" dy="1.2em" class="st3">0</tspan></text>		</g>
		<g id="shape1229-224" v:mID="1229" v:groupContext="shape" transform="translate(290.474,-311.8)">
			<title>矩形.1229</title>
			<desc>16 0</desc>
			<v:userDefs>
				<v:ud v:nameU="visVersion" v:val="VT0(15):26"/>
			</v:userDefs>
			<v:textBlock v:margins="rect(4,4,4,4)" v:tabSpace="42.5197"/>
			<v:textRect cx="16.624" cy="656.509" width="33.25" height="47.1178"/>
			<rect x="0" y="632.95" width="33.2481" height="47.1178" class="st1"/>
			<text x="6.66" y="651.11" class="st2" v:langID="2052"><v:paragraph v:horizAlign="1"/><v:tabList/>16<v:newlineChar/><tspan
						x="11.64" dy="1.2em" class="st3">0</tspan></text>		</g>
		<g id="shape1230-228" v:mID="1230" v:groupContext="shape" transform="translate(427.639,-205.564)">
			<title>矩形.1230</title>
			<desc>31 1</desc>
			<v:userDefs>
				<v:ud v:nameU="visVersion" v:val="VT0(15):26"/>
			</v:userDefs>
			<v:textBlock v:margins="rect(4,4,4,4)" v:tabSpace="42.5197"/>
			<v:textRect cx="16.624" cy="656.509" width="33.25" height="47.1178"/>
			<rect x="0" y="632.95" width="33.2481" height="47.1178" class="st1"/>
			<text x="6.66" y="651.11" class="st2" v:langID="2052"><v:paragraph v:horizAlign="1"/><v:tabList/>31<v:newlineChar/><tspan
						x="11.64" dy="1.2em" class="st3">1</tspan></text>		</g>
		<g id="shape1231-232" v:mID="1231" v:groupContext="shape" transform="translate(571.038,-102.969)">
			<title>矩形.1231</title>
			<desc>26 0</desc>
			<v:userDefs>
				<v:ud v:nameU="visVersion" v:val="VT0(15):26"/>
			</v:userDefs>
			<v:textBlock v:margins="rect(4,4,4,4)" v:tabSpace="42.5197"/>
			<v:textRect cx="16.624" cy="656.509" width="33.25" height="47.1178"/>
			<rect x="0" y="632.95" width="33.2481" height="47.1178" class="st10"/>
			<text x="6.66" y="651.11" class="st2" v:langID="2052"><v:paragraph v:horizAlign="1"/><v:tabList/>26<v:newlineChar/><tspan
						x="11.64" dy="1.2em" class="st3">0</tspan></text>		</g>
		<g id="group1232-236" transform="translate(820.972,663.631) rotate(126.31)" v:mID="1232" v:groupContext="group">
			<v:userDefs>
				<v:ud v:nameU="visVersion" v:val="VT0(15):26"/>
			</v:userDefs>
			<title>一维单向箭头.1232</title>
			<g id="shape1233-237" v:mID="1233" v:groupContext="shape">
				<title>工作表.1233</title>
				<path d="M0 679.18 L72.54 679.18 L72.54 680.07 L73.42 678.29 L72.54 676.52 L72.54 677.4 L0 677.4 L0 679.18 Z"
						class="st5"/>
				<path d="M0 679.18 L72.54 679.18 L72.54 680.07 L73.42 678.29 L72.54 676.52 L72.54 677.4 L0 677.4" class="st6"/>
			</g>
			<g id="shape1234-240" v:mID="1234" v:groupContext="shape">
				<title>工作表.1234</title>
				<path d="M0 679.18 L72.54 679.18 L72.54 680.07 L73.42 678.29 L72.54 676.52 L72.54 677.4 L0 677.4 L0 679.18"
						class="st7"/>
			</g>
			<g id="shape1235-243" v:mID="1235" v:groupContext="shape" transform="translate(-0.941468,-0.902723)">
				<title>工作表.1235</title>
				<rect x="0" y="678.323" width="0.414442" height="1.74532" class="st8"/>
			</g>
		</g>
		<g id="group1236-245" transform="translate(867.985,-66.222) rotate(61.0616)" v:mID="1236" v:groupContext="group">
			<v:userDefs>
				<v:ud v:nameU="visVersion" v:val="VT0(15):26"/>
			</v:userDefs>
			<title>一维单向箭头.1236</title>
			<g id="shape1237-246" v:mID="1237" v:groupContext="shape">
				<title>工作表.1237</title>
				<path d="M0 679.18 L66.72 679.18 L66.72 680.07 L67.61 678.29 L66.72 676.52 L66.72 677.4 L0 677.4 L0 679.18 Z"
						class="st5"/>
				<path d="M0 679.18 L66.72 679.18 L66.72 680.07 L67.61 678.29 L66.72 676.52 L66.72 677.4 L0 677.4" class="st6"/>
			</g>
			<g id="shape1238-249" v:mID="1238" v:groupContext="shape">
				<title>工作表.1238</title>
				<path d="M0 679.18 L66.72 679.18 L66.72 680.07 L67.61 678.29 L66.72 676.52 L66.72 677.4 L0 677.4 L0 679.18"
						class="st7"/>
			</g>
			<g id="shape1239-252" v:mID="1239" v:groupContext="shape" transform="translate(-0.866903,-0.902723)">
				<title>工作表.1239</title>
				<rect x="0" y="678.323" width="0.381618" height="1.74532" class="st8"/>
			</g>
		</g>
		<g id="group1240-254" transform="translate(1052.48,735.779) rotate(122.807)" v:mID="1240" v:groupContext="group">
			<v:userDefs>
				<v:ud v:nameU="visVersion" v:val="VT0(15):26"/>
			</v:userDefs>
			<title>一维单向箭头.1240</title>
			<g id="shape1241-255" v:mID="1241" v:groupContext="shape">
				<title>工作表.1241</title>
				<path d="M0 679.18 L69.45 679.18 L69.45 680.07 L70.34 678.29 L69.45 676.52 L69.45 677.4 L0 677.4 L0 679.18 Z"
						class="st5"/>
				<path d="M0 679.18 L69.45 679.18 L69.45 680.07 L70.34 678.29 L69.45 676.52 L69.45 677.4 L0 677.4" class="st6"/>
			</g>
			<g id="shape1242-258" v:mID="1242" v:groupContext="shape">
				<title>工作表.1242</title>
				<path d="M0 679.18 L69.45 679.18 L69.45 680.07 L70.34 678.29 L69.45 676.52 L69.45 677.4 L0 677.4 L0 679.18"
						class="st7"/>
			</g>
			<g id="shape1243-261" v:mID="1243" v:groupContext="shape" transform="translate(-0.901886,-0.902723)">
				<title>工作表.1243</title>
				<rect x="0" y="678.323" width="0.397018" height="1.74532" class="st8"/>
			</g>
		</g>
		<g id="group1244-263" transform="translate(973.823,-99.2341) rotate(46.4305)" v:mID="1244" v:groupContext="group">
			<v:userDefs>
				<v:ud v:nameU="visVersion" v:val="VT0(15):26"/>
			</v:userDefs>
			<title>一维单向箭头.1244</title>
			<g id="shape1245-264" v:mID="1245" v:groupContext="shape">
				<title>工作表.1245</title>
				<path d="M0 679.18 L80.71 679.18 L80.71 680.07 L81.59 678.29 L80.71 676.52 L80.71 677.4 L0 677.4 L0 679.18 Z"
						class="st9"/>
				<path d="M0 679.18 L80.71 679.18 L80.71 680.07 L81.59 678.29 L80.71 676.52 L80.71 677.4 L0 677.4" class="st6"/>
			</g>
			<g id="shape1246-267" v:mID="1246" v:groupContext="shape">
				<title>工作表.1246</title>
				<path d="M0 679.18 L80.71 679.18 L80.71 680.07 L81.59 678.29 L80.71 676.52 L80.71 677.4 L0 677.4 L0 679.18"
						class="st7"/>
			</g>
			<g id="shape1247-270" v:mID="1247" v:groupContext="shape" transform="translate(-1.04623,-0.902723)">
				<title>工作表.1247</title>
				<rect x="0" y="678.323" width="0.460557" height="1.74532" class="st8"/>
			</g>
		</g>
		<g id="group1248-272" transform="translate(991.709,874.984) rotate(126.187)" v:mID="1248" v:groupContext="group">
			<v:userDefs>
				<v:ud v:nameU="visVersion" v:val="VT0(15):26"/>
			</v:userDefs>
			<title>一维单向箭头.1248</title>
			<g id="shape1249-273" v:mID="1249" v:groupContext="shape">
				<title>工作表.1249</title>
				<path d="M0 679.18 L67.85 679.18 L67.85 680.07 L68.74 678.29 L67.85 676.52 L67.85 677.4 L0 677.4 L0 679.18 Z"
						class="st5"/>
				<path d="M0 679.18 L67.85 679.18 L67.85 680.07 L68.74 678.29 L67.85 676.52 L67.85 677.4 L0 677.4" class="st6"/>
			</g>
			<g id="shape1250-276" v:mID="1250" v:groupContext="shape">
				<title>工作表.1250</title>
				<path d="M0 679.18 L67.85 679.18 L67.85 680.07 L68.74 678.29 L67.85 676.52 L67.85 677.4 L0 677.4 L0 679.18"
						class="st7"/>
			</g>
			<g id="shape1251-279" v:mID="1251" v:groupContext="shape" transform="translate(-0.88135,-0.902723)">
				<title>工作表.1251</title>
				<rect x="0" y="678.323" width="0.387977" height="1.74532" class="st8"/>
			</g>
		</g>
		<g id="group1252-281" transform="translate(1061.73,193.755) rotate(65.5496)" v:mID="1252" v:groupContext="group">
			<v:userDefs>
				<v:ud v:nameU="visVersion" v:val="VT0(15):26"/>
			</v:userDefs>
			<title>一维单向箭头.1252</title>
			<g id="shape1253-282" v:mID="1253" v:groupContext="shape">
				<title>工作表.1253</title>
				<path d="M0 679.18 L60.05 679.18 L60.05 680.07 L60.94 678.29 L60.05 676.52 L60.05 677.4 L0 677.4 L0 679.18 Z"
						class="st5"/>
				<path d="M0 679.18 L60.05 679.18 L60.05 680.07 L60.94 678.29 L60.05 676.52 L60.05 677.4 L0 677.4" class="st6"/>
			</g>
			<g id="shape1254-285" v:mID="1254" v:groupContext="shape">
				<title>工作表.1254</title>
				<path d="M0 679.18 L60.05 679.18 L60.05 680.07 L60.94 678.29 L60.05 676.52 L60.05 677.4 L0 677.4 L0 679.18"
						class="st7"/>
			</g>
			<g id="shape1255-288" v:mID="1255" v:groupContext="shape" transform="translate(-0.781408,-0.902723)">
				<title>工作表.1255</title>
				<rect x="0" y="678.323" width="0.343982" height="1.74532" class="st8"/>
			</g>
		</g>
		<g id="group1256-290" transform="translate(1215.34,834.193) rotate(112.274)" v:mID="1256" v:groupContext="group">
			<v:userDefs>
				<v:ud v:nameU="visVersion" v:val="VT0(15):26"/>
			</v:userDefs>
			<title>一维单向箭头.1256</title>
			<g id="shape1257-291" v:mID="1257" v:groupContext="shape">
				<title>工作表.1257</title>
				<path d="M0 679.18 L59.06 679.18 L59.06 680.07 L59.95 678.29 L59.06 676.52 L59.06 677.4 L0 677.4 L0 679.18 Z"
						class="st5"/>
				<path d="M0 679.18 L59.06 679.18 L59.06 680.07 L59.95 678.29 L59.06 676.52 L59.06 677.4 L0 677.4" class="st6"/>
			</g>
			<g id="shape1258-294" v:mID="1258" v:groupContext="shape">
				<title>工作表.1258</title>
				<path d="M0 679.18 L59.06 679.18 L59.06 680.07 L59.95 678.29 L59.06 676.52 L59.06 677.4 L0 677.4 L0 679.18"
						class="st7"/>
			</g>
			<g id="shape1259-297" v:mID="1259" v:groupContext="shape" transform="translate(-0.768688,-0.902723)">
				<title>工作表.1259</title>
				<rect x="0" y="678.323" width="0.338382" height="1.74532" class="st8"/>
			</g>
		</g>
		<g id="group1260-299" transform="translate(988.663,920.429) rotate(120.409)" v:mID="1260" v:groupContext="group">
			<v:userDefs>
				<v:ud v:nameU="visVersion" v:val="VT0(15):26"/>
			</v:userDefs>
			<title>一维单向箭头.1260</title>
			<g id="shape1261-300" v:mID="1261" v:groupContext="shape">
				<title>工作表.1261</title>
				<path d="M0 679.18 L63.44 679.18 L63.44 680.07 L64.33 678.29 L63.44 676.52 L63.44 677.4 L0 677.4 L0 679.18 Z"
						class="st5"/>
				<path d="M0 679.18 L63.44 679.18 L63.44 680.07 L64.33 678.29 L63.44 676.52 L63.44 677.4 L0 677.4" class="st6"/>
			</g>
			<g id="shape1262-303" v:mID="1262" v:groupContext="shape">
				<title>工作表.1262</title>
				<path d="M0 679.18 L63.44 679.18 L63.44 680.07 L64.33 678.29 L63.44 676.52 L63.44 677.4 L0 677.4 L0 679.18"
						class="st7"/>
			</g>
			<g id="shape1263-306" v:mID="1263" v:groupContext="shape" transform="translate(-0.824795,-0.902723)">
				<title>工作表.1263</title>
				<rect x="0" y="678.323" width="0.363081" height="1.74532" class="st8"/>
			</g>
		</g>
		<g id="group1264-308" transform="translate(1046.77,25.2153) rotate(48.5182)" v:mID="1264" v:groupContext="group">
			<v:userDefs>
				<v:ud v:nameU="visVersion" v:val="VT0(15):26"/>
			</v:userDefs>
			<title>一维单向箭头.1264</title>
			<g id="shape1265-309" v:mID="1265" v:groupContext="shape">
				<title>工作表.1265</title>
				<path d="M0 679.18 L73.16 679.18 L73.16 680.07 L74.05 678.29 L73.16 676.52 L73.16 677.4 L0 677.4 L0 679.18 Z"
						class="st11"/>
				<path d="M0 679.18 L73.16 679.18 L73.16 680.07 L74.05 678.29 L73.16 676.52 L73.16 677.4 L0 677.4" class="st6"/>
			</g>
			<g id="shape1266-312" v:mID="1266" v:groupContext="shape">
				<title>工作表.1266</title>
				<path d="M0 679.18 L73.16 679.18 L73.16 680.07 L74.05 678.29 L73.16 676.52 L73.16 677.4 L0 677.4 L0 679.18"
						class="st7"/>
			</g>
			<g id="shape1267-315" v:mID="1267" v:groupContext="shape" transform="translate(-0.949498,-0.902723)">
				<title>工作表.1267</title>
				<rect x="0" y="678.323" width="0.417976" height="1.74532" class="st8"/>
			</g>
		</g>
		<g id="shape1268-317" v:mID="1268" v:groupContext="shape" transform="translate(620.221,-0.375)">
			<title>矩形.1268</title>
			<desc>nil -1</desc>
			<v:userDefs>
				<v:ud v:nameU="visVersion" v:val="VT0(15):26"/>
			</v:userDefs>
			<v:textBlock v:margins="rect(4,4,4,4)" v:tabSpace="42.5197"/>
			<v:textRect cx="16.624" cy="656.509" width="33.25" height="47.1178"/>
			<rect x="0" y="632.95" width="33.2481" height="47.1178" class="st10"/>
			<text x="6.66" y="651.11" class="st2" v:langID="2052"><v:paragraph v:horizAlign="1"/><v:tabList/>nil<v:newlineChar/><tspan
						x="8.65" dy="1.2em" class="st3">-</tspan>1</text>		</g>
		<g id="group1269-321" transform="translate(1095.21,127.125) rotate(48.4409)" v:mID="1269" v:groupContext="group">
			<v:userDefs>
				<v:ud v:nameU="visVersion" v:val="VT0(15):26"/>
			</v:userDefs>
			<title>一维单向箭头.1269</title>
			<g id="shape1270-322" v:mID="1270" v:groupContext="shape">
				<title>工作表.1270</title>
				<path d="M0 679.18 L73.25 679.18 L73.25 680.07 L74.14 678.29 L73.25 676.52 L73.25 677.4 L0 677.4 L0 679.18 Z"
						class="st11"/>
				<path d="M0 679.18 L73.25 679.18 L73.25 680.07 L74.14 678.29 L73.25 676.52 L73.25 677.4 L0 677.4" class="st6"/>
			</g>
			<g id="shape1271-325" v:mID="1271" v:groupContext="shape">
				<title>工作表.1271</title>
				<path d="M0 679.18 L73.25 679.18 L73.25 680.07 L74.14 678.29 L73.25 676.52 L73.25 677.4 L0 677.4 L0 679.18"
						class="st7"/>
			</g>
			<g id="shape1272-328" v:mID="1272" v:groupContext="shape" transform="translate(-0.950632,-0.902723)">
				<title>工作表.1272</title>
				<rect x="0" y="678.323" width="0.418476" height="1.74532" class="st8"/>
			</g>
		</g>
	</g>
</svg>
