<?xml version="1.0" encoding="UTF-8" standalone="no"?>
<!DOCTYPE svg PUBLIC "-//W3C//DTD SVG 1.1//EN" "http://www.w3.org/Graphics/SVG/1.1/DTD/svg11.dtd">
<!-- 由 Microsoft Visio, SVG Export 生成 LeftistTree8.svg 页-1 -->
<svg xmlns="http://www.w3.org/2000/svg" xmlns:xlink="http://www.w3.org/1999/xlink" xmlns:ev="http://www.w3.org/2001/xml-events"
		xmlns:v="http://schemas.microsoft.com/visio/2003/SVGExtensions/" width="9.08117in" height="9.44539in"
		viewBox="0 0 653.844 680.068" xml:space="preserve" color-interpolation-filters="sRGB" class="st12">
	<v:documentProperties v:langID="2052" v:metric="true" v:viewMarkup="false"/>

	<style type="text/css">
	<![CDATA[
		.st1 {fill:#ffffff;stroke:#000000;stroke-linecap:round;stroke-linejoin:round;stroke-width:0.75}
		.st2 {fill:#000000;font-family:Cambria Math;font-size:1.5em}
		.st3 {font-size:1em}
		.st4 {fill:#4bacc6;stroke:#000000;stroke-linecap:round;stroke-linejoin:round;stroke-width:0.75}
		.st5 {fill:#ffffff}
		.st6 {stroke:none;stroke-linecap:round;stroke-linejoin:round;stroke-width:0.75}
		.st7 {stroke:#000000;stroke-linecap:round;stroke-linejoin:round;stroke-width:0.24}
		.st8 {fill:#ffffff;stroke:none;stroke-linecap:round;stroke-linejoin:round;stroke-width:0.24;visibility:hidden}
		.st9 {fill:#4bacc6}
		.st10 {fill:#c05046;stroke:#000000;stroke-linecap:round;stroke-linejoin:round;stroke-width:0.75}
		.st11 {fill:#c05046}
		.st12 {fill:none;fill-rule:evenodd;font-size:12px;overflow:visible;stroke-linecap:square;stroke-miterlimit:3}
	]]>
	</style>

	<g v:mID="0" v:index="1" v:groupContext="foregroundPage">
		<title>页-1</title>
		<v:pageProperties v:drawingScale="0.0393701" v:pageScale="0.0393701" v:drawingUnits="24" v:shadowOffsetX="8.50394"
				v:shadowOffsetY="-8.50394"/>
		<g id="shape895-1" v:mID="895" v:groupContext="shape" transform="translate(180.485,-632.575)">
			<title>矩形.895</title>
			<desc>6 2</desc>
			<v:userDefs>
				<v:ud v:nameU="visVersion" v:val="VT0(15):26"/>
			</v:userDefs>
			<v:textBlock v:margins="rect(4,4,4,4)" v:tabSpace="42.5197"/>
			<v:textRect cx="16.624" cy="656.509" width="33.25" height="47.1178"/>
			<rect x="0" y="632.95" width="33.2481" height="47.1178" class="st1"/>
			<text x="11.64" y="651.11" class="st2" v:langID="2052"><v:paragraph v:horizAlign="1"/><v:tabList/>6<v:newlineChar/><tspan
						x="11.64" dy="1.2em" class="st3">2</tspan></text>		</g>
		<g id="shape896-5" v:mID="896" v:groupContext="shape" transform="translate(324.986,-532.044)">
			<title>矩形.896</title>
			<desc>7 2</desc>
			<v:userDefs>
				<v:ud v:nameU="visVersion" v:val="VT0(15):26"/>
			</v:userDefs>
			<v:textBlock v:margins="rect(4,4,4,4)" v:tabSpace="42.5197"/>
			<v:textRect cx="16.624" cy="656.509" width="33.25" height="47.1178"/>
			<rect x="0" y="632.95" width="33.2481" height="47.1178" class="st4"/>
			<text x="11.64" y="651.11" class="st2" v:langID="2052"><v:paragraph v:horizAlign="1"/><v:tabList/>7<v:newlineChar/><tspan
						x="11.64" dy="1.2em" class="st3">2</tspan></text>		</g>
		<g id="shape897-9" v:mID="897" v:groupContext="shape" transform="translate(85.856,-532.044)">
			<title>矩形.897</title>
			<desc>11 2</desc>
			<v:userDefs>
				<v:ud v:nameU="visVersion" v:val="VT0(15):26"/>
			</v:userDefs>
			<v:textBlock v:margins="rect(4,4,4,4)" v:tabSpace="42.5197"/>
			<v:textRect cx="16.624" cy="656.509" width="33.25" height="47.1178"/>
			<rect x="0" y="632.95" width="33.2481" height="47.1178" class="st1"/>
			<text x="6.66" y="651.11" class="st2" v:langID="2052"><v:paragraph v:horizAlign="1"/><v:tabList/>11<v:newlineChar/><tspan
						x="11.64" dy="1.2em" class="st3">2</tspan></text>		</g>
		<g id="shape898-13" v:mID="898" v:groupContext="shape" transform="translate(388.293,-418.086)">
			<title>矩形.898</title>
			<desc>8 1</desc>
			<v:userDefs>
				<v:ud v:nameU="visVersion" v:val="VT0(15):26"/>
			</v:userDefs>
			<v:textBlock v:margins="rect(4,4,4,4)" v:tabSpace="42.5197"/>
			<v:textRect cx="16.624" cy="656.509" width="33.25" height="47.1178"/>
			<rect x="0" y="632.95" width="33.2481" height="47.1178" class="st4"/>
			<text x="11.64" y="651.11" class="st2" v:langID="2052"><v:paragraph v:horizAlign="1"/><v:tabList/>8<v:newlineChar/><tspan
						x="11.64" dy="1.2em" class="st3">1</tspan></text>		</g>
		<g id="group899-17" transform="translate(530.524,638.183) rotate(150.557)" v:mID="899" v:groupContext="group">
			<v:userDefs>
				<v:ud v:nameU="visVersion" v:val="VT0(15):26"/>
			</v:userDefs>
			<title>一维单向箭头.899</title>
			<g id="shape900-18" v:mID="900" v:groupContext="shape">
				<title>工作表.900</title>
				<path d="M0 679.18 L107.78 679.18 L107.78 680.07 L108.66 678.29 L107.78 676.52 L107.78 677.4 L0 677.4 L0 679.18 Z"
						class="st5"/>
				<path d="M0 679.18 L107.78 679.18 L107.78 680.07 L108.66 678.29 L107.78 676.52 L107.78 677.4 L0 677.4" class="st6"/>
			</g>
			<g id="shape901-21" v:mID="901" v:groupContext="shape">
				<title>工作表.901</title>
				<path d="M0 679.18 L107.78 679.18 L107.78 680.07 L108.66 678.29 L107.78 676.52 L107.78 677.4 L0 677.4 L0 679.18"
						class="st7"/>
			</g>
			<g id="shape902-24" v:mID="902" v:groupContext="shape" transform="translate(-1.3933,-0.902723)">
				<title>工作表.902</title>
				<rect x="0" y="678.323" width="0.613342" height="1.74532" class="st8"/>
			</g>
		</g>
		<g id="group903-26" transform="translate(432.281,-588.726) rotate(20.2863)" v:mID="903" v:groupContext="group">
			<v:userDefs>
				<v:ud v:nameU="visVersion" v:val="VT0(15):26"/>
			</v:userDefs>
			<title>一维单向箭头.903</title>
			<g id="shape904-27" v:mID="904" v:groupContext="shape">
				<title>工作表.904</title>
				<path d="M0 679.18 L153.17 679.18 L153.17 680.07 L154.06 678.29 L153.17 676.52 L153.17 677.4 L0 677.4 L0 679.18 Z"
						class="st9"/>
				<path d="M0 679.18 L153.17 679.18 L153.17 680.07 L154.06 678.29 L153.17 676.52 L153.17 677.4 L0 677.4" class="st6"/>
			</g>
			<g id="shape905-30" v:mID="905" v:groupContext="shape">
				<title>工作表.905</title>
				<path d="M0 679.18 L153.17 679.18 L153.17 680.07 L154.06 678.29 L153.17 676.52 L153.17 677.4 L0 677.4 L0 679.18"
						class="st7"/>
			</g>
			<g id="shape906-33" v:mID="906" v:groupContext="shape" transform="translate(-1.97535,-0.902723)">
				<title>工作表.906</title>
				<rect x="0" y="678.323" width="0.869567" height="1.74532" class="st8"/>
			</g>
		</g>
		<g id="shape907-35" v:mID="907" v:groupContext="shape" transform="translate(257.759,-418.086)">
			<title>矩形.907</title>
			<desc>9 1</desc>
			<v:userDefs>
				<v:ud v:nameU="visVersion" v:val="VT0(15):26"/>
			</v:userDefs>
			<v:textBlock v:margins="rect(4,4,4,4)" v:tabSpace="42.5197"/>
			<v:textRect cx="16.624" cy="656.509" width="33.25" height="47.1178"/>
			<rect x="0" y="632.95" width="33.2481" height="47.1178" class="st1"/>
			<text x="11.64" y="651.11" class="st2" v:langID="2052"><v:paragraph v:horizAlign="1"/><v:tabList/>9<v:newlineChar/><tspan
						x="11.64" dy="1.2em" class="st3">1</tspan></text>		</g>
		<g id="group908-39" transform="translate(819.851,629.03) rotate(135.165)" v:mID="908" v:groupContext="group">
			<v:userDefs>
				<v:ud v:nameU="visVersion" v:val="VT0(15):26"/>
			</v:userDefs>
			<title>一维单向箭头.908</title>
			<g id="shape909-40" v:mID="909" v:groupContext="shape">
				<title>工作表.909</title>
				<path d="M0 679.18 L93.91 679.18 L93.91 680.07 L94.8 678.29 L93.91 676.52 L93.91 677.4 L0 677.4 L0 679.18 Z"
						class="st5"/>
				<path d="M0 679.18 L93.91 679.18 L93.91 680.07 L94.8 678.29 L93.91 676.52 L93.91 677.4 L0 677.4" class="st6"/>
			</g>
			<g id="shape910-43" v:mID="910" v:groupContext="shape">
				<title>工作表.910</title>
				<path d="M0 679.18 L93.91 679.18 L93.91 680.07 L94.8 678.29 L93.91 676.52 L93.91 677.4 L0 677.4 L0 679.18"
						class="st7"/>
			</g>
			<g id="shape911-46" v:mID="911" v:groupContext="shape" transform="translate(-1.21555,-0.902723)">
				<title>工作表.911</title>
				<rect x="0" y="678.323" width="0.535095" height="1.74532" class="st8"/>
			</g>
		</g>
		<g id="shape912-48" v:mID="912" v:groupContext="shape" transform="translate(465.75,-311.8)">
			<title>矩形.912</title>
			<desc>12 1</desc>
			<v:userDefs>
				<v:ud v:nameU="visVersion" v:val="VT0(15):26"/>
			</v:userDefs>
			<v:textBlock v:margins="rect(4,4,4,4)" v:tabSpace="42.5197"/>
			<v:textRect cx="16.624" cy="656.509" width="33.25" height="47.1178"/>
			<rect x="0" y="632.95" width="33.2481" height="47.1178" class="st4"/>
			<text x="6.66" y="651.11" class="st2" v:langID="2052"><v:paragraph v:horizAlign="1"/><v:tabList/>12<v:newlineChar/><tspan
						x="11.64" dy="1.2em" class="st3">1</tspan></text>		</g>
		<g id="group913-52" transform="translate(834.078,-318.405) rotate(46.5555)" v:mID="913" v:groupContext="group">
			<v:userDefs>
				<v:ud v:nameU="visVersion" v:val="VT0(15):26"/>
			</v:userDefs>
			<title>一维单向箭头.913</title>
			<g id="shape914-53" v:mID="914" v:groupContext="shape">
				<title>工作表.914</title>
				<path d="M0 679.18 L91.17 679.18 L91.17 680.07 L92.06 678.29 L91.17 676.52 L91.17 677.4 L0 677.4 L0 679.18 Z"
						class="st9"/>
				<path d="M0 679.18 L91.17 679.18 L91.17 680.07 L92.06 678.29 L91.17 676.52 L91.17 677.4 L0 677.4" class="st6"/>
			</g>
			<g id="shape915-56" v:mID="915" v:groupContext="shape">
				<title>工作表.915</title>
				<path d="M0 679.18 L91.17 679.18 L91.17 680.07 L92.06 678.29 L91.17 676.52 L91.17 677.4 L0 677.4 L0 679.18"
						class="st7"/>
			</g>
			<g id="shape916-59" v:mID="916" v:groupContext="shape" transform="translate(-1.18043,-0.902723)">
				<title>工作表.916</title>
				<rect x="0" y="678.323" width="0.519636" height="1.74532" class="st8"/>
			</g>
		</g>
		<g id="shape917-61" v:mID="917" v:groupContext="shape" transform="translate(39.7218,-418.086)">
			<title>矩形.917</title>
			<desc>17 1</desc>
			<v:userDefs>
				<v:ud v:nameU="visVersion" v:val="VT0(15):26"/>
			</v:userDefs>
			<v:textBlock v:margins="rect(4,4,4,4)" v:tabSpace="42.5197"/>
			<v:textRect cx="16.624" cy="656.509" width="33.25" height="47.1178"/>
			<rect x="0" y="632.95" width="33.2481" height="47.1178" class="st1"/>
			<text x="6.66" y="651.11" class="st2" v:langID="2052"><v:paragraph v:horizAlign="1"/><v:tabList/>17<v:newlineChar/><tspan
						x="11.64" dy="1.2em" class="st3">1</tspan></text>		</g>
		<g id="shape918-65" v:mID="918" v:groupContext="shape" transform="translate(122.153,-418.086)">
			<title>矩形.918</title>
			<desc>14 1</desc>
			<v:userDefs>
				<v:ud v:nameU="visVersion" v:val="VT0(15):26"/>
			</v:userDefs>
			<v:textBlock v:margins="rect(4,4,4,4)" v:tabSpace="42.5197"/>
			<v:textRect cx="16.624" cy="656.509" width="33.25" height="47.1178"/>
			<rect x="0" y="632.95" width="33.2481" height="47.1178" class="st1"/>
			<text x="6.66" y="651.11" class="st2" v:langID="2052"><v:paragraph v:horizAlign="1"/><v:tabList/>14<v:newlineChar/><tspan
						x="11.64" dy="1.2em" class="st3">1</tspan></text>		</g>
		<g id="group919-69" transform="translate(660.713,533.324) rotate(124.614)" v:mID="919" v:groupContext="group">
			<v:userDefs>
				<v:ud v:nameU="visVersion" v:val="VT0(15):26"/>
			</v:userDefs>
			<title>一维单向箭头.919</title>
			<g id="shape920-70" v:mID="920" v:groupContext="shape">
				<title>工作表.920</title>
				<path d="M0 679.18 L80.33 679.18 L80.33 680.07 L81.22 678.29 L80.33 676.52 L80.33 677.4 L0 677.4 L0 679.18 Z"
						class="st5"/>
				<path d="M0 679.18 L80.33 679.18 L80.33 680.07 L81.22 678.29 L80.33 676.52 L80.33 677.4 L0 677.4" class="st6"/>
			</g>
			<g id="shape921-73" v:mID="921" v:groupContext="shape">
				<title>工作表.921</title>
				<path d="M0 679.18 L80.33 679.18 L80.33 680.07 L81.22 678.29 L80.33 676.52 L80.33 677.4 L0 677.4 L0 679.18"
						class="st7"/>
			</g>
			<g id="shape922-76" v:mID="922" v:groupContext="shape" transform="translate(-1.04137,-0.902723)">
				<title>工作表.922</title>
				<rect x="0" y="678.323" width="0.458418" height="1.74532" class="st8"/>
			</g>
		</g>
		<g id="group923-78" transform="translate(698.552,-175.671) rotate(61.496)" v:mID="923" v:groupContext="group">
			<v:userDefs>
				<v:ud v:nameU="visVersion" v:val="VT0(15):26"/>
			</v:userDefs>
			<title>一维单向箭头.923</title>
			<g id="shape924-79" v:mID="924" v:groupContext="shape">
				<title>工作表.924</title>
				<path d="M0 679.18 L75.17 679.18 L75.17 680.07 L76.06 678.29 L75.17 676.52 L75.17 677.4 L0 677.4 L0 679.18 Z"
						class="st5"/>
				<path d="M0 679.18 L75.17 679.18 L75.17 680.07 L76.06 678.29 L75.17 676.52 L75.17 677.4 L0 677.4" class="st6"/>
			</g>
			<g id="shape925-82" v:mID="925" v:groupContext="shape">
				<title>工作表.925</title>
				<path d="M0 679.18 L75.17 679.18 L75.17 680.07 L76.06 678.29 L75.17 676.52 L75.17 677.4 L0 677.4 L0 679.18"
						class="st7"/>
			</g>
			<g id="shape926-85" v:mID="926" v:groupContext="shape" transform="translate(-0.97526,-0.902723)">
				<title>工作表.926</title>
				<rect x="0" y="678.323" width="0.429317" height="1.74532" class="st8"/>
			</g>
		</g>
		<g id="shape927-87" v:mID="927" v:groupContext="shape" transform="translate(0.375,-311.8)">
			<title>矩形.927</title>
			<desc>18 0</desc>
			<v:userDefs>
				<v:ud v:nameU="visVersion" v:val="VT0(15):26"/>
			</v:userDefs>
			<v:textBlock v:margins="rect(4,4,4,4)" v:tabSpace="42.5197"/>
			<v:textRect cx="16.624" cy="656.509" width="33.25" height="47.1178"/>
			<rect x="0" y="632.95" width="33.2481" height="47.1178" class="st1"/>
			<text x="6.66" y="651.11" class="st2" v:langID="2052"><v:paragraph v:horizAlign="1"/><v:tabList/>18<v:newlineChar/><tspan
						x="11.64" dy="1.2em" class="st3">0</tspan></text>		</g>
		<g id="shape928-91" v:mID="928" v:groupContext="shape" transform="translate(48.0338,-311.8)">
			<title>矩形.928</title>
			<desc>20 0</desc>
			<v:userDefs>
				<v:ud v:nameU="visVersion" v:val="VT0(15):26"/>
			</v:userDefs>
			<v:textBlock v:margins="rect(4,4,4,4)" v:tabSpace="42.5197"/>
			<v:textRect cx="16.624" cy="656.509" width="33.25" height="47.1178"/>
			<rect x="0" y="632.95" width="33.2481" height="47.1178" class="st1"/>
			<text x="6.66" y="651.11" class="st2" v:langID="2052"><v:paragraph v:horizAlign="1"/><v:tabList/>20<v:newlineChar/><tspan
						x="11.64" dy="1.2em" class="st3">0</tspan></text>		</g>
		<g id="group929-95" transform="translate(621.152,637.581) rotate(123.624)" v:mID="929" v:groupContext="group">
			<v:userDefs>
				<v:ud v:nameU="visVersion" v:val="VT0(15):26"/>
			</v:userDefs>
			<title>一维单向箭头.929</title>
			<g id="shape930-96" v:mID="930" v:groupContext="shape">
				<title>工作表.930</title>
				<path d="M0 679.18 L70.17 679.18 L70.17 680.07 L71.06 678.29 L70.17 676.52 L70.17 677.4 L0 677.4 L0 679.18 Z"
						class="st5"/>
				<path d="M0 679.18 L70.17 679.18 L70.17 680.07 L71.06 678.29 L70.17 676.52 L70.17 677.4 L0 677.4" class="st6"/>
			</g>
			<g id="shape931-99" v:mID="931" v:groupContext="shape">
				<title>工作表.931</title>
				<path d="M0 679.18 L70.17 679.18 L70.17 680.07 L71.06 678.29 L70.17 676.52 L70.17 677.4 L0 677.4 L0 679.18"
						class="st7"/>
			</g>
			<g id="shape932-102" v:mID="932" v:groupContext="shape" transform="translate(-0.9111,-0.902723)">
				<title>工作表.932</title>
				<rect x="0" y="678.323" width="0.401073" height="1.74532" class="st8"/>
			</g>
		</g>
		<g id="group933-104" transform="translate(728.043,167.621) rotate(82.0033)" v:mID="933" v:groupContext="group">
			<v:userDefs>
				<v:ud v:nameU="visVersion" v:val="VT0(15):26"/>
			</v:userDefs>
			<title>一维单向箭头.933</title>
			<g id="shape934-105" v:mID="934" v:groupContext="shape">
				<title>工作表.934</title>
				<path d="M0 679.18 L58.86 679.18 L58.86 680.07 L59.75 678.29 L58.86 676.52 L58.86 677.4 L0 677.4 L0 679.18 Z"
						class="st5"/>
				<path d="M0 679.18 L58.86 679.18 L58.86 680.07 L59.75 678.29 L58.86 676.52 L58.86 677.4 L0 677.4" class="st6"/>
			</g>
			<g id="shape935-108" v:mID="935" v:groupContext="shape">
				<title>工作表.935</title>
				<path d="M0 679.18 L58.86 679.18 L58.86 680.07 L59.75 678.29 L58.86 676.52 L58.86 677.4 L0 677.4 L0 679.18"
						class="st7"/>
			</g>
			<g id="shape936-111" v:mID="936" v:groupContext="shape" transform="translate(-0.766112,-0.902723)">
				<title>工作表.936</title>
				<rect x="0" y="678.323" width="0.337249" height="1.74532" class="st8"/>
			</g>
		</g>
		<g id="shape937-113" v:mID="937" v:groupContext="shape" transform="translate(95.6927,-311.8)">
			<title>矩形.937</title>
			<desc>19 0</desc>
			<v:userDefs>
				<v:ud v:nameU="visVersion" v:val="VT0(15):26"/>
			</v:userDefs>
			<v:textBlock v:margins="rect(4,4,4,4)" v:tabSpace="42.5197"/>
			<v:textRect cx="16.624" cy="656.509" width="33.25" height="47.1178"/>
			<rect x="0" y="632.95" width="33.2481" height="47.1178" class="st1"/>
			<text x="6.66" y="651.11" class="st2" v:langID="2052"><v:paragraph v:horizAlign="1"/><v:tabList/>19<v:newlineChar/><tspan
						x="11.64" dy="1.2em" class="st3">0</tspan></text>		</g>
		<g id="shape938-117" v:mID="938" v:groupContext="shape" transform="translate(138.089,-311.8)">
			<title>矩形.938</title>
			<desc>24 0</desc>
			<v:userDefs>
				<v:ud v:nameU="visVersion" v:val="VT0(15):26"/>
			</v:userDefs>
			<v:textBlock v:margins="rect(4,4,4,4)" v:tabSpace="42.5197"/>
			<v:textRect cx="16.624" cy="656.509" width="33.25" height="47.1178"/>
			<rect x="0" y="632.95" width="33.2481" height="47.1178" class="st1"/>
			<text x="6.66" y="651.11" class="st2" v:langID="2052"><v:paragraph v:horizAlign="1"/><v:tabList/>24<v:newlineChar/><tspan
						x="11.64" dy="1.2em" class="st3">0</tspan></text>		</g>
		<g id="group939-121" transform="translate(757.971,538.895) rotate(114.095)" v:mID="939" v:groupContext="group">
			<v:userDefs>
				<v:ud v:nameU="visVersion" v:val="VT0(15):26"/>
			</v:userDefs>
			<title>一维单向箭头.939</title>
			<g id="shape940-122" v:mID="940" v:groupContext="shape">
				<title>工作表.940</title>
				<path d="M0 679.18 L63.93 679.18 L63.93 680.07 L64.82 678.29 L63.93 676.52 L63.93 677.4 L0 677.4 L0 679.18 Z"
						class="st5"/>
				<path d="M0 679.18 L63.93 679.18 L63.93 680.07 L64.82 678.29 L63.93 676.52 L63.93 677.4 L0 677.4" class="st6"/>
			</g>
			<g id="shape941-125" v:mID="941" v:groupContext="shape">
				<title>工作表.941</title>
				<path d="M0 679.18 L63.93 679.18 L63.93 680.07 L64.82 678.29 L63.93 676.52 L63.93 677.4 L0 677.4 L0 679.18"
						class="st7"/>
			</g>
			<g id="shape942-128" v:mID="942" v:groupContext="shape" transform="translate(-0.831074,-0.902723)">
				<title>工作表.942</title>
				<rect x="0" y="678.323" width="0.365845" height="1.74532" class="st8"/>
			</g>
		</g>
		<g id="group943-130" transform="translate(793.732,85.5856) rotate(74.9264)" v:mID="943" v:groupContext="group">
			<v:userDefs>
				<v:ud v:nameU="visVersion" v:val="VT0(15):26"/>
			</v:userDefs>
			<title>一维单向箭头.943</title>
			<g id="shape944-131" v:mID="944" v:groupContext="shape">
				<title>工作表.944</title>
				<path d="M0 679.18 L60.39 679.18 L60.39 680.07 L61.28 678.29 L60.39 676.52 L60.39 677.4 L0 677.4 L0 679.18 Z"
						class="st5"/>
				<path d="M0 679.18 L60.39 679.18 L60.39 680.07 L61.28 678.29 L60.39 676.52 L60.39 677.4 L0 677.4" class="st6"/>
			</g>
			<g id="shape945-134" v:mID="945" v:groupContext="shape">
				<title>工作表.945</title>
				<path d="M0 679.18 L60.39 679.18 L60.39 680.07 L61.28 678.29 L60.39 676.52 L60.39 677.4 L0 677.4 L0 679.18"
						class="st7"/>
			</g>
			<g id="shape946-137" v:mID="946" v:groupContext="shape" transform="translate(-0.785696,-0.902723)">
				<title>工作表.946</title>
				<rect x="0" y="678.323" width="0.34587" height="1.74532" class="st8"/>
			</g>
		</g>
		<g id="shape947-139" v:mID="947" v:groupContext="shape" transform="translate(347.709,-311.8)">
			<title>矩形.947</title>
			<desc>10 1</desc>
			<v:userDefs>
				<v:ud v:nameU="visVersion" v:val="VT0(15):26"/>
			</v:userDefs>
			<v:textBlock v:margins="rect(4,4,4,4)" v:tabSpace="42.5197"/>
			<v:textRect cx="16.624" cy="656.509" width="33.25" height="47.1178"/>
			<rect x="0" y="632.95" width="33.2481" height="47.1178" class="st1"/>
			<text x="6.66" y="651.11" class="st2" v:langID="2052"><v:paragraph v:horizAlign="1"/><v:tabList/>10<v:newlineChar/><tspan
						x="11.64" dy="1.2em" class="st3">1</tspan></text>		</g>
		<g id="shape948-143" v:mID="948" v:groupContext="shape" transform="translate(521.987,-205.564)">
			<title>矩形.948</title>
			<desc>13 0</desc>
			<v:userDefs>
				<v:ud v:nameU="visVersion" v:val="VT0(15):26"/>
			</v:userDefs>
			<v:textBlock v:margins="rect(4,4,4,4)" v:tabSpace="42.5197"/>
			<v:textRect cx="16.624" cy="656.509" width="33.25" height="47.1178"/>
			<rect x="0" y="632.95" width="33.2481" height="47.1178" class="st4"/>
			<text x="6.66" y="651.11" class="st2" v:langID="2052"><v:paragraph v:horizAlign="1"/><v:tabList/>13<v:newlineChar/><tspan
						x="11.64" dy="1.2em" class="st3">0</tspan></text>		</g>
		<g id="group949-147" transform="translate(964.274,645.648) rotate(124.446)" v:mID="949" v:groupContext="group">
			<v:userDefs>
				<v:ud v:nameU="visVersion" v:val="VT0(15):26"/>
			</v:userDefs>
			<title>一维单向箭头.949</title>
			<g id="shape950-148" v:mID="950" v:groupContext="shape">
				<title>工作表.950</title>
				<path d="M0 679.18 L70.86 679.18 L70.86 680.07 L71.75 678.29 L70.86 676.52 L70.86 677.4 L0 677.4 L0 679.18 Z"
						class="st5"/>
				<path d="M0 679.18 L70.86 679.18 L70.86 680.07 L71.75 678.29 L70.86 676.52 L70.86 677.4 L0 677.4" class="st6"/>
			</g>
			<g id="shape951-151" v:mID="951" v:groupContext="shape">
				<title>工作表.951</title>
				<path d="M0 679.18 L70.86 679.18 L70.86 680.07 L71.75 678.29 L70.86 676.52 L70.86 677.4 L0 677.4 L0 679.18"
						class="st7"/>
			</g>
			<g id="shape952-154" v:mID="952" v:groupContext="shape" transform="translate(-0.919975,-0.902723)">
				<title>工作表.952</title>
				<rect x="0" y="678.323" width="0.40498" height="1.74532" class="st8"/>
			</g>
		</g>
		<g id="group953-156" transform="translate(884.542,-217.643) rotate(45)" v:mID="953" v:groupContext="group">
			<v:userDefs>
				<v:ud v:nameU="visVersion" v:val="VT0(15):26"/>
			</v:userDefs>
			<title>一维单向箭头.953</title>
			<g id="shape954-157" v:mID="954" v:groupContext="shape">
				<title>工作表.954</title>
				<path d="M0 679.18 L85.96 679.18 L85.96 680.07 L86.84 678.29 L85.96 676.52 L85.96 677.4 L0 677.4 L0 679.18 Z"
						class="st9"/>
				<path d="M0 679.18 L85.96 679.18 L85.96 680.07 L86.84 678.29 L85.96 676.52 L85.96 677.4 L0 677.4" class="st6"/>
			</g>
			<g id="shape955-160" v:mID="955" v:groupContext="shape">
				<title>工作表.955</title>
				<path d="M0 679.18 L85.96 679.18 L85.96 680.07 L86.84 678.29 L85.96 676.52 L85.96 677.4 L0 677.4 L0 679.18"
						class="st7"/>
			</g>
			<g id="shape956-163" v:mID="956" v:groupContext="shape" transform="translate(-1.11353,-0.902723)">
				<title>工作表.956</title>
				<rect x="0" y="678.323" width="0.490185" height="1.74532" class="st8"/>
			</g>
		</g>
		<g id="shape957-165" v:mID="957" v:groupContext="shape" transform="translate(309.599,-205.564)">
			<title>矩形.957</title>
			<desc>15 0</desc>
			<v:userDefs>
				<v:ud v:nameU="visVersion" v:val="VT0(15):26"/>
			</v:userDefs>
			<v:textBlock v:margins="rect(4,4,4,4)" v:tabSpace="42.5197"/>
			<v:textRect cx="16.624" cy="656.509" width="33.25" height="47.1178"/>
			<rect x="0" y="632.95" width="33.2481" height="47.1178" class="st1"/>
			<text x="6.66" y="651.11" class="st2" v:langID="2052"><v:paragraph v:horizAlign="1"/><v:tabList/>15<v:newlineChar/><tspan
						x="11.64" dy="1.2em" class="st3">0</tspan></text>		</g>
		<g id="shape958-169" v:mID="958" v:groupContext="shape" transform="translate(368.619,-205.564)">
			<title>矩形.958</title>
			<desc>30 0</desc>
			<v:userDefs>
				<v:ud v:nameU="visVersion" v:val="VT0(15):26"/>
			</v:userDefs>
			<v:textBlock v:margins="rect(4,4,4,4)" v:tabSpace="42.5197"/>
			<v:textRect cx="16.624" cy="656.509" width="33.25" height="47.1178"/>
			<rect x="0" y="632.95" width="33.2481" height="47.1178" class="st1"/>
			<text x="6.66" y="651.11" class="st2" v:langID="2052"><v:paragraph v:horizAlign="1"/><v:tabList/>30<v:newlineChar/><tspan
						x="11.64" dy="1.2em" class="st3">0</tspan></text>		</g>
		<g id="group959-173" transform="translate(934.435,735.779) rotate(122.807)" v:mID="959" v:groupContext="group">
			<v:userDefs>
				<v:ud v:nameU="visVersion" v:val="VT0(15):26"/>
			</v:userDefs>
			<title>一维单向箭头.959</title>
			<g id="shape960-174" v:mID="960" v:groupContext="shape">
				<title>工作表.960</title>
				<path d="M0 679.18 L69.45 679.18 L69.45 680.07 L70.34 678.29 L69.45 676.52 L69.45 677.4 L0 677.4 L0 679.18 Z"
						class="st5"/>
				<path d="M0 679.18 L69.45 679.18 L69.45 680.07 L70.34 678.29 L69.45 676.52 L69.45 677.4 L0 677.4" class="st6"/>
			</g>
			<g id="shape961-177" v:mID="961" v:groupContext="shape">
				<title>工作表.961</title>
				<path d="M0 679.18 L69.45 679.18 L69.45 680.07 L70.34 678.29 L69.45 676.52 L69.45 677.4 L0 677.4 L0 679.18"
						class="st7"/>
			</g>
			<g id="shape962-180" v:mID="962" v:groupContext="shape" transform="translate(-0.901886,-0.902723)">
				<title>工作表.962</title>
				<rect x="0" y="678.323" width="0.397018" height="1.74532" class="st8"/>
			</g>
		</g>
		<g id="group963-182" transform="translate(1003.8,142.089) rotate(70.5215)" v:mID="963" v:groupContext="group">
			<v:userDefs>
				<v:ud v:nameU="visVersion" v:val="VT0(15):26"/>
			</v:userDefs>
			<title>一维单向箭头.963</title>
			<g id="shape964-183" v:mID="964" v:groupContext="shape">
				<title>工作表.964</title>
				<path d="M0 679.18 L61.82 679.18 L61.82 680.07 L62.71 678.29 L61.82 676.52 L61.82 677.4 L0 677.4 L0 679.18 Z"
						class="st5"/>
				<path d="M0 679.18 L61.82 679.18 L61.82 680.07 L62.71 678.29 L61.82 676.52 L61.82 677.4 L0 677.4" class="st6"/>
			</g>
			<g id="shape965-186" v:mID="965" v:groupContext="shape">
				<title>工作表.965</title>
				<path d="M0 679.18 L61.82 679.18 L61.82 680.07 L62.71 678.29 L61.82 676.52 L61.82 677.4 L0 677.4 L0 679.18"
						class="st7"/>
			</g>
			<g id="shape966-189" v:mID="966" v:groupContext="shape" transform="translate(-0.80405,-0.902723)">
				<title>工作表.966</title>
				<rect x="0" y="678.323" width="0.353949" height="1.74532" class="st8"/>
			</g>
		</g>
		<g id="shape967-191" v:mID="967" v:groupContext="shape" transform="translate(501.429,-102.969)">
			<title>矩形.967</title>
			<desc>28 0</desc>
			<v:userDefs>
				<v:ud v:nameU="visVersion" v:val="VT0(15):26"/>
			</v:userDefs>
			<v:textBlock v:margins="rect(4,4,4,4)" v:tabSpace="42.5197"/>
			<v:textRect cx="16.624" cy="656.509" width="33.25" height="47.1178"/>
			<rect x="0" y="632.95" width="33.2481" height="47.1178" class="st1"/>
			<text x="6.66" y="651.11" class="st2" v:langID="2052"><v:paragraph v:horizAlign="1"/><v:tabList/>28<v:newlineChar/><tspan
						x="11.64" dy="1.2em" class="st3">0</tspan></text>		</g>
		<g id="group968-195" transform="translate(1174.64,710.205) rotate(110.334)" v:mID="968" v:groupContext="group">
			<v:userDefs>
				<v:ud v:nameU="visVersion" v:val="VT0(15):26"/>
			</v:userDefs>
			<title>一维单向箭头.968</title>
			<g id="shape969-196" v:mID="969" v:groupContext="shape">
				<title>工作表.969</title>
				<path d="M0 679.18 L58.28 679.18 L58.28 680.07 L59.16 678.29 L58.28 676.52 L58.28 677.4 L0 677.4 L0 679.18 Z"
						class="st5"/>
				<path d="M0 679.18 L58.28 679.18 L58.28 680.07 L59.16 678.29 L58.28 676.52 L58.28 677.4 L0 677.4" class="st6"/>
			</g>
			<g id="shape970-199" v:mID="970" v:groupContext="shape">
				<title>工作表.970</title>
				<path d="M0 679.18 L58.28 679.18 L58.28 680.07 L59.16 678.29 L58.28 676.52 L58.28 677.4 L0 677.4 L0 679.18"
						class="st7"/>
			</g>
			<g id="shape971-202" v:mID="971" v:groupContext="shape" transform="translate(-0.758605,-0.902723)">
				<title>工作表.971</title>
				<rect x="0" y="678.323" width="0.333944" height="1.74532" class="st8"/>
			</g>
		</g>
		<g id="shape972-204" v:mID="972" v:groupContext="shape" transform="translate(387.056,-102.969)">
			<title>矩形.972</title>
			<desc>42 0</desc>
			<v:userDefs>
				<v:ud v:nameU="visVersion" v:val="VT0(15):26"/>
			</v:userDefs>
			<v:textBlock v:margins="rect(4,4,4,4)" v:tabSpace="42.5197"/>
			<v:textRect cx="16.624" cy="656.509" width="33.25" height="47.1178"/>
			<rect x="0" y="632.95" width="33.2481" height="47.1178" class="st1"/>
			<text x="6.66" y="651.11" class="st2" v:langID="2052"><v:paragraph v:horizAlign="1"/><v:tabList/>42<v:newlineChar/><tspan
						x="11.64" dy="1.2em" class="st3">0</tspan></text>		</g>
		<g id="shape973-208" v:mID="973" v:groupContext="shape" transform="translate(452.864,-102.969)">
			<title>矩形.973</title>
			<desc>33 0</desc>
			<v:userDefs>
				<v:ud v:nameU="visVersion" v:val="VT0(15):26"/>
			</v:userDefs>
			<v:textBlock v:margins="rect(4,4,4,4)" v:tabSpace="42.5197"/>
			<v:textRect cx="16.624" cy="656.509" width="33.25" height="47.1178"/>
			<rect x="0" y="632.95" width="33.2481" height="47.1178" class="st1"/>
			<text x="6.66" y="651.11" class="st2" v:langID="2052"><v:paragraph v:horizAlign="1"/><v:tabList/>33<v:newlineChar/><tspan
						x="11.64" dy="1.2em" class="st3">0</tspan></text>		</g>
		<g id="shape974-212" v:mID="974" v:groupContext="shape" transform="translate(354.496,-0.375)">
			<title>矩形.974</title>
			<desc>50 0</desc>
			<v:userDefs>
				<v:ud v:nameU="visVersion" v:val="VT0(15):26"/>
			</v:userDefs>
			<v:textBlock v:margins="rect(4,4,4,4)" v:tabSpace="42.5197"/>
			<v:textRect cx="16.624" cy="656.509" width="33.25" height="47.1178"/>
			<rect x="0" y="632.95" width="33.2481" height="47.1178" class="st1"/>
			<text x="6.66" y="651.11" class="st2" v:langID="2052"><v:paragraph v:horizAlign="1"/><v:tabList/>50<v:newlineChar/><tspan
						x="11.64" dy="1.2em" class="st3">0</tspan></text>		</g>
		<g id="shape975-216" v:mID="975" v:groupContext="shape" transform="translate(548.315,-0.375)">
			<title>矩形.975</title>
			<desc>27 0</desc>
			<v:userDefs>
				<v:ud v:nameU="visVersion" v:val="VT0(15):26"/>
			</v:userDefs>
			<v:textBlock v:margins="rect(4,4,4,4)" v:tabSpace="42.5197"/>
			<v:textRect cx="16.624" cy="656.509" width="33.25" height="47.1178"/>
			<rect x="0" y="632.95" width="33.2481" height="47.1178" class="st1"/>
			<text x="6.66" y="651.11" class="st2" v:langID="2052"><v:paragraph v:horizAlign="1"/><v:tabList/>27<v:newlineChar/><tspan
						x="11.64" dy="1.2em" class="st3">0</tspan></text>		</g>
		<g id="shape976-220" v:mID="976" v:groupContext="shape" transform="translate(214.281,-311.8)">
			<title>矩形.976</title>
			<desc>21 0</desc>
			<v:userDefs>
				<v:ud v:nameU="visVersion" v:val="VT0(15):26"/>
			</v:userDefs>
			<v:textBlock v:margins="rect(4,4,4,4)" v:tabSpace="42.5197"/>
			<v:textRect cx="16.624" cy="656.509" width="33.25" height="47.1178"/>
			<rect x="0" y="632.95" width="33.2481" height="47.1178" class="st1"/>
			<text x="6.66" y="651.11" class="st2" v:langID="2052"><v:paragraph v:horizAlign="1"/><v:tabList/>21<v:newlineChar/><tspan
						x="11.64" dy="1.2em" class="st3">0</tspan></text>		</g>
		<g id="shape977-224" v:mID="977" v:groupContext="shape" transform="translate(290.474,-311.8)">
			<title>矩形.977</title>
			<desc>16 0</desc>
			<v:userDefs>
				<v:ud v:nameU="visVersion" v:val="VT0(15):26"/>
			</v:userDefs>
			<v:textBlock v:margins="rect(4,4,4,4)" v:tabSpace="42.5197"/>
			<v:textRect cx="16.624" cy="656.509" width="33.25" height="47.1178"/>
			<rect x="0" y="632.95" width="33.2481" height="47.1178" class="st1"/>
			<text x="6.66" y="651.11" class="st2" v:langID="2052"><v:paragraph v:horizAlign="1"/><v:tabList/>16<v:newlineChar/><tspan
						x="11.64" dy="1.2em" class="st3">0</tspan></text>		</g>
		<g id="shape978-228" v:mID="978" v:groupContext="shape" transform="translate(427.639,-205.564)">
			<title>矩形.978</title>
			<desc>31 1</desc>
			<v:userDefs>
				<v:ud v:nameU="visVersion" v:val="VT0(15):26"/>
			</v:userDefs>
			<v:textBlock v:margins="rect(4,4,4,4)" v:tabSpace="42.5197"/>
			<v:textRect cx="16.624" cy="656.509" width="33.25" height="47.1178"/>
			<rect x="0" y="632.95" width="33.2481" height="47.1178" class="st1"/>
			<text x="6.66" y="651.11" class="st2" v:langID="2052"><v:paragraph v:horizAlign="1"/><v:tabList/>31<v:newlineChar/><tspan
						x="11.64" dy="1.2em" class="st3">1</tspan></text>		</g>
		<g id="shape979-232" v:mID="979" v:groupContext="shape" transform="translate(571.038,-102.969)">
			<title>矩形.979</title>
			<desc>26 0</desc>
			<v:userDefs>
				<v:ud v:nameU="visVersion" v:val="VT0(15):26"/>
			</v:userDefs>
			<v:textBlock v:margins="rect(4,4,4,4)" v:tabSpace="42.5197"/>
			<v:textRect cx="16.624" cy="656.509" width="33.25" height="47.1178"/>
			<rect x="0" y="632.95" width="33.2481" height="47.1178" class="st10"/>
			<text x="6.66" y="651.11" class="st2" v:langID="2052"><v:paragraph v:horizAlign="1"/><v:tabList/>26<v:newlineChar/><tspan
						x="11.64" dy="1.2em" class="st3">0</tspan></text>		</g>
		<g id="group980-236" transform="translate(820.972,663.631) rotate(126.31)" v:mID="980" v:groupContext="group">
			<v:userDefs>
				<v:ud v:nameU="visVersion" v:val="VT0(15):26"/>
			</v:userDefs>
			<title>一维单向箭头.980</title>
			<g id="shape981-237" v:mID="981" v:groupContext="shape">
				<title>工作表.981</title>
				<path d="M0 679.18 L72.54 679.18 L72.54 680.07 L73.42 678.29 L72.54 676.52 L72.54 677.4 L0 677.4 L0 679.18 Z"
						class="st5"/>
				<path d="M0 679.18 L72.54 679.18 L72.54 680.07 L73.42 678.29 L72.54 676.52 L72.54 677.4 L0 677.4" class="st6"/>
			</g>
			<g id="shape982-240" v:mID="982" v:groupContext="shape">
				<title>工作表.982</title>
				<path d="M0 679.18 L72.54 679.18 L72.54 680.07 L73.42 678.29 L72.54 676.52 L72.54 677.4 L0 677.4 L0 679.18"
						class="st7"/>
			</g>
			<g id="shape983-243" v:mID="983" v:groupContext="shape" transform="translate(-0.941468,-0.902723)">
				<title>工作表.983</title>
				<rect x="0" y="678.323" width="0.414442" height="1.74532" class="st8"/>
			</g>
		</g>
		<g id="group984-245" transform="translate(867.985,-66.222) rotate(61.0616)" v:mID="984" v:groupContext="group">
			<v:userDefs>
				<v:ud v:nameU="visVersion" v:val="VT0(15):26"/>
			</v:userDefs>
			<title>一维单向箭头.984</title>
			<g id="shape985-246" v:mID="985" v:groupContext="shape">
				<title>工作表.985</title>
				<path d="M0 679.18 L66.72 679.18 L66.72 680.07 L67.61 678.29 L66.72 676.52 L66.72 677.4 L0 677.4 L0 679.18 Z"
						class="st5"/>
				<path d="M0 679.18 L66.72 679.18 L66.72 680.07 L67.61 678.29 L66.72 676.52 L66.72 677.4 L0 677.4" class="st6"/>
			</g>
			<g id="shape986-249" v:mID="986" v:groupContext="shape">
				<title>工作表.986</title>
				<path d="M0 679.18 L66.72 679.18 L66.72 680.07 L67.61 678.29 L66.72 676.52 L66.72 677.4 L0 677.4 L0 679.18"
						class="st7"/>
			</g>
			<g id="shape987-252" v:mID="987" v:groupContext="shape" transform="translate(-0.866903,-0.902723)">
				<title>工作表.987</title>
				<rect x="0" y="678.323" width="0.381618" height="1.74532" class="st8"/>
			</g>
		</g>
		<g id="group988-254" transform="translate(1052.48,735.779) rotate(122.807)" v:mID="988" v:groupContext="group">
			<v:userDefs>
				<v:ud v:nameU="visVersion" v:val="VT0(15):26"/>
			</v:userDefs>
			<title>一维单向箭头.988</title>
			<g id="shape989-255" v:mID="989" v:groupContext="shape">
				<title>工作表.989</title>
				<path d="M0 679.18 L69.45 679.18 L69.45 680.07 L70.34 678.29 L69.45 676.52 L69.45 677.4 L0 677.4 L0 679.18 Z"
						class="st5"/>
				<path d="M0 679.18 L69.45 679.18 L69.45 680.07 L70.34 678.29 L69.45 676.52 L69.45 677.4 L0 677.4" class="st6"/>
			</g>
			<g id="shape990-258" v:mID="990" v:groupContext="shape">
				<title>工作表.990</title>
				<path d="M0 679.18 L69.45 679.18 L69.45 680.07 L70.34 678.29 L69.45 676.52 L69.45 677.4 L0 677.4 L0 679.18"
						class="st7"/>
			</g>
			<g id="shape991-261" v:mID="991" v:groupContext="shape" transform="translate(-0.901886,-0.902723)">
				<title>工作表.991</title>
				<rect x="0" y="678.323" width="0.397018" height="1.74532" class="st8"/>
			</g>
		</g>
		<g id="group992-263" transform="translate(973.823,-99.2341) rotate(46.4305)" v:mID="992" v:groupContext="group">
			<v:userDefs>
				<v:ud v:nameU="visVersion" v:val="VT0(15):26"/>
			</v:userDefs>
			<title>一维单向箭头.992</title>
			<g id="shape993-264" v:mID="993" v:groupContext="shape">
				<title>工作表.993</title>
				<path d="M0 679.18 L80.71 679.18 L80.71 680.07 L81.59 678.29 L80.71 676.52 L80.71 677.4 L0 677.4 L0 679.18 Z"
						class="st9"/>
				<path d="M0 679.18 L80.71 679.18 L80.71 680.07 L81.59 678.29 L80.71 676.52 L80.71 677.4 L0 677.4" class="st6"/>
			</g>
			<g id="shape994-267" v:mID="994" v:groupContext="shape">
				<title>工作表.994</title>
				<path d="M0 679.18 L80.71 679.18 L80.71 680.07 L81.59 678.29 L80.71 676.52 L80.71 677.4 L0 677.4 L0 679.18"
						class="st7"/>
			</g>
			<g id="shape995-270" v:mID="995" v:groupContext="shape" transform="translate(-1.04623,-0.902723)">
				<title>工作表.995</title>
				<rect x="0" y="678.323" width="0.460557" height="1.74532" class="st8"/>
			</g>
		</g>
		<g id="group996-272" transform="translate(991.709,874.984) rotate(126.187)" v:mID="996" v:groupContext="group">
			<v:userDefs>
				<v:ud v:nameU="visVersion" v:val="VT0(15):26"/>
			</v:userDefs>
			<title>一维单向箭头.996</title>
			<g id="shape997-273" v:mID="997" v:groupContext="shape">
				<title>工作表.997</title>
				<path d="M0 679.18 L67.85 679.18 L67.85 680.07 L68.74 678.29 L67.85 676.52 L67.85 677.4 L0 677.4 L0 679.18 Z"
						class="st5"/>
				<path d="M0 679.18 L67.85 679.18 L67.85 680.07 L68.74 678.29 L67.85 676.52 L67.85 677.4 L0 677.4" class="st6"/>
			</g>
			<g id="shape998-276" v:mID="998" v:groupContext="shape">
				<title>工作表.998</title>
				<path d="M0 679.18 L67.85 679.18 L67.85 680.07 L68.74 678.29 L67.85 676.52 L67.85 677.4 L0 677.4 L0 679.18"
						class="st7"/>
			</g>
			<g id="shape999-279" v:mID="999" v:groupContext="shape" transform="translate(-0.88135,-0.902723)">
				<title>工作表.999</title>
				<rect x="0" y="678.323" width="0.387977" height="1.74532" class="st8"/>
			</g>
		</g>
		<g id="group1000-281" transform="translate(1061.73,193.755) rotate(65.5496)" v:mID="1000" v:groupContext="group">
			<v:userDefs>
				<v:ud v:nameU="visVersion" v:val="VT0(15):26"/>
			</v:userDefs>
			<title>一维单向箭头.1000</title>
			<g id="shape1001-282" v:mID="1001" v:groupContext="shape">
				<title>工作表.1001</title>
				<path d="M0 679.18 L60.05 679.18 L60.05 680.07 L60.94 678.29 L60.05 676.52 L60.05 677.4 L0 677.4 L0 679.18 Z"
						class="st5"/>
				<path d="M0 679.18 L60.05 679.18 L60.05 680.07 L60.94 678.29 L60.05 676.52 L60.05 677.4 L0 677.4" class="st6"/>
			</g>
			<g id="shape1002-285" v:mID="1002" v:groupContext="shape">
				<title>工作表.1002</title>
				<path d="M0 679.18 L60.05 679.18 L60.05 680.07 L60.94 678.29 L60.05 676.52 L60.05 677.4 L0 677.4 L0 679.18"
						class="st7"/>
			</g>
			<g id="shape1003-288" v:mID="1003" v:groupContext="shape" transform="translate(-0.781408,-0.902723)">
				<title>工作表.1003</title>
				<rect x="0" y="678.323" width="0.343982" height="1.74532" class="st8"/>
			</g>
		</g>
		<g id="group1004-290" transform="translate(1215.34,834.193) rotate(112.274)" v:mID="1004" v:groupContext="group">
			<v:userDefs>
				<v:ud v:nameU="visVersion" v:val="VT0(15):26"/>
			</v:userDefs>
			<title>一维单向箭头.1004</title>
			<g id="shape1005-291" v:mID="1005" v:groupContext="shape">
				<title>工作表.1005</title>
				<path d="M0 679.18 L59.06 679.18 L59.06 680.07 L59.95 678.29 L59.06 676.52 L59.06 677.4 L0 677.4 L0 679.18 Z"
						class="st5"/>
				<path d="M0 679.18 L59.06 679.18 L59.06 680.07 L59.95 678.29 L59.06 676.52 L59.06 677.4 L0 677.4" class="st6"/>
			</g>
			<g id="shape1006-294" v:mID="1006" v:groupContext="shape">
				<title>工作表.1006</title>
				<path d="M0 679.18 L59.06 679.18 L59.06 680.07 L59.95 678.29 L59.06 676.52 L59.06 677.4 L0 677.4 L0 679.18"
						class="st7"/>
			</g>
			<g id="shape1007-297" v:mID="1007" v:groupContext="shape" transform="translate(-0.768688,-0.902723)">
				<title>工作表.1007</title>
				<rect x="0" y="678.323" width="0.338382" height="1.74532" class="st8"/>
			</g>
		</g>
		<g id="group1008-299" transform="translate(988.663,920.429) rotate(120.409)" v:mID="1008" v:groupContext="group">
			<v:userDefs>
				<v:ud v:nameU="visVersion" v:val="VT0(15):26"/>
			</v:userDefs>
			<title>一维单向箭头.1008</title>
			<g id="shape1009-300" v:mID="1009" v:groupContext="shape">
				<title>工作表.1009</title>
				<path d="M0 679.18 L63.44 679.18 L63.44 680.07 L64.33 678.29 L63.44 676.52 L63.44 677.4 L0 677.4 L0 679.18 Z"
						class="st5"/>
				<path d="M0 679.18 L63.44 679.18 L63.44 680.07 L64.33 678.29 L63.44 676.52 L63.44 677.4 L0 677.4" class="st6"/>
			</g>
			<g id="shape1010-303" v:mID="1010" v:groupContext="shape">
				<title>工作表.1010</title>
				<path d="M0 679.18 L63.44 679.18 L63.44 680.07 L64.33 678.29 L63.44 676.52 L63.44 677.4 L0 677.4 L0 679.18"
						class="st7"/>
			</g>
			<g id="shape1011-306" v:mID="1011" v:groupContext="shape" transform="translate(-0.824795,-0.902723)">
				<title>工作表.1011</title>
				<rect x="0" y="678.323" width="0.363081" height="1.74532" class="st8"/>
			</g>
		</g>
		<g id="group1012-308" transform="translate(1046.77,25.2153) rotate(48.5182)" v:mID="1012" v:groupContext="group">
			<v:userDefs>
				<v:ud v:nameU="visVersion" v:val="VT0(15):26"/>
			</v:userDefs>
			<title>一维单向箭头.1012</title>
			<g id="shape1013-309" v:mID="1013" v:groupContext="shape">
				<title>工作表.1013</title>
				<path d="M0 679.18 L73.16 679.18 L73.16 680.07 L74.05 678.29 L73.16 676.52 L73.16 677.4 L0 677.4 L0 679.18 Z"
						class="st9"/>
				<path d="M0 679.18 L73.16 679.18 L73.16 680.07 L74.05 678.29 L73.16 676.52 L73.16 677.4 L0 677.4" class="st6"/>
			</g>
			<g id="shape1014-312" v:mID="1014" v:groupContext="shape">
				<title>工作表.1014</title>
				<path d="M0 679.18 L73.16 679.18 L73.16 680.07 L74.05 678.29 L73.16 676.52 L73.16 677.4 L0 677.4 L0 679.18"
						class="st7"/>
			</g>
			<g id="shape1015-315" v:mID="1015" v:groupContext="shape" transform="translate(-0.949498,-0.902723)">
				<title>工作表.1015</title>
				<rect x="0" y="678.323" width="0.417976" height="1.74532" class="st8"/>
			</g>
		</g>
		<g id="shape1016-317" v:mID="1016" v:groupContext="shape" transform="translate(620.221,-0.375)">
			<title>矩形.1016</title>
			<desc>nil -1</desc>
			<v:userDefs>
				<v:ud v:nameU="visVersion" v:val="VT0(15):26"/>
			</v:userDefs>
			<v:textBlock v:margins="rect(4,4,4,4)" v:tabSpace="42.5197"/>
			<v:textRect cx="16.624" cy="656.509" width="33.25" height="47.1178"/>
			<rect x="0" y="632.95" width="33.2481" height="47.1178" class="st10"/>
			<text x="6.66" y="651.11" class="st2" v:langID="2052"><v:paragraph v:horizAlign="1"/><v:tabList/>nil<v:newlineChar/><tspan
						x="8.65" dy="1.2em" class="st3">-</tspan>1</text>		</g>
		<g id="group1017-321" transform="translate(1095.21,127.125) rotate(48.4409)" v:mID="1017" v:groupContext="group">
			<v:userDefs>
				<v:ud v:nameU="visVersion" v:val="VT0(15):26"/>
			</v:userDefs>
			<title>一维单向箭头.1017</title>
			<g id="shape1018-322" v:mID="1018" v:groupContext="shape">
				<title>工作表.1018</title>
				<path d="M0 679.18 L73.25 679.18 L73.25 680.07 L74.14 678.29 L73.25 676.52 L73.25 677.4 L0 677.4 L0 679.18 Z"
						class="st11"/>
				<path d="M0 679.18 L73.25 679.18 L73.25 680.07 L74.14 678.29 L73.25 676.52 L73.25 677.4 L0 677.4" class="st6"/>
			</g>
			<g id="shape1019-325" v:mID="1019" v:groupContext="shape">
				<title>工作表.1019</title>
				<path d="M0 679.18 L73.25 679.18 L73.25 680.07 L74.14 678.29 L73.25 676.52 L73.25 677.4 L0 677.4 L0 679.18"
						class="st7"/>
			</g>
			<g id="shape1020-328" v:mID="1020" v:groupContext="shape" transform="translate(-0.950632,-0.902723)">
				<title>工作表.1020</title>
				<rect x="0" y="678.323" width="0.418476" height="1.74532" class="st8"/>
			</g>
		</g>
	</g>
</svg>
