<?xml version="1.0" encoding="UTF-8" standalone="no"?>
<!DOCTYPE svg PUBLIC "-//W3C//DTD SVG 1.1//EN" "http://www.w3.org/Graphics/SVG/1.1/DTD/svg11.dtd">
<!-- 由 Microsoft Visio, SVG Export 生成 LeftistTree10.svg 页-1 -->
<svg xmlns="http://www.w3.org/2000/svg" xmlns:xlink="http://www.w3.org/1999/xlink" xmlns:ev="http://www.w3.org/2001/xml-events"
		xmlns:v="http://schemas.microsoft.com/visio/2003/SVGExtensions/" width="9.08117in" height="9.44539in"
		viewBox="0 0 653.844 680.068" xml:space="preserve" color-interpolation-filters="sRGB" class="st12">
	<v:documentProperties v:langID="2052" v:metric="true" v:viewMarkup="false"/>

	<style type="text/css">
	<![CDATA[
		.st1 {fill:#ffffff;stroke:#000000;stroke-linecap:round;stroke-linejoin:round;stroke-width:0.75}
		.st2 {fill:#000000;font-family:Cambria Math;font-size:1.5em}
		.st3 {font-size:1em}
		.st4 {fill:#4bacc6;stroke:#000000;stroke-linecap:round;stroke-linejoin:round;stroke-width:0.75}
		.st5 {fill:#ffffff}
		.st6 {stroke:none;stroke-linecap:round;stroke-linejoin:round;stroke-width:0.75}
		.st7 {stroke:#000000;stroke-linecap:round;stroke-linejoin:round;stroke-width:0.24}
		.st8 {fill:#ffffff;stroke:none;stroke-linecap:round;stroke-linejoin:round;stroke-width:0.24;visibility:hidden}
		.st9 {fill:#4bacc6}
		.st10 {fill:#c05046;stroke:#000000;stroke-linecap:round;stroke-linejoin:round;stroke-width:0.75}
		.st11 {fill:#c05046}
		.st12 {fill:none;fill-rule:evenodd;font-size:12px;overflow:visible;stroke-linecap:square;stroke-miterlimit:3}
	]]>
	</style>

	<g v:mID="0" v:index="1" v:groupContext="foregroundPage">
		<title>页-1</title>
		<v:pageProperties v:drawingScale="0.0393701" v:pageScale="0.0393701" v:drawingUnits="24" v:shadowOffsetX="8.50394"
				v:shadowOffsetY="-8.50394"/>
		<g id="shape1273-1" v:mID="1273" v:groupContext="shape" transform="translate(180.485,-632.575)">
			<title>矩形.1273</title>
			<desc>6 2</desc>
			<v:userDefs>
				<v:ud v:nameU="visVersion" v:val="VT0(15):26"/>
			</v:userDefs>
			<v:textBlock v:margins="rect(4,4,4,4)" v:tabSpace="42.5197"/>
			<v:textRect cx="16.624" cy="656.509" width="33.25" height="47.1178"/>
			<rect x="0" y="632.95" width="33.2481" height="47.1178" class="st1"/>
			<text x="11.64" y="651.11" class="st2" v:langID="2052"><v:paragraph v:horizAlign="1"/><v:tabList/>6<v:newlineChar/><tspan
						x="11.64" dy="1.2em" class="st3">2</tspan></text>		</g>
		<g id="shape1274-5" v:mID="1274" v:groupContext="shape" transform="translate(324.986,-532.044)">
			<title>矩形.1274</title>
			<desc>7 2</desc>
			<v:userDefs>
				<v:ud v:nameU="visVersion" v:val="VT0(15):26"/>
			</v:userDefs>
			<v:textBlock v:margins="rect(4,4,4,4)" v:tabSpace="42.5197"/>
			<v:textRect cx="16.624" cy="656.509" width="33.25" height="47.1178"/>
			<rect x="0" y="632.95" width="33.2481" height="47.1178" class="st4"/>
			<text x="11.64" y="651.11" class="st2" v:langID="2052"><v:paragraph v:horizAlign="1"/><v:tabList/>7<v:newlineChar/><tspan
						x="11.64" dy="1.2em" class="st3">2</tspan></text>		</g>
		<g id="shape1275-9" v:mID="1275" v:groupContext="shape" transform="translate(85.856,-532.044)">
			<title>矩形.1275</title>
			<desc>11 2</desc>
			<v:userDefs>
				<v:ud v:nameU="visVersion" v:val="VT0(15):26"/>
			</v:userDefs>
			<v:textBlock v:margins="rect(4,4,4,4)" v:tabSpace="42.5197"/>
			<v:textRect cx="16.624" cy="656.509" width="33.25" height="47.1178"/>
			<rect x="0" y="632.95" width="33.2481" height="47.1178" class="st1"/>
			<text x="6.66" y="651.11" class="st2" v:langID="2052"><v:paragraph v:horizAlign="1"/><v:tabList/>11<v:newlineChar/><tspan
						x="11.64" dy="1.2em" class="st3">2</tspan></text>		</g>
		<g id="shape1276-13" v:mID="1276" v:groupContext="shape" transform="translate(388.293,-418.086)">
			<title>矩形.1276</title>
			<desc>8 1</desc>
			<v:userDefs>
				<v:ud v:nameU="visVersion" v:val="VT0(15):26"/>
			</v:userDefs>
			<v:textBlock v:margins="rect(4,4,4,4)" v:tabSpace="42.5197"/>
			<v:textRect cx="16.624" cy="656.509" width="33.25" height="47.1178"/>
			<rect x="0" y="632.95" width="33.2481" height="47.1178" class="st4"/>
			<text x="11.64" y="651.11" class="st2" v:langID="2052"><v:paragraph v:horizAlign="1"/><v:tabList/>8<v:newlineChar/><tspan
						x="11.64" dy="1.2em" class="st3">1</tspan></text>		</g>
		<g id="group1277-17" transform="translate(530.524,638.183) rotate(150.557)" v:mID="1277" v:groupContext="group">
			<v:userDefs>
				<v:ud v:nameU="visVersion" v:val="VT0(15):26"/>
			</v:userDefs>
			<title>一维单向箭头.1277</title>
			<g id="shape1278-18" v:mID="1278" v:groupContext="shape">
				<title>工作表.1278</title>
				<path d="M0 679.18 L107.78 679.18 L107.78 680.07 L108.66 678.29 L107.78 676.52 L107.78 677.4 L0 677.4 L0 679.18 Z"
						class="st5"/>
				<path d="M0 679.18 L107.78 679.18 L107.78 680.07 L108.66 678.29 L107.78 676.52 L107.78 677.4 L0 677.4" class="st6"/>
			</g>
			<g id="shape1279-21" v:mID="1279" v:groupContext="shape">
				<title>工作表.1279</title>
				<path d="M0 679.18 L107.78 679.18 L107.78 680.07 L108.66 678.29 L107.78 676.52 L107.78 677.4 L0 677.4 L0 679.18"
						class="st7"/>
			</g>
			<g id="shape1280-24" v:mID="1280" v:groupContext="shape" transform="translate(-1.3933,-0.902723)">
				<title>工作表.1280</title>
				<rect x="0" y="678.323" width="0.613342" height="1.74532" class="st8"/>
			</g>
		</g>
		<g id="group1281-26" transform="translate(432.281,-588.726) rotate(20.2863)" v:mID="1281" v:groupContext="group">
			<v:userDefs>
				<v:ud v:nameU="visVersion" v:val="VT0(15):26"/>
			</v:userDefs>
			<title>一维单向箭头.1281</title>
			<g id="shape1282-27" v:mID="1282" v:groupContext="shape">
				<title>工作表.1282</title>
				<path d="M0 679.18 L153.17 679.18 L153.17 680.07 L154.06 678.29 L153.17 676.52 L153.17 677.4 L0 677.4 L0 679.18 Z"
						class="st9"/>
				<path d="M0 679.18 L153.17 679.18 L153.17 680.07 L154.06 678.29 L153.17 676.52 L153.17 677.4 L0 677.4" class="st6"/>
			</g>
			<g id="shape1283-30" v:mID="1283" v:groupContext="shape">
				<title>工作表.1283</title>
				<path d="M0 679.18 L153.17 679.18 L153.17 680.07 L154.06 678.29 L153.17 676.52 L153.17 677.4 L0 677.4 L0 679.18"
						class="st7"/>
			</g>
			<g id="shape1284-33" v:mID="1284" v:groupContext="shape" transform="translate(-1.97535,-0.902723)">
				<title>工作表.1284</title>
				<rect x="0" y="678.323" width="0.869567" height="1.74532" class="st8"/>
			</g>
		</g>
		<g id="shape1285-35" v:mID="1285" v:groupContext="shape" transform="translate(257.759,-418.086)">
			<title>矩形.1285</title>
			<desc>9 1</desc>
			<v:userDefs>
				<v:ud v:nameU="visVersion" v:val="VT0(15):26"/>
			</v:userDefs>
			<v:textBlock v:margins="rect(4,4,4,4)" v:tabSpace="42.5197"/>
			<v:textRect cx="16.624" cy="656.509" width="33.25" height="47.1178"/>
			<rect x="0" y="632.95" width="33.2481" height="47.1178" class="st1"/>
			<text x="11.64" y="651.11" class="st2" v:langID="2052"><v:paragraph v:horizAlign="1"/><v:tabList/>9<v:newlineChar/><tspan
						x="11.64" dy="1.2em" class="st3">1</tspan></text>		</g>
		<g id="group1286-39" transform="translate(819.851,629.03) rotate(135.165)" v:mID="1286" v:groupContext="group">
			<v:userDefs>
				<v:ud v:nameU="visVersion" v:val="VT0(15):26"/>
			</v:userDefs>
			<title>一维单向箭头.1286</title>
			<g id="shape1287-40" v:mID="1287" v:groupContext="shape">
				<title>工作表.1287</title>
				<path d="M0 679.18 L93.91 679.18 L93.91 680.07 L94.8 678.29 L93.91 676.52 L93.91 677.4 L0 677.4 L0 679.18 Z"
						class="st5"/>
				<path d="M0 679.18 L93.91 679.18 L93.91 680.07 L94.8 678.29 L93.91 676.52 L93.91 677.4 L0 677.4" class="st6"/>
			</g>
			<g id="shape1288-43" v:mID="1288" v:groupContext="shape">
				<title>工作表.1288</title>
				<path d="M0 679.18 L93.91 679.18 L93.91 680.07 L94.8 678.29 L93.91 676.52 L93.91 677.4 L0 677.4 L0 679.18"
						class="st7"/>
			</g>
			<g id="shape1289-46" v:mID="1289" v:groupContext="shape" transform="translate(-1.21555,-0.902723)">
				<title>工作表.1289</title>
				<rect x="0" y="678.323" width="0.535095" height="1.74532" class="st8"/>
			</g>
		</g>
		<g id="shape1290-48" v:mID="1290" v:groupContext="shape" transform="translate(465.75,-311.8)">
			<title>矩形.1290</title>
			<desc>12 2</desc>
			<v:userDefs>
				<v:ud v:nameU="visVersion" v:val="VT0(15):26"/>
			</v:userDefs>
			<v:textBlock v:margins="rect(4,4,4,4)" v:tabSpace="42.5197"/>
			<v:textRect cx="16.624" cy="656.509" width="33.25" height="47.1178"/>
			<rect x="0" y="632.95" width="33.2481" height="47.1178" class="st10"/>
			<text x="6.66" y="651.11" class="st2" v:langID="2052"><v:paragraph v:horizAlign="1"/><v:tabList/>12<v:newlineChar/><tspan
						x="11.64" dy="1.2em" class="st3">2</tspan></text>		</g>
		<g id="group1291-52" transform="translate(834.078,-318.405) rotate(46.5555)" v:mID="1291" v:groupContext="group">
			<v:userDefs>
				<v:ud v:nameU="visVersion" v:val="VT0(15):26"/>
			</v:userDefs>
			<title>一维单向箭头.1291</title>
			<g id="shape1292-53" v:mID="1292" v:groupContext="shape">
				<title>工作表.1292</title>
				<path d="M0 679.18 L91.17 679.18 L91.17 680.07 L92.06 678.29 L91.17 676.52 L91.17 677.4 L0 677.4 L0 679.18 Z"
						class="st9"/>
				<path d="M0 679.18 L91.17 679.18 L91.17 680.07 L92.06 678.29 L91.17 676.52 L91.17 677.4 L0 677.4" class="st6"/>
			</g>
			<g id="shape1293-56" v:mID="1293" v:groupContext="shape">
				<title>工作表.1293</title>
				<path d="M0 679.18 L91.17 679.18 L91.17 680.07 L92.06 678.29 L91.17 676.52 L91.17 677.4 L0 677.4 L0 679.18"
						class="st7"/>
			</g>
			<g id="shape1294-59" v:mID="1294" v:groupContext="shape" transform="translate(-1.18043,-0.902723)">
				<title>工作表.1294</title>
				<rect x="0" y="678.323" width="0.519636" height="1.74532" class="st8"/>
			</g>
		</g>
		<g id="shape1295-61" v:mID="1295" v:groupContext="shape" transform="translate(39.7218,-418.086)">
			<title>矩形.1295</title>
			<desc>17 1</desc>
			<v:userDefs>
				<v:ud v:nameU="visVersion" v:val="VT0(15):26"/>
			</v:userDefs>
			<v:textBlock v:margins="rect(4,4,4,4)" v:tabSpace="42.5197"/>
			<v:textRect cx="16.624" cy="656.509" width="33.25" height="47.1178"/>
			<rect x="0" y="632.95" width="33.2481" height="47.1178" class="st1"/>
			<text x="6.66" y="651.11" class="st2" v:langID="2052"><v:paragraph v:horizAlign="1"/><v:tabList/>17<v:newlineChar/><tspan
						x="11.64" dy="1.2em" class="st3">1</tspan></text>		</g>
		<g id="shape1296-65" v:mID="1296" v:groupContext="shape" transform="translate(122.153,-418.086)">
			<title>矩形.1296</title>
			<desc>14 1</desc>
			<v:userDefs>
				<v:ud v:nameU="visVersion" v:val="VT0(15):26"/>
			</v:userDefs>
			<v:textBlock v:margins="rect(4,4,4,4)" v:tabSpace="42.5197"/>
			<v:textRect cx="16.624" cy="656.509" width="33.25" height="47.1178"/>
			<rect x="0" y="632.95" width="33.2481" height="47.1178" class="st1"/>
			<text x="6.66" y="651.11" class="st2" v:langID="2052"><v:paragraph v:horizAlign="1"/><v:tabList/>14<v:newlineChar/><tspan
						x="11.64" dy="1.2em" class="st3">1</tspan></text>		</g>
		<g id="group1297-69" transform="translate(660.713,533.324) rotate(124.614)" v:mID="1297" v:groupContext="group">
			<v:userDefs>
				<v:ud v:nameU="visVersion" v:val="VT0(15):26"/>
			</v:userDefs>
			<title>一维单向箭头.1297</title>
			<g id="shape1298-70" v:mID="1298" v:groupContext="shape">
				<title>工作表.1298</title>
				<path d="M0 679.18 L80.33 679.18 L80.33 680.07 L81.22 678.29 L80.33 676.52 L80.33 677.4 L0 677.4 L0 679.18 Z"
						class="st5"/>
				<path d="M0 679.18 L80.33 679.18 L80.33 680.07 L81.22 678.29 L80.33 676.52 L80.33 677.4 L0 677.4" class="st6"/>
			</g>
			<g id="shape1299-73" v:mID="1299" v:groupContext="shape">
				<title>工作表.1299</title>
				<path d="M0 679.18 L80.33 679.18 L80.33 680.07 L81.22 678.29 L80.33 676.52 L80.33 677.4 L0 677.4 L0 679.18"
						class="st7"/>
			</g>
			<g id="shape1300-76" v:mID="1300" v:groupContext="shape" transform="translate(-1.04137,-0.902723)">
				<title>工作表.1300</title>
				<rect x="0" y="678.323" width="0.458418" height="1.74532" class="st8"/>
			</g>
		</g>
		<g id="group1301-78" transform="translate(698.552,-175.671) rotate(61.496)" v:mID="1301" v:groupContext="group">
			<v:userDefs>
				<v:ud v:nameU="visVersion" v:val="VT0(15):26"/>
			</v:userDefs>
			<title>一维单向箭头.1301</title>
			<g id="shape1302-79" v:mID="1302" v:groupContext="shape">
				<title>工作表.1302</title>
				<path d="M0 679.18 L75.17 679.18 L75.17 680.07 L76.06 678.29 L75.17 676.52 L75.17 677.4 L0 677.4 L0 679.18 Z"
						class="st5"/>
				<path d="M0 679.18 L75.17 679.18 L75.17 680.07 L76.06 678.29 L75.17 676.52 L75.17 677.4 L0 677.4" class="st6"/>
			</g>
			<g id="shape1303-82" v:mID="1303" v:groupContext="shape">
				<title>工作表.1303</title>
				<path d="M0 679.18 L75.17 679.18 L75.17 680.07 L76.06 678.29 L75.17 676.52 L75.17 677.4 L0 677.4 L0 679.18"
						class="st7"/>
			</g>
			<g id="shape1304-85" v:mID="1304" v:groupContext="shape" transform="translate(-0.97526,-0.902723)">
				<title>工作表.1304</title>
				<rect x="0" y="678.323" width="0.429317" height="1.74532" class="st8"/>
			</g>
		</g>
		<g id="shape1305-87" v:mID="1305" v:groupContext="shape" transform="translate(0.375,-311.8)">
			<title>矩形.1305</title>
			<desc>18 0</desc>
			<v:userDefs>
				<v:ud v:nameU="visVersion" v:val="VT0(15):26"/>
			</v:userDefs>
			<v:textBlock v:margins="rect(4,4,4,4)" v:tabSpace="42.5197"/>
			<v:textRect cx="16.624" cy="656.509" width="33.25" height="47.1178"/>
			<rect x="0" y="632.95" width="33.2481" height="47.1178" class="st1"/>
			<text x="6.66" y="651.11" class="st2" v:langID="2052"><v:paragraph v:horizAlign="1"/><v:tabList/>18<v:newlineChar/><tspan
						x="11.64" dy="1.2em" class="st3">0</tspan></text>		</g>
		<g id="shape1306-91" v:mID="1306" v:groupContext="shape" transform="translate(48.0338,-311.8)">
			<title>矩形.1306</title>
			<desc>20 0</desc>
			<v:userDefs>
				<v:ud v:nameU="visVersion" v:val="VT0(15):26"/>
			</v:userDefs>
			<v:textBlock v:margins="rect(4,4,4,4)" v:tabSpace="42.5197"/>
			<v:textRect cx="16.624" cy="656.509" width="33.25" height="47.1178"/>
			<rect x="0" y="632.95" width="33.2481" height="47.1178" class="st1"/>
			<text x="6.66" y="651.11" class="st2" v:langID="2052"><v:paragraph v:horizAlign="1"/><v:tabList/>20<v:newlineChar/><tspan
						x="11.64" dy="1.2em" class="st3">0</tspan></text>		</g>
		<g id="group1307-95" transform="translate(621.152,637.581) rotate(123.624)" v:mID="1307" v:groupContext="group">
			<v:userDefs>
				<v:ud v:nameU="visVersion" v:val="VT0(15):26"/>
			</v:userDefs>
			<title>一维单向箭头.1307</title>
			<g id="shape1308-96" v:mID="1308" v:groupContext="shape">
				<title>工作表.1308</title>
				<path d="M0 679.18 L70.17 679.18 L70.17 680.07 L71.06 678.29 L70.17 676.52 L70.17 677.4 L0 677.4 L0 679.18 Z"
						class="st5"/>
				<path d="M0 679.18 L70.17 679.18 L70.17 680.07 L71.06 678.29 L70.17 676.52 L70.17 677.4 L0 677.4" class="st6"/>
			</g>
			<g id="shape1309-99" v:mID="1309" v:groupContext="shape">
				<title>工作表.1309</title>
				<path d="M0 679.18 L70.17 679.18 L70.17 680.07 L71.06 678.29 L70.17 676.52 L70.17 677.4 L0 677.4 L0 679.18"
						class="st7"/>
			</g>
			<g id="shape1310-102" v:mID="1310" v:groupContext="shape" transform="translate(-0.9111,-0.902723)">
				<title>工作表.1310</title>
				<rect x="0" y="678.323" width="0.401073" height="1.74532" class="st8"/>
			</g>
		</g>
		<g id="group1311-104" transform="translate(728.043,167.621) rotate(82.0033)" v:mID="1311" v:groupContext="group">
			<v:userDefs>
				<v:ud v:nameU="visVersion" v:val="VT0(15):26"/>
			</v:userDefs>
			<title>一维单向箭头.1311</title>
			<g id="shape1312-105" v:mID="1312" v:groupContext="shape">
				<title>工作表.1312</title>
				<path d="M0 679.18 L58.86 679.18 L58.86 680.07 L59.75 678.29 L58.86 676.52 L58.86 677.4 L0 677.4 L0 679.18 Z"
						class="st5"/>
				<path d="M0 679.18 L58.86 679.18 L58.86 680.07 L59.75 678.29 L58.86 676.52 L58.86 677.4 L0 677.4" class="st6"/>
			</g>
			<g id="shape1313-108" v:mID="1313" v:groupContext="shape">
				<title>工作表.1313</title>
				<path d="M0 679.18 L58.86 679.18 L58.86 680.07 L59.75 678.29 L58.86 676.52 L58.86 677.4 L0 677.4 L0 679.18"
						class="st7"/>
			</g>
			<g id="shape1314-111" v:mID="1314" v:groupContext="shape" transform="translate(-0.766112,-0.902723)">
				<title>工作表.1314</title>
				<rect x="0" y="678.323" width="0.337249" height="1.74532" class="st8"/>
			</g>
		</g>
		<g id="shape1315-113" v:mID="1315" v:groupContext="shape" transform="translate(95.6927,-311.8)">
			<title>矩形.1315</title>
			<desc>19 0</desc>
			<v:userDefs>
				<v:ud v:nameU="visVersion" v:val="VT0(15):26"/>
			</v:userDefs>
			<v:textBlock v:margins="rect(4,4,4,4)" v:tabSpace="42.5197"/>
			<v:textRect cx="16.624" cy="656.509" width="33.25" height="47.1178"/>
			<rect x="0" y="632.95" width="33.2481" height="47.1178" class="st1"/>
			<text x="6.66" y="651.11" class="st2" v:langID="2052"><v:paragraph v:horizAlign="1"/><v:tabList/>19<v:newlineChar/><tspan
						x="11.64" dy="1.2em" class="st3">0</tspan></text>		</g>
		<g id="shape1316-117" v:mID="1316" v:groupContext="shape" transform="translate(138.089,-311.8)">
			<title>矩形.1316</title>
			<desc>24 0</desc>
			<v:userDefs>
				<v:ud v:nameU="visVersion" v:val="VT0(15):26"/>
			</v:userDefs>
			<v:textBlock v:margins="rect(4,4,4,4)" v:tabSpace="42.5197"/>
			<v:textRect cx="16.624" cy="656.509" width="33.25" height="47.1178"/>
			<rect x="0" y="632.95" width="33.2481" height="47.1178" class="st1"/>
			<text x="6.66" y="651.11" class="st2" v:langID="2052"><v:paragraph v:horizAlign="1"/><v:tabList/>24<v:newlineChar/><tspan
						x="11.64" dy="1.2em" class="st3">0</tspan></text>		</g>
		<g id="group1317-121" transform="translate(757.971,538.895) rotate(114.095)" v:mID="1317" v:groupContext="group">
			<v:userDefs>
				<v:ud v:nameU="visVersion" v:val="VT0(15):26"/>
			</v:userDefs>
			<title>一维单向箭头.1317</title>
			<g id="shape1318-122" v:mID="1318" v:groupContext="shape">
				<title>工作表.1318</title>
				<path d="M0 679.18 L63.93 679.18 L63.93 680.07 L64.82 678.29 L63.93 676.52 L63.93 677.4 L0 677.4 L0 679.18 Z"
						class="st5"/>
				<path d="M0 679.18 L63.93 679.18 L63.93 680.07 L64.82 678.29 L63.93 676.52 L63.93 677.4 L0 677.4" class="st6"/>
			</g>
			<g id="shape1319-125" v:mID="1319" v:groupContext="shape">
				<title>工作表.1319</title>
				<path d="M0 679.18 L63.93 679.18 L63.93 680.07 L64.82 678.29 L63.93 676.52 L63.93 677.4 L0 677.4 L0 679.18"
						class="st7"/>
			</g>
			<g id="shape1320-128" v:mID="1320" v:groupContext="shape" transform="translate(-0.831074,-0.902723)">
				<title>工作表.1320</title>
				<rect x="0" y="678.323" width="0.365845" height="1.74532" class="st8"/>
			</g>
		</g>
		<g id="group1321-130" transform="translate(793.732,85.5856) rotate(74.9264)" v:mID="1321" v:groupContext="group">
			<v:userDefs>
				<v:ud v:nameU="visVersion" v:val="VT0(15):26"/>
			</v:userDefs>
			<title>一维单向箭头.1321</title>
			<g id="shape1322-131" v:mID="1322" v:groupContext="shape">
				<title>工作表.1322</title>
				<path d="M0 679.18 L60.39 679.18 L60.39 680.07 L61.28 678.29 L60.39 676.52 L60.39 677.4 L0 677.4 L0 679.18 Z"
						class="st5"/>
				<path d="M0 679.18 L60.39 679.18 L60.39 680.07 L61.28 678.29 L60.39 676.52 L60.39 677.4 L0 677.4" class="st6"/>
			</g>
			<g id="shape1323-134" v:mID="1323" v:groupContext="shape">
				<title>工作表.1323</title>
				<path d="M0 679.18 L60.39 679.18 L60.39 680.07 L61.28 678.29 L60.39 676.52 L60.39 677.4 L0 677.4 L0 679.18"
						class="st7"/>
			</g>
			<g id="shape1324-137" v:mID="1324" v:groupContext="shape" transform="translate(-0.785696,-0.902723)">
				<title>工作表.1324</title>
				<rect x="0" y="678.323" width="0.34587" height="1.74532" class="st8"/>
			</g>
		</g>
		<g id="shape1325-139" v:mID="1325" v:groupContext="shape" transform="translate(347.709,-311.8)">
			<title>矩形.1325</title>
			<desc>10 1</desc>
			<v:userDefs>
				<v:ud v:nameU="visVersion" v:val="VT0(15):26"/>
			</v:userDefs>
			<v:textBlock v:margins="rect(4,4,4,4)" v:tabSpace="42.5197"/>
			<v:textRect cx="16.624" cy="656.509" width="33.25" height="47.1178"/>
			<rect x="0" y="632.95" width="33.2481" height="47.1178" class="st1"/>
			<text x="6.66" y="651.11" class="st2" v:langID="2052"><v:paragraph v:horizAlign="1"/><v:tabList/>10<v:newlineChar/><tspan
						x="11.64" dy="1.2em" class="st3">1</tspan></text>		</g>
		<g id="shape1326-143" v:mID="1326" v:groupContext="shape" transform="translate(521.987,-205.564)">
			<title>矩形.1326</title>
			<desc>13 1</desc>
			<v:userDefs>
				<v:ud v:nameU="visVersion" v:val="VT0(15):26"/>
			</v:userDefs>
			<v:textBlock v:margins="rect(4,4,4,4)" v:tabSpace="42.5197"/>
			<v:textRect cx="16.624" cy="656.509" width="33.25" height="47.1178"/>
			<rect x="0" y="632.95" width="33.2481" height="47.1178" class="st10"/>
			<text x="6.66" y="651.11" class="st2" v:langID="2052"><v:paragraph v:horizAlign="1"/><v:tabList/>13<v:newlineChar/><tspan
						x="11.64" dy="1.2em" class="st3">1</tspan></text>		</g>
		<g id="group1327-147" transform="translate(964.274,645.648) rotate(124.446)" v:mID="1327" v:groupContext="group">
			<v:userDefs>
				<v:ud v:nameU="visVersion" v:val="VT0(15):26"/>
			</v:userDefs>
			<title>一维单向箭头.1327</title>
			<g id="shape1328-148" v:mID="1328" v:groupContext="shape">
				<title>工作表.1328</title>
				<path d="M0 679.18 L70.86 679.18 L70.86 680.07 L71.75 678.29 L70.86 676.52 L70.86 677.4 L0 677.4 L0 679.18 Z"
						class="st5"/>
				<path d="M0 679.18 L70.86 679.18 L70.86 680.07 L71.75 678.29 L70.86 676.52 L70.86 677.4 L0 677.4" class="st6"/>
			</g>
			<g id="shape1329-151" v:mID="1329" v:groupContext="shape">
				<title>工作表.1329</title>
				<path d="M0 679.18 L70.86 679.18 L70.86 680.07 L71.75 678.29 L70.86 676.52 L70.86 677.4 L0 677.4 L0 679.18"
						class="st7"/>
			</g>
			<g id="shape1330-154" v:mID="1330" v:groupContext="shape" transform="translate(-0.919975,-0.902723)">
				<title>工作表.1330</title>
				<rect x="0" y="678.323" width="0.40498" height="1.74532" class="st8"/>
			</g>
		</g>
		<g id="group1331-156" transform="translate(884.542,-217.643) rotate(45)" v:mID="1331" v:groupContext="group">
			<v:userDefs>
				<v:ud v:nameU="visVersion" v:val="VT0(15):26"/>
			</v:userDefs>
			<title>一维单向箭头.1331</title>
			<g id="shape1332-157" v:mID="1332" v:groupContext="shape">
				<title>工作表.1332</title>
				<path d="M0 679.18 L85.96 679.18 L85.96 680.07 L86.84 678.29 L85.96 676.52 L85.96 677.4 L0 677.4 L0 679.18 Z"
						class="st9"/>
				<path d="M0 679.18 L85.96 679.18 L85.96 680.07 L86.84 678.29 L85.96 676.52 L85.96 677.4 L0 677.4" class="st6"/>
			</g>
			<g id="shape1333-160" v:mID="1333" v:groupContext="shape">
				<title>工作表.1333</title>
				<path d="M0 679.18 L85.96 679.18 L85.96 680.07 L86.84 678.29 L85.96 676.52 L85.96 677.4 L0 677.4 L0 679.18"
						class="st7"/>
			</g>
			<g id="shape1334-163" v:mID="1334" v:groupContext="shape" transform="translate(-1.11353,-0.902723)">
				<title>工作表.1334</title>
				<rect x="0" y="678.323" width="0.490185" height="1.74532" class="st8"/>
			</g>
		</g>
		<g id="shape1335-165" v:mID="1335" v:groupContext="shape" transform="translate(309.599,-205.564)">
			<title>矩形.1335</title>
			<desc>15 0</desc>
			<v:userDefs>
				<v:ud v:nameU="visVersion" v:val="VT0(15):26"/>
			</v:userDefs>
			<v:textBlock v:margins="rect(4,4,4,4)" v:tabSpace="42.5197"/>
			<v:textRect cx="16.624" cy="656.509" width="33.25" height="47.1178"/>
			<rect x="0" y="632.95" width="33.2481" height="47.1178" class="st1"/>
			<text x="6.66" y="651.11" class="st2" v:langID="2052"><v:paragraph v:horizAlign="1"/><v:tabList/>15<v:newlineChar/><tspan
						x="11.64" dy="1.2em" class="st3">0</tspan></text>		</g>
		<g id="shape1336-169" v:mID="1336" v:groupContext="shape" transform="translate(368.619,-205.564)">
			<title>矩形.1336</title>
			<desc>30 0</desc>
			<v:userDefs>
				<v:ud v:nameU="visVersion" v:val="VT0(15):26"/>
			</v:userDefs>
			<v:textBlock v:margins="rect(4,4,4,4)" v:tabSpace="42.5197"/>
			<v:textRect cx="16.624" cy="656.509" width="33.25" height="47.1178"/>
			<rect x="0" y="632.95" width="33.2481" height="47.1178" class="st1"/>
			<text x="6.66" y="651.11" class="st2" v:langID="2052"><v:paragraph v:horizAlign="1"/><v:tabList/>30<v:newlineChar/><tspan
						x="11.64" dy="1.2em" class="st3">0</tspan></text>		</g>
		<g id="group1337-173" transform="translate(934.435,735.779) rotate(122.807)" v:mID="1337" v:groupContext="group">
			<v:userDefs>
				<v:ud v:nameU="visVersion" v:val="VT0(15):26"/>
			</v:userDefs>
			<title>一维单向箭头.1337</title>
			<g id="shape1338-174" v:mID="1338" v:groupContext="shape">
				<title>工作表.1338</title>
				<path d="M0 679.18 L69.45 679.18 L69.45 680.07 L70.34 678.29 L69.45 676.52 L69.45 677.4 L0 677.4 L0 679.18 Z"
						class="st5"/>
				<path d="M0 679.18 L69.45 679.18 L69.45 680.07 L70.34 678.29 L69.45 676.52 L69.45 677.4 L0 677.4" class="st6"/>
			</g>
			<g id="shape1339-177" v:mID="1339" v:groupContext="shape">
				<title>工作表.1339</title>
				<path d="M0 679.18 L69.45 679.18 L69.45 680.07 L70.34 678.29 L69.45 676.52 L69.45 677.4 L0 677.4 L0 679.18"
						class="st7"/>
			</g>
			<g id="shape1340-180" v:mID="1340" v:groupContext="shape" transform="translate(-0.901886,-0.902723)">
				<title>工作表.1340</title>
				<rect x="0" y="678.323" width="0.397018" height="1.74532" class="st8"/>
			</g>
		</g>
		<g id="group1341-182" transform="translate(1003.8,142.089) rotate(70.5215)" v:mID="1341" v:groupContext="group">
			<v:userDefs>
				<v:ud v:nameU="visVersion" v:val="VT0(15):26"/>
			</v:userDefs>
			<title>一维单向箭头.1341</title>
			<g id="shape1342-183" v:mID="1342" v:groupContext="shape">
				<title>工作表.1342</title>
				<path d="M0 679.18 L61.82 679.18 L61.82 680.07 L62.71 678.29 L61.82 676.52 L61.82 677.4 L0 677.4 L0 679.18 Z"
						class="st5"/>
				<path d="M0 679.18 L61.82 679.18 L61.82 680.07 L62.71 678.29 L61.82 676.52 L61.82 677.4 L0 677.4" class="st6"/>
			</g>
			<g id="shape1343-186" v:mID="1343" v:groupContext="shape">
				<title>工作表.1343</title>
				<path d="M0 679.18 L61.82 679.18 L61.82 680.07 L62.71 678.29 L61.82 676.52 L61.82 677.4 L0 677.4 L0 679.18"
						class="st7"/>
			</g>
			<g id="shape1344-189" v:mID="1344" v:groupContext="shape" transform="translate(-0.80405,-0.902723)">
				<title>工作表.1344</title>
				<rect x="0" y="678.323" width="0.353949" height="1.74532" class="st8"/>
			</g>
		</g>
		<g id="shape1345-191" v:mID="1345" v:groupContext="shape" transform="translate(501.429,-102.969)">
			<title>矩形.1345</title>
			<desc>28 0</desc>
			<v:userDefs>
				<v:ud v:nameU="visVersion" v:val="VT0(15):26"/>
			</v:userDefs>
			<v:textBlock v:margins="rect(4,4,4,4)" v:tabSpace="42.5197"/>
			<v:textRect cx="16.624" cy="656.509" width="33.25" height="47.1178"/>
			<rect x="0" y="632.95" width="33.2481" height="47.1178" class="st1"/>
			<text x="6.66" y="651.11" class="st2" v:langID="2052"><v:paragraph v:horizAlign="1"/><v:tabList/>28<v:newlineChar/><tspan
						x="11.64" dy="1.2em" class="st3">0</tspan></text>		</g>
		<g id="group1346-195" transform="translate(1174.64,710.205) rotate(110.334)" v:mID="1346" v:groupContext="group">
			<v:userDefs>
				<v:ud v:nameU="visVersion" v:val="VT0(15):26"/>
			</v:userDefs>
			<title>一维单向箭头.1346</title>
			<g id="shape1347-196" v:mID="1347" v:groupContext="shape">
				<title>工作表.1347</title>
				<path d="M0 679.18 L58.28 679.18 L58.28 680.07 L59.16 678.29 L58.28 676.52 L58.28 677.4 L0 677.4 L0 679.18 Z"
						class="st5"/>
				<path d="M0 679.18 L58.28 679.18 L58.28 680.07 L59.16 678.29 L58.28 676.52 L58.28 677.4 L0 677.4" class="st6"/>
			</g>
			<g id="shape1348-199" v:mID="1348" v:groupContext="shape">
				<title>工作表.1348</title>
				<path d="M0 679.18 L58.28 679.18 L58.28 680.07 L59.16 678.29 L58.28 676.52 L58.28 677.4 L0 677.4 L0 679.18"
						class="st7"/>
			</g>
			<g id="shape1349-202" v:mID="1349" v:groupContext="shape" transform="translate(-0.758605,-0.902723)">
				<title>工作表.1349</title>
				<rect x="0" y="678.323" width="0.333944" height="1.74532" class="st8"/>
			</g>
		</g>
		<g id="shape1350-204" v:mID="1350" v:groupContext="shape" transform="translate(387.056,-102.969)">
			<title>矩形.1350</title>
			<desc>42 0</desc>
			<v:userDefs>
				<v:ud v:nameU="visVersion" v:val="VT0(15):26"/>
			</v:userDefs>
			<v:textBlock v:margins="rect(4,4,4,4)" v:tabSpace="42.5197"/>
			<v:textRect cx="16.624" cy="656.509" width="33.25" height="47.1178"/>
			<rect x="0" y="632.95" width="33.2481" height="47.1178" class="st1"/>
			<text x="6.66" y="651.11" class="st2" v:langID="2052"><v:paragraph v:horizAlign="1"/><v:tabList/>42<v:newlineChar/><tspan
						x="11.64" dy="1.2em" class="st3">0</tspan></text>		</g>
		<g id="shape1351-208" v:mID="1351" v:groupContext="shape" transform="translate(452.864,-102.969)">
			<title>矩形.1351</title>
			<desc>33 0</desc>
			<v:userDefs>
				<v:ud v:nameU="visVersion" v:val="VT0(15):26"/>
			</v:userDefs>
			<v:textBlock v:margins="rect(4,4,4,4)" v:tabSpace="42.5197"/>
			<v:textRect cx="16.624" cy="656.509" width="33.25" height="47.1178"/>
			<rect x="0" y="632.95" width="33.2481" height="47.1178" class="st1"/>
			<text x="6.66" y="651.11" class="st2" v:langID="2052"><v:paragraph v:horizAlign="1"/><v:tabList/>33<v:newlineChar/><tspan
						x="11.64" dy="1.2em" class="st3">0</tspan></text>		</g>
		<g id="shape1352-212" v:mID="1352" v:groupContext="shape" transform="translate(354.496,-0.375)">
			<title>矩形.1352</title>
			<desc>50 0</desc>
			<v:userDefs>
				<v:ud v:nameU="visVersion" v:val="VT0(15):26"/>
			</v:userDefs>
			<v:textBlock v:margins="rect(4,4,4,4)" v:tabSpace="42.5197"/>
			<v:textRect cx="16.624" cy="656.509" width="33.25" height="47.1178"/>
			<rect x="0" y="632.95" width="33.2481" height="47.1178" class="st1"/>
			<text x="6.66" y="651.11" class="st2" v:langID="2052"><v:paragraph v:horizAlign="1"/><v:tabList/>50<v:newlineChar/><tspan
						x="11.64" dy="1.2em" class="st3">0</tspan></text>		</g>
		<g id="shape1353-216" v:mID="1353" v:groupContext="shape" transform="translate(548.315,-0.375)">
			<title>矩形.1353</title>
			<desc>27 0</desc>
			<v:userDefs>
				<v:ud v:nameU="visVersion" v:val="VT0(15):26"/>
			</v:userDefs>
			<v:textBlock v:margins="rect(4,4,4,4)" v:tabSpace="42.5197"/>
			<v:textRect cx="16.624" cy="656.509" width="33.25" height="47.1178"/>
			<rect x="0" y="632.95" width="33.2481" height="47.1178" class="st1"/>
			<text x="6.66" y="651.11" class="st2" v:langID="2052"><v:paragraph v:horizAlign="1"/><v:tabList/>27<v:newlineChar/><tspan
						x="11.64" dy="1.2em" class="st3">0</tspan></text>		</g>
		<g id="shape1354-220" v:mID="1354" v:groupContext="shape" transform="translate(214.281,-311.8)">
			<title>矩形.1354</title>
			<desc>21 0</desc>
			<v:userDefs>
				<v:ud v:nameU="visVersion" v:val="VT0(15):26"/>
			</v:userDefs>
			<v:textBlock v:margins="rect(4,4,4,4)" v:tabSpace="42.5197"/>
			<v:textRect cx="16.624" cy="656.509" width="33.25" height="47.1178"/>
			<rect x="0" y="632.95" width="33.2481" height="47.1178" class="st1"/>
			<text x="6.66" y="651.11" class="st2" v:langID="2052"><v:paragraph v:horizAlign="1"/><v:tabList/>21<v:newlineChar/><tspan
						x="11.64" dy="1.2em" class="st3">0</tspan></text>		</g>
		<g id="shape1355-224" v:mID="1355" v:groupContext="shape" transform="translate(290.474,-311.8)">
			<title>矩形.1355</title>
			<desc>16 0</desc>
			<v:userDefs>
				<v:ud v:nameU="visVersion" v:val="VT0(15):26"/>
			</v:userDefs>
			<v:textBlock v:margins="rect(4,4,4,4)" v:tabSpace="42.5197"/>
			<v:textRect cx="16.624" cy="656.509" width="33.25" height="47.1178"/>
			<rect x="0" y="632.95" width="33.2481" height="47.1178" class="st1"/>
			<text x="6.66" y="651.11" class="st2" v:langID="2052"><v:paragraph v:horizAlign="1"/><v:tabList/>16<v:newlineChar/><tspan
						x="11.64" dy="1.2em" class="st3">0</tspan></text>		</g>
		<g id="shape1356-228" v:mID="1356" v:groupContext="shape" transform="translate(427.639,-205.564)">
			<title>矩形.1356</title>
			<desc>31 1</desc>
			<v:userDefs>
				<v:ud v:nameU="visVersion" v:val="VT0(15):26"/>
			</v:userDefs>
			<v:textBlock v:margins="rect(4,4,4,4)" v:tabSpace="42.5197"/>
			<v:textRect cx="16.624" cy="656.509" width="33.25" height="47.1178"/>
			<rect x="0" y="632.95" width="33.2481" height="47.1178" class="st1"/>
			<text x="6.66" y="651.11" class="st2" v:langID="2052"><v:paragraph v:horizAlign="1"/><v:tabList/>31<v:newlineChar/><tspan
						x="11.64" dy="1.2em" class="st3">1</tspan></text>		</g>
		<g id="shape1357-232" v:mID="1357" v:groupContext="shape" transform="translate(571.038,-102.969)">
			<title>矩形.1357</title>
			<desc>26 0</desc>
			<v:userDefs>
				<v:ud v:nameU="visVersion" v:val="VT0(15):26"/>
			</v:userDefs>
			<v:textBlock v:margins="rect(4,4,4,4)" v:tabSpace="42.5197"/>
			<v:textRect cx="16.624" cy="656.509" width="33.25" height="47.1178"/>
			<rect x="0" y="632.95" width="33.2481" height="47.1178" class="st10"/>
			<text x="6.66" y="651.11" class="st2" v:langID="2052"><v:paragraph v:horizAlign="1"/><v:tabList/>26<v:newlineChar/><tspan
						x="11.64" dy="1.2em" class="st3">0</tspan></text>		</g>
		<g id="group1358-236" transform="translate(820.972,663.631) rotate(126.31)" v:mID="1358" v:groupContext="group">
			<v:userDefs>
				<v:ud v:nameU="visVersion" v:val="VT0(15):26"/>
			</v:userDefs>
			<title>一维单向箭头.1358</title>
			<g id="shape1359-237" v:mID="1359" v:groupContext="shape">
				<title>工作表.1359</title>
				<path d="M0 679.18 L72.54 679.18 L72.54 680.07 L73.42 678.29 L72.54 676.52 L72.54 677.4 L0 677.4 L0 679.18 Z"
						class="st5"/>
				<path d="M0 679.18 L72.54 679.18 L72.54 680.07 L73.42 678.29 L72.54 676.52 L72.54 677.4 L0 677.4" class="st6"/>
			</g>
			<g id="shape1360-240" v:mID="1360" v:groupContext="shape">
				<title>工作表.1360</title>
				<path d="M0 679.18 L72.54 679.18 L72.54 680.07 L73.42 678.29 L72.54 676.52 L72.54 677.4 L0 677.4 L0 679.18"
						class="st7"/>
			</g>
			<g id="shape1361-243" v:mID="1361" v:groupContext="shape" transform="translate(-0.941468,-0.902723)">
				<title>工作表.1361</title>
				<rect x="0" y="678.323" width="0.414442" height="1.74532" class="st8"/>
			</g>
		</g>
		<g id="group1362-245" transform="translate(867.985,-66.222) rotate(61.0616)" v:mID="1362" v:groupContext="group">
			<v:userDefs>
				<v:ud v:nameU="visVersion" v:val="VT0(15):26"/>
			</v:userDefs>
			<title>一维单向箭头.1362</title>
			<g id="shape1363-246" v:mID="1363" v:groupContext="shape">
				<title>工作表.1363</title>
				<path d="M0 679.18 L66.72 679.18 L66.72 680.07 L67.61 678.29 L66.72 676.52 L66.72 677.4 L0 677.4 L0 679.18 Z"
						class="st5"/>
				<path d="M0 679.18 L66.72 679.18 L66.72 680.07 L67.61 678.29 L66.72 676.52 L66.72 677.4 L0 677.4" class="st6"/>
			</g>
			<g id="shape1364-249" v:mID="1364" v:groupContext="shape">
				<title>工作表.1364</title>
				<path d="M0 679.18 L66.72 679.18 L66.72 680.07 L67.61 678.29 L66.72 676.52 L66.72 677.4 L0 677.4 L0 679.18"
						class="st7"/>
			</g>
			<g id="shape1365-252" v:mID="1365" v:groupContext="shape" transform="translate(-0.866903,-0.902723)">
				<title>工作表.1365</title>
				<rect x="0" y="678.323" width="0.381618" height="1.74532" class="st8"/>
			</g>
		</g>
		<g id="group1366-254" transform="translate(1052.48,735.779) rotate(122.807)" v:mID="1366" v:groupContext="group">
			<v:userDefs>
				<v:ud v:nameU="visVersion" v:val="VT0(15):26"/>
			</v:userDefs>
			<title>一维单向箭头.1366</title>
			<g id="shape1367-255" v:mID="1367" v:groupContext="shape">
				<title>工作表.1367</title>
				<path d="M0 679.18 L69.45 679.18 L69.45 680.07 L70.34 678.29 L69.45 676.52 L69.45 677.4 L0 677.4 L0 679.18 Z"
						class="st5"/>
				<path d="M0 679.18 L69.45 679.18 L69.45 680.07 L70.34 678.29 L69.45 676.52 L69.45 677.4 L0 677.4" class="st6"/>
			</g>
			<g id="shape1368-258" v:mID="1368" v:groupContext="shape">
				<title>工作表.1368</title>
				<path d="M0 679.18 L69.45 679.18 L69.45 680.07 L70.34 678.29 L69.45 676.52 L69.45 677.4 L0 677.4 L0 679.18"
						class="st7"/>
			</g>
			<g id="shape1369-261" v:mID="1369" v:groupContext="shape" transform="translate(-0.901886,-0.902723)">
				<title>工作表.1369</title>
				<rect x="0" y="678.323" width="0.397018" height="1.74532" class="st8"/>
			</g>
		</g>
		<g id="group1370-263" transform="translate(973.823,-99.2341) rotate(46.4305)" v:mID="1370" v:groupContext="group">
			<v:userDefs>
				<v:ud v:nameU="visVersion" v:val="VT0(15):26"/>
			</v:userDefs>
			<title>一维单向箭头.1370</title>
			<g id="shape1371-264" v:mID="1371" v:groupContext="shape">
				<title>工作表.1371</title>
				<path d="M0 679.18 L80.71 679.18 L80.71 680.07 L81.59 678.29 L80.71 676.52 L80.71 677.4 L0 677.4 L0 679.18 Z"
						class="st11"/>
				<path d="M0 679.18 L80.71 679.18 L80.71 680.07 L81.59 678.29 L80.71 676.52 L80.71 677.4 L0 677.4" class="st6"/>
			</g>
			<g id="shape1372-267" v:mID="1372" v:groupContext="shape">
				<title>工作表.1372</title>
				<path d="M0 679.18 L80.71 679.18 L80.71 680.07 L81.59 678.29 L80.71 676.52 L80.71 677.4 L0 677.4 L0 679.18"
						class="st7"/>
			</g>
			<g id="shape1373-270" v:mID="1373" v:groupContext="shape" transform="translate(-1.04623,-0.902723)">
				<title>工作表.1373</title>
				<rect x="0" y="678.323" width="0.460557" height="1.74532" class="st8"/>
			</g>
		</g>
		<g id="group1374-272" transform="translate(991.709,874.984) rotate(126.187)" v:mID="1374" v:groupContext="group">
			<v:userDefs>
				<v:ud v:nameU="visVersion" v:val="VT0(15):26"/>
			</v:userDefs>
			<title>一维单向箭头.1374</title>
			<g id="shape1375-273" v:mID="1375" v:groupContext="shape">
				<title>工作表.1375</title>
				<path d="M0 679.18 L67.85 679.18 L67.85 680.07 L68.74 678.29 L67.85 676.52 L67.85 677.4 L0 677.4 L0 679.18 Z"
						class="st5"/>
				<path d="M0 679.18 L67.85 679.18 L67.85 680.07 L68.74 678.29 L67.85 676.52 L67.85 677.4 L0 677.4" class="st6"/>
			</g>
			<g id="shape1376-276" v:mID="1376" v:groupContext="shape">
				<title>工作表.1376</title>
				<path d="M0 679.18 L67.85 679.18 L67.85 680.07 L68.74 678.29 L67.85 676.52 L67.85 677.4 L0 677.4 L0 679.18"
						class="st7"/>
			</g>
			<g id="shape1377-279" v:mID="1377" v:groupContext="shape" transform="translate(-0.88135,-0.902723)">
				<title>工作表.1377</title>
				<rect x="0" y="678.323" width="0.387977" height="1.74532" class="st8"/>
			</g>
		</g>
		<g id="group1378-281" transform="translate(1061.73,193.755) rotate(65.5496)" v:mID="1378" v:groupContext="group">
			<v:userDefs>
				<v:ud v:nameU="visVersion" v:val="VT0(15):26"/>
			</v:userDefs>
			<title>一维单向箭头.1378</title>
			<g id="shape1379-282" v:mID="1379" v:groupContext="shape">
				<title>工作表.1379</title>
				<path d="M0 679.18 L60.05 679.18 L60.05 680.07 L60.94 678.29 L60.05 676.52 L60.05 677.4 L0 677.4 L0 679.18 Z"
						class="st5"/>
				<path d="M0 679.18 L60.05 679.18 L60.05 680.07 L60.94 678.29 L60.05 676.52 L60.05 677.4 L0 677.4" class="st6"/>
			</g>
			<g id="shape1380-285" v:mID="1380" v:groupContext="shape">
				<title>工作表.1380</title>
				<path d="M0 679.18 L60.05 679.18 L60.05 680.07 L60.94 678.29 L60.05 676.52 L60.05 677.4 L0 677.4 L0 679.18"
						class="st7"/>
			</g>
			<g id="shape1381-288" v:mID="1381" v:groupContext="shape" transform="translate(-0.781408,-0.902723)">
				<title>工作表.1381</title>
				<rect x="0" y="678.323" width="0.343982" height="1.74532" class="st8"/>
			</g>
		</g>
		<g id="group1382-290" transform="translate(1215.34,834.193) rotate(112.274)" v:mID="1382" v:groupContext="group">
			<v:userDefs>
				<v:ud v:nameU="visVersion" v:val="VT0(15):26"/>
			</v:userDefs>
			<title>一维单向箭头.1382</title>
			<g id="shape1383-291" v:mID="1383" v:groupContext="shape">
				<title>工作表.1383</title>
				<path d="M0 679.18 L59.06 679.18 L59.06 680.07 L59.95 678.29 L59.06 676.52 L59.06 677.4 L0 677.4 L0 679.18 Z"
						class="st5"/>
				<path d="M0 679.18 L59.06 679.18 L59.06 680.07 L59.95 678.29 L59.06 676.52 L59.06 677.4 L0 677.4" class="st6"/>
			</g>
			<g id="shape1384-294" v:mID="1384" v:groupContext="shape">
				<title>工作表.1384</title>
				<path d="M0 679.18 L59.06 679.18 L59.06 680.07 L59.95 678.29 L59.06 676.52 L59.06 677.4 L0 677.4 L0 679.18"
						class="st7"/>
			</g>
			<g id="shape1385-297" v:mID="1385" v:groupContext="shape" transform="translate(-0.768688,-0.902723)">
				<title>工作表.1385</title>
				<rect x="0" y="678.323" width="0.338382" height="1.74532" class="st8"/>
			</g>
		</g>
		<g id="group1386-299" transform="translate(988.663,920.429) rotate(120.409)" v:mID="1386" v:groupContext="group">
			<v:userDefs>
				<v:ud v:nameU="visVersion" v:val="VT0(15):26"/>
			</v:userDefs>
			<title>一维单向箭头.1386</title>
			<g id="shape1387-300" v:mID="1387" v:groupContext="shape">
				<title>工作表.1387</title>
				<path d="M0 679.18 L63.44 679.18 L63.44 680.07 L64.33 678.29 L63.44 676.52 L63.44 677.4 L0 677.4 L0 679.18 Z"
						class="st5"/>
				<path d="M0 679.18 L63.44 679.18 L63.44 680.07 L64.33 678.29 L63.44 676.52 L63.44 677.4 L0 677.4" class="st6"/>
			</g>
			<g id="shape1388-303" v:mID="1388" v:groupContext="shape">
				<title>工作表.1388</title>
				<path d="M0 679.18 L63.44 679.18 L63.44 680.07 L64.33 678.29 L63.44 676.52 L63.44 677.4 L0 677.4 L0 679.18"
						class="st7"/>
			</g>
			<g id="shape1389-306" v:mID="1389" v:groupContext="shape" transform="translate(-0.824795,-0.902723)">
				<title>工作表.1389</title>
				<rect x="0" y="678.323" width="0.363081" height="1.74532" class="st8"/>
			</g>
		</g>
		<g id="group1390-308" transform="translate(1046.77,25.2153) rotate(48.5182)" v:mID="1390" v:groupContext="group">
			<v:userDefs>
				<v:ud v:nameU="visVersion" v:val="VT0(15):26"/>
			</v:userDefs>
			<title>一维单向箭头.1390</title>
			<g id="shape1391-309" v:mID="1391" v:groupContext="shape">
				<title>工作表.1391</title>
				<path d="M0 679.18 L73.16 679.18 L73.16 680.07 L74.05 678.29 L73.16 676.52 L73.16 677.4 L0 677.4 L0 679.18 Z"
						class="st11"/>
				<path d="M0 679.18 L73.16 679.18 L73.16 680.07 L74.05 678.29 L73.16 676.52 L73.16 677.4 L0 677.4" class="st6"/>
			</g>
			<g id="shape1392-312" v:mID="1392" v:groupContext="shape">
				<title>工作表.1392</title>
				<path d="M0 679.18 L73.16 679.18 L73.16 680.07 L74.05 678.29 L73.16 676.52 L73.16 677.4 L0 677.4 L0 679.18"
						class="st7"/>
			</g>
			<g id="shape1393-315" v:mID="1393" v:groupContext="shape" transform="translate(-0.949498,-0.902723)">
				<title>工作表.1393</title>
				<rect x="0" y="678.323" width="0.417976" height="1.74532" class="st8"/>
			</g>
		</g>
		<g id="shape1394-317" v:mID="1394" v:groupContext="shape" transform="translate(620.221,-0.375)">
			<title>矩形.1394</title>
			<desc>nil -1</desc>
			<v:userDefs>
				<v:ud v:nameU="visVersion" v:val="VT0(15):26"/>
			</v:userDefs>
			<v:textBlock v:margins="rect(4,4,4,4)" v:tabSpace="42.5197"/>
			<v:textRect cx="16.624" cy="656.509" width="33.25" height="47.1178"/>
			<rect x="0" y="632.95" width="33.2481" height="47.1178" class="st10"/>
			<text x="6.66" y="651.11" class="st2" v:langID="2052"><v:paragraph v:horizAlign="1"/><v:tabList/>nil<v:newlineChar/><tspan
						x="8.65" dy="1.2em" class="st3">-</tspan>1</text>		</g>
		<g id="group1395-321" transform="translate(1095.21,127.125) rotate(48.4409)" v:mID="1395" v:groupContext="group">
			<v:userDefs>
				<v:ud v:nameU="visVersion" v:val="VT0(15):26"/>
			</v:userDefs>
			<title>一维单向箭头.1395</title>
			<g id="shape1396-322" v:mID="1396" v:groupContext="shape">
				<title>工作表.1396</title>
				<path d="M0 679.18 L73.25 679.18 L73.25 680.07 L74.14 678.29 L73.25 676.52 L73.25 677.4 L0 677.4 L0 679.18 Z"
						class="st11"/>
				<path d="M0 679.18 L73.25 679.18 L73.25 680.07 L74.14 678.29 L73.25 676.52 L73.25 677.4 L0 677.4" class="st6"/>
			</g>
			<g id="shape1397-325" v:mID="1397" v:groupContext="shape">
				<title>工作表.1397</title>
				<path d="M0 679.18 L73.25 679.18 L73.25 680.07 L74.14 678.29 L73.25 676.52 L73.25 677.4 L0 677.4 L0 679.18"
						class="st7"/>
			</g>
			<g id="shape1398-328" v:mID="1398" v:groupContext="shape" transform="translate(-0.950632,-0.902723)">
				<title>工作表.1398</title>
				<rect x="0" y="678.323" width="0.418476" height="1.74532" class="st8"/>
			</g>
		</g>
	</g>
</svg>
