<?xml version="1.0" encoding="UTF-8" standalone="no"?>
<!DOCTYPE svg PUBLIC "-//W3C//DTD SVG 1.1//EN" "http://www.w3.org/Graphics/SVG/1.1/DTD/svg11.dtd">
<!-- 由 Microsoft Visio, SVG Export 生成 LeftistTree2.svg 页-1 -->
<svg xmlns="http://www.w3.org/2000/svg" xmlns:xlink="http://www.w3.org/1999/xlink" xmlns:ev="http://www.w3.org/2001/xml-events"
		xmlns:v="http://schemas.microsoft.com/visio/2003/SVGExtensions/" width="9.89904in" height="6.59623in"
		viewBox="0 0 712.731 474.928" xml:space="preserve" color-interpolation-filters="sRGB" class="st8">
	<v:documentProperties v:langID="2052" v:metric="true" v:viewMarkup="false"/>

	<style type="text/css">
	<![CDATA[
		.st1 {fill:#ffffff;stroke:#000000;stroke-linecap:round;stroke-linejoin:round;stroke-width:0.75}
		.st2 {fill:#000000;font-family:Cambria Math;font-size:1.5em}
		.st3 {font-size:1em}
		.st4 {fill:#ffffff}
		.st5 {stroke:none;stroke-linecap:round;stroke-linejoin:round;stroke-width:0.75}
		.st6 {stroke:#000000;stroke-linecap:round;stroke-linejoin:round;stroke-width:0.24}
		.st7 {fill:#ffffff;stroke:none;stroke-linecap:round;stroke-linejoin:round;stroke-width:0.24;visibility:hidden}
		.st8 {fill:none;fill-rule:evenodd;font-size:12px;overflow:visible;stroke-linecap:square;stroke-miterlimit:3}
	]]>
	</style>

	<g v:mID="0" v:index="1" v:groupContext="foregroundPage">
		<title>页-1</title>
		<v:pageProperties v:drawingScale="0.0393701" v:pageScale="0.0393701" v:drawingUnits="24" v:shadowOffsetX="8.50394"
				v:shadowOffsetY="-8.50394"/>
		<g id="shape189-1" v:mID="189" v:groupContext="shape" transform="translate(180.485,-427.436)">
			<title>矩形.189</title>
			<desc>6 2</desc>
			<v:userDefs>
				<v:ud v:nameU="visVersion" v:val="VT0(15):26"/>
			</v:userDefs>
			<v:textBlock v:margins="rect(4,4,4,4)" v:tabSpace="42.5197"/>
			<v:textRect cx="16.624" cy="451.37" width="33.25" height="47.1178"/>
			<rect x="0" y="427.811" width="33.2481" height="47.1178" class="st1"/>
			<text x="11.64" y="445.97" class="st2" v:langID="2052"><v:paragraph v:horizAlign="1"/><v:tabList/>6<v:newlineChar/><tspan
						x="11.64" dy="1.2em" class="st3">2</tspan></text>		</g>
		<g id="shape190-5" v:mID="190" v:groupContext="shape" transform="translate(521.72,-427.436)">
			<title>矩形.190</title>
			<desc>7 2</desc>
			<v:userDefs>
				<v:ud v:nameU="visVersion" v:val="VT0(15):26"/>
			</v:userDefs>
			<v:textBlock v:margins="rect(4,4,4,4)" v:tabSpace="42.5197"/>
			<v:textRect cx="16.624" cy="451.37" width="33.25" height="47.1178"/>
			<rect x="0" y="427.811" width="33.2481" height="47.1178" class="st1"/>
			<text x="11.64" y="445.97" class="st2" v:langID="2052"><v:paragraph v:horizAlign="1"/><v:tabList/>7<v:newlineChar/><tspan
						x="11.64" dy="1.2em" class="st3">2</tspan></text>		</g>
		<g id="shape191-9" v:mID="191" v:groupContext="shape" transform="translate(85.856,-326.904)">
			<title>矩形.191</title>
			<desc>11 2</desc>
			<v:userDefs>
				<v:ud v:nameU="visVersion" v:val="VT0(15):26"/>
			</v:userDefs>
			<v:textBlock v:margins="rect(4,4,4,4)" v:tabSpace="42.5197"/>
			<v:textRect cx="16.624" cy="451.37" width="33.25" height="47.1178"/>
			<rect x="0" y="427.811" width="33.2481" height="47.1178" class="st1"/>
			<text x="6.66" y="445.97" class="st2" v:langID="2052"><v:paragraph v:horizAlign="1"/><v:tabList/>11<v:newlineChar/><tspan
						x="11.64" dy="1.2em" class="st3">2</tspan></text>		</g>
		<g id="shape192-13" v:mID="192" v:groupContext="shape" transform="translate(253.08,-326.904)">
			<title>矩形.192</title>
			<desc>8 1</desc>
			<v:userDefs>
				<v:ud v:nameU="visVersion" v:val="VT0(15):26"/>
			</v:userDefs>
			<v:textBlock v:margins="rect(4,4,4,4)" v:tabSpace="42.5197"/>
			<v:textRect cx="16.624" cy="451.37" width="33.25" height="47.1178"/>
			<rect x="0" y="427.811" width="33.2481" height="47.1178" class="st1"/>
			<text x="11.64" y="445.97" class="st2" v:langID="2052"><v:paragraph v:horizAlign="1"/><v:tabList/>8<v:newlineChar/><tspan
						x="11.64" dy="1.2em" class="st3">1</tspan></text>		</g>
		<g id="group193-17" transform="translate(429.688,459.538) rotate(150.557)" v:mID="193" v:groupContext="group">
			<v:userDefs>
				<v:ud v:nameU="visVersion" v:val="VT0(15):26"/>
			</v:userDefs>
			<title>一维单向箭头.193</title>
			<g id="shape194-18" v:mID="194" v:groupContext="shape">
				<title>工作表.194</title>
				<path d="M0 474.04 L107.78 474.04 L107.78 474.93 L108.66 473.15 L107.78 471.38 L107.78 472.27 L0 472.27 L0 474.04
							 Z" class="st4"/>
				<path d="M0 474.04 L107.78 474.04 L107.78 474.93 L108.66 473.15 L107.78 471.38 L107.78 472.27 L0 472.27"
						class="st5"/>
			</g>
			<g id="shape195-21" v:mID="195" v:groupContext="shape">
				<title>工作表.195</title>
				<path d="M0 474.04 L107.78 474.04 L107.78 474.93 L108.66 473.15 L107.78 471.38 L107.78 472.27 L0 472.27 L0 474.04"
						class="st6"/>
			</g>
			<g id="shape196-24" v:mID="196" v:groupContext="shape" transform="translate(-1.3933,-0.902723)">
				<title>工作表.196</title>
				<rect x="0" y="473.183" width="0.613342" height="1.74532" class="st7"/>
			</g>
		</g>
		<g id="group197-26" transform="translate(477.519,-333.616) rotate(36.3446)" v:mID="197" v:groupContext="group">
			<v:userDefs>
				<v:ud v:nameU="visVersion" v:val="VT0(15):26"/>
			</v:userDefs>
			<title>一维单向箭头.197</title>
			<g id="shape198-27" v:mID="198" v:groupContext="shape">
				<title>工作表.198</title>
				<path d="M0 474.04 L89.24 474.04 L89.24 474.93 L90.13 473.15 L89.24 471.38 L89.24 472.27 L0 472.27 L0 474.04 Z"
						class="st4"/>
				<path d="M0 474.04 L89.24 474.04 L89.24 474.93 L90.13 473.15 L89.24 471.38 L89.24 472.27 L0 472.27" class="st5"/>
			</g>
			<g id="shape199-30" v:mID="199" v:groupContext="shape">
				<title>工作表.199</title>
				<path d="M0 474.04 L89.24 474.04 L89.24 474.93 L90.13 473.15 L89.24 471.38 L89.24 472.27 L0 472.27 L0 474.04"
						class="st6"/>
			</g>
			<g id="shape200-33" v:mID="200" v:groupContext="shape" transform="translate(-1.15564,-0.902723)">
				<title>工作表.200</title>
				<rect x="0" y="473.183" width="0.508721" height="1.74532" class="st7"/>
			</g>
		</g>
		<g id="shape201-35" v:mID="201" v:groupContext="shape" transform="translate(433.19,-326.904)">
			<title>矩形.201</title>
			<desc>9 1</desc>
			<v:userDefs>
				<v:ud v:nameU="visVersion" v:val="VT0(15):26"/>
			</v:userDefs>
			<v:textBlock v:margins="rect(4,4,4,4)" v:tabSpace="42.5197"/>
			<v:textRect cx="16.624" cy="451.37" width="33.25" height="47.1178"/>
			<rect x="0" y="427.811" width="33.2481" height="47.1178" class="st1"/>
			<text x="11.64" y="445.97" class="st2" v:langID="2052"><v:paragraph v:horizAlign="1"/><v:tabList/>9<v:newlineChar/><tspan
						x="11.64" dy="1.2em" class="st3">1</tspan></text>		</g>
		<g id="group202-39" transform="translate(782.772,452.621) rotate(148.896)" v:mID="202" v:groupContext="group">
			<v:userDefs>
				<v:ud v:nameU="visVersion" v:val="VT0(15):26"/>
			</v:userDefs>
			<title>一维单向箭头.202</title>
			<g id="shape203-40" v:mID="203" v:groupContext="shape">
				<title>工作表.203</title>
				<path d="M0 474.04 L102.51 474.04 L102.51 474.93 L103.4 473.15 L102.51 471.38 L102.51 472.27 L0 472.27 L0 474.04 Z"
						class="st4"/>
				<path d="M0 474.04 L102.51 474.04 L102.51 474.93 L103.4 473.15 L102.51 471.38 L102.51 472.27 L0 472.27" class="st5"/>
			</g>
			<g id="shape204-43" v:mID="204" v:groupContext="shape">
				<title>工作表.204</title>
				<path d="M0 474.04 L102.51 474.04 L102.51 474.93 L103.4 473.15 L102.51 471.38 L102.51 472.27 L0 472.27 L0 474.04"
						class="st6"/>
			</g>
			<g id="shape205-46" v:mID="205" v:groupContext="shape" transform="translate(-1.32576,-0.902723)">
				<title>工作表.205</title>
				<rect x="0" y="473.183" width="0.58361" height="1.74532" class="st7"/>
			</g>
		</g>
		<g id="shape206-48" v:mID="206" v:groupContext="shape" transform="translate(613.3,-326.904)">
			<title>矩形.206</title>
			<desc>12 1</desc>
			<v:userDefs>
				<v:ud v:nameU="visVersion" v:val="VT0(15):26"/>
			</v:userDefs>
			<v:textBlock v:margins="rect(4,4,4,4)" v:tabSpace="42.5197"/>
			<v:textRect cx="16.624" cy="451.37" width="33.25" height="47.1178"/>
			<rect x="0" y="427.811" width="33.2481" height="47.1178" class="st1"/>
			<text x="6.66" y="445.97" class="st2" v:langID="2052"><v:paragraph v:horizAlign="1"/><v:tabList/>12<v:newlineChar/><tspan
						x="11.64" dy="1.2em" class="st3">1</tspan></text>		</g>
		<g id="group207-52" transform="translate(776.725,-361.223) rotate(30.2526)" v:mID="207" v:groupContext="group">
			<v:userDefs>
				<v:ud v:nameU="visVersion" v:val="VT0(15):26"/>
			</v:userDefs>
			<title>一维单向箭头.207</title>
			<g id="shape208-53" v:mID="208" v:groupContext="shape">
				<title>工作表.208</title>
				<path d="M0 474.04 L105.13 474.04 L105.13 474.93 L106.02 473.15 L105.13 471.38 L105.13 472.27 L0 472.27 L0 474.04
							 Z" class="st4"/>
				<path d="M0 474.04 L105.13 474.04 L105.13 474.93 L106.02 473.15 L105.13 471.38 L105.13 472.27 L0 472.27"
						class="st5"/>
			</g>
			<g id="shape209-56" v:mID="209" v:groupContext="shape">
				<title>工作表.209</title>
				<path d="M0 474.04 L105.13 474.04 L105.13 474.93 L106.02 473.15 L105.13 471.38 L105.13 472.27 L0 472.27 L0 474.04"
						class="st6"/>
			</g>
			<g id="shape210-59" v:mID="210" v:groupContext="shape" transform="translate(-1.35939,-0.902723)">
				<title>工作表.210</title>
				<rect x="0" y="473.183" width="0.598413" height="1.74532" class="st7"/>
			</g>
		</g>
		<g id="shape211-61" v:mID="211" v:groupContext="shape" transform="translate(39.7218,-212.946)">
			<title>矩形.211</title>
			<desc>17 1</desc>
			<v:userDefs>
				<v:ud v:nameU="visVersion" v:val="VT0(15):26"/>
			</v:userDefs>
			<v:textBlock v:margins="rect(4,4,4,4)" v:tabSpace="42.5197"/>
			<v:textRect cx="16.624" cy="451.37" width="33.25" height="47.1178"/>
			<rect x="0" y="427.811" width="33.2481" height="47.1178" class="st1"/>
			<text x="6.66" y="445.97" class="st2" v:langID="2052"><v:paragraph v:horizAlign="1"/><v:tabList/>17<v:newlineChar/><tspan
						x="11.64" dy="1.2em" class="st3">1</tspan></text>		</g>
		<g id="shape212-65" v:mID="212" v:groupContext="shape" transform="translate(122.153,-212.946)">
			<title>矩形.212</title>
			<desc>14 1</desc>
			<v:userDefs>
				<v:ud v:nameU="visVersion" v:val="VT0(15):26"/>
			</v:userDefs>
			<v:textBlock v:margins="rect(4,4,4,4)" v:tabSpace="42.5197"/>
			<v:textRect cx="16.624" cy="451.37" width="33.25" height="47.1178"/>
			<rect x="0" y="427.811" width="33.2481" height="47.1178" class="st1"/>
			<text x="6.66" y="445.97" class="st2" v:langID="2052"><v:paragraph v:horizAlign="1"/><v:tabList/>14<v:newlineChar/><tspan
						x="11.64" dy="1.2em" class="st3">1</tspan></text>		</g>
		<g id="group213-69" transform="translate(491.884,416.796) rotate(124.614)" v:mID="213" v:groupContext="group">
			<v:userDefs>
				<v:ud v:nameU="visVersion" v:val="VT0(15):26"/>
			</v:userDefs>
			<title>一维单向箭头.213</title>
			<g id="shape214-70" v:mID="214" v:groupContext="shape">
				<title>工作表.214</title>
				<path d="M0 474.04 L80.33 474.04 L80.33 474.93 L81.22 473.15 L80.33 471.38 L80.33 472.27 L0 472.27 L0 474.04 Z"
						class="st4"/>
				<path d="M0 474.04 L80.33 474.04 L80.33 474.93 L81.22 473.15 L80.33 471.38 L80.33 472.27 L0 472.27" class="st5"/>
			</g>
			<g id="shape215-73" v:mID="215" v:groupContext="shape">
				<title>工作表.215</title>
				<path d="M0 474.04 L80.33 474.04 L80.33 474.93 L81.22 473.15 L80.33 471.38 L80.33 472.27 L0 472.27 L0 474.04"
						class="st6"/>
			</g>
			<g id="shape216-76" v:mID="216" v:groupContext="shape" transform="translate(-1.04137,-0.902723)">
				<title>工作表.216</title>
				<rect x="0" y="473.183" width="0.458418" height="1.74532" class="st7"/>
			</g>
		</g>
		<g id="group217-78" transform="translate(518.279,-77.7743) rotate(61.496)" v:mID="217" v:groupContext="group">
			<v:userDefs>
				<v:ud v:nameU="visVersion" v:val="VT0(15):26"/>
			</v:userDefs>
			<title>一维单向箭头.217</title>
			<g id="shape218-79" v:mID="218" v:groupContext="shape">
				<title>工作表.218</title>
				<path d="M0 474.04 L75.17 474.04 L75.17 474.93 L76.06 473.15 L75.17 471.38 L75.17 472.27 L0 472.27 L0 474.04 Z"
						class="st4"/>
				<path d="M0 474.04 L75.17 474.04 L75.17 474.93 L76.06 473.15 L75.17 471.38 L75.17 472.27 L0 472.27" class="st5"/>
			</g>
			<g id="shape219-82" v:mID="219" v:groupContext="shape">
				<title>工作表.219</title>
				<path d="M0 474.04 L75.17 474.04 L75.17 474.93 L76.06 473.15 L75.17 471.38 L75.17 472.27 L0 472.27 L0 474.04"
						class="st6"/>
			</g>
			<g id="shape220-85" v:mID="220" v:groupContext="shape" transform="translate(-0.97526,-0.902723)">
				<title>工作表.220</title>
				<rect x="0" y="473.183" width="0.429317" height="1.74532" class="st7"/>
			</g>
		</g>
		<g id="shape221-87" v:mID="221" v:groupContext="shape" transform="translate(0.375,-106.661)">
			<title>矩形.221</title>
			<desc>18 0</desc>
			<v:userDefs>
				<v:ud v:nameU="visVersion" v:val="VT0(15):26"/>
			</v:userDefs>
			<v:textBlock v:margins="rect(4,4,4,4)" v:tabSpace="42.5197"/>
			<v:textRect cx="16.624" cy="451.37" width="33.25" height="47.1178"/>
			<rect x="0" y="427.811" width="33.2481" height="47.1178" class="st1"/>
			<text x="6.66" y="445.97" class="st2" v:langID="2052"><v:paragraph v:horizAlign="1"/><v:tabList/>18<v:newlineChar/><tspan
						x="11.64" dy="1.2em" class="st3">0</tspan></text>		</g>
		<g id="shape222-91" v:mID="222" v:groupContext="shape" transform="translate(48.0338,-106.661)">
			<title>矩形.222</title>
			<desc>20 0</desc>
			<v:userDefs>
				<v:ud v:nameU="visVersion" v:val="VT0(15):26"/>
			</v:userDefs>
			<v:textBlock v:margins="rect(4,4,4,4)" v:tabSpace="42.5197"/>
			<v:textRect cx="16.624" cy="451.37" width="33.25" height="47.1178"/>
			<rect x="0" y="427.811" width="33.2481" height="47.1178" class="st1"/>
			<text x="6.66" y="445.97" class="st2" v:langID="2052"><v:paragraph v:horizAlign="1"/><v:tabList/>20<v:newlineChar/><tspan
						x="11.64" dy="1.2em" class="st3">0</tspan></text>		</g>
		<g id="group223-95" transform="translate(450.335,523.987) rotate(123.624)" v:mID="223" v:groupContext="group">
			<v:userDefs>
				<v:ud v:nameU="visVersion" v:val="VT0(15):26"/>
			</v:userDefs>
			<title>一维单向箭头.223</title>
			<g id="shape224-96" v:mID="224" v:groupContext="shape">
				<title>工作表.224</title>
				<path d="M0 474.04 L70.17 474.04 L70.17 474.93 L71.06 473.15 L70.17 471.38 L70.17 472.27 L0 472.27 L0 474.04 Z"
						class="st4"/>
				<path d="M0 474.04 L70.17 474.04 L70.17 474.93 L71.06 473.15 L70.17 471.38 L70.17 472.27 L0 472.27" class="st5"/>
			</g>
			<g id="shape225-99" v:mID="225" v:groupContext="shape">
				<title>工作表.225</title>
				<path d="M0 474.04 L70.17 474.04 L70.17 474.93 L71.06 473.15 L70.17 471.38 L70.17 472.27 L0 472.27 L0 474.04"
						class="st6"/>
			</g>
			<g id="shape226-102" v:mID="226" v:groupContext="shape" transform="translate(-0.9111,-0.902723)">
				<title>工作表.226</title>
				<rect x="0" y="473.183" width="0.401073" height="1.74532" class="st7"/>
			</g>
		</g>
		<g id="group227-104" transform="translate(524.898,196.159) rotate(82.0033)" v:mID="227" v:groupContext="group">
			<v:userDefs>
				<v:ud v:nameU="visVersion" v:val="VT0(15):26"/>
			</v:userDefs>
			<title>一维单向箭头.227</title>
			<g id="shape228-105" v:mID="228" v:groupContext="shape">
				<title>工作表.228</title>
				<path d="M0 474.04 L58.86 474.04 L58.86 474.93 L59.75 473.15 L58.86 471.38 L58.86 472.27 L0 472.27 L0 474.04 Z"
						class="st4"/>
				<path d="M0 474.04 L58.86 474.04 L58.86 474.93 L59.75 473.15 L58.86 471.38 L58.86 472.27 L0 472.27" class="st5"/>
			</g>
			<g id="shape229-108" v:mID="229" v:groupContext="shape">
				<title>工作表.229</title>
				<path d="M0 474.04 L58.86 474.04 L58.86 474.93 L59.75 473.15 L58.86 471.38 L58.86 472.27 L0 472.27 L0 474.04"
						class="st6"/>
			</g>
			<g id="shape230-111" v:mID="230" v:groupContext="shape" transform="translate(-0.766112,-0.902723)">
				<title>工作表.230</title>
				<rect x="0" y="473.183" width="0.337249" height="1.74532" class="st7"/>
			</g>
		</g>
		<g id="shape231-113" v:mID="231" v:groupContext="shape" transform="translate(95.6927,-106.661)">
			<title>矩形.231</title>
			<desc>19 0</desc>
			<v:userDefs>
				<v:ud v:nameU="visVersion" v:val="VT0(15):26"/>
			</v:userDefs>
			<v:textBlock v:margins="rect(4,4,4,4)" v:tabSpace="42.5197"/>
			<v:textRect cx="16.624" cy="451.37" width="33.25" height="47.1178"/>
			<rect x="0" y="427.811" width="33.2481" height="47.1178" class="st1"/>
			<text x="6.66" y="445.97" class="st2" v:langID="2052"><v:paragraph v:horizAlign="1"/><v:tabList/>19<v:newlineChar/><tspan
						x="11.64" dy="1.2em" class="st3">0</tspan></text>		</g>
		<g id="shape232-117" v:mID="232" v:groupContext="shape" transform="translate(138.089,-106.661)">
			<title>矩形.232</title>
			<desc>24 0</desc>
			<v:userDefs>
				<v:ud v:nameU="visVersion" v:val="VT0(15):26"/>
			</v:userDefs>
			<v:textBlock v:margins="rect(4,4,4,4)" v:tabSpace="42.5197"/>
			<v:textRect cx="16.624" cy="451.37" width="33.25" height="47.1178"/>
			<rect x="0" y="427.811" width="33.2481" height="47.1178" class="st1"/>
			<text x="6.66" y="445.97" class="st2" v:langID="2052"><v:paragraph v:horizAlign="1"/><v:tabList/>24<v:newlineChar/><tspan
						x="11.64" dy="1.2em" class="st3">0</tspan></text>		</g>
		<g id="group233-121" transform="translate(570.705,455.147) rotate(114.095)" v:mID="233" v:groupContext="group">
			<v:userDefs>
				<v:ud v:nameU="visVersion" v:val="VT0(15):26"/>
			</v:userDefs>
			<title>一维单向箭头.233</title>
			<g id="shape234-122" v:mID="234" v:groupContext="shape">
				<title>工作表.234</title>
				<path d="M0 474.04 L63.93 474.04 L63.93 474.93 L64.82 473.15 L63.93 471.38 L63.93 472.27 L0 472.27 L0 474.04 Z"
						class="st4"/>
				<path d="M0 474.04 L63.93 474.04 L63.93 474.93 L64.82 473.15 L63.93 471.38 L63.93 472.27 L0 472.27" class="st5"/>
			</g>
			<g id="shape235-125" v:mID="235" v:groupContext="shape">
				<title>工作表.235</title>
				<path d="M0 474.04 L63.93 474.04 L63.93 474.93 L64.82 473.15 L63.93 471.38 L63.93 472.27 L0 472.27 L0 474.04"
						class="st6"/>
			</g>
			<g id="shape236-128" v:mID="236" v:groupContext="shape" transform="translate(-0.831074,-0.902723)">
				<title>工作表.236</title>
				<rect x="0" y="473.183" width="0.365845" height="1.74532" class="st7"/>
			</g>
		</g>
		<g id="group237-130" transform="translate(595.651,138.934) rotate(74.9264)" v:mID="237" v:groupContext="group">
			<v:userDefs>
				<v:ud v:nameU="visVersion" v:val="VT0(15):26"/>
			</v:userDefs>
			<title>一维单向箭头.237</title>
			<g id="shape238-131" v:mID="238" v:groupContext="shape">
				<title>工作表.238</title>
				<path d="M0 474.04 L60.39 474.04 L60.39 474.93 L61.28 473.15 L60.39 471.38 L60.39 472.27 L0 472.27 L0 474.04 Z"
						class="st4"/>
				<path d="M0 474.04 L60.39 474.04 L60.39 474.93 L61.28 473.15 L60.39 471.38 L60.39 472.27 L0 472.27" class="st5"/>
			</g>
			<g id="shape239-134" v:mID="239" v:groupContext="shape">
				<title>工作表.239</title>
				<path d="M0 474.04 L60.39 474.04 L60.39 474.93 L61.28 473.15 L60.39 471.38 L60.39 472.27 L0 472.27 L0 474.04"
						class="st6"/>
			</g>
			<g id="shape240-137" v:mID="240" v:groupContext="shape" transform="translate(-0.785696,-0.902723)">
				<title>工作表.240</title>
				<rect x="0" y="473.183" width="0.34587" height="1.74532" class="st7"/>
			</g>
		</g>
		<g id="shape241-139" v:mID="241" v:groupContext="shape" transform="translate(217.471,-212.946)">
			<title>矩形.241</title>
			<desc>10 1</desc>
			<v:userDefs>
				<v:ud v:nameU="visVersion" v:val="VT0(15):26"/>
			</v:userDefs>
			<v:textBlock v:margins="rect(4,4,4,4)" v:tabSpace="42.5197"/>
			<v:textRect cx="16.624" cy="451.37" width="33.25" height="47.1178"/>
			<rect x="0" y="427.811" width="33.2481" height="47.1178" class="st1"/>
			<text x="6.66" y="445.97" class="st2" v:langID="2052"><v:paragraph v:horizAlign="1"/><v:tabList/>10<v:newlineChar/><tspan
						x="11.64" dy="1.2em" class="st3">1</tspan></text>		</g>
		<g id="shape242-143" v:mID="242" v:groupContext="shape" transform="translate(292.427,-212.946)">
			<title>矩形.242</title>
			<desc>13 0</desc>
			<v:userDefs>
				<v:ud v:nameU="visVersion" v:val="VT0(15):26"/>
			</v:userDefs>
			<v:textBlock v:margins="rect(4,4,4,4)" v:tabSpace="42.5197"/>
			<v:textRect cx="16.624" cy="451.37" width="33.25" height="47.1178"/>
			<rect x="0" y="427.811" width="33.2481" height="47.1178" class="st1"/>
			<text x="6.66" y="445.97" class="st2" v:langID="2052"><v:paragraph v:horizAlign="1"/><v:tabList/>13<v:newlineChar/><tspan
						x="11.64" dy="1.2em" class="st3">0</tspan></text>		</g>
		<g id="group243-147" transform="translate(687.294,370.493) rotate(118.046)" v:mID="243" v:groupContext="group">
			<v:userDefs>
				<v:ud v:nameU="visVersion" v:val="VT0(15):26"/>
			</v:userDefs>
			<title>一维单向箭头.243</title>
			<g id="shape244-148" v:mID="244" v:groupContext="shape">
				<title>工作表.244</title>
				<path d="M0 474.04 L74.85 474.04 L74.85 474.93 L75.73 473.15 L74.85 471.38 L74.85 472.27 L0 472.27 L0 474.04 Z"
						class="st4"/>
				<path d="M0 474.04 L74.85 474.04 L74.85 474.93 L75.73 473.15 L74.85 471.38 L74.85 472.27 L0 472.27" class="st5"/>
			</g>
			<g id="shape245-151" v:mID="245" v:groupContext="shape">
				<title>工作表.245</title>
				<path d="M0 474.04 L74.85 474.04 L74.85 474.93 L75.73 473.15 L74.85 471.38 L74.85 472.27 L0 472.27 L0 474.04"
						class="st6"/>
			</g>
			<g id="shape246-154" v:mID="246" v:groupContext="shape" transform="translate(-0.971078,-0.902723)">
				<title>工作表.246</title>
				<rect x="0" y="473.183" width="0.427476" height="1.74532" class="st7"/>
			</g>
		</g>
		<g id="group247-156" transform="translate(677.454,-92.0053) rotate(59.516)" v:mID="247" v:groupContext="group">
			<v:userDefs>
				<v:ud v:nameU="visVersion" v:val="VT0(15):26"/>
			</v:userDefs>
			<title>一维单向箭头.247</title>
			<g id="shape248-157" v:mID="248" v:groupContext="shape">
				<title>工作表.248</title>
				<path d="M0 474.04 L76.67 474.04 L76.67 474.93 L77.56 473.15 L76.67 471.38 L76.67 472.27 L0 472.27 L0 474.04 Z"
						class="st4"/>
				<path d="M0 474.04 L76.67 474.04 L76.67 474.93 L77.56 473.15 L76.67 471.38 L76.67 472.27 L0 472.27" class="st5"/>
			</g>
			<g id="shape249-160" v:mID="249" v:groupContext="shape">
				<title>工作表.249</title>
				<path d="M0 474.04 L76.67 474.04 L76.67 474.93 L77.56 473.15 L76.67 471.38 L76.67 472.27 L0 472.27 L0 474.04"
						class="st6"/>
			</g>
			<g id="shape250-163" v:mID="250" v:groupContext="shape" transform="translate(-0.994513,-0.902723)">
				<title>工作表.250</title>
				<rect x="0" y="473.183" width="0.437793" height="1.74532" class="st7"/>
			</g>
		</g>
		<g id="shape251-165" v:mID="251" v:groupContext="shape" transform="translate(180.485,-106.661)">
			<title>矩形.251</title>
			<desc>15 0</desc>
			<v:userDefs>
				<v:ud v:nameU="visVersion" v:val="VT0(15):26"/>
			</v:userDefs>
			<v:textBlock v:margins="rect(4,4,4,4)" v:tabSpace="42.5197"/>
			<v:textRect cx="16.624" cy="451.37" width="33.25" height="47.1178"/>
			<rect x="0" y="427.811" width="33.2481" height="47.1178" class="st1"/>
			<text x="6.66" y="445.97" class="st2" v:langID="2052"><v:paragraph v:horizAlign="1"/><v:tabList/>15<v:newlineChar/><tspan
						x="11.64" dy="1.2em" class="st3">0</tspan></text>		</g>
		<g id="shape252-169" v:mID="252" v:groupContext="shape" transform="translate(230.357,-106.661)">
			<title>矩形.252</title>
			<desc>30 0</desc>
			<v:userDefs>
				<v:ud v:nameU="visVersion" v:val="VT0(15):26"/>
			</v:userDefs>
			<v:textBlock v:margins="rect(4,4,4,4)" v:tabSpace="42.5197"/>
			<v:textRect cx="16.624" cy="451.37" width="33.25" height="47.1178"/>
			<rect x="0" y="427.811" width="33.2481" height="47.1178" class="st1"/>
			<text x="6.66" y="445.97" class="st2" v:langID="2052"><v:paragraph v:horizAlign="1"/><v:tabList/>30<v:newlineChar/><tspan
						x="11.64" dy="1.2em" class="st3">0</tspan></text>		</g>
		<g id="group253-173" transform="translate(635.309,512.783) rotate(122.01)" v:mID="253" v:groupContext="group">
			<v:userDefs>
				<v:ud v:nameU="visVersion" v:val="VT0(15):26"/>
			</v:userDefs>
			<title>一维单向箭头.253</title>
			<g id="shape254-174" v:mID="254" v:groupContext="shape">
				<title>工作表.254</title>
				<path d="M0 474.04 L68.89 474.04 L68.89 474.93 L69.78 473.15 L68.89 471.38 L68.89 472.27 L0 472.27 L0 474.04 Z"
						class="st4"/>
				<path d="M0 474.04 L68.89 474.04 L68.89 474.93 L69.78 473.15 L68.89 471.38 L68.89 472.27 L0 472.27" class="st5"/>
			</g>
			<g id="shape255-177" v:mID="255" v:groupContext="shape">
				<title>工作表.255</title>
				<path d="M0 474.04 L68.89 474.04 L68.89 474.93 L69.78 473.15 L68.89 471.38 L68.89 472.27 L0 472.27 L0 474.04"
						class="st6"/>
			</g>
			<g id="shape256-180" v:mID="256" v:groupContext="shape" transform="translate(-0.894693,-0.902723)">
				<title>工作表.256</title>
				<rect x="0" y="473.183" width="0.393851" height="1.74532" class="st7"/>
			</g>
		</g>
		<g id="group257-182" transform="translate(696.411,161.295) rotate(77.7135)" v:mID="257" v:groupContext="group">
			<v:userDefs>
				<v:ud v:nameU="visVersion" v:val="VT0(15):26"/>
			</v:userDefs>
			<title>一维单向箭头.257</title>
			<g id="shape258-183" v:mID="258" v:groupContext="shape">
				<title>工作表.258</title>
				<path d="M0 474.04 L59.67 474.04 L59.67 474.93 L60.55 473.15 L59.67 471.38 L59.67 472.27 L0 472.27 L0 474.04 Z"
						class="st4"/>
				<path d="M0 474.04 L59.67 474.04 L59.67 474.93 L60.55 473.15 L59.67 471.38 L59.67 472.27 L0 472.27" class="st5"/>
			</g>
			<g id="shape259-186" v:mID="259" v:groupContext="shape">
				<title>工作表.259</title>
				<path d="M0 474.04 L59.67 474.04 L59.67 474.93 L60.55 473.15 L59.67 471.38 L59.67 472.27 L0 472.27 L0 474.04"
						class="st6"/>
			</g>
			<g id="shape260-189" v:mID="260" v:groupContext="shape" transform="translate(-0.776447,-0.902723)">
				<title>工作表.260</title>
				<rect x="0" y="473.183" width="0.341798" height="1.74532" class="st7"/>
			</g>
		</g>
		<g id="shape261-191" v:mID="261" v:groupContext="shape" transform="translate(272.753,-106.661)">
			<title>矩形.261</title>
			<desc>28 0</desc>
			<v:userDefs>
				<v:ud v:nameU="visVersion" v:val="VT0(15):26"/>
			</v:userDefs>
			<v:textBlock v:margins="rect(4,4,4,4)" v:tabSpace="42.5197"/>
			<v:textRect cx="16.624" cy="451.37" width="33.25" height="47.1178"/>
			<rect x="0" y="427.811" width="33.2481" height="47.1178" class="st1"/>
			<text x="6.66" y="445.97" class="st2" v:langID="2052"><v:paragraph v:horizAlign="1"/><v:tabList/>28<v:newlineChar/><tspan
						x="11.64" dy="1.2em" class="st3">0</tspan></text>		</g>
		<g id="group262-195" transform="translate(758.035,411.27) rotate(108.392)" v:mID="262" v:groupContext="group">
			<v:userDefs>
				<v:ud v:nameU="visVersion" v:val="VT0(15):26"/>
			</v:userDefs>
			<title>一维单向箭头.262</title>
			<g id="shape263-196" v:mID="263" v:groupContext="shape">
				<title>工作表.263</title>
				<path d="M0 474.04 L61.47 474.04 L61.47 474.93 L62.35 473.15 L61.47 471.38 L61.47 472.27 L0 472.27 L0 474.04 Z"
						class="st4"/>
				<path d="M0 474.04 L61.47 474.04 L61.47 474.93 L62.35 473.15 L61.47 471.38 L61.47 472.27 L0 472.27" class="st5"/>
			</g>
			<g id="shape264-199" v:mID="264" v:groupContext="shape">
				<title>工作表.264</title>
				<path d="M0 474.04 L61.47 474.04 L61.47 474.93 L62.35 473.15 L61.47 471.38 L61.47 472.27 L0 472.27 L0 474.04"
						class="st6"/>
			</g>
			<g id="shape265-202" v:mID="265" v:groupContext="shape" transform="translate(-0.799501,-0.902723)">
				<title>工作表.265</title>
				<rect x="0" y="473.183" width="0.351947" height="1.74532" class="st7"/>
			</g>
		</g>
		<g id="shape266-204" v:mID="266" v:groupContext="shape" transform="translate(525.458,-106.661)">
			<title>矩形.266</title>
			<desc>42 0</desc>
			<v:userDefs>
				<v:ud v:nameU="visVersion" v:val="VT0(15):26"/>
			</v:userDefs>
			<v:textBlock v:margins="rect(4,4,4,4)" v:tabSpace="42.5197"/>
			<v:textRect cx="16.624" cy="451.37" width="33.25" height="47.1178"/>
			<rect x="0" y="427.811" width="33.2481" height="47.1178" class="st1"/>
			<text x="6.66" y="445.97" class="st2" v:langID="2052"><v:paragraph v:horizAlign="1"/><v:tabList/>42<v:newlineChar/><tspan
						x="11.64" dy="1.2em" class="st3">0</tspan></text>		</g>
		<g id="shape267-208" v:mID="267" v:groupContext="shape" transform="translate(593.627,-106.661)">
			<title>矩形.267</title>
			<desc>33 0</desc>
			<v:userDefs>
				<v:ud v:nameU="visVersion" v:val="VT0(15):26"/>
			</v:userDefs>
			<v:textBlock v:margins="rect(4,4,4,4)" v:tabSpace="42.5197"/>
			<v:textRect cx="16.624" cy="451.37" width="33.25" height="47.1178"/>
			<rect x="0" y="427.811" width="33.2481" height="47.1178" class="st1"/>
			<text x="6.66" y="445.97" class="st2" v:langID="2052"><v:paragraph v:horizAlign="1"/><v:tabList/>33<v:newlineChar/><tspan
						x="11.64" dy="1.2em" class="st3">0</tspan></text>		</g>
		<g id="shape268-212" v:mID="268" v:groupContext="shape" transform="translate(498.998,-0.375)">
			<title>矩形.268</title>
			<desc>50 0</desc>
			<v:userDefs>
				<v:ud v:nameU="visVersion" v:val="VT0(15):26"/>
			</v:userDefs>
			<v:textBlock v:margins="rect(4,4,4,4)" v:tabSpace="42.5197"/>
			<v:textRect cx="16.624" cy="451.37" width="33.25" height="47.1178"/>
			<rect x="0" y="427.811" width="33.2481" height="47.1178" class="st1"/>
			<text x="6.66" y="445.97" class="st2" v:langID="2052"><v:paragraph v:horizAlign="1"/><v:tabList/>50<v:newlineChar/><tspan
						x="11.64" dy="1.2em" class="st3">0</tspan></text>		</g>
		<g id="shape269-216" v:mID="269" v:groupContext="shape" transform="translate(656.385,-106.661)">
			<title>矩形.269</title>
			<desc>27 0</desc>
			<v:userDefs>
				<v:ud v:nameU="visVersion" v:val="VT0(15):26"/>
			</v:userDefs>
			<v:textBlock v:margins="rect(4,4,4,4)" v:tabSpace="42.5197"/>
			<v:textRect cx="16.624" cy="451.37" width="33.25" height="47.1178"/>
			<rect x="0" y="427.811" width="33.2481" height="47.1178" class="st1"/>
			<text x="6.66" y="445.97" class="st2" v:langID="2052"><v:paragraph v:horizAlign="1"/><v:tabList/>27<v:newlineChar/><tspan
						x="11.64" dy="1.2em" class="st3">0</tspan></text>		</g>
		<g id="shape270-220" v:mID="270" v:groupContext="shape" transform="translate(387.745,-212.946)">
			<title>矩形.270</title>
			<desc>21 0</desc>
			<v:userDefs>
				<v:ud v:nameU="visVersion" v:val="VT0(15):26"/>
			</v:userDefs>
			<v:textBlock v:margins="rect(4,4,4,4)" v:tabSpace="42.5197"/>
			<v:textRect cx="16.624" cy="451.37" width="33.25" height="47.1178"/>
			<rect x="0" y="427.811" width="33.2481" height="47.1178" class="st1"/>
			<text x="6.66" y="445.97" class="st2" v:langID="2052"><v:paragraph v:horizAlign="1"/><v:tabList/>21<v:newlineChar/><tspan
						x="11.64" dy="1.2em" class="st3">0</tspan></text>		</g>
		<g id="shape271-224" v:mID="271" v:groupContext="shape" transform="translate(472.537,-212.946)">
			<title>矩形.271</title>
			<desc>16 0</desc>
			<v:userDefs>
				<v:ud v:nameU="visVersion" v:val="VT0(15):26"/>
			</v:userDefs>
			<v:textBlock v:margins="rect(4,4,4,4)" v:tabSpace="42.5197"/>
			<v:textRect cx="16.624" cy="451.37" width="33.25" height="47.1178"/>
			<rect x="0" y="427.811" width="33.2481" height="47.1178" class="st1"/>
			<text x="6.66" y="445.97" class="st2" v:langID="2052"><v:paragraph v:horizAlign="1"/><v:tabList/>16<v:newlineChar/><tspan
						x="11.64" dy="1.2em" class="st3">0</tspan></text>		</g>
		<g id="shape272-228" v:mID="272" v:groupContext="shape" transform="translate(563.625,-212.946)">
			<title>矩形.272</title>
			<desc>31 1</desc>
			<v:userDefs>
				<v:ud v:nameU="visVersion" v:val="VT0(15):26"/>
			</v:userDefs>
			<v:textBlock v:margins="rect(4,4,4,4)" v:tabSpace="42.5197"/>
			<v:textRect cx="16.624" cy="451.37" width="33.25" height="47.1178"/>
			<rect x="0" y="427.811" width="33.2481" height="47.1178" class="st1"/>
			<text x="6.66" y="445.97" class="st2" v:langID="2052"><v:paragraph v:horizAlign="1"/><v:tabList/>31<v:newlineChar/><tspan
						x="11.64" dy="1.2em" class="st3">1</tspan></text>		</g>
		<g id="shape273-232" v:mID="273" v:groupContext="shape" transform="translate(679.108,-212.946)">
			<title>矩形.273</title>
			<desc>26 0</desc>
			<v:userDefs>
				<v:ud v:nameU="visVersion" v:val="VT0(15):26"/>
			</v:userDefs>
			<v:textBlock v:margins="rect(4,4,4,4)" v:tabSpace="42.5197"/>
			<v:textRect cx="16.624" cy="451.37" width="33.25" height="47.1178"/>
			<rect x="0" y="427.811" width="33.2481" height="47.1178" class="st1"/>
			<text x="6.66" y="445.97" class="st2" v:langID="2052"><v:paragraph v:horizAlign="1"/><v:tabList/>26<v:newlineChar/><tspan
						x="11.64" dy="1.2em" class="st3">0</tspan></text>		</g>
		<g id="group274-236" transform="translate(841.093,414.059) rotate(124.212)" v:mID="274" v:groupContext="group">
			<v:userDefs>
				<v:ud v:nameU="visVersion" v:val="VT0(15):26"/>
			</v:userDefs>
			<title>一维单向箭头.274</title>
			<g id="shape275-237" v:mID="275" v:groupContext="shape">
				<title>工作表.275</title>
				<path d="M0 474.04 L79.94 474.04 L79.94 474.93 L80.83 473.15 L79.94 471.38 L79.94 472.27 L0 472.27 L0 474.04 Z"
						class="st4"/>
				<path d="M0 474.04 L79.94 474.04 L79.94 474.93 L80.83 473.15 L79.94 471.38 L79.94 472.27 L0 472.27" class="st5"/>
			</g>
			<g id="shape276-240" v:mID="276" v:groupContext="shape">
				<title>工作表.276</title>
				<path d="M0 474.04 L79.94 474.04 L79.94 474.93 L80.83 473.15 L79.94 471.38 L79.94 472.27 L0 472.27 L0 474.04"
						class="st6"/>
			</g>
			<g id="shape277-243" v:mID="277" v:groupContext="shape" transform="translate(-1.03638,-0.902723)">
				<title>工作表.277</title>
				<rect x="0" y="473.183" width="0.456221" height="1.74532" class="st7"/>
			</g>
		</g>
		<g id="group278-245" transform="translate(857.564,-92.0053) rotate(59.516)" v:mID="278" v:groupContext="group">
			<v:userDefs>
				<v:ud v:nameU="visVersion" v:val="VT0(15):26"/>
			</v:userDefs>
			<title>一维单向箭头.278</title>
			<g id="shape279-246" v:mID="279" v:groupContext="shape">
				<title>工作表.279</title>
				<path d="M0 474.04 L76.67 474.04 L76.67 474.93 L77.56 473.15 L76.67 471.38 L76.67 472.27 L0 472.27 L0 474.04 Z"
						class="st4"/>
				<path d="M0 474.04 L76.67 474.04 L76.67 474.93 L77.56 473.15 L76.67 471.38 L76.67 472.27 L0 472.27" class="st5"/>
			</g>
			<g id="shape280-249" v:mID="280" v:groupContext="shape">
				<title>工作表.280</title>
				<path d="M0 474.04 L76.67 474.04 L76.67 474.93 L77.56 473.15 L76.67 471.38 L76.67 472.27 L0 472.27 L0 474.04"
						class="st6"/>
			</g>
			<g id="shape281-252" v:mID="281" v:groupContext="shape" transform="translate(-0.994513,-0.902723)">
				<title>工作表.281</title>
				<rect x="0" y="473.183" width="0.437793" height="1.74532" class="st7"/>
			</g>
		</g>
		<g id="group282-254" transform="translate(1009.68,430.259) rotate(126.619)" v:mID="282" v:groupContext="group">
			<v:userDefs>
				<v:ud v:nameU="visVersion" v:val="VT0(15):26"/>
			</v:userDefs>
			<title>一维单向箭头.282</title>
			<g id="shape283-255" v:mID="283" v:groupContext="shape">
				<title>工作表.283</title>
				<path d="M0 474.04 L82.39 474.04 L82.39 474.93 L83.28 473.15 L82.39 471.38 L82.39 472.27 L0 472.27 L0 474.04 Z"
						class="st4"/>
				<path d="M0 474.04 L82.39 474.04 L82.39 474.93 L83.28 473.15 L82.39 471.38 L82.39 472.27 L0 472.27" class="st5"/>
			</g>
			<g id="shape284-258" v:mID="284" v:groupContext="shape">
				<title>工作表.284</title>
				<path d="M0 474.04 L82.39 474.04 L82.39 474.93 L83.28 473.15 L82.39 471.38 L82.39 472.27 L0 472.27 L0 474.04"
						class="st6"/>
			</g>
			<g id="shape285-261" v:mID="285" v:groupContext="shape" transform="translate(-1.06781,-0.902723)">
				<title>工作表.285</title>
				<rect x="0" y="473.183" width="0.47006" height="1.74532" class="st7"/>
			</g>
		</g>
		<g id="group286-263" transform="translate(967.089,-183.931) rotate(45.4461)" v:mID="286" v:groupContext="group">
			<v:userDefs>
				<v:ud v:nameU="visVersion" v:val="VT0(15):26"/>
			</v:userDefs>
			<title>一维单向箭头.286</title>
			<g id="shape287-264" v:mID="287" v:groupContext="shape">
				<title>工作表.287</title>
				<path d="M0 474.04 L92.91 474.04 L92.91 474.93 L93.8 473.15 L92.91 471.38 L92.91 472.27 L0 472.27 L0 474.04 Z"
						class="st4"/>
				<path d="M0 474.04 L92.91 474.04 L92.91 474.93 L93.8 473.15 L92.91 471.38 L92.91 472.27 L0 472.27" class="st5"/>
			</g>
			<g id="shape288-267" v:mID="288" v:groupContext="shape">
				<title>工作表.288</title>
				<path d="M0 474.04 L92.91 474.04 L92.91 474.93 L93.8 473.15 L92.91 471.38 L92.91 472.27 L0 472.27 L0 474.04"
						class="st6"/>
			</g>
			<g id="shape289-270" v:mID="289" v:groupContext="shape" transform="translate(-1.20271,-0.902723)">
				<title>工作表.289</title>
				<rect x="0" y="473.183" width="0.529444" height="1.74532" class="st7"/>
			</g>
		</g>
		<g id="group290-272" transform="translate(977.857,518.461) rotate(122.824)" v:mID="290" v:groupContext="group">
			<v:userDefs>
				<v:ud v:nameU="visVersion" v:val="VT0(15):26"/>
			</v:userDefs>
			<title>一维单向箭头.290</title>
			<g id="shape291-273" v:mID="291" v:groupContext="shape">
				<title>工作表.291</title>
				<path d="M0 474.04 L69.52 474.04 L69.52 474.93 L70.41 473.15 L69.52 471.38 L69.52 472.27 L0 472.27 L0 474.04 Z"
						class="st4"/>
				<path d="M0 474.04 L69.52 474.04 L69.52 474.93 L70.41 473.15 L69.52 471.38 L69.52 472.27 L0 472.27" class="st5"/>
			</g>
			<g id="shape292-276" v:mID="292" v:groupContext="shape">
				<title>工作表.292</title>
				<path d="M0 474.04 L69.52 474.04 L69.52 474.93 L70.41 473.15 L69.52 471.38 L69.52 472.27 L0 472.27 L0 474.04"
						class="st6"/>
			</g>
			<g id="shape293-279" v:mID="293" v:groupContext="shape" transform="translate(-0.902807,-0.902723)">
				<title>工作表.293</title>
				<rect x="0" y="473.183" width="0.397423" height="1.74532" class="st7"/>
			</g>
		</g>
		<g id="group294-281" transform="translate(1002.25,47.9997) rotate(63.112)" v:mID="294" v:groupContext="group">
			<v:userDefs>
				<v:ud v:nameU="visVersion" v:val="VT0(15):26"/>
			</v:userDefs>
			<title>一维单向箭头.294</title>
			<g id="shape295-282" v:mID="295" v:groupContext="shape">
				<title>工作表.295</title>
				<path d="M0 474.04 L65.45 474.04 L65.45 474.93 L66.34 473.15 L65.45 471.38 L65.45 472.27 L0 472.27 L0 474.04 Z"
						class="st4"/>
				<path d="M0 474.04 L65.45 474.04 L65.45 474.93 L66.34 473.15 L65.45 471.38 L65.45 472.27 L0 472.27" class="st5"/>
			</g>
			<g id="shape296-285" v:mID="296" v:groupContext="shape">
				<title>工作表.296</title>
				<path d="M0 474.04 L65.45 474.04 L65.45 474.93 L66.34 473.15 L65.45 471.38 L65.45 472.27 L0 472.27 L0 474.04"
						class="st6"/>
			</g>
			<g id="shape297-288" v:mID="297" v:groupContext="shape" transform="translate(-0.850621,-0.902723)">
				<title>工作表.297</title>
				<rect x="0" y="473.183" width="0.37445" height="1.74532" class="st7"/>
			</g>
		</g>
		<g id="group298-290" transform="translate(1137.43,431.613) rotate(111.009)" v:mID="298" v:groupContext="group">
			<v:userDefs>
				<v:ud v:nameU="visVersion" v:val="VT0(15):26"/>
			</v:userDefs>
			<title>一维单向箭头.298</title>
			<g id="shape299-291" v:mID="299" v:groupContext="shape">
				<title>工作表.299</title>
				<path d="M0 474.04 L62.49 474.04 L62.49 474.93 L63.38 473.15 L62.49 471.38 L62.49 472.27 L0 472.27 L0 474.04 Z"
						class="st4"/>
				<path d="M0 474.04 L62.49 474.04 L62.49 474.93 L63.38 473.15 L62.49 471.38 L62.49 472.27 L0 472.27" class="st5"/>
			</g>
			<g id="shape300-294" v:mID="300" v:groupContext="shape">
				<title>工作表.300</title>
				<path d="M0 474.04 L62.49 474.04 L62.49 474.93 L63.38 473.15 L62.49 471.38 L62.49 472.27 L0 472.27 L0 474.04"
						class="st6"/>
			</g>
			<g id="shape301-297" v:mID="301" v:groupContext="shape" transform="translate(-0.812685,-0.902723)">
				<title>工作表.301</title>
				<rect x="0" y="473.183" width="0.357751" height="1.74532" class="st7"/>
			</g>
		</g>
		<g id="group302-299" transform="translate(974.01,561.432) rotate(114.095)" v:mID="302" v:groupContext="group">
			<v:userDefs>
				<v:ud v:nameU="visVersion" v:val="VT0(15):26"/>
			</v:userDefs>
			<title>一维单向箭头.302</title>
			<g id="shape303-300" v:mID="303" v:groupContext="shape">
				<title>工作表.303</title>
				<path d="M0 474.04 L63.93 474.04 L63.93 474.93 L64.82 473.15 L63.93 471.38 L63.93 472.27 L0 472.27 L0 474.04 Z"
						class="st4"/>
				<path d="M0 474.04 L63.93 474.04 L63.93 474.93 L64.82 473.15 L63.93 471.38 L63.93 472.27 L0 472.27" class="st5"/>
			</g>
			<g id="shape304-303" v:mID="304" v:groupContext="shape">
				<title>工作表.304</title>
				<path d="M0 474.04 L63.93 474.04 L63.93 474.93 L64.82 473.15 L63.93 471.38 L63.93 472.27 L0 472.27 L0 474.04"
						class="st6"/>
			</g>
			<g id="shape305-306" v:mID="305" v:groupContext="shape" transform="translate(-0.831074,-0.902723)">
				<title>工作表.305</title>
				<rect x="0" y="473.183" width="0.365845" height="1.74532" class="st7"/>
			</g>
		</g>
	</g>
</svg>
