<?xml version="1.0" encoding="UTF-8" standalone="no"?>
<!DOCTYPE svg PUBLIC "-//W3C//DTD SVG 1.1//EN" "http://www.w3.org/Graphics/SVG/1.1/DTD/svg11.dtd">
<!-- 由 Microsoft Visio, SVG Export 生成 PrefixTree1.svg 页-1 -->
<svg xmlns="http://www.w3.org/2000/svg" xmlns:xlink="http://www.w3.org/1999/xlink" xmlns:ev="http://www.w3.org/2001/xml-events"
		xmlns:v="http://schemas.microsoft.com/visio/2003/SVGExtensions/" width="7.48822in" height="5.70839in"
		viewBox="0 0 539.152 411.004" xml:space="preserve" color-interpolation-filters="sRGB" class="st7">
	<v:documentProperties v:langID="2052" v:metric="true" v:viewMarkup="false"/>

	<style type="text/css">
	<![CDATA[
		.st1 {fill:#ffffff;stroke:#000000;stroke-linecap:round;stroke-linejoin:round;stroke-width:0.75}
		.st2 {fill:#000000;font-family:Cambria Math;font-size:1.5em}
		.st3 {fill:#ffffff}
		.st4 {stroke:none;stroke-linecap:round;stroke-linejoin:round;stroke-width:0.75}
		.st5 {stroke:#000000;stroke-linecap:round;stroke-linejoin:round;stroke-width:0.24}
		.st6 {fill:#ffffff;stroke:none;stroke-linecap:round;stroke-linejoin:round;stroke-width:0.24;visibility:hidden}
		.st7 {fill:none;fill-rule:evenodd;font-size:12px;overflow:visible;stroke-linecap:square;stroke-miterlimit:3}
	]]>
	</style>

	<g v:mID="0" v:index="1" v:groupContext="foregroundPage">
		<title>页-1</title>
		<v:pageProperties v:drawingScale="0.0393701" v:pageScale="0.0393701" v:drawingUnits="24" v:shadowOffsetX="8.50394"
				v:shadowOffsetY="-8.50394"/>
		<g id="shape2-1" v:mID="2" v:groupContext="shape" transform="translate(339.78,-364.448)">
			<title>矩形</title>
			<desc>root</desc>
			<v:userDefs>
				<v:ud v:nameU="visVersion" v:val="VT0(15):26"/>
			</v:userDefs>
			<v:textBlock v:margins="rect(4,4,4,4)" v:tabSpace="42.5197"/>
			<v:textRect cx="23.5724" cy="387.914" width="47.15" height="46.1806"/>
			<rect x="0" y="364.823" width="47.1447" height="46.1806" class="st1"/>
			<text x="7.25" y="393.31" class="st2" v:langID="2052"><v:paragraph v:horizAlign="1"/><v:tabList/>root</text>		</g>
		<g id="shape3-4" v:mID="3" v:groupContext="shape" transform="translate(285.148,-295.591)">
			<title>矩形.3</title>
			<desc>a</desc>
			<v:userDefs>
				<v:ud v:nameU="visVersion" v:val="VT0(15):26"/>
			</v:userDefs>
			<v:textBlock v:margins="rect(4,4,4,4)" v:tabSpace="42.5197"/>
			<v:textRect cx="16.2934" cy="387.914" width="32.59" height="46.1806"/>
			<rect x="0" y="364.823" width="32.5868" height="46.1806" class="st1"/>
			<text x="11.9" y="393.31" class="st2" v:langID="2052"><v:paragraph v:horizAlign="1"/><v:tabList/>a</text>		</g>
		<g id="shape4-7" v:mID="4" v:groupContext="shape" transform="translate(415.978,-295.591)">
			<title>矩形.4</title>
			<desc>...</desc>
			<v:userDefs>
				<v:ud v:nameU="visVersion" v:val="VT0(15):26"/>
			</v:userDefs>
			<v:textBlock v:margins="rect(4,4,4,4)" v:tabSpace="42.5197"/>
			<v:textRect cx="16.2934" cy="387.914" width="32.59" height="46.1806"/>
			<rect x="0" y="364.823" width="32.5868" height="46.1806" class="st1"/>
			<text x="10.76" y="393.31" class="st2" v:langID="2052"><v:paragraph v:horizAlign="1"/><v:tabList/>...</text>		</g>
		<g id="group12-10" transform="translate(614.336,369.782) rotate(142.171)" v:mID="12" v:groupContext="group">
			<v:userDefs>
				<v:ud v:nameU="visVersion" v:val="VT0(15):26"/>
			</v:userDefs>
			<title>一维单向箭头</title>
			<g id="shape13-11" v:mID="13" v:groupContext="shape">
				<title>工作表.13</title>
				<path d="M0 410.12 L36.09 410.12 L36.09 411 L36.97 409.23 L36.09 407.45 L36.09 408.34 L0 408.34 L0 410.12 Z"
						class="st3"/>
				<path d="M0 410.12 L36.09 410.12 L36.09 411 L36.97 409.23 L36.09 407.45 L36.09 408.34 L0 408.34" class="st4"/>
			</g>
			<g id="shape14-14" v:mID="14" v:groupContext="shape">
				<title>工作表.14</title>
				<path d="M0 410.12 L36.09 410.12 L36.09 411 L36.97 409.23 L36.09 407.45 L36.09 408.34 L0 408.34 L0 410.12"
						class="st5"/>
			</g>
			<g id="shape15-17" v:mID="15" v:groupContext="shape" transform="translate(-0.474085,-0.902723)">
				<title>工作表.15</title>
				<rect x="0" y="409.259" width="0.208696" height="1.74532" class="st6"/>
			</g>
		</g>
		<g id="group16-19" transform="translate(580.546,-300.28) rotate(32.0554)" v:mID="16" v:groupContext="group">
			<v:userDefs>
				<v:ud v:nameU="visVersion" v:val="VT0(15):26"/>
			</v:userDefs>
			<title>一维单向箭头.16</title>
			<g id="shape17-20" v:mID="17" v:groupContext="shape">
				<title>工作表.17</title>
				<path d="M0 410.12 L41.84 410.12 L41.84 411 L42.73 409.23 L41.84 407.45 L41.84 408.34 L0 408.34 L0 410.12 Z"
						class="st3"/>
				<path d="M0 410.12 L41.84 410.12 L41.84 411 L42.73 409.23 L41.84 407.45 L41.84 408.34 L0 408.34" class="st4"/>
			</g>
			<g id="shape18-23" v:mID="18" v:groupContext="shape">
				<title>工作表.18</title>
				<path d="M0 410.12 L41.84 410.12 L41.84 411 L42.73 409.23 L41.84 407.45 L41.84 408.34 L0 408.34 L0 410.12"
						class="st5"/>
			</g>
			<g id="shape19-26" v:mID="19" v:groupContext="shape" transform="translate(-0.547841,-0.902723)">
				<title>工作表.19</title>
				<rect x="0" y="409.259" width="0.241164" height="1.74532" class="st6"/>
			</g>
		</g>
		<g id="group23-28" transform="translate(417.891,515.981) rotate(168.192)" v:mID="23" v:groupContext="group">
			<v:userDefs>
				<v:ud v:nameU="visVersion" v:val="VT0(15):26"/>
			</v:userDefs>
			<title>一维单向箭头.23</title>
			<g id="shape24-29" v:mID="24" v:groupContext="shape">
				<title>工作表.24</title>
				<path d="M0 410.12 L103.87 410.12 L103.87 411 L104.76 409.23 L103.87 407.45 L103.87 408.34 L0 408.34 L0 410.12 Z"
						class="st3"/>
				<path d="M0 410.12 L103.87 410.12 L103.87 411 L104.76 409.23 L103.87 407.45 L103.87 408.34 L0 408.34" class="st4"/>
			</g>
			<g id="shape25-32" v:mID="25" v:groupContext="shape">
				<title>工作表.25</title>
				<path d="M0 410.12 L103.87 410.12 L103.87 411 L104.76 409.23 L103.87 407.45 L103.87 408.34 L0 408.34 L0 410.12"
						class="st5"/>
			</g>
			<g id="shape26-35" v:mID="26" v:groupContext="shape" transform="translate(-1.34326,-0.902723)">
				<title>工作表.26</title>
				<rect x="0" y="409.259" width="0.591314" height="1.74532" class="st6"/>
			</g>
		</g>
		<g id="group27-37" transform="translate(538.775,469.808) rotate(149.998)" v:mID="27" v:groupContext="group">
			<v:userDefs>
				<v:ud v:nameU="visVersion" v:val="VT0(15):26"/>
			</v:userDefs>
			<title>一维单向箭头.27</title>
			<g id="shape28-38" v:mID="28" v:groupContext="shape">
				<title>工作表.28</title>
				<path d="M0 410.12 L41.99 410.12 L41.99 411 L42.87 409.23 L41.99 407.45 L41.99 408.34 L0 408.34 L0 410.12 Z"
						class="st3"/>
				<path d="M0 410.12 L41.99 410.12 L41.99 411 L42.87 409.23 L41.99 407.45 L41.99 408.34 L0 408.34" class="st4"/>
			</g>
			<g id="shape29-41" v:mID="29" v:groupContext="shape">
				<title>工作表.29</title>
				<path d="M0 410.12 L41.99 410.12 L41.99 411 L42.87 409.23 L41.99 407.45 L41.99 408.34 L0 408.34 L0 410.12"
						class="st5"/>
			</g>
			<g id="shape30-44" v:mID="30" v:groupContext="shape" transform="translate(-0.549727,-0.902723)">
				<title>工作表.30</title>
				<rect x="0" y="409.259" width="0.241994" height="1.74532" class="st6"/>
			</g>
		</g>
		<g id="group43-46" transform="translate(314.69,583.737) rotate(168.286)" v:mID="43" v:groupContext="group">
			<v:userDefs>
				<v:ud v:nameU="visVersion" v:val="VT0(15):26"/>
			</v:userDefs>
			<title>一维单向箭头.43</title>
			<g id="shape44-47" v:mID="44" v:groupContext="shape">
				<title>工作表.44</title>
				<path d="M0 410.12 L120.7 410.12 L120.7 411 L121.59 409.23 L120.7 407.45 L120.7 408.34 L0 408.34 L0 410.12 Z"
						class="st3"/>
				<path d="M0 410.12 L120.7 410.12 L120.7 411 L121.59 409.23 L120.7 407.45 L120.7 408.34 L0 408.34" class="st4"/>
			</g>
			<g id="shape45-50" v:mID="45" v:groupContext="shape">
				<title>工作表.45</title>
				<path d="M0 410.12 L120.7 410.12 L120.7 411 L121.59 409.23 L120.7 407.45 L120.7 408.34 L0 408.34 L0 410.12"
						class="st5"/>
			</g>
			<g id="shape46-53" v:mID="46" v:groupContext="shape" transform="translate(-1.55902,-0.902723)">
				<title>工作表.46</title>
				<rect x="0" y="409.259" width="0.686293" height="1.74532" class="st6"/>
			</g>
		</g>
		<g id="group47-55" transform="translate(402.688,554.782) rotate(155.288)" v:mID="47" v:groupContext="group">
			<v:userDefs>
				<v:ud v:nameU="visVersion" v:val="VT0(15):26"/>
			</v:userDefs>
			<title>一维单向箭头.47</title>
			<g id="shape48-56" v:mID="48" v:groupContext="shape">
				<title>工作表.48</title>
				<path d="M0 410.12 L58.16 410.12 L58.16 411 L59.05 409.23 L58.16 407.45 L58.16 408.34 L0 408.34 L0 410.12 Z"
						class="st3"/>
				<path d="M0 410.12 L58.16 410.12 L58.16 411 L59.05 409.23 L58.16 407.45 L58.16 408.34 L0 408.34" class="st4"/>
			</g>
			<g id="shape49-59" v:mID="49" v:groupContext="shape">
				<title>工作表.49</title>
				<path d="M0 410.12 L58.16 410.12 L58.16 411 L59.05 409.23 L58.16 407.45 L58.16 408.34 L0 408.34 L0 410.12"
						class="st5"/>
			</g>
			<g id="shape50-62" v:mID="50" v:groupContext="shape" transform="translate(-0.757122,-0.902723)">
				<title>工作表.50</title>
				<rect x="0" y="409.259" width="0.333291" height="1.74532" class="st6"/>
			</g>
		</g>
		<g id="group53-64" transform="translate(390.484,554.265) rotate(137.222)" v:mID="53" v:groupContext="group">
			<v:userDefs>
				<v:ud v:nameU="visVersion" v:val="VT0(15):26"/>
			</v:userDefs>
			<title>一维单向箭头.53</title>
			<g id="shape54-65" v:mID="54" v:groupContext="shape">
				<title>工作表.54</title>
				<path d="M0 410.12 L43.81 410.12 L43.81 411 L44.69 409.23 L43.81 407.45 L43.81 408.34 L0 408.34 L0 410.12 Z"
						class="st3"/>
				<path d="M0 410.12 L43.81 410.12 L43.81 411 L44.69 409.23 L43.81 407.45 L43.81 408.34 L0 408.34" class="st4"/>
			</g>
			<g id="shape55-68" v:mID="55" v:groupContext="shape">
				<title>工作表.55</title>
				<path d="M0 410.12 L43.81 410.12 L43.81 411 L44.69 409.23 L43.81 407.45 L43.81 408.34 L0 408.34 L0 410.12"
						class="st5"/>
			</g>
			<g id="shape56-71" v:mID="56" v:groupContext="shape" transform="translate(-0.57308,-0.902723)">
				<title>工作表.56</title>
				<rect x="0" y="409.259" width="0.252275" height="1.74532" class="st6"/>
			</g>
		</g>
		<g id="group125-73" transform="translate(577.921,-114.564) rotate(43.347)" v:mID="125" v:groupContext="group">
			<v:userDefs>
				<v:ud v:nameU="visVersion" v:val="VT0(15):26"/>
			</v:userDefs>
			<title>一维单向箭头.125</title>
			<g id="shape126-74" v:mID="126" v:groupContext="shape">
				<title>工作表.126</title>
				<path d="M0 410.12 L35.45 410.12 L35.45 411 L36.34 409.23 L35.45 407.45 L35.45 408.34 L0 408.34 L0 410.12 Z"
						class="st3"/>
				<path d="M0 410.12 L35.45 410.12 L35.45 411 L36.34 409.23 L35.45 407.45 L35.45 408.34 L0 408.34" class="st4"/>
			</g>
			<g id="shape127-77" v:mID="127" v:groupContext="shape">
				<title>工作表.127</title>
				<path d="M0 410.12 L35.45 410.12 L35.45 411 L36.34 409.23 L35.45 407.45 L35.45 408.34 L0 408.34 L0 410.12"
						class="st5"/>
			</g>
			<g id="shape128-80" v:mID="128" v:groupContext="shape" transform="translate(-0.46597,-0.902723)">
				<title>工作表.128</title>
				<rect x="0" y="409.259" width="0.205124" height="1.74532" class="st6"/>
			</g>
		</g>
		<g id="group190-82" transform="translate(385.013,602.975) rotate(131.758)" v:mID="190" v:groupContext="group">
			<v:userDefs>
				<v:ud v:nameU="visVersion" v:val="VT0(15):26"/>
			</v:userDefs>
			<title>一维单向箭头.190</title>
			<g id="shape191-83" v:mID="191" v:groupContext="shape">
				<title>工作表.191</title>
				<path d="M0 410.12 L44.71 410.12 L44.71 411 L45.6 409.23 L44.71 407.45 L44.71 408.34 L0 408.34 L0 410.12 Z"
						class="st3"/>
				<path d="M0 410.12 L44.71 410.12 L44.71 411 L45.6 409.23 L44.71 407.45 L44.71 408.34 L0 408.34" class="st4"/>
			</g>
			<g id="shape192-86" v:mID="192" v:groupContext="shape">
				<title>工作表.192</title>
				<path d="M0 410.12 L44.71 410.12 L44.71 411 L45.6 409.23 L44.71 407.45 L44.71 408.34 L0 408.34 L0 410.12"
						class="st5"/>
			</g>
			<g id="shape193-89" v:mID="193" v:groupContext="shape" transform="translate(-0.584693,-0.902723)">
				<title>工作表.193</title>
				<rect x="0" y="409.259" width="0.257386" height="1.74532" class="st6"/>
			</g>
		</g>
		<g id="group195-91" transform="translate(392.455,-94.6172) rotate(31.6098)" v:mID="195" v:groupContext="group">
			<v:userDefs>
				<v:ud v:nameU="visVersion" v:val="VT0(15):26"/>
			</v:userDefs>
			<title>一维单向箭头.195</title>
			<g id="shape196-92" v:mID="196" v:groupContext="shape">
				<title>工作表.196</title>
				<path d="M0 410.12 L57.82 410.12 L57.82 411 L58.7 409.23 L57.82 407.45 L57.82 408.34 L0 408.34 L0 410.12 Z"
						class="st3"/>
				<path d="M0 410.12 L57.82 410.12 L57.82 411 L58.7 409.23 L57.82 407.45 L57.82 408.34 L0 408.34" class="st4"/>
			</g>
			<g id="shape197-95" v:mID="197" v:groupContext="shape">
				<title>工作表.197</title>
				<path d="M0 410.12 L57.82 410.12 L57.82 411 L58.7 409.23 L57.82 407.45 L57.82 408.34 L0 408.34 L0 410.12"
						class="st5"/>
			</g>
			<g id="shape198-98" v:mID="198" v:groupContext="shape" transform="translate(-0.752699,-0.902723)">
				<title>工作表.198</title>
				<rect x="0" y="409.259" width="0.331344" height="1.74532" class="st6"/>
			</g>
		</g>
		<g id="group200-100" transform="translate(494.176,-282.729) rotate(13.3676)" v:mID="200" v:groupContext="group">
			<v:userDefs>
				<v:ud v:nameU="visVersion" v:val="VT0(15):26"/>
			</v:userDefs>
			<title>一维单向箭头.200</title>
			<g id="shape201-101" v:mID="201" v:groupContext="shape">
				<title>工作表.201</title>
				<path d="M0 410.12 L91.84 410.12 L91.84 411 L92.72 409.23 L91.84 407.45 L91.84 408.34 L0 408.34 L0 410.12 Z"
						class="st3"/>
				<path d="M0 410.12 L91.84 410.12 L91.84 411 L92.72 409.23 L91.84 407.45 L91.84 408.34 L0 408.34" class="st4"/>
			</g>
			<g id="shape202-104" v:mID="202" v:groupContext="shape">
				<title>工作表.202</title>
				<path d="M0 410.12 L91.84 410.12 L91.84 411 L92.72 409.23 L91.84 407.45 L91.84 408.34 L0 408.34 L0 410.12"
						class="st5"/>
			</g>
			<g id="shape203-107" v:mID="203" v:groupContext="shape" transform="translate(-1.18894,-0.902723)">
				<title>工作表.203</title>
				<rect x="0" y="409.259" width="0.523379" height="1.74532" class="st6"/>
			</g>
		</g>
		<g id="group205-109" transform="translate(698.655,534.937) rotate(149.308)" v:mID="205" v:groupContext="group">
			<v:userDefs>
				<v:ud v:nameU="visVersion" v:val="VT0(15):26"/>
			</v:userDefs>
			<title>一维单向箭头.205</title>
			<g id="shape206-110" v:mID="206" v:groupContext="shape">
				<title>工作表.206</title>
				<path d="M0 410.12 L49.14 410.12 L49.14 411 L50.03 409.23 L49.14 407.45 L49.14 408.34 L0 408.34 L0 410.12 Z"
						class="st3"/>
				<path d="M0 410.12 L49.14 410.12 L49.14 411 L50.03 409.23 L49.14 407.45 L49.14 408.34 L0 408.34" class="st4"/>
			</g>
			<g id="shape207-113" v:mID="207" v:groupContext="shape">
				<title>工作表.207</title>
				<path d="M0 410.12 L49.14 410.12 L49.14 411 L50.03 409.23 L49.14 407.45 L49.14 408.34 L0 408.34 L0 410.12"
						class="st5"/>
			</g>
			<g id="shape208-116" v:mID="208" v:groupContext="shape" transform="translate(-0.641486,-0.902723)">
				<title>工作表.208</title>
				<rect x="0" y="409.259" width="0.282387" height="1.74532" class="st6"/>
			</g>
		</g>
		<g id="shape209-118" v:mID="209" v:groupContext="shape" transform="translate(317.855,-295.591)">
			<title>矩形.209</title>
			<desc>b</desc>
			<v:userDefs>
				<v:ud v:nameU="visVersion" v:val="VT0(15):26"/>
			</v:userDefs>
			<v:textBlock v:margins="rect(4,4,4,4)" v:tabSpace="42.5197"/>
			<v:textRect cx="16.2934" cy="387.914" width="32.59" height="46.1806"/>
			<rect x="0" y="364.823" width="32.5868" height="46.1806" class="st1"/>
			<text x="11.37" y="393.31" class="st2" v:langID="2052"><v:paragraph v:horizAlign="1"/><v:tabList/>b</text>		</g>
		<g id="shape210-121" v:mID="210" v:groupContext="shape" transform="translate(350.563,-295.591)">
			<title>矩形.210</title>
			<desc>c</desc>
			<v:userDefs>
				<v:ud v:nameU="visVersion" v:val="VT0(15):26"/>
			</v:userDefs>
			<v:textBlock v:margins="rect(4,4,4,4)" v:tabSpace="42.5197"/>
			<v:textRect cx="16.2934" cy="387.914" width="32.59" height="46.1806"/>
			<rect x="0" y="364.823" width="32.5868" height="46.1806" class="st1"/>
			<text x="12.33" y="393.31" class="st2" v:langID="2052"><v:paragraph v:horizAlign="1"/><v:tabList/>c</text>		</g>
		<g id="shape211-124" v:mID="211" v:groupContext="shape" transform="translate(383.27,-295.591)">
			<title>矩形.211</title>
			<desc>d</desc>
			<v:userDefs>
				<v:ud v:nameU="visVersion" v:val="VT0(15):26"/>
			</v:userDefs>
			<v:textBlock v:margins="rect(4,4,4,4)" v:tabSpace="42.5197"/>
			<v:textRect cx="16.2934" cy="387.914" width="32.59" height="46.1806"/>
			<rect x="0" y="364.823" width="32.5868" height="46.1806" class="st1"/>
			<text x="11.3" y="393.31" class="st2" v:langID="2052"><v:paragraph v:horizAlign="1"/><v:tabList/>d</text>		</g>
		<g id="shape212-127" v:mID="212" v:groupContext="shape" transform="translate(182.604,-227.973)">
			<title>矩形.212</title>
			<desc>...</desc>
			<v:userDefs>
				<v:ud v:nameU="visVersion" v:val="VT0(15):26"/>
			</v:userDefs>
			<v:textBlock v:margins="rect(4,4,4,4)" v:tabSpace="42.5197"/>
			<v:textRect cx="16.2934" cy="387.914" width="32.59" height="46.1806"/>
			<rect x="0" y="364.823" width="32.5868" height="46.1806" class="st1"/>
			<text x="10.76" y="393.31" class="st2" v:langID="2052"><v:paragraph v:horizAlign="1"/><v:tabList/>...</text>		</g>
		<g id="shape213-130" v:mID="213" v:groupContext="shape" transform="translate(313.434,-227.973)">
			<title>矩形.213</title>
			<desc>...</desc>
			<v:userDefs>
				<v:ud v:nameU="visVersion" v:val="VT0(15):26"/>
			</v:userDefs>
			<v:textBlock v:margins="rect(4,4,4,4)" v:tabSpace="42.5197"/>
			<v:textRect cx="16.2934" cy="387.914" width="32.59" height="46.1806"/>
			<rect x="0" y="364.823" width="32.5868" height="46.1806" class="st1"/>
			<text x="10.76" y="393.31" class="st2" v:langID="2052"><v:paragraph v:horizAlign="1"/><v:tabList/>...</text>		</g>
		<g id="shape214-133" v:mID="214" v:groupContext="shape" transform="translate(215.312,-227.973)">
			<title>矩形.214</title>
			<desc>i</desc>
			<v:userDefs>
				<v:ud v:nameU="visVersion" v:val="VT0(15):26"/>
			</v:userDefs>
			<v:textBlock v:margins="rect(4,4,4,4)" v:tabSpace="42.5197"/>
			<v:textRect cx="16.2934" cy="387.914" width="32.59" height="46.1806"/>
			<rect x="0" y="364.823" width="32.5868" height="46.1806" class="st1"/>
			<text x="13.79" y="393.31" class="st2" v:langID="2052"><v:paragraph v:horizAlign="1"/><v:tabList/>i</text>		</g>
		<g id="shape215-136" v:mID="215" v:groupContext="shape" transform="translate(248.019,-227.973)">
			<title>矩形.215</title>
			<desc>...</desc>
			<v:userDefs>
				<v:ud v:nameU="visVersion" v:val="VT0(15):26"/>
			</v:userDefs>
			<v:textBlock v:margins="rect(4,4,4,4)" v:tabSpace="42.5197"/>
			<v:textRect cx="16.2934" cy="387.914" width="32.59" height="46.1806"/>
			<rect x="0" y="364.823" width="32.5868" height="46.1806" class="st1"/>
			<text x="10.76" y="393.31" class="st2" v:langID="2052"><v:paragraph v:horizAlign="1"/><v:tabList/>...</text>		</g>
		<g id="shape216-139" v:mID="216" v:groupContext="shape" transform="translate(280.727,-227.973)">
			<title>矩形.216</title>
			<desc>o</desc>
			<v:userDefs>
				<v:ud v:nameU="visVersion" v:val="VT0(15):26"/>
			</v:userDefs>
			<v:textBlock v:margins="rect(4,4,4,4)" v:tabSpace="42.5197"/>
			<v:textRect cx="16.2934" cy="387.914" width="32.59" height="46.1806"/>
			<rect x="0" y="364.823" width="32.5868" height="46.1806" class="st1"/>
			<text x="11.52" y="393.31" class="st2" v:langID="2052"><v:paragraph v:horizAlign="1"/><v:tabList/>o</text>		</g>
		<g id="shape221-142" v:mID="221" v:groupContext="shape" transform="translate(506.19,-227.973)">
			<title>矩形.221</title>
			<desc>...</desc>
			<v:userDefs>
				<v:ud v:nameU="visVersion" v:val="VT0(15):26"/>
			</v:userDefs>
			<v:textBlock v:margins="rect(4,4,4,4)" v:tabSpace="42.5197"/>
			<v:textRect cx="16.2934" cy="387.914" width="32.59" height="46.1806"/>
			<rect x="0" y="364.823" width="32.5868" height="46.1806" class="st1"/>
			<text x="10.76" y="393.31" class="st2" v:langID="2052"><v:paragraph v:horizAlign="1"/><v:tabList/>...</text>		</g>
		<g id="shape223-145" v:mID="223" v:groupContext="shape" transform="translate(440.775,-227.973)">
			<title>矩形.223</title>
			<desc>...</desc>
			<v:userDefs>
				<v:ud v:nameU="visVersion" v:val="VT0(15):26"/>
			</v:userDefs>
			<v:textBlock v:margins="rect(4,4,4,4)" v:tabSpace="42.5197"/>
			<v:textRect cx="16.2934" cy="387.914" width="32.59" height="46.1806"/>
			<rect x="0" y="364.823" width="32.5868" height="46.1806" class="st1"/>
			<text x="10.76" y="393.31" class="st2" v:langID="2052"><v:paragraph v:horizAlign="1"/><v:tabList/>...</text>		</g>
		<g id="shape224-148" v:mID="224" v:groupContext="shape" transform="translate(473.483,-227.973)">
			<title>矩形.224</title>
			<desc>o</desc>
			<v:userDefs>
				<v:ud v:nameU="visVersion" v:val="VT0(15):26"/>
			</v:userDefs>
			<v:textBlock v:margins="rect(4,4,4,4)" v:tabSpace="42.5197"/>
			<v:textRect cx="16.2934" cy="387.914" width="32.59" height="46.1806"/>
			<rect x="0" y="364.823" width="32.5868" height="46.1806" class="st1"/>
			<text x="11.52" y="393.31" class="st2" v:langID="2052"><v:paragraph v:horizAlign="1"/><v:tabList/>o</text>		</g>
		<g id="shape227-151" v:mID="227" v:groupContext="shape" transform="translate(63.5492,-157.107)">
			<title>矩形.227</title>
			<desc>...</desc>
			<v:userDefs>
				<v:ud v:nameU="visVersion" v:val="VT0(15):26"/>
			</v:userDefs>
			<v:textBlock v:margins="rect(4,4,4,4)" v:tabSpace="42.5197"/>
			<v:textRect cx="16.2934" cy="387.914" width="32.59" height="46.1806"/>
			<rect x="0" y="364.823" width="32.5868" height="46.1806" class="st1"/>
			<text x="10.76" y="393.31" class="st2" v:langID="2052"><v:paragraph v:horizAlign="1"/><v:tabList/>...</text>		</g>
		<g id="shape228-154" v:mID="228" v:groupContext="shape" transform="translate(194.379,-157.107)">
			<title>矩形.228</title>
			<desc>...</desc>
			<v:userDefs>
				<v:ud v:nameU="visVersion" v:val="VT0(15):26"/>
			</v:userDefs>
			<v:textBlock v:margins="rect(4,4,4,4)" v:tabSpace="42.5197"/>
			<v:textRect cx="16.2934" cy="387.914" width="32.59" height="46.1806"/>
			<rect x="0" y="364.823" width="32.5868" height="46.1806" class="st1"/>
			<text x="10.76" y="393.31" class="st2" v:langID="2052"><v:paragraph v:horizAlign="1"/><v:tabList/>...</text>		</g>
		<g id="shape229-157" v:mID="229" v:groupContext="shape" transform="translate(96.2567,-157.107)">
			<title>矩形.229</title>
			<desc>b</desc>
			<v:userDefs>
				<v:ud v:nameU="visVersion" v:val="VT0(15):26"/>
			</v:userDefs>
			<v:textBlock v:margins="rect(4,4,4,4)" v:tabSpace="42.5197"/>
			<v:textRect cx="16.2934" cy="387.914" width="32.59" height="46.1806"/>
			<rect x="0" y="364.823" width="32.5868" height="46.1806" class="st1"/>
			<text x="11.37" y="393.31" class="st2" v:langID="2052"><v:paragraph v:horizAlign="1"/><v:tabList/>b</text>		</g>
		<g id="shape230-160" v:mID="230" v:groupContext="shape" transform="translate(128.964,-157.107)">
			<title>矩形.230</title>
			<desc>...</desc>
			<v:userDefs>
				<v:ud v:nameU="visVersion" v:val="VT0(15):26"/>
			</v:userDefs>
			<v:textBlock v:margins="rect(4,4,4,4)" v:tabSpace="42.5197"/>
			<v:textRect cx="16.2934" cy="387.914" width="32.59" height="46.1806"/>
			<rect x="0" y="364.823" width="32.5868" height="46.1806" class="st1"/>
			<text x="10.76" y="393.31" class="st2" v:langID="2052"><v:paragraph v:horizAlign="1"/><v:tabList/>...</text>		</g>
		<g id="shape231-163" v:mID="231" v:groupContext="shape" transform="translate(161.672,-157.107)">
			<title>矩形.231</title>
			<desc>l</desc>
			<v:userDefs>
				<v:ud v:nameU="visVersion" v:val="VT0(15):26"/>
			</v:userDefs>
			<v:textBlock v:margins="rect(4,4,4,4)" v:tabSpace="42.5197"/>
			<v:textRect cx="16.2934" cy="387.914" width="32.59" height="46.1806"/>
			<rect x="0" y="364.823" width="32.5868" height="46.1806" class="st1"/>
			<text x="13.85" y="393.31" class="st2" v:langID="2052"><v:paragraph v:horizAlign="1"/><v:tabList/>l</text>		</g>
		<g id="shape235-166" v:mID="235" v:groupContext="shape" transform="translate(274.447,-156.847)">
			<title>矩形.235</title>
			<desc>...</desc>
			<v:userDefs>
				<v:ud v:nameU="visVersion" v:val="VT0(15):26"/>
			</v:userDefs>
			<v:textBlock v:margins="rect(4,4,4,4)" v:tabSpace="42.5197"/>
			<v:textRect cx="16.2934" cy="387.914" width="32.59" height="46.1806"/>
			<rect x="0" y="364.823" width="32.5868" height="46.1806" class="st1"/>
			<text x="10.76" y="393.31" class="st2" v:langID="2052"><v:paragraph v:horizAlign="1"/><v:tabList/>...</text>		</g>
		<g id="shape236-169" v:mID="236" v:groupContext="shape" transform="translate(307.154,-156.847)">
			<title>矩形.236</title>
			<desc>y</desc>
			<v:userDefs>
				<v:ud v:nameU="visVersion" v:val="VT0(15):26"/>
			</v:userDefs>
			<v:textBlock v:margins="rect(4,4,4,4)" v:tabSpace="42.5197"/>
			<v:textRect cx="16.2934" cy="387.914" width="32.59" height="46.1806"/>
			<rect x="0" y="364.823" width="32.5868" height="46.1806" class="st1"/>
			<text x="11.76" y="393.31" class="st2" v:langID="2052"><v:paragraph v:horizAlign="1"/><v:tabList/>y</text>		</g>
		<g id="shape237-172" v:mID="237" v:groupContext="shape" transform="translate(339.862,-156.847)">
			<title>矩形.237</title>
			<desc>z</desc>
			<v:userDefs>
				<v:ud v:nameU="visVersion" v:val="VT0(15):26"/>
			</v:userDefs>
			<v:textBlock v:margins="rect(4,4,4,4)" v:tabSpace="42.5197"/>
			<v:textRect cx="16.2934" cy="387.914" width="32.59" height="46.1806"/>
			<rect x="0" y="364.823" width="32.5868" height="46.1806" class="st1"/>
			<text x="12.2" y="393.31" class="st2" v:langID="2052"><v:paragraph v:horizAlign="1"/><v:tabList/>z</text>		</g>
		<g id="shape238-175" v:mID="238" v:groupContext="shape" transform="translate(397.754,-156.256)">
			<title>矩形.238</title>
			<desc>...</desc>
			<v:userDefs>
				<v:ud v:nameU="visVersion" v:val="VT0(15):26"/>
			</v:userDefs>
			<v:textBlock v:margins="rect(4,4,4,4)" v:tabSpace="42.5197"/>
			<v:textRect cx="16.2934" cy="387.914" width="32.59" height="46.1806"/>
			<rect x="0" y="364.823" width="32.5868" height="46.1806" class="st1"/>
			<text x="10.76" y="393.31" class="st2" v:langID="2052"><v:paragraph v:horizAlign="1"/><v:tabList/>...</text>		</g>
		<g id="shape239-178" v:mID="239" v:groupContext="shape" transform="translate(430.461,-156.256)">
			<title>矩形.239</title>
			<desc>g</desc>
			<v:userDefs>
				<v:ud v:nameU="visVersion" v:val="VT0(15):26"/>
			</v:userDefs>
			<v:textBlock v:margins="rect(4,4,4,4)" v:tabSpace="42.5197"/>
			<v:textRect cx="16.2934" cy="387.914" width="32.59" height="46.1806"/>
			<rect x="0" y="364.823" width="32.5868" height="46.1806" class="st1"/>
			<text x="11.85" y="393.31" class="st2" v:langID="2052"><v:paragraph v:horizAlign="1"/><v:tabList/>g</text>		</g>
		<g id="shape240-181" v:mID="240" v:groupContext="shape" transform="translate(463.169,-156.256)">
			<title>矩形.240</title>
			<desc>...</desc>
			<v:userDefs>
				<v:ud v:nameU="visVersion" v:val="VT0(15):26"/>
			</v:userDefs>
			<v:textBlock v:margins="rect(4,4,4,4)" v:tabSpace="42.5197"/>
			<v:textRect cx="16.2934" cy="387.914" width="32.59" height="46.1806"/>
			<rect x="0" y="364.823" width="32.5868" height="46.1806" class="st1"/>
			<text x="10.76" y="393.31" class="st2" v:langID="2052"><v:paragraph v:horizAlign="1"/><v:tabList/>...</text>		</g>
		<g id="shape242-184" v:mID="242" v:groupContext="shape" transform="translate(30.7442,-80.5714)">
			<title>矩形.242</title>
			<desc>...</desc>
			<v:userDefs>
				<v:ud v:nameU="visVersion" v:val="VT0(15):26"/>
			</v:userDefs>
			<v:textBlock v:margins="rect(4,4,4,4)" v:tabSpace="42.5197"/>
			<v:textRect cx="16.2934" cy="387.914" width="32.59" height="46.1806"/>
			<rect x="0" y="364.823" width="32.5868" height="46.1806" class="st1"/>
			<text x="10.76" y="393.31" class="st2" v:langID="2052"><v:paragraph v:horizAlign="1"/><v:tabList/>...</text>		</g>
		<g id="shape243-187" v:mID="243" v:groupContext="shape" transform="translate(63.4517,-80.5714)">
			<title>矩形.243</title>
			<desc>l</desc>
			<v:userDefs>
				<v:ud v:nameU="visVersion" v:val="VT0(15):26"/>
			</v:userDefs>
			<v:textBlock v:margins="rect(4,4,4,4)" v:tabSpace="42.5197"/>
			<v:textRect cx="16.2934" cy="387.914" width="32.59" height="46.1806"/>
			<rect x="0" y="364.823" width="32.5868" height="46.1806" class="st1"/>
			<text x="13.85" y="393.31" class="st2" v:langID="2052"><v:paragraph v:horizAlign="1"/><v:tabList/>l</text>		</g>
		<g id="shape244-190" v:mID="244" v:groupContext="shape" transform="translate(96.1593,-80.5714)">
			<title>矩形.244</title>
			<desc>...</desc>
			<v:userDefs>
				<v:ud v:nameU="visVersion" v:val="VT0(15):26"/>
			</v:userDefs>
			<v:textBlock v:margins="rect(4,4,4,4)" v:tabSpace="42.5197"/>
			<v:textRect cx="16.2934" cy="387.914" width="32.59" height="46.1806"/>
			<rect x="0" y="364.823" width="32.5868" height="46.1806" class="st1"/>
			<text x="10.76" y="393.31" class="st2" v:langID="2052"><v:paragraph v:horizAlign="1"/><v:tabList/>...</text>		</g>
		<g id="shape249-193" v:mID="249" v:groupContext="shape" transform="translate(178.958,-80.1582)">
			<title>矩形.249</title>
			<desc>...</desc>
			<v:userDefs>
				<v:ud v:nameU="visVersion" v:val="VT0(15):26"/>
			</v:userDefs>
			<v:textBlock v:margins="rect(4,4,4,4)" v:tabSpace="42.5197"/>
			<v:textRect cx="16.2934" cy="387.914" width="32.59" height="46.1806"/>
			<rect x="0" y="364.823" width="32.5868" height="46.1806" class="st1"/>
			<text x="10.76" y="393.31" class="st2" v:langID="2052"><v:paragraph v:horizAlign="1"/><v:tabList/>...</text>		</g>
		<g id="shape250-196" v:mID="250" v:groupContext="shape" transform="translate(211.665,-80.1582)">
			<title>矩形.250</title>
			<desc>l</desc>
			<v:userDefs>
				<v:ud v:nameU="visVersion" v:val="VT0(15):26"/>
			</v:userDefs>
			<v:textBlock v:margins="rect(4,4,4,4)" v:tabSpace="42.5197"/>
			<v:textRect cx="16.2934" cy="387.914" width="32.59" height="46.1806"/>
			<rect x="0" y="364.823" width="32.5868" height="46.1806" class="st1"/>
			<text x="13.85" y="393.31" class="st2" v:langID="2052"><v:paragraph v:horizAlign="1"/><v:tabList/>l</text>		</g>
		<g id="shape251-199" v:mID="251" v:groupContext="shape" transform="translate(244.373,-80.1582)">
			<title>矩形.251</title>
			<desc>...</desc>
			<v:userDefs>
				<v:ud v:nameU="visVersion" v:val="VT0(15):26"/>
			</v:userDefs>
			<v:textBlock v:margins="rect(4,4,4,4)" v:tabSpace="42.5197"/>
			<v:textRect cx="16.2934" cy="387.914" width="32.59" height="46.1806"/>
			<rect x="0" y="364.823" width="32.5868" height="46.1806" class="st1"/>
			<text x="10.76" y="393.31" class="st2" v:langID="2052"><v:paragraph v:horizAlign="1"/><v:tabList/>...</text>		</g>
		<g id="shape252-202" v:mID="252" v:groupContext="shape" transform="translate(0.375,-0.375)">
			<title>矩形.252</title>
			<desc>...</desc>
			<v:userDefs>
				<v:ud v:nameU="visVersion" v:val="VT0(15):26"/>
			</v:userDefs>
			<v:textBlock v:margins="rect(4,4,4,4)" v:tabSpace="42.5197"/>
			<v:textRect cx="16.2934" cy="387.914" width="32.59" height="46.1806"/>
			<rect x="0" y="364.823" width="32.5868" height="46.1806" class="st1"/>
			<text x="10.76" y="393.31" class="st2" v:langID="2052"><v:paragraph v:horizAlign="1"/><v:tabList/>...</text>		</g>
		<g id="shape253-205" v:mID="253" v:groupContext="shape" transform="translate(33.0825,-0.375)">
			<title>矩形.253</title>
			<desc>l</desc>
			<v:userDefs>
				<v:ud v:nameU="visVersion" v:val="VT0(15):26"/>
			</v:userDefs>
			<v:textBlock v:margins="rect(4,4,4,4)" v:tabSpace="42.5197"/>
			<v:textRect cx="16.2934" cy="387.914" width="32.59" height="46.1806"/>
			<rect x="0" y="364.823" width="32.5868" height="46.1806" class="st1"/>
			<text x="13.85" y="393.31" class="st2" v:langID="2052"><v:paragraph v:horizAlign="1"/><v:tabList/>l</text>		</g>
		<g id="shape254-208" v:mID="254" v:groupContext="shape" transform="translate(65.7901,-0.375)">
			<title>矩形.254</title>
			<desc>...</desc>
			<v:userDefs>
				<v:ud v:nameU="visVersion" v:val="VT0(15):26"/>
			</v:userDefs>
			<v:textBlock v:margins="rect(4,4,4,4)" v:tabSpace="42.5197"/>
			<v:textRect cx="16.2934" cy="387.914" width="32.59" height="46.1806"/>
			<rect x="0" y="364.823" width="32.5868" height="46.1806" class="st1"/>
			<text x="10.76" y="393.31" class="st2" v:langID="2052"><v:paragraph v:horizAlign="1"/><v:tabList/>...</text>		</g>
	</g>
</svg>
