<?xml version="1.0" encoding="UTF-8" standalone="no"?>
<!DOCTYPE svg PUBLIC "-//W3C//DTD SVG 1.1//EN" "http://www.w3.org/Graphics/SVG/1.1/DTD/svg11.dtd">
<!-- 由 Microsoft Visio, SVG Export 生成 Kruskal1.svg 页-1 -->
<svg xmlns="http://www.w3.org/2000/svg" xmlns:xlink="http://www.w3.org/1999/xlink" xmlns:ev="http://www.w3.org/2001/xml-events"
		xmlns:v="http://schemas.microsoft.com/visio/2003/SVGExtensions/" width="3.36012in" height="3.05569in"
		viewBox="0 0 241.929 220.01" xml:space="preserve" color-interpolation-filters="sRGB" class="st9">
	<v:documentProperties v:langID="2052" v:metric="true" v:viewMarkup="false"/>

	<style type="text/css">
	<![CDATA[
		.st1 {fill:#ffffff;stroke:#000000;stroke-linecap:round;stroke-linejoin:round;stroke-width:0.75}
		.st2 {fill:#000000;font-family:Cambria Math;font-size:1.5em}
		.st3 {fill:#c05046}
		.st4 {stroke:none;stroke-linecap:round;stroke-linejoin:round;stroke-width:0.75}
		.st5 {stroke:#000000;stroke-linecap:round;stroke-linejoin:round;stroke-width:0.75}
		.st6 {fill:#c05046;stroke:#c05046;stroke-linecap:round;stroke-linejoin:round;stroke-width:0.75;visibility:hidden}
		.st7 {fill:#ffffff}
		.st8 {fill:#ffffff;stroke:#ffffff;stroke-linecap:round;stroke-linejoin:round;stroke-width:0.75;visibility:hidden}
		.st9 {fill:none;fill-rule:evenodd;font-size:12px;overflow:visible;stroke-linecap:square;stroke-miterlimit:3}
	]]>
	</style>

	<g v:mID="0" v:index="1" v:groupContext="foregroundPage">
		<title>页-1</title>
		<v:pageProperties v:drawingScale="0.0393701" v:pageScale="0.0393701" v:drawingUnits="24" v:shadowOffsetX="8.50394"
				v:shadowOffsetY="-8.50394"/>
		<g id="shape1539-1" v:mID="1539" v:groupContext="shape" transform="translate(65.8907,-184.981)">
			<title>圆形.1539</title>
			<desc>0</desc>
			<v:userDefs>
				<v:ud v:nameU="visVersion" v:val="VT0(15):26"/>
			</v:userDefs>
			<v:textBlock v:margins="rect(4,4,4,4)" v:tabSpace="42.5197"/>
			<v:textRect cx="17.3268" cy="202.683" width="34.66" height="34.6535"/>
			<path d="M0 202.68 A17.3268 17.3268 0 0 1 34.65 202.68 A17.3268 17.3268 0 1 1 0 202.68 Z" class="st1"/>
			<text x="12.34" y="208.08" class="st2" v:langID="2052"><v:paragraph v:horizAlign="1"/><v:tabList/>0</text>		</g>
		<g id="shape1540-4" v:mID="1540" v:groupContext="shape" transform="translate(0.375,-112.662)">
			<title>圆形.1540</title>
			<desc>1</desc>
			<v:userDefs>
				<v:ud v:nameU="visVersion" v:val="VT0(15):26"/>
			</v:userDefs>
			<v:textBlock v:margins="rect(4,4,4,4)" v:tabSpace="42.5197"/>
			<v:textRect cx="17.3268" cy="202.683" width="34.66" height="34.6535"/>
			<path d="M0 202.68 A17.3268 17.3268 0 0 1 34.65 202.68 A17.3268 17.3268 0 1 1 0 202.68 Z" class="st1"/>
			<text x="12.34" y="208.08" class="st2" v:langID="2052"><v:paragraph v:horizAlign="1"/><v:tabList/>1</text>		</g>
		<g id="shape1541-7" v:mID="1541" v:groupContext="shape" transform="translate(172.969,-137.076)">
			<title>圆形.1541</title>
			<desc>5</desc>
			<v:userDefs>
				<v:ud v:nameU="visVersion" v:val="VT0(15):26"/>
			</v:userDefs>
			<v:textBlock v:margins="rect(4,4,4,4)" v:tabSpace="42.5197"/>
			<v:textRect cx="17.3268" cy="202.683" width="34.66" height="34.6535"/>
			<path d="M0 202.68 A17.3268 17.3268 0 0 1 34.65 202.68 A17.3268 17.3268 0 1 1 0 202.68 Z" class="st1"/>
			<text x="12.34" y="208.08" class="st2" v:langID="2052"><v:paragraph v:horizAlign="1"/><v:tabList/>5</text>		</g>
		<g id="shape1542-10" v:mID="1542" v:groupContext="shape" transform="translate(25.4831,-12.6013)">
			<title>圆形.1542</title>
			<desc>2</desc>
			<v:userDefs>
				<v:ud v:nameU="visVersion" v:val="VT0(15):26"/>
			</v:userDefs>
			<v:textBlock v:margins="rect(4,4,4,4)" v:tabSpace="42.5197"/>
			<v:textRect cx="17.3268" cy="202.683" width="34.66" height="34.6535"/>
			<path d="M0 202.68 A17.3268 17.3268 0 0 1 34.65 202.68 A17.3268 17.3268 0 1 1 0 202.68 Z" class="st1"/>
			<text x="12.34" y="208.08" class="st2" v:langID="2052"><v:paragraph v:horizAlign="1"/><v:tabList/>2</text>		</g>
		<g id="shape1543-13" v:mID="1543" v:groupContext="shape" transform="translate(127.53,-0.375)">
			<title>圆形.1543</title>
			<desc>3</desc>
			<v:userDefs>
				<v:ud v:nameU="visVersion" v:val="VT0(15):26"/>
			</v:userDefs>
			<v:textBlock v:margins="rect(4,4,4,4)" v:tabSpace="42.5197"/>
			<v:textRect cx="17.3268" cy="202.683" width="34.66" height="34.6535"/>
			<path d="M0 202.68 A17.3268 17.3268 0 0 1 34.65 202.68 A17.3268 17.3268 0 1 1 0 202.68 Z" class="st1"/>
			<text x="12.34" y="208.08" class="st2" v:langID="2052"><v:paragraph v:horizAlign="1"/><v:tabList/>3</text>		</g>
		<g id="shape1544-16" v:mID="1544" v:groupContext="shape" transform="translate(206.9,-41.5855)">
			<title>圆形.1544</title>
			<desc>4</desc>
			<v:userDefs>
				<v:ud v:nameU="visVersion" v:val="VT0(15):26"/>
			</v:userDefs>
			<v:textBlock v:margins="rect(4,4,4,4)" v:tabSpace="42.5197"/>
			<v:textRect cx="17.3268" cy="202.683" width="34.66" height="34.6535"/>
			<path d="M0 202.68 A17.3268 17.3268 0 0 1 34.65 202.68 A17.3268 17.3268 0 1 1 0 202.68 Z" class="st1"/>
			<text x="12.34" y="208.08" class="st2" v:langID="2052"><v:paragraph v:horizAlign="1"/><v:tabList/>4</text>		</g>
		<g id="group1552-19" transform="translate(-126.145,-79.0716) rotate(-45)" v:mID="1552" v:groupContext="group">
			<v:userDefs>
				<v:ud v:nameU="OpenEnd" v:val="VT0(3):26"/>
				<v:ud v:nameU="visVersion" v:val="VT0(15):26"/>
			</v:userDefs>
			<title>开放/闭合条</title>
			<g id="shape1553-20" v:mID="1553" v:groupContext="shape">
				<title>工作表.1553</title>
				<path d="M0 220.01 L62.14 220.01 L62.14 217.74 L0 217.74 L0 220.01 Z" class="st3"/>
				<path d="M0 220.01 L62.14 220.01 L62.14 217.74 L0 217.74" class="st4"/>
			</g>
			<g id="shape1554-23" v:mID="1554" v:groupContext="shape">
				<title>工作表.1554</title>
				<path d="M0 220.01 L62.14 220.01 L0 220.01 ZM0 217.74 L62.14 217.74 L0 217.74 Z" class="st3"/>
				<path d="M0 220.01 L62.14 220.01" class="st5"/>
				<path d="" class="st5"/>
				<path d="M0 217.74 L62.14 217.74" class="st5"/>
				<path d="" class="st5"/>
				<path d="M0 220.01 L0 217.74" class="st5"/>
				<path d="M62.14 220.01 L62.14 217.74" class="st5"/>
			</g>
			<g id="shape1555-31" v:mID="1555" v:groupContext="shape" transform="translate(-1.125,-0.75)">
				<title>工作表.1555</title>
				<rect x="0" y="219.242" width="1.5" height="0.767717" class="st6"/>
			</g>
			<g id="shape1556-33" v:mID="1556" v:groupContext="shape" transform="translate(62.1363,-0.75)">
				<title>工作表.1556</title>
				<rect x="0" y="219.242" width="0.75" height="0.767717" class="st6"/>
			</g>
		</g>
		<g id="group1557-35" transform="translate(209.687,-168.711) rotate(30)" v:mID="1557" v:groupContext="group">
			<v:userDefs>
				<v:ud v:nameU="OpenEnd" v:val="VT0(3):26"/>
				<v:ud v:nameU="visVersion" v:val="VT0(15):26"/>
			</v:userDefs>
			<title>开放/闭合条.1557</title>
			<g id="shape1558-36" v:mID="1558" v:groupContext="shape">
				<title>工作表.1558</title>
				<path d="M0 220.01 L83.67 220.01 L83.67 217.74 L0 217.74 L0 220.01 Z" class="st3"/>
				<path d="M0 220.01 L83.67 220.01 L83.67 217.74 L0 217.74" class="st4"/>
			</g>
			<g id="shape1559-39" v:mID="1559" v:groupContext="shape">
				<title>工作表.1559</title>
				<path d="M0 220.01 L83.67 220.01 L0 220.01 ZM0 217.74 L83.67 217.74 L0 217.74 Z" class="st3"/>
				<path d="M0 220.01 L83.67 220.01" class="st5"/>
				<path d="" class="st5"/>
				<path d="M0 217.74 L83.67 217.74" class="st5"/>
				<path d="" class="st5"/>
				<path d="M0 220.01 L0 217.74" class="st5"/>
				<path d="M83.67 220.01 L83.67 217.74" class="st5"/>
			</g>
			<g id="shape1560-47" v:mID="1560" v:groupContext="shape" transform="translate(-1.125,-0.75)">
				<title>工作表.1560</title>
				<rect x="0" y="219.242" width="1.5" height="0.767717" class="st6"/>
			</g>
			<g id="shape1561-49" v:mID="1561" v:groupContext="shape" transform="translate(83.673,-0.75)">
				<title>工作表.1561</title>
				<rect x="0" y="219.242" width="0.75" height="0.767717" class="st6"/>
			</g>
		</g>
		<g id="group1562-51" transform="translate(-170.593,229.071) rotate(-105)" v:mID="1562" v:groupContext="group">
			<v:userDefs>
				<v:ud v:nameU="OpenEnd" v:val="VT0(3):26"/>
				<v:ud v:nameU="visVersion" v:val="VT0(15):26"/>
			</v:userDefs>
			<title>开放/闭合条.1562</title>
			<g id="shape1563-52" v:mID="1563" v:groupContext="shape">
				<title>工作表.1563</title>
				<path d="M0 220.01 L68.14 220.01 L68.14 217.74 L0 217.74 L0 220.01 Z" class="st3"/>
				<path d="M0 220.01 L68.14 220.01 L68.14 217.74 L0 217.74" class="st4"/>
			</g>
			<g id="shape1564-55" v:mID="1564" v:groupContext="shape">
				<title>工作表.1564</title>
				<path d="M0 220.01 L68.14 220.01 L0 220.01 ZM0 217.74 L68.14 217.74 L0 217.74 Z" class="st3"/>
				<path d="M0 220.01 L68.14 220.01" class="st5"/>
				<path d="" class="st5"/>
				<path d="M0 217.74 L68.14 217.74" class="st5"/>
				<path d="" class="st5"/>
				<path d="M0 220.01 L0 217.74" class="st5"/>
				<path d="M68.14 220.01 L68.14 217.74" class="st5"/>
			</g>
			<g id="shape1565-63" v:mID="1565" v:groupContext="shape" transform="translate(-1.125,-0.75)">
				<title>工作表.1565</title>
				<rect x="0" y="219.242" width="1.5" height="0.767717" class="st6"/>
			</g>
			<g id="shape1566-65" v:mID="1566" v:groupContext="shape" transform="translate(68.145,-0.75)">
				<title>工作表.1566</title>
				<rect x="0" y="219.242" width="0.75" height="0.767717" class="st6"/>
			</g>
		</g>
		<g id="group1567-67" transform="translate(116.667,-24.3324) rotate(15)" v:mID="1567" v:groupContext="group">
			<v:userDefs>
				<v:ud v:nameU="OpenEnd" v:val="VT0(3):26"/>
				<v:ud v:nameU="visVersion" v:val="VT0(15):26"/>
			</v:userDefs>
			<title>开放/闭合条.1567</title>
			<g id="shape1568-68" v:mID="1568" v:groupContext="shape">
				<title>工作表.1568</title>
				<path d="M0 220.01 L69.87 220.01 L69.87 217.74 L0 217.74 L0 220.01 Z" class="st7"/>
				<path d="M0 220.01 L69.87 220.01 L69.87 217.74 L0 217.74" class="st4"/>
			</g>
			<g id="shape1569-71" v:mID="1569" v:groupContext="shape">
				<title>工作表.1569</title>
				<path d="M0 220.01 L69.87 220.01 L0 220.01 ZM0 217.74 L69.87 217.74 L0 217.74 Z" class="st7"/>
				<path d="M0 220.01 L69.87 220.01" class="st5"/>
				<path d="" class="st5"/>
				<path d="M0 217.74 L69.87 217.74" class="st5"/>
				<path d="" class="st5"/>
				<path d="M0 220.01 L0 217.74" class="st5"/>
				<path d="M69.87 220.01 L69.87 217.74" class="st5"/>
			</g>
			<g id="shape1570-79" v:mID="1570" v:groupContext="shape" transform="translate(-1.125,-0.75)">
				<title>工作表.1570</title>
				<rect x="0" y="219.242" width="1.5" height="0.767717" class="st8"/>
			</g>
			<g id="shape1571-81" v:mID="1571" v:groupContext="shape" transform="translate(69.8685,-0.75)">
				<title>工作表.1571</title>
				<rect x="0" y="219.242" width="0.75" height="0.767717" class="st8"/>
			</g>
		</g>
		<g id="group1572-83" transform="translate(51.5011,6.80647) rotate(-30)" v:mID="1572" v:groupContext="group">
			<v:userDefs>
				<v:ud v:nameU="OpenEnd" v:val="VT0(3):26"/>
				<v:ud v:nameU="visVersion" v:val="VT0(15):26"/>
			</v:userDefs>
			<title>开放/闭合条.1572</title>
			<g id="shape1573-84" v:mID="1573" v:groupContext="shape">
				<title>工作表.1573</title>
				<path d="M0 220.01 L55.29 220.01 L55.29 217.74 L0 217.74 L0 220.01 Z" class="st3"/>
				<path d="M0 220.01 L55.29 220.01 L55.29 217.74 L0 217.74" class="st4"/>
			</g>
			<g id="shape1574-87" v:mID="1574" v:groupContext="shape">
				<title>工作表.1574</title>
				<path d="M0 220.01 L55.29 220.01 L0 220.01 ZM0 217.74 L55.29 217.74 L0 217.74 Z" class="st3"/>
				<path d="M0 220.01 L55.29 220.01" class="st5"/>
				<path d="" class="st5"/>
				<path d="M0 217.74 L55.29 217.74" class="st5"/>
				<path d="" class="st5"/>
				<path d="M0 220.01 L0 217.74" class="st5"/>
				<path d="M55.29 220.01 L55.29 217.74" class="st5"/>
			</g>
			<g id="shape1575-95" v:mID="1575" v:groupContext="shape" transform="translate(-1.125,-0.75)">
				<title>工作表.1575</title>
				<rect x="0" y="219.242" width="1.5" height="0.767717" class="st6"/>
			</g>
			<g id="shape1576-97" v:mID="1576" v:groupContext="shape" transform="translate(55.292,-0.75)">
				<title>工作表.1576</title>
				<rect x="0" y="219.242" width="0.75" height="0.767717" class="st6"/>
			</g>
		</g>
		<g id="group1577-99" transform="translate(3.14287,203.207) rotate(-105)" v:mID="1577" v:groupContext="group">
			<v:userDefs>
				<v:ud v:nameU="OpenEnd" v:val="VT0(3):26"/>
				<v:ud v:nameU="visVersion" v:val="VT0(15):26"/>
			</v:userDefs>
			<title>开放/闭合条.1577</title>
			<g id="shape1578-100" v:mID="1578" v:groupContext="shape">
				<title>工作表.1578</title>
				<path d="M0 220.01 L67.51 220.01 L67.51 217.74 L0 217.74 L0 220.01 Z" class="st3"/>
				<path d="M0 220.01 L67.51 220.01 L67.51 217.74 L0 217.74" class="st4"/>
			</g>
			<g id="shape1579-103" v:mID="1579" v:groupContext="shape">
				<title>工作表.1579</title>
				<path d="M0 220.01 L67.51 220.01 L0 220.01 ZM0 217.74 L67.51 217.74 L0 217.74 Z" class="st3"/>
				<path d="M0 220.01 L67.51 220.01" class="st5"/>
				<path d="" class="st5"/>
				<path d="M0 217.74 L67.51 217.74" class="st5"/>
				<path d="" class="st5"/>
				<path d="M0 220.01 L0 217.74" class="st5"/>
				<path d="M67.51 220.01 L67.51 217.74" class="st5"/>
			</g>
			<g id="shape1580-111" v:mID="1580" v:groupContext="shape" transform="translate(-1.125,-0.75)">
				<title>工作表.1580</title>
				<rect x="0" y="219.242" width="1.5" height="0.767717" class="st6"/>
			</g>
			<g id="shape1581-113" v:mID="1581" v:groupContext="shape" transform="translate(67.5096,-0.75)">
				<title>工作表.1581</title>
				<rect x="0" y="219.242" width="0.75" height="0.767717" class="st6"/>
			</g>
		</g>
	</g>
</svg>
