<?xml version="1.0" encoding="UTF-8" standalone="no"?>
<!DOCTYPE svg PUBLIC "-//W3C//DTD SVG 1.1//EN" "http://www.w3.org/Graphics/SVG/1.1/DTD/svg11.dtd">
<!-- 由 Microsoft Visio, SVG Export 生成 Tarjan1.svg 页-1 -->
<svg xmlns="http://www.w3.org/2000/svg" xmlns:xlink="http://www.w3.org/1999/xlink" xmlns:ev="http://www.w3.org/2001/xml-events"
		xmlns:v="http://schemas.microsoft.com/visio/2003/SVGExtensions/" width="3.36012in" height="3.05569in"
		viewBox="0 0 241.929 220.01" xml:space="preserve" color-interpolation-filters="sRGB" class="st8">
	<v:documentProperties v:langID="2052" v:metric="true" v:viewMarkup="false"/>

	<style type="text/css">
	<![CDATA[
		.st1 {fill:none;stroke:#000000;stroke-linecap:round;stroke-linejoin:round;stroke-width:0.75}
		.st2 {fill:#000000;font-family:Calibri;font-size:1.5em}
		.st3 {fill:#ffffff;stroke:#000000;stroke-linecap:round;stroke-linejoin:round;stroke-width:0.75}
		.st4 {fill:#ffffff}
		.st5 {stroke:none;stroke-linecap:round;stroke-linejoin:round;stroke-width:0.75}
		.st6 {stroke:#000000;stroke-linecap:round;stroke-linejoin:round;stroke-width:0.24}
		.st7 {fill:#ffffff;stroke:none;stroke-linecap:round;stroke-linejoin:round;stroke-width:0.24;visibility:hidden}
		.st8 {fill:none;fill-rule:evenodd;font-size:12px;overflow:visible;stroke-linecap:square;stroke-miterlimit:3}
	]]>
	</style>

	<g v:mID="0" v:index="1" v:groupContext="foregroundPage">
		<title>页-1</title>
		<v:pageProperties v:drawingScale="0.0393701" v:pageScale="0.0393701" v:drawingUnits="24" v:shadowOffsetX="8.50394"
				v:shadowOffsetY="-8.50394"/>
		<g id="shape1456-1" v:mID="1456" v:groupContext="shape" transform="translate(65.8907,-184.981)">
			<title>圆形.1484</title>
			<desc>0</desc>
			<v:userDefs>
				<v:ud v:nameU="visVersion" v:val="VT0(15):26"/>
			</v:userDefs>
			<v:textBlock v:margins="rect(4,4,4,4)" v:tabSpace="42.5197"/>
			<v:textRect cx="17.3268" cy="202.683" width="34.66" height="34.6535"/>
			<path d="M0 202.68 A17.3268 17.3268 0 0 1 34.65 202.68 A17.3268 17.3268 0 1 1 0 202.68 Z" class="st1"/>
			<text x="12.77" y="208.08" class="st2" v:langID="2052"><v:paragraph v:horizAlign="1"/><v:tabList/>0</text>		</g>
		<g id="shape1457-4" v:mID="1457" v:groupContext="shape" transform="translate(0.375,-112.662)">
			<title>圆形.1485</title>
			<desc>1</desc>
			<v:userDefs>
				<v:ud v:nameU="visVersion" v:val="VT0(15):26"/>
			</v:userDefs>
			<v:textBlock v:margins="rect(4,4,4,4)" v:tabSpace="42.5197"/>
			<v:textRect cx="17.3268" cy="202.683" width="34.66" height="34.6535"/>
			<path d="M0 202.68 A17.3268 17.3268 0 0 1 34.65 202.68 A17.3268 17.3268 0 1 1 0 202.68 Z" class="st1"/>
			<text x="12.77" y="208.08" class="st2" v:langID="2052"><v:paragraph v:horizAlign="1"/><v:tabList/>1</text>		</g>
		<g id="shape1458-7" v:mID="1458" v:groupContext="shape" transform="translate(172.969,-137.076)">
			<title>圆形.1486</title>
			<desc>5</desc>
			<v:userDefs>
				<v:ud v:nameU="visVersion" v:val="VT0(15):26"/>
			</v:userDefs>
			<v:textBlock v:margins="rect(4,4,4,4)" v:tabSpace="42.5197"/>
			<v:textRect cx="17.3268" cy="202.683" width="34.66" height="34.6535"/>
			<path d="M0 202.68 A17.3268 17.3268 0 0 1 34.65 202.68 A17.3268 17.3268 0 1 1 0 202.68 Z" class="st3"/>
			<text x="12.77" y="208.08" class="st2" v:langID="2052"><v:paragraph v:horizAlign="1"/><v:tabList/>5</text>		</g>
		<g id="shape1459-10" v:mID="1459" v:groupContext="shape" transform="translate(25.4831,-12.6013)">
			<title>圆形.1487</title>
			<desc>2</desc>
			<v:userDefs>
				<v:ud v:nameU="visVersion" v:val="VT0(15):26"/>
			</v:userDefs>
			<v:textBlock v:margins="rect(4,4,4,4)" v:tabSpace="42.5197"/>
			<v:textRect cx="17.3268" cy="202.683" width="34.66" height="34.6535"/>
			<path d="M0 202.68 A17.3268 17.3268 0 0 1 34.65 202.68 A17.3268 17.3268 0 1 1 0 202.68 Z" class="st3"/>
			<text x="12.77" y="208.08" class="st2" v:langID="2052"><v:paragraph v:horizAlign="1"/><v:tabList/>2</text>		</g>
		<g id="shape1460-13" v:mID="1460" v:groupContext="shape" transform="translate(127.53,-0.375)">
			<title>圆形.1488</title>
			<desc>3</desc>
			<v:userDefs>
				<v:ud v:nameU="visVersion" v:val="VT0(15):26"/>
			</v:userDefs>
			<v:textBlock v:margins="rect(4,4,4,4)" v:tabSpace="42.5197"/>
			<v:textRect cx="17.3268" cy="202.683" width="34.66" height="34.6535"/>
			<path d="M0 202.68 A17.3268 17.3268 0 0 1 34.65 202.68 A17.3268 17.3268 0 1 1 0 202.68 Z" class="st3"/>
			<text x="12.77" y="208.08" class="st2" v:langID="2052"><v:paragraph v:horizAlign="1"/><v:tabList/>3</text>		</g>
		<g id="shape1461-16" v:mID="1461" v:groupContext="shape" transform="translate(206.9,-41.5855)">
			<title>圆形.1489</title>
			<desc>4</desc>
			<v:userDefs>
				<v:ud v:nameU="visVersion" v:val="VT0(15):26"/>
			</v:userDefs>
			<v:textBlock v:margins="rect(4,4,4,4)" v:tabSpace="42.5197"/>
			<v:textRect cx="17.3268" cy="202.683" width="34.66" height="34.6535"/>
			<path d="M0 202.68 A17.3268 17.3268 0 0 1 34.65 202.68 A17.3268 17.3268 0 1 1 0 202.68 Z" class="st3"/>
			<text x="12.77" y="208.08" class="st2" v:langID="2052"><v:paragraph v:horizAlign="1"/><v:tabList/>4</text>		</g>
		<g id="group1507-19" transform="translate(222.757,181.74) rotate(135)" v:mID="1507" v:groupContext="group">
			<v:userDefs>
				<v:ud v:nameU="visVersion" v:val="VT0(15):26"/>
			</v:userDefs>
			<title>一维单向箭头</title>
			<g id="shape1508-20" v:mID="1508" v:groupContext="shape">
				<title>工作表.1508</title>
				<path d="M0 217.18 L60.57 217.18 L60.57 220.01 L63.4 214.34 L60.57 208.67 L60.57 211.51 L0 211.51 L0 217.18 Z"
						class="st4"/>
				<path d="M0 217.18 L60.57 217.18 L60.57 220.01 L63.4 214.34 L60.57 208.67 L60.57 211.51 L0 211.51" class="st5"/>
			</g>
			<g id="shape1509-23" v:mID="1509" v:groupContext="shape">
				<title>工作表.1509</title>
				<path d="M0 217.18 L60.57 217.18 L60.57 220.01 L63.4 214.34 L60.57 208.67 L60.57 211.51 L0 211.51 L0 217.18"
						class="st6"/>
			</g>
			<g id="shape1510-26" v:mID="1510" v:groupContext="shape" transform="translate(-0.812992,-2.88265)">
				<title>工作表.1510</title>
				<rect x="0" y="214.437" width="0.357885" height="5.57329" class="st7"/>
			</g>
		</g>
		<g id="group1511-28" transform="translate(285.266,85.5467) rotate(103.927)" v:mID="1511" v:groupContext="group">
			<v:userDefs>
				<v:ud v:nameU="visVersion" v:val="VT0(15):26"/>
			</v:userDefs>
			<title>一维单向箭头.1511</title>
			<g id="shape1512-29" v:mID="1512" v:groupContext="shape">
				<title>工作表.1512</title>
				<path d="M0 217.18 L140.16 217.18 L140.16 220.01 L143 214.34 L140.16 208.67 L140.16 211.51 L0 211.51 L0 217.18 Z"
						class="st4"/>
				<path d="M0 217.18 L140.16 217.18 L140.16 220.01 L143 214.34 L140.16 208.67 L140.16 211.51 L0 211.51" class="st5"/>
			</g>
			<g id="shape1513-32" v:mID="1513" v:groupContext="shape">
				<title>工作表.1513</title>
				<path d="M0 217.18 L140.16 217.18 L140.16 220.01 L143 214.34 L140.16 208.67 L140.16 211.51 L0 211.51 L0 217.18"
						class="st6"/>
			</g>
			<g id="shape1514-35" v:mID="1514" v:groupContext="shape" transform="translate(-1.83356,-2.88265)">
				<title>工作表.1514</title>
				<rect x="0" y="214.437" width="0.807148" height="5.57329" class="st7"/>
			</g>
		</g>
		<g id="group1515-37" transform="translate(170.503,-62.2855) rotate(40.4903)" v:mID="1515" v:groupContext="group">
			<v:userDefs>
				<v:ud v:nameU="visVersion" v:val="VT0(15):26"/>
			</v:userDefs>
			<title>一维单向箭头.1515</title>
			<g id="shape1516-38" v:mID="1516" v:groupContext="shape">
				<title>工作表.1516</title>
				<path d="M0 217.18 L132.51 217.18 L132.51 220.01 L135.34 214.34 L132.51 208.67 L132.51 211.51 L0 211.51 L0 217.18
							 Z" class="st4"/>
				<path d="M0 217.18 L132.51 217.18 L132.51 220.01 L135.34 214.34 L132.51 208.67 L132.51 211.51 L0 211.51"
						class="st5"/>
			</g>
			<g id="shape1517-41" v:mID="1517" v:groupContext="shape">
				<title>工作表.1517</title>
				<path d="M0 217.18 L132.51 217.18 L132.51 220.01 L135.34 214.34 L132.51 208.67 L132.51 211.51 L0 211.51 L0 217.18"
						class="st6"/>
			</g>
			<g id="shape1518-44" v:mID="1518" v:groupContext="shape" transform="translate(-1.73536,-2.88265)">
				<title>工作表.1518</title>
				<rect x="0" y="214.437" width="0.76392" height="5.57329" class="st7"/>
			</g>
		</g>
		<g id="group1519-46" transform="translate(98.3968,-20.8163) rotate(10.2825)" v:mID="1519" v:groupContext="group">
			<v:userDefs>
				<v:ud v:nameU="visVersion" v:val="VT0(15):26"/>
			</v:userDefs>
			<title>一维单向箭头.1519</title>
			<g id="shape1520-47" v:mID="1520" v:groupContext="shape">
				<title>工作表.1520</title>
				<path d="M0 217.18 L65.66 217.18 L65.66 220.01 L68.49 214.34 L65.66 208.67 L65.66 211.51 L0 211.51 L0 217.18 Z"
						class="st4"/>
				<path d="M0 217.18 L65.66 217.18 L65.66 220.01 L68.49 214.34 L65.66 208.67 L65.66 211.51 L0 211.51" class="st5"/>
			</g>
			<g id="shape1521-50" v:mID="1521" v:groupContext="shape">
				<title>工作表.1521</title>
				<path d="M0 217.18 L65.66 217.18 L65.66 220.01 L68.49 214.34 L65.66 208.67 L65.66 211.51 L0 211.51 L0 217.18"
						class="st6"/>
			</g>
			<g id="shape1522-53" v:mID="1522" v:groupContext="shape" transform="translate(-0.878242,-2.88265)">
				<title>工作表.1522</title>
				<rect x="0" y="214.437" width="0.386609" height="5.57329" class="st7"/>
			</g>
		</g>
		<g id="group1523-55" transform="translate(25.9441,-27.5021) rotate(-8.90607)" v:mID="1523" v:groupContext="group">
			<v:userDefs>
				<v:ud v:nameU="visVersion" v:val="VT0(15):26"/>
			</v:userDefs>
			<title>一维单向箭头.1523</title>
			<g id="shape1524-56" v:mID="1524" v:groupContext="shape">
				<title>工作表.1524</title>
				<path d="M0 217.18 L146.74 217.18 L146.74 220.01 L149.58 214.34 L146.74 208.67 L146.74 211.51 L0 211.51 L0 217.18
							 Z" class="st4"/>
				<path d="M0 217.18 L146.74 217.18 L146.74 220.01 L149.58 214.34 L146.74 208.67 L146.74 211.51 L0 211.51"
						class="st5"/>
			</g>
			<g id="shape1525-59" v:mID="1525" v:groupContext="shape">
				<title>工作表.1525</title>
				<path d="M0 217.18 L146.74 217.18 L146.74 220.01 L149.58 214.34 L146.74 208.67 L146.74 211.51 L0 211.51 L0 217.18"
						class="st6"/>
			</g>
			<g id="shape1526-62" v:mID="1526" v:groupContext="shape" transform="translate(-1.9179,-2.88265)">
				<title>工作表.1526</title>
				<rect x="0" y="214.437" width="0.844277" height="5.57329" class="st7"/>
			</g>
		</g>
		<g id="group1527-64" transform="translate(-50.9493,97.7934) rotate(-65.9977)" v:mID="1527" v:groupContext="group">
			<v:userDefs>
				<v:ud v:nameU="visVersion" v:val="VT0(15):26"/>
			</v:userDefs>
			<title>一维单向箭头.1527</title>
			<g id="shape1528-65" v:mID="1528" v:groupContext="shape">
				<title>工作表.1528</title>
				<path d="M0 217.18 L108.87 217.18 L108.87 220.01 L111.71 214.34 L108.87 208.67 L108.87 211.51 L0 211.51 L0 217.18
							 Z" class="st4"/>
				<path d="M0 217.18 L108.87 217.18 L108.87 220.01 L111.71 214.34 L108.87 208.67 L108.87 211.51 L0 211.51"
						class="st5"/>
			</g>
			<g id="shape1529-68" v:mID="1529" v:groupContext="shape">
				<title>工作表.1529</title>
				<path d="M0 217.18 L108.87 217.18 L108.87 220.01 L111.71 214.34 L108.87 208.67 L108.87 211.51 L0 211.51 L0 217.18"
						class="st6"/>
			</g>
			<g id="shape1530-71" v:mID="1530" v:groupContext="shape" transform="translate(-1.43233,-2.88265)">
				<title>工作表.1530</title>
				<rect x="0" y="214.437" width="0.630522" height="5.57329" class="st7"/>
			</g>
		</g>
		<g id="group1531-73" transform="translate(-53.3881,266.472) rotate(-112.346)" v:mID="1531" v:groupContext="group">
			<v:userDefs>
				<v:ud v:nameU="visVersion" v:val="VT0(15):26"/>
			</v:userDefs>
			<title>一维单向箭头.1531</title>
			<g id="shape1532-74" v:mID="1532" v:groupContext="shape">
				<title>工作表.1532</title>
				<path d="M0 217.18 L159.29 217.18 L159.29 220.01 L162.13 214.34 L159.29 208.67 L159.29 211.51 L0 211.51 L0 217.18
							 Z" class="st4"/>
				<path d="M0 217.18 L159.29 217.18 L159.29 220.01 L162.13 214.34 L159.29 208.67 L159.29 211.51 L0 211.51"
						class="st5"/>
			</g>
			<g id="shape1533-77" v:mID="1533" v:groupContext="shape">
				<title>工作表.1533</title>
				<path d="M0 217.18 L159.29 217.18 L159.29 220.01 L162.13 214.34 L159.29 208.67 L159.29 211.51 L0 211.51 L0 217.18"
						class="st6"/>
			</g>
			<g id="shape1534-80" v:mID="1534" v:groupContext="shape" transform="translate(-2.07883,-2.88265)">
				<title>工作表.1534</title>
				<rect x="0" y="214.437" width="0.915119" height="5.57329" class="st7"/>
			</g>
		</g>
		<g id="group1535-82" transform="translate(11.4634,199.994) rotate(-104.943)" v:mID="1535" v:groupContext="group">
			<v:userDefs>
				<v:ud v:nameU="visVersion" v:val="VT0(15):26"/>
			</v:userDefs>
			<title>一维单向箭头.1535</title>
			<g id="shape1536-83" v:mID="1536" v:groupContext="shape">
				<title>工作表.1536</title>
				<path d="M0 217.18 L65 217.18 L65 220.01 L67.84 214.34 L65 208.67 L65 211.51 L0 211.51 L0 217.18 Z" class="st4"/>
				<path d="M0 217.18 L65 217.18 L65 220.01 L67.84 214.34 L65 208.67 L65 211.51 L0 211.51" class="st5"/>
			</g>
			<g id="shape1537-86" v:mID="1537" v:groupContext="shape">
				<title>工作表.1537</title>
				<path d="M0 217.18 L65 217.18 L65 220.01 L67.84 214.34 L65 208.67 L65 211.51 L0 211.51 L0 217.18" class="st6"/>
			</g>
			<g id="shape1538-89" v:mID="1538" v:groupContext="shape" transform="translate(-0.86982,-2.88265)">
				<title>工作表.1538</title>
				<rect x="0" y="214.437" width="0.382902" height="5.57329" class="st7"/>
			</g>
		</g>
	</g>
</svg>
